#define pnj10_width 264
#define pnj10_height 176
static unsigned char pnj10_bits[] = {
   0x00, 0x00, 0x00, 0x00, 0x00, 0x00, 0x00, 0x00, 0x00, 0x00, 0x00, 0x00,
   0x00, 0x00, 0x00, 0x00, 0x00, 0x00, 0x00, 0x00, 0x00, 0x00, 0x00, 0x00,
   0x00, 0x00, 0x00, 0x00, 0x80, 0x04, 0x00, 0x00, 0x00, 0x00, 0x00, 0x00,
   0x00, 0x00, 0x00, 0x00, 0x00, 0x00, 0x00, 0x00, 0x00, 0x00, 0x00, 0x00,
   0x00, 0x00, 0x00, 0x00, 0x00, 0x00, 0x00, 0x00, 0x00, 0x50, 0x00, 0x02,
   0x01, 0x00, 0x01, 0x00, 0x00, 0x00, 0x00, 0x00, 0x00, 0x00, 0x00, 0x00,
   0x00, 0x00, 0x00, 0x00, 0x00, 0x00, 0x00, 0x00, 0x00, 0x00, 0x00, 0x00,
   0x00, 0x00, 0x00, 0x2a, 0x00, 0x00, 0x00, 0x00, 0x00, 0x00, 0x80, 0x04,
   0x00, 0x00, 0x00, 0x00, 0x00, 0x00, 0x00, 0x00, 0x00, 0x00, 0x00, 0x00,
   0x00, 0x00, 0x00, 0x00, 0x00, 0x00, 0x00, 0x00, 0x00, 0x00, 0x00, 0x00,
   0x00, 0x00, 0x00, 0x20, 0x00, 0x08, 0x00, 0x00, 0x04, 0x00, 0x00, 0x00,
   0x00, 0x00, 0x00, 0x00, 0x00, 0x00, 0x00, 0x00, 0x00, 0x00, 0x00, 0x00,
   0x00, 0x00, 0x00, 0x00, 0x00, 0x00, 0x00, 0x00, 0x00, 0x88, 0x00, 0x00,
   0x08, 0x00, 0x10, 0x00, 0xa0, 0x08, 0x01, 0x00, 0x00, 0x00, 0x00, 0x00,
   0x00, 0x00, 0x00, 0x00, 0x00, 0x00, 0x00, 0x00, 0x00, 0x00, 0x00, 0x00,
   0x00, 0x00, 0x00, 0x00, 0x00, 0x00, 0x08, 0x00, 0x00, 0x12, 0x50, 0x21,
   0x00, 0x04, 0x02, 0x02, 0x10, 0x00, 0x00, 0x00, 0x00, 0x00, 0x00, 0x00,
   0x00, 0x00, 0x00, 0x00, 0x00, 0x00, 0x00, 0x00, 0x00, 0x00, 0x00, 0x40,
   0x01, 0x00, 0x00, 0x00, 0x00, 0x00, 0x40, 0x04, 0x44, 0x00, 0xd0, 0x28,
   0x10, 0x44, 0x01, 0x00, 0x00, 0x00, 0x00, 0x00, 0x00, 0x00, 0x00, 0x00,
   0x00, 0x00, 0x00, 0x00, 0x00, 0x00, 0x00, 0x00, 0x00, 0x00, 0x00, 0x00,
   0x00, 0x00, 0x00, 0x90, 0xa0, 0x08, 0x01, 0x55, 0x55, 0xa5, 0x00, 0x00,
   0x00, 0x00, 0x00, 0x00, 0x00, 0x00, 0x00, 0x00, 0x00, 0x00, 0x00, 0x00,
   0x00, 0x00, 0x00, 0x00, 0x00, 0x00, 0x00, 0x00, 0x00, 0x00, 0x00, 0x00,
   0x20, 0x02, 0xa4, 0xa8, 0xaa, 0x2a, 0x09, 0xa8, 0x00, 0x00, 0x00, 0x00,
   0x00, 0x00, 0x00, 0x08, 0x00, 0x00, 0x00, 0x00, 0x00, 0x00, 0x00, 0x00,
   0x00, 0x00, 0x00, 0x00, 0x00, 0x00, 0x00, 0x00, 0x00, 0x84, 0x14, 0x04,
   0xa1, 0x4a, 0x51, 0x52, 0x02, 0x00, 0x00, 0x00, 0x00, 0x00, 0x00, 0x00,
   0x3c, 0x00, 0x00, 0x00, 0x00, 0x00, 0x00, 0x00, 0x00, 0x00, 0x00, 0x00,
   0x00, 0x00, 0x00, 0x00, 0x00, 0x00, 0x28, 0x55, 0x50, 0x95, 0x94, 0x56,
   0x48, 0xa9, 0x02, 0x00, 0x00, 0x00, 0x00, 0x00, 0x80, 0x3f, 0x00, 0x00,
   0x00, 0x00, 0x00, 0x00, 0x00, 0x00, 0x00, 0x00, 0x00, 0x00, 0x00, 0x00,
   0x00, 0x00, 0x00, 0x41, 0x54, 0x6b, 0x24, 0xa1, 0x48, 0x41, 0x44, 0x02,
   0x00, 0x00, 0x00, 0x00, 0x00, 0xf0, 0x3f, 0x00, 0x00, 0x00, 0x00, 0x00,
   0x00, 0x00, 0x00, 0x00, 0x00, 0x00, 0x00, 0x00, 0x00, 0x00, 0x00, 0x00,
   0x04, 0x82, 0x14, 0x4b, 0x2d, 0x15, 0x28, 0x51, 0x05, 0x00, 0x00, 0x00,
   0x00, 0x00, 0xf0, 0x1f, 0x00, 0x00, 0x00, 0x00, 0x00, 0x00, 0x00, 0x00,
   0x00, 0x00, 0x00, 0x00, 0x00, 0x00, 0x00, 0x00, 0x00, 0x08, 0x28, 0x12,
   0x54, 0xa2, 0xaa, 0x44, 0x00, 0x09, 0x00, 0x00, 0x00, 0x00, 0x00, 0x7c,
   0x00, 0x00, 0x00, 0x00, 0x00, 0x00, 0x00, 0x00, 0x00, 0x00, 0x00, 0x00,
   0x00, 0x00, 0x00, 0x00, 0x00, 0x00, 0x80, 0x80, 0x04, 0x82, 0x2a, 0x55,
   0x12, 0x20, 0x34, 0x00, 0x00, 0x00, 0x00, 0x00, 0x3f, 0x00, 0x00, 0x00,
   0x00, 0x00, 0x00, 0x00, 0x00, 0x00, 0x00, 0x00, 0x00, 0x00, 0x00, 0x00,
   0x00, 0x00, 0x04, 0x00, 0x20, 0x01, 0x80, 0xa0, 0x4a, 0x55, 0x04, 0x20,
   0x00, 0x00, 0x00, 0x00, 0x80, 0x1f, 0x00, 0x00, 0x00, 0x00, 0x00, 0x00,
   0x00, 0x00, 0x00, 0x00, 0x00, 0x00, 0x00, 0x00, 0x00, 0x00, 0x00, 0x00,
   0xa0, 0x80, 0x00, 0x01, 0x00, 0x51, 0x15, 0x20, 0x09, 0x00, 0x00, 0x00,
   0x00, 0xe0, 0x0f, 0x00, 0x00, 0x00, 0x00, 0x00, 0x00, 0x00, 0x00, 0x00,
   0x00, 0x00, 0x00, 0x00, 0x00, 0x00, 0x00, 0x54, 0x01, 0x00, 0x00, 0x00,
   0x80, 0x00, 0x40, 0x25, 0x40, 0x22, 0x00, 0x00, 0x00, 0x00, 0xf0, 0x07,
   0x00, 0x00, 0x00, 0x00, 0x00, 0x00, 0x00, 0x00, 0x00, 0x00, 0x00, 0x00,
   0x00, 0x00, 0x00, 0x00, 0x00, 0x00, 0x00, 0x40, 0x00, 0x00, 0x00, 0x80,
   0x4a, 0x57, 0x95, 0x00, 0x00, 0x00, 0x00, 0xf8, 0x03, 0x00, 0x00, 0x00,
   0x00, 0x00, 0x00, 0x00, 0x00, 0x00, 0x00, 0x00, 0x00, 0x00, 0x00, 0x00,
   0x00, 0x20, 0x00, 0x00, 0x00, 0x00, 0x00, 0x00, 0x20, 0xa8, 0x54, 0x25,
   0x00, 0x00, 0x00, 0x00, 0xf8, 0x01, 0x00, 0x00, 0x00, 0x00, 0x00, 0x00,
   0x00, 0x00, 0x00, 0x00, 0x00, 0x00, 0x00, 0x00, 0x00, 0x00, 0x00, 0x00,
   0x00, 0x00, 0x00, 0x00, 0x00, 0x40, 0xa2, 0x56, 0xaa, 0x00, 0x00, 0x00,
   0x00, 0xfc, 0x00, 0x00, 0x00, 0x00, 0x00, 0x00, 0x00, 0xc0, 0xff, 0x00,
   0x00, 0x00, 0x00, 0x00, 0x00, 0x00, 0x00, 0x00, 0x00, 0x00, 0x00, 0x00,
   0x00, 0x00, 0x08, 0x00, 0xaa, 0x54, 0x00, 0x00, 0x00, 0x7c, 0x7f, 0x00,
   0x00, 0x00, 0x00, 0x00, 0x00, 0x00, 0xf8, 0x7f, 0x00, 0x00, 0x00, 0x00,
   0x00, 0x00, 0x00, 0x00, 0x00, 0x00, 0x00, 0x00, 0x00, 0x00, 0x00, 0x24,
   0x82, 0x52, 0xa5, 0x00, 0x00, 0x00, 0xff, 0x3f, 0x00, 0x00, 0x00, 0x00,
   0x00, 0x00, 0x00, 0xfc, 0xff, 0x00, 0x00, 0x80, 0x00, 0x00, 0x00, 0x00,
   0x00, 0x00, 0x00, 0x00, 0x80, 0x02, 0x00, 0x80, 0x00, 0x04, 0x44, 0x15,
   0x00, 0x00, 0x80, 0xff, 0x3f, 0x00, 0x00, 0x00, 0x00, 0x00, 0x00, 0x00,
   0xff, 0xff, 0x00, 0x00, 0x50, 0x01, 0x00, 0x00, 0x00, 0x00, 0x00, 0x00,
   0x00, 0x80, 0x03, 0x00, 0x00, 0x00, 0x41, 0x59, 0x55, 0x00, 0x00, 0xc0,
   0xff, 0x7f, 0x00, 0x00, 0x00, 0x00, 0x00, 0x00, 0x00, 0xfe, 0x0f, 0x00,
   0x00, 0xc5, 0x07, 0x00, 0x00, 0x00, 0x00, 0x00, 0x00, 0x00, 0x80, 0x02,
   0x00, 0x00, 0x00, 0x0a, 0x40, 0x2a, 0x00, 0x00, 0xe0, 0xff, 0xff, 0x01,
   0x00, 0x00, 0x00, 0x00, 0x00, 0xc0, 0x5f, 0x00, 0x00, 0x00, 0xb5, 0x3e,
   0x00, 0x00, 0x00, 0x00, 0x00, 0x00, 0x80, 0x8a, 0x03, 0x00, 0x00, 0x00,
   0x10, 0x88, 0x8a, 0x00, 0x00, 0xf0, 0xff, 0xff, 0x01, 0x00, 0x00, 0x00,
   0x00, 0x00, 0xc0, 0x1f, 0x00, 0x00, 0xa0, 0xaa, 0xe8, 0x01, 0x00, 0x00,
   0x00, 0x00, 0x00, 0xa0, 0x52, 0x03, 0x00, 0x00, 0x00, 0x22, 0x11, 0x1a,
   0x00, 0x00, 0xf0, 0xff, 0xff, 0x01, 0x00, 0x00, 0x00, 0x00, 0x00, 0xf0,
   0x07, 0x00, 0x00, 0x50, 0x4b, 0x52, 0x0b, 0x00, 0x00, 0x00, 0xa0, 0x00,
   0x94, 0x94, 0x01, 0x00, 0x00, 0x00, 0x88, 0x44, 0x25, 0x00, 0x00, 0xf8,
   0xff, 0xff, 0x03, 0x00, 0x00, 0x00, 0x00, 0x00, 0xdc, 0x05, 0x00, 0x00,
   0x54, 0x5a, 0x05, 0x12, 0x00, 0x00, 0x00, 0x00, 0x00, 0x25, 0x80, 0x03,
   0x00, 0x00, 0x00, 0x80, 0x4a, 0x0a, 0x00, 0x00, 0xf8, 0xef, 0xff, 0x03,
   0x00, 0x00, 0x00, 0x00, 0x00, 0xfc, 0x00, 0x00, 0xa0, 0xd5, 0x12, 0x50,
   0x40, 0x09, 0x09, 0x00, 0x40, 0x40, 0x12, 0x80, 0x02, 0x00, 0x00, 0x00,
   0x80, 0x24, 0x55, 0x00, 0x00, 0xfe, 0xe7, 0xf7, 0x03, 0x00, 0x00, 0x00,
   0x00, 0x00, 0xff, 0x00, 0x00, 0x2a, 0x95, 0x16, 0x40, 0x05, 0x50, 0x01,
   0x00, 0x00, 0x92, 0x02, 0x80, 0x03, 0x00, 0x00, 0x00, 0x00, 0x45, 0x55,
   0x00, 0x00, 0xff, 0xe3, 0xe7, 0x01, 0x00, 0x00, 0x00, 0x00, 0x80, 0x3f,
   0x00, 0xa0, 0x75, 0x55, 0x00, 0x02, 0x08, 0x00, 0x01, 0x00, 0x00, 0x29,
   0x00, 0x01, 0x07, 0x00, 0x00, 0x00, 0x40, 0xa1, 0xaa, 0x00, 0x00, 0xff,
   0xe1, 0x67, 0x00, 0x00, 0x00, 0x00, 0x00, 0xc0, 0x1f, 0x00, 0x28, 0x45,
   0x11, 0x14, 0xa0, 0x02, 0x00, 0x22, 0x00, 0x40, 0xa2, 0x0a, 0x00, 0x06,
   0x00, 0x00, 0x00, 0x00, 0x01, 0x2a, 0x00, 0x00, 0xff, 0xe1, 0x07, 0x00,
   0x00, 0x00, 0x00, 0x00, 0xe0, 0x07, 0x00, 0xd5, 0x2a, 0x25, 0x00, 0x04,
   0x80, 0x00, 0x80, 0x2a, 0xb5, 0x04, 0x00, 0x00, 0x17, 0x00, 0x00, 0x00,
   0x20, 0x00, 0xd4, 0x00, 0x00, 0xff, 0xe0, 0x03, 0x00, 0x00, 0x00, 0x00,
   0x00, 0xf0, 0x03, 0x50, 0xad, 0x4a, 0x40, 0x02, 0x90, 0x00, 0x00, 0x00,
   0x48, 0x04, 0x01, 0x00, 0x00, 0x0e, 0x00, 0x00, 0x00, 0x00, 0x00, 0x28,
   0x00, 0x00, 0x7f, 0xf0, 0x03, 0x00, 0x00, 0x00, 0x00, 0x00, 0xf4, 0x01,
   0xa5, 0x52, 0x12, 0x29, 0x00, 0x04, 0x00, 0x00, 0x02, 0xa0, 0xaa, 0x00,
   0x00, 0x00, 0x0a, 0x00, 0x00, 0x00, 0x00, 0x00, 0xaa, 0x00, 0x00, 0x7f,
   0xf0, 0x03, 0x00, 0x00, 0x00, 0x00, 0xc0, 0xfc, 0x5d, 0x5a, 0xab, 0x24,
   0x01, 0x00, 0x00, 0x00, 0x00, 0x00, 0x40, 0x08, 0x01, 0x00, 0x00, 0x1e,
   0x00, 0x00, 0x00, 0x00, 0x00, 0x68, 0x00, 0x00, 0x7f, 0xf0, 0x03, 0x00,
   0x00, 0x00, 0x80, 0x8a, 0x12, 0x55, 0xa5, 0x2c, 0x12, 0x00, 0x02, 0x00,
   0x00, 0x00, 0x04, 0x04, 0x20, 0x00, 0x00, 0x00, 0x1f, 0x00, 0x00, 0x00,
   0x00, 0x00, 0x94, 0x00, 0x00, 0x7f, 0xf0, 0x83, 0x3f, 0x00, 0x00, 0xa0,
   0x7a, 0x6b, 0x55, 0xad, 0x55, 0x24, 0x00, 0x00, 0x00, 0x00, 0x00, 0x80,
   0x08, 0x01, 0x00, 0x00, 0x00, 0x34, 0x00, 0x00, 0x00, 0x00, 0x00, 0x50,
   0x00, 0x00, 0xff, 0xf0, 0xff, 0xff, 0xfc, 0x0f, 0x68, 0x4b, 0xaa, 0xaa,
   0x55, 0x8a, 0x08, 0x00, 0x00, 0x00, 0x00, 0x00, 0x00, 0x00, 0x04, 0x00,
   0x00, 0x00, 0x50, 0x00, 0x00, 0x04, 0x00, 0x00, 0x90, 0x00, 0x00, 0xfe,
   0xf0, 0xff, 0xff, 0xff, 0x1f, 0x6e, 0x6d, 0x55, 0x7b, 0x49, 0x55, 0x01,
   0x00, 0x00, 0x00, 0x00, 0x00, 0x00, 0x00, 0x00, 0x00, 0x00, 0x00, 0x50,
   0x01, 0x00, 0x00, 0x00, 0x00, 0x20, 0x00, 0x00, 0xfe, 0xfb, 0xff, 0xff,
   0xff, 0xff, 0x55, 0x55, 0x55, 0x7f, 0x15, 0x2a, 0x02, 0x00, 0x00, 0x00,
   0x00, 0x00, 0x00, 0x00, 0x00, 0x00, 0x00, 0x00, 0x60, 0x04, 0x00, 0x01,
   0x00, 0x00, 0x90, 0x00, 0x00, 0xfe, 0xff, 0xff, 0xff, 0x3f, 0xff, 0x57,
   0x5f, 0xeb, 0x7f, 0x6b, 0xa9, 0x04, 0x00, 0x00, 0x00, 0x00, 0x00, 0x00,
   0x00, 0x00, 0x00, 0x00, 0x00, 0x80, 0x03, 0x00, 0x00, 0x00, 0x00, 0x00,
   0x00, 0x00, 0xfe, 0xff, 0xff, 0xdf, 0x3f, 0xfc, 0xff, 0xff, 0xfd, 0xff,
   0x94, 0x4a, 0x00, 0x00, 0x00, 0x00, 0x00, 0x00, 0x00, 0x00, 0x00, 0x00,
   0x00, 0x00, 0x00, 0x05, 0x00, 0x00, 0x00, 0x00, 0x00, 0x00, 0x80, 0xff,
   0xff, 0xff, 0xff, 0x3f, 0xb8, 0xff, 0xff, 0xff, 0xff, 0x7f, 0x15, 0x03,
   0x00, 0x00, 0x00, 0x00, 0x00, 0x00, 0x00, 0x00, 0x00, 0x00, 0x00, 0x00,
   0x05, 0x00, 0x00, 0x00, 0x00, 0x00, 0x00, 0xe0, 0xff, 0xff, 0xff, 0xff,
   0xff, 0xff, 0xff, 0xff, 0xff, 0xdf, 0xff, 0xff, 0x56, 0x00, 0x00, 0x00,
   0x00, 0x00, 0x00, 0x00, 0x00, 0x00, 0x00, 0x00, 0x00, 0x1c, 0x00, 0x00,
   0x00, 0x00, 0x00, 0x00, 0xf8, 0xff, 0xff, 0xff, 0xff, 0xff, 0xff, 0xff,
   0xff, 0xff, 0xff, 0xed, 0xf7, 0xff, 0x2b, 0x01, 0x00, 0x00, 0x00, 0x00,
   0x00, 0x00, 0x00, 0x00, 0x00, 0x00, 0x28, 0x00, 0x00, 0x00, 0x00, 0x00,
   0x00, 0xff, 0xff, 0xff, 0xff, 0xff, 0xff, 0xff, 0xff, 0xff, 0xff, 0xff,
   0xff, 0xfd, 0xdd, 0x7f, 0x2f, 0x00, 0x00, 0x00, 0x00, 0x00, 0x00, 0x00,
   0x00, 0x00, 0x00, 0x60, 0x00, 0x00, 0x00, 0x00, 0x00, 0x80, 0xff, 0xff,
   0xff, 0xff, 0xff, 0xff, 0xff, 0xff, 0xff, 0xff, 0xdd, 0xff, 0xbf, 0x7f,
   0xef, 0xed, 0x05, 0x00, 0x00, 0x00, 0x00, 0x00, 0x00, 0x00, 0x00, 0x00,
   0xc0, 0x00, 0x00, 0x00, 0x00, 0x00, 0xe0, 0xff, 0xff, 0xff, 0xfe, 0xff,
   0xff, 0xff, 0xff, 0xff, 0x7f, 0x77, 0xff, 0xf7, 0xfd, 0xff, 0xbf, 0x1b,
   0x00, 0x00, 0x00, 0x00, 0x00, 0x00, 0x00, 0x00, 0x00, 0x00, 0x01, 0x00,
   0x00, 0x00, 0x00, 0xf0, 0xff, 0xff, 0xff, 0xfb, 0xff, 0xff, 0xff, 0xff,
   0xdf, 0x6f, 0xed, 0xd7, 0xff, 0xad, 0xbd, 0xff, 0xff, 0x01, 0x00, 0x00,
   0x00, 0x00, 0x00, 0x00, 0x00, 0x00, 0x00, 0x06, 0x00, 0xd0, 0x00, 0x00,
   0xf8, 0xff, 0xff, 0xff, 0xff, 0xff, 0xff, 0xff, 0xff, 0xff, 0xd5, 0xb6,
   0x7e, 0x6d, 0xff, 0xf6, 0xff, 0xff, 0x2f, 0x00, 0x00, 0x00, 0x00, 0x00,
   0x00, 0x00, 0x00, 0x00, 0x1c, 0x00, 0x10, 0x00, 0x00, 0xf8, 0xff, 0xff,
   0xff, 0xff, 0xff, 0xff, 0xff, 0xff, 0xfb, 0xdd, 0xfe, 0xb6, 0xff, 0xdb,
   0xef, 0xfe, 0xff, 0x7f, 0x01, 0x00, 0x00, 0x00, 0x00, 0x00, 0x00, 0x00,
   0x00, 0x38, 0x00, 0x28, 0x00, 0x00, 0xf8, 0xff, 0xff, 0xff, 0xff, 0xff,
   0xff, 0xff, 0xff, 0xbf, 0xb3, 0xff, 0x7d, 0xfd, 0xff, 0xbf, 0xf7, 0xff,
   0xdf, 0x8a, 0x00, 0x00, 0x00, 0x00, 0x00, 0x00, 0x00, 0x00, 0xf8, 0x00,
   0x00, 0x00, 0x08, 0xf8, 0xff, 0xff, 0xff, 0xff, 0xff, 0xff, 0xff, 0xff,
   0xfb, 0xef, 0xff, 0xeb, 0xfa, 0xff, 0xff, 0xdf, 0xbf, 0xff, 0x7f, 0x01,
   0x00, 0x00, 0x00, 0x00, 0x00, 0x00, 0x00, 0xd0, 0x03, 0x01, 0x00, 0x14,
   0xfc, 0xff, 0xff, 0xff, 0xff, 0xff, 0xff, 0xff, 0xff, 0xeb, 0xeb, 0xff,
   0x9b, 0xfa, 0x7f, 0xff, 0xff, 0xf6, 0xff, 0x5b, 0x2f, 0x00, 0x00, 0x00,
   0x00, 0x00, 0x00, 0x00, 0x40, 0x0d, 0x00, 0x00, 0x20, 0xfc, 0xff, 0xff,
   0xff, 0xff, 0xff, 0xff, 0xff, 0xff, 0xfb, 0xef, 0xff, 0xbf, 0xe2, 0xff,
   0xff, 0xfd, 0xdf, 0xfd, 0xff, 0x6a, 0x01, 0x00, 0x00, 0x00, 0x00, 0x00,
   0x00, 0x00, 0x16, 0x00, 0x00, 0x01, 0xfc, 0xff, 0xff, 0xff, 0xff, 0xff,
   0xff, 0xff, 0xff, 0xa7, 0xff, 0xd7, 0xaf, 0xea, 0xff, 0xdd, 0xef, 0xfe,
   0xef, 0xff, 0xd7, 0x0a, 0x00, 0x00, 0x00, 0x00, 0x00, 0x00, 0x00, 0x18,
   0x00, 0x00, 0x00, 0xf8, 0xff, 0xdf, 0xff, 0xff, 0xff, 0xff, 0xff, 0xff,
   0xbf, 0xf4, 0x8b, 0xaa, 0xca, 0xff, 0xff, 0xff, 0xbd, 0xff, 0xfb, 0xff,
   0x5a, 0x00, 0x00, 0x00, 0x00, 0x00, 0x00, 0x00, 0x50, 0x00, 0x00, 0x00,
   0xf8, 0xff, 0xff, 0xff, 0xff, 0xff, 0xff, 0xff, 0xff, 0x5f, 0xa9, 0xb6,
   0xae, 0xaa, 0xf7, 0x7b, 0xf7, 0xff, 0xbd, 0xbf, 0xdf, 0xbb, 0x0b, 0x00,
   0x00, 0x00, 0x00, 0x00, 0x00, 0x40, 0x00, 0x00, 0x00, 0xf8, 0xff, 0xf5,
   0xff, 0xff, 0xff, 0xff, 0xff, 0xff, 0xff, 0xb7, 0xea, 0xfb, 0xb6, 0xff,
   0xff, 0xbe, 0xef, 0xfb, 0xff, 0xfe, 0x57, 0x7b, 0x01, 0x00, 0x00, 0x00,
   0x00, 0x00, 0x00, 0x00, 0x00, 0x00, 0xf0, 0xef, 0xff, 0xff, 0xff, 0xff,
   0xff, 0xff, 0xff, 0xff, 0xc9, 0x56, 0xad, 0x6b, 0xbd, 0xdf, 0xf7, 0x7a,
   0x7f, 0xf7, 0xbf, 0x8f, 0x56, 0x27, 0x00, 0x00, 0x00, 0x00, 0x00, 0x00,
   0x05, 0x00, 0x00, 0xf0, 0xff, 0xf7, 0xff, 0xff, 0xff, 0xff, 0xff, 0xff,
   0xff, 0xff, 0xbf, 0xef, 0x4e, 0x69, 0xff, 0xee, 0xef, 0xf7, 0xff, 0xfb,
   0x3e, 0x50, 0xad, 0x00, 0x00, 0x00, 0x00, 0x00, 0x00, 0x28, 0x00, 0x00,
   0xe0, 0xef, 0xff, 0xff, 0xff, 0xff, 0xff, 0xff, 0xff, 0xff, 0xbf, 0xff,
   0x5a, 0xbb, 0xd5, 0xba, 0xbf, 0x7b, 0x7f, 0xff, 0xff, 0xef, 0x80, 0x5a,
   0x05, 0x00, 0x00, 0x00, 0x00, 0x00, 0xc0, 0x02, 0x00, 0xe0, 0xff, 0xff,
   0xff, 0xff, 0xff, 0xff, 0xff, 0xff, 0xff, 0xff, 0xdb, 0x77, 0x6b, 0x55,
   0xe5, 0x76, 0xff, 0xed, 0xdf, 0xdf, 0xff, 0xc0, 0xb2, 0x4a, 0x05, 0x00,
   0x00, 0x00, 0x40, 0x00, 0x05, 0x00, 0xf0, 0xff, 0xff, 0xff, 0xff, 0xff,
   0xff, 0xff, 0xff, 0xff, 0xff, 0x7f, 0xdf, 0xad, 0x55, 0x55, 0xfb, 0xed,
   0xff, 0xfd, 0xfd, 0xae, 0x41, 0x21, 0x59, 0x05, 0x02, 0x00, 0x00, 0x00,
   0x40, 0x0d, 0x00, 0xe0, 0xff, 0xff, 0xff, 0xff, 0xff, 0xff, 0xff, 0xff,
   0xf7, 0xbf, 0xd7, 0xaa, 0x7b, 0x55, 0xad, 0xd6, 0xbf, 0xdf, 0xff, 0xff,
   0xff, 0x97, 0x02, 0xa0, 0xda, 0x04, 0x00, 0x00, 0x00, 0x00, 0x78, 0x00,
   0xf0, 0xf7, 0xff, 0xff, 0xff, 0xff, 0xff, 0xff, 0xff, 0xfd, 0x7f, 0xaf,
   0xbe, 0xae, 0xab, 0x6a, 0x75, 0xff, 0xfd, 0xef, 0xfb, 0x7b, 0x2b, 0x38,
   0x00, 0x54, 0x15, 0x00, 0x00, 0x00, 0x80, 0xaa, 0x00, 0xf0, 0xff, 0xff,
   0xff, 0xff, 0xff, 0xff, 0xff, 0xbf, 0xf7, 0x5f, 0xe9, 0xe9, 0xba, 0x56,
   0x55, 0xd5, 0xfb, 0xf7, 0xde, 0xdf, 0xff, 0x0f, 0x64, 0x00, 0x40, 0x55,
   0x01, 0x00, 0x05, 0x10, 0xc0, 0x07, 0xf0, 0xff, 0xff, 0xff, 0xff, 0xff,
   0xff, 0xff, 0x6b, 0xfd, 0xbf, 0x16, 0x55, 0xeb, 0xad, 0xaa, 0xfa, 0xfe,
   0xdf, 0xff, 0xff, 0xef, 0x3f, 0x58, 0x00, 0x00, 0x55, 0x05, 0x00, 0x12,
   0xa5, 0x5a, 0x15, 0xf0, 0xff, 0xff, 0xf7, 0xff, 0xff, 0xff, 0x7f, 0xdf,
   0xfd, 0xb7, 0x54, 0x6d, 0x5b, 0x6b, 0x6d, 0xd5, 0xff, 0xff, 0xbf, 0xfd,
   0xbe, 0x7f, 0x08, 0x05, 0x00, 0x68, 0x1b, 0x00, 0x12, 0x14, 0x50, 0x7d,
   0xd0, 0xff, 0xff, 0xff, 0xff, 0xff, 0xff, 0xff, 0xba, 0xff, 0x6f, 0x25,
   0x55, 0xad, 0x5d, 0x55, 0xb5, 0xff, 0xff, 0xfe, 0xef, 0xfb, 0xbd, 0x41,
   0x03, 0x00, 0x80, 0xf6, 0x55, 0xa8, 0xa4, 0x40, 0x6a, 0xf0, 0xff, 0xff,
   0xff, 0xff, 0xff, 0xff, 0xdf, 0xb6, 0xfe, 0xdd, 0xa9, 0x54, 0xbb, 0xd5,
   0x6b, 0x65, 0xff, 0xff, 0xff, 0xff, 0xbf, 0xfb, 0x61, 0x87, 0x00, 0x00,
   0x54, 0x57, 0x29, 0x95, 0xaa, 0xea, 0xe0, 0xff, 0xff, 0xff, 0xff, 0xff,
   0xff, 0xb7, 0xed, 0xff, 0x2d, 0x95, 0xd2, 0x56, 0x5b, 0xad, 0x95, 0xff,
   0xff, 0xff, 0xbe, 0xf5, 0xfe, 0xa9, 0x07, 0x00, 0x00, 0x70, 0xad, 0x52,
   0x55, 0x91, 0x5a, 0xe0, 0xff, 0xff, 0xff, 0xff, 0xff, 0xff, 0xff, 0xfd,
   0xff, 0xfd, 0x55, 0xaa, 0x6a, 0xad, 0xb5, 0x6d, 0xfd, 0xff, 0xf7, 0xff,
   0xd7, 0xd7, 0x03, 0x01, 0x00, 0x00, 0x40, 0xeb, 0x52, 0x55, 0xa5, 0xf4,
   0xc0, 0xff, 0xff, 0xff, 0xff, 0xff, 0xff, 0xff, 0xff, 0x7f, 0x57, 0x41,
   0x55, 0xab, 0xb5, 0xae, 0x5a, 0xff, 0xff, 0xff, 0x7b, 0x5d, 0x6d, 0x03,
   0x00, 0x00, 0x00, 0x00, 0x96, 0x0a, 0x69, 0x92, 0xea, 0xc0, 0xff, 0xff,
   0xff, 0xff, 0xff, 0xff, 0xff, 0xff, 0xff, 0xdd, 0xaf, 0x44, 0xac, 0xaa,
   0xa9, 0xfc, 0xff, 0xff, 0xdf, 0xff, 0xeb, 0xdb, 0x07, 0x02, 0x00, 0x00,
   0x00, 0x50, 0x35, 0x49, 0xb5, 0xda, 0x00, 0xff, 0xff, 0xdf, 0xff, 0xff,
   0xff, 0xff, 0xff, 0x5f, 0x77, 0xff, 0xfb, 0xeb, 0xad, 0xee, 0xff, 0xff,
   0xff, 0xff, 0xef, 0x5f, 0xb7, 0x0a, 0x7c, 0x00, 0x00, 0x00, 0x00, 0x82,
   0xaa, 0x52, 0xd5, 0x00, 0xff, 0xff, 0xff, 0xff, 0xff, 0xff, 0xff, 0xff,
   0xff, 0xff, 0xff, 0xff, 0xff, 0xff, 0xfb, 0xff, 0xff, 0xff, 0x7f, 0xff,
   0xfb, 0x76, 0x8f, 0x6a, 0x00, 0x00, 0x00, 0x00, 0x10, 0xa8, 0x56, 0xa9,
   0x00, 0xfc, 0xff, 0xff, 0xff, 0xff, 0xff, 0xff, 0xff, 0xff, 0xff, 0xff,
   0xff, 0xff, 0xff, 0xff, 0xff, 0xef, 0xff, 0xff, 0xff, 0x5d, 0xdb, 0xaa,
   0x5a, 0x00, 0x00, 0x00, 0x00, 0x00, 0x22, 0xb5, 0x56, 0x00, 0xf8, 0xff,
   0xff, 0xff, 0xff, 0xff, 0xdb, 0xff, 0xff, 0xff, 0xff, 0xff, 0xff, 0xff,
   0xff, 0xbf, 0xff, 0xff, 0xff, 0xde, 0xfb, 0x5e, 0x1b, 0x14, 0x00, 0x00,
   0x00, 0x00, 0x00, 0x00, 0xaa, 0xaa, 0x00, 0xf8, 0xff, 0xff, 0xff, 0xff,
   0x55, 0xa5, 0xfe, 0xff, 0xff, 0xff, 0xff, 0xff, 0xff, 0xff, 0xff, 0xdf,
   0xff, 0xff, 0xfb, 0xaf, 0xeb, 0x2e, 0x00, 0x00, 0x00, 0x00, 0x00, 0x00,
   0x00, 0x68, 0x55, 0x00, 0xfc, 0xff, 0xff, 0xff, 0x7f, 0x5b, 0x95, 0xff,
   0xff, 0xff, 0xff, 0xdf, 0xff, 0xff, 0xff, 0xff, 0xfb, 0xff, 0xff, 0xbf,
   0xff, 0xde, 0x3b, 0x00, 0x00, 0x00, 0x00, 0x00, 0x00, 0x00, 0x80, 0xb6,
   0x00, 0xfe, 0xff, 0xff, 0xff, 0xff, 0xa5, 0xaa, 0xff, 0xff, 0xff, 0xff,
   0xf7, 0xfe, 0xff, 0xff, 0xbb, 0xff, 0xff, 0xff, 0xf7, 0xae, 0x7b, 0x2f,
   0x00, 0x00, 0x00, 0x00, 0x00, 0x00, 0x04, 0x40, 0x69, 0x00, 0xfe, 0xff,
   0xff, 0xff, 0xff, 0x95, 0x54, 0xfe, 0xff, 0xff, 0x5f, 0x05, 0x00, 0xff,
   0x7f, 0xfb, 0xed, 0xff, 0xff, 0xff, 0xff, 0x6e, 0x3d, 0xe0, 0x01, 0x00,
   0x00, 0x00, 0x00, 0x00, 0x00, 0xa0, 0x00, 0xff, 0xff, 0xff, 0xff, 0xff,
   0x53, 0xd5, 0x3b, 0xb5, 0xe8, 0xdf, 0x02, 0x80, 0xaa, 0xd2, 0xef, 0xb6,
   0xff, 0xff, 0xf7, 0xb7, 0xfb, 0x77, 0x58, 0x01, 0x00, 0x00, 0x00, 0x00,
   0x00, 0x00, 0x00, 0x00, 0xff, 0xff, 0xff, 0xff, 0xff, 0xf7, 0x3b, 0x55,
   0xba, 0xf5, 0xaf, 0x0b, 0x00, 0x48, 0x55, 0xff, 0xa8, 0xff, 0xff, 0x5f,
   0xff, 0x57, 0x6f, 0xd0, 0x01, 0x00, 0x00, 0x00, 0x00, 0x00, 0x00, 0x00,
   0x00, 0xff, 0xff, 0xff, 0xff, 0xff, 0x29, 0xa5, 0x8a, 0x7d, 0xf5, 0xe7,
   0x0a, 0x02, 0xa5, 0xea, 0x3f, 0x75, 0xfd, 0xff, 0xff, 0xdf, 0xfe, 0xbf,
   0x20, 0x00, 0x00, 0x00, 0x00, 0x00, 0x00, 0x00, 0x00, 0x00, 0xff, 0xdf,
   0xff, 0xff, 0x7f, 0x6d, 0x55, 0x32, 0x79, 0xa5, 0xc7, 0x16, 0x08, 0x24,
   0xf4, 0x7b, 0xa4, 0xdb, 0xff, 0xf7, 0xfb, 0xe7, 0x7a, 0x00, 0x00, 0x00,
   0x00, 0x00, 0x00, 0x00, 0x00, 0x00, 0x00, 0xfe, 0xff, 0xff, 0xff, 0x5f,
   0x55, 0xa9, 0xa5, 0xbe, 0xfd, 0x87, 0x05, 0x00, 0x50, 0xdb, 0xb5, 0xd8,
   0x6e, 0xff, 0xff, 0xdf, 0xbe, 0xff, 0x00, 0x00, 0x00, 0x00, 0x00, 0x00,
   0x00, 0x00, 0x00, 0x00, 0xfe, 0xff, 0xff, 0xff, 0x5b, 0x55, 0x2b, 0x4d,
   0x7a, 0xea, 0x9f, 0x2b, 0x00, 0x41, 0xf2, 0x7d, 0xd3, 0xd5, 0xff, 0xbf,
   0xff, 0xea, 0x77, 0x80, 0x00, 0x00, 0x00, 0x00, 0x00, 0x00, 0x00, 0x00,
   0x00, 0xff, 0xff, 0xff, 0xff, 0x57, 0x55, 0xaa, 0xaa, 0xbd, 0x5a, 0x3f,
   0x0b, 0x00, 0x88, 0x7e, 0x9d, 0xbc, 0xaf, 0xff, 0xff, 0xed, 0xbf, 0x7e,
   0x70, 0x01, 0x00, 0x00, 0x00, 0x00, 0x00, 0x00, 0x00, 0x00, 0xff, 0xff,
   0xff, 0x77, 0xaf, 0xaa, 0x52, 0x55, 0x7e, 0xf5, 0x3f, 0x03, 0x10, 0x90,
   0xf0, 0x3a, 0xe1, 0x5b, 0xff, 0xef, 0xdf, 0xf6, 0xff, 0xc0, 0x02, 0x00,
   0x00, 0x00, 0x00, 0x00, 0x00, 0x00, 0x00, 0xfe, 0xff, 0xff, 0xfd, 0x55,
   0xa9, 0x2a, 0x4a, 0xbf, 0xb6, 0xbf, 0x84, 0x00, 0x09, 0xbe, 0xbe, 0xd4,
   0xd7, 0xff, 0x7f, 0xff, 0xdf, 0x76, 0x50, 0x01, 0x00, 0x00, 0x00, 0x00,
   0x00, 0x00, 0x00, 0x00, 0xfe, 0xff, 0xff, 0xdf, 0x4b, 0xaa, 0xaa, 0xaa,
   0x7c, 0xb5, 0x3f, 0x03, 0x00, 0xa0, 0xf8, 0x76, 0x45, 0xb7, 0xff, 0xff,
   0xdf, 0xfa, 0x77, 0xd0, 0x01, 0x00, 0x00, 0x00, 0x00, 0x00, 0x00, 0x00,
   0x00, 0xfe, 0xff, 0x7f, 0xff, 0x2b, 0x51, 0xa5, 0xa4, 0xfe, 0xfa, 0x9b,
   0x00, 0x00, 0x04, 0x9f, 0x9f, 0xaa, 0xaf, 0xff, 0xff, 0xfe, 0xdf, 0x5e,
   0x00, 0x00, 0x00, 0x00, 0x00, 0x00, 0x00, 0x00, 0x00, 0x00, 0xfe, 0xff,
   0xff, 0xff, 0x0b, 0x52, 0x55, 0x4d, 0xfd, 0xab, 0x01, 0x21, 0x20, 0x34,
   0xba, 0x9a, 0xa8, 0xff, 0xff, 0xff, 0xbb, 0xda, 0x7a, 0x00, 0x00, 0x00,
   0x00, 0x00, 0x00, 0x00, 0x00, 0x00, 0x00, 0xfc, 0xff, 0xff, 0xff, 0x55,
   0x88, 0x56, 0x51, 0xfe, 0xfe, 0x43, 0x00, 0x00, 0x45, 0x9d, 0x1f, 0x95,
   0xfe, 0xff, 0xff, 0xef, 0xff, 0x6d, 0x00, 0x00, 0x00, 0x00, 0x00, 0x00,
   0x00, 0x00, 0x00, 0x20, 0xfe, 0xff, 0xf7, 0xff, 0x15, 0xa2, 0xa8, 0x46,
   0xfc, 0xd5, 0x83, 0x00, 0x80, 0x5e, 0xbe, 0x3a, 0x50, 0xff, 0xff, 0xff,
   0xff, 0x56, 0x3b, 0x20, 0x00, 0x00, 0x00, 0x00, 0x01, 0x00, 0x00, 0x00,
   0xf0, 0xff, 0xff, 0xff, 0xff, 0x0b, 0x08, 0x45, 0x99, 0xfa, 0xfb, 0x3f,
   0x00, 0x40, 0xbd, 0x95, 0x3f, 0x52, 0xff, 0xff, 0xff, 0xbf, 0xdb, 0x2e,
   0x78, 0x00, 0x00, 0x00, 0x00, 0x00, 0x00, 0x00, 0x00, 0xf8, 0xff, 0xff,
   0xff, 0xff, 0x95, 0x28, 0x09, 0x21, 0xfa, 0xd7, 0x3f, 0x10, 0x40, 0xbb,
   0x9e, 0x7a, 0x54, 0xfe, 0xff, 0xff, 0x7b, 0xb7, 0x7a, 0xa8, 0x00, 0x00,
   0x00, 0x18, 0x00, 0x00, 0x00, 0x00, 0xf8, 0xff, 0xff, 0xff, 0xff, 0x4a,
   0x82, 0x24, 0x88, 0xfa, 0xff, 0x7f, 0x40, 0xa4, 0x76, 0xab, 0x3d, 0xb4,
   0xfe, 0xff, 0xff, 0xff, 0xda, 0x0e, 0xaa, 0x00, 0x00, 0x00, 0x00, 0x00,
   0x00, 0x00, 0x00, 0xf0, 0xff, 0xff, 0xfe, 0xff, 0x0b, 0x28, 0x10, 0x01,
   0xf2, 0xdb, 0x3f, 0x98, 0xa4, 0xcc, 0x2e, 0x7d, 0xa8, 0xfe, 0xff, 0xff,
   0xb7, 0xb6, 0x3f, 0x65, 0x00, 0x00, 0x00, 0x00, 0x00, 0x00, 0x00, 0x00,
   0x00, 0xfe, 0xff, 0xff, 0xff, 0x52, 0x82, 0xa2, 0x08, 0xe8, 0xff, 0x3f,
   0xa4, 0x5a, 0x5f, 0xcb, 0x7d, 0x50, 0xff, 0xff, 0xff, 0xff, 0xdd, 0x0f,
   0x90, 0x00, 0x00, 0x80, 0x01, 0x00, 0x00, 0x00, 0x00, 0x00, 0xfc, 0xff,
   0xff, 0xff, 0x4b, 0x28, 0x14, 0x11, 0xe0, 0xff, 0x3f, 0x54, 0x12, 0xbc,
   0x1e, 0x75, 0x50, 0xfe, 0xff, 0xff, 0x2f, 0xfb, 0x07, 0x02, 0x00, 0x00,
   0x00, 0x10, 0x00, 0x00, 0x00, 0x00, 0x00, 0xf8, 0xff, 0xff, 0xff, 0x07,
   0x41, 0x01, 0x04, 0xc8, 0xff, 0xfe, 0xab, 0xaa, 0x7e, 0x8b, 0xfa, 0xb0,
   0xfe, 0xff, 0xff, 0xff, 0xbf, 0x53, 0xad, 0x00, 0x00, 0x00, 0x40, 0x00,
   0x00, 0x00, 0x00, 0x00, 0xfc, 0xff, 0xff, 0xff, 0x17, 0x0a, 0x52, 0x20,
   0x80, 0xff, 0xbb, 0x4a, 0x55, 0x7d, 0xbe, 0xea, 0xd1, 0xfc, 0xff, 0xff,
   0xfd, 0xff, 0xa1, 0x1f, 0x12, 0x00, 0x00, 0x00, 0x00, 0x00, 0x00, 0x00,
   0x00, 0xfc, 0xff, 0xff, 0xff, 0x0d, 0x20, 0x00, 0x00, 0x20, 0xff, 0xef,
   0x55, 0x95, 0x9d, 0x15, 0xbb, 0x53, 0xfd, 0xff, 0x7f, 0x7f, 0xff, 0x48,
   0x5f, 0x41, 0x44, 0x01, 0x81, 0x00, 0x00, 0x00, 0x00, 0x00, 0xfc, 0xff,
   0xff, 0xff, 0x2b, 0x40, 0x05, 0x01, 0x00, 0xfe, 0xbe, 0x2d, 0xa9, 0x7a,
   0x3d, 0xe5, 0x57, 0xbd, 0xfe, 0xff, 0xff, 0x7f, 0xda, 0x1b, 0x94, 0x10,
   0x0a, 0x12, 0x00, 0x00, 0x00, 0x00, 0x00, 0xfe, 0xbf, 0xff, 0xff, 0x07,
   0x04, 0x20, 0x04, 0x00, 0xf8, 0xff, 0xaa, 0xa2, 0xf6, 0x2a, 0xd4, 0xd1,
   0xbe, 0xfd, 0xff, 0xff, 0xbf, 0x68, 0xaf, 0x20, 0x55, 0x20, 0x88, 0x00,
   0x00, 0x00, 0x00, 0x00, 0xfe, 0xff, 0xff, 0xff, 0x5f, 0x00, 0x40, 0x08,
   0x00, 0xa2, 0xd5, 0x57, 0x04, 0xd5, 0x7a, 0xea, 0xa3, 0xbc, 0xfd, 0xff,
   0xff, 0xff, 0xa2, 0x20, 0xa5, 0x92, 0x80, 0x00, 0x00, 0x00, 0x40, 0x24,
   0x00, 0xfe, 0xff, 0xff, 0xff, 0x0f, 0x00, 0x10, 0x01, 0x00, 0xe8, 0xfe,
   0xaa, 0x50, 0xfd, 0x2d, 0xbd, 0xc1, 0x76, 0xfd, 0x7f, 0x40, 0xd4, 0x59,
   0x45, 0x14, 0x24, 0x01, 0x04, 0x00, 0x00, 0x05, 0x01, 0x00, 0xfc, 0xdf,
   0xff, 0xff, 0x1f, 0x00, 0x01, 0x00, 0x00, 0xa8, 0xad, 0x0a, 0x02, 0xa2,
   0xfb, 0xf8, 0x91, 0xbc, 0xfd, 0x7f, 0x95, 0xb4, 0xbb, 0x9a, 0xa2, 0x25,
   0x02, 0x51, 0x12, 0x00, 0x08, 0x44, 0x00, 0xfc, 0xff, 0xff, 0xff, 0x0f,
   0x00, 0x00, 0x00, 0x00, 0x60, 0x37, 0x00, 0x48, 0xf9, 0xae, 0xf6, 0xa1,
   0x7e, 0xff, 0xff, 0x6b, 0x55, 0x77, 0xa4, 0x54, 0x90, 0x14, 0x84, 0xa4,
   0x48, 0x50, 0x11, 0x00, 0xf8, 0xff, 0xff, 0xff, 0x3f, 0x00, 0x20, 0x01,
   0x00, 0xc2, 0xbd, 0x22, 0x00, 0xa2, 0xbb, 0xfc, 0xa0, 0xec, 0xff, 0xff,
   0xff, 0xd7, 0x6c, 0x25, 0x45, 0x25, 0x41, 0x95, 0x14, 0x89, 0x02, 0xb2,
   0x00, 0xf8, 0xff, 0xff, 0xff, 0x1f, 0x00, 0x00, 0x04, 0x00, 0xa8, 0x16,
   0x00, 0x10, 0x74, 0x6d, 0xda, 0x40, 0xff, 0xff, 0xf7, 0xff, 0xff, 0x57,
   0xa9, 0x94, 0x44, 0x2a, 0xa8, 0xa2, 0x50, 0xfa, 0x56, 0x00, 0xf8, 0xff,
   0xfe, 0xff, 0x3f, 0x00, 0x80, 0x00, 0x00, 0xa0, 0x75, 0x00, 0x00, 0xd0,
   0xf5, 0xfa, 0x28, 0xdb, 0xff, 0xde, 0x77, 0xff, 0xff, 0xff, 0x55, 0xa9,
   0xa4, 0x12, 0x8a, 0xd6, 0x42, 0x55, 0x00, 0xf0, 0xff, 0xff, 0xff, 0x3f,
   0x00, 0x00, 0x04, 0x00, 0x40, 0x8f, 0x00, 0x00, 0xd4, 0xa8, 0xf6, 0xd3,
   0xfe, 0xff, 0x7f, 0xdf, 0xbb, 0xff, 0xb7, 0x5f, 0x95, 0x54, 0x4a, 0x7a,
   0xab, 0x5d, 0xd5, 0x00, 0xf0, 0xff, 0xff, 0xff, 0x3f, 0x00, 0x40, 0x00,
   0x00, 0x48, 0xbc, 0x02, 0x00, 0xf0, 0xc5, 0xdd, 0x47, 0xfb, 0xff, 0xea,
   0xfb, 0xff, 0xde, 0xfe, 0xfb, 0xb7, 0xd5, 0xf5, 0xd6, 0x5a, 0xab, 0xad,
   0x00, 0xf0, 0xff, 0xff, 0xff, 0x3f, 0x00, 0x00, 0x04, 0x00, 0x80, 0xeb,
   0xbf, 0x02, 0xd4, 0xc3, 0xfb, 0xab, 0xfe, 0x5f, 0xbf, 0xb7, 0xed, 0xff,
   0x7f, 0xdf, 0xff, 0x7f, 0xaf, 0x55, 0xb5, 0xb4, 0xaa, 0x00, 0xe0, 0xff,
   0xff, 0xff, 0x3f, 0x00, 0x00, 0x10, 0x00, 0x08, 0xfd, 0xa1, 0x1a, 0xea,
   0x07, 0x97, 0xaf, 0xfd, 0xf7, 0xb5, 0xbe, 0xff, 0xed, 0xf7, 0xbf, 0xb6,
   0xf6, 0x2a, 0x55, 0xa5, 0x6d, 0xad, 0x00, 0xe0, 0xff, 0xff, 0xff, 0x7f,
   0x00, 0x00, 0x02, 0x00, 0xc0, 0xea, 0x85, 0xaa, 0xd0, 0x01, 0x7e, 0x7f,
   0xbf, 0x56, 0xef, 0xea, 0x6d, 0xff, 0xff, 0xfe, 0xdb, 0x5b, 0x55, 0xaa,
   0x5a, 0xab, 0x12, 0x00, 0xe0, 0xff, 0xff, 0xff, 0x7f, 0x00, 0x00, 0x28,
   0x00, 0x80, 0xbd, 0x05, 0x12, 0x43, 0x03, 0xec, 0x6e, 0xbf, 0x7d, 0xdd,
   0xb7, 0xff, 0xdf, 0xee, 0x57, 0xbb, 0xaa, 0xaa, 0x2a, 0x45, 0xaa, 0x40,
   0x00, 0xc0, 0xff, 0xff, 0xff, 0xff, 0x00, 0x00, 0x00, 0x00, 0x44, 0xfb,
   0x07, 0x00, 0x94, 0x42, 0xda, 0xff, 0xdf, 0xd6, 0xbb, 0xde, 0xaa, 0x75,
   0xbb, 0xba, 0xad, 0x2a, 0x09, 0x50, 0x29, 0x21, 0x05, 0x00, 0xc0, 0xff,
   0xff, 0xff, 0xff, 0x01, 0x00, 0xa0, 0x00, 0x40, 0xdf, 0x0d, 0x00, 0xa0,
   0x88, 0xa0, 0xea, 0xb6, 0x7d, 0xb7, 0xb5, 0x6f, 0x55, 0xd5, 0x2a, 0x91,
   0x24, 0x10, 0x02, 0x2a, 0x4a, 0x00, 0x00, 0x80, 0xff, 0xff, 0xff, 0xff,
   0x00, 0x00, 0x02, 0x02, 0x40, 0xef, 0x03, 0x00, 0x28, 0x00, 0xad, 0xba,
   0xdb, 0x92, 0xd4, 0x6a, 0xaa, 0xad, 0x22, 0x51, 0x25, 0x01, 0x80, 0x50,
   0x40, 0x00, 0x01, 0x00, 0x80, 0xff, 0xff, 0xff, 0xff, 0x00, 0x00, 0x40,
   0x00, 0x80, 0xff, 0x1f, 0x00, 0xa0, 0x10, 0x51, 0x75, 0x55, 0xb7, 0x95,
   0xca, 0x0a, 0x11, 0x04, 0x02, 0x08, 0x80, 0x00, 0x40, 0x05, 0x15, 0x00,
   0x00, 0x00, 0xff, 0xff, 0xff, 0xff, 0x01, 0x00, 0x04, 0x01, 0xe8, 0xff,
   0x2f, 0x00, 0x00, 0x41, 0x96, 0xb6, 0xad, 0xaa, 0x54, 0x08, 0x20, 0xa2,
   0x10, 0x20, 0x00, 0x08, 0x00, 0x00, 0x10, 0x00, 0x00, 0x00, 0x00, 0xfe,
   0xff, 0xff, 0xff, 0x03, 0x00, 0x20, 0x00, 0xc0, 0xf7, 0x6f, 0x00, 0x00,
   0xaa, 0xb4, 0x6d, 0xd5, 0x2a, 0x81, 0x20, 0x01, 0x00, 0x01, 0x00, 0x00,
   0x00, 0x00, 0x00, 0x42, 0x12, 0x00, 0x00, 0x00, 0xfe, 0xff, 0xff, 0xff,
   0x01, 0x00, 0x89, 0x02, 0xe8, 0xff, 0x8f, 0x00, 0x80, 0x94, 0xaa, 0x5a,
   0x15, 0x45, 0x08, 0x00, 0x00, 0x00, 0x40, 0x00, 0x00, 0x00, 0x00, 0x00,
   0x10, 0x00, 0x00, 0x00, 0x00, 0xfc, 0xff, 0xff, 0xff, 0x01, 0x00, 0x10,
   0x00, 0xf0, 0xff, 0x8f, 0x03, 0x10, 0xa4, 0xab, 0xaa, 0x50, 0x08, 0x00,
   0x00, 0x00, 0x00, 0x00, 0x00, 0x00, 0x00, 0x00, 0x00, 0x00, 0x22, 0x00,
   0x00, 0x00, 0xfc, 0xff, 0xff, 0xff, 0x01, 0x00, 0x40, 0x05, 0xe8, 0xef,
   0x86, 0x02, 0x40, 0x29, 0x54, 0x41, 0x02, 0x00, 0x00, 0x00, 0x00, 0x00,
   0x00, 0x00, 0x00, 0x00, 0x00, 0x00, 0x00, 0x08, 0x00, 0x00, 0x00, 0xfc,
   0xff, 0xff, 0xff, 0x00, 0x00, 0x09, 0x00, 0xf8, 0xef, 0x80, 0x03, 0x00,
   0xa9, 0x2d, 0x0a, 0x00, 0x00, 0x00, 0x00, 0x00, 0x00, 0x00, 0x00, 0x00,
   0x00, 0x00, 0x00, 0x00, 0x00, 0x00, 0x00, 0x00, 0xfc, 0xff, 0xff, 0xff,
   0x01, 0x00, 0xa0, 0x04, 0xf4, 0xdf, 0x40, 0x05, 0x00, 0x2a, 0x42, 0x80,
   0x00, 0x00, 0x00, 0x00, 0x00, 0x00, 0x00, 0x00, 0x00, 0x00, 0x00, 0x00,
   0x00, 0x01, 0x00, 0x00, 0x00, 0xfc, 0xff, 0xff, 0xff, 0x01, 0x00, 0x04,
   0x11, 0xf8, 0x5b, 0xc0, 0x06, 0x80, 0xa4, 0xa4, 0x02, 0x00, 0x00, 0x05,
   0x00, 0x00, 0x00, 0x00, 0x00, 0x00, 0x00, 0x00, 0x00, 0x00, 0x10, 0x00,
   0x00, 0x00, 0xfc, 0xff, 0xff, 0xff, 0x00, 0x80, 0x48, 0x06, 0xfc, 0xbf,
   0x61, 0x05, 0x10, 0x55, 0x10, 0x08, 0x00, 0x80, 0x16, 0x00, 0x00, 0x00,
   0x00, 0x00, 0x00, 0x00, 0x00, 0x00, 0x00, 0x00, 0x00, 0x00, 0x00, 0xfc,
   0xff, 0xff, 0xff, 0x01, 0x00, 0x90, 0x28, 0xf8, 0xfb, 0x5f, 0x05, 0x20,
   0x91, 0x55, 0x00, 0x00, 0x80, 0x0f, 0x00, 0x00, 0x00, 0x00, 0x00, 0x00,
   0x00, 0x00, 0x00, 0x00, 0x00, 0x00, 0x00, 0x00, 0xfc, 0xf9, 0xff, 0xff,
   0x01, 0x40, 0x25, 0x0b, 0xfc, 0xf5, 0xbf, 0x00, 0x40, 0x16, 0x80, 0x20,
   0x02, 0xc0, 0x07, 0x00, 0x00, 0x00, 0x00, 0x00, 0x00, 0x00, 0x00, 0x00,
   0x00, 0x00, 0x00, 0x00, 0x00, 0xfc, 0xe1, 0xff, 0xff, 0x01, 0x00, 0x50,
   0xba, 0xe8, 0xd7, 0xbf, 0x00, 0x88, 0x08, 0x90, 0x04, 0x10, 0xe0, 0x07,
   0x00, 0x00, 0x00, 0x00, 0x00, 0x00, 0x00, 0x00, 0x00, 0x00, 0x00, 0x00,
   0x00, 0x00, 0xf8, 0xf7, 0xff, 0xff, 0x01, 0xa0, 0xaa, 0x55, 0xf9, 0xf9,
   0x5f, 0x02, 0xa0, 0x02, 0x00, 0xa0, 0x04, 0xf0, 0x01, 0x00, 0x00, 0x00,
   0x00, 0x00, 0x00, 0x00, 0x00, 0x00, 0x00, 0x00, 0x00, 0x00, 0x00, 0xf0,
   0xff, 0xff, 0xff, 0x03, 0x00, 0x55, 0x55, 0xe0, 0x45, 0xbb, 0x00, 0x24,
   0x05, 0x00, 0x20, 0x29, 0xf0, 0x05, 0x00, 0x00, 0x00, 0x00, 0x00, 0x00,
   0x00, 0x00, 0x00, 0x00, 0x00, 0x00, 0x00, 0x00, 0xe0, 0xff, 0xff, 0xff,
   0x05, 0x55, 0xa5, 0x4a, 0xfb, 0xda, 0x4f, 0x84, 0x50, 0x01, 0x00, 0x00,
   0x54, 0xf9, 0x03, 0x00, 0x00, 0x00, 0x00, 0x00, 0x00, 0x00, 0x00, 0x00,
   0x00, 0x00, 0x00, 0x00, 0x00, 0x40, 0xff, 0xff, 0xff, 0x5f, 0x20, 0xac,
   0xaa, 0xca, 0x13, 0xbd, 0x90, 0x52, 0x00, 0x00, 0x00, 0x80, 0xf6, 0x03,
   0x00, 0x00, 0x00, 0x00, 0x00, 0x00, 0x00, 0x00, 0x00, 0x00, 0x00, 0x00,
   0x00, 0x00, 0x80, 0xff, 0xff, 0xff, 0xab, 0x4a, 0x53, 0xad, 0x6a, 0xed,
   0x56, 0x2b, 0x2d, 0x00, 0x00, 0x00, 0x00, 0xf8, 0x05, 0x00, 0x00, 0x00,
   0x00, 0x00, 0x00, 0x00, 0x00, 0x00, 0x00, 0x10, 0x00, 0x00, 0x00, 0x00,
   0xfe, 0xff, 0xff, 0xbf, 0x5a, 0xd6, 0xaa, 0xda, 0xaa, 0x7f, 0xef, 0x01,
   0x00, 0x00, 0x00, 0x00, 0xf0, 0x0f, 0x00, 0x00, 0x00, 0x00, 0x00, 0x00,
   0x00, 0x00, 0x00, 0x00, 0x00, 0x00, 0x00, 0x00, 0x00, 0xfc, 0xff, 0xff,
   0xff, 0xa2, 0x54, 0xab, 0xb4, 0xd5, 0xfe, 0xbf, 0x02, 0x00, 0x00, 0x00,
   0x00, 0xe0, 0x1b, 0x11, 0x08, 0x00, 0x00, 0x00, 0x00, 0x00, 0x00, 0x00,
   0x00, 0x00, 0x00, 0x00, 0x00, 0x00, 0xe0, 0xff, 0xff, 0xff, 0x57, 0x55,
   0xad, 0xfd, 0xff, 0xff, 0xff, 0x2f, 0x00, 0x00, 0x00, 0x00, 0xe0, 0xbb,
   0x02, 0x01, 0x00, 0x00, 0x00, 0x00, 0x00, 0x00, 0x00, 0x00, 0x00, 0x01,
   0x00, 0x00, 0x00, 0x00, 0xff, 0xff, 0xff, 0x5f, 0x55, 0xbb, 0xff, 0xff,
   0xff, 0xff, 0x7f, 0x01, 0x00, 0x00, 0x00, 0xc0, 0x47, 0x25, 0x04, 0x00,
   0x00, 0x00, 0x00, 0x00, 0x00, 0x00, 0x00, 0x08, 0x00, 0x00, 0x00, 0x00,
   0xc0, 0xff, 0xff, 0xff, 0xff, 0xff, 0xff, 0xff, 0xff, 0xff, 0xff, 0xff,
   0x0f, 0x00, 0x00, 0x00, 0xc0, 0x0f, 0xa4, 0x10, 0x00, 0x00, 0x00, 0x00,
   0x00, 0x00, 0x00, 0x00, 0x51, 0x0a, 0x00, 0x00, 0x00, 0xf8, 0xff, 0xfb,
   0xff, 0xff, 0xff, 0xff, 0xff, 0xe5, 0xff, 0xff, 0xff, 0x7f, 0x00, 0x00,
   0x00, 0xc0, 0x07, 0x10, 0x8a, 0x00, 0x00, 0x00, 0x00, 0x00, 0x00, 0x00,
   0x80, 0x24, 0x21, 0x00, 0x00, 0x40, 0xff, 0x07, 0xc0, 0xff, 0xff, 0xff,
   0xff, 0x01, 0x00, 0x00, 0xf4, 0xff, 0xff, 0x07, 0x00, 0x00, 0xe0, 0x07,
   0x80, 0x10, 0x02, 0x00, 0x00, 0x00, 0x00, 0x00, 0x00, 0x00, 0x04, 0x04,
   0x00, 0x00, 0xf0, 0xff, 0x03, 0xc0, 0xff, 0xff, 0xff, 0x3f, 0x00, 0x00,
   0x00, 0x00, 0xfa, 0xff, 0x0f, 0x24, 0x88, 0xff, 0x07, 0x00, 0x02, 0x08,
   0x00, 0x00, 0x00, 0x00, 0x00, 0x00, 0x44, 0x51, 0x00, 0x00, 0x00, 0xf0,
   0x7f, 0x00, 0x80, 0xff, 0xff, 0xff, 0x07, 0x00, 0x00, 0x00, 0x00, 0xa0,
   0xff, 0xff, 0xed, 0xeb, 0xff, 0x03, 0x00, 0x24, 0x21, 0x05, 0x00, 0x00,
   0x00, 0x00, 0x80, 0x10, 0x04, 0x00, 0x00, 0x00, 0xc0, 0x1f, 0x00, 0x00,
   0xff, 0xff, 0xff, 0x00, 0x00, 0x00, 0x00, 0x00, 0x00, 0xfc, 0xbf, 0xb6,
   0xf6, 0xff, 0x01, 0x00, 0x00, 0x04, 0x10, 0x00, 0x00, 0x00, 0x00, 0x20,
   0x40, 0x89, 0x04, 0x00, 0x00, 0x00, 0x00, 0x00, 0x00, 0x7f, 0xfa, 0x03,
   0x00, 0x00, 0x00, 0x00, 0x00, 0x00, 0xa0, 0x9f, 0x54, 0xfd, 0x7f, 0x00,
   0x00, 0x80, 0x20, 0x01, 0x00, 0x00, 0x00, 0x00, 0x00, 0x49, 0x10, 0x00,
   0x00, 0x00, 0x00, 0x00, 0x00, 0x00, 0x3e, 0x00, 0x00, 0x00, 0x00, 0x00,
   0x00, 0x00, 0x00, 0x00, 0x18, 0x20, 0xf5, 0x1f, 0x00, 0x00, 0x00, 0x0a,
   0x04, 0x00, 0x00, 0x00, 0x00, 0x04, 0x00, 0x05, 0x00, 0x00, 0x00, 0x00,
   0x00, 0x00, 0x00, 0x3e, 0x00, 0x00, 0x00, 0x00, 0x00, 0x00, 0x00, 0x00,
   0x00, 0x00, 0x55, 0x3c, 0x00, 0x00, 0x00, 0x00, 0xa0, 0x00, 0x00, 0x00,
   0x00, 0x80, 0x80, 0x52, 0x00, 0x00, 0x00, 0x00, 0x00, 0x00, 0x00, 0x00,
   0x7e, 0x00, 0x00, 0x00, 0x00, 0x00, 0x00, 0x00, 0x00, 0x00, 0x00, 0x2a,
   0x05, 0x00, 0x00, 0x00, 0x00, 0x00, 0x49, 0x00, 0x00, 0x00, 0x00, 0x14,
   0x00, 0x02, 0x00, 0x00, 0x00, 0x00, 0x00, 0x00, 0x00, 0x7c, 0x00, 0x00,
   0x00, 0x00, 0x00, 0x00, 0x00, 0x00, 0x00, 0x00, 0x00, 0x00, 0x00, 0x00,
   0x00, 0x00, 0x00, 0x08, 0x00, 0x00, 0x00, 0x00, 0x00, 0x48, 0x00, 0x80,
   0x00, 0x00, 0x00, 0x00, 0x00, 0x00, 0x78, 0x00, 0x00, 0x00, 0x00, 0x00,
   0x00, 0x00, 0x00, 0x00, 0x00, 0x00, 0x00, 0x00, 0x00, 0x00, 0x00, 0x00,
   0xa0, 0x00, 0x00, 0x00, 0x00, 0x00, 0x02, 0x00, 0xa0, 0x00, 0x00, 0x00,
   0x00, 0x00, 0x00, 0x30, 0x00, 0x00, 0x00, 0x00, 0x00, 0x00, 0x00, 0x00,
   0x00, 0x00, 0x00, 0x00, 0x00, 0x00, 0x00, 0x00, 0x00, 0x00, 0x00, 0x00,
   0x00, 0x00, 0x00, 0x44, 0x01, 0x50, 0x00, 0x00, 0x00, 0x00, 0x00, 0x00,
   0x00, 0x00, 0x00, 0x00, 0x00, 0x00, 0x00, 0x00, 0x00, 0x00, 0x00, 0x00,
   0x00, 0x00, 0x00, 0x00, 0x00, 0x00, 0x00, 0x01, 0x00, 0x00, 0x00, 0x40,
   0x02, 0x00, 0x28, 0x00, 0x00, 0x00, 0x00, 0x00, 0x00, 0x00, 0x00, 0x00,
   0x00, 0x00, 0x00, 0x00, 0x00, 0x00, 0x00, 0x00, 0x00, 0x00, 0x00, 0x00,
   0x00, 0x00, 0x00, 0x00, 0x04, 0x00, 0x00, 0x00, 0x08, 0x88, 0x00, 0x0a,
   0x00, 0x00, 0x00, 0x00, 0x00, 0x00, 0x00, 0x00, 0x00, 0x00, 0x00, 0x00,
   0x00, 0x00, 0x00, 0x00, 0x00, 0x00, 0x00, 0x00, 0x00, 0x00, 0x00, 0x00,
   0x00, 0x01, 0x00, 0x00, 0x00, 0x40, 0x02, 0x82, 0x02, 0x00, 0x00, 0x00,
   0x00, 0x00, 0x00, 0x00, 0x00, 0x00, 0x00, 0x00, 0x00, 0x00, 0x00, 0x00,
   0x00, 0x00, 0x00, 0x00, 0x00, 0x00, 0x00, 0x00, 0x00, 0x20, 0x14, 0x00,
   0x00, 0x00, 0x00, 0x20, 0xb0, 0x00, 0x00, 0x00, 0x00, 0x00, 0x00, 0x00,
   0x00, 0x00, 0x00, 0x00, 0x00, 0x00, 0x00, 0x00, 0x00, 0x00, 0x00, 0x00,
   0x00, 0x00, 0x00, 0x00, 0x00, 0x00, 0x00, 0x42, 0x00, 0x00, 0x00, 0x52,
   0x89, 0x54, 0x00, 0x00, 0x00, 0x00, 0x00, 0x00, 0x00, 0x00, 0x00, 0x00,
   0x00, 0x00, 0x00, 0x00, 0x00, 0x00, 0x00, 0x00, 0x00, 0x00, 0x00, 0x00,
   0x00, 0x00, 0x00, 0x00, 0x10, 0x00, 0x00, 0x00, 0x00, 0x00, 0x34, 0x00,
   0x00, 0x00, 0x00, 0x00, 0x00, 0x00, 0x00, 0x00, 0x00, 0x00, 0x00, 0x00,
   0x00, 0x00, 0x00, 0x00, 0x00, 0x00, 0x00, 0x00, 0x00, 0x00, 0x00, 0x00,
   0x00, 0x44, 0x00, 0x00, 0x80, 0x44, 0x0a, 0x0b, 0x00, 0x00, 0x00, 0x00,
   0x00, 0x00, 0x00, 0x00, 0x00, 0x00, 0x00, 0x00, 0x00, 0x00, 0x00, 0x00,
   0x00, 0x00, 0x00, 0x00, 0x00, 0x00, 0x00, 0x00, 0x00, 0x00, 0x00, 0x00,
   0x00, 0x22, 0x08, 0x10, 0x0d, 0x00, 0x00, 0x00, 0x00, 0x00, 0x00, 0x00,
   0x00, 0x00, 0x00, 0x00, 0x00, 0x00, 0x00, 0x00, 0x00, 0x00, 0x00, 0x00,
   0x00, 0x00, 0x00, 0x00, 0x00, 0x00, 0x00, 0x10, 0x00, 0x00, 0x88, 0x20,
   0xc1, 0x03, 0x00, 0x00, 0x00, 0x00, 0x00, 0x00, 0x00, 0x00, 0x00, 0x00,
   0x00, 0x00, 0x00, 0x00, 0x00, 0x00, 0x00, 0x00, 0x00, 0x00, 0x00, 0x00,
   0x00, 0x00, 0x00, 0x00, 0x00, 0x00, 0x80, 0x00, 0x21, 0x49, 0x03, 0x00,
   0x00, 0x00, 0x00, 0x00, 0x00, 0x00, 0x00, 0x00, 0x00, 0x00, 0x00, 0x00,
   0x00, 0x00, 0x00, 0x00, 0x00, 0x00, 0x00, 0x00, 0x00, 0x00, 0x00, 0x00,
   0x00, 0x40, 0x05, 0x00, 0x04, 0x00, 0xe0, 0x01, 0x00, 0x00, 0x00, 0x00,
   0x00, 0x00, 0x00, 0x00, 0x00, 0x00, 0x00, 0x00, 0x00, 0x00, 0x00, 0x00,
   0x00, 0x00, 0x00, 0x00, 0x00, 0x00, 0x00, 0x00, 0x00, 0x00, 0x00, 0x00,
   0x00, 0x00, 0x00, 0xa0, 0x01, 0x00, 0x00, 0x00, 0x00, 0x00, 0x00, 0x00,
   0x00, 0x00, 0x00, 0x00, 0x00, 0x00, 0x00, 0x00, 0x00, 0x00, 0x00, 0x00,
   0x00, 0x00, 0x00, 0x00, 0x00, 0x00, 0x00, 0x42, 0x02, 0x00, 0x00, 0x00,
   0x60, 0x00, 0x00, 0x00, 0x00, 0x00, 0x00, 0x00, 0x00, 0x00, 0x00, 0x00,
   0x00, 0x00, 0x00, 0x00, 0x00, 0x00, 0x00, 0x00, 0x00, 0x00, 0x00, 0x00,
   0x00, 0x00, 0x00, 0x00, 0x00, 0x00, 0x00, 0x00, 0x00, 0xc0, 0x00, 0x00 };
