#define pnj18_width 264
#define pnj18_height 176
static unsigned char pnj18_bits[] = {
   0x00, 0x00, 0x00, 0x00, 0x00, 0x00, 0x00, 0x00, 0x00, 0x00, 0x00, 0x00,
   0x00, 0x00, 0x00, 0x00, 0x00, 0x18, 0x99, 0x96, 0x1a, 0xcd, 0xff, 0xbf,
   0xc9, 0x02, 0x0a, 0x00, 0x44, 0x42, 0x21, 0x04, 0x00, 0x00, 0x00, 0x00,
   0x00, 0x00, 0x00, 0x00, 0x00, 0x00, 0x00, 0x00, 0x00, 0x00, 0x00, 0x00,
   0x00, 0x00, 0x4a, 0xa2, 0x26, 0xa3, 0xc2, 0xdf, 0x6a, 0xdb, 0x00, 0x95,
   0x20, 0xd0, 0xaa, 0x88, 0x18, 0x00, 0x00, 0x00, 0x00, 0x00, 0x00, 0x00,
   0x00, 0x00, 0x00, 0x00, 0x00, 0x00, 0x00, 0x00, 0x00, 0x00, 0x00, 0x94,
   0x18, 0xd4, 0x0a, 0xf4, 0xef, 0x5e, 0x65, 0x00, 0x0b, 0x40, 0x4d, 0x29,
   0xd1, 0x21, 0x00, 0x00, 0x00, 0x00, 0x00, 0x00, 0x00, 0x00, 0x00, 0x00,
   0x00, 0x00, 0x00, 0x00, 0x00, 0x00, 0x00, 0x00, 0x55, 0xa2, 0xc5, 0xee,
   0xd4, 0xe3, 0x35, 0x69, 0x80, 0xaa, 0x02, 0x40, 0x51, 0x12, 0x4a, 0x00,
   0x00, 0x00, 0x00, 0x00, 0x00, 0x00, 0x00, 0x00, 0x00, 0x00, 0x00, 0x00,
   0x00, 0x00, 0x00, 0x00, 0x80, 0x56, 0xab, 0x90, 0xa9, 0xf6, 0xfb, 0x3a,
   0x3a, 0x68, 0x29, 0x38, 0x20, 0x42, 0x90, 0x52, 0x00, 0x00, 0x00, 0x00,
   0x00, 0x00, 0x00, 0x00, 0x00, 0x00, 0x00, 0x00, 0x00, 0x00, 0x00, 0x00,
   0x00, 0x80, 0x7e, 0xbf, 0x2a, 0xab, 0xfe, 0xb8, 0x07, 0x0a, 0xd0, 0x77,
   0x52, 0xc9, 0x2c, 0x55, 0xc4, 0x02, 0x00, 0x00, 0x00, 0x00, 0x00, 0x00,
   0x00, 0x00, 0x00, 0x00, 0x00, 0x00, 0x00, 0x00, 0x00, 0x00, 0x80, 0xff,
   0x5f, 0xad, 0xb4, 0xff, 0xfc, 0x53, 0x0d, 0x6c, 0x95, 0x09, 0xa1, 0x22,
   0xa8, 0x14, 0x42, 0x00, 0x00, 0x00, 0x00, 0x00, 0x00, 0x00, 0x00, 0x00,
   0x00, 0x00, 0x00, 0x00, 0x00, 0x80, 0x01, 0xc0, 0xff, 0x5d, 0x03, 0x72,
   0xd5, 0xbb, 0x29, 0x0c, 0xfb, 0x6a, 0x51, 0x95, 0xf6, 0xa2, 0x28, 0x4a,
   0x00, 0x00, 0x00, 0x00, 0x00, 0x00, 0x00, 0x00, 0x00, 0x00, 0x00, 0x00,
   0x00, 0x00, 0xc0, 0x00, 0xe0, 0xff, 0x5d, 0x17, 0xee, 0xfe, 0xd7, 0xc8,
   0x03, 0x7d, 0xeb, 0x2f, 0x61, 0x09, 0x0b, 0x80, 0x90, 0x00, 0x00, 0x00,
   0x00, 0x00, 0x00, 0x00, 0x00, 0x00, 0x00, 0x00, 0x00, 0x00, 0x00, 0x4c,
   0x00, 0xe0, 0xfd, 0x2d, 0xc6, 0xd4, 0xff, 0x3f, 0x3e, 0x86, 0x6a, 0xca,
   0x2a, 0x9f, 0x52, 0x00, 0x00, 0xb4, 0x00, 0x00, 0x00, 0x00, 0x00, 0x00,
   0x00, 0x00, 0x00, 0x00, 0x00, 0x00, 0x00, 0x00, 0x60, 0x08, 0xc0, 0x7d,
   0x1e, 0xfd, 0xbe, 0x7e, 0x2d, 0x9e, 0x42, 0xbf, 0x7f, 0xeb, 0x28, 0x48,
   0x03, 0x02, 0x3e, 0x00, 0x00, 0x00, 0x00, 0x00, 0x00, 0x00, 0x00, 0x00,
   0x00, 0x00, 0x00, 0x00, 0x00, 0x28, 0x03, 0xc8, 0x7d, 0x4f, 0x8a, 0xf4,
   0xfb, 0x7f, 0x89, 0x42, 0x76, 0x37, 0xac, 0x2b, 0x32, 0x02, 0xc0, 0xca,
   0x00, 0x00, 0x00, 0x00, 0x00, 0x00, 0x00, 0x00, 0x00, 0x00, 0x00, 0x00,
   0x00, 0x00, 0xe8, 0x15, 0x60, 0x74, 0x5f, 0xe3, 0xeb, 0xff, 0xfd, 0xee,
   0xd1, 0xbb, 0xfe, 0x3a, 0x46, 0x4d, 0x08, 0x28, 0x41, 0x00, 0x00, 0x00,
   0x00, 0x00, 0x00, 0x00, 0x00, 0x00, 0x04, 0x00, 0x00, 0x00, 0x00, 0x68,
   0x07, 0x84, 0x2f, 0xb3, 0x71, 0xff, 0xeb, 0xab, 0x2b, 0x39, 0x97, 0xab,
   0xa4, 0x56, 0x89, 0x80, 0x2e, 0x20, 0x00, 0x00, 0x00, 0x00, 0x00, 0x00,
   0x00, 0x00, 0x00, 0x06, 0x00, 0x00, 0x00, 0x00, 0xf8, 0x08, 0x6a, 0x9d,
   0xd4, 0x7d, 0xff, 0x7f, 0x7f, 0xe8, 0xd4, 0xcd, 0x67, 0x97, 0x29, 0x0a,
   0x40, 0x11, 0x68, 0x00, 0x00, 0x00, 0x00, 0x00, 0x00, 0x00, 0x00, 0x50,
   0x05, 0x00, 0x00, 0x00, 0xc0, 0x88, 0x1d, 0x53, 0x39, 0xd9, 0xfc, 0x4f,
   0x7e, 0xfd, 0x55, 0xd4, 0x76, 0xab, 0xa9, 0x02, 0x20, 0xa9, 0x28, 0x00,
   0x00, 0x00, 0x00, 0x00, 0x00, 0x00, 0x00, 0x00, 0x00, 0x03, 0x00, 0x00,
   0x00, 0x00, 0x78, 0x74, 0xfc, 0xaf, 0x26, 0xfe, 0x73, 0xf7, 0x2f, 0x7c,
   0x56, 0x77, 0x96, 0x8a, 0x00, 0xa4, 0x0e, 0x81, 0x8a, 0x00, 0x00, 0x00,
   0x00, 0x00, 0x00, 0x00, 0x00, 0x00, 0x02, 0x80, 0x0b, 0x00, 0x00, 0xf0,
   0x68, 0xe8, 0xbd, 0x15, 0xff, 0xf3, 0xff, 0xb6, 0xc9, 0xee, 0xfe, 0xd2,
   0x52, 0x00, 0xa8, 0x21, 0x00, 0x1a, 0x00, 0x00, 0x00, 0x00, 0x00, 0x00,
   0x00, 0x00, 0x00, 0x41, 0x3a, 0x60, 0x00, 0x00, 0x1c, 0x36, 0xe8, 0x77,
   0x87, 0xf5, 0xf1, 0xfb, 0x6f, 0x37, 0xbb, 0x85, 0x55, 0x12, 0x08, 0x68,
   0x12, 0x20, 0x90, 0x00, 0x00, 0x00, 0x00, 0x00, 0x00, 0x00, 0x00, 0x00,
   0x80, 0x03, 0x80, 0x03, 0x00, 0x1e, 0x14, 0xf4, 0x57, 0x8c, 0xec, 0x7d,
   0xf7, 0x5f, 0x36, 0xac, 0x2f, 0x97, 0x16, 0x01, 0x0d, 0x00, 0x40, 0x31,
   0x00, 0x00, 0x00, 0x00, 0x00, 0x00, 0x00, 0x00, 0x00, 0x71, 0xa0, 0x02,
   0x0e, 0x00, 0x06, 0x36, 0xff, 0xbf, 0x4b, 0x7a, 0x3e, 0x5f, 0xab, 0x05,
   0xfe, 0xaa, 0x6c, 0x03, 0x52, 0x93, 0x00, 0x00, 0x00, 0x00, 0x00, 0x00,
   0x00, 0x00, 0x00, 0x00, 0x00, 0x00, 0x16, 0xa2, 0x7f, 0xb8, 0x00, 0xae,
   0x66, 0xdd, 0xff, 0xdb, 0x5a, 0x3e, 0xdd, 0xaf, 0x5d, 0xd4, 0xd6, 0x6d,
   0x6a, 0x44, 0x20, 0x94, 0x02, 0x00, 0x00, 0x00, 0x00, 0x00, 0x00, 0x00,
   0x00, 0x00, 0x80, 0x01, 0x44, 0x18, 0x7d, 0x00, 0x56, 0xb3, 0xb4, 0xff,
   0xff, 0x39, 0x9f, 0xeb, 0xed, 0x11, 0x7f, 0x35, 0x52, 0x09, 0x3b, 0x21,
   0x14, 0x05, 0x00, 0x00, 0x00, 0x00, 0x00, 0x00, 0x00, 0x00, 0x00, 0x40,
   0xc0, 0x50, 0x31, 0x70, 0x80, 0x40, 0x26, 0xfe, 0xff, 0x55, 0x17, 0xdf,
   0xe9, 0x91, 0xb7, 0xae, 0xea, 0x12, 0xc8, 0x2b, 0x00, 0xd4, 0x00, 0x00,
   0x00, 0x00, 0x00, 0x00, 0x00, 0x00, 0x00, 0x00, 0x60, 0x88, 0x15, 0x40,
   0x74, 0x00, 0x00, 0x52, 0xcb, 0xfb, 0xff, 0x9e, 0xcd, 0xfe, 0x75, 0xcb,
   0x9f, 0x09, 0xa5, 0x7a, 0x17, 0x00, 0x18, 0x01, 0x80, 0x00, 0x00, 0x00,
   0x00, 0x00, 0x00, 0x00, 0x08, 0x10, 0x5c, 0xcd, 0x1f, 0x68, 0x04, 0x80,
   0x40, 0x6f, 0xfe, 0x5b, 0xfd, 0x65, 0xfe, 0x7d, 0xab, 0xbf, 0x59, 0x05,
   0xd4, 0x0a, 0x8a, 0x10, 0x05, 0x00, 0x00, 0x00, 0x00, 0x00, 0x00, 0x00,
   0x00, 0x04, 0x10, 0xdc, 0xfa, 0x37, 0x70, 0x00, 0xe0, 0x50, 0xc1, 0xfb,
   0xff, 0xbf, 0x17, 0x7f, 0xde, 0x62, 0x27, 0x45, 0x41, 0x4a, 0x40, 0x29,
   0x56, 0x01, 0x00, 0x00, 0x00, 0x00, 0x00, 0x00, 0x00, 0x00, 0x08, 0x00,
   0xde, 0xfb, 0x75, 0x20, 0x00, 0x50, 0xd4, 0xc1, 0xf7, 0xff, 0xff, 0x3b,
   0x7f, 0x9a, 0xe7, 0x7f, 0x69, 0x53, 0x1d, 0xd0, 0x65, 0x00, 0x68, 0x88,
   0x00, 0x00, 0x00, 0x00, 0x00, 0x00, 0x00, 0x00, 0x08, 0xfe, 0xbd, 0x7f,
   0x31, 0x01, 0x68, 0x54, 0x70, 0xf9, 0x7f, 0xfb, 0x9f, 0xbf, 0xf7, 0xf9,
   0xca, 0x6a, 0xa5, 0x82, 0x0a, 0x15, 0x00, 0xa8, 0xb6, 0x00, 0x00, 0x00,
   0x00, 0x00, 0x00, 0x00, 0x04, 0x0c, 0x7e, 0x3f, 0x7a, 0x80, 0x00, 0x08,
   0x74, 0xf0, 0xfd, 0xff, 0xff, 0xff, 0x9f, 0xdf, 0xf9, 0xdb, 0xc9, 0x6e,
   0x12, 0x54, 0x25, 0x14, 0x20, 0x25, 0x00, 0x00, 0x00, 0x00, 0x00, 0x00,
   0x00, 0x04, 0x18, 0xf8, 0x1f, 0x2d, 0x00, 0x00, 0x20, 0xba, 0xd8, 0xfe,
   0xff, 0xff, 0xff, 0x9f, 0x77, 0xf7, 0x55, 0x1a, 0x09, 0x0a, 0x42, 0x55,
   0x00, 0x42, 0xe9, 0x00, 0x00, 0x00, 0x00, 0x00, 0x00, 0x00, 0x0d, 0x1c,
   0xf8, 0x3f, 0x10, 0x40, 0x00, 0x00, 0x71, 0xf0, 0x7e, 0xff, 0xef, 0xff,
   0xdf, 0xff, 0xbf, 0x3b, 0x51, 0xeb, 0x4b, 0x16, 0xb6, 0x20, 0x68, 0x8b,
   0x00, 0x00, 0x00, 0x00, 0x00, 0x00, 0x00, 0x18, 0x7c, 0xf0, 0x7f, 0x20,
   0x00, 0x00, 0x10, 0x39, 0x68, 0xf6, 0xff, 0xff, 0xff, 0xff, 0x57, 0xff,
   0x6d, 0x24, 0xa8, 0xa4, 0x48, 0x55, 0x8a, 0x22, 0x51, 0x00, 0x00, 0x00,
   0x00, 0x00, 0x00, 0x00, 0x08, 0xf4, 0xfb, 0x1f, 0x00, 0x00, 0x00, 0x10,
   0x71, 0x30, 0xdf, 0xff, 0xd5, 0xff, 0xff, 0xfd, 0x77, 0x5f, 0xcc, 0x92,
   0x8a, 0x50, 0x35, 0x24, 0xa0, 0x52, 0x00, 0x00, 0x00, 0x00, 0x00, 0x00,
   0x00, 0x3c, 0x85, 0xfe, 0x1f, 0x00, 0x00, 0x00, 0x18, 0xed, 0x22, 0x6d,
   0x7f, 0xc0, 0xff, 0xff, 0xff, 0xff, 0x52, 0x21, 0xea, 0x66, 0x22, 0xb7,
   0x0c, 0x80, 0x4a, 0x00, 0x00, 0x00, 0x00, 0x00, 0x00, 0x00, 0x7a, 0x45,
   0xf5, 0x05, 0x00, 0x00, 0x00, 0x00, 0xfc, 0x00, 0x69, 0x1f, 0xfc, 0xff,
   0xff, 0xff, 0xff, 0x77, 0xd6, 0xa8, 0x4d, 0x34, 0xb4, 0x0a, 0x32, 0x4d,
   0x00, 0x00, 0x00, 0x00, 0x00, 0x00, 0xf0, 0xef, 0x09, 0x42, 0x00, 0x00,
   0x00, 0x00, 0x00, 0xd4, 0x08, 0x38, 0x0f, 0xfe, 0xff, 0xff, 0xff, 0x6f,
   0x2d, 0x55, 0xd5, 0x52, 0x4d, 0x4c, 0x93, 0x54, 0xb2, 0x00, 0x00, 0x00,
   0x00, 0x00, 0x00, 0xe4, 0xbf, 0x8d, 0x00, 0x00, 0x00, 0x00, 0x00, 0x00,
   0x1c, 0x00, 0x38, 0x80, 0xfb, 0xff, 0xff, 0xff, 0x7f, 0xff, 0x84, 0x2a,
   0x0a, 0x92, 0x51, 0x24, 0x44, 0xa2, 0x00, 0x00, 0x00, 0x00, 0x00, 0x00,
   0xa2, 0x7f, 0xb5, 0x00, 0x00, 0x00, 0x04, 0x00, 0x00, 0x2c, 0x0c, 0x98,
   0x80, 0xef, 0xff, 0xff, 0xff, 0xff, 0xa5, 0xd5, 0xe2, 0xb5, 0x16, 0x5a,
   0xab, 0xaa, 0x12, 0x00, 0x00, 0x00, 0x00, 0x00, 0x40, 0xa8, 0x7f, 0xaf,
   0x00, 0x00, 0x00, 0x04, 0x00, 0x00, 0x1c, 0x04, 0x18, 0xa0, 0xf4, 0xff,
   0xff, 0x7f, 0xff, 0xbd, 0x52, 0x4d, 0xb7, 0xd6, 0xb6, 0x55, 0xa1, 0x02,
   0x00, 0x00, 0x00, 0x00, 0x00, 0x80, 0xa2, 0xf6, 0x99, 0x80, 0x00, 0x00,
   0x05, 0x00, 0x00, 0x14, 0x0a, 0x00, 0x50, 0x17, 0xf8, 0xef, 0x7f, 0xff,
   0xf3, 0xb7, 0xfd, 0x76, 0xad, 0x59, 0x16, 0x94, 0xa4, 0x00, 0x00, 0x00,
   0x00, 0x00, 0x12, 0xaa, 0xf7, 0xb7, 0x82, 0x10, 0x02, 0x00, 0x00, 0x00,
   0x8c, 0x0d, 0x00, 0x58, 0xf5, 0x7d, 0x80, 0xbf, 0xff, 0xdf, 0xbe, 0x5a,
   0x6e, 0xb5, 0x57, 0xad, 0x04, 0x04, 0x00, 0x00, 0x00, 0x00, 0x00, 0x40,
   0x69, 0xff, 0x7f, 0x8b, 0x11, 0x00, 0x00, 0x00, 0x00, 0x04, 0x1e, 0x00,
   0xa0, 0xde, 0x0f, 0xfc, 0xbf, 0xff, 0xf7, 0xd3, 0xb7, 0xb3, 0x85, 0x52,
   0x2a, 0x60, 0x0b, 0x00, 0x00, 0x00, 0x00, 0xa0, 0x24, 0xd5, 0x7f, 0xef,
   0x1b, 0x8b, 0x01, 0x00, 0x00, 0x00, 0x8c, 0x1c, 0x01, 0x8c, 0x7d, 0x06,
   0xfe, 0xdf, 0xff, 0xbf, 0xf7, 0x76, 0xad, 0x7d, 0x2f, 0xee, 0x4a, 0x99,
   0x00, 0x00, 0x00, 0x00, 0x08, 0xa2, 0xa8, 0xaa, 0xf5, 0x76, 0xad, 0x03,
   0x00, 0x00, 0x00, 0x14, 0x0e, 0x02, 0xe4, 0xba, 0x00, 0xff, 0xcf, 0xf7,
   0xe9, 0xde, 0xdf, 0xf7, 0xa7, 0xa8, 0x34, 0x2a, 0x84, 0x00, 0x00, 0x00,
   0x00, 0xa0, 0x2a, 0xa2, 0xb2, 0xd8, 0xec, 0x5b, 0x0c, 0x20, 0x00, 0x00,
   0x8c, 0xae, 0x00, 0xac, 0x3e, 0x80, 0xff, 0xe7, 0xf1, 0xf3, 0xfb, 0x77,
   0xbd, 0x5e, 0x93, 0x55, 0xa0, 0x48, 0x00, 0x00, 0x00, 0x00, 0x88, 0x14,
   0x94, 0xa2, 0x7a, 0xff, 0xab, 0x3f, 0x10, 0x0a, 0x00, 0x08, 0x8f, 0x16,
   0xd6, 0x1b, 0xc0, 0x01, 0xf0, 0xf0, 0xb3, 0xff, 0xdb, 0xeb, 0x75, 0xfd,
   0xfa, 0x02, 0x48, 0x00, 0x00, 0x00, 0x00, 0x20, 0x91, 0x50, 0x89, 0x62,
   0xef, 0x57, 0x35, 0xa2, 0x23, 0x00, 0x04, 0x9e, 0x0a, 0xab, 0x01, 0x00,
   0x00, 0x00, 0xfc, 0x23, 0xbf, 0x5f, 0x5f, 0x77, 0x87, 0x95, 0x14, 0x09,
   0x00, 0x00, 0x00, 0x00, 0x8a, 0x44, 0x88, 0x20, 0xca, 0xba, 0xbe, 0xea,
   0x6a, 0x01, 0x00, 0x88, 0xc3, 0x0b, 0xd9, 0x02, 0x00, 0x00, 0x00, 0xfc,
   0x61, 0xff, 0xb6, 0xf1, 0x6c, 0x7d, 0x52, 0x00, 0xa2, 0x00, 0x00, 0x00,
   0x00, 0x20, 0x0a, 0x10, 0x44, 0xac, 0xaf, 0x17, 0xd2, 0x17, 0x00, 0x00,
   0x00, 0xa3, 0x07, 0xfb, 0x10, 0x00, 0x00, 0x00, 0xfc, 0xc1, 0xe8, 0xef,
   0xd7, 0xaf, 0xd5, 0xad, 0x12, 0x04, 0x00, 0x00, 0x00, 0x00, 0x88, 0x00,
   0x40, 0x80, 0xf6, 0xaa, 0x44, 0x68, 0x43, 0x95, 0x06, 0x80, 0xec, 0x07,
   0x68, 0x14, 0x00, 0x92, 0x02, 0x7a, 0x01, 0x60, 0xbb, 0x76, 0xf5, 0x2a,
   0x4b, 0x00, 0x20, 0x00, 0x00, 0x00, 0x00, 0x00, 0x02, 0x00, 0x12, 0xa6,
   0x2b, 0x00, 0x60, 0xdf, 0x82, 0x0f, 0x80, 0xe9, 0x0f, 0x68, 0x0c, 0x40,
   0xab, 0x02, 0x68, 0x00, 0xe8, 0x7b, 0xfd, 0xab, 0x2b, 0xd9, 0x01, 0xa4,
   0x00, 0x00, 0x00, 0x00, 0x00, 0x10, 0x00, 0x24, 0xf3, 0x88, 0x03, 0x60,
   0xbf, 0x77, 0x05, 0x00, 0xf1, 0x0d, 0x78, 0x0b, 0x20, 0x14, 0x40, 0x02,
   0x00, 0x94, 0x76, 0x67, 0x6f, 0xa9, 0x12, 0xe4, 0x90, 0x00, 0x00, 0x00,
   0x00, 0x00, 0x00, 0x00, 0x48, 0x53, 0x01, 0x02, 0xa1, 0x75, 0xe2, 0x06,
   0x80, 0xf1, 0x8b, 0x6d, 0x0b, 0x08, 0x1c, 0x58, 0x00, 0x00, 0xdf, 0xd6,
   0xdd, 0xdd, 0x25, 0x4a, 0x81, 0x12, 0x00, 0x00, 0x00, 0x00, 0x00, 0x00,
   0x84, 0x30, 0x51, 0x40, 0x01, 0x80, 0xb6, 0xe8, 0x02, 0x00, 0xf0, 0x0f,
   0xb4, 0x07, 0x00, 0x86, 0x07, 0x00, 0x80, 0xb6, 0xfe, 0x6f, 0x9b, 0x56,
   0x15, 0x85, 0x48, 0x00, 0x00, 0x00, 0x00, 0x00, 0x00, 0x00, 0x40, 0x18,
   0x21, 0x00, 0x80, 0x5d, 0xe8, 0x02, 0x80, 0xf0, 0x8a, 0xf6, 0x82, 0x00,
   0xc1, 0x07, 0x00, 0xc0, 0x81, 0xbf, 0x6e, 0xbb, 0x50, 0xa5, 0x55, 0x48,
   0x00, 0x00, 0x00, 0x00, 0x00, 0x80, 0x00, 0x00, 0x68, 0x48, 0x00, 0x00,
   0x4b, 0x3b, 0x00, 0x00, 0xe0, 0x05, 0xfd, 0x03, 0x80, 0xe0, 0x07, 0x00,
   0x38, 0x01, 0xe8, 0xfb, 0x05, 0x54, 0x95, 0x89, 0x92, 0x00, 0x00, 0x00,
   0x00, 0x00, 0x00, 0x01, 0x00, 0x58, 0xd2, 0x00, 0x80, 0x5a, 0x7b, 0x00,
   0x00, 0x60, 0x08, 0xfb, 0x01, 0x60, 0xe0, 0x02, 0x00, 0xb4, 0x02, 0xf0,
   0xdf, 0xaf, 0xa5, 0x69, 0x57, 0xb5, 0x00, 0x00, 0x00, 0x00, 0x00, 0x50,
   0x00, 0x00, 0x20, 0xa9, 0x00, 0x00, 0xbf, 0x56, 0x00, 0x00, 0x60, 0x03,
   0xfa, 0x00, 0x58, 0x58, 0x01, 0x00, 0x00, 0x00, 0x80, 0x7b, 0x6b, 0xbd,
   0xaa, 0x94, 0x21, 0x00, 0x00, 0x00, 0x00, 0x00, 0x04, 0x00, 0x00, 0x60,
   0xe8, 0x01, 0x00, 0xea, 0x9f, 0x00, 0x00, 0xc0, 0x00, 0x5e, 0x00, 0x38,
   0x58, 0x00, 0x00, 0x01, 0x00, 0x00, 0xfe, 0x6e, 0xe9, 0xfb, 0x75, 0x95,
   0x00, 0x00, 0x00, 0x00, 0x00, 0x00, 0x20, 0x00, 0x60, 0xa5, 0x01, 0x00,
   0xde, 0x2f, 0x00, 0x00, 0x60, 0x05, 0x5a, 0x40, 0x0e, 0x24, 0x00, 0x80,
   0x22, 0x00, 0x2a, 0x76, 0x37, 0x5d, 0xad, 0x4a, 0x41, 0x00, 0x00, 0x00,
   0x00, 0x00, 0x00, 0x10, 0x00, 0x40, 0xed, 0x04, 0x00, 0xf0, 0x27, 0x00,
   0x00, 0x00, 0x00, 0x7f, 0x70, 0x08, 0x00, 0x00, 0x40, 0x08, 0x00, 0x60,
   0xfc, 0xf6, 0xab, 0x6d, 0xb9, 0x56, 0x00, 0x00, 0x00, 0x00, 0x00, 0x00,
   0x10, 0x00, 0xe0, 0xda, 0x3c, 0x00, 0xde, 0x97, 0x00, 0x00, 0x00, 0x00,
   0x17, 0x2a, 0x04, 0x0d, 0x00, 0x20, 0x07, 0x00, 0xc0, 0xfd, 0xcd, 0x5e,
   0xd7, 0x57, 0x51, 0x00, 0x00, 0x00, 0x00, 0x00, 0x00, 0x08, 0x40, 0xe0,
   0xa6, 0x17, 0x00, 0xf4, 0x25, 0x00, 0x00, 0x00, 0x00, 0x2f, 0x3a, 0x80,
   0x02, 0x06, 0x48, 0x00, 0x00, 0x00, 0xc0, 0xdb, 0xf6, 0x36, 0x6a, 0x49,
   0x00, 0x00, 0x00, 0x00, 0x00, 0x00, 0x00, 0x00, 0xa0, 0xbb, 0x2e, 0x00,
   0x74, 0x21, 0x00, 0x00, 0x80, 0x00, 0xcb, 0x1e, 0xfb, 0x00, 0x02, 0x40,
   0x00, 0x00, 0x00, 0x00, 0xee, 0xcd, 0xad, 0x2d, 0x42, 0x00, 0x00, 0x00,
   0x00, 0x00, 0x00, 0x00, 0x40, 0x70, 0x2b, 0x3c, 0x00, 0xe4, 0x22, 0x00,
   0x02, 0x00, 0x00, 0x4f, 0x9c, 0x0d, 0x00, 0x00, 0x20, 0x00, 0x00, 0x00,
   0x00, 0x5c, 0xfb, 0xfd, 0xeb, 0x48, 0x00, 0x00, 0x00, 0x00, 0x00, 0x00,
   0x00, 0x00, 0xe0, 0x27, 0x30, 0x00, 0x72, 0x31, 0x00, 0x04, 0x00, 0x00,
   0xa3, 0x5b, 0x00, 0x00, 0x00, 0x18, 0x00, 0x00, 0x00, 0x00, 0x78, 0xb7,
   0xab, 0x1a, 0x81, 0x00, 0x00, 0x00, 0x00, 0x00, 0x00, 0x00, 0x08, 0xc0,
   0xa7, 0x40, 0x00, 0x60, 0x18, 0x00, 0x01, 0x00, 0x00, 0xaf, 0x0b, 0x00,
   0x00, 0x00, 0x08, 0x00, 0x00, 0x80, 0xaa, 0xfa, 0xb6, 0xdd, 0xaa, 0x2a,
   0x00, 0x00, 0x00, 0x00, 0x00, 0x00, 0x00, 0x00, 0xe0, 0xb3, 0x40, 0x30,
   0x80, 0x11, 0x40, 0x02, 0x00, 0x00, 0xb3, 0x07, 0x00, 0x00, 0x00, 0x05,
   0x40, 0x0b, 0x38, 0x09, 0xfa, 0x7b, 0x73, 0xa9, 0xdd, 0x00, 0x00, 0x00,
   0x00, 0x00, 0x00, 0x00, 0x00, 0xc0, 0x33, 0x40, 0x21, 0x80, 0x0c, 0x00,
   0x00, 0x00, 0x80, 0xf7, 0x07, 0xa0, 0x00, 0x00, 0x05, 0xd0, 0x8a, 0x22,
   0x01, 0x50, 0xaf, 0x9b, 0x2a, 0x95, 0x00, 0x00, 0x00, 0x00, 0x00, 0x00,
   0x00, 0x00, 0xc0, 0x13, 0x81, 0x14, 0x00, 0x0c, 0x80, 0x00, 0x00, 0x00,
   0xeb, 0x07, 0xbc, 0x0f, 0x40, 0x02, 0xb8, 0x0a, 0x0a, 0x00, 0xe0, 0xb6,
   0x6a, 0xdf, 0xed, 0x00, 0x00, 0x00, 0x00, 0x00, 0x00, 0x00, 0x00, 0x80,
   0x3b, 0x91, 0x21, 0x00, 0x04, 0x04, 0x00, 0x00, 0xc0, 0xdf, 0x13, 0x3d,
   0x00, 0x90, 0x00, 0xf4, 0x03, 0x20, 0x00, 0x40, 0xe7, 0x65, 0xa1, 0xb6,
   0x00, 0x00, 0x00, 0x00, 0x00, 0x00, 0x00, 0x00, 0xc0, 0x1f, 0xc1, 0x02,
   0x80, 0x00, 0x02, 0x00, 0x00, 0xc0, 0xff, 0x41, 0xf7, 0x80, 0xa8, 0x00,
   0x2c, 0x00, 0x00, 0x00, 0x80, 0xff, 0x5b, 0x7e, 0x53, 0x00, 0x00, 0x00,
   0x00, 0x00, 0x00, 0x00, 0x00, 0x80, 0x1f, 0xb1, 0x32, 0x00, 0x01, 0x00,
   0x00, 0x00, 0xc0, 0x7f, 0xb1, 0xaa, 0x80, 0x22, 0x00, 0x2f, 0x00, 0x00,
   0x00, 0x80, 0x7f, 0xdb, 0x55, 0xad, 0x00, 0x00, 0x00, 0x00, 0x00, 0x00,
   0x00, 0x00, 0x00, 0xf7, 0xd2, 0x07, 0x80, 0x01, 0x00, 0x00, 0x04, 0xc0,
   0xff, 0xa0, 0x45, 0x82, 0x18, 0x00, 0x05, 0x00, 0x00, 0x54, 0x01, 0x0f,
   0x77, 0x6b, 0x75, 0x00, 0x00, 0x00, 0x00, 0x00, 0x00, 0x00, 0x00, 0x00,
   0xfe, 0xf3, 0x06, 0x90, 0x00, 0x00, 0x00, 0x00, 0xc0, 0xe3, 0xb0, 0x12,
   0x10, 0x00, 0x80, 0x01, 0x00, 0x00, 0x14, 0x0b, 0x00, 0x5c, 0xad, 0xea,
   0x00, 0x00, 0x00, 0x00, 0x00, 0x00, 0x00, 0x00, 0x80, 0xff, 0xde, 0x02,
   0x38, 0x01, 0x00, 0x00, 0x00, 0xe0, 0xf8, 0x0c, 0x80, 0x02, 0x00, 0x40,
   0x00, 0x00, 0x00, 0x04, 0x15, 0x40, 0x59, 0x7b, 0xd3, 0x00, 0x00, 0x00,
   0x00, 0x00, 0x00, 0x00, 0x00, 0x80, 0xff, 0xfb, 0x06, 0x0e, 0x00, 0x00,
   0x00, 0x00, 0x30, 0x7e, 0x08, 0x10, 0x68, 0x00, 0xf8, 0x00, 0x00, 0x00,
   0x00, 0x54, 0xf8, 0x5f, 0xab, 0xac, 0x00, 0x00, 0x00, 0x00, 0x00, 0x00,
   0x00, 0x00, 0x80, 0xff, 0xff, 0x88, 0x63, 0x00, 0x00, 0x00, 0x00, 0x90,
   0x7f, 0xeb, 0x66, 0x00, 0x00, 0x3c, 0x00, 0x00, 0x00, 0x00, 0xb8, 0xff,
   0xbf, 0x0a, 0x75, 0x00, 0x00, 0x00, 0x00, 0x00, 0x00, 0x00, 0x00, 0x80,
   0x7f, 0xff, 0x43, 0x41, 0x00, 0x00, 0x00, 0x40, 0xcc, 0x7f, 0x41, 0x51,
   0x25, 0x80, 0xb7, 0x01, 0x00, 0x00, 0x00, 0xc0, 0xfb, 0xfb, 0x2b, 0xdd,
   0x00, 0x00, 0x00, 0x00, 0x00, 0x00, 0x00, 0x00, 0x80, 0xff, 0x1f, 0xf8,
   0xc7, 0x00, 0x00, 0x00, 0x00, 0xe3, 0x7f, 0x00, 0xde, 0x1d, 0x80, 0x0a,
   0x00, 0x00, 0x00, 0x00, 0x20, 0xff, 0x6e, 0x6f, 0x76, 0x00, 0x00, 0x00,
   0x00, 0x00, 0x00, 0x00, 0x00, 0x80, 0xff, 0x5f, 0xf8, 0x4f, 0x00, 0x01,
   0x00, 0x00, 0xf0, 0x1f, 0x12, 0x00, 0x01, 0x80, 0xd6, 0x02, 0xa0, 0x20,
   0x05, 0xc8, 0xdc, 0xfe, 0x6a, 0xd9, 0x00, 0x00, 0x00, 0x00, 0x00, 0x00,
   0x00, 0x00, 0x00, 0xff, 0x0f, 0x87, 0x5f, 0x00, 0x00, 0x00, 0x00, 0xfc,
   0x05, 0x0f, 0x00, 0x00, 0x70, 0x00, 0x0b, 0x18, 0x80, 0x0a, 0x10, 0xb0,
   0xdd, 0x2b, 0xa5, 0x00, 0x00, 0x00, 0x00, 0x00, 0x00, 0x00, 0x00, 0x80,
   0xff, 0x8f, 0x53, 0x1f, 0x40, 0x00, 0x00, 0x80, 0x1f, 0x86, 0x07, 0x00,
   0x00, 0x08, 0x61, 0xea, 0x06, 0x00, 0x10, 0x02, 0xd7, 0xf7, 0x75, 0x94,
   0x00, 0x00, 0x00, 0x00, 0x00, 0x00, 0x00, 0x00, 0x80, 0xff, 0xc7, 0x43,
   0x1f, 0x00, 0x00, 0x00, 0xf8, 0xc7, 0xc3, 0x03, 0x00, 0x00, 0x20, 0x08,
   0x05, 0x01, 0x00, 0xa8, 0xa0, 0x6d, 0x5f, 0x4b, 0xa9, 0x00, 0x00, 0x00,
   0x00, 0x00, 0x00, 0x00, 0x00, 0xe0, 0xff, 0xf1, 0x40, 0x1f, 0x00, 0x00,
   0x20, 0xf6, 0xbf, 0xe0, 0x01, 0x08, 0x00, 0x20, 0x20, 0x40, 0x00, 0x00,
   0x00, 0x21, 0xdd, 0x7f, 0x5f, 0x29, 0x00, 0x00, 0x00, 0x00, 0x00, 0x00,
   0x00, 0x00, 0xc0, 0xff, 0xf1, 0x00, 0x1f, 0x00, 0x00, 0x00, 0xa0, 0x0e,
   0x70, 0x41, 0x3c, 0x00, 0x00, 0x04, 0x00, 0x00, 0x00, 0x00, 0x00, 0xb7,
   0xfe, 0xed, 0x45, 0x00, 0x00, 0x00, 0x00, 0x00, 0x08, 0x00, 0x00, 0xc8,
   0xff, 0x7c, 0x00, 0x3e, 0x00, 0x00, 0x04, 0xd4, 0x3b, 0xe8, 0x59, 0x01,
   0x00, 0xa0, 0x01, 0x00, 0x00, 0x00, 0xa8, 0x00, 0xd4, 0xfd, 0x6f, 0x59,
   0x00, 0x00, 0x00, 0x00, 0x20, 0x10, 0x00, 0x00, 0xc0, 0x7f, 0x3e, 0x40,
   0xff, 0x00, 0x00, 0x00, 0xfe, 0x0a, 0x12, 0x24, 0x00, 0x00, 0x02, 0x00,
   0x00, 0x00, 0x00, 0x0d, 0x04, 0x00, 0xf6, 0xdc, 0xad, 0x00, 0x00, 0x00,
   0x00, 0x00, 0x00, 0x00, 0x00, 0xe0, 0x3d, 0x36, 0x20, 0x7d, 0x09, 0x00,
   0x80, 0xff, 0x01, 0x00, 0x01, 0x00, 0x00, 0x28, 0x00, 0x00, 0x00, 0x00,
   0x80, 0x00, 0x00, 0x9c, 0xb5, 0xb7, 0x00, 0x00, 0x00, 0x00, 0x00, 0x10,
   0x00, 0x00, 0xe0, 0x86, 0x15, 0xc0, 0xbb, 0x00, 0x00, 0xc0, 0x7f, 0x02,
   0x40, 0x3f, 0x01, 0x20, 0x80, 0x48, 0x00, 0x00, 0x00, 0x20, 0x01, 0x00,
   0x02, 0x78, 0xad, 0x00, 0x00, 0x00, 0x00, 0x00, 0x00, 0x00, 0x00, 0x80,
   0x08, 0x05, 0x40, 0x3f, 0x02, 0x10, 0xf0, 0xbf, 0x00, 0x00, 0xb0, 0x00,
   0x40, 0xa0, 0x47, 0x00, 0x18, 0x00, 0x68, 0x01, 0x00, 0x06, 0xe8, 0xed,
   0x00, 0x00, 0x00, 0x00, 0x00, 0x00, 0x00, 0x00, 0x50, 0x10, 0xae, 0xd0,
   0x5b, 0x00, 0x00, 0xf0, 0x9f, 0x00, 0x00, 0x00, 0x06, 0x00, 0x57, 0x14,
   0x10, 0x06, 0x00, 0x87, 0x32, 0x00, 0x00, 0xda, 0x75, 0x00, 0x00, 0x00,
   0x00, 0x00, 0x01, 0x00, 0x00, 0x40, 0x04, 0x23, 0xa2, 0xbe, 0x00, 0x00,
   0xf8, 0x1f, 0x00, 0x04, 0x00, 0xfc, 0xe4, 0x0f, 0x81, 0x00, 0x00, 0x3a,
   0x7c, 0x05, 0x00, 0x00, 0x50, 0xed, 0x00, 0x00, 0x00, 0x00, 0x00, 0x00,
   0x00, 0x00, 0x00, 0x80, 0xc1, 0xc8, 0xdd, 0x00, 0x00, 0xfc, 0x7f, 0x00,
   0x00, 0xff, 0xd0, 0xbf, 0xb0, 0x02, 0x00, 0x80, 0x9a, 0x0b, 0x03, 0x00,
   0x00, 0x00, 0xbe, 0x00, 0x00, 0x00, 0x00, 0x40, 0x00, 0x00, 0x00, 0x02,
   0x40, 0x03, 0x00, 0xbe, 0x00, 0x00, 0xfe, 0x7f, 0x00, 0x04, 0xba, 0xc6,
   0x5f, 0xe5, 0x5d, 0x4e, 0x81, 0xa2, 0xfc, 0x12, 0x00, 0x00, 0x00, 0xe8,
   0x00, 0x00, 0x00, 0x00, 0x00, 0x00, 0x00, 0x00, 0x02, 0x40, 0x01, 0x00,
   0x7c, 0x02, 0x00, 0xfd, 0x6f, 0x00, 0x80, 0xff, 0xfb, 0x9f, 0x07, 0xeb,
   0x3d, 0x12, 0x4d, 0xcf, 0x09, 0x00, 0x00, 0x00, 0xa4, 0x00, 0x00, 0x00,
   0x00, 0x00, 0x00, 0x00, 0x40, 0x01, 0x40, 0x00, 0x00, 0x75, 0x00, 0x80,
   0xfe, 0x7b, 0x00, 0x60, 0x6b, 0xfb, 0x7f, 0x00, 0x5a, 0x10, 0x04, 0x8d,
   0x8f, 0x05, 0x02, 0x00, 0x00, 0xa0, 0x00, 0x00, 0x00, 0x00, 0x00, 0x00,
   0x00, 0xc0, 0x00, 0x80, 0x00, 0x00, 0x7a, 0x00, 0x00, 0xfe, 0x6e, 0x80,
   0x90, 0x40, 0x3d, 0x28, 0x00, 0x14, 0x08, 0xee, 0x67, 0xaf, 0x0d, 0x00,
   0x00, 0x00, 0xc0, 0x00, 0x00, 0x00, 0x00, 0x00, 0x00, 0x00, 0x40, 0x00,
   0x40, 0x00, 0x40, 0xfa, 0x02, 0x00, 0xbf, 0xde, 0x00, 0xb0, 0x98, 0x1a,
   0x28, 0x80, 0x00, 0x00, 0xd5, 0xef, 0xbf, 0x09, 0x01, 0x00, 0x00, 0x80,
   0x00, 0x00, 0x00, 0x00, 0x00, 0x00, 0x00, 0x30, 0x00, 0xa0, 0x00, 0x00,
   0xf2, 0x0c, 0x00, 0xdf, 0x6b, 0x00, 0x0e, 0x00, 0x02, 0x10, 0x00, 0x00,
   0x00, 0xaa, 0xdd, 0x62, 0xad, 0x00, 0x00, 0x00, 0x00, 0x00, 0x00, 0x00,
   0x00, 0x10, 0x00, 0x00, 0x38, 0x00, 0x02, 0x00, 0x00, 0xf0, 0x01, 0x80,
   0x1f, 0xbf, 0x00, 0x25, 0x82, 0x00, 0x00, 0x00, 0x00, 0x00, 0x68, 0xb1,
   0xcb, 0x99, 0x02, 0x00, 0x00, 0x00, 0x00, 0x00, 0x00, 0x00, 0x00, 0x00,
   0x00, 0x00, 0x02, 0x01, 0x00, 0x00, 0xf8, 0x05, 0x80, 0xbf, 0x2e, 0x80,
   0x01, 0x00, 0x01, 0x00, 0x10, 0x00, 0x00, 0x51, 0xde, 0x2d, 0x73, 0x91,
   0x00, 0x00, 0x00, 0x00, 0x00, 0x00, 0x00, 0x00, 0x00, 0x00, 0x18, 0x00,
   0x22, 0x00, 0x00, 0xf0, 0x01, 0x80, 0x8f, 0x2e, 0x00, 0x20, 0x40, 0x00,
   0x04, 0x00, 0x00, 0x80, 0xf8, 0xfb, 0xef, 0x6f, 0x02, 0x00, 0x00, 0x00,
   0x00, 0x00, 0x00, 0x00, 0x00, 0x00, 0x00, 0x00, 0x00, 0x00, 0x00, 0x00,
   0xf8, 0x05, 0xa0, 0x9f, 0x1f, 0x00, 0x58, 0x01, 0x00, 0x00, 0x03, 0x30,
   0x00, 0xb9, 0xdf, 0xb7, 0x1f, 0x50, 0x10, 0x00, 0x10, 0x00, 0x00, 0x00,
   0x00, 0x00, 0x00, 0x00, 0x00, 0x00, 0x02, 0x00, 0x00, 0xf0, 0x05, 0x90,
   0x1f, 0x1d, 0x00, 0x40, 0x10, 0x00, 0x54, 0x20, 0xa9, 0xd2, 0xd0, 0xdf,
   0xff, 0x9b, 0x00, 0x00, 0x00, 0xa8, 0x00, 0x00, 0x00, 0x00, 0x00, 0x00,
   0x00, 0x00, 0x00, 0x00, 0x00, 0x00, 0xf0, 0x0b, 0x80, 0x1f, 0x06, 0x00,
   0x80, 0x00, 0x00, 0x40, 0x80, 0x02, 0x88, 0x89, 0x8f, 0xc7, 0xaf, 0x00,
   0x00, 0x00, 0x80, 0x00, 0x00, 0x00, 0x00, 0x00, 0x00, 0x00, 0x00, 0x00,
   0x00, 0x00, 0x00, 0xe2, 0x03, 0x80, 0x1f, 0x0e, 0x00, 0x00, 0x00, 0x00,
   0x00, 0x00, 0x00, 0x00, 0xc0, 0x87, 0x87, 0xbf, 0x00, 0x00, 0x00, 0x00,
   0x00, 0x00, 0x00, 0x00, 0x00, 0x00, 0x00, 0x00, 0x00, 0x00, 0x00, 0x00,
   0x50, 0x01, 0xe0, 0x3f, 0x0e, 0x00, 0x00, 0x00, 0x00, 0x00, 0x01, 0x00,
   0x00, 0xc9, 0xcf, 0xc7, 0x3f, 0x00, 0x00, 0x00, 0x40, 0x00, 0x00, 0x00,
   0x00, 0x00, 0xc0, 0x00, 0x00, 0x00, 0x00, 0x00, 0x00, 0xf0, 0x01, 0xc0,
   0x5f, 0x1e, 0x00, 0x80, 0x00, 0x00, 0x00, 0x02, 0x10, 0x00, 0xd1, 0x3f,
   0xff, 0x3b, 0x00, 0x00, 0x00, 0x00, 0x00, 0x00, 0x00, 0x00, 0x00, 0x20,
   0x00, 0x00, 0x00, 0x00, 0x00, 0x00, 0xf0, 0x02, 0x80, 0x7f, 0x4d, 0x00,
   0x00, 0x0e, 0x00, 0x00, 0x04, 0x20, 0x00, 0x5a, 0xe1, 0xea, 0x7f, 0x00,
   0x00, 0x00, 0x80, 0x00, 0x00, 0x00, 0x00, 0x00, 0x6c, 0x00, 0x00, 0x00,
   0x00, 0x00, 0x00, 0xd4, 0x03, 0x00, 0xbf, 0x4d, 0x80, 0x00, 0x28, 0x04,
   0x08, 0x18, 0x40, 0x00, 0x54, 0xa5, 0xe8, 0x4d, 0x00, 0x00, 0x00, 0x00,
   0x00, 0x00, 0x00, 0x00, 0x00, 0x22, 0x00, 0x00, 0x00, 0x00, 0x00, 0x00,
   0xe8, 0x00, 0x00, 0x7f, 0x2f, 0x00, 0x15, 0xa8, 0x2f, 0x20, 0x6c, 0x6d,
   0x01, 0x9a, 0x52, 0xf7, 0x1b, 0x00, 0x00, 0x20, 0xa0, 0x00, 0x00, 0x00,
   0x00, 0x00, 0x03, 0x00, 0x00, 0x00, 0x04, 0x00, 0x00, 0xf8, 0x03, 0x00,
   0x7f, 0x19, 0x00, 0xf8, 0x73, 0x5f, 0x01, 0x55, 0xfb, 0x14, 0x88, 0x8f,
   0x57, 0x01, 0x00, 0x00, 0x80, 0x80, 0x00, 0x00, 0x00, 0x00, 0x00, 0x02,
   0x00, 0x00, 0x00, 0x04, 0x00, 0x00, 0xe8, 0x04, 0x80, 0xff, 0x24, 0x00,
   0x64, 0xc2, 0x15, 0xc0, 0xda, 0xd7, 0x61, 0x03, 0x89, 0x3d, 0x00, 0x00,
   0x00, 0x80, 0xf6, 0x00, 0x00, 0x00, 0x00, 0x40, 0x00, 0x00, 0x00, 0x00,
   0x3b, 0x00, 0x00, 0xf2, 0x00, 0x00, 0xff, 0x47, 0x00, 0x88, 0x57, 0x7f,
   0x00, 0xb0, 0x5e, 0x43, 0x00, 0x09, 0x03, 0x00, 0x00, 0x00, 0x00, 0xd7,
   0x00, 0x00, 0x00, 0x00, 0x00, 0x00, 0x00, 0x00, 0x00, 0xbe, 0x00, 0x00,
   0x7d, 0x18, 0x00, 0xfe, 0x4a, 0x00, 0x00, 0x0c, 0x2d, 0x00, 0x60, 0xa0,
   0x15, 0x80, 0x90, 0x9e, 0x00, 0x00, 0x00, 0x3f, 0x7e, 0x00, 0x00, 0x00,
   0x00, 0x00, 0x00, 0x00, 0x00, 0x00, 0xfe, 0x03, 0x00, 0xfc, 0x30, 0x00,
   0xf8, 0x17, 0x00, 0x00, 0x00, 0x00, 0x00, 0x40, 0x40, 0x25, 0x00, 0x76,
   0x23, 0x00, 0x00, 0x00, 0xfc, 0xee, 0x00, 0x00, 0x00, 0x00, 0x00, 0x00,
   0x00, 0x00, 0x00, 0xfe, 0x0e, 0x40, 0x3e, 0x40, 0x00, 0xf0, 0x0f, 0x00,
   0x00, 0x00, 0x38, 0x01, 0x00, 0x00, 0x04, 0x00, 0xd8, 0x0e, 0x38, 0x00,
   0x00, 0xf6, 0xff, 0x00, 0x00, 0x00, 0x00, 0x00, 0x00, 0x00, 0x00, 0x00,
   0xfc, 0x3f, 0x20, 0x3f, 0xc0, 0x00, 0xe0, 0x1f, 0x00, 0x00, 0x20, 0xe0,
   0x02, 0x00, 0x04, 0x00, 0x00, 0xd0, 0x04, 0x21, 0x00, 0xae, 0xf8, 0xef,
   0x00, 0x00, 0x90, 0x00, 0x00, 0x00, 0x00, 0x00, 0x00, 0xff, 0x7f, 0x00,
   0x3d, 0x00, 0x04, 0x00, 0x2e, 0x00, 0x03, 0xd8, 0x00, 0x0b, 0x00, 0x08,
   0x00, 0x00, 0x30, 0x01, 0x20, 0x08, 0x5b, 0xf3, 0xbb, 0x00, 0x00, 0x20,
   0x00, 0x00, 0x00, 0x00, 0x00, 0x80, 0xff, 0xff, 0x01, 0x1a, 0x80, 0x00,
   0x00, 0xf8, 0x05, 0x04, 0xd8, 0x01, 0x2e, 0x20, 0x33, 0x00, 0x00, 0x40,
   0x00, 0x00, 0x11, 0xfe, 0x7e, 0xb7, 0x00, 0x00, 0x00, 0x00, 0x00, 0x00,
   0x00, 0x00, 0x80, 0xff, 0xfe, 0x01, 0x3e, 0x00, 0x0a, 0x00, 0xb0, 0x0b,
   0xd0, 0x60, 0x05, 0xd0, 0xd8, 0x1d, 0x00, 0x00, 0x00, 0x00, 0x00, 0x12,
   0x7f, 0xd7, 0xbd, 0x00, 0x00, 0x00, 0x00, 0x00, 0x00, 0x00, 0x00, 0xc0,
   0x3f, 0xfd, 0x03, 0x5c, 0x00, 0x10, 0x00, 0x60, 0x02, 0x80, 0xa3, 0x01,
   0x00, 0xab, 0x32, 0x00, 0x00, 0x00, 0x00, 0x0a, 0x4e, 0xf5, 0xaf, 0xf5,
   0x00, 0x00, 0x00, 0x00, 0x00, 0x00, 0x00, 0x00, 0xc0, 0x1f, 0xf8, 0x07,
   0x7f, 0x00, 0x30, 0x00, 0xc0, 0x05, 0xb8, 0x4b, 0x09, 0x00, 0x08, 0x49,
   0x00, 0x00, 0x00, 0xa0, 0xbb, 0xba, 0xbf, 0x5d, 0xad, 0x00, 0x00, 0x00,
   0x00, 0x00, 0x00, 0x00, 0x00, 0xe0, 0x1f, 0xf0, 0xff, 0x75, 0x00, 0x60,
   0x01, 0x84, 0x1b, 0x60, 0x05, 0x01, 0x00, 0x28, 0x84, 0x00, 0x00, 0x00,
   0x20, 0x7c, 0x7d, 0xfb, 0xbb, 0xe6, 0x00, 0x00, 0x00, 0x00, 0x00, 0x00,
   0x00, 0x00, 0xe0, 0x0f, 0xe8, 0xff, 0x2e, 0x00, 0xc0, 0x5f, 0x88, 0x2d,
   0xc0, 0x18, 0x00, 0x00, 0x00, 0x28, 0x00, 0x00, 0xb0, 0xc0, 0xd2, 0xeb,
   0xbd, 0xaf, 0x3a, 0x00, 0x00, 0x00, 0x00, 0x00, 0x00, 0x00, 0x00, 0xf0,
   0x0f, 0xe0, 0xde, 0x9f, 0x04, 0x00, 0xb5, 0x10, 0x57, 0x00, 0x33, 0x00,
   0x00, 0x00, 0x00, 0x00, 0x00, 0x24, 0xa1, 0x76, 0xdf, 0x6f, 0xd5, 0xe6,
   0x00, 0x00, 0x00, 0x00, 0x00, 0x00, 0x00, 0x00, 0xe0, 0xbf, 0x00, 0xfd,
   0xc8, 0x00, 0x00, 0x08, 0x31, 0x5e, 0x00, 0xfc, 0x10, 0x00, 0x00, 0x04,
   0x00, 0x00, 0x80, 0x20, 0x42, 0xfd, 0xad, 0x4a, 0x75, 0x00, 0x00, 0x00,
   0x00, 0x00, 0x00, 0x00, 0x00, 0xf0, 0xe7, 0x11, 0xfc, 0x89, 0x04, 0x00,
   0x00, 0xa0, 0xdc, 0x01, 0x00, 0x20, 0x00, 0x80, 0x00, 0x00, 0x00, 0x80,
   0xc2, 0x0d, 0xd6, 0xf7, 0xbb, 0xda, 0x00, 0x00, 0x00, 0x00, 0x00, 0x00,
   0x00, 0x00, 0xf0, 0xff, 0x01, 0x6d, 0xd2, 0x00, 0x00, 0x00, 0x40, 0xfa,
   0x01, 0x00, 0x80, 0x00, 0x00, 0x01, 0x00, 0x00, 0x00, 0x10, 0x82, 0xfd,
   0x8f, 0xa4, 0x6a, 0x00, 0x00, 0x00, 0x00, 0x00, 0x00, 0x00, 0x00, 0xf0,
   0x57, 0x12, 0x5d, 0x8a, 0x0d, 0x00, 0x00, 0xe0, 0x59, 0x07, 0x00, 0x00,
   0x00, 0x20, 0x00, 0x00, 0x00, 0x00, 0x00, 0x20, 0x7d, 0x5f, 0xad, 0xed,
   0x00, 0x00, 0x00, 0x00, 0x00, 0x00, 0x00, 0x00, 0xc0, 0xa7, 0x44, 0x47,
   0xac, 0x02, 0x00, 0x00, 0x80, 0x7b, 0x0f, 0x80, 0x00, 0x00, 0x00, 0x00,
   0x28, 0x00, 0x00, 0x00, 0xe0, 0xfa, 0x7b, 0x53, 0xad, 0x00, 0x00, 0x00,
   0x00, 0x00, 0x00, 0x00, 0x00, 0xb0, 0x0f, 0x04, 0x0e, 0x5d, 0x0d, 0x00,
   0x00, 0x00, 0xff, 0x19, 0x2a, 0x08, 0x00, 0x00, 0x00, 0xfa, 0x08, 0x00,
   0x00, 0xa0, 0xab, 0xdf, 0x5a, 0xaf, 0x00, 0x00, 0x00, 0x00, 0x00, 0x00,
   0x00, 0x00, 0x60, 0x1f, 0x01, 0x03, 0x34, 0x00, 0x00, 0x00, 0x00, 0xfe,
   0x77, 0xab, 0x30, 0x00, 0x00, 0x00, 0xe8, 0xff, 0x05, 0xc0, 0xa8, 0x5d,
   0x7b, 0xef, 0xb8, 0x00, 0x00, 0x00, 0x00, 0x00, 0x00, 0x00, 0x00, 0x60,
   0xfd, 0x42, 0x00, 0xe0, 0x00, 0x00, 0x00, 0x00, 0xf8, 0xcf, 0x2f, 0x40,
   0x00, 0x00, 0x00, 0x80, 0xfe, 0x5f, 0xfa, 0xed, 0xbf, 0x5b, 0xd5, 0x4b,
   0x00, 0x00, 0x00, 0x00, 0x00, 0x00, 0x00, 0x00, 0x00, 0xff, 0x19, 0x80,
   0x20, 0x00, 0x00, 0x00, 0x00, 0xe0, 0xeb, 0x00, 0x80, 0x00, 0x00, 0x00,
   0x00, 0x78, 0xf5, 0x6f, 0x53, 0xa7, 0xdb, 0xba, 0xd6, 0x00, 0x00, 0x00,
   0x00, 0x00, 0x00, 0x00, 0x00, 0x20, 0xfd, 0x09, 0x40, 0x90, 0x03, 0x02,
   0x20, 0x00, 0xd0, 0x96, 0x03, 0x00, 0x00, 0x00, 0x00, 0x80, 0x02, 0xfe,
   0x57, 0xad, 0xdd, 0xfe, 0xab, 0xd6, 0x00, 0x00, 0x00, 0x00, 0x00, 0x00,
   0x00, 0x00, 0x00, 0xf5, 0x17, 0x00, 0x40, 0x85, 0x05, 0x60, 0x00, 0xc0,
   0x38, 0x00, 0x00, 0x00, 0x00, 0x40, 0x00, 0x00, 0x7e, 0xdd, 0x5b, 0xb7,
   0xa8, 0xf5, 0xb5, 0x00, 0x00, 0x00, 0x00, 0x00, 0x00, 0x00, 0x00, 0x00,
   0xf8, 0x0f, 0x40, 0xe0, 0x02, 0x03, 0xe0, 0x00, 0x80, 0xd3, 0x00, 0x00,
   0x00, 0x04, 0x00, 0x00, 0x00, 0xec, 0xd7, 0x26, 0x6d, 0x6b, 0xad, 0xd6,
   0x00, 0x00, 0x00, 0x00, 0x00, 0x00, 0x00, 0x01, 0x04, 0xe0, 0x04, 0x00,
   0x20, 0x8d, 0x0e, 0xc0, 0x01, 0x80, 0x17, 0x02, 0x00, 0x00, 0x00, 0x00,
   0x00, 0x97, 0xf8, 0x5b, 0xdb, 0xac, 0xf9, 0x56, 0x45, 0x00, 0x00, 0x00,
   0x00, 0x00, 0x80, 0x24, 0x02, 0x00, 0xd4, 0x0b, 0x00, 0xe8, 0x89, 0x0d,
   0xc0, 0x01, 0x00, 0xbf, 0x08, 0x00, 0x00, 0x00, 0x0b, 0x00, 0xbf, 0xbb,
   0xff, 0xbc, 0xba, 0xd6, 0x4a, 0xbd, 0x00, 0x00, 0x00, 0x00, 0x00, 0x01,
   0x40, 0x4a, 0x0b, 0xc2, 0x3f, 0x00, 0xbc, 0x97, 0x0e, 0x80, 0x03, 0x00,
   0x3f, 0x00, 0x00, 0xf0, 0x00, 0xfe, 0xf5, 0xf5, 0xff, 0x15, 0xc7, 0xd5,
   0xea, 0xdf, 0xd5, 0x00, 0x00, 0x00, 0x00, 0x00, 0xf8, 0xda, 0xda, 0x06,
   0xf0, 0x3f, 0x00, 0xa8, 0x9a, 0x0d, 0x80, 0x07, 0x00, 0x3f, 0x00, 0x00,
   0xc0, 0x5f, 0xd0, 0xff, 0xfb, 0xff, 0x6f, 0xbd, 0xa8, 0xaa, 0x5a, 0x5d,
   0x00, 0x00, 0x00, 0x00, 0x00, 0x80, 0x4b, 0xb5, 0x0f, 0xf0, 0xff, 0x11,
   0xee, 0xab, 0x3b, 0x00, 0x0c, 0x00, 0xff, 0x60, 0x80, 0x80, 0xff, 0x37,
   0xbd, 0xab, 0xbf, 0xfb, 0x5b, 0x5f, 0xb6, 0xb3, 0xd9, 0x00, 0x00, 0x00,
   0x00, 0x00, 0x00, 0x80, 0x7e, 0x03, 0xb8, 0xff, 0x87, 0xf9, 0x2f, 0x16,
   0x00, 0x18, 0x00, 0xed, 0x4a, 0x84, 0x00, 0xff, 0xf7, 0xbf, 0x7e, 0x9f,
   0xaf, 0xf6, 0xb0, 0x45, 0x57, 0xb7, 0x00, 0x00, 0x00, 0x00, 0x00, 0x00,
   0x00, 0x00, 0x04, 0x5c, 0xfe, 0xef, 0xff, 0x4f, 0x14, 0x00, 0x08, 0x00,
   0xfe, 0x95, 0x46, 0x03, 0x40, 0xbf, 0xff, 0xe9, 0xdf, 0x7d, 0x2d, 0xef,
   0xb4, 0xb7, 0xea, 0x00, 0x00, 0x00, 0x00, 0x00, 0x00, 0x00, 0x00, 0x02,
   0x0c, 0xff, 0x5f, 0x7f, 0x1f, 0x14, 0x0c, 0x1c, 0x00, 0xe8, 0x3d, 0xc6,
   0x2b, 0xd0, 0xf6, 0x7f, 0x5f, 0xbb, 0xff, 0xf9, 0x94, 0xa5, 0x76, 0xff,
   0x00, 0x00, 0x00, 0x00, 0x00, 0x00, 0x00, 0x00, 0x01, 0x84, 0x9f, 0xba,
   0x7f, 0x1d, 0x10, 0x18, 0x08, 0x00, 0xf6, 0x9f, 0xc4, 0xff, 0xff, 0x7f,
   0xfb, 0xb4, 0xd7, 0x6f, 0xb6, 0xca, 0xa8, 0xf5, 0x55, 0x00, 0x00, 0x00,
   0x00, 0x00, 0x00, 0x00, 0x00, 0x96, 0xc6, 0x3f, 0xea, 0xff, 0x1e, 0x12,
   0x38, 0x00, 0x00, 0xd4, 0x3d, 0xcd, 0xff, 0xfd, 0xff, 0xdf, 0xff, 0xbe,
   0xfe, 0xea, 0x8b, 0xa2, 0xda, 0xfe, 0x00, 0x00, 0x00, 0x00, 0x00, 0x00,
   0x00, 0x00, 0x92, 0xc4, 0xef, 0xbf, 0xfe, 0x17, 0x20, 0x68, 0x00, 0x01,
   0xcc, 0x25, 0xca, 0xff, 0xff, 0xef, 0xff, 0x75, 0xff, 0xfb, 0x53, 0x21,
   0xd0, 0x52, 0xab, 0x00, 0x00, 0x00, 0x00, 0x00, 0x00, 0x00, 0x00, 0x84,
   0x05, 0xdf, 0x7f, 0xfa, 0x17, 0x00, 0xa0, 0x81, 0x01, 0x84, 0x0f, 0x9c,
   0xf7, 0xff, 0x7f, 0xb7, 0xef, 0x39, 0xb7, 0x65, 0x02, 0x80, 0xd2, 0xfd,
   0x00, 0x00, 0x00, 0x00, 0x00, 0x00, 0x00, 0x00, 0xa0, 0x16, 0x50, 0x93,
   0xc4, 0x07, 0x20, 0x00, 0x03, 0x03, 0x00, 0x15, 0x2c, 0xfe, 0xff, 0xfd,
   0xff, 0x7d, 0xff, 0xdd, 0x5b, 0x4c, 0x00, 0x50, 0xa7, 0x00, 0x00, 0x00,
   0x00, 0x00, 0x00, 0x00, 0x00, 0x88, 0x4b, 0xac, 0x26, 0x09, 0x0b, 0x60,
   0x00, 0x0e, 0x03, 0x00, 0x1f, 0x7c, 0xfc, 0xff, 0xed, 0xfe, 0xef, 0xeb,
   0xbb, 0x4f, 0x88, 0x88, 0xb6, 0xea, 0x00, 0x00, 0x00, 0x00, 0x00, 0x00,
   0x00, 0x00, 0xe0, 0x08, 0x21, 0x1c, 0x86, 0x03, 0xd0, 0x40, 0x0e, 0x02,
   0x00, 0x3e, 0xde, 0xfd, 0xff, 0xff, 0xfb, 0x77, 0xdd, 0x76, 0x00, 0x22,
   0x40, 0x2b, 0x55, 0x00, 0x00, 0x00, 0x00, 0x00, 0x00, 0x00, 0x00, 0x00,
   0x04, 0x01, 0x51, 0x03, 0x03, 0x00, 0x40, 0x18, 0x80, 0x04, 0x3e, 0xfe,
   0xff, 0xff, 0xff, 0xf7, 0xef, 0xdb, 0xad, 0x5c, 0x20, 0x40, 0x6a, 0xad,
   0x00, 0x00, 0x00, 0x00, 0x00, 0x00, 0x00, 0x00, 0x00, 0x00, 0x00, 0x00,
   0x00, 0x02, 0xa0, 0x81, 0x2c, 0x02, 0x00, 0x7e, 0xfe, 0xff, 0xff, 0xbf,
   0xff, 0xbf, 0x57, 0x47, 0x01, 0x8c, 0xc0, 0xd2, 0xf2, 0x00, 0x00, 0x00,
   0x00, 0x00, 0x00, 0x00, 0x00, 0x00, 0x80, 0x00, 0x00, 0x00, 0x00, 0x20,
   0x00, 0x68, 0x42, 0x03, 0x7e, 0xfe, 0xff, 0xff, 0xfe, 0xdf, 0xfd, 0xef,
   0x2a, 0x54, 0x10, 0x00, 0x95, 0xa6, 0x00, 0x00, 0x00, 0x00, 0x00, 0x00,
   0x00, 0x00, 0x00, 0x00, 0x00, 0x00, 0x00, 0x00, 0x00, 0x80, 0xf8, 0x02,
   0x40, 0x7f, 0xff, 0xff, 0xff, 0xfd, 0xff, 0xbf, 0x7d, 0x53, 0x11, 0x45,
   0x55, 0x42, 0xab, 0x00, 0x00, 0x00, 0x00, 0x00, 0x00, 0x00, 0x00, 0x00,
   0x00, 0x00, 0x00, 0x00, 0x00, 0x61, 0x00, 0xf0, 0x03, 0xfe, 0xff, 0xff,
   0xfe, 0xfa, 0xf9, 0xff, 0x5b, 0xd7, 0x89, 0x52, 0x14, 0x51, 0xab, 0xb4,
   0x00, 0x00, 0x00, 0x00, 0x00, 0x00, 0x00, 0x00, 0x00, 0x00, 0x00, 0x00,
   0x00, 0x00, 0xc0, 0x00, 0xf0, 0x07, 0xfe, 0xff, 0xff, 0xf7, 0xff, 0xf7,
   0xfb, 0xfe, 0x7e, 0x11, 0x22, 0x4d, 0x45, 0xb6, 0xaa, 0x00, 0x00, 0x00,
   0x00, 0x00, 0x00, 0x00, 0x00, 0x00, 0x00, 0x00, 0x00, 0x00, 0x00, 0x00,
   0x20, 0xe0, 0x03, 0xff, 0xff, 0xff, 0x5f, 0xd3, 0xb7, 0xff, 0xdb, 0xda,
   0x42, 0x05, 0x11, 0x40, 0xa2, 0x55, 0x00, 0x00, 0x00, 0x00, 0x00, 0x00,
   0x00, 0x00, 0x00, 0x00, 0x00, 0x00, 0x00, 0x00, 0x01, 0x00, 0xc0, 0x05,
   0xfe, 0x5f, 0xff, 0xb6, 0xef, 0xaf, 0x6f, 0xfd, 0xf7, 0x0a, 0x00, 0x05,
   0x10, 0x58, 0xaa, 0x00, 0x00, 0x00, 0x00, 0x00, 0x00, 0x00, 0x00, 0x00,
   0x00, 0x00, 0x00, 0x00, 0x00, 0x00, 0x00, 0x80, 0x07, 0xfe, 0x7f, 0xf7,
   0xf6, 0xea, 0xed, 0xfd, 0xab, 0x5e, 0x13, 0x09, 0x94, 0x02, 0xb1, 0xd6,
   0x00, 0x00, 0x00, 0x00, 0x00, 0x00, 0x00, 0x00, 0x00, 0x00, 0x00, 0x00,
   0x00, 0x00, 0x00, 0x00, 0x04, 0x0b, 0xfc, 0xdb, 0xf6, 0xab, 0xbf, 0xb7,
   0xdf, 0x7f, 0x55, 0x15, 0x60, 0x01, 0x50, 0x6c, 0x02, 0x00, 0x00, 0x00,
   0x00, 0x00, 0x00, 0x00, 0x00, 0x00, 0x00, 0x00, 0x00, 0x00, 0x00, 0x00,
   0x00, 0x00, 0x3e, 0x78, 0x5f, 0xc9, 0xff, 0x72, 0x5f, 0xfe, 0x6f, 0x6e,
   0x6b, 0x45, 0x08, 0x42, 0xd8, 0x56, 0x00, 0x00, 0x00, 0x00, 0x00, 0x00,
   0x00, 0x00, 0x00, 0x00, 0x00, 0x00, 0x00, 0x00, 0x00, 0x00, 0xa0, 0x7a,
   0xf8, 0x5d, 0xb5, 0xef, 0xc7, 0x5f, 0x75, 0xbf, 0xdb, 0x5c, 0x18, 0x80,
   0x00, 0xf0, 0x0a, 0x00, 0x00, 0x00, 0x00, 0x00, 0x00, 0x00, 0x00, 0x00,
   0x00, 0x00, 0x00, 0x00, 0x00, 0x00, 0x00, 0x00, 0xff, 0xf8, 0xf3, 0xae,
   0x7a, 0xcf, 0xbf, 0xfd, 0x7f, 0xbb, 0x5a, 0x01, 0x12, 0x22, 0xd2, 0x6d,
   0x00, 0x00, 0x00, 0x00, 0x00, 0x00, 0x00, 0x00, 0x00, 0x00, 0x00, 0x00,
   0x00, 0x00, 0x00, 0x00, 0x00, 0xfd, 0xb1, 0x2e, 0x69, 0x95, 0x9e, 0x73,
   0xf7, 0xf7, 0xaf, 0x36, 0x42, 0x00, 0x88, 0x56, 0x2b, 0x00, 0x00, 0x00,
   0x00, 0x00, 0x00, 0x00, 0x00, 0x00, 0x00, 0x00, 0x00, 0x00, 0x00, 0x00,
   0x00, 0x00, 0xfb, 0xfb, 0xeb, 0x3f, 0x35, 0x3e, 0x4e, 0x55, 0xff, 0xff,
   0x5a, 0x0a, 0xa5, 0xb4, 0x5a, 0x53, 0x00, 0x00, 0x00, 0x00, 0x00, 0x00,
   0x00, 0x00, 0x00, 0x00, 0x00, 0x00, 0x00, 0x00, 0x00, 0x00, 0x00, 0xee,
   0xa3, 0x2c, 0x5d, 0x41, 0x7e, 0xbd, 0xfa, 0x7f, 0xfd, 0xf6, 0x25, 0x40,
   0xd5, 0xab, 0x0a, 0x00, 0x00, 0x00, 0x00, 0x00, 0x00, 0x00, 0x00, 0x00,
   0x00, 0x00, 0x00, 0x00, 0x00, 0x00, 0x00, 0x00, 0xac, 0x6f, 0x4d, 0xfa,
   0xd6, 0x7c, 0x51, 0xeb, 0xdb, 0xef, 0xb5, 0x56, 0x15, 0x59, 0x56, 0x41,
   0x00, 0x00, 0x00, 0x00, 0x00, 0x00, 0x00, 0x00, 0x00, 0x00, 0x00, 0x00,
   0x00, 0x00, 0x00, 0x00, 0x00, 0xda, 0xb9, 0x45, 0x7d, 0xe9, 0xd5, 0x6d,
   0xb6, 0x7e, 0xaa, 0xdd, 0xfb, 0xaa, 0x80, 0x52, 0xaa, 0x00, 0x00, 0x00,
   0x00, 0x00, 0x00, 0x00, 0x00, 0x00, 0x00, 0x00, 0x00, 0x00, 0x00, 0x00,
   0x00, 0x00, 0xd4, 0x2d, 0x1d, 0xf9, 0xe3, 0xd3, 0xdd, 0xe4, 0xef, 0xbf,
   0x7d, 0x57, 0x2a, 0x10, 0x54, 0x11, 0x00, 0x00, 0x00, 0x00, 0x00, 0x00,
   0x00, 0x00, 0x00, 0x00, 0x00, 0x00, 0x00, 0x00, 0x00, 0x00, 0x00, 0xfc,
   0xf7, 0x2b, 0x7c, 0xef, 0xdf, 0xef, 0x58, 0x7e, 0x7d, 0xc6, 0xda, 0x05,
   0x00, 0x40, 0x01, 0x00, 0x00, 0x00, 0x00, 0x00, 0x00, 0x00, 0x00, 0x00,
   0x00, 0x00, 0x00, 0x00, 0x00, 0x00, 0x00, 0x00, 0xf8, 0x4e, 0x27, 0x6b,
   0xff, 0xb6, 0xf9, 0xe9, 0xed, 0xd6, 0x1e, 0x2a, 0x1a, 0x40, 0x10, 0x42 };
