#define pnj16_width 264
#define pnj16_height 176
static unsigned char pnj16_bits[] = {
   0x00, 0x00, 0x00, 0x00, 0x00, 0x00, 0x00, 0x00, 0x00, 0x00, 0x00, 0x00,
   0x00, 0x00, 0x00, 0x00, 0x00, 0x00, 0x00, 0x00, 0x00, 0x00, 0x00, 0x00,
   0x00, 0x00, 0x00, 0x00, 0x00, 0x00, 0x00, 0x00, 0x00, 0x00, 0x00, 0x00,
   0x00, 0x00, 0x00, 0x00, 0x00, 0x00, 0x00, 0x00, 0x00, 0x00, 0x00, 0x00,
   0x00, 0x00, 0x00, 0x00, 0x00, 0x00, 0x00, 0x00, 0x00, 0x00, 0x00, 0x00,
   0x00, 0x00, 0x00, 0x00, 0x00, 0x00, 0x00, 0x00, 0x00, 0x00, 0x00, 0x00,
   0x00, 0x00, 0x00, 0x00, 0x00, 0x00, 0x00, 0x00, 0x00, 0x00, 0x00, 0x00,
   0x00, 0x00, 0x00, 0x00, 0x00, 0x00, 0x00, 0x00, 0x00, 0x00, 0x00, 0x00,
   0x00, 0x00, 0x00, 0x00, 0x00, 0x00, 0x00, 0x00, 0x00, 0x00, 0x00, 0x00,
   0x00, 0x00, 0x00, 0x00, 0x00, 0x00, 0x00, 0x00, 0x00, 0x00, 0x00, 0x00,
   0x00, 0x00, 0x00, 0x00, 0x00, 0x00, 0x00, 0x00, 0x00, 0x00, 0x00, 0x00,
   0x00, 0x00, 0x00, 0x00, 0x00, 0x00, 0x00, 0x00, 0x00, 0x00, 0x00, 0x00,
   0x00, 0x00, 0x00, 0x00, 0x00, 0x00, 0x00, 0x00, 0x00, 0x00, 0x00, 0x00,
   0x00, 0x00, 0x00, 0x00, 0x00, 0x00, 0x00, 0x00, 0x00, 0x00, 0x00, 0x00,
   0x00, 0x00, 0x00, 0x00, 0x00, 0x00, 0x00, 0x00, 0x00, 0x00, 0x00, 0x00,
   0x00, 0x00, 0x00, 0x00, 0x00, 0x00, 0x00, 0x00, 0x00, 0x00, 0x00, 0x00,
   0x00, 0x00, 0x00, 0x00, 0x00, 0x00, 0x00, 0x00, 0x00, 0x00, 0x00, 0x00,
   0x00, 0x00, 0x00, 0x00, 0x00, 0x00, 0x00, 0x00, 0x00, 0x00, 0x00, 0x00,
   0x00, 0x00, 0x00, 0x00, 0x00, 0x00, 0x00, 0x00, 0x00, 0x00, 0x00, 0x00,
   0x00, 0x00, 0x00, 0x00, 0x00, 0x00, 0x00, 0x00, 0x00, 0x00, 0x00, 0x00,
   0x00, 0x00, 0x00, 0x00, 0x00, 0x00, 0x00, 0x00, 0x00, 0x00, 0x00, 0x00,
   0x00, 0x00, 0x00, 0x00, 0x00, 0x00, 0x00, 0x00, 0x00, 0x00, 0x00, 0x00,
   0x00, 0x00, 0x00, 0x00, 0x00, 0x00, 0x00, 0x00, 0x00, 0x00, 0x00, 0x00,
   0x00, 0x00, 0x00, 0x00, 0x00, 0x00, 0x00, 0x00, 0x00, 0x00, 0x00, 0x00,
   0x00, 0x00, 0x00, 0x00, 0x00, 0x00, 0x00, 0x00, 0x00, 0x00, 0x00, 0x00,
   0x00, 0x00, 0x00, 0x00, 0x00, 0x00, 0x00, 0x00, 0x00, 0x00, 0x00, 0x00,
   0x80, 0x00, 0x00, 0x00, 0x00, 0x00, 0x00, 0x00, 0x00, 0x00, 0x00, 0x00,
   0x00, 0x00, 0x00, 0x00, 0x00, 0x00, 0x00, 0x00, 0x00, 0x00, 0x00, 0x00,
   0x00, 0x00, 0x00, 0x00, 0x00, 0x00, 0x00, 0x00, 0x00, 0x00, 0x00, 0x00,
   0x00, 0x00, 0x00, 0x00, 0x00, 0x00, 0x00, 0x00, 0x00, 0x00, 0x00, 0x00,
   0x00, 0x00, 0x80, 0x00, 0x00, 0x00, 0x00, 0x00, 0x00, 0x00, 0x00, 0x00,
   0x00, 0x00, 0x00, 0x00, 0x00, 0x00, 0x00, 0x02, 0x00, 0x00, 0x00, 0x00,
   0x00, 0x00, 0x00, 0x00, 0x00, 0x00, 0x00, 0x00, 0x00, 0x00, 0x00, 0x80,
   0x00, 0x00, 0x00, 0x00, 0x00, 0x00, 0x00, 0x00, 0x00, 0x00, 0x00, 0x00,
   0x00, 0x00, 0x00, 0x40, 0x00, 0x00, 0x00, 0x00, 0x00, 0x00, 0x00, 0x00,
   0x00, 0x00, 0x00, 0x00, 0x00, 0x00, 0x00, 0x00, 0xc0, 0x00, 0x00, 0x00,
   0x00, 0x00, 0x00, 0x00, 0x00, 0x00, 0x00, 0x00, 0x00, 0x00, 0x00, 0x00,
   0x80, 0x04, 0x00, 0x00, 0x00, 0x00, 0x00, 0x00, 0x00, 0x00, 0x00, 0x00,
   0x00, 0x00, 0x00, 0x00, 0x00, 0xc0, 0x00, 0x00, 0x00, 0x00, 0x00, 0x00,
   0x00, 0x00, 0x00, 0x00, 0x00, 0x00, 0x00, 0x00, 0x00, 0x00, 0x00, 0x00,
   0x00, 0x00, 0x00, 0x00, 0x00, 0x00, 0x00, 0x00, 0x00, 0x00, 0x00, 0x00,
   0x00, 0x00, 0xe0, 0x00, 0x00, 0x00, 0x00, 0x00, 0x00, 0x00, 0x00, 0x00,
   0x00, 0x00, 0x00, 0x00, 0x00, 0x00, 0x00, 0x05, 0x00, 0x00, 0x00, 0x00,
   0x00, 0x00, 0x00, 0x00, 0x00, 0x00, 0x00, 0x00, 0x00, 0x00, 0x00, 0xc0,
   0x00, 0x00, 0x00, 0x00, 0x00, 0x00, 0x00, 0x00, 0x00, 0x00, 0x00, 0x00,
   0x00, 0x00, 0x00, 0x00, 0x10, 0x00, 0x00, 0x00, 0x00, 0x00, 0x00, 0x00,
   0x00, 0x00, 0x00, 0x00, 0x00, 0x00, 0x00, 0x00, 0xf0, 0x00, 0x00, 0x00,
   0x00, 0x00, 0x00, 0x00, 0x00, 0x00, 0x00, 0x00, 0x00, 0x00, 0x00, 0x00,
   0x00, 0x00, 0x00, 0x00, 0x00, 0x00, 0x00, 0x00, 0x00, 0x00, 0x00, 0x00,
   0x00, 0x00, 0x00, 0x00, 0x00, 0xf8, 0x00, 0x00, 0x00, 0x00, 0x00, 0x00,
   0x00, 0x00, 0x00, 0x00, 0x00, 0x00, 0x00, 0x00, 0x00, 0x80, 0x04, 0x00,
   0x00, 0x00, 0x00, 0x00, 0x00, 0x00, 0x00, 0x00, 0x00, 0x00, 0x00, 0x00,
   0x00, 0x00, 0xb8, 0x00, 0x00, 0x00, 0x00, 0x00, 0x00, 0x00, 0x00, 0x00,
   0x00, 0x00, 0x00, 0x00, 0x00, 0x00, 0x00, 0x00, 0x00, 0x00, 0x00, 0x00,
   0x00, 0x00, 0x00, 0x00, 0x00, 0x00, 0x00, 0x00, 0x00, 0x00, 0x00, 0xbc,
   0x00, 0x00, 0x00, 0x00, 0x00, 0x00, 0x00, 0x00, 0x00, 0x00, 0x00, 0x00,
   0x00, 0x00, 0x00, 0x80, 0x08, 0x00, 0x00, 0x00, 0x00, 0x00, 0x00, 0x00,
   0x00, 0x00, 0x00, 0x00, 0x00, 0x00, 0x00, 0x00, 0x56, 0x00, 0x00, 0x00,
   0x00, 0x00, 0x00, 0x00, 0x00, 0x00, 0x00, 0x00, 0x00, 0x00, 0x00, 0x00,
   0x00, 0x01, 0x00, 0x00, 0x00, 0x00, 0x00, 0x00, 0x00, 0x00, 0x00, 0x00,
   0x00, 0x00, 0x00, 0x00, 0x80, 0xbe, 0x00, 0x00, 0x00, 0x00, 0x00, 0x00,
   0x00, 0x00, 0x00, 0x00, 0x00, 0x00, 0x00, 0x00, 0x00, 0x00, 0x08, 0x00,
   0x00, 0x00, 0x00, 0x00, 0x00, 0x00, 0x00, 0x00, 0x00, 0x00, 0x00, 0x00,
   0x00, 0x00, 0x6d, 0x00, 0x00, 0x00, 0x00, 0x00, 0x00, 0x00, 0x00, 0x00,
   0x00, 0x00, 0x00, 0x00, 0x00, 0x00, 0x00, 0x01, 0x00, 0x00, 0x00, 0x00,
   0x00, 0x00, 0x00, 0x00, 0x00, 0x00, 0x00, 0x00, 0x00, 0x00, 0x40, 0xfd,
   0x00, 0x00, 0x00, 0x00, 0x00, 0x00, 0x00, 0x00, 0x00, 0x00, 0x00, 0x00,
   0x00, 0x00, 0x00, 0x00, 0x00, 0x00, 0x00, 0x00, 0x00, 0x00, 0x00, 0x00,
   0x00, 0x00, 0x00, 0x00, 0x00, 0x00, 0x00, 0xa8, 0xfc, 0x00, 0x00, 0x00,
   0x00, 0x00, 0x00, 0x00, 0x00, 0x00, 0x00, 0x00, 0x00, 0x00, 0x00, 0x00,
   0x80, 0x0a, 0x00, 0x00, 0x00, 0x00, 0x00, 0x00, 0x00, 0x00, 0x00, 0x00,
   0x00, 0x00, 0x00, 0x00, 0x8a, 0xd9, 0x00, 0x00, 0x00, 0x00, 0x00, 0x00,
   0x00, 0x00, 0x00, 0x00, 0x00, 0x00, 0x00, 0x00, 0x00, 0x00, 0x00, 0x00,
   0x00, 0x00, 0x00, 0x00, 0x00, 0x00, 0x00, 0x00, 0x00, 0x00, 0x00, 0x00,
   0x00, 0x57, 0xfe, 0x00, 0x00, 0x00, 0x00, 0x00, 0x00, 0x00, 0x00, 0x00,
   0x00, 0x00, 0x00, 0x00, 0x00, 0x00, 0x00, 0x00, 0x00, 0x00, 0x00, 0x00,
   0x00, 0x00, 0x00, 0x00, 0x00, 0x00, 0x00, 0x00, 0x00, 0x40, 0xaf, 0xfc,
   0x00, 0x00, 0x00, 0x00, 0x00, 0x00, 0x00, 0x00, 0x00, 0x00, 0x00, 0x00,
   0x00, 0x00, 0x00, 0x00, 0x02, 0x00, 0x00, 0x00, 0x00, 0x00, 0x00, 0x00,
   0x00, 0x00, 0x00, 0x00, 0x00, 0x00, 0x80, 0xab, 0xad, 0x00, 0x00, 0x00,
   0x00, 0x00, 0x00, 0x00, 0x00, 0x00, 0x00, 0x00, 0x00, 0x00, 0x00, 0x00,
   0x00, 0x04, 0x00, 0x00, 0x00, 0x00, 0x00, 0x00, 0x00, 0x00, 0x00, 0x00,
   0x00, 0x00, 0x00, 0xc0, 0xab, 0xfc, 0x00, 0x00, 0x00, 0x00, 0x00, 0x00,
   0x00, 0x00, 0x00, 0x00, 0x00, 0x00, 0x00, 0x00, 0x00, 0x00, 0x00, 0x00,
   0x00, 0x00, 0x00, 0x00, 0x00, 0x00, 0x00, 0x00, 0x00, 0x00, 0x00, 0x00,
   0xc0, 0xeb, 0xec, 0x00, 0x00, 0x00, 0x00, 0x00, 0x00, 0x00, 0x00, 0x00,
   0x00, 0x00, 0x00, 0x00, 0x00, 0x00, 0x00, 0x24, 0x00, 0x00, 0x00, 0x00,
   0x00, 0x00, 0x00, 0x00, 0x00, 0x00, 0x00, 0x00, 0x00, 0xe0, 0x8b, 0xf9,
   0x00, 0x00, 0x00, 0x00, 0x00, 0x00, 0x00, 0x00, 0x00, 0x00, 0x40, 0x15,
   0x00, 0x00, 0x00, 0x00, 0x00, 0x00, 0x00, 0x00, 0x00, 0x00, 0x00, 0x00,
   0x00, 0x00, 0x00, 0x00, 0x00, 0x00, 0xe0, 0xda, 0xec, 0x00, 0x00, 0x00,
   0x00, 0x00, 0x00, 0x00, 0x00, 0x00, 0x00, 0xfe, 0xff, 0x01, 0x00, 0x00,
   0x00, 0x80, 0x00, 0x00, 0x00, 0x00, 0x00, 0x00, 0x00, 0x00, 0x00, 0x00,
   0x00, 0x00, 0x00, 0xf0, 0x95, 0x5d, 0x00, 0x00, 0x00, 0x00, 0x00, 0x00,
   0x00, 0x00, 0x00, 0x40, 0xff, 0xff, 0x1f, 0x00, 0x00, 0x00, 0x00, 0x00,
   0x00, 0x00, 0x00, 0x00, 0x00, 0x00, 0x00, 0x00, 0x00, 0x00, 0x00, 0x00,
   0xf8, 0x55, 0x5a, 0x00, 0x00, 0x00, 0x00, 0x00, 0x00, 0x00, 0x00, 0x00,
   0xe0, 0xff, 0xff, 0x3f, 0x00, 0x00, 0x00, 0x00, 0x00, 0x00, 0x40, 0x5f,
   0x00, 0x00, 0x00, 0x00, 0x00, 0x00, 0x00, 0x00, 0x00, 0xfc, 0xd5, 0xfc,
   0x00, 0x00, 0x00, 0x00, 0x00, 0x00, 0x00, 0x00, 0x00, 0xf0, 0xff, 0xff,
   0xff, 0x15, 0x00, 0x00, 0x00, 0x24, 0x40, 0xff, 0xfd, 0x01, 0x00, 0x00,
   0x00, 0x00, 0x00, 0x00, 0x00, 0x00, 0xf8, 0xaa, 0xf5, 0x00, 0x00, 0x00,
   0x00, 0x00, 0x00, 0x00, 0x00, 0x00, 0xf0, 0xff, 0xff, 0xff, 0xff, 0x01,
   0x00, 0xfe, 0xff, 0xfe, 0xb7, 0x5b, 0x07, 0x00, 0x00, 0x00, 0x00, 0x00,
   0x00, 0x00, 0x00, 0xfa, 0x92, 0xfc, 0x00, 0x00, 0x00, 0x00, 0x00, 0x00,
   0x00, 0x00, 0x00, 0xe0, 0xff, 0xff, 0xff, 0xbf, 0x03, 0xfa, 0xff, 0xff,
   0x7f, 0xfd, 0xef, 0x3e, 0x00, 0x00, 0x00, 0x00, 0x00, 0x00, 0x00, 0x00,
   0x7d, 0x55, 0x5d, 0x00, 0x00, 0x00, 0x00, 0x00, 0x00, 0x00, 0x00, 0x00,
   0xe0, 0xff, 0xff, 0x5f, 0xf5, 0xe6, 0xeb, 0xff, 0xff, 0xff, 0xff, 0xff,
   0xff, 0x00, 0x00, 0x00, 0x00, 0x00, 0x00, 0x00, 0x40, 0x7d, 0x49, 0xb9,
   0x00, 0x00, 0x00, 0x00, 0x00, 0x00, 0x00, 0x00, 0x00, 0xc0, 0xff, 0xff,
   0x6a, 0x55, 0xbb, 0x56, 0xf5, 0xff, 0xff, 0xff, 0x6f, 0xfb, 0x0b, 0x00,
   0x00, 0x00, 0x00, 0x00, 0x00, 0x50, 0xbd, 0xa8, 0x3d, 0x00, 0x00, 0x00,
   0x00, 0x00, 0x00, 0x00, 0x00, 0x00, 0x80, 0xff, 0xab, 0xba, 0x6d, 0xad,
   0xba, 0xfd, 0xff, 0xff, 0xff, 0xff, 0xef, 0x1f, 0x00, 0x00, 0x00, 0x00,
   0x00, 0x00, 0xa0, 0xff, 0x22, 0xb9, 0x00, 0x00, 0x00, 0x00, 0x00, 0x00,
   0x00, 0x00, 0x00, 0x00, 0x5f, 0xdf, 0xeb, 0xb6, 0xb5, 0xeb, 0xfb, 0xff,
   0xff, 0xff, 0xff, 0xff, 0x7f, 0x00, 0x00, 0x00, 0x00, 0x00, 0x00, 0xc0,
   0xbf, 0x94, 0x5d, 0x00, 0x00, 0x00, 0x00, 0x00, 0x00, 0x00, 0x00, 0x00,
   0x80, 0xf5, 0xbf, 0xde, 0x5d, 0x6f, 0x5d, 0xff, 0xff, 0xff, 0xff, 0xff,
   0xff, 0xff, 0x01, 0x00, 0x00, 0x00, 0x00, 0x00, 0x54, 0xff, 0x24, 0xb9,
   0x00, 0x00, 0x00, 0x00, 0x00, 0x00, 0x00, 0x00, 0x00, 0xb4, 0xff, 0xfd,
   0x6b, 0xeb, 0xf2, 0xff, 0xfd, 0xff, 0xff, 0xff, 0xff, 0xff, 0xff, 0x0f,
   0x00, 0x00, 0x00, 0xa0, 0x6e, 0xff, 0xff, 0x7f, 0x5d, 0x00, 0x00, 0x00,
   0x00, 0x00, 0x00, 0x00, 0x00, 0x10, 0xf7, 0xff, 0xff, 0xff, 0xdf, 0xaf,
   0xf6, 0xf7, 0xff, 0xff, 0xff, 0xff, 0xff, 0xff, 0xff, 0x01, 0x00, 0x80,
   0xd4, 0xed, 0x5a, 0xff, 0xff, 0x5b, 0x00, 0x00, 0x00, 0x00, 0x00, 0x00,
   0x80, 0xaa, 0xf6, 0xfd, 0xff, 0xff, 0xd7, 0x7e, 0xfa, 0xdf, 0x5e, 0xff,
   0xff, 0xff, 0xff, 0xff, 0xff, 0xff, 0x5e, 0x02, 0xf4, 0x7b, 0xdd, 0x7b,
   0xff, 0xff, 0x1c, 0x00, 0x00, 0x00, 0x00, 0x00, 0x00, 0x7d, 0xb7, 0xad,
   0xff, 0xbf, 0xff, 0xfe, 0xd7, 0xf7, 0xff, 0xfb, 0xff, 0xff, 0xff, 0xff,
   0xff, 0xff, 0xff, 0xff, 0xfe, 0xff, 0xd6, 0x7b, 0xb7, 0x5f, 0xfa, 0x3b,
   0x00, 0x00, 0x00, 0x00, 0x00, 0xe8, 0xd5, 0x5a, 0xf7, 0xff, 0x7f, 0xfb,
   0xbb, 0x5d, 0xbf, 0xdd, 0xfe, 0xff, 0xff, 0xff, 0xff, 0xff, 0xff, 0xff,
   0xdb, 0xdb, 0xdf, 0x7a, 0xdf, 0xdb, 0xbf, 0xff, 0x15, 0x00, 0x00, 0x00,
   0x00, 0x00, 0x5f, 0xdb, 0xf6, 0xfe, 0xff, 0xef, 0xbf, 0xf7, 0x75, 0xff,
   0xfb, 0xbf, 0xfb, 0xff, 0xff, 0xff, 0xff, 0xff, 0xff, 0xbf, 0x7f, 0xf5,
   0xea, 0x7b, 0xff, 0xdf, 0xae, 0x1d, 0x00, 0x00, 0x00, 0x00, 0xe0, 0xb2,
   0xee, 0xfd, 0xff, 0xff, 0xfe, 0xee, 0xbe, 0xde, 0x5f, 0xef, 0xfd, 0xbf,
   0xff, 0xff, 0xff, 0xbf, 0xff, 0xff, 0xf7, 0xf6, 0xff, 0x56, 0xff, 0xdd,
   0xff, 0xfb, 0x2a, 0x00, 0x00, 0x00, 0x00, 0xdc, 0xef, 0xdf, 0xff, 0xff,
   0xff, 0xde, 0xfd, 0xf5, 0xfb, 0xfa, 0xbd, 0xf7, 0xf7, 0xff, 0xff, 0xff,
   0x77, 0xcd, 0xff, 0xef, 0xaf, 0xd6, 0x6a, 0x5a, 0xb7, 0xbf, 0x85, 0x1f,
   0x00, 0x00, 0x00, 0x80, 0xff, 0xff, 0xff, 0xff, 0xff, 0xff, 0x7f, 0xef,
   0xdf, 0xbe, 0xdf, 0xef, 0xff, 0xfd, 0xff, 0xff, 0xff, 0xbf, 0xa7, 0xff,
   0x5f, 0xfd, 0xfd, 0x57, 0xd5, 0xed, 0xff, 0xf2, 0x11, 0x00, 0x00, 0x00,
   0xa0, 0xff, 0xff, 0xff, 0xff, 0xff, 0xff, 0xaf, 0xbf, 0xbe, 0xf7, 0x7b,
   0x5d, 0xdf, 0xf7, 0xff, 0xff, 0xff, 0x7f, 0xad, 0xff, 0xdf, 0xb5, 0xaf,
   0xca, 0x34, 0xad, 0x2f, 0x7a, 0x53, 0x00, 0x00, 0x00, 0xf8, 0xff, 0xff,
   0xff, 0xff, 0xff, 0xff, 0xff, 0xef, 0xf7, 0x6e, 0xef, 0xed, 0xfd, 0xff,
   0xff, 0xff, 0xff, 0xdf, 0x56, 0xff, 0xbf, 0x6f, 0x7b, 0x5b, 0xd5, 0x7a,
   0x95, 0xaf, 0x38, 0x00, 0x00, 0x00, 0xfe, 0xff, 0xff, 0xff, 0xff, 0xff,
   0xff, 0x7f, 0xdf, 0xbe, 0xff, 0xbe, 0xdd, 0xff, 0xff, 0xff, 0xff, 0xff,
   0xff, 0x2f, 0xff, 0x3f, 0xed, 0xed, 0x53, 0x59, 0xc5, 0x2f, 0xbd, 0xa2,
   0x00, 0x00, 0x00, 0xff, 0xff, 0xff, 0xff, 0xff, 0xdb, 0xfe, 0xff, 0xff,
   0xf7, 0xfa, 0xed, 0x77, 0xfd, 0xf5, 0xfe, 0xff, 0xff, 0xff, 0xdf, 0xfe,
   0xff, 0xbb, 0xaf, 0x56, 0x72, 0x17, 0xfd, 0x83, 0x70, 0x00, 0x00, 0xc0,
   0xff, 0xff, 0xff, 0xff, 0xff, 0xdf, 0xff, 0xff, 0xff, 0xef, 0xdf, 0x5f,
   0xee, 0xfb, 0xff, 0xfd, 0xfb, 0xff, 0xff, 0x97, 0xf8, 0xbf, 0xea, 0xda,
   0x56, 0xd5, 0x56, 0xac, 0x92, 0xc6, 0x00, 0x00, 0xe0, 0xff, 0xb7, 0xff,
   0x5b, 0xfb, 0xff, 0xff, 0xef, 0xff, 0xfe, 0x7b, 0xb5, 0xdb, 0xfe, 0x7f,
   0xfd, 0xff, 0xff, 0xff, 0x7f, 0xfa, 0xff, 0x5f, 0xf7, 0x55, 0xa8, 0x9b,
   0x54, 0x94, 0xc8, 0x00, 0x00, 0xf8, 0x7f, 0xff, 0x5b, 0xff, 0xe2, 0xff,
   0xfe, 0xff, 0xdf, 0xab, 0xff, 0xed, 0xee, 0xff, 0xff, 0xfb, 0xf7, 0xff,
   0xff, 0xdb, 0xf2, 0xff, 0x52, 0x5d, 0xbb, 0x6b, 0xab, 0x14, 0xa4, 0x92,
   0x00, 0x00, 0xfc, 0xff, 0xff, 0xfe, 0xd5, 0xd5, 0xef, 0xff, 0xff, 0x7f,
   0xfd, 0xaf, 0xd6, 0xbb, 0xff, 0xff, 0xf6, 0xff, 0xff, 0xff, 0x7f, 0xc1,
   0xff, 0xbb, 0xea, 0xb6, 0xd0, 0x4f, 0xb0, 0x4a, 0xd5, 0x00, 0x00, 0xfc,
   0xff, 0xdb, 0x55, 0x6f, 0xed, 0xdf, 0xff, 0xff, 0xfe, 0xd5, 0xdf, 0xb6,
   0x6e, 0xff, 0xff, 0xef, 0xff, 0xff, 0xff, 0xef, 0x83, 0xff, 0xe7, 0xaa,
   0x6d, 0xa3, 0x9a, 0x52, 0x52, 0x92, 0x00, 0x00, 0xff, 0xb7, 0xff, 0xff,
   0xd5, 0xc6, 0xff, 0xef, 0xff, 0xbf, 0xfa, 0xff, 0xef, 0xbb, 0xff, 0xef,
   0xf3, 0xff, 0xff, 0xff, 0xff, 0x97, 0xff, 0xad, 0xad, 0xd6, 0xa8, 0xb7,
   0xaa, 0xaa, 0x29, 0x00, 0x80, 0xff, 0xff, 0xb7, 0x6a, 0xb7, 0x5d, 0xff,
   0xff, 0xdf, 0xff, 0xf5, 0xff, 0xac, 0xf6, 0xff, 0xdf, 0xef, 0xff, 0xff,
   0xff, 0xf7, 0xc7, 0xff, 0x5f, 0xb5, 0x55, 0x43, 0x5d, 0x52, 0x8b, 0xa3,
   0x00, 0xc0, 0xff, 0x7f, 0xff, 0xff, 0x4a, 0xc1, 0xff, 0xff, 0xff, 0x36,
   0xf5, 0xff, 0xd7, 0xae, 0xff, 0x7f, 0xeb, 0xff, 0xbf, 0x7f, 0xef, 0xdf,
   0x7f, 0xad, 0x76, 0xed, 0xea, 0xb6, 0xb4, 0x6a, 0x2d, 0x00, 0xc0, 0x7f,
   0xff, 0xb5, 0xda, 0x7a, 0xcb, 0xff, 0xff, 0x5d, 0xff, 0xfe, 0xde, 0xdd,
   0xf5, 0xff, 0x87, 0xcf, 0xff, 0xbf, 0xff, 0xff, 0xff, 0xff, 0x7f, 0x4d,
   0x95, 0x82, 0x6e, 0xc9, 0x54, 0xa9, 0x00, 0xe0, 0xee, 0xf7, 0xfb, 0xf7,
   0xa5, 0xca, 0xff, 0xff, 0xf9, 0x55, 0xfb, 0xbf, 0x6b, 0xcf, 0xf7, 0xdf,
   0xda, 0xff, 0xff, 0x7f, 0xeb, 0xef, 0xff, 0x6a, 0xb5, 0x6c, 0x47, 0xbb,
   0xaa, 0x4a, 0x4a, 0x00, 0xf0, 0xff, 0xb7, 0x57, 0x4d, 0x55, 0x83, 0xfe,
   0xff, 0x09, 0xbf, 0xbf, 0x7f, 0xaf, 0xfa, 0xff, 0xc7, 0xee, 0xff, 0x7f,
   0xdf, 0xff, 0xef, 0xff, 0xcf, 0xa5, 0x49, 0x4d, 0xeb, 0x50, 0xab, 0xa8,
   0x00, 0xf8, 0xbf, 0xff, 0xfe, 0x7b, 0xa9, 0x0a, 0xfe, 0xff, 0xa3, 0xed,
   0x7e, 0x7f, 0xf5, 0xea, 0xff, 0xa7, 0xba, 0xff, 0xef, 0x7f, 0xff, 0xff,
   0xff, 0x9f, 0x5d, 0xaa, 0x26, 0x5d, 0x45, 0x50, 0x23, 0x00, 0x78, 0xff,
   0xee, 0x5d, 0xcb, 0x0b, 0x55, 0xfc, 0xff, 0xaf, 0xde, 0x5f, 0xff, 0x56,
   0xdf, 0xff, 0x87, 0xf7, 0xff, 0xbd, 0xdf, 0xff, 0xff, 0xff, 0x1f, 0x6b,
   0x55, 0x55, 0xd5, 0xa9, 0x05, 0xaa, 0x00, 0xfc, 0xed, 0xff, 0xf7, 0xb6,
   0x54, 0xaa, 0xf8, 0xff, 0x57, 0xf7, 0xbf, 0xff, 0xdb, 0xf5, 0xff, 0x47,
   0xad, 0xaf, 0x72, 0xf5, 0xff, 0xff, 0xff, 0x1f, 0x16, 0x55, 0xd5, 0x5e,
   0xd5, 0x6a, 0x55, 0x00, 0xfe, 0xff, 0x5f, 0xdf, 0xd6, 0x2b, 0x02, 0xf9,
   0xff, 0x5f, 0xee, 0xff, 0xff, 0xb6, 0xc6, 0xff, 0x0f, 0xf7, 0xbf, 0xed,
   0xff, 0xff, 0xfb, 0xff, 0x3f, 0x04, 0x55, 0x04, 0xdb, 0xa2, 0x15, 0x95,
   0x00, 0xde, 0xbf, 0xfd, 0xfb, 0xd7, 0x54, 0x14, 0xf8, 0xff, 0x9f, 0xfb,
   0xff, 0xff, 0xed, 0x93, 0xff, 0x17, 0x5e, 0x5f, 0xbb, 0xff, 0xdf, 0xfe,
   0xff, 0x77, 0x42, 0x81, 0xc0, 0xaa, 0xad, 0x52, 0x52, 0x00, 0xfd, 0xf6,
   0xf7, 0xab, 0xbe, 0x97, 0x00, 0xf8, 0xff, 0xbf, 0xfb, 0xef, 0xff, 0x5b,
   0x55, 0xff, 0x2f, 0xda, 0x3f, 0x77, 0xff, 0x97, 0xf0, 0xff, 0x7f, 0x01,
   0x2f, 0x10, 0xb5, 0x51, 0x95, 0x94, 0x00, 0xb7, 0xff, 0x5f, 0xbf, 0xd5,
   0x08, 0x2a, 0xe0, 0xff, 0xff, 0xfe, 0xdb, 0xff, 0xea, 0x12, 0xff, 0x8f,
   0xbd, 0x3f, 0xb9, 0xbe, 0x2a, 0xd5, 0xff, 0xdf, 0x01, 0x54, 0x02, 0x22,
   0xa3, 0x25, 0x49, 0x00, 0xff, 0xb7, 0xfa, 0xea, 0xae, 0x25, 0x00, 0xf0,
   0xff, 0xff, 0xfc, 0xd5, 0xff, 0x97, 0x54, 0xfc, 0x0f, 0xaa, 0x3f, 0x10,
   0xf0, 0x43, 0xfa, 0xff, 0xfb, 0x03, 0xaa, 0x02, 0x6c, 0x26, 0xad, 0x52,
   0x80, 0x7f, 0xdb, 0xaf, 0xd7, 0xbb, 0x12, 0x10, 0xe8, 0xff, 0xff, 0xfe,
   0x55, 0xff, 0x6f, 0x25, 0xde, 0x8f, 0x7e, 0x2f, 0x42, 0xfd, 0x54, 0xbd,
   0xff, 0xef, 0x01, 0xad, 0x04, 0x92, 0xaa, 0x53, 0x0a, 0x80, 0xfb, 0xbf,
   0xfd, 0xad, 0xaa, 0x06, 0x20, 0xc0, 0xff, 0xff, 0x7f, 0xab, 0xfe, 0xdf,
   0xaa, 0x3e, 0x2d, 0x68, 0x6d, 0x00, 0xa8, 0x02, 0xf9, 0xff, 0xbf, 0x03,
   0x28, 0x80, 0xa2, 0x24, 0x96, 0x20, 0x80, 0x6f, 0x6b, 0x57, 0x5b, 0x57,
   0x05, 0x01, 0x80, 0xff, 0xff, 0xaf, 0x89, 0xfd, 0x5f, 0xd2, 0xd7, 0x5e,
   0xd9, 0x5e, 0x02, 0x00, 0x04, 0x0a, 0xfd, 0xff, 0x02, 0xbc, 0x05, 0x28,
   0x8b, 0x4d, 0x55, 0xc0, 0xfe, 0xdb, 0xba, 0xd6, 0x56, 0x09, 0x40, 0xc0,
   0xff, 0xff, 0x7f, 0xa9, 0xfa, 0xdf, 0x7d, 0x9d, 0x19, 0x75, 0xfd, 0x17,
   0x80, 0x00, 0xb4, 0xf8, 0xef, 0x0f, 0x50, 0x09, 0x4a, 0x15, 0x55, 0x40,
   0xc0, 0x2f, 0x55, 0xab, 0xb5, 0x55, 0x01, 0x80, 0xe0, 0xff, 0xff, 0x87,
   0x20, 0x6d, 0x7f, 0xf7, 0x57, 0x1f, 0xd5, 0xaa, 0x02, 0x00, 0x00, 0x0b,
   0xfd, 0xff, 0x3b, 0xa0, 0x02, 0x20, 0x4c, 0x0a, 0xa3, 0xc0, 0x7f, 0x95,
   0xb6, 0x55, 0x57, 0x05, 0x80, 0xc0, 0xff, 0xff, 0x5d, 0x02, 0xdc, 0xff,
   0xee, 0x4e, 0x1e, 0xa8, 0x7e, 0x0d, 0x00, 0x00, 0x5c, 0xfc, 0xff, 0xbf,
   0x80, 0x05, 0x88, 0x09, 0x75, 0x8a, 0xe0, 0x96, 0xa8, 0x74, 0xab, 0xb4,
   0x02, 0xa0, 0xc3, 0xff, 0x7f, 0x49, 0x00, 0x76, 0xdf, 0xff, 0xbb, 0x1b,
   0xb5, 0x79, 0x01, 0x40, 0x00, 0x07, 0xfe, 0xfb, 0xef, 0xc0, 0x17, 0x40,
   0x99, 0x0c, 0xb2, 0xe0, 0x2f, 0x11, 0x4a, 0xad, 0x55, 0x02, 0x41, 0x8b,
   0xff, 0x17, 0x59, 0x01, 0xfc, 0xbf, 0xbd, 0x66, 0x3f, 0xe4, 0x7d, 0x5a,
   0x01, 0x01, 0x00, 0xfe, 0xf7, 0x7e, 0x01, 0x14, 0x40, 0x91, 0xaa, 0x24,
   0xe0, 0x95, 0xa2, 0x28, 0x95, 0xaa, 0x0a, 0x24, 0xed, 0xff, 0x25, 0x25,
   0x00, 0xee, 0xdb, 0x57, 0x57, 0x1d, 0x94, 0xfc, 0xff, 0x0f, 0x00, 0x00,
   0xfe, 0xff, 0xf7, 0x01, 0x54, 0x20, 0xb0, 0x8a, 0xa6, 0xe0, 0x2b, 0x24,
   0x50, 0xad, 0xaa, 0x12, 0x20, 0xbb, 0xfd, 0xa5, 0x2a, 0x00, 0xba, 0x2f,
   0x11, 0x5c, 0xbf, 0xb4, 0xf9, 0xff, 0x3f, 0x00, 0x00, 0xfe, 0xea, 0xff,
   0x07, 0xa0, 0x80, 0x23, 0xa9, 0x54, 0xe0, 0x85, 0x42, 0x82, 0x1a, 0x56,
   0x05, 0xc0, 0x76, 0xff, 0x90, 0x0a, 0x00, 0xec, 0xbb, 0x42, 0x6c, 0x3d,
   0xaa, 0xf4, 0xff, 0xff, 0x00, 0x00, 0xff, 0x77, 0xef, 0x1f, 0x40, 0x01,
   0x50, 0x12, 0xa9, 0xb0, 0x95, 0x90, 0x24, 0xb2, 0xa4, 0x54, 0xda, 0xaa,
   0xfa, 0x21, 0x0a, 0x00, 0xfc, 0xf7, 0x04, 0x7c, 0x3d, 0xbc, 0xad, 0xff,
   0x5f, 0x01, 0x1f, 0xbf, 0xfe, 0xbf, 0x2f, 0x00, 0x05, 0xa1, 0x20, 0x50,
   0xe0, 0x49, 0x02, 0x80, 0x20, 0x5b, 0x41, 0x12, 0x56, 0xff, 0x10, 0x04,
   0x00, 0xfa, 0x9f, 0x28, 0x58, 0x3d, 0xa9, 0xde, 0xff, 0xff, 0x00, 0x1a,
   0xfe, 0xf2, 0xff, 0xf6, 0x00, 0x04, 0x20, 0x28, 0xa2, 0xb0, 0x13, 0x50,
   0x00, 0x54, 0x4a, 0x55, 0xa0, 0xd6, 0xfa, 0x21, 0x08, 0x00, 0xfa, 0xbb,
   0x01, 0x70, 0x75, 0xfa, 0x78, 0xff, 0xbf, 0x01, 0xf8, 0xff, 0xff, 0xee,
   0xd5, 0x07, 0x00, 0x22, 0x50, 0x40, 0xf0, 0xa4, 0x02, 0x10, 0x48, 0x94,
   0x44, 0x10, 0xfd, 0xef, 0x11, 0xa8, 0x00, 0xfc, 0xef, 0x00, 0x69, 0x79,
   0x54, 0xad, 0xfb, 0x7f, 0x82, 0xf7, 0xff, 0xb9, 0xff, 0xf7, 0x1e, 0x00,
   0x2d, 0x0c, 0x81, 0xd0, 0x0a, 0x08, 0x00, 0x40, 0x4a, 0x55, 0x41, 0xb5,
   0xff, 0x23, 0xd4, 0x05, 0xf1, 0x5f, 0x00, 0xc0, 0x77, 0x9a, 0xf4, 0xfe,
   0xff, 0x56, 0xc4, 0xff, 0xfb, 0xff, 0xcb, 0xff, 0x00, 0x20, 0x18, 0x04,
   0xb0, 0x04, 0x01, 0x00, 0x56, 0xa8, 0x92, 0x90, 0xfb, 0xfe, 0xe7, 0xbc,
   0x2d, 0xf8, 0xef, 0x10, 0xa9, 0xf5, 0xaa, 0xae, 0xff, 0xbf, 0x7e, 0x00,
   0xfe, 0xff, 0x6e, 0x7f, 0xfd, 0x03, 0x20, 0x00, 0xa0, 0xb8, 0x21, 0x08,
   0x00, 0xa0, 0x88, 0x0a, 0xa4, 0xae, 0xff, 0xef, 0x5f, 0x25, 0xe0, 0x7f,
   0x00, 0xa0, 0xff, 0x4d, 0xa9, 0xfa, 0xff, 0x6d, 0x81, 0xff, 0xf6, 0xff,
   0xd2, 0xff, 0x3f, 0x00, 0x08, 0x04, 0x70, 0x84, 0x80, 0x00, 0x40, 0xa5,
   0x62, 0xeb, 0x76, 0xff, 0xff, 0x2f, 0x0a, 0xe0, 0xcf, 0x50, 0x01, 0xff,
   0x1f, 0xd6, 0xfe, 0xff, 0x8f, 0xc3, 0x7f, 0xfb, 0xff, 0xad, 0xff, 0xff,
   0x21, 0x08, 0x02, 0xd8, 0x09, 0x00, 0x00, 0xa4, 0x94, 0xd4, 0xaa, 0x55,
   0xfe, 0xff, 0x4f, 0x29, 0xc0, 0x7f, 0x02, 0x14, 0xfc, 0x5f, 0xb2, 0xe9,
   0xff, 0x2f, 0xff, 0xff, 0xbe, 0xef, 0x6a, 0xfd, 0xff, 0x21, 0x10, 0x58,
   0x38, 0x22, 0x09, 0x00, 0x80, 0x29, 0x2f, 0x81, 0x16, 0xfe, 0xff, 0x1f,
   0x00, 0xc0, 0x6f, 0x28, 0x41, 0xfa, 0x1f, 0x6c, 0xbf, 0xfd, 0x7f, 0xf9,
   0xaf, 0xfd, 0x3d, 0xcb, 0xfe, 0xff, 0x41, 0x70, 0x96, 0xf0, 0x04, 0x00,
   0x00, 0x10, 0xd3, 0x5a, 0xa4, 0x34, 0xfe, 0xff, 0x7f, 0x00, 0x80, 0xef,
   0x45, 0x8a, 0xfa, 0x5f, 0x80, 0xf6, 0xff, 0xfb, 0xd3, 0xff, 0xf6, 0xbf,
   0x9a, 0xa2, 0xff, 0x41, 0xe0, 0x36, 0x58, 0x41, 0x09, 0x00, 0x40, 0x51,
   0x15, 0x50, 0x09, 0xfc, 0xff, 0xab, 0x84, 0x00, 0x7f, 0x88, 0x10, 0xf0,
   0x5f, 0xec, 0xde, 0x0f, 0xb0, 0xd7, 0xdf, 0xdf, 0xb7, 0xa5, 0x5a, 0xb5,
   0x40, 0x80, 0x8a, 0x6c, 0x08, 0x00, 0x00, 0x00, 0xab, 0x56, 0x00, 0x14,
   0xfe, 0xff, 0xff, 0x01, 0x00, 0xec, 0x12, 0xa4, 0xea, 0x3f, 0x88, 0xfb,
   0x4e, 0x40, 0xe1, 0xbf, 0x7c, 0xbf, 0x94, 0xea, 0xd6, 0xc1, 0x00, 0x00,
   0x98, 0x02, 0x00, 0x00, 0x00, 0x14, 0x01, 0x10, 0x4a, 0xfe, 0xdf, 0x4b,
   0x27, 0x02, 0xb5, 0xa0, 0x44, 0xb1, 0x3f, 0xb0, 0x6d, 0x2f, 0x00, 0xf0,
   0xdf, 0xff, 0x57, 0x6b, 0x5b, 0xbb, 0x80, 0x00, 0x00, 0xb4, 0x40, 0x00,
   0x00, 0x00, 0x52, 0x15, 0x00, 0x10, 0xfe, 0xff, 0x7f, 0x55, 0x0c, 0x38,
   0x44, 0x02, 0xe6, 0x3f, 0x6a, 0xef, 0xff, 0x94, 0xfc, 0xab, 0xfd, 0xae,
   0xda, 0xfe, 0x57, 0xc0, 0x01, 0x00, 0x4c, 0x0a, 0x00, 0x00, 0x00, 0x10,
   0x00, 0x01, 0x20, 0xfc, 0xf7, 0xaf, 0x29, 0xa8, 0x17, 0x10, 0x49, 0xea,
   0xff, 0xfd, 0xbf, 0xff, 0xf5, 0xff, 0xbf, 0xef, 0xdb, 0xb6, 0xab, 0x00,
   0x80, 0x02, 0x00, 0xa8, 0x00, 0x00, 0x00, 0x00, 0xa2, 0x04, 0x00, 0x04,
   0xfd, 0xef, 0xff, 0x01, 0x79, 0x1d, 0x24, 0x89, 0xe8, 0xff, 0xea, 0xfd,
   0xff, 0x6b, 0xfd, 0x55, 0xff, 0xf7, 0x76, 0x2f, 0x01, 0x00, 0x00, 0x00,
   0x4c, 0x02, 0x00, 0x00, 0x00, 0x40, 0x00, 0x02, 0x10, 0xfc, 0xff, 0xfd,
   0x05, 0xf0, 0x0b, 0x40, 0x50, 0xd4, 0xff, 0x55, 0xf2, 0xff, 0x3f, 0xfd,
   0xff, 0xff, 0xdf, 0xdb, 0x14, 0x02, 0x00, 0x00, 0x00, 0x5c, 0x15, 0x00,
   0x00, 0x00, 0x80, 0x00, 0x80, 0x50, 0xfe, 0xff, 0x7d, 0x03, 0xa0, 0x07,
   0x94, 0x82, 0xa9, 0x7b, 0x11, 0xe8, 0xff, 0xaf, 0xfe, 0xcb, 0xdd, 0x7d,
   0xdf, 0x45, 0x00, 0x00, 0x04, 0x48, 0x54, 0x02, 0x00, 0x00, 0x00, 0x00,
   0x00, 0x00, 0xa2, 0xfd, 0xff, 0xf7, 0x07, 0xa8, 0x06, 0x00, 0xa9, 0xfc,
   0x57, 0x41, 0xd1, 0xff, 0xfe, 0xff, 0xed, 0x7f, 0xdf, 0xbb, 0x10, 0x01,
   0xe1, 0x1d, 0x68, 0xdc, 0x08, 0x01, 0x00, 0x00, 0x80, 0x00, 0x00, 0x40,
   0xf9, 0xfb, 0x7f, 0x0f, 0x40, 0x3d, 0x10, 0x49, 0x55, 0x69, 0x8a, 0x12,
   0x3c, 0xf8, 0xbf, 0xbb, 0xff, 0xfb, 0xa7, 0x56, 0x20, 0x01, 0x02, 0x82,
   0x28, 0x01, 0x00, 0x00, 0x00, 0x00, 0x00, 0x00, 0x50, 0xf8, 0xef, 0xff,
   0x0d, 0x80, 0x62, 0x81, 0x90, 0xa4, 0xdf, 0x77, 0x8b, 0x3e, 0xfd, 0x7f,
   0xed, 0xee, 0x5f, 0x40, 0x42, 0x00, 0x00, 0x50, 0x59, 0xb8, 0x12, 0x00,
   0x00, 0x00, 0x00, 0x00, 0x00, 0x20, 0xf0, 0xff, 0xbf, 0x3f, 0x00, 0x5c,
   0x0f, 0x85, 0x7a, 0xd9, 0x6f, 0x51, 0xa8, 0xfa, 0x7f, 0xed, 0x7f, 0x5f,
   0xa0, 0x1e, 0x20, 0x00, 0x04, 0x41, 0xa8, 0x0a, 0x00, 0x00, 0x00, 0x00,
   0x00, 0x00, 0x00, 0xf8, 0xff, 0x7f, 0x2d, 0x00, 0xa1, 0x2a, 0x58, 0x4a,
   0xb7, 0xb6, 0x8b, 0x00, 0xf1, 0xaf, 0xff, 0xde, 0x17, 0x50, 0x00, 0x00,
   0x00, 0x50, 0x96, 0xa8, 0x20, 0x02, 0x00, 0x00, 0x00, 0x00, 0x00, 0x10,
   0xf8, 0xfe, 0x7f, 0x3b, 0x00, 0x6a, 0xbd, 0x42, 0x75, 0xed, 0xb6, 0xfe,
   0x97, 0xf5, 0x6f, 0xab, 0xfb, 0x03, 0xa8, 0x00, 0x00, 0x00, 0x92, 0x47,
   0x58, 0x05, 0x00, 0x00, 0x00, 0x00, 0x00, 0x00, 0x00, 0xf8, 0xd7, 0x3f,
   0x54, 0x00, 0x90, 0xea, 0x4a, 0x5a, 0xdb, 0x6e, 0xbb, 0x53, 0xff, 0xdf,
   0xdf, 0x7d, 0x01, 0x4a, 0x01, 0x14, 0x00, 0xd0, 0x9a, 0x50, 0x09, 0x00,
   0x00, 0x00, 0x04, 0x00, 0x00, 0x08, 0xf8, 0xde, 0x7d, 0x96, 0x00, 0xa8,
   0xea, 0x8b, 0xea, 0xea, 0xdb, 0xff, 0xf7, 0xfe, 0xbf, 0xbd, 0xef, 0x00,
   0x2a, 0x00, 0x04, 0x00, 0xe5, 0x49, 0x30, 0x22, 0x00, 0x00, 0x00, 0x00,
   0x00, 0x00, 0x00, 0x7c, 0x8d, 0x79, 0x9a, 0x00, 0x40, 0xda, 0xad, 0x54,
   0x5f, 0x76, 0xf1, 0x6d, 0xff, 0xf6, 0xeb, 0x3e, 0x80, 0x3b, 0x00, 0x02,
   0x80, 0xb8, 0x92, 0xf0, 0x88, 0x02, 0x00, 0x00, 0x00, 0x00, 0x00, 0x08,
   0x5c, 0x89, 0x59, 0x56, 0x01, 0x40, 0xa9, 0xbf, 0xd7, 0xda, 0x6f, 0xcf,
   0xfb, 0xfe, 0xae, 0xde, 0x3b, 0x50, 0x62, 0x40, 0x03, 0x00, 0x75, 0x25,
   0x20, 0x01, 0x00, 0x00, 0x00, 0x00, 0x00, 0x00, 0x00, 0xbe, 0x1a, 0x07,
   0x9d, 0x02, 0x00, 0xb5, 0xfa, 0x7a, 0xbf, 0xf6, 0xfa, 0xff, 0xdf, 0xfb,
   0x7e, 0x37, 0xa0, 0xd5, 0x80, 0x05, 0x50, 0xdf, 0x4c, 0xa0, 0x0a, 0x00,
   0x00, 0x00, 0x08, 0x01, 0x05, 0x0a, 0x7e, 0x12, 0x07, 0x3a, 0x04, 0x21,
   0xc9, 0xee, 0xf7, 0xf7, 0xfe, 0xff, 0xff, 0x7f, 0xd7, 0xeb, 0x67, 0x24,
   0x55, 0x80, 0x00, 0x90, 0xba, 0x52, 0x60, 0x11, 0x00, 0x00, 0x00, 0x00,
   0x02, 0x14, 0x00, 0x2e, 0x09, 0x86, 0xce, 0x8a, 0xa4, 0x54, 0x55, 0xbd,
   0xf6, 0xff, 0xff, 0xff, 0xef, 0x7e, 0xbd, 0xe0, 0x6a, 0x1f, 0x20, 0x00,
   0xd0, 0xcf, 0x92, 0x60, 0x23, 0x44, 0x00, 0x00, 0x00, 0x08, 0x29, 0x00,
   0x56, 0x11, 0x8c, 0x9a, 0x12, 0x04, 0x54, 0x7b, 0xfb, 0xbf, 0xff, 0xff,
   0xff, 0xaf, 0xb7, 0xf7, 0x04, 0xda, 0x1d, 0x40, 0x00, 0xd0, 0x9e, 0x42,
   0x40, 0x05, 0x00, 0x00, 0x00, 0x90, 0x00, 0x92, 0x0a, 0x32, 0x0a, 0x1c,
   0x67, 0xa5, 0xb4, 0xd5, 0xd6, 0xef, 0xee, 0xff, 0xff, 0xff, 0xfb, 0xfd,
   0x7e, 0xd0, 0xb5, 0x2f, 0x80, 0x00, 0x6c, 0x63, 0x54, 0x40, 0x25, 0x04,
   0x00, 0x00, 0x01, 0x15, 0x24, 0x88, 0x73, 0xb4, 0x78, 0x8e, 0x0c, 0x22,
   0xa9, 0xda, 0xde, 0xff, 0xfd, 0xff, 0xff, 0xff, 0xef, 0x3d, 0xb0, 0xff,
   0x1f, 0x28, 0x00, 0xf8, 0x9b, 0x94, 0x80, 0x88, 0x20, 0x00, 0x00, 0x40,
   0x24, 0x54, 0x09, 0xb0, 0xa2, 0xd8, 0x53, 0x51, 0xa8, 0x7a, 0xb7, 0x75,
   0xd5, 0xeb, 0xff, 0xff, 0xd7, 0xbe, 0x0f, 0x7e, 0xf7, 0x96, 0x1e, 0x00,
   0xbe, 0x44, 0xa9, 0x80, 0x13, 0x00, 0x00, 0x00, 0x41, 0x91, 0xa4, 0x9a,
   0xe0, 0xa0, 0x7b, 0x82, 0x0a, 0x69, 0xcb, 0xf6, 0xff, 0x7b, 0xfb, 0xff,
   0xff, 0xbf, 0xfb, 0x0f, 0xef, 0xff, 0xff, 0x3b, 0x00, 0xec, 0x98, 0x14,
   0x00, 0x05, 0x41, 0x02, 0x00, 0x00, 0x44, 0x48, 0xb1, 0x40, 0x42, 0xe5,
   0x71, 0x25, 0xa0, 0xfe, 0x5d, 0xd5, 0xae, 0xfe, 0xff, 0xff, 0xef, 0xff,
   0xc3, 0xff, 0xdf, 0xee, 0x2e, 0x80, 0x1f, 0x47, 0x53, 0x00, 0x2a, 0x00,
   0x10, 0x24, 0x88, 0x90, 0x52, 0x25, 0xf0, 0xa8, 0xf6, 0x55, 0x42, 0x72,
   0x55, 0xf7, 0xff, 0xfe, 0xd4, 0xff, 0xff, 0xff, 0xfd, 0xcb, 0xff, 0xff,
   0xff, 0xed, 0x68, 0x5f, 0x52, 0xa7, 0x00, 0x4a, 0xa5, 0x08, 0x00, 0x01,
   0x05, 0x14, 0x54, 0x70, 0x51, 0xaf, 0x59, 0x09, 0xd4, 0xee, 0x5f, 0xb7,
   0xd5, 0xff, 0xff, 0xff, 0xbb, 0xff, 0xf4, 0xff, 0xff, 0xef, 0xaf, 0xff,
   0x4b, 0xc9, 0x57, 0x00, 0x1a, 0x04, 0x80, 0x08, 0x00, 0x44, 0xa9, 0x48,
   0x71, 0x51, 0x3d, 0xb5, 0x2a, 0xa8, 0xb4, 0xf6, 0x7f, 0x7f, 0xa9, 0xfe,
   0xff, 0xff, 0xbf, 0xfa, 0xff, 0xff, 0xbf, 0xad, 0xdf, 0x8f, 0xb5, 0x4b,
   0x00, 0x44, 0x40, 0x00, 0x00, 0x22, 0x10, 0x22, 0x14, 0xf9, 0xaa, 0xba,
   0x0b, 0x82, 0xd1, 0xfb, 0xdd, 0xd7, 0xf2, 0xff, 0xff, 0xff, 0xff, 0x5f,
   0xfd, 0xff, 0xff, 0xff, 0xff, 0x7f, 0x29, 0xaa, 0x4a, 0x00, 0x5c, 0x89,
   0x90, 0x10, 0x00, 0x55, 0x48, 0x40, 0xf8, 0x49, 0x77, 0xaa, 0x82, 0xaa,
   0xa6, 0xff, 0xfe, 0x56, 0xb5, 0xfd, 0xff, 0xff, 0x2b, 0xff, 0xdf, 0xef,
   0x7f, 0xf5, 0x4e, 0x2f, 0x55, 0xaa, 0x00, 0x28, 0x20, 0x02, 0x42, 0x48,
   0x88, 0x12, 0x84, 0xfc, 0xa5, 0xfe, 0x42, 0x50, 0x35, 0x7d, 0xbb, 0xab,
   0xbf, 0xff, 0xdf, 0xff, 0x3f, 0xc8, 0xff, 0x53, 0x5f, 0xff, 0xdf, 0x69,
   0x5d, 0x55, 0xa9, 0x00, 0xd0, 0x04, 0x20, 0x02, 0x02, 0x21, 0x22, 0x08,
   0xf0, 0xad, 0xeb, 0x0a, 0x51, 0xd5, 0xd5, 0xf7, 0xfb, 0xea, 0xea, 0xff,
   0xff, 0x03, 0x68, 0xfd, 0x27, 0x9f, 0xfe, 0x37, 0x27, 0x79, 0x55, 0xad,
   0x00, 0x58, 0x21, 0x49, 0xa8, 0x10, 0x80, 0x24, 0x00, 0xf0, 0xaf, 0xf6,
   0x41, 0x44, 0x35, 0x7b, 0xff, 0xab, 0xdf, 0xff, 0xff, 0x7f, 0x00, 0x00,
   0x00, 0xbe, 0xb4, 0xab, 0xa4, 0x48, 0xb0, 0x52, 0xd5, 0x00, 0x70, 0x0a,
   0x81, 0x82, 0x62, 0x55, 0x40, 0x49, 0xe0, 0xff, 0xbd, 0x07, 0x99, 0xea,
   0xee, 0xef, 0xbe, 0xf9, 0xff, 0xff, 0x0f, 0x00, 0x00, 0x00, 0xf8, 0x6b,
   0xad, 0xad, 0xda, 0xe2, 0xaa, 0xb4, 0x00, 0xc0, 0xa2, 0x10, 0x2a, 0x15,
   0x80, 0x44, 0x90, 0xd2, 0xdf, 0xeb, 0x51, 0x4a, 0x55, 0xdb, 0xbf, 0xfb,
   0xff, 0xff, 0x3f, 0x00, 0x00, 0x00, 0x00, 0xc0, 0x9e, 0x6a, 0xd7, 0x7a,
   0xa1, 0x15, 0x57, 0x00, 0xc0, 0x2a, 0xa5, 0x24, 0xa1, 0x90, 0x54, 0x91,
   0xfe, 0xbf, 0xdb, 0x8f, 0x8a, 0xf6, 0xfe, 0x7d, 0xef, 0xff, 0xff, 0x07,
   0x00, 0x00, 0x00, 0x00, 0x80, 0xb5, 0xd6, 0xb4, 0x7d, 0x86, 0x37, 0x1d,
   0x00, 0x40, 0x0b, 0x29, 0xa9, 0x2a, 0x41, 0x40, 0xa0, 0xab, 0xdd, 0x6d,
   0xab, 0x68, 0x6d, 0xbf, 0xff, 0xfe, 0xff, 0x5f, 0x00, 0x00, 0x00, 0x00,
   0x00, 0x00, 0x44, 0x55, 0x6f, 0xfd, 0x29, 0xaf, 0x15, 0x00, 0x80, 0x36,
   0xa9, 0xa2, 0x4a, 0x12, 0x15, 0xaa, 0xfe, 0xfb, 0x7f, 0xaf, 0x57, 0xed,
   0xbd, 0xdf, 0xff, 0xff, 0x01, 0x00, 0x00, 0x00, 0x00, 0x00, 0x00, 0x00,
   0xa8, 0x5a, 0xfb, 0x25, 0x54, 0x07, 0x00, 0x00, 0x5b, 0x4a, 0xaa, 0x54,
   0x49, 0xca, 0x6a, 0x55, 0x6d, 0xed, 0x5d, 0x52, 0xdb, 0xff, 0x7d, 0xff,
   0x05, 0x00, 0x00, 0x00, 0x00, 0x00, 0x00, 0x00, 0x00, 0x00, 0xfc, 0xfd,
   0x0b, 0xff, 0x0a, 0x00, 0x00, 0x6e, 0xd5, 0xaa, 0xa9, 0x8a, 0x80, 0xfa,
   0x5b, 0xff, 0x7d, 0xd7, 0x6a, 0xbb, 0xfb, 0xeb, 0x03, 0x00, 0x00, 0x00,
   0x00, 0x00, 0x00, 0x00, 0x00, 0x00, 0x00, 0xf0, 0xff, 0x5b, 0xd0, 0x01,
   0x00, 0x00, 0x5a, 0x15, 0x55, 0x55, 0x20, 0x56, 0xa6, 0xf6, 0xa9, 0xef,
   0x3a, 0x55, 0xed, 0xbf, 0xff, 0x01, 0x00, 0x00, 0x00, 0x00, 0x00, 0x00,
   0x00, 0x00, 0x00, 0x00, 0xc0, 0xff, 0x3f, 0xb3, 0x01, 0x00, 0x00, 0xf8,
   0xea, 0x56, 0x51, 0xd5, 0xd0, 0xed, 0x56, 0xbf, 0xed, 0xd7, 0x4a, 0xfb,
   0xfe, 0xff, 0x03, 0x00, 0x00, 0x00, 0x00, 0x00, 0x00, 0x00, 0x00, 0x00,
   0x00, 0x00, 0xff, 0x7f, 0xe2, 0x01, 0x00, 0x00, 0xa8, 0xad, 0xaa, 0x56,
   0x0a, 0x2d, 0xbb, 0xfd, 0xf6, 0xbf, 0xaa, 0xaa, 0xee, 0xf7, 0xef, 0x07,
   0x00, 0x00, 0x00, 0x00, 0x00, 0x00, 0x00, 0x00, 0x00, 0x00, 0x00, 0xfd,
   0xff, 0xb2, 0x07, 0x00, 0x00, 0xf0, 0xad, 0xaa, 0xaa, 0xb2, 0xea, 0x6a,
   0xd5, 0xae, 0xf6, 0x7d, 0x55, 0xfd, 0x6f, 0xbd, 0x0f, 0x00, 0x00, 0x00,
   0x00, 0x00, 0x00, 0x00, 0x00, 0x00, 0x00, 0x00, 0xfa, 0x7f, 0xf3, 0x07,
   0x00, 0x00, 0x60, 0x77, 0xab, 0xb6, 0xac, 0xb6, 0xbb, 0xf6, 0xf7, 0x9d,
   0xd6, 0x52, 0xaf, 0xff, 0xc6, 0x0e, 0x00, 0x00, 0x00, 0x00, 0x00, 0x00,
   0x00, 0x00, 0x00, 0x00, 0x00, 0xe0, 0x7f, 0xeb, 0x1f, 0x00, 0x00, 0xc0,
   0xd7, 0x56, 0x55, 0xa9, 0x35, 0xeb, 0xbd, 0xed, 0xff, 0xbb, 0x54, 0x7d,
   0xfd, 0xbd, 0x0d, 0x00, 0x00, 0x00, 0x00, 0x00, 0x00, 0x00, 0x00, 0x00,
   0x00, 0x00, 0xd0, 0xd7, 0xf5, 0x1f, 0x00, 0x00, 0x80, 0xbe, 0x5b, 0x6b,
   0x57, 0xfb, 0xb6, 0xeb, 0xbe, 0x5b, 0x2d, 0xa9, 0x57, 0xff, 0x57, 0x07,
   0x00, 0x00, 0x00, 0x00, 0x00, 0x00, 0x00, 0x00, 0x00, 0x00, 0x00, 0x40,
   0x6d, 0xfb, 0x3f, 0x00, 0x00, 0x00, 0xff, 0x56, 0xaa, 0x7a, 0xd7, 0xae,
   0xde, 0xff, 0x7f, 0x0b, 0xd9, 0x56, 0x7f, 0xfd, 0x06, 0x00, 0x00, 0x00,
   0x00, 0x00, 0x00, 0x00, 0x00, 0x00, 0x00, 0x00, 0x80, 0x68, 0xfb, 0x3f,
   0x00, 0x00, 0x00, 0xec, 0xfb, 0xd5, 0xed, 0xda, 0xfa, 0x7d, 0x75, 0xdb,
   0xad, 0xfa, 0xda, 0x7e, 0x97, 0x03, 0x00, 0x00, 0x00, 0x00, 0x00, 0x00,
   0x00, 0x00, 0x00, 0x00, 0x00, 0x00, 0xaa, 0xed, 0xff, 0x00, 0x00, 0x00,
   0x5c, 0x5f, 0xbb, 0xad, 0xdb, 0xd7, 0xd6, 0xef, 0x7e, 0x13, 0xfe, 0xd5,
   0xff, 0xbe, 0x01, 0x00, 0x00, 0x00, 0x00, 0x00, 0x00, 0x00, 0x00, 0x00,
   0x00, 0x00, 0x00, 0xa8, 0xfa, 0xff, 0x00, 0x00, 0x00, 0xf0, 0xfb, 0xfd,
   0xff, 0x6e, 0xfd, 0xff, 0xbe, 0xad, 0xe5, 0xff, 0xdf, 0xbf, 0xfb, 0x00,
   0x00, 0x00, 0x00, 0x00, 0x00, 0x00, 0x00, 0x00, 0x00, 0x00, 0x00, 0x00,
   0xa2, 0xdd, 0xff, 0x00, 0x00, 0x00, 0xe0, 0xaf, 0xdf, 0xb6, 0xfb, 0xde,
   0xda, 0xfb, 0xff, 0x95, 0xff, 0xff, 0xff, 0x6e, 0x00, 0x00, 0x00, 0x00,
   0x00, 0x00, 0x00, 0x00, 0x00, 0x00, 0x00, 0x00, 0x00, 0x94, 0xe8, 0xff,
   0x00, 0x00, 0x00, 0x80, 0xfd, 0xf6, 0xdf, 0xd6, 0xeb, 0xbf, 0x6f, 0x7f,
   0xf5, 0xff, 0xff, 0xdf, 0x3b, 0x00, 0x00, 0x00, 0x00, 0x00, 0x00, 0x00,
   0x00, 0x00, 0x00, 0x00, 0x00, 0x00, 0x00, 0x52, 0xff, 0x00, 0x00, 0x00,
   0x00, 0xff, 0xbf, 0xfb, 0xbe, 0xbf, 0xf5, 0xfe, 0x4f, 0xe5, 0xff, 0xff,
   0xdf, 0x0f, 0x00, 0x00, 0x00, 0x00, 0x00, 0x00, 0x00, 0x00, 0x00, 0x00,
   0x00, 0x00, 0x00, 0x00, 0xc0, 0xf5, 0x00, 0x00, 0x00, 0x00, 0xec, 0xfe,
   0x6e, 0xdb, 0xf6, 0xdf, 0xff, 0x41, 0xf5, 0xe3, 0xff, 0xff, 0x07, 0x00,
   0x00, 0x00, 0x00, 0x00, 0x00, 0x00, 0x00, 0x00, 0x00, 0x00, 0x00, 0x00,
   0x00, 0xb0, 0x93, 0x00, 0x00, 0x00, 0x00, 0xf8, 0xdb, 0xff, 0xff, 0xbf,
   0x7d, 0x3f, 0xc0, 0xfa, 0xdf, 0xff, 0x7b, 0x01, 0x00, 0x00, 0x00, 0x00,
   0x00, 0x00, 0x00, 0x00, 0x00, 0x00, 0x00, 0x00, 0x00, 0x00, 0x60, 0x57,
   0x00, 0x00, 0x00, 0x00, 0xc0, 0xff, 0xb7, 0xb5, 0xfd, 0xff, 0x07, 0x00,
   0xf5, 0xaf, 0xfe, 0x7f, 0x00, 0x00, 0x00, 0x00, 0x00, 0x00, 0x00, 0x00,
   0x00, 0x00, 0x00, 0x00, 0x00, 0x00, 0x00, 0x00, 0xaa, 0x00, 0x00, 0x00,
   0x00, 0x00, 0xfe, 0xfe, 0xff, 0xdf, 0xf7, 0x00, 0xe0, 0xfe, 0xdf, 0xbe,
   0x0e, 0x00, 0x00, 0x00, 0x00, 0x00, 0x00, 0x00, 0x00, 0x00, 0x00, 0x00,
   0x00, 0x00, 0x00, 0x00, 0x00, 0xa0, 0x00, 0x00, 0x00, 0x00, 0x00, 0xf0,
   0xef, 0xef, 0xf7, 0x0f, 0x00, 0x40, 0xfd, 0xff, 0xeb, 0x05, 0x00, 0x00,
   0x00, 0x00, 0x00, 0x00, 0x00, 0x00, 0x00, 0x00, 0x00, 0x00, 0x00, 0x00,
   0x00, 0x00, 0x00, 0x00, 0x00, 0x00, 0x00, 0x00, 0x40, 0xbf, 0xbe, 0xff,
   0x00, 0x00, 0x80, 0xfd, 0x7f, 0xff, 0x03, 0x00, 0x00, 0x00, 0x00, 0x00,
   0x00, 0x00, 0x00, 0x00, 0x00, 0x00, 0x00, 0x00, 0x00, 0x00, 0x00, 0x00,
   0x00, 0x00, 0x00, 0x00, 0x00, 0x00, 0xe0, 0xff, 0x02, 0x00, 0x00, 0xc0,
   0xfe, 0xff, 0xbf, 0x00, 0x00, 0x00, 0x00, 0x00, 0x00, 0x00, 0x00, 0x00,
   0x00, 0x00, 0x00, 0x00, 0x00, 0x00, 0x00, 0x00, 0x00, 0x00, 0x00, 0x00,
   0x00, 0x00, 0x00, 0x00, 0x00, 0x00, 0x00, 0x00, 0x80, 0xff, 0xff, 0x7f,
   0x00, 0x00, 0x00, 0x00, 0x00, 0x00, 0x00, 0x00, 0x00, 0x00, 0x00, 0x00,
   0x00, 0x00, 0x00, 0x00, 0x00, 0x00, 0x00, 0x00, 0x00, 0x00, 0x00, 0x00,
   0x00, 0x00, 0x00, 0x00, 0x00, 0x00, 0xfe, 0xff, 0x07, 0x00, 0x00, 0x00,
   0x00, 0x00, 0x00, 0x00, 0x00, 0x00, 0x00, 0x00, 0x00, 0x00, 0x00, 0x00,
   0x00, 0x00, 0x00, 0x00, 0x00, 0x00, 0x00, 0x00, 0x00, 0x00, 0x00, 0x00,
   0x00, 0x00, 0x00, 0xf8, 0xff, 0x01, 0x00, 0x00, 0x00, 0x00, 0x00, 0x00,
   0x00, 0x00, 0x00, 0x00, 0x00, 0x00, 0x00, 0x00, 0x00, 0x00, 0x00, 0x00,
   0x00, 0x00, 0x00, 0x00, 0x00, 0x00, 0x00, 0x00, 0x00, 0x00, 0x00, 0x00,
   0x80, 0x02, 0x00, 0x00, 0x00, 0x00, 0x00, 0x00, 0x00, 0x00, 0x00, 0x00,
   0x00, 0x00, 0x00, 0x00, 0x00, 0x00, 0x00, 0x00, 0x00, 0x00, 0x00, 0x00,
   0x00, 0x00, 0x00, 0x00, 0x00, 0x00, 0x00, 0x00, 0x00, 0x00, 0x00, 0x00,
   0x00, 0x00, 0x00, 0x00, 0x00, 0x00, 0x00, 0x00, 0x00, 0x00, 0x00, 0x00,
   0x00, 0x00, 0x00, 0x00, 0x00, 0x00, 0x00, 0x00, 0x00, 0x00, 0x00, 0x00,
   0x00, 0x00, 0x00, 0x00, 0x00, 0x00, 0x00, 0x00, 0x00, 0x00, 0x00, 0x00,
   0x00, 0x00, 0x00, 0x00, 0x00, 0x00, 0x00, 0x00, 0x00, 0x00, 0x00, 0x00,
   0x00, 0x00, 0x00, 0x00, 0x00, 0x00, 0x00, 0x00, 0x00, 0x00, 0x00, 0x00,
   0x00, 0x00, 0x00, 0x00, 0x00, 0x00, 0x00, 0x00, 0x00, 0x00, 0x00, 0x00,
   0x00, 0x00, 0x00, 0x00, 0x00, 0x00, 0x00, 0x00, 0x00, 0x00, 0x00, 0x00,
   0x00, 0x00, 0x00, 0x00, 0x00, 0x00, 0x00, 0x00, 0x00, 0x00, 0x00, 0x00,
   0x00, 0x00, 0x00, 0x00, 0x00, 0x00, 0x00, 0x00, 0x00, 0x00, 0x00, 0x00,
   0x00, 0x00, 0x00, 0x00, 0x00, 0x00, 0x00, 0x00, 0x00, 0x00, 0x00, 0x00,
   0x00, 0x00, 0x00, 0x00, 0x00, 0x00, 0x00, 0x00, 0x00, 0x00, 0x00, 0x00,
   0x00, 0x00, 0x00, 0x00, 0x00, 0x00, 0x00, 0x00, 0x00, 0x00, 0x00, 0x00,
   0x00, 0x00, 0x00, 0x00, 0x00, 0x00, 0x00, 0x00, 0x00, 0x00, 0x00, 0x00,
   0x00, 0x00, 0x00, 0x00, 0x00, 0x00, 0x00, 0x00, 0x00, 0x00, 0x00, 0x00,
   0x00, 0x00, 0x00, 0x00, 0x00, 0x00, 0x00, 0x00, 0x00, 0x00, 0x00, 0x00,
   0x00, 0x00, 0x00, 0x00, 0x00, 0x00, 0x00, 0x00, 0x00, 0x00, 0x00, 0x00,
   0x00, 0x00, 0x00, 0x00, 0x00, 0x00, 0x00, 0x00, 0x00, 0x00, 0x00, 0x00,
   0x00, 0x00, 0x00, 0x00, 0x00, 0x00, 0x00, 0x00, 0x00, 0x00, 0x00, 0x00,
   0x00, 0x00, 0x00, 0x00, 0x00, 0x00, 0x00, 0x00, 0x00, 0x00, 0x00, 0x00,
   0x00, 0x00, 0x00, 0x00, 0x00, 0x00, 0x00, 0x00, 0x00, 0x00, 0x00, 0x00,
   0x00, 0x00, 0x00, 0x00, 0x00, 0x00, 0x00, 0x00, 0x00, 0x00, 0x00, 0x00,
   0x00, 0x00, 0x00, 0x00, 0x00, 0x00, 0x00, 0x00, 0x00, 0x00, 0x00, 0x00,
   0x00, 0x00, 0x00, 0x00, 0x00, 0x00, 0x00, 0x00, 0x00, 0x00, 0x00, 0x00,
   0x00, 0x00, 0x00, 0x00, 0x00, 0x00, 0x00, 0x00, 0x00, 0x00, 0x00, 0x00,
   0x00, 0x00, 0x00, 0x00, 0x00, 0x00, 0x00, 0x00, 0x00, 0x00, 0x00, 0x00,
   0x00, 0x00, 0x00, 0x00, 0x00, 0x00, 0x00, 0x00, 0x00, 0x00, 0x00, 0x00,
   0x00, 0x00, 0x00, 0x00, 0x00, 0x00, 0x00, 0x00, 0x00, 0x00, 0x00, 0x00,
   0x00, 0x00, 0x00, 0x00, 0x00, 0x00, 0x00, 0x00, 0x00, 0x00, 0x00, 0x00,
   0x00, 0x00, 0x00, 0x00, 0x00, 0x00, 0x00, 0x00, 0x00, 0x00, 0x00, 0x00 };
