#define pnj11_width 264
#define pnj11_height 176
static unsigned char pnj11_bits[] = {
   0x00, 0x00, 0x00, 0x00, 0x00, 0x00, 0x00, 0x00, 0x00, 0x00, 0x00, 0x00,
   0x00, 0x00, 0x00, 0x00, 0x00, 0x00, 0x00, 0x00, 0x00, 0xb0, 0xaa, 0xbf,
   0xb5, 0xf6, 0xaf, 0x02, 0x00, 0x50, 0xaa, 0x4a, 0xba, 0x00, 0x00, 0x00,
   0x00, 0x00, 0x00, 0x00, 0x00, 0x00, 0x00, 0x00, 0x00, 0x00, 0x00, 0x00,
   0x00, 0x00, 0x00, 0x00, 0x00, 0x00, 0xa8, 0x55, 0x75, 0xe7, 0xad, 0x56,
   0x55, 0x90, 0xd2, 0xaa, 0x92, 0xe4, 0x00, 0x00, 0x00, 0x00, 0x00, 0x00,
   0x00, 0x00, 0x00, 0x00, 0x00, 0x00, 0x00, 0x00, 0x00, 0x00, 0x00, 0x00,
   0x00, 0x00, 0x00, 0x78, 0xd5, 0xef, 0x5a, 0xfb, 0x5e, 0x0a, 0x00, 0xba,
   0x5d, 0x55, 0xaa, 0x00, 0x00, 0x00, 0x00, 0x00, 0x00, 0x00, 0x00, 0x00,
   0x00, 0x00, 0x00, 0x00, 0x00, 0x00, 0x00, 0x00, 0x00, 0x00, 0x00, 0x00,
   0xd0, 0x2a, 0xad, 0xf7, 0xd6, 0xda, 0x2a, 0xa5, 0xaa, 0xaa, 0x42, 0x52,
   0x00, 0x00, 0x00, 0x00, 0x00, 0x00, 0x00, 0x00, 0x00, 0x00, 0x00, 0x00,
   0x00, 0x00, 0x00, 0x00, 0x00, 0x00, 0x00, 0x00, 0x00, 0x6c, 0xd5, 0x7a,
   0xaf, 0xbd, 0x7d, 0x55, 0x00, 0xb5, 0xbd, 0x2a, 0x55, 0x00, 0x00, 0x00,
   0x00, 0x00, 0x00, 0x00, 0x00, 0x00, 0x00, 0x00, 0x00, 0x00, 0x00, 0x00,
   0x00, 0x00, 0x00, 0x00, 0x00, 0x00, 0x55, 0x55, 0x6b, 0xbd, 0xb5, 0x6b,
   0xa5, 0x14, 0xaa, 0x56, 0xab, 0xaa, 0x00, 0x00, 0x00, 0x00, 0x00, 0x00,
   0x00, 0x00, 0x00, 0x00, 0x00, 0x00, 0x00, 0x00, 0x00, 0x00, 0x00, 0x00,
   0x00, 0x00, 0x00, 0x56, 0x55, 0xdd, 0xf7, 0xfb, 0xfe, 0x29, 0x65, 0xd5,
   0x7c, 0xad, 0xaa, 0x00, 0x00, 0x00, 0x00, 0x00, 0x00, 0x00, 0x00, 0x00,
   0x00, 0x00, 0x00, 0x00, 0x00, 0x00, 0x00, 0x00, 0x00, 0x00, 0x00, 0x00,
   0xd5, 0xda, 0xba, 0x7e, 0xeb, 0xdf, 0x4b, 0xa9, 0xaa, 0xeb, 0xad, 0x6a,
   0x00, 0x00, 0x00, 0x00, 0x00, 0x00, 0x00, 0x00, 0x00, 0x00, 0x00, 0x00,
   0x00, 0x00, 0x00, 0x00, 0x00, 0x00, 0x00, 0x00, 0x00, 0xad, 0xaa, 0xfa,
   0xfb, 0xef, 0x7d, 0x17, 0xa1, 0x4a, 0xb5, 0x77, 0xcb, 0x00, 0x00, 0x00,
   0x00, 0x00, 0x00, 0x00, 0x00, 0x00, 0x00, 0x00, 0x00, 0x00, 0x00, 0x00,
   0x00, 0x00, 0x00, 0x00, 0x00, 0x00, 0xb5, 0xb2, 0x6a, 0xf7, 0xad, 0xf7,
   0x6f, 0x97, 0x5a, 0x6d, 0x6d, 0xbd, 0x00, 0x00, 0x00, 0x00, 0x00, 0x00,
   0x00, 0x00, 0x00, 0x00, 0x00, 0x00, 0x00, 0x00, 0x00, 0x00, 0x00, 0x00,
   0x00, 0x00, 0x00, 0xeb, 0x4a, 0xf5, 0xdd, 0xf7, 0xdf, 0x5a, 0xa8, 0x92,
   0x52, 0xff, 0xd7, 0x00, 0x00, 0x00, 0x00, 0x00, 0x00, 0x00, 0x00, 0x00,
   0x00, 0x00, 0x00, 0x00, 0x00, 0x00, 0x00, 0x00, 0x00, 0x00, 0x00, 0x80,
   0x56, 0x3b, 0xed, 0xff, 0xbf, 0xfe, 0xdf, 0x92, 0x52, 0x55, 0x55, 0xdd,
   0x00, 0x00, 0x00, 0x00, 0x00, 0x00, 0x00, 0x00, 0x00, 0x00, 0x00, 0x00,
   0x00, 0x00, 0x00, 0x00, 0x00, 0x00, 0x00, 0x00, 0x80, 0xba, 0xaa, 0xda,
   0xdb, 0xff, 0xff, 0x7d, 0xaa, 0x54, 0x4a, 0x6d, 0xd7, 0x00, 0x00, 0x00,
   0x00, 0x00, 0x00, 0x00, 0x00, 0x00, 0x00, 0x00, 0x00, 0x00, 0x00, 0x00,
   0x00, 0x00, 0x00, 0x00, 0x00, 0x80, 0x6b, 0xd5, 0xb2, 0xff, 0xef, 0xfb,
   0xf7, 0x55, 0x55, 0x89, 0xd0, 0xb4, 0x00, 0x00, 0x00, 0x00, 0x00, 0x00,
   0x00, 0x00, 0x00, 0x00, 0x00, 0x00, 0x00, 0x00, 0x00, 0x00, 0x00, 0x00,
   0x00, 0x00, 0x40, 0x5d, 0x55, 0xed, 0xdf, 0xbf, 0xde, 0xdf, 0xa2, 0x50,
   0x29, 0xaa, 0xae, 0x00, 0x00, 0x00, 0x00, 0x00, 0x00, 0x00, 0x00, 0x00,
   0x00, 0x00, 0x00, 0x00, 0x00, 0x00, 0x00, 0x00, 0x00, 0x00, 0x00, 0x80,
   0xdb, 0xaa, 0xa9, 0xfd, 0xff, 0xff, 0xff, 0x0f, 0x06, 0xa5, 0x0a, 0x6a,
   0x00, 0x00, 0x00, 0x00, 0x00, 0x00, 0x00, 0x00, 0x00, 0x00, 0x00, 0x00,
   0x00, 0x00, 0x00, 0x00, 0x00, 0x00, 0x00, 0x00, 0x60, 0xad, 0xaa, 0xd6,
   0xff, 0xff, 0xf7, 0x7d, 0x7b, 0x55, 0x04, 0x51, 0xad, 0x00, 0x00, 0x00,
   0x00, 0x00, 0x00, 0x00, 0x00, 0x00, 0x00, 0x00, 0x00, 0x00, 0x00, 0x00,
   0x00, 0x00, 0x00, 0x00, 0x00, 0xe0, 0x5f, 0xa5, 0x54, 0xff, 0xff, 0xbf,
   0xfb, 0x6f, 0x55, 0x6d, 0x25, 0xa9, 0x00, 0x00, 0x00, 0x00, 0x00, 0x00,
   0x00, 0x00, 0x00, 0x00, 0x00, 0x00, 0x00, 0x00, 0x00, 0x00, 0x00, 0x00,
   0x00, 0x00, 0xb0, 0xb6, 0xaa, 0xaa, 0xff, 0xff, 0xfe, 0xde, 0xff, 0x4a,
   0x09, 0x8a, 0x52, 0x00, 0x00, 0x00, 0x00, 0x00, 0x00, 0x00, 0x00, 0x00,
   0x00, 0x00, 0x00, 0x00, 0x00, 0x00, 0x00, 0x00, 0x00, 0x00, 0x00, 0xe0,
   0xbf, 0xaa, 0xb5, 0xfd, 0xff, 0xef, 0xff, 0xee, 0x96, 0xaa, 0x32, 0x25,
   0x00, 0x00, 0x00, 0x00, 0x00, 0x00, 0x00, 0x00, 0x00, 0x00, 0x00, 0x00,
   0x00, 0x00, 0x00, 0x00, 0x00, 0x00, 0x00, 0x00, 0x80, 0x6b, 0xd5, 0xaa,
   0xff, 0xff, 0xff, 0xf7, 0xff, 0x2b, 0x82, 0x4a, 0xaa, 0x00, 0x00, 0x00,
   0x00, 0x00, 0x00, 0x00, 0x00, 0x00, 0x00, 0x00, 0x00, 0x00, 0x00, 0x00,
   0x00, 0x00, 0x00, 0x00, 0x00, 0x20, 0xdf, 0xaa, 0x56, 0xfd, 0xff, 0x7e,
   0xdf, 0xfd, 0x6f, 0xaa, 0x54, 0x49, 0x00, 0x00, 0x00, 0x00, 0x00, 0x00,
   0x00, 0x00, 0x00, 0x00, 0x00, 0x00, 0x00, 0x00, 0x00, 0x00, 0x00, 0x00,
   0x00, 0x00, 0x80, 0xbe, 0xdd, 0x55, 0xff, 0xff, 0xff, 0xff, 0x6f, 0xfb,
   0x24, 0x45, 0xaa, 0x00, 0x00, 0x00, 0x00, 0x00, 0x00, 0x00, 0x00, 0x00,
   0x00, 0x00, 0x00, 0x00, 0x00, 0x00, 0x00, 0x00, 0x08, 0x00, 0x00, 0x84,
   0xf4, 0xb2, 0xad, 0xfa, 0xff, 0xff, 0xbe, 0xff, 0xaf, 0x55, 0x54, 0xa9,
   0x00, 0x00, 0x00, 0x00, 0x00, 0x00, 0x00, 0x00, 0x00, 0x00, 0x00, 0x00,
   0x00, 0x00, 0x00, 0x00, 0x00, 0x08, 0x08, 0x00, 0x00, 0xad, 0x6d, 0xb5,
   0xee, 0xff, 0xff, 0xff, 0xff, 0xff, 0x8b, 0x4a, 0x22, 0x00, 0x00, 0x00,
   0x00, 0x00, 0x00, 0x00, 0x00, 0x00, 0x00, 0x20, 0x01, 0x00, 0x00, 0x00,
   0x00, 0x00, 0x08, 0x0c, 0x80, 0x00, 0x71, 0x6d, 0x6b, 0xfd, 0xff, 0xee,
   0xff, 0x7f, 0xb7, 0x37, 0xa9, 0x4a, 0x00, 0x00, 0x00, 0x00, 0x00, 0x00,
   0x00, 0x00, 0x00, 0x00, 0xfe, 0xaf, 0x12, 0x00, 0x00, 0x00, 0x00, 0x96,
   0x06, 0x00, 0x00, 0xe8, 0xb6, 0x5a, 0xab, 0xff, 0xff, 0x7d, 0xf7, 0xdf,
   0x5e, 0x55, 0x8a, 0x00, 0x00, 0x00, 0x00, 0x00, 0x00, 0x00, 0x00, 0x00,
   0xf0, 0x7f, 0xa9, 0xf6, 0x07, 0x00, 0x00, 0x80, 0x5e, 0x05, 0x20, 0x00,
   0xa0, 0x6f, 0xab, 0xbe, 0xff, 0xbb, 0xff, 0xff, 0xdf, 0xfb, 0xcb, 0x52,
   0x00, 0x00, 0x00, 0x00, 0x00, 0x00, 0x00, 0x00, 0x00, 0xbc, 0xdf, 0xab,
   0xfd, 0x7f, 0x00, 0x00, 0x40, 0x53, 0x07, 0x08, 0x00, 0x40, 0xdd, 0x6a,
   0xd5, 0xff, 0xff, 0xf7, 0x7f, 0xbb, 0xaf, 0x2a, 0x55, 0x00, 0x00, 0x00,
   0x00, 0x00, 0x00, 0x00, 0x00, 0x00, 0x75, 0xff, 0x6f, 0xfb, 0xff, 0x03,
   0x00, 0xe0, 0x77, 0x03, 0x10, 0x01, 0x80, 0xbf, 0x5a, 0xb5, 0xfe, 0xff,
   0xfe, 0xff, 0x77, 0xfd, 0xbf, 0x56, 0x00, 0x00, 0x00, 0x00, 0x00, 0x00,
   0x00, 0x00, 0xc0, 0xef, 0xff, 0xbf, 0xff, 0xff, 0x5f, 0x00, 0xbc, 0xef,
   0x03, 0x00, 0x00, 0x10, 0xd6, 0xaa, 0xea, 0xfd, 0xff, 0xff, 0xfb, 0xff,
   0xff, 0x77, 0xa9, 0x00, 0x00, 0x00, 0x00, 0x00, 0x00, 0x00, 0x00, 0xd0,
   0xdd, 0xff, 0xff, 0xff, 0x7f, 0xff, 0xaf, 0xfb, 0xfd, 0x03, 0x40, 0x00,
   0x00, 0xac, 0xad, 0xaa, 0xfb, 0xff, 0xf7, 0xff, 0x7f, 0xef, 0xff, 0x55,
   0x00, 0x00, 0x00, 0x00, 0x00, 0x00, 0x00, 0x00, 0xf8, 0xfb, 0xff, 0xff,
   0xff, 0xff, 0xdb, 0xfa, 0xdf, 0xff, 0x03, 0x08, 0x01, 0x00, 0xf4, 0x76,
   0x6d, 0xff, 0xff, 0xff, 0xbf, 0xff, 0xff, 0xff, 0xab, 0x00, 0x00, 0x00,
   0x00, 0x00, 0x00, 0x00, 0x00, 0x7e, 0xd7, 0xff, 0xff, 0xaf, 0x6a, 0xd7,
   0xbf, 0xfa, 0xff, 0x07, 0x58, 0x00, 0x00, 0x80, 0xd7, 0x6a, 0xff, 0xff,
   0xff, 0xff, 0xff, 0xff, 0xbf, 0xaf, 0x00, 0x00, 0x00, 0x00, 0x00, 0x00,
   0x00, 0x00, 0xdf, 0xfa, 0xff, 0xff, 0x4b, 0xa5, 0x7d, 0x77, 0xff, 0xff,
   0x02, 0xa4, 0x00, 0x00, 0x80, 0x1a, 0xf5, 0xfb, 0xff, 0xff, 0xff, 0x7b,
   0xff, 0xfb, 0xed, 0x00, 0x00, 0x00, 0x00, 0x00, 0x00, 0x00, 0xc0, 0xdf,
   0xff, 0xff, 0xff, 0x57, 0x04, 0xf5, 0xdf, 0xf5, 0xff, 0x86, 0xaa, 0x01,
   0x40, 0x00, 0xfe, 0x4a, 0xff, 0xff, 0xff, 0xff, 0xff, 0xff, 0xff, 0xef,
   0x00, 0x00, 0x00, 0x00, 0x00, 0x00, 0x00, 0xe0, 0x7f, 0xfd, 0xff, 0xff,
   0x95, 0x50, 0xfa, 0xb6, 0xfe, 0xff, 0x41, 0xf8, 0x02, 0x00, 0x12, 0xa8,
   0xbe, 0xff, 0xff, 0xff, 0xff, 0xff, 0xbf, 0xff, 0xff, 0x00, 0x00, 0x00,
   0x00, 0x00, 0x00, 0x00, 0xf8, 0xb7, 0xff, 0xef, 0xff, 0xab, 0x8b, 0xd4,
   0xd7, 0xff, 0xff, 0x95, 0xc2, 0x07, 0x00, 0x00, 0xe0, 0xea, 0xfd, 0xff,
   0xff, 0xff, 0xff, 0xff, 0xff, 0xdf, 0x00, 0x00, 0x00, 0x00, 0x00, 0x00,
   0x00, 0xfe, 0xef, 0xff, 0xff, 0xff, 0x0a, 0x50, 0xf5, 0x76, 0xff, 0x5f,
   0x52, 0xaa, 0x0e, 0x00, 0x00, 0x54, 0xb7, 0xef, 0xff, 0xff, 0xff, 0xff,
   0xff, 0xdf, 0xfe, 0x00, 0x00, 0x00, 0x00, 0x00, 0x00, 0x00, 0xde, 0xad,
   0xfe, 0xf7, 0x7f, 0xa1, 0x92, 0xe4, 0xff, 0xff, 0x97, 0xa4, 0xa0, 0x3a,
   0x00, 0x10, 0x00, 0xad, 0xff, 0xff, 0xff, 0xff, 0xff, 0xff, 0xff, 0xdf,
   0x00, 0x00, 0x00, 0x00, 0x00, 0x00, 0x80, 0xff, 0xf6, 0x7b, 0xfc, 0xff,
   0x14, 0x49, 0xf5, 0xff, 0xbf, 0x22, 0x49, 0x55, 0x75, 0x01, 0x00, 0x40,
   0xba, 0xff, 0xff, 0xff, 0xff, 0xff, 0xff, 0xff, 0xff, 0x00, 0x00, 0x00,
   0x00, 0x00, 0x00, 0x40, 0xfb, 0xee, 0xd6, 0xfd, 0xff, 0x53, 0x29, 0xf5,
   0xff, 0x5f, 0x00, 0x10, 0x51, 0x48, 0x83, 0x04, 0x40, 0xe4, 0xff, 0xff,
   0xff, 0xff, 0xff, 0xff, 0xff, 0xff, 0x00, 0x00, 0x00, 0x00, 0x00, 0x00,
   0xe0, 0xaf, 0x75, 0x5b, 0xff, 0xf7, 0x14, 0x41, 0xf5, 0xff, 0x3f, 0x41,
   0x49, 0x8a, 0xd2, 0x05, 0x20, 0x00, 0xa8, 0xff, 0xff, 0xff, 0xff, 0xff,
   0xff, 0xff, 0xff, 0x00, 0x00, 0x00, 0x00, 0x00, 0x00, 0x50, 0xfa, 0x7f,
   0xf5, 0xff, 0xff, 0xb5, 0x56, 0xfd, 0xff, 0x7f, 0x09, 0x10, 0x51, 0x25,
   0x3e, 0x00, 0x00, 0xa0, 0xff, 0xff, 0xff, 0xff, 0xff, 0xff, 0xff, 0xff,
   0x00, 0x00, 0x00, 0x00, 0x00, 0x00, 0x6c, 0xab, 0x6e, 0xff, 0x7f, 0xed,
   0xab, 0x5a, 0xeb, 0xff, 0x5f, 0x09, 0x09, 0x2a, 0xaa, 0x5a, 0x01, 0x00,
   0x40, 0xff, 0xff, 0xff, 0xff, 0xff, 0xff, 0xff, 0xff, 0x00, 0x00, 0x00,
   0x00, 0x00, 0x00, 0xdd, 0xfa, 0xdf, 0xee, 0xd7, 0xbd, 0x56, 0x55, 0xbd,
   0xff, 0xbf, 0x7a, 0xab, 0xd4, 0xaa, 0x7e, 0x03, 0x00, 0x80, 0xfe, 0xff,
   0xff, 0xff, 0xff, 0xff, 0xff, 0xff, 0x00, 0x00, 0x00, 0x00, 0x00, 0x00,
   0xab, 0xf6, 0xbf, 0x7f, 0xbf, 0x6b, 0x55, 0x29, 0xea, 0xaa, 0xae, 0xec,
   0xbf, 0x37, 0x24, 0xf5, 0x05, 0x00, 0x00, 0xfd, 0xff, 0xff, 0xff, 0xff,
   0xff, 0xff, 0xff, 0x00, 0x00, 0x00, 0x00, 0x00, 0xc0, 0x7b, 0xfd, 0xf7,
   0xef, 0x25, 0x88, 0x94, 0x4a, 0x88, 0x94, 0xba, 0xfd, 0x75, 0xff, 0x55,
   0xed, 0x0f, 0x00, 0x00, 0xfc, 0xff, 0xff, 0xff, 0xff, 0xff, 0xff, 0xff,
   0x00, 0x00, 0x00, 0x00, 0x00, 0x78, 0xb7, 0xff, 0xdf, 0xbf, 0x8a, 0x22,
   0x20, 0x11, 0x02, 0x00, 0x42, 0xab, 0xff, 0x7f, 0x25, 0xb5, 0x3f, 0x00,
   0x00, 0xf8, 0xff, 0xff, 0xff, 0xff, 0xff, 0xff, 0xff, 0x00, 0x00, 0x00,
   0x00, 0x00, 0xf2, 0xfc, 0xff, 0xfb, 0x6b, 0x12, 0x00, 0x42, 0x22, 0x00,
   0x02, 0x04, 0xaa, 0x76, 0xf5, 0x4f, 0xd2, 0xff, 0x80, 0x00, 0xe0, 0xff,
   0xff, 0xff, 0xff, 0xff, 0xff, 0xff, 0x00, 0x00, 0x00, 0x00, 0x00, 0xbd,
   0xff, 0xff, 0x7f, 0x8f, 0x44, 0x02, 0x00, 0x00, 0x10, 0x00, 0x90, 0x54,
   0x6f, 0xfa, 0xbf, 0x24, 0xff, 0x00, 0x00, 0x40, 0xff, 0xff, 0xff, 0xff,
   0xff, 0xff, 0xff, 0x00, 0x00, 0x00, 0x00, 0x00, 0xbb, 0xff, 0xff, 0xff,
   0x35, 0x49, 0x00, 0x00, 0x20, 0x01, 0x00, 0x00, 0x50, 0x58, 0x6c, 0xff,
   0x49, 0xfd, 0x07, 0x00, 0x00, 0xfc, 0xff, 0xff, 0xff, 0xff, 0xff, 0xff,
   0x00, 0x00, 0x00, 0x00, 0xc0, 0xee, 0xff, 0xff, 0x5f, 0x0a, 0x00, 0x04,
   0x00, 0x00, 0x00, 0x00, 0x00, 0x09, 0xb5, 0x54, 0xf9, 0x57, 0xfa, 0x0f,
   0x00, 0x80, 0xf4, 0xff, 0xff, 0xff, 0xff, 0xff, 0xff, 0x00, 0x00, 0x00,
   0x00, 0xa0, 0xfd, 0xff, 0xff, 0x7b, 0x21, 0x49, 0x00, 0x00, 0x00, 0x00,
   0x00, 0x08, 0x20, 0x25, 0xd9, 0xfa, 0x5f, 0xe9, 0xbf, 0x04, 0x00, 0xd0,
   0xff, 0xff, 0xff, 0xff, 0xff, 0xff, 0x00, 0x00, 0x00, 0x00, 0x60, 0xff,
   0xff, 0xff, 0x47, 0x0a, 0x20, 0x00, 0x00, 0x00, 0x00, 0x00, 0x00, 0x40,
   0x5d, 0xbe, 0x4d, 0xff, 0xaa, 0x7f, 0x00, 0x00, 0x80, 0xff, 0xff, 0xff,
   0xff, 0xff, 0xff, 0x00, 0x00, 0x00, 0x00, 0xd0, 0x5e, 0xfa, 0x3f, 0x4d,
   0x20, 0x04, 0x00, 0x00, 0x00, 0x00, 0x80, 0x00, 0xa4, 0xb2, 0xaa, 0xfa,
   0xff, 0x2f, 0xff, 0x03, 0x00, 0x10, 0xfd, 0xff, 0xff, 0xff, 0xff, 0xff,
   0x00, 0x00, 0x00, 0x00, 0x68, 0xbf, 0x54, 0x4b, 0x15, 0x01, 0x20, 0x00,
   0x00, 0x00, 0xa0, 0x12, 0x40, 0xa0, 0xdf, 0xdd, 0xea, 0xff, 0xdb, 0xfe,
   0x17, 0x00, 0x00, 0xfa, 0xff, 0xff, 0xff, 0xff, 0xff, 0x00, 0x00, 0x00,
   0x00, 0x54, 0x9f, 0x54, 0x08, 0x34, 0x80, 0x44, 0x00, 0x00, 0x40, 0x02,
   0x00, 0x00, 0xa8, 0x2a, 0xa1, 0xaa, 0xff, 0xbf, 0xf8, 0x0f, 0x00, 0x00,
   0xc0, 0xff, 0xff, 0xff, 0xff, 0xff, 0x00, 0x00, 0x00, 0x00, 0xaf, 0x5f,
   0x82, 0x02, 0x08, 0x40, 0x50, 0x00, 0x00, 0x00, 0x28, 0x01, 0x00, 0xb5,
   0x04, 0x54, 0x55, 0xff, 0xbf, 0xf7, 0x3f, 0x00, 0x00, 0xa9, 0xfe, 0xff,
   0xff, 0xff, 0xff, 0x00, 0x00, 0x00, 0x00, 0x5e, 0x1f, 0x2a, 0xa0, 0x74,
   0x80, 0xd2, 0x00, 0x00, 0x00, 0x00, 0x00, 0x00, 0x44, 0x95, 0x20, 0xaa,
   0xfc, 0xff, 0xf7, 0xff, 0x02, 0x00, 0x00, 0xff, 0xff, 0xff, 0xff, 0xff,
   0x00, 0x00, 0x00, 0xd4, 0xfe, 0x97, 0x80, 0x14, 0x5a, 0x10, 0x60, 0x00,
   0x00, 0x04, 0x00, 0x00, 0x80, 0x10, 0x02, 0x80, 0xa8, 0xfa, 0xff, 0xdf,
   0xff, 0x05, 0x00, 0x90, 0xfa, 0xff, 0xff, 0xff, 0xff, 0x00, 0x00, 0x00,
   0x93, 0x55, 0x17, 0x12, 0x00, 0x74, 0x40, 0xe1, 0x00, 0x00, 0x20, 0x00,
   0x00, 0x00, 0x22, 0x05, 0x00, 0x80, 0xea, 0xff, 0xbf, 0xff, 0x2f, 0x00,
   0x10, 0xfd, 0xff, 0xff, 0xff, 0xff, 0x00, 0x00, 0x80, 0xe4, 0xfb, 0x85,
   0x40, 0x82, 0x5e, 0x10, 0x70, 0x00, 0x00, 0x41, 0x00, 0x00, 0x00, 0x84,
   0x02, 0x80, 0x12, 0xdd, 0xff, 0x5f, 0xff, 0xbf, 0x40, 0x40, 0xf4, 0xff,
   0xff, 0xff, 0xff, 0x00, 0x00, 0xc0, 0x0f, 0xd7, 0x15, 0x00, 0x10, 0xfa,
   0x10, 0xe0, 0x01, 0x10, 0x04, 0x00, 0x00, 0x80, 0x08, 0x01, 0x00, 0x20,
   0xb2, 0xff, 0x7f, 0xfe, 0xff, 0x0b, 0x01, 0xfd, 0xff, 0xff, 0xff, 0xff,
   0x00, 0x00, 0xa0, 0xae, 0xff, 0x03, 0x09, 0x49, 0x2f, 0x04, 0x30, 0x00,
   0x00, 0x00, 0x00, 0x00, 0x00, 0x82, 0x01, 0x00, 0x00, 0x44, 0xff, 0xff,
   0xfa, 0xff, 0x5f, 0x4a, 0xe4, 0xff, 0xff, 0xff, 0xff, 0x00, 0x00, 0xe8,
   0x2f, 0xf5, 0x17, 0x10, 0x40, 0xfa, 0x08, 0x58, 0x01, 0x00, 0x09, 0x00,
   0x00, 0x00, 0x0a, 0x01, 0xa0, 0x00, 0xa8, 0xfe, 0xff, 0xfd, 0xff, 0xff,
   0x00, 0xac, 0xff, 0xff, 0xff, 0xff, 0x00, 0x00, 0xd0, 0xbf, 0xfe, 0x0b,
   0x00, 0x82, 0xed, 0x15, 0xf0, 0x01, 0x80, 0x00, 0x00, 0x48, 0x80, 0x04,
   0x00, 0x00, 0x00, 0x85, 0xff, 0xff, 0xf7, 0xff, 0xff, 0xa4, 0xb3, 0xfe,
   0xff, 0xff, 0xff, 0x00, 0x00, 0xe8, 0x7f, 0xfd, 0x03, 0x00, 0x80, 0xfd,
   0x11, 0xf8, 0x03, 0x10, 0x02, 0x00, 0x08, 0x80, 0x00, 0x02, 0x48, 0x00,
   0x28, 0xff, 0xff, 0xcf, 0xff, 0xff, 0x27, 0xd5, 0xf4, 0xff, 0xff, 0xff,
   0x00, 0x00, 0xf1, 0xff, 0xfa, 0x03, 0x00, 0x10, 0xab, 0x06, 0xf0, 0x02,
   0x40, 0x08, 0x00, 0x00, 0x00, 0x00, 0x02, 0x90, 0x00, 0x80, 0xff, 0xff,
   0xdb, 0xff, 0xff, 0xff, 0x4a, 0xd5, 0xff, 0xff, 0xff, 0x00, 0x00, 0xe8,
   0xff, 0xff, 0x01, 0x00, 0x00, 0xfe, 0x1b, 0xf0, 0x2b, 0x40, 0x01, 0x00,
   0x05, 0x00, 0x01, 0x02, 0x00, 0x00, 0x28, 0xfc, 0xff, 0x5b, 0xff, 0xff,
   0xdf, 0x5d, 0xb5, 0xfe, 0xff, 0xff, 0x00, 0x80, 0xee, 0xff, 0xff, 0x01,
   0x00, 0x40, 0x57, 0x05, 0x78, 0x15, 0x15, 0x00, 0x00, 0x00, 0x00, 0x00,
   0x04, 0xa0, 0x08, 0xc1, 0xff, 0xff, 0x97, 0xfd, 0xff, 0xff, 0xbb, 0x4d,
   0xf5, 0xff, 0xff, 0x00, 0x80, 0xfc, 0xff, 0xff, 0x01, 0x00, 0x00, 0xfc,
   0x57, 0xf1, 0x22, 0x50, 0x00, 0x40, 0x01, 0x80, 0x00, 0x04, 0x04, 0x00,
   0x94, 0xf4, 0xff, 0xb7, 0xf6, 0xff, 0xff, 0x7f, 0xbb, 0x96, 0xfc, 0xff,
   0x00, 0x80, 0xbe, 0xfe, 0xff, 0x00, 0x00, 0x02, 0xe9, 0x0b, 0x6a, 0xa8,
   0x02, 0x00, 0x00, 0x00, 0x00, 0x80, 0x03, 0x50, 0x50, 0x65, 0xfb, 0xff,
   0x6f, 0xdd, 0xff, 0xff, 0x7f, 0x57, 0xb5, 0xd2, 0xff, 0x00, 0x80, 0xff,
   0xfd, 0xff, 0x00, 0x00, 0x00, 0xbd, 0xdf, 0x74, 0xa9, 0x2a, 0x00, 0x80,
   0x00, 0x00, 0x00, 0x06, 0x50, 0xd5, 0xaa, 0xea, 0xff, 0xdb, 0xfa, 0xff,
   0xff, 0xff, 0x5f, 0x55, 0x25, 0xfc, 0x00, 0x80, 0xff, 0xfe, 0xff, 0x00,
   0x00, 0x00, 0xf0, 0x2b, 0x75, 0xaa, 0x08, 0x00, 0x00, 0x00, 0x00, 0xc8,
   0x05, 0xe9, 0x54, 0xbb, 0xb5, 0xbf, 0xae, 0x6a, 0xff, 0xff, 0xff, 0x6b,
   0x55, 0xc9, 0xa5, 0x00, 0x80, 0xff, 0xfb, 0xff, 0x01, 0x00, 0x00, 0xa0,
   0xaf, 0xea, 0x6a, 0x09, 0x00, 0x00, 0x00, 0x00, 0x00, 0x07, 0xe9, 0xf2,
   0xb7, 0xed, 0xf7, 0xab, 0xea, 0xff, 0xff, 0xff, 0x7f, 0xb5, 0x2a, 0x45,
   0x00, 0xa0, 0xbf, 0xfd, 0xff, 0x01, 0x00, 0x00, 0xc2, 0x3f, 0xb5, 0xbb,
   0x02, 0x00, 0x00, 0x00, 0x00, 0xc0, 0x16, 0xe8, 0x55, 0xfb, 0xde, 0xbf,
   0xb7, 0xad, 0xff, 0xff, 0xff, 0xff, 0x26, 0xe9, 0xaa, 0x00, 0xc0, 0xff,
   0xff, 0xbf, 0x02, 0x00, 0x00, 0x80, 0x3e, 0x6a, 0xb7, 0x04, 0x00, 0x00,
   0x00, 0x00, 0x80, 0x4a, 0xb2, 0xea, 0xd7, 0xf5, 0xff, 0x6d, 0xeb, 0xff,
   0xff, 0xff, 0xff, 0x6f, 0x8b, 0x2a, 0x00, 0xe0, 0x7f, 0xff, 0x5f, 0x00,
   0x00, 0x20, 0xa8, 0x7b, 0xe8, 0x4d, 0x01, 0x00, 0x00, 0x00, 0x00, 0x41,
   0x0d, 0xf4, 0xff, 0xdf, 0x6f, 0xbf, 0xd2, 0x5a, 0xff, 0xff, 0xff, 0xff,
   0x55, 0x51, 0xa5, 0x00, 0xc0, 0xff, 0xff, 0xbf, 0x08, 0x00, 0x00, 0x00,
   0xfe, 0xa8, 0x03, 0x00, 0x00, 0x00, 0x00, 0x00, 0x14, 0x95, 0xb4, 0xff,
   0xbf, 0x7d, 0xff, 0x56, 0xeb, 0xff, 0xff, 0xff, 0xff, 0x5f, 0x2b, 0x25,
   0x00, 0xf0, 0xff, 0xff, 0x5f, 0x02, 0x04, 0x00, 0x41, 0xed, 0xa1, 0x0a,
   0x00, 0x00, 0x00, 0x00, 0x28, 0xab, 0x0c, 0xf4, 0xff, 0xff, 0xd6, 0xbf,
   0xb5, 0xbd, 0xff, 0xff, 0xff, 0xff, 0xbf, 0x56, 0x55, 0x00, 0xe0, 0xff,
   0xff, 0x5f, 0x00, 0x00, 0x02, 0x0a, 0xb8, 0xa7, 0x02, 0x00, 0x00, 0x00,
   0x00, 0x50, 0x15, 0x0d, 0xfc, 0xff, 0xaf, 0xda, 0x7e, 0x69, 0xf7, 0xff,
   0xff, 0xff, 0xff, 0xff, 0x55, 0x52, 0x00, 0xf0, 0xff, 0xff, 0x5f, 0x12,
   0x00, 0x40, 0x28, 0xf4, 0x81, 0x05, 0x00, 0x00, 0x00, 0x00, 0x54, 0x25,
   0x9a, 0xf8, 0xff, 0xff, 0xef, 0xff, 0xad, 0xbd, 0xff, 0xff, 0xff, 0xff,
   0xff, 0x57, 0x54, 0x00, 0xf0, 0xff, 0xff, 0x1f, 0x00, 0x40, 0x04, 0x01,
   0xb0, 0x57, 0x05, 0x00, 0x00, 0x90, 0x00, 0xf4, 0x0a, 0x3e, 0xfa, 0xff,
   0x5b, 0xbd, 0xff, 0xb5, 0xff, 0xff, 0xff, 0xff, 0xff, 0xff, 0x5f, 0x45,
   0x00, 0xf0, 0xff, 0xff, 0x2b, 0x10, 0x08, 0x10, 0x04, 0xfa, 0xcb, 0x02,
   0x00, 0x00, 0x00, 0x00, 0x58, 0x01, 0x5a, 0xfa, 0xff, 0xef, 0xf7, 0xff,
   0xfb, 0xfe, 0xff, 0xff, 0xff, 0xff, 0xff, 0x6f, 0x35, 0x00, 0xf0, 0xff,
   0xff, 0x5f, 0x42, 0x21, 0x02, 0x20, 0x60, 0x4f, 0x00, 0x00, 0x00, 0x80,
   0x00, 0x72, 0x01, 0xbd, 0xfa, 0xff, 0xad, 0xfe, 0x7f, 0xdf, 0xdb, 0xff,
   0xff, 0xff, 0xff, 0xff, 0xff, 0x4b, 0x00, 0xf0, 0xff, 0xff, 0x17, 0x08,
   0x00, 0x00, 0x80, 0xd0, 0x2d, 0x00, 0x00, 0x00, 0x10, 0x22, 0xf9, 0x00,
   0xbd, 0xfe, 0xbf, 0xfe, 0xff, 0xff, 0xfd, 0xff, 0xff, 0xff, 0xff, 0xff,
   0xff, 0x7f, 0x95, 0x00, 0xf0, 0xff, 0xff, 0xff, 0x50, 0x45, 0x21, 0x00,
   0xa2, 0x3f, 0x00, 0x00, 0x00, 0x42, 0x54, 0xe2, 0xab, 0x3d, 0xfd, 0xef,
   0xdb, 0xff, 0xff, 0xff, 0xff, 0xff, 0xff, 0xff, 0xff, 0xff, 0xff, 0xbb,
   0x00, 0xf0, 0xff, 0xff, 0x17, 0x01, 0x12, 0x04, 0x51, 0x41, 0x15, 0x00,
   0x00, 0x40, 0x84, 0xaa, 0xfd, 0x7f, 0xbf, 0xfa, 0xb5, 0xee, 0xff, 0xff,
   0x7f, 0xff, 0xff, 0xff, 0xff, 0xff, 0xff, 0xff, 0xaf, 0x00, 0xf0, 0xff,
   0xff, 0x7f, 0x4a, 0x82, 0x10, 0x20, 0x85, 0x35, 0x00, 0x00, 0x40, 0x95,
   0xaa, 0xf5, 0xff, 0x7e, 0xff, 0xad, 0x5a, 0xff, 0xff, 0xff, 0xff, 0xff,
   0xff, 0xff, 0xff, 0xff, 0xff, 0xff, 0x00, 0xe0, 0xff, 0xff, 0xb7, 0x88,
   0x48, 0x24, 0x8a, 0x00, 0x23, 0x00, 0x00, 0x54, 0xb5, 0x7d, 0xff, 0xff,
   0xbf, 0xfe, 0xd5, 0xad, 0xff, 0xff, 0xff, 0xff, 0xff, 0xff, 0xff, 0xff,
   0xff, 0xff, 0xff, 0x00, 0xf0, 0xff, 0xff, 0xbf, 0x12, 0x12, 0xa1, 0xa8,
   0xaa, 0x0e, 0x00, 0x00, 0xa9, 0xfe, 0xef, 0xfa, 0xff, 0xff, 0xfd, 0x5f,
   0xb5, 0xff, 0xff, 0xff, 0xff, 0xff, 0xff, 0xff, 0xff, 0xff, 0xff, 0xff,
   0x00, 0xf0, 0xff, 0x7f, 0x4a, 0x89, 0x44, 0x8a, 0x12, 0x55, 0x51, 0x00,
   0xa8, 0xf4, 0xea, 0xfa, 0xfb, 0xff, 0xff, 0x6f, 0x55, 0xeb, 0xfe, 0xff,
   0xff, 0xff, 0xff, 0xff, 0xff, 0xff, 0xff, 0xff, 0xff, 0x00, 0xf0, 0xff,
   0xff, 0xb7, 0x12, 0x51, 0x10, 0x54, 0xd0, 0x06, 0x00, 0x52, 0xaf, 0xdf,
   0x6f, 0xff, 0xff, 0xff, 0xfe, 0xff, 0xec, 0xff, 0xff, 0xff, 0xff, 0xff,
   0xff, 0xff, 0xff, 0xff, 0xff, 0xff, 0x00, 0xf0, 0xff, 0xbf, 0xa9, 0x42,
   0x44, 0x49, 0x85, 0xaa, 0x22, 0xa0, 0xee, 0x76, 0xbb, 0xfd, 0xfd, 0xff,
   0xff, 0xff, 0xaa, 0xfb, 0xff, 0xff, 0xff, 0xff, 0xff, 0xff, 0xff, 0xff,
   0xff, 0xff, 0xff, 0x00, 0xf0, 0xff, 0xff, 0x57, 0x15, 0x11, 0x10, 0x29,
   0x55, 0x01, 0xaa, 0xda, 0xee, 0x77, 0xaf, 0xff, 0xff, 0xff, 0xdf, 0xff,
   0xae, 0xff, 0xff, 0xff, 0xff, 0xff, 0xff, 0xff, 0xff, 0xff, 0xff, 0xff,
   0x00, 0xe0, 0xff, 0xff, 0xaa, 0xa2, 0x44, 0x85, 0x44, 0xaa, 0xa0, 0xf6,
   0x6d, 0x5b, 0xad, 0xfd, 0xfe, 0xbf, 0xfd, 0xff, 0xb7, 0xfb, 0xff, 0xff,
   0xff, 0xff, 0xff, 0xff, 0xff, 0xff, 0xff, 0xff, 0xff, 0x00, 0xf0, 0xff,
   0xff, 0x57, 0x95, 0x14, 0x88, 0x94, 0x90, 0x8a, 0x56, 0x6d, 0xdb, 0x75,
   0xdb, 0xfe, 0x77, 0xfb, 0x7f, 0x6d, 0xfe, 0xff, 0xff, 0xff, 0xff, 0xff,
   0xff, 0xff, 0xff, 0xff, 0xff, 0xff, 0x00, 0xe0, 0xff, 0xff, 0xaa, 0x2a,
   0x88, 0x14, 0x51, 0x4a, 0x54, 0xbd, 0xfb, 0xb6, 0xaf, 0xf5, 0xfd, 0xdf,
   0xf6, 0xdf, 0xfb, 0xf5, 0xff, 0xff, 0xff, 0xff, 0xff, 0xff, 0xff, 0xff,
   0xff, 0xff, 0xff, 0x00, 0xf0, 0xff, 0xff, 0x4f, 0x55, 0x89, 0x20, 0x44,
   0x81, 0xa9, 0x6a, 0xad, 0xeb, 0xfd, 0xaf, 0xff, 0xdf, 0xfd, 0xdf, 0xae,
   0xef, 0xff, 0xff, 0xff, 0xff, 0xff, 0xff, 0xff, 0xff, 0xff, 0xff, 0xff,
   0x00, 0xf0, 0xff, 0xff, 0xbf, 0x85, 0x20, 0x44, 0x12, 0x2a, 0xaa, 0xf6,
   0xfb, 0xfe, 0xaf, 0xff, 0xff, 0x77, 0xfd, 0xbf, 0xfb, 0xfe, 0xff, 0xff,
   0xff, 0xff, 0xff, 0xff, 0xff, 0xff, 0xff, 0xff, 0xff, 0x00, 0xf0, 0xff,
   0xff, 0x7b, 0xb5, 0x8a, 0x10, 0x50, 0xa8, 0x52, 0xbd, 0xff, 0xbf, 0xfd,
   0xbd, 0xff, 0xdf, 0xeb, 0xbf, 0xd6, 0xed, 0xff, 0xff, 0xff, 0xff, 0xff,
   0xff, 0xff, 0xff, 0xff, 0xff, 0xff, 0x00, 0xf0, 0xff, 0xff, 0xff, 0x96,
   0x24, 0x45, 0x05, 0x41, 0x55, 0xf7, 0xff, 0xed, 0xb6, 0xff, 0xff, 0x7f,
   0xb7, 0xff, 0xad, 0xfd, 0xff, 0xff, 0xff, 0xff, 0xff, 0xff, 0xee, 0xff,
   0xff, 0xff, 0xff, 0x00, 0xe0, 0xff, 0xff, 0xdf, 0x2b, 0x09, 0x08, 0x00,
   0xaa, 0x52, 0xfd, 0xb7, 0xdf, 0xff, 0xf7, 0xff, 0xff, 0xff, 0xbf, 0xab,
   0xed, 0xff, 0xff, 0xff, 0xff, 0xff, 0xff, 0x5d, 0xff, 0xff, 0xff, 0xff,
   0x00, 0xe0, 0xff, 0xff, 0x7f, 0xad, 0xaa, 0x52, 0x80, 0x24, 0xe5, 0xfe,
   0xdd, 0xb6, 0xd5, 0xde, 0xff, 0xf7, 0x57, 0xef, 0xf6, 0xff, 0xff, 0xff,
   0xff, 0xff, 0xff, 0x5f, 0xf7, 0xfa, 0xff, 0xff, 0xff, 0x00, 0xe0, 0xff,
   0xff, 0xff, 0xbb, 0xa4, 0x44, 0x25, 0x09, 0xc1, 0xff, 0xdb, 0x7d, 0xbf,
   0xff, 0x7f, 0xff, 0xff, 0xbd, 0x55, 0xff, 0xff, 0xff, 0xff, 0xff, 0xff,
   0xd7, 0xad, 0x95, 0xff, 0xff, 0xff, 0x00, 0xc0, 0xff, 0xff, 0xff, 0x5f,
   0x4b, 0x12, 0x90, 0x10, 0xf4, 0xbf, 0x7f, 0xab, 0xf5, 0xde, 0xfe, 0xdf,
   0xff, 0xf7, 0xfe, 0xff, 0xff, 0xff, 0xff, 0xff, 0xff, 0x52, 0x7b, 0x2d,
   0xff, 0xff, 0xff, 0x00, 0xf0, 0xff, 0xff, 0xff, 0xff, 0xaa, 0xaa, 0x92,
   0x42, 0xe1, 0xff, 0x6a, 0xbb, 0xca, 0xfb, 0xdb, 0xfd, 0xff, 0xde, 0xff,
   0xff, 0xff, 0xff, 0xff, 0xff, 0xff, 0x77, 0x6a, 0x2b, 0xfc, 0xff, 0xff,
   0x00, 0xf0, 0xff, 0xff, 0xff, 0x5f, 0x55, 0x10, 0x25, 0x24, 0xea, 0xc7,
   0xfb, 0x16, 0x92, 0xde, 0x7e, 0x77, 0xbb, 0xff, 0xff, 0xff, 0xff, 0xff,
   0xff, 0xff, 0xbf, 0xae, 0xd5, 0xd6, 0xfe, 0xff, 0xff, 0x00, 0xf0, 0xff,
   0xff, 0xdf, 0x7f, 0xaf, 0x55, 0x49, 0x01, 0xea, 0xdf, 0xd3, 0x77, 0x92,
   0xd0, 0xed, 0xef, 0xff, 0xff, 0xff, 0xff, 0xff, 0xff, 0xff, 0xff, 0xef,
   0x35, 0xad, 0x8a, 0x68, 0xff, 0xff, 0x00, 0xf0, 0xff, 0xff, 0xff, 0xff,
   0x2a, 0x42, 0x2a, 0x92, 0xb4, 0xcb, 0xa7, 0x2e, 0x00, 0x82, 0xb6, 0x7e,
   0xfb, 0xf7, 0xff, 0xff, 0xff, 0xff, 0xff, 0xff, 0x5b, 0x55, 0xa9, 0x2c,
   0xe8, 0xff, 0xff, 0x00, 0xf0, 0xff, 0xff, 0xff, 0xff, 0xd6, 0x94, 0x44,
   0x20, 0x75, 0xdf, 0x0f, 0x7d, 0x11, 0x10, 0xfc, 0xd5, 0xf7, 0xff, 0xff,
   0xff, 0xff, 0xff, 0xff, 0xff, 0x5b, 0x55, 0x25, 0xa9, 0x89, 0xfa, 0x7f,
   0x00, 0xf0, 0xff, 0xff, 0xff, 0xbf, 0x95, 0x52, 0x9a, 0x94, 0xea, 0xcb,
   0x4f, 0xac, 0x00, 0x80, 0x6a, 0x5f, 0xde, 0xef, 0xff, 0xff, 0xff, 0x5f,
   0xfe, 0xff, 0x56, 0xab, 0x4a, 0x29, 0x52, 0x9a, 0x5a, 0x00, 0xe0, 0xff,
   0xff, 0xff, 0xff, 0xad, 0x44, 0xa1, 0x24, 0xd5, 0xf7, 0x9f, 0xb8, 0x43,
   0x02, 0xe8, 0xfa, 0xf5, 0xff, 0xff, 0xff, 0xff, 0x07, 0xa8, 0xfe, 0xdd,
   0xb6, 0xaa, 0x6a, 0x8a, 0x28, 0xb2, 0x00, 0xe0, 0xff, 0xff, 0xff, 0x5f,
   0x2b, 0x29, 0x0a, 0x49, 0x7d, 0xe7, 0x17, 0x69, 0x05, 0x00, 0x59, 0x57,
   0xd5, 0xca, 0xff, 0xff, 0xff, 0x01, 0x40, 0xbf, 0x6b, 0x6b, 0x95, 0xa4,
   0x52, 0xa5, 0x55, 0x00, 0xe0, 0xff, 0xff, 0xff, 0x7f, 0x55, 0x8a, 0x54,
   0xaa, 0xea, 0xef, 0x17, 0x72, 0xa9, 0x24, 0x61, 0x6d, 0xab, 0xb5, 0xff,
   0xff, 0xff, 0x01, 0x80, 0x76, 0xaf, 0x5a, 0xb5, 0x8a, 0x12, 0x55, 0x45,
   0x00, 0xf0, 0xff, 0xff, 0xff, 0xef, 0xaa, 0x28, 0xa5, 0xaa, 0xf5, 0xef,
   0x2f, 0x78, 0x05, 0x11, 0xd4, 0x5b, 0xad, 0xaa, 0xfe, 0xff, 0x7f, 0x00,
   0x80, 0xff, 0x75, 0x57, 0x15, 0x25, 0x2b, 0x55, 0x55, 0x00, 0xf0, 0xff,
   0xff, 0xff, 0xbb, 0x95, 0xa2, 0xa8, 0xaa, 0xfe, 0xdf, 0xbb, 0xe4, 0x2a,
   0xa2, 0x28, 0xab, 0x4a, 0x69, 0xfb, 0xff, 0xc7, 0x00, 0x00, 0xee, 0xdf,
   0x54, 0x6a, 0x55, 0x44, 0x54, 0xd5, 0x00, 0xe0, 0xff, 0xff, 0xff, 0x6f,
   0x25, 0x95, 0xaa, 0xfa, 0xff, 0xd7, 0x6f, 0xe9, 0x55, 0x0a, 0xd5, 0xaa,
   0x52, 0xdf, 0xfd, 0xff, 0x53, 0x00, 0x00, 0xbe, 0x55, 0xab, 0x2a, 0x55,
   0xab, 0x55, 0x55, 0x00, 0xf0, 0xff, 0xff, 0xff, 0xdf, 0xaa, 0xa4, 0xaa,
   0xaa, 0xfd, 0xff, 0x6b, 0x9b, 0x4a, 0x68, 0xaa, 0xa5, 0xaa, 0xda, 0xfd,
   0xff, 0x30, 0x00, 0x00, 0xf8, 0x77, 0x52, 0x6b, 0x25, 0x49, 0xaa, 0xaa,
   0x00, 0xe0, 0xff, 0xff, 0xff, 0xbf, 0x4a, 0x55, 0xab, 0xf6, 0xff, 0xd7,
   0x5b, 0x55, 0x55, 0x91, 0x74, 0xab, 0xf6, 0xbf, 0xff, 0x7f, 0x14, 0x00,
   0x00, 0x78, 0x5b, 0xab, 0x4a, 0xc5, 0xaa, 0x4a, 0xd5, 0x00, 0xe0, 0xff,
   0xff, 0xff, 0xfd, 0xaa, 0xda, 0x6a, 0x7d, 0xff, 0xdf, 0xa7, 0xbf, 0x95,
   0xa6, 0x4d, 0xad, 0xa5, 0x75, 0xfd, 0x7f, 0x18, 0x00, 0x00, 0xf0, 0x77,
   0xb5, 0x52, 0x9d, 0x2a, 0x49, 0x54, 0x00, 0xc0, 0xff, 0xff, 0xff, 0xbf,
   0x6a, 0xab, 0xb6, 0xf7, 0xff, 0xff, 0x5f, 0x75, 0x6d, 0x54, 0xb5, 0x54,
   0xdd, 0xdf, 0xff, 0xbf, 0x07, 0x00, 0x00, 0xe0, 0xdf, 0x57, 0xad, 0x61,
   0x55, 0xaa, 0x6d, 0x00, 0xc0, 0xff, 0xff, 0xff, 0xff, 0xaa, 0xea, 0xee,
   0xde, 0xff, 0xaf, 0xbe, 0xee, 0xd5, 0x6a, 0x97, 0xab, 0xb6, 0xfb, 0xff,
   0x7f, 0x0f, 0x00, 0x00, 0xd0, 0xff, 0xda, 0x3a, 0x57, 0xa5, 0x24, 0x55,
   0x00, 0x80, 0xff, 0xff, 0xff, 0x7f, 0x55, 0xb5, 0xbb, 0xfb, 0xff, 0x6f,
   0x5d, 0xb8, 0xaa, 0xb6, 0x55, 0x6c, 0xed, 0xfe, 0xff, 0xff, 0x02, 0x00,
   0x00, 0xf0, 0xdf, 0xed, 0xee, 0xaa, 0x5a, 0x5d, 0x53, 0x00, 0x00, 0xff,
   0xff, 0xff, 0xff, 0xb6, 0x6d, 0xd7, 0xfe, 0xff, 0x7f, 0x3d, 0x51, 0xab,
   0xaa, 0x9f, 0xed, 0xdd, 0xfe, 0xff, 0x7f, 0x02, 0x00, 0x00, 0xf8, 0xff,
   0xdf, 0xdb, 0x56, 0xb5, 0xb5, 0xae, 0x00, 0x00, 0xfe, 0xff, 0xff, 0x7f,
   0x55, 0xeb, 0xbe, 0xb7, 0xff, 0xaf, 0x74, 0xd4, 0xae, 0xea, 0x6a, 0xbd,
   0xf7, 0xff, 0xff, 0x3f, 0x00, 0x00, 0x00, 0xfc, 0xff, 0xff, 0x76, 0xff,
   0xaf, 0xa6, 0x52, 0x00, 0x00, 0xfe, 0xff, 0xff, 0xff, 0x6d, 0xdd, 0xf5,
   0x76, 0xff, 0xef, 0xd5, 0x54, 0xad, 0xde, 0xee, 0xb5, 0xde, 0xff, 0xff,
   0x3f, 0x00, 0x00, 0x00, 0xf8, 0xff, 0xfb, 0xdf, 0x6d, 0xfd, 0xfd, 0xfb,
   0x00, 0x00, 0xfe, 0xff, 0xff, 0xff, 0x5a, 0xb7, 0xdf, 0xdd, 0xff, 0xbf,
   0xaa, 0xaa, 0xd6, 0xb5, 0x5b, 0xef, 0xff, 0xff, 0xff, 0x3f, 0x00, 0x00,
   0x00, 0xf8, 0xff, 0xdf, 0x76, 0xbf, 0xd7, 0xb6, 0x6d, 0x00, 0x00, 0xfc,
   0xff, 0xff, 0x7f, 0x57, 0xf5, 0x5a, 0xb7, 0xfc, 0xef, 0xab, 0xab, 0x36,
   0xeb, 0x56, 0xfd, 0xff, 0xff, 0xff, 0x3f, 0x00, 0x00, 0x00, 0xf0, 0xff,
   0xff, 0xef, 0xe9, 0xde, 0xbf, 0xff, 0x00, 0x00, 0xfe, 0xff, 0xff, 0xff,
   0xfa, 0xae, 0xff, 0xaa, 0xfb, 0xbf, 0xd6, 0xaa, 0xd4, 0xaa, 0x55, 0xf7,
   0xff, 0xff, 0xff, 0x0f, 0x00, 0x00, 0x00, 0xf0, 0xff, 0xff, 0xff, 0xff,
   0xff, 0xfd, 0xfd, 0x00, 0x00, 0xf8, 0xff, 0xff, 0xff, 0xab, 0x7a, 0xab,
   0x5b, 0xf6, 0xff, 0xad, 0x96, 0x54, 0x95, 0x6a, 0xfe, 0xff, 0xff, 0xff,
   0x1f, 0x00, 0x00, 0x00, 0xe0, 0xff, 0xff, 0xff, 0xdf, 0xdf, 0xff, 0xff,
   0x00, 0x00, 0xf8, 0xff, 0xff, 0xff, 0xee, 0xeb, 0xde, 0xb6, 0xfa, 0x5f,
   0xb5, 0x45, 0x52, 0xa5, 0xda, 0xff, 0xff, 0xff, 0xff, 0x0b, 0x00, 0x00,
   0x00, 0xe0, 0xff, 0xff, 0xff, 0xff, 0xff, 0xff, 0xff, 0x00, 0x00, 0xf0,
   0xfb, 0xff, 0xff, 0x55, 0xd6, 0xf5, 0x2d, 0x55, 0xbd, 0x6f, 0x0b, 0xaa,
   0x2a, 0xd4, 0xff, 0xff, 0xff, 0xff, 0x07, 0x00, 0x00, 0x00, 0xc0, 0xff,
   0xff, 0xff, 0x7f, 0xff, 0xff, 0xff, 0x00, 0x00, 0xf0, 0xfe, 0xff, 0xff,
   0xda, 0xae, 0x57, 0x2b, 0xd0, 0xfa, 0x92, 0xa4, 0x20, 0x54, 0xfd, 0xff,
   0xff, 0xff, 0xff, 0x00, 0x00, 0x00, 0x00, 0xc0, 0xff, 0xff, 0xff, 0xff,
   0xff, 0xff, 0xff, 0x00, 0x00, 0xc0, 0xff, 0xff, 0xff, 0xd5, 0x6a, 0xbd,
   0xee, 0x82, 0x7f, 0x2d, 0x89, 0xca, 0xaa, 0xfb, 0xff, 0xff, 0xff, 0x7f,
   0x00, 0x00, 0x00, 0x00, 0x80, 0xff, 0xff, 0xfb, 0xff, 0xfe, 0xff, 0xff,
   0x00, 0x00, 0x80, 0xfd, 0xff, 0xdf, 0xab, 0xd6, 0xe2, 0x1a, 0xa0, 0xbe,
   0x52, 0x52, 0x12, 0xf5, 0xfe, 0xff, 0xff, 0xff, 0x3f, 0x00, 0x00, 0x00,
   0x00, 0x80, 0xff, 0xed, 0xff, 0xff, 0xff, 0xff, 0xff, 0x00, 0x00, 0x00,
   0xff, 0xff, 0x7f, 0x55, 0x95, 0x96, 0xf7, 0x8a, 0x6c, 0x4d, 0x82, 0x54,
   0xdd, 0xdf, 0xff, 0xff, 0xff, 0x3f, 0x00, 0x00, 0x00, 0x00, 0x00, 0xee,
   0x7f, 0xb7, 0xff, 0xff, 0xff, 0xff, 0x00, 0x00, 0x40, 0xfd, 0xff, 0xbf,
   0x52, 0x55, 0x69, 0xad, 0x52, 0xaa, 0xb6, 0x74, 0xd5, 0xf7, 0xaf, 0xff,
   0xff, 0xff, 0x3f, 0x00, 0x00, 0x00, 0x00, 0x00, 0xff, 0xff, 0xff, 0xfe,
   0xff, 0xff, 0xff, 0x00, 0x00, 0x00, 0xfc, 0xff, 0xff, 0x12, 0x45, 0x4b,
   0xad, 0x52, 0x55, 0x55, 0x95, 0xaa, 0xff, 0xff, 0xff, 0xff, 0xff, 0x3f,
   0x00, 0x00, 0x00, 0x00, 0x00, 0xfc, 0xb6, 0xde, 0x7f, 0xfd, 0xbf, 0xff,
   0x00, 0x00, 0x00, 0xf0, 0xff, 0xaf, 0xaa, 0xa8, 0x88, 0x75, 0x4d, 0x55,
   0xb5, 0x55, 0xff, 0xff, 0xaf, 0xff, 0xff, 0xff, 0x11, 0x00, 0x00, 0x00,
   0x00, 0x00, 0xde, 0xff, 0x7b, 0xfb, 0xf7, 0xff, 0xff, 0x00, 0x00, 0x00,
   0xe0, 0xff, 0xfb, 0x8b, 0x82, 0x32, 0xd5, 0x55, 0xd5, 0xaa, 0x76, 0xf5,
   0xff, 0xfd, 0xff, 0xff, 0x7f, 0x00, 0x00, 0x00, 0x00, 0x00, 0x00, 0xf8,
   0xfe, 0xff, 0x77, 0xed, 0xbf, 0xff, 0x00, 0x00, 0x00, 0xe0, 0xff, 0x2f,
   0x2a, 0x54, 0xa4, 0xb6, 0x2a, 0xbd, 0xed, 0xda, 0xff, 0xff, 0xd7, 0xff,
   0xff, 0x7f, 0x00, 0x00, 0x00, 0x00, 0x00, 0x00, 0xf8, 0xf7, 0xf7, 0xbf,
   0xb7, 0xff, 0xff, 0x00, 0x00, 0x00, 0xc0, 0xff, 0xff, 0x5a, 0x89, 0x68,
   0xad, 0x6a, 0xf3, 0xfd, 0x7f, 0xff, 0xff, 0xff, 0xff, 0xff, 0x3f, 0x00,
   0x00, 0x00, 0x00, 0x00, 0x00, 0xf0, 0x5f, 0xbf, 0x7e, 0x7f, 0xff, 0xff,
   0x00, 0x00, 0x00, 0xe0, 0xff, 0xff, 0xf7, 0x36, 0xd5, 0xfa, 0xff, 0xdf,
   0xff, 0xff, 0xff, 0xff, 0xff, 0xff, 0xff, 0x3f, 0x00, 0x00, 0x00, 0x00,
   0x00, 0x00, 0xb8, 0xff, 0xfd, 0xef, 0xff, 0xff, 0xff, 0x00, 0x00, 0x00,
   0xc0, 0xff, 0xff, 0xff, 0xaf, 0xd5, 0xaf, 0xd7, 0xfe, 0xff, 0xff, 0xff,
   0xff, 0xff, 0xff, 0xff, 0x3f, 0x00, 0x00, 0x00, 0x00, 0x00, 0x00, 0x70,
   0xdb, 0xdf, 0x7d, 0xef, 0x75, 0xff, 0x00, 0x00, 0x00, 0x00, 0xff, 0xff,
   0xff, 0xff, 0xff, 0xfb, 0xff, 0xff, 0xff, 0xff, 0xff, 0xff, 0xff, 0xff,
   0xff, 0x3f, 0x00, 0x00, 0x00, 0x00, 0x00, 0x00, 0xf0, 0x7f, 0xfb, 0xef,
   0xbf, 0xdf, 0xff, 0x00, 0x00, 0x00, 0x00, 0xfe, 0xff, 0xff, 0xff, 0xff,
   0xff, 0xff, 0xff, 0xff, 0xff, 0xff, 0xff, 0xff, 0xff, 0xff, 0x1f, 0x00,
   0x00, 0x00, 0x00, 0x00, 0x00, 0xe0, 0xeb, 0x5f, 0xef, 0xfe, 0xbd, 0xfd,
   0x00, 0x00, 0x00, 0x00, 0xf8, 0xff, 0xff, 0xff, 0xff, 0xff, 0xff, 0xff,
   0xff, 0xff, 0xff, 0xff, 0xff, 0xff, 0xff, 0x1f, 0x00, 0x00, 0x00, 0x00,
   0x00, 0x00, 0xe0, 0xbf, 0xfa, 0xfd, 0x7f, 0xff, 0xff, 0x00, 0x00, 0x00,
   0x00, 0xf0, 0xff, 0xff, 0xff, 0xff, 0xff, 0xff, 0xff, 0xff, 0xff, 0xff,
   0xff, 0xff, 0xff, 0xff, 0x0f, 0x00, 0x00, 0x00, 0x00, 0x00, 0x00, 0xc0,
   0xf7, 0xab, 0x77, 0xfb, 0xfb, 0xff, 0x00, 0x00, 0x00, 0x00, 0xe0, 0xff,
   0xff, 0xff, 0xff, 0xff, 0xff, 0xff, 0xff, 0xff, 0xff, 0xff, 0xff, 0xff,
   0xff, 0x07, 0x00, 0x00, 0x00, 0x00, 0x00, 0x00, 0x00, 0xdf, 0xfd, 0xdd,
   0xef, 0xaf, 0xff, 0x00, 0x00, 0x00, 0x00, 0x80, 0xff, 0xff, 0xff, 0xff,
   0xff, 0xff, 0xff, 0xff, 0xff, 0xff, 0xff, 0xff, 0xff, 0xff, 0x07, 0x00,
   0x00, 0x00, 0x00, 0x00, 0x00, 0x00, 0xb8, 0xab, 0xf7, 0xfb, 0xff, 0xfa,
   0x00, 0x00, 0x00, 0x00, 0x00, 0xff, 0xff, 0xff, 0xff, 0xff, 0xff, 0xff,
   0xff, 0xff, 0xff, 0xff, 0xff, 0xff, 0xff, 0x03, 0x00, 0x00, 0x00, 0x00,
   0x00, 0x00, 0x00, 0xf8, 0xf6, 0xbf, 0xaf, 0xff, 0xff, 0x00, 0x00, 0x00,
   0x00, 0x00, 0xf8, 0xff, 0xff, 0xff, 0xff, 0xff, 0xff, 0xff, 0xff, 0xf5,
   0xff, 0xff, 0xff, 0xff, 0x00, 0x00, 0x00, 0x00, 0x00, 0x00, 0x00, 0x00,
   0xe0, 0x5e, 0x75, 0xff, 0xfe, 0xff, 0x00, 0x00, 0x00, 0x00, 0x00, 0xf0,
   0xff, 0xff, 0xff, 0xff, 0xff, 0xff, 0xff, 0x6f, 0xab, 0xff, 0xff, 0xff,
   0xff, 0x00, 0x00, 0x00, 0x00, 0x00, 0x00, 0x00, 0x00, 0xe0, 0xd7, 0xdd,
   0xaf, 0xdb, 0xf5, 0x00, 0x00, 0x00, 0x00, 0x00, 0x80, 0xfe, 0xff, 0xff,
   0xff, 0xff, 0xff, 0xff, 0xfd, 0xaf, 0xff, 0xff, 0xff, 0x3f, 0x00, 0x00,
   0x00, 0x00, 0x00, 0x00, 0x00, 0x00, 0xc0, 0xbf, 0xfb, 0x7e, 0xff, 0xd7,
   0x00, 0x00, 0x00, 0x00, 0x00, 0x00, 0xf0, 0xff, 0xff, 0xff, 0xff, 0xff,
   0xff, 0xa7, 0xfe, 0xfe, 0xff, 0xff, 0x3f, 0x00, 0x00, 0x00, 0x00, 0x00,
   0x00, 0x00, 0x00, 0xc0, 0xff, 0xef, 0xff, 0xff, 0xff, 0x00, 0x00, 0x00,
   0x00, 0x00, 0x00, 0x00, 0xf5, 0xff, 0xff, 0xff, 0xff, 0xff, 0xaf, 0xfd,
   0xff, 0xff, 0xff, 0x1f, 0x00, 0x00, 0x00, 0x00, 0x00, 0x00, 0x00, 0x00,
   0x80, 0xff, 0xbf, 0x7f, 0xdf, 0xd7, 0x00, 0x00, 0x00, 0x00, 0x00, 0x00,
   0x00, 0x00, 0xff, 0xff, 0xff, 0xff, 0xff, 0x1f, 0xea, 0xff, 0xff, 0xff,
   0x07, 0x00, 0x00, 0x00, 0x00, 0x00, 0x00, 0x00, 0x00, 0x00, 0xfc, 0xff,
   0xff, 0xfb, 0xbf, 0x00, 0x00, 0x00, 0x00, 0x00, 0x00, 0x00, 0x00, 0xf8,
   0xff, 0xff, 0xff, 0xdf, 0xff, 0xe8, 0xff, 0xff, 0x8b, 0x07, 0x00, 0x00,
   0x00, 0x00, 0x00, 0x00, 0x00, 0x00, 0x00, 0xf0, 0xff, 0x7e, 0xff, 0xff,
   0x00, 0x00, 0x00, 0x00, 0x00, 0x00, 0x00, 0x00, 0xa0, 0xff, 0xdf, 0xbe,
   0x00, 0x98, 0xf7, 0xff, 0xff, 0xc0, 0x00, 0x00, 0x00, 0x00, 0x00, 0x00,
   0x00, 0x00, 0x00, 0x00, 0xc0, 0xff, 0xff, 0xdb, 0xff, 0x00, 0x00, 0x00,
   0x00, 0x00, 0x00, 0x00, 0x00, 0x00, 0xa8, 0xb5, 0xa2, 0x00, 0x00, 0xd4,
   0xff, 0x7f, 0x80, 0x00, 0x00, 0x00, 0x00, 0x00, 0x00, 0x00, 0x00, 0x00,
   0x00, 0x00, 0x7f, 0xf5, 0xbf, 0xed, 0x00, 0x00, 0x00, 0x00, 0x00, 0x00,
   0x00, 0x00, 0x00, 0x00, 0x00, 0x00, 0x00, 0x00, 0xa0, 0xfe, 0x7f, 0x50,
   0x00, 0x00, 0x00, 0x00, 0x00, 0x00, 0x00, 0x00, 0x00, 0x00, 0x00, 0xfe,
   0xdf, 0xf6, 0xff, 0x00, 0x00, 0x00, 0x00, 0x00, 0x00, 0x00, 0x00, 0x00,
   0x00, 0x00, 0x00, 0x00, 0x00, 0x00, 0xf5, 0x5f, 0x05, 0x00, 0x00, 0x00,
   0x00, 0x00, 0x00, 0x00, 0x00, 0x00, 0x00, 0x00, 0xf8, 0xfa, 0xbf, 0xf7,
   0x00, 0x00, 0x00, 0x00, 0x00, 0x00, 0x00, 0x00, 0x00, 0x00, 0x00, 0x00,
   0x00, 0x00, 0x00, 0x40, 0x60, 0x01, 0x00, 0x00, 0x00, 0x00, 0x00, 0x00,
   0x00, 0x00, 0x00, 0x00, 0x00, 0xf0, 0xab, 0xff, 0xff, 0x00, 0x00, 0x00,
   0x00, 0x00, 0x00, 0x00, 0x00, 0x00, 0x00, 0x00, 0x00, 0x00, 0x00, 0x00,
   0x00, 0x01, 0x00, 0x00, 0x00, 0x00, 0x00, 0x00, 0x00, 0x00, 0x00, 0x00,
   0x00, 0x00, 0x00, 0x6f, 0xfa, 0xff, 0x00, 0x00, 0x00, 0x00, 0x00, 0x00,
   0x00, 0x00, 0x00, 0x00, 0x00, 0x00, 0x00, 0x00, 0x00, 0x00, 0x00, 0x00,
   0x00, 0x00, 0x00, 0x00, 0x00, 0x00, 0x00, 0x00, 0x00, 0x00, 0x00, 0x00,
   0x5a, 0x97, 0xd6, 0x00, 0x00, 0x00, 0x00, 0x00, 0x00, 0x00, 0x00, 0x00,
   0x00, 0x00, 0x00, 0x00, 0x00, 0x00, 0x00, 0x00, 0x00, 0x00, 0x00, 0x00,
   0x00, 0x00, 0x00, 0x00, 0x00, 0x00, 0x00, 0x00, 0x00, 0x6a, 0x75, 0x5d,
   0x00, 0x00, 0x00, 0x00, 0x00, 0x00, 0x00, 0x00, 0x00, 0x00, 0x00, 0x00,
   0x00, 0x00, 0x00, 0x00, 0x00, 0x00, 0x00, 0x00, 0x00, 0x00, 0x00, 0x00,
   0x00, 0x00, 0x00, 0x00, 0x00, 0x00, 0xb8, 0x96, 0x29, 0x00, 0x00, 0x00,
   0x00, 0x00, 0x00, 0x00, 0x00, 0x00, 0x00, 0x00, 0x00, 0x00, 0x00, 0x00,
   0x00, 0x00, 0x00, 0x00, 0x00, 0x00, 0x00, 0x00, 0x00, 0x00, 0x00, 0x00,
   0x00, 0x00, 0x00, 0x60, 0x35, 0x6b, 0x00, 0x00, 0x00, 0x00, 0x00, 0x00,
   0x00, 0x00, 0x00, 0x00, 0x00, 0x00, 0x00, 0x00, 0x00, 0x00, 0x00, 0x00,
   0x00, 0x00, 0x00, 0x00, 0x00, 0x00, 0x00, 0x00, 0x00, 0x00, 0x00, 0x00,
   0xc0, 0x6a, 0x55, 0x00, 0x00, 0x00, 0x00, 0x00, 0x00, 0x00, 0x00, 0x00,
   0x00, 0x00, 0x00, 0x00, 0x00, 0x00, 0x00, 0x00, 0x00, 0x00, 0x00, 0x00,
   0x00, 0x00, 0x00, 0x00, 0x00, 0x00, 0x00, 0x00, 0x00, 0x80, 0x4a, 0xa5,
   0x00, 0x00, 0x00, 0x00, 0x00, 0x00, 0x00, 0x00, 0x00, 0x00, 0x00, 0x00,
   0x00, 0x00, 0x00, 0x00, 0x00, 0x00, 0x00, 0x00, 0x00, 0x00, 0x00, 0x00,
   0x00, 0x00, 0x00, 0x00, 0x00, 0x00, 0x00, 0xd4, 0xaa, 0x00, 0x00, 0x00,
   0x00, 0x00, 0x00, 0x00, 0x00, 0x00, 0x00, 0x00, 0x00, 0x00, 0x00, 0x00,
   0x00, 0x00, 0x00, 0x00, 0x00, 0x00, 0x00, 0x00, 0x00, 0x00, 0x00, 0x00,
   0x00, 0x00, 0x00, 0x00, 0x80, 0xb6, 0x00, 0x00, 0x00, 0x00, 0x00, 0x00,
   0x00, 0x00, 0x00, 0x00, 0x00, 0x00, 0x00, 0x00, 0x00, 0x00, 0x00, 0x00,
   0x00, 0x00, 0x00, 0x00, 0x00, 0x00, 0x00, 0x00, 0x00, 0x00, 0x00, 0x00,
   0x00, 0x00, 0x49, 0x00, 0x00, 0x00, 0x00, 0x00, 0x00, 0x00, 0x00, 0x00,
   0x00, 0x00, 0x00, 0x00, 0x00, 0x00, 0x00, 0x00, 0x00, 0x00, 0x00, 0x00,
   0x00, 0x00, 0x00, 0x00, 0x00, 0x00, 0x00, 0x00, 0x00, 0x00, 0x00, 0x42 };
