#define pnj17_width 264
#define pnj17_height 176
static unsigned char pnj17_bits[] = {
   0x00, 0x00, 0x00, 0x00, 0x00, 0x00, 0x00, 0x00, 0x00, 0x00, 0x00, 0x00,
   0xf8, 0xfe, 0x5b, 0xdf, 0xd7, 0x03, 0x80, 0x0a, 0x00, 0x00, 0x00, 0x00,
   0x00, 0x00, 0x00, 0x00, 0x00, 0x00, 0x00, 0x00, 0x70, 0x00, 0x00, 0x00,
   0x00, 0x00, 0x00, 0x00, 0x00, 0x00, 0x00, 0x00, 0x00, 0xd4, 0x55, 0xff,
   0xfd, 0xbf, 0x03, 0x40, 0x0a, 0x08, 0x00, 0x00, 0x00, 0x00, 0x00, 0x00,
   0x00, 0x00, 0x08, 0x01, 0x00, 0xe0, 0x00, 0x00, 0x00, 0x00, 0x00, 0x00,
   0x00, 0x00, 0x00, 0x00, 0x00, 0x00, 0x58, 0xbf, 0xd5, 0xbf, 0xfe, 0x06,
   0x00, 0x15, 0xa0, 0x00, 0x00, 0x00, 0x00, 0x00, 0x00, 0x00, 0x00, 0x00,
   0x04, 0x00, 0xf8, 0x00, 0x00, 0x00, 0x00, 0x00, 0x00, 0x00, 0x00, 0x00,
   0x00, 0x00, 0x00, 0xf4, 0xb5, 0xfd, 0xff, 0xd5, 0x0d, 0x40, 0x1e, 0x14,
   0x00, 0x41, 0x00, 0x00, 0x00, 0x00, 0x00, 0x00, 0x40, 0x80, 0x88, 0xbe,
   0x00, 0x00, 0x00, 0x00, 0x00, 0x00, 0x00, 0x00, 0x00, 0x00, 0x00, 0x00,
   0xfc, 0xfd, 0x7f, 0xff, 0xff, 0x0e, 0x42, 0x15, 0x48, 0x00, 0x94, 0x00,
   0x00, 0x00, 0x00, 0x00, 0x00, 0x00, 0x20, 0x04, 0x00, 0x00, 0x00, 0x00,
   0x00, 0x00, 0x00, 0x00, 0x00, 0x00, 0x00, 0x00, 0x00, 0xe4, 0xff, 0xff,
   0xfb, 0xfb, 0x1d, 0x08, 0x3a, 0x50, 0x15, 0xb4, 0x00, 0x00, 0x00, 0x00,
   0x00, 0x00, 0x00, 0x04, 0x10, 0xc0, 0x00, 0x00, 0x00, 0x00, 0x00, 0x00,
   0x00, 0x00, 0x00, 0x00, 0x00, 0x00, 0x7a, 0xff, 0xff, 0x6f, 0x6f, 0x1f,
   0x44, 0x6a, 0x28, 0x91, 0xa0, 0x00, 0x00, 0x00, 0x00, 0x00, 0x00, 0x00,
   0x00, 0x00, 0x38, 0x00, 0x00, 0x00, 0x00, 0x00, 0x00, 0x00, 0x00, 0x00,
   0x00, 0x00, 0x80, 0xf3, 0xff, 0x77, 0xfd, 0xfe, 0x15, 0xac, 0x7a, 0x50,
   0x2a, 0x55, 0x01, 0x00, 0x00, 0x00, 0x00, 0x00, 0x00, 0x00, 0x00, 0x06,
   0x00, 0x00, 0x00, 0x00, 0x00, 0x00, 0x00, 0x00, 0x00, 0x00, 0x00, 0xe0,
   0xfb, 0xff, 0xdd, 0xef, 0x9b, 0x1f, 0x08, 0xed, 0x20, 0x81, 0xd2, 0x03,
   0x00, 0x00, 0x00, 0x00, 0x00, 0x00, 0x10, 0x00, 0x03, 0x00, 0x00, 0x00,
   0x00, 0x00, 0x00, 0x00, 0x00, 0x00, 0x00, 0x00, 0x70, 0xf3, 0xff, 0xfb,
   0x7d, 0x7f, 0x3a, 0x98, 0x94, 0x00, 0x20, 0x12, 0x05, 0x00, 0x00, 0x00,
   0x00, 0x00, 0x00, 0x00, 0xc0, 0x03, 0x00, 0x00, 0x00, 0x00, 0x00, 0x00,
   0x00, 0x00, 0x00, 0x00, 0x00, 0xf0, 0xff, 0xbf, 0xbe, 0xf7, 0xed, 0x6a,
   0xb0, 0xd8, 0x00, 0x48, 0xd4, 0x0a, 0x00, 0x00, 0x00, 0x00, 0x00, 0x00,
   0x00, 0x80, 0x00, 0x00, 0x00, 0x00, 0x00, 0x00, 0x00, 0x00, 0x00, 0x00,
   0x00, 0x00, 0xf0, 0xfb, 0xb7, 0xe5, 0xae, 0xad, 0x6b, 0xa8, 0x92, 0x00,
   0x88, 0x52, 0x07, 0x00, 0x00, 0x00, 0x00, 0x00, 0x00, 0x00, 0x00, 0x00,
   0x00, 0x00, 0x00, 0x00, 0x00, 0x00, 0x00, 0x00, 0x00, 0x00, 0x00, 0xf0,
   0xfb, 0x5b, 0x9a, 0xfb, 0xd6, 0xd4, 0x28, 0x69, 0x01, 0x40, 0x55, 0x0d,
   0x00, 0x00, 0x00, 0x00, 0x00, 0x00, 0x00, 0x00, 0x00, 0x00, 0x00, 0x00,
   0x00, 0x00, 0x00, 0x00, 0x00, 0x00, 0x00, 0x00, 0xe8, 0xff, 0xb6, 0x72,
   0xd7, 0xbd, 0xdd, 0x68, 0x42, 0x00, 0x00, 0xa9, 0x1a, 0x00, 0x00, 0x00,
   0x00, 0x00, 0x00, 0x00, 0x00, 0x00, 0x00, 0x00, 0x00, 0x00, 0x00, 0x00,
   0x00, 0x00, 0x00, 0x00, 0x00, 0xf0, 0xef, 0x05, 0xac, 0x7d, 0xd7, 0xba,
   0xb0, 0x52, 0x01, 0x50, 0x68, 0x17, 0x00, 0x00, 0x00, 0x00, 0x00, 0x00,
   0x00, 0x00, 0x00, 0x00, 0x00, 0x00, 0x00, 0x00, 0x00, 0x00, 0x00, 0x00,
   0x00, 0x00, 0xf8, 0x5e, 0x55, 0xb2, 0xd5, 0x7a, 0xe7, 0x50, 0x93, 0x02,
   0x52, 0xd3, 0x3c, 0x00, 0x00, 0x00, 0x00, 0x00, 0x00, 0x00, 0x00, 0x00,
   0x00, 0x00, 0x00, 0x00, 0x00, 0x00, 0x00, 0x00, 0x00, 0x00, 0x00, 0xb8,
   0xfb, 0x03, 0x44, 0xb7, 0x55, 0xdd, 0xe0, 0x66, 0x03, 0xb5, 0xad, 0x55,
   0x00, 0x00, 0x00, 0x00, 0x00, 0x00, 0x00, 0x00, 0x00, 0x00, 0x00, 0x00,
   0x00, 0x00, 0x00, 0x00, 0x00, 0x00, 0x00, 0x00, 0xf7, 0x77, 0x45, 0x51,
   0x54, 0xad, 0xb5, 0xe1, 0xca, 0x87, 0x6e, 0x55, 0x5d, 0x00, 0x00, 0x00,
   0x00, 0x00, 0x00, 0x00, 0x00, 0x00, 0x00, 0x00, 0x00, 0x00, 0x00, 0x00,
   0x00, 0x00, 0x00, 0x00, 0xe0, 0xff, 0xde, 0x11, 0xa8, 0xb7, 0x5a, 0x6b,
   0xe1, 0xed, 0x07, 0xaa, 0xab, 0xf6, 0x00, 0x00, 0x00, 0x00, 0x00, 0x00,
   0x00, 0x00, 0x00, 0x00, 0x00, 0x00, 0x00, 0x00, 0x00, 0x00, 0x00, 0x00,
   0x00, 0xfc, 0xef, 0xbb, 0x87, 0xf2, 0xd5, 0xaa, 0xd6, 0xc1, 0xad, 0x0f,
   0xb5, 0x6e, 0xad, 0x00, 0x00, 0x00, 0x00, 0x00, 0x00, 0x00, 0x00, 0x00,
   0x00, 0x00, 0x00, 0x00, 0x00, 0x00, 0x00, 0x00, 0x00, 0x80, 0xff, 0xfe,
   0xdf, 0x2a, 0x5b, 0xbf, 0xde, 0x6d, 0xe3, 0xfb, 0x0f, 0x5a, 0x5b, 0xdb,
   0x00, 0x00, 0x00, 0x00, 0x00, 0x00, 0x00, 0x00, 0x00, 0x00, 0x00, 0x00,
   0x00, 0x00, 0x00, 0x00, 0x00, 0x00, 0xe0, 0xd7, 0xdb, 0xbf, 0xa3, 0x6f,
   0xfd, 0x37, 0xff, 0x83, 0xdf, 0x0f, 0xda, 0xb6, 0xd2, 0x01, 0x00, 0x00,
   0x00, 0x00, 0x00, 0x00, 0x00, 0x00, 0x00, 0x00, 0x00, 0x00, 0x00, 0x00,
   0x00, 0x00, 0x0f, 0xb8, 0xff, 0x7e, 0xfd, 0xdc, 0xb5, 0xff, 0xff, 0xfa,
   0xc3, 0xf7, 0x1f, 0xb6, 0x5d, 0x55, 0x01, 0x00, 0x00, 0x00, 0x00, 0x00,
   0x00, 0x00, 0x00, 0x00, 0x00, 0x00, 0x00, 0x00, 0x00, 0x00, 0xc0, 0xff,
   0xff, 0xfe, 0xff, 0xb7, 0xf9, 0xb7, 0xff, 0xfd, 0xff, 0x03, 0xff, 0x1f,
   0x6a, 0x77, 0x6b, 0x01, 0x00, 0x00, 0x00, 0x00, 0x00, 0x00, 0x00, 0x00,
   0x00, 0x00, 0x00, 0x00, 0x00, 0x00, 0x00, 0xc0, 0xfd, 0xd7, 0x6f, 0xdb,
   0x7e, 0xbf, 0x48, 0xa4, 0xfd, 0xff, 0xc7, 0xff, 0x1f, 0x5c, 0xad, 0xaa,
   0x02, 0x00, 0x00, 0x00, 0x00, 0x00, 0x00, 0x00, 0x00, 0x00, 0x00, 0x00,
   0x00, 0x00, 0x00, 0x00, 0x30, 0xfb, 0x5e, 0xff, 0xff, 0xeb, 0xb5, 0x93,
   0xad, 0xeb, 0xff, 0x87, 0xff, 0x1f, 0xb0, 0x6d, 0xcb, 0x02, 0x00, 0x00,
   0x00, 0x00, 0x00, 0x00, 0x00, 0x00, 0x00, 0x00, 0x00, 0x00, 0x00, 0x00,
   0x00, 0xb8, 0xea, 0xff, 0xdf, 0x5d, 0x5f, 0x57, 0x54, 0x6d, 0xb7, 0xea,
   0x87, 0xff, 0x35, 0xac, 0x56, 0xb5, 0x0a, 0x00, 0x00, 0x00, 0x00, 0x00,
   0x00, 0x00, 0x00, 0x00, 0x00, 0x00, 0x00, 0x00, 0x00, 0x00, 0xfe, 0xf2,
   0xf5, 0xbb, 0x7f, 0xf9, 0x55, 0x02, 0xd1, 0x6a, 0x9b, 0x86, 0xff, 0x3f,
   0xd8, 0x56, 0xa6, 0x02, 0x00, 0x00, 0x00, 0x00, 0x00, 0x00, 0x00, 0x00,
   0x00, 0x00, 0x00, 0x00, 0x80, 0x0e, 0xf0, 0xbf, 0xf9, 0xff, 0xfe, 0xb6,
   0x5d, 0x4b, 0x50, 0x6d, 0xad, 0xd5, 0x0b, 0xff, 0x7f, 0xb0, 0x55, 0x55,
   0x06, 0x00, 0x00, 0x00, 0x00, 0x00, 0x00, 0x00, 0x00, 0x00, 0x00, 0x00,
   0x00, 0xf0, 0xff, 0xff, 0xff, 0xeb, 0xff, 0xdf, 0x7e, 0x6f, 0x95, 0x02,
   0xac, 0xaa, 0xb6, 0x0e, 0xff, 0xfb, 0xb0, 0x9a, 0xca, 0x08, 0x00, 0x00,
   0x80, 0x08, 0x00, 0x00, 0x00, 0x00, 0x00, 0x00, 0x00, 0x00, 0xfc, 0xff,
   0x7f, 0xbf, 0xf7, 0xff, 0xfd, 0x6b, 0xdd, 0x28, 0xd4, 0xfe, 0x5f, 0x55,
   0x0d, 0xff, 0xdf, 0xf0, 0x66, 0x15, 0x0e, 0x00, 0x00, 0x00, 0x00, 0x00,
   0x00, 0x00, 0x00, 0x00, 0x00, 0x00, 0x00, 0xfe, 0xfe, 0xef, 0xff, 0xae,
   0xbf, 0x57, 0xdd, 0xbb, 0xd5, 0x14, 0xfd, 0xd7, 0xbb, 0x0d, 0xff, 0xff,
   0xa1, 0xdd, 0xaa, 0x18, 0x00, 0x00, 0x00, 0x08, 0x00, 0x00, 0x00, 0x00,
   0x00, 0x00, 0x00, 0x00, 0xff, 0xff, 0xff, 0xff, 0xf5, 0xff, 0xfd, 0x77,
   0xdb, 0xa6, 0xa9, 0xd0, 0xfe, 0xd7, 0x1e, 0xfd, 0xdf, 0x61, 0xb3, 0xaa,
   0x56, 0x00, 0x00, 0x00, 0x00, 0x00, 0x00, 0x00, 0x00, 0x00, 0x00, 0x00,
   0x80, 0x2f, 0xfd, 0xef, 0xdf, 0x6f, 0xff, 0xa7, 0xee, 0xb6, 0xed, 0x5f,
   0x81, 0xf4, 0xba, 0x14, 0xff, 0xbd, 0xe1, 0x76, 0x92, 0x28, 0x00, 0x00,
   0x00, 0x00, 0x00, 0x00, 0x00, 0x00, 0x00, 0x00, 0x00, 0x80, 0x5f, 0xfe,
   0xff, 0xff, 0xb5, 0xff, 0xfa, 0xff, 0x9f, 0xf6, 0x55, 0x01, 0x82, 0xea,
   0x1e, 0xfe, 0xff, 0x43, 0x6a, 0xae, 0x5a, 0x00, 0x00, 0x00, 0x20, 0x00,
   0x00, 0x00, 0x00, 0x00, 0x00, 0x00, 0xc0, 0xf7, 0xfe, 0xff, 0xff, 0xfb,
   0xfe, 0xff, 0x5f, 0x7b, 0x7f, 0x2b, 0xff, 0xaa, 0x8a, 0x1b, 0xfe, 0xff,
   0xc3, 0xdd, 0x84, 0x42, 0x00, 0x00, 0x00, 0x00, 0x00, 0x00, 0x00, 0x00,
   0x00, 0x00, 0x00, 0xe0, 0xdd, 0xff, 0xff, 0xf7, 0x15, 0xfb, 0xf7, 0x0b,
   0xa0, 0xaf, 0xfa, 0xaa, 0xaa, 0xfa, 0x2e, 0xfe, 0xff, 0x87, 0xb5, 0x3a,
   0x39, 0x00, 0x00, 0x00, 0x00, 0x00, 0x00, 0x00, 0x00, 0x00, 0x00, 0x00,
   0xf0, 0x7b, 0xff, 0x7f, 0xff, 0xf5, 0xff, 0xff, 0x01, 0x00, 0xfc, 0xaa,
   0xff, 0xaf, 0xd5, 0x2d, 0xfe, 0xff, 0x87, 0xad, 0x65, 0xc5, 0x00, 0x00,
   0x00, 0x00, 0x00, 0x00, 0x00, 0x00, 0x00, 0x00, 0x00, 0xf8, 0xff, 0xd7,
   0xff, 0xef, 0xba, 0xb6, 0x7f, 0x00, 0x00, 0x74, 0x6f, 0xfd, 0x5f, 0x75,
   0x35, 0xfc, 0xff, 0x8f, 0xfb, 0x5f, 0xbb, 0x02, 0x00, 0x00, 0x00, 0x00,
   0x00, 0x00, 0x00, 0x00, 0x00, 0x00, 0xff, 0xff, 0xbd, 0xff, 0xfe, 0x72,
   0x77, 0x5f, 0x00, 0x00, 0xf0, 0xff, 0xf5, 0xbb, 0xb5, 0x2b, 0xfc, 0xff,
   0x0f, 0x57, 0x55, 0xa7, 0x00, 0x00, 0x00, 0x40, 0x00, 0x00, 0x00, 0x00,
   0x00, 0x00, 0x80, 0xff, 0xff, 0xfd, 0xff, 0x7b, 0xa9, 0xfe, 0x0b, 0x01,
   0x00, 0xe0, 0xff, 0x43, 0xd6, 0x6a, 0x55, 0xfc, 0xff, 0x0f, 0xff, 0x3e,
   0x55, 0x01, 0x00, 0x00, 0x00, 0x00, 0x00, 0x00, 0x00, 0x00, 0x00, 0xe0,
   0xff, 0x7f, 0xb3, 0xfb, 0xff, 0xea, 0xb7, 0xaf, 0x00, 0x00, 0x80, 0xff,
   0x1f, 0x94, 0xba, 0x56, 0xfc, 0xff, 0x0f, 0xdb, 0x6b, 0x55, 0x03, 0x00,
   0x00, 0x00, 0x08, 0x00, 0x00, 0x00, 0x00, 0x00, 0xf0, 0xff, 0xff, 0xfe,
   0xdf, 0x9b, 0x5a, 0xff, 0x3e, 0x09, 0x00, 0x00, 0xbf, 0x6a, 0x40, 0x4a,
   0x95, 0xf8, 0xff, 0x1f, 0x7e, 0xdb, 0xd4, 0x02, 0x00, 0x00, 0x00, 0x00,
   0x00, 0x00, 0x00, 0x00, 0x00, 0xf8, 0xff, 0xfd, 0xf5, 0xbf, 0xbf, 0xba,
   0xea, 0x6f, 0x00, 0x00, 0x00, 0xbc, 0xc7, 0x4f, 0xa2, 0x52, 0xfc, 0xff,
   0x1f, 0xf6, 0xb7, 0x49, 0x05, 0x00, 0x00, 0x00, 0x80, 0x00, 0x00, 0x00,
   0x00, 0x00, 0xfc, 0xff, 0x7f, 0xfb, 0xfd, 0x5e, 0x6d, 0xdf, 0xbe, 0x00,
   0x51, 0x00, 0x70, 0x0b, 0x58, 0x49, 0x55, 0xf8, 0xff, 0x3f, 0x6e, 0xad,
   0xaa, 0x05, 0x00, 0x00, 0x00, 0x00, 0x00, 0x00, 0x00, 0x00, 0x00, 0xfe,
   0xff, 0xf7, 0xb6, 0xdf, 0x77, 0xea, 0xda, 0x75, 0x01, 0x99, 0x40, 0xa1,
   0x1c, 0x40, 0x5a, 0xa2, 0xf8, 0xff, 0x3f, 0xec, 0xab, 0xa8, 0x04, 0x00,
   0x00, 0x00, 0x80, 0x00, 0x00, 0x00, 0x00, 0x00, 0xff, 0xff, 0x7f, 0xf5,
   0x7d, 0x8d, 0xbc, 0xf7, 0xdf, 0xd2, 0xaa, 0x01, 0x04, 0x31, 0x04, 0x55,
   0xa5, 0xf8, 0xff, 0x7f, 0x5c, 0xb5, 0x4a, 0x09, 0x00, 0x00, 0x00, 0x08,
   0x00, 0x00, 0x00, 0x00, 0x80, 0xff, 0xff, 0xff, 0xd6, 0xf7, 0x2d, 0xb5,
   0xde, 0xb6, 0x2d, 0x95, 0x42, 0x00, 0xc4, 0x20, 0x22, 0x84, 0xf0, 0xff,
   0x7f, 0xd8, 0xae, 0x5a, 0x05, 0x00, 0x00, 0x00, 0x00, 0x00, 0x00, 0x00,
   0x00, 0x80, 0xff, 0xff, 0xef, 0xfd, 0x5a, 0x93, 0x5c, 0xf3, 0x5b, 0x5a,
   0x56, 0x02, 0x00, 0x20, 0x81, 0x40, 0x51, 0xf0, 0xff, 0x7f, 0xf8, 0x55,
   0x25, 0x0a, 0x00, 0x00, 0x00, 0x00, 0x01, 0x00, 0x00, 0x00, 0x80, 0xff,
   0xff, 0xad, 0xd3, 0xdf, 0x22, 0xda, 0x6f, 0x3f, 0x5a, 0xcd, 0x02, 0x00,
   0x00, 0x82, 0x48, 0x46, 0xf0, 0xff, 0xff, 0xa0, 0xab, 0xca, 0x14, 0x00,
   0x00, 0x00, 0x00, 0x04, 0x00, 0x00, 0x00, 0xc0, 0xff, 0xd7, 0x7e, 0x7d,
   0xb7, 0x80, 0xae, 0xfa, 0x5b, 0x44, 0x41, 0x01, 0x00, 0x00, 0x04, 0x81,
   0x28, 0xf0, 0xff, 0xff, 0x70, 0x95, 0x94, 0x0a, 0x00, 0x00, 0x00, 0x00,
   0x00, 0x00, 0x00, 0x00, 0xc0, 0xff, 0xfe, 0x6f, 0xe9, 0x97, 0x05, 0xcc,
   0xb2, 0x5b, 0x48, 0x00, 0x03, 0x00, 0x20, 0x00, 0x10, 0x4b, 0xf0, 0xff,
   0xff, 0xa1, 0x35, 0xa9, 0x2a, 0x00, 0x00, 0x00, 0x10, 0x04, 0x00, 0x00,
   0x00, 0xc0, 0xfb, 0x4b, 0xbb, 0xfd, 0xca, 0x00, 0x57, 0xdb, 0x6e, 0x05,
   0x00, 0x04, 0x00, 0x00, 0x00, 0x42, 0xa0, 0xe0, 0xff, 0xff, 0xa1, 0xae,
   0x10, 0x12, 0x00, 0x00, 0x00, 0x00, 0x00, 0x00, 0x00, 0x00, 0xe0, 0x7f,
   0x7d, 0xb7, 0xf9, 0x9f, 0x24, 0xac, 0xfb, 0x3d, 0x51, 0x01, 0x00, 0x00,
   0x00, 0x40, 0x04, 0x95, 0xe0, 0xff, 0xff, 0xc1, 0x4a, 0xa3, 0x54, 0x00,
   0x00, 0x00, 0x00, 0x08, 0x00, 0x00, 0x00, 0xe0, 0xdf, 0xd3, 0x5d, 0xf7,
   0xa2, 0x00, 0xdb, 0xaa, 0x17, 0x89, 0x00, 0x00, 0x00, 0x00, 0x80, 0x00,
   0x54, 0xe2, 0xff, 0xff, 0x43, 0x37, 0x54, 0x55, 0x00, 0x00, 0x00, 0x00,
   0x00, 0x00, 0x00, 0x00, 0x70, 0xbd, 0x16, 0x7b, 0xdd, 0x4d, 0x00, 0xce,
   0x7e, 0x2d, 0x51, 0x03, 0x00, 0x00, 0x00, 0x00, 0x12, 0x90, 0xe0, 0xff,
   0xef, 0xc3, 0x54, 0x05, 0x54, 0x00, 0x00, 0x00, 0x00, 0x20, 0x00, 0x00,
   0x00, 0xf0, 0x6f, 0xd5, 0xfe, 0x7b, 0x05, 0x12, 0xa3, 0xd5, 0x83, 0x16,
   0x01, 0x00, 0x00, 0x00, 0x00, 0x00, 0x08, 0xc2, 0xff, 0xbf, 0x86, 0x0b,
   0x50, 0x55, 0x00, 0x00, 0x00, 0x00, 0x00, 0x00, 0x00, 0x00, 0xfc, 0x5f,
   0x55, 0x55, 0xdb, 0x48, 0x10, 0xa6, 0xb6, 0x00, 0x2a, 0x00, 0x00, 0x00,
   0x14, 0x00, 0xa4, 0xa0, 0xc0, 0x7f, 0xfb, 0x86, 0xd6, 0x42, 0xc9, 0x00,
   0x00, 0x00, 0x00, 0x01, 0x00, 0x00, 0x00, 0x7c, 0xff, 0x6a, 0x7f, 0x3d,
   0x05, 0x80, 0xa1, 0x75, 0xa0, 0x88, 0x00, 0x00, 0x00, 0xa0, 0x02, 0x10,
   0x10, 0xc2, 0xff, 0xf7, 0x0e, 0x0b, 0x12, 0xa6, 0x00, 0x00, 0x00, 0x00,
   0x00, 0x00, 0x00, 0x00, 0xff, 0xb7, 0xca, 0xad, 0x75, 0x48, 0x09, 0x23,
   0x2d, 0x20, 0x01, 0x00, 0x00, 0x00, 0x00, 0xa8, 0x00, 0x42, 0xc0, 0x7f,
   0xef, 0x0d, 0xaf, 0x50, 0xc8, 0x01, 0x00, 0x00, 0x00, 0x08, 0x00, 0x00,
   0x00, 0x6f, 0x7f, 0xb1, 0x5a, 0x2d, 0x21, 0xc4, 0xa0, 0x06, 0x44, 0x00,
   0x00, 0x00, 0x00, 0x00, 0xa0, 0x42, 0x28, 0x82, 0xff, 0x6b, 0x1d, 0x54,
   0x82, 0x22, 0x01, 0x00, 0x00, 0x00, 0x00, 0x00, 0x00, 0x80, 0xff, 0x6f,
   0xf7, 0xb3, 0x35, 0x05, 0xc1, 0x80, 0x04, 0x09, 0x00, 0x00, 0x00, 0x00,
   0x00, 0x02, 0x8a, 0x48, 0x80, 0xfb, 0xed, 0x1e, 0x2c, 0x00, 0xa4, 0x02,
   0x00, 0x00, 0x00, 0x10, 0x00, 0x00, 0x80, 0xdf, 0xbf, 0xbe, 0xda, 0x57,
   0x44, 0x72, 0x50, 0x02, 0x00, 0x00, 0x00, 0x00, 0x00, 0x00, 0x90, 0x28,
   0x10, 0x00, 0xbf, 0xff, 0x3b, 0x14, 0x00, 0x40, 0x02, 0x00, 0x00, 0x00,
   0x00, 0x00, 0x00, 0x80, 0xbd, 0x7f, 0xbd, 0xb7, 0x4e, 0x48, 0x68, 0x08,
   0x00, 0x00, 0x00, 0x00, 0x00, 0x00, 0x00, 0x00, 0x89, 0x62, 0x01, 0xff,
   0xab, 0x37, 0x68, 0x01, 0x80, 0x02, 0x00, 0x00, 0x00, 0x00, 0x00, 0x00,
   0xc0, 0xdf, 0xfd, 0xae, 0xda, 0x0a, 0x01, 0x1d, 0x40, 0x00, 0x00, 0x00,
   0x00, 0x00, 0x00, 0x00, 0x00, 0x54, 0x08, 0x05, 0x4d, 0xff, 0x7f, 0x18,
   0x00, 0x20, 0x04, 0x00, 0x00, 0x00, 0x00, 0x00, 0x00, 0xc0, 0x3b, 0xaf,
   0xd7, 0xf6, 0x2a, 0x45, 0x18, 0x02, 0x00, 0x00, 0x00, 0x00, 0x00, 0x00,
   0x00, 0x00, 0x50, 0x51, 0x01, 0xdf, 0x6e, 0x6d, 0x20, 0x01, 0x80, 0x04,
   0x00, 0x00, 0x00, 0x00, 0x00, 0x00, 0xc0, 0xef, 0xf6, 0x2f, 0x6d, 0x07,
   0x82, 0x07, 0x00, 0x00, 0x00, 0x00, 0x00, 0x00, 0x00, 0x00, 0x00, 0x09,
   0x49, 0x04, 0x7a, 0xdb, 0xfb, 0x50, 0x01, 0x20, 0x10, 0x00, 0x00, 0x00,
   0x00, 0x00, 0x00, 0xc0, 0x5f, 0xee, 0xad, 0xda, 0x54, 0x02, 0x05, 0x00,
   0x00, 0x00, 0x00, 0x00, 0x00, 0x00, 0x00, 0x00, 0x50, 0x89, 0x02, 0xd6,
   0x77, 0xd7, 0xb0, 0x0a, 0x00, 0x01, 0x00, 0x00, 0x00, 0x00, 0x00, 0x00,
   0xe0, 0x55, 0xf7, 0x47, 0x2a, 0x83, 0xa0, 0x02, 0x00, 0x00, 0x00, 0x00,
   0x00, 0x00, 0x00, 0x00, 0x00, 0x80, 0xa2, 0x05, 0xbc, 0xee, 0xf4, 0x41,
   0x21, 0x40, 0x08, 0x00, 0x00, 0x00, 0x00, 0x00, 0x00, 0xe0, 0xdf, 0xd6,
   0x57, 0x74, 0x02, 0xc2, 0x00, 0x00, 0x00, 0x00, 0x00, 0x00, 0x00, 0x00,
   0x00, 0x00, 0x00, 0x06, 0x0d, 0xe8, 0xdd, 0xa5, 0x43, 0x06, 0x00, 0x00,
   0x00, 0x00, 0x00, 0x00, 0x00, 0x00, 0xe0, 0x75, 0xfb, 0x08, 0x12, 0x40,
   0x50, 0x01, 0x00, 0x00, 0x00, 0x00, 0x00, 0x00, 0x00, 0x00, 0x00, 0x50,
   0xa8, 0x12, 0x2a, 0x75, 0xb6, 0x93, 0x08, 0x00, 0x00, 0x00, 0x00, 0x00,
   0x00, 0x00, 0x00, 0xe0, 0xef, 0xfa, 0x91, 0x34, 0x8a, 0xa2, 0x00, 0x00,
   0x00, 0x00, 0x00, 0x00, 0x00, 0x00, 0x00, 0x00, 0x00, 0x25, 0x05, 0x6a,
   0xde, 0x6a, 0x87, 0x02, 0x00, 0x00, 0x00, 0x00, 0x00, 0x00, 0x00, 0x00,
   0xf0, 0x5a, 0xfd, 0x0a, 0x14, 0x00, 0x58, 0x00, 0x00, 0x00, 0x00, 0x00,
   0x00, 0x00, 0x00, 0x00, 0x00, 0x00, 0xa8, 0x08, 0xd4, 0xa2, 0xa2, 0xc2,
   0x26, 0x00, 0x10, 0x00, 0x00, 0x00, 0x00, 0x00, 0x00, 0xf0, 0xf7, 0xf1,
   0x00, 0x08, 0x20, 0xa8, 0x00, 0x00, 0x00, 0x00, 0x00, 0x00, 0x00, 0x00,
   0x00, 0x00, 0x00, 0x90, 0x0a, 0x08, 0x84, 0xd5, 0x8f, 0x2a, 0x00, 0x00,
   0x00, 0x00, 0x00, 0x00, 0x00, 0x00, 0xf0, 0x4d, 0xbe, 0x00, 0x04, 0x80,
   0x1a, 0x02, 0x00, 0x00, 0x00, 0x00, 0x00, 0x00, 0x00, 0x00, 0x00, 0x80,
   0xa0, 0x00, 0x24, 0x90, 0x22, 0x0d, 0x0a, 0x00, 0x00, 0x00, 0x00, 0x00,
   0x00, 0x00, 0x00, 0xf0, 0x5f, 0xb0, 0x02, 0x04, 0x00, 0x54, 0x00, 0x00,
   0x00, 0x00, 0x00, 0x00, 0x00, 0x00, 0x00, 0x00, 0x00, 0x45, 0x0b, 0x28,
   0x44, 0x41, 0x1f, 0x55, 0x00, 0x00, 0x00, 0x00, 0x00, 0x00, 0x00, 0x00,
   0xb0, 0x55, 0x70, 0x00, 0x00, 0x80, 0x03, 0x00, 0x00, 0x00, 0x00, 0x00,
   0x00, 0x00, 0x00, 0x00, 0x00, 0x00, 0x50, 0x05, 0x00, 0x10, 0x48, 0x1f,
   0x5a, 0x00, 0x00, 0x00, 0x00, 0x00, 0x00, 0x00, 0x00, 0xf0, 0xff, 0x42,
   0x00, 0x01, 0x10, 0x35, 0x00, 0x00, 0x00, 0x00, 0x00, 0x00, 0x00, 0x00,
   0x00, 0x00, 0x00, 0x40, 0x1d, 0x14, 0x00, 0x40, 0x3c, 0xb4, 0x00, 0x00,
   0x00, 0x00, 0x00, 0x00, 0x00, 0x00, 0xf0, 0xd5, 0x35, 0x00, 0x00, 0xe0,
   0x0a, 0x00, 0x00, 0x00, 0x00, 0x00, 0x00, 0x00, 0x00, 0x00, 0x00, 0x00,
   0x80, 0x02, 0x20, 0x80, 0x80, 0x3e, 0xa8, 0x00, 0x00, 0x00, 0x00, 0x00,
   0x00, 0x00, 0x00, 0xf8, 0x5f, 0x45, 0x80, 0x00, 0xa0, 0x08, 0x00, 0x00,
   0x04, 0x00, 0x00, 0x00, 0x00, 0x00, 0x00, 0x00, 0x00, 0x08, 0x1d, 0x20,
   0x00, 0x00, 0x74, 0xa0, 0x01, 0x00, 0x00, 0x00, 0x00, 0x00, 0x00, 0x00,
   0xd8, 0xbf, 0x0a, 0x01, 0x00, 0x58, 0x05, 0x00, 0x00, 0x00, 0x00, 0x00,
   0x00, 0x00, 0x00, 0x00, 0x00, 0x00, 0x00, 0x29, 0x08, 0x00, 0x80, 0x5d,
   0x50, 0x02, 0x00, 0x00, 0x00, 0x00, 0x00, 0x00, 0x00, 0xf8, 0xaf, 0x1a,
   0x20, 0x00, 0x9a, 0x02, 0x00, 0x00, 0x02, 0x00, 0x00, 0x00, 0x00, 0x00,
   0x00, 0x00, 0x00, 0x00, 0x16, 0x20, 0x00, 0x00, 0xf4, 0xc0, 0x00, 0x00,
   0x00, 0x00, 0x00, 0x00, 0x00, 0x00, 0xf8, 0x5f, 0x0a, 0x09, 0x80, 0xa2,
   0x00, 0x00, 0x00, 0x00, 0x00, 0x00, 0x00, 0x00, 0x00, 0x00, 0x00, 0x00,
   0x50, 0x29, 0x10, 0x00, 0x00, 0xaa, 0x81, 0x02, 0x00, 0x00, 0x00, 0x00,
   0x00, 0x00, 0x00, 0x78, 0xdb, 0x28, 0x28, 0x80, 0x20, 0x01, 0x00, 0x00,
   0x00, 0x20, 0x00, 0x00, 0x00, 0x00, 0x00, 0x00, 0x00, 0x00, 0x2a, 0x10,
   0x00, 0x00, 0x44, 0x41, 0x0b, 0x00, 0x00, 0x00, 0x00, 0x00, 0x00, 0x00,
   0xf8, 0x2f, 0x25, 0x42, 0x35, 0x54, 0x00, 0x00, 0x00, 0x00, 0x28, 0x00,
   0x00, 0x00, 0x00, 0x00, 0x00, 0x00, 0x00, 0x2c, 0x00, 0x00, 0x00, 0xb0,
   0x82, 0x16, 0x00, 0x00, 0x00, 0x00, 0x00, 0x00, 0x00, 0xf8, 0x3f, 0x0d,
   0x92, 0x00, 0x44, 0x00, 0x00, 0x80, 0x00, 0x70, 0x00, 0x00, 0x00, 0x00,
   0x00, 0x00, 0x00, 0x80, 0x28, 0x00, 0x00, 0x00, 0x80, 0x86, 0x28, 0x00,
   0x00, 0x00, 0x00, 0x00, 0x00, 0x00, 0xf8, 0xad, 0x74, 0x00, 0x00, 0x00,
   0x00, 0x00, 0x80, 0x00, 0xfc, 0x00, 0x00, 0x00, 0x00, 0x00, 0x00, 0x00,
   0x00, 0x50, 0x00, 0x00, 0x00, 0x20, 0x0d, 0x5a, 0x00, 0x02, 0x00, 0x00,
   0x00, 0x00, 0x00, 0xf8, 0xbf, 0xa8, 0x28, 0x00, 0x08, 0x00, 0x00, 0x00,
   0x00, 0xf0, 0x00, 0x00, 0x00, 0x00, 0x00, 0x00, 0x00, 0x00, 0x10, 0x00,
   0x00, 0x00, 0x80, 0x08, 0x52, 0x00, 0x00, 0x00, 0x00, 0x00, 0x00, 0x00,
   0xb8, 0xb7, 0x42, 0x41, 0x00, 0x00, 0x00, 0x00, 0xc0, 0x00, 0x78, 0x00,
   0x00, 0x00, 0x00, 0x00, 0x00, 0x00, 0x00, 0x22, 0x00, 0x00, 0x00, 0x40,
   0x15, 0x54, 0x00, 0x05, 0x00, 0x00, 0x00, 0x00, 0x00, 0xf8, 0xff, 0xaa,
   0x01, 0x00, 0x00, 0x00, 0x00, 0x40, 0x00, 0x38, 0x00, 0x00, 0x00, 0x00,
   0x00, 0x00, 0x00, 0x00, 0x40, 0x00, 0x00, 0x00, 0x00, 0x34, 0x90, 0x01,
   0x02, 0x00, 0x00, 0x00, 0x00, 0x00, 0xf8, 0x6f, 0xd5, 0x00, 0x00, 0x00,
   0x00, 0x00, 0x80, 0x00, 0x38, 0x00, 0x00, 0x00, 0x00, 0x00, 0x00, 0x00,
   0x00, 0x08, 0x00, 0x00, 0x00, 0x00, 0x69, 0x60, 0x49, 0x06, 0x00, 0x00,
   0x00, 0x00, 0x00, 0xf8, 0xfd, 0xba, 0x01, 0x00, 0x00, 0x00, 0x00, 0x40,
   0x00, 0xf8, 0x03, 0x00, 0x00, 0x00, 0x00, 0x00, 0x00, 0x00, 0x00, 0x00,
   0x00, 0x00, 0x00, 0xd5, 0x40, 0x05, 0x0c, 0x00, 0x00, 0x00, 0x00, 0x00,
   0xf8, 0xdf, 0xcd, 0x03, 0x00, 0x00, 0x00, 0x00, 0xc0, 0x00, 0xf8, 0x01,
   0x00, 0x00, 0x00, 0x00, 0x00, 0x00, 0x00, 0xa0, 0x00, 0x00, 0x00, 0x00,
   0xc8, 0xa0, 0x45, 0x05, 0x00, 0x00, 0x00, 0x00, 0x00, 0xd8, 0x7f, 0x1b,
   0x0f, 0x00, 0x00, 0x00, 0x00, 0x80, 0x00, 0xf8, 0x03, 0x00, 0x00, 0x00,
   0x00, 0x00, 0x00, 0x00, 0x00, 0x00, 0x00, 0x00, 0x00, 0x92, 0xa3, 0x0a,
   0x0e, 0x00, 0x00, 0x00, 0x00, 0x00, 0xf8, 0xeb, 0xc7, 0x0a, 0x00, 0x00,
   0x00, 0x00, 0xc0, 0x00, 0xfd, 0x03, 0x00, 0x00, 0x00, 0x00, 0x00, 0x00,
   0x00, 0x00, 0x00, 0x00, 0x00, 0x00, 0x50, 0x87, 0xaa, 0x1b, 0x00, 0x00,
   0x00, 0x00, 0x00, 0xb8, 0xff, 0x96, 0x16, 0x00, 0x00, 0x00, 0x00, 0xc0,
   0x01, 0xfc, 0x03, 0x00, 0x00, 0x00, 0x00, 0x00, 0x00, 0x00, 0x00, 0x10,
   0x00, 0x00, 0x00, 0xa0, 0x8c, 0x62, 0x1b, 0x00, 0x00, 0x00, 0x00, 0x00,
   0xf8, 0x5b, 0xd3, 0x29, 0x00, 0x00, 0x00, 0x00, 0x40, 0x01, 0xbd, 0x07,
   0x00, 0x00, 0x00, 0x00, 0x00, 0x00, 0x00, 0x80, 0x00, 0x00, 0x00, 0x00,
   0x50, 0x1d, 0xd9, 0x2f, 0x00, 0x00, 0x00, 0x00, 0x00, 0xf8, 0x7f, 0xb3,
   0x52, 0x01, 0x00, 0x00, 0x00, 0xc0, 0x81, 0x9e, 0x03, 0x00, 0x00, 0x00,
   0x00, 0x08, 0x00, 0x00, 0x00, 0x20, 0x00, 0x00, 0x00, 0xc0, 0x3a, 0x52,
   0x3d, 0x00, 0x00, 0x00, 0x00, 0x00, 0xf0, 0xff, 0xd1, 0x22, 0x02, 0x00,
   0x00, 0x00, 0x80, 0x03, 0x1d, 0x01, 0x00, 0x00, 0x00, 0x00, 0x10, 0x00,
   0x00, 0x00, 0x21, 0x00, 0x00, 0x00, 0xa0, 0x6a, 0xfc, 0x36, 0x00, 0x00,
   0x00, 0x00, 0x00, 0xf8, 0xef, 0xd3, 0xc4, 0x00, 0x00, 0x00, 0x00, 0x80,
   0x83, 0x1f, 0x00, 0x00, 0x00, 0x00, 0x00, 0x04, 0x00, 0x00, 0x00, 0x20,
   0x00, 0x00, 0x00, 0x80, 0xea, 0xc0, 0x3d, 0x00, 0x00, 0x00, 0x00, 0x00,
   0xf0, 0xbb, 0x32, 0x05, 0x01, 0x00, 0x00, 0x00, 0x80, 0x87, 0x1e, 0x00,
   0x00, 0x00, 0x00, 0x00, 0x14, 0x00, 0x00, 0x00, 0x40, 0x00, 0x00, 0x00,
   0x00, 0xd5, 0xb0, 0x37, 0x00, 0x00, 0x00, 0x00, 0x00, 0xf8, 0xff, 0x75,
   0x04, 0x02, 0x00, 0x00, 0x00, 0x00, 0x1f, 0x0f, 0x00, 0x00, 0x00, 0x00,
   0x00, 0x0a, 0x00, 0x00, 0x00, 0x20, 0x00, 0x00, 0x00, 0x00, 0x95, 0xa3,
   0x7e, 0x00, 0x00, 0x00, 0x00, 0x00, 0xf0, 0x6f, 0x59, 0x02, 0x00, 0x00,
   0x00, 0x00, 0x00, 0xa7, 0x1d, 0x00, 0x00, 0x00, 0x00, 0x00, 0x14, 0x00,
   0x00, 0x00, 0x40, 0x00, 0x00, 0x00, 0x00, 0xf2, 0x07, 0x6e, 0x00, 0x00,
   0x00, 0x00, 0x00, 0xf0, 0xff, 0x52, 0x04, 0x00, 0x00, 0x00, 0x00, 0x00,
   0x6e, 0x1f, 0x00, 0x00, 0x00, 0x00, 0x00, 0x14, 0x00, 0x00, 0x00, 0x20,
   0x00, 0x00, 0x00, 0x00, 0x24, 0x0f, 0x78, 0x00, 0x00, 0x00, 0x00, 0x00,
   0xe0, 0xdf, 0x39, 0x45, 0x10, 0x00, 0x00, 0x00, 0x00, 0xbe, 0x7d, 0x00,
   0x00, 0x00, 0x00, 0x00, 0x0c, 0x00, 0x00, 0x00, 0x80, 0x00, 0x00, 0x00,
   0x00, 0xa8, 0x7e, 0xf0, 0x00, 0x00, 0x00, 0x00, 0x00, 0xe0, 0xff, 0x15,
   0x04, 0x00, 0x00, 0x00, 0x00, 0x00, 0x3e, 0xf7, 0x00, 0x00, 0x00, 0x00,
   0x00, 0x1a, 0x00, 0x00, 0x00, 0x20, 0x00, 0x00, 0x00, 0x00, 0xa0, 0xfa,
   0xa0, 0x00, 0x00, 0x00, 0x00, 0x00, 0x60, 0x77, 0x19, 0x0a, 0x00, 0x00,
   0x00, 0x00, 0x00, 0xbe, 0x05, 0x00, 0x00, 0x00, 0x00, 0x00, 0x14, 0x00,
   0x00, 0x00, 0x20, 0x00, 0x00, 0x00, 0x00, 0x40, 0xf5, 0x83, 0x00, 0x00,
   0x00, 0x00, 0x00, 0xe0, 0xff, 0x32, 0x10, 0x00, 0x00, 0x00, 0x00, 0x00,
   0x7c, 0x0f, 0x00, 0x00, 0x00, 0x00, 0x00, 0x1a, 0x00, 0x00, 0x00, 0xa0,
   0x00, 0x00, 0x00, 0x00, 0x10, 0xd4, 0x87, 0x01, 0x00, 0x00, 0x00, 0x00,
   0xc0, 0xff, 0x1a, 0x05, 0x00, 0x04, 0x00, 0x00, 0x00, 0x78, 0x12, 0x00,
   0x00, 0x00, 0x00, 0x00, 0x16, 0x00, 0x00, 0x00, 0x40, 0x00, 0x00, 0x00,
   0x00, 0x40, 0x6b, 0x97, 0x02, 0x00, 0x00, 0x00, 0x00, 0xc0, 0xef, 0x36,
   0x28, 0x00, 0x00, 0x00, 0x00, 0x00, 0xf8, 0xbe, 0x00, 0x00, 0x00, 0x08,
   0x00, 0x1a, 0x00, 0x00, 0x00, 0xa0, 0x01, 0x00, 0x00, 0x00, 0x80, 0xc4,
   0xbe, 0x00, 0x00, 0x00, 0x00, 0x00, 0xc0, 0xff, 0x99, 0x50, 0x00, 0x00,
   0x00, 0x00, 0x00, 0xe8, 0xf5, 0x01, 0x00, 0x00, 0x10, 0x00, 0x2a, 0x00,
   0x00, 0x00, 0xa0, 0x04, 0x00, 0x00, 0x00, 0x08, 0x52, 0xfb, 0x02, 0x00,
   0x00, 0x00, 0x00, 0x80, 0xbe, 0x13, 0xa2, 0x00, 0x00, 0x00, 0x00, 0x00,
   0xb0, 0x5d, 0x03, 0x00, 0x00, 0x14, 0x00, 0x0a, 0x04, 0x00, 0x00, 0x41,
   0x01, 0x00, 0x00, 0x00, 0x00, 0xaa, 0x7e, 0x00, 0x00, 0x00, 0x00, 0x00,
   0x80, 0xff, 0x4a, 0x48, 0x00, 0x00, 0x00, 0x00, 0x00, 0x60, 0x6a, 0x01,
   0x00, 0x00, 0x18, 0x00, 0x35, 0x00, 0x00, 0x00, 0xa0, 0x02, 0x00, 0x00,
   0x00, 0x00, 0x28, 0x6a, 0x01, 0x00, 0x00, 0x00, 0x00, 0x80, 0xfb, 0x4b,
   0x02, 0x00, 0x00, 0x00, 0x00, 0x00, 0xc0, 0x54, 0x00, 0x00, 0x00, 0x14,
   0x00, 0x15, 0x08, 0x00, 0x00, 0x42, 0x15, 0x00, 0x00, 0x00, 0x00, 0xa0,
   0xd4, 0x01, 0x00, 0x00, 0x00, 0x00, 0x00, 0xdf, 0x16, 0xa0, 0x00, 0x00,
   0x00, 0x00, 0x00, 0x00, 0x90, 0x00, 0x00, 0x00, 0x10, 0x00, 0x15, 0x08,
   0x00, 0x00, 0x80, 0x08, 0x00, 0x00, 0x00, 0x20, 0x52, 0x35, 0x01, 0x00,
   0x00, 0x00, 0x00, 0x00, 0xff, 0x45, 0x0a, 0x00, 0x00, 0x00, 0x00, 0x00,
   0x20, 0x10, 0x00, 0x00, 0x00, 0x00, 0x00, 0x34, 0x08, 0x00, 0x00, 0x82,
   0x29, 0x00, 0x00, 0x00, 0x00, 0x90, 0x64, 0x01, 0x00, 0x00, 0x00, 0x00,
   0x00, 0xbe, 0x2b, 0x22, 0x02, 0x00, 0x00, 0x00, 0x00, 0x00, 0x00, 0x00,
   0x00, 0x00, 0x00, 0x00, 0x75, 0x12, 0x00, 0x00, 0x60, 0x11, 0x00, 0x00,
   0x00, 0x00, 0x20, 0xaa, 0x02, 0x00, 0x00, 0x00, 0x00, 0x00, 0xfc, 0x4f,
   0x08, 0x00, 0x00, 0x00, 0x00, 0x00, 0x00, 0x00, 0x00, 0x00, 0x00, 0x00,
   0x00, 0x65, 0x14, 0x00, 0x00, 0xc0, 0x26, 0x01, 0x00, 0x00, 0x00, 0x40,
   0xd4, 0x01, 0x00, 0x00, 0x00, 0x00, 0x00, 0x7c, 0x2d, 0x11, 0x01, 0x00,
   0x00, 0x00, 0x00, 0x00, 0x00, 0x00, 0x00, 0x00, 0x00, 0x01, 0x52, 0x04,
   0x00, 0x00, 0xa0, 0x42, 0x00, 0x00, 0x05, 0x04, 0x54, 0xbb, 0x03, 0x00,
   0x00, 0x00, 0x00, 0x00, 0xf8, 0x2f, 0x2a, 0x00, 0x00, 0x00, 0x00, 0x00,
   0x00, 0x00, 0x00, 0x00, 0x00, 0x00, 0x00, 0xd6, 0x08, 0x00, 0x00, 0xa0,
   0x95, 0x00, 0x52, 0x00, 0x00, 0xd1, 0x4a, 0x01, 0x00, 0x00, 0x00, 0x00,
   0x00, 0xf8, 0xaa, 0x10, 0x04, 0x00, 0x00, 0x00, 0x00, 0x00, 0x00, 0x00,
   0x00, 0x00, 0x00, 0x01, 0x2a, 0x02, 0x00, 0x00, 0x40, 0x03, 0x00, 0x20,
   0x15, 0x50, 0x16, 0x01, 0x01, 0x00, 0x00, 0x00, 0x00, 0x00, 0xf0, 0xbf,
   0xa4, 0x00, 0x00, 0x00, 0x00, 0x00, 0x00, 0x00, 0x00, 0x00, 0x00, 0x00,
   0x00, 0x6a, 0x0d, 0x00, 0x00, 0x02, 0x00, 0x00, 0x14, 0x54, 0x45, 0x00,
   0x00, 0x00, 0x00, 0x00, 0x00, 0x00, 0x00, 0x70, 0x57, 0x11, 0x08, 0x00,
   0x00, 0x00, 0x00, 0x00, 0x00, 0x00, 0x00, 0x00, 0x00, 0x00, 0x15, 0x05,
   0x00, 0x00, 0x02, 0x00, 0x00, 0x60, 0x89, 0x08, 0x00, 0x00, 0x02, 0x00,
   0x00, 0x00, 0x00, 0x00, 0xf0, 0x7e, 0x52, 0x01, 0x00, 0x00, 0x00, 0x00,
   0x00, 0x00, 0x00, 0x00, 0x00, 0x00, 0x00, 0xbe, 0x0c, 0x00, 0xc0, 0x01,
   0x00, 0x00, 0x40, 0x9a, 0x00, 0x00, 0x80, 0x02, 0x00, 0x00, 0x00, 0x00,
   0x00, 0xe0, 0xcb, 0x40, 0x02, 0x00, 0x00, 0x00, 0x00, 0x00, 0x00, 0x01,
   0x00, 0x00, 0x00, 0x00, 0x09, 0x03, 0x00, 0xe0, 0x01, 0x00, 0x00, 0xc0,
   0x00, 0x00, 0x40, 0x94, 0x03, 0x00, 0x00, 0x00, 0x00, 0x00, 0xe0, 0x5f,
   0x95, 0x02, 0x00, 0x00, 0x00, 0x00, 0x00, 0xe8, 0x5f, 0x00, 0x00, 0x00,
   0x00, 0xbb, 0x56, 0x00, 0xe0, 0x81, 0x00, 0x36, 0x08, 0x00, 0x00, 0x14,
   0xa0, 0x02, 0x00, 0x00, 0x00, 0x00, 0x00, 0x40, 0x6f, 0x01, 0x01, 0x00,
   0x00, 0x00, 0x00, 0x00, 0x74, 0x83, 0x02, 0x00, 0x80, 0x00, 0x56, 0x03,
   0x02, 0xf8, 0x01, 0xfa, 0xff, 0x00, 0x00, 0x00, 0x02, 0x07, 0x04, 0x00,
   0x00, 0x00, 0x00, 0x00, 0xc0, 0x5e, 0x2b, 0x02, 0x00, 0x04, 0x00, 0x00,
   0x40, 0xfd, 0x16, 0x54, 0x00, 0x20, 0x00, 0x74, 0x01, 0x00, 0xfc, 0x40,
   0xfe, 0xff, 0x00, 0x00, 0x84, 0x43, 0x11, 0x00, 0x00, 0x00, 0x00, 0x00,
   0x00, 0x80, 0xb7, 0xd5, 0x02, 0x00, 0x10, 0x01, 0x00, 0x80, 0x56, 0x07,
   0x00, 0x01, 0x00, 0x00, 0x7a, 0x80, 0x00, 0xfe, 0x01, 0xfe, 0xff, 0x01,
   0x35, 0x40, 0x40, 0x0d, 0x00, 0x00, 0x00, 0x00, 0x00, 0x00, 0x80, 0xaf,
   0x03, 0x0a, 0x00, 0x20, 0x02, 0x00, 0xa0, 0xf7, 0x07, 0x20, 0x02, 0x28,
   0x40, 0x68, 0x00, 0x04, 0xff, 0x2f, 0xff, 0xff, 0x43, 0x0d, 0x61, 0x70,
   0x53, 0x00, 0x00, 0x00, 0x00, 0x00, 0x00, 0x00, 0xdf, 0x2a, 0x01, 0x00,
   0x00, 0x04, 0x00, 0xc8, 0xef, 0x0f, 0x00, 0x00, 0x04, 0x00, 0x50, 0x20,
   0x81, 0xff, 0xff, 0xff, 0xff, 0x6b, 0xa3, 0x20, 0xf8, 0x1a, 0x00, 0x00,
   0x00, 0x00, 0x00, 0x00, 0x00, 0x5c, 0x07, 0x0c, 0x00, 0x40, 0x01, 0x00,
   0xd0, 0xeb, 0x0f, 0x00, 0x00, 0x10, 0x01, 0x40, 0x01, 0xc0, 0xff, 0xff,
   0xff, 0xff, 0xc7, 0xa6, 0x10, 0x80, 0x15, 0x00, 0x00, 0x00, 0x00, 0x00,
   0x00, 0x00, 0xb6, 0x55, 0x00, 0x00, 0x00, 0x02, 0x00, 0xf0, 0xf6, 0x1f,
   0x00, 0x80, 0x00, 0x00, 0x00, 0x20, 0xe8, 0xff, 0xff, 0xff, 0xff, 0x7b,
   0x6b, 0x0c, 0x01, 0x06, 0x02, 0x00, 0x00, 0x00, 0x00, 0x00, 0x00, 0x7c,
   0x57, 0x12, 0x00, 0x00, 0x0a, 0x00, 0xf0, 0xe5, 0x0f, 0x00, 0x00, 0x00,
   0x10, 0x40, 0x00, 0xf8, 0xff, 0xff, 0xff, 0xff, 0xd3, 0x17, 0x04, 0x01,
   0x80, 0x02, 0x00, 0x40, 0x00, 0x00, 0x00, 0x00, 0xa8, 0x4e, 0x01, 0x00,
   0x40, 0x10, 0x00, 0xd8, 0xf2, 0x1f, 0x00, 0x00, 0x00, 0x00, 0x00, 0x00,
   0xfe, 0xff, 0xff, 0xff, 0xff, 0xb1, 0x1a, 0x42, 0x70, 0xd5, 0x03, 0x00,
   0x80, 0x00, 0x00, 0x00, 0x00, 0x70, 0x1b, 0x0a, 0x00, 0x00, 0x65, 0x00,
   0x78, 0xf3, 0x0e, 0x00, 0x00, 0x00, 0x00, 0x28, 0x00, 0xff, 0xff, 0xff,
   0xff, 0xff, 0xf1, 0x0f, 0x61, 0x82, 0x7f, 0x06, 0x00, 0x10, 0x00, 0x00,
   0x00, 0x00, 0xb0, 0xa6, 0x00, 0x00, 0x80, 0xc4, 0x00, 0x78, 0xe1, 0x00,
   0x00, 0x00, 0x00, 0x00, 0x00, 0xd0, 0xff, 0xff, 0xff, 0xff, 0xff, 0x55,
   0x82, 0x90, 0x02, 0xfa, 0x05, 0x00, 0x60, 0x00, 0x00, 0x00, 0x00, 0xa0,
   0xad, 0x0a, 0x00, 0x00, 0x48, 0x01, 0x3c, 0x72, 0x00, 0x00, 0x00, 0x80,
   0x4a, 0x00, 0xfa, 0xff, 0xff, 0xff, 0xff, 0xff, 0xf9, 0x41, 0x55, 0x95,
   0x84, 0x03, 0x00, 0x48, 0x00, 0x00, 0x00, 0x00, 0xc0, 0x9e, 0x00, 0x00,
   0x08, 0x55, 0x03, 0x1c, 0x73, 0xa0, 0x00, 0x00, 0x40, 0x00, 0xa0, 0xff,
   0xff, 0xff, 0xff, 0xff, 0xff, 0xb0, 0x80, 0x2d, 0x51, 0xd9, 0x03, 0x00,
   0x17, 0x00, 0x00, 0x00, 0x00, 0x80, 0xb5, 0x02, 0x00, 0x68, 0x54, 0x0b,
   0x3c, 0xf6, 0xa0, 0x00, 0x00, 0x80, 0x00, 0xfc, 0xff, 0xff, 0xff, 0xef,
   0xf7, 0x7a, 0x34, 0x61, 0x6b, 0xf7, 0xff, 0x01, 0x40, 0x54, 0x00, 0x00,
   0x00, 0x00, 0x80, 0xae, 0x02, 0x00, 0x94, 0xaa, 0x16, 0x4c, 0xf9, 0x3b,
   0x00, 0x00, 0x04, 0x40, 0xff, 0xff, 0xbf, 0xff, 0xff, 0x5f, 0xef, 0xf0,
   0x5d, 0xfa, 0xff, 0x7f, 0x00, 0x90, 0x2a, 0x00, 0x00, 0x00, 0x00, 0x00,
   0xb9, 0x08, 0x00, 0xb0, 0xea, 0x5d, 0x5e, 0xfb, 0x2b, 0x00, 0x20, 0x24,
   0xe5, 0xfa, 0xff, 0xa7, 0xba, 0x5e, 0xff, 0x7f, 0xf0, 0xd3, 0xff, 0xff,
   0x1f, 0x00, 0xa4, 0x0a, 0x00, 0x00, 0x00, 0x00, 0x00, 0x6e, 0x03, 0x00,
   0x54, 0xad, 0xb6, 0x9c, 0xf6, 0x27, 0x00, 0x80, 0x40, 0xb0, 0xfa, 0xff,
   0xff, 0xaf, 0xfe, 0xfe, 0x87, 0x00, 0xfe, 0xff, 0xff, 0x07, 0x00, 0x51,
   0x01, 0x00, 0xe0, 0x00, 0x00, 0x00, 0xdc, 0x0a, 0x00, 0x40, 0xb9, 0xb5,
   0xbd, 0xfa, 0x0f, 0x00, 0x10, 0x4a, 0xf5, 0xe6, 0xcb, 0x3f, 0xbd, 0x0c,
   0xe0, 0x06, 0xf8, 0xff, 0xff, 0xff, 0x01, 0x03, 0x4a, 0x01, 0x00, 0x14,
   0x00, 0x00, 0x00, 0x78, 0x05, 0x00, 0x20, 0xd7, 0xdf, 0xaa, 0xd6, 0x27,
   0x00, 0x84, 0x00, 0x2f, 0xdd, 0xef, 0xdf, 0x3e, 0x03, 0x40, 0x01, 0xfc,
   0xff, 0xff, 0x7f, 0xc0, 0x00, 0x50, 0x00, 0x00, 0x94, 0x00, 0x00, 0x00,
   0x50, 0x09, 0x00, 0x40, 0xaa, 0xfd, 0xe7, 0xfa, 0xbf, 0x40, 0x10, 0xd5,
   0x2f, 0xb9, 0xdf, 0xfb, 0x7a, 0x00, 0x48, 0x01, 0xf5, 0xff, 0xff, 0x1f,
   0x90, 0x00, 0x51, 0x00, 0x00, 0x09, 0x00, 0x00, 0x00, 0xf0, 0x2a, 0x80,
   0x02, 0xdd, 0x6e, 0xbd, 0xef, 0xff, 0x55, 0xa5, 0xfe, 0xbf, 0x74, 0xff,
   0xf7, 0xf3, 0x01, 0x80, 0xc0, 0xff, 0xff, 0xff, 0x07, 0x68, 0x00, 0x16,
   0x00, 0x80, 0x06, 0x00, 0x00, 0x00, 0xd0, 0x02, 0x00, 0x54, 0xb0, 0xfd,
   0xff, 0xff, 0xff, 0xff, 0xff, 0xff, 0x7f, 0x6b, 0xbd, 0x6e, 0x73, 0x00,
   0x0a, 0x50, 0xff, 0xff, 0xff, 0x01, 0x05, 0x80, 0x04, 0x00, 0xa0, 0x01,
   0x00, 0x00, 0x00, 0xa0, 0x09, 0x80, 0x88, 0x6a, 0xab, 0xb6, 0xff, 0xff,
   0xff, 0xff, 0xff, 0xff, 0xdf, 0x2f, 0xb5, 0x6e, 0x00, 0xe8, 0xff, 0xff,
   0xff, 0xff, 0x80, 0x30, 0x00, 0x01, 0x00, 0x40, 0x00, 0x00, 0x00, 0x00,
   0x80, 0x15, 0x00, 0x12, 0xd5, 0xf6, 0x7e, 0xff, 0xff, 0xff, 0xff, 0xdf,
   0xfb, 0xff, 0x0b, 0xea, 0x7f, 0x00, 0x91, 0xf4, 0xff, 0xff, 0x3f, 0x10,
   0x00, 0x00, 0x01, 0x00, 0x6a, 0x00, 0x00, 0x00, 0x00, 0x80, 0x2b, 0x11,
   0x55, 0xaa, 0xd5, 0xfb, 0xff, 0xff, 0xff, 0xff, 0x73, 0xff, 0xbf, 0xa2,
   0xba, 0xfa, 0x40, 0xff, 0xff, 0xff, 0xff, 0x3f, 0x80, 0x10, 0x40, 0x00,
   0x00, 0x14, 0x00, 0x00, 0x00, 0x00, 0x00, 0xab, 0x20, 0xd4, 0x54, 0x5b,
   0xf7, 0xff, 0xff, 0xff, 0xff, 0xe5, 0xfe, 0x3b, 0x92, 0xee, 0x7f, 0xa0,
   0xff, 0xff, 0xff, 0xff, 0x0f, 0x0c, 0x04, 0x40, 0x00, 0x80, 0x14, 0xd0,
   0x00, 0x00, 0x00, 0x00, 0x2e, 0x45, 0x95, 0xd5, 0xf6, 0xde, 0xff, 0xff,
   0xff, 0xff, 0xaa, 0xff, 0x7d, 0x25, 0xff, 0xff, 0xd8, 0xff, 0xff, 0xff,
   0xff, 0x07, 0x26, 0x08, 0x00, 0x00, 0x80, 0x0a, 0x20, 0x00, 0x00, 0x00,
   0x00, 0x6c, 0xaa, 0x28, 0x4d, 0xdd, 0xfd, 0xff, 0xff, 0xff, 0xff, 0x56,
   0xff, 0xff, 0xef, 0xff, 0x7f, 0xf8, 0xee, 0xfe, 0xff, 0xff, 0x83, 0x4f,
   0x03, 0x20, 0x00, 0x10, 0x01, 0x28, 0x00, 0x00, 0x00, 0x00, 0xd8, 0x22,
   0xd5, 0xb5, 0xab, 0xd7, 0xff, 0xff, 0xff, 0xff, 0xbd, 0xff, 0xff, 0xff,
   0xff, 0xff, 0xfc, 0xb7, 0xfb, 0xff, 0xff, 0xc1, 0xa1, 0x02, 0x00, 0x00,
   0x60, 0x91, 0x0a, 0x00, 0x00, 0x00, 0x00, 0x90, 0x2a, 0x22, 0x55, 0xb6,
   0xde, 0xfe, 0xff, 0xff, 0xff, 0xf7, 0xff, 0xff, 0xff, 0xff, 0x7f, 0xe8,
   0xff, 0xff, 0xff, 0xff, 0xf0, 0x7b, 0x01, 0x10, 0x00, 0x50, 0x02, 0x00,
   0x00, 0x00, 0x00, 0x00, 0x40, 0xe3, 0xdd, 0xb6, 0xdd, 0xf7, 0xff, 0x0f,
   0xf4, 0xff, 0xfa, 0xff, 0xff, 0xff, 0xff, 0x7f, 0x5c, 0x7f, 0xf7, 0xff,
   0xff, 0x78, 0xbf, 0x00, 0x00, 0x00, 0x2a, 0x54, 0x00, 0x00, 0x00, 0x00,
   0x00, 0x00, 0x8e, 0xaa, 0xad, 0xb2, 0xfe, 0xff, 0x03, 0x00, 0xfc, 0xff,
   0xef, 0xff, 0xff, 0xff, 0xff, 0xfc, 0xef, 0xff, 0xff, 0x3f, 0xfc, 0xaf,
   0x00, 0x00, 0x10, 0x95, 0x00, 0x00, 0x00, 0x00, 0x00, 0x00, 0x00, 0xaa,
   0xf5, 0xfe, 0xff, 0xff, 0xff, 0x03, 0x00, 0xf0, 0xff, 0xdf, 0xff, 0xff,
   0xff, 0xff, 0x6c, 0xff, 0xff, 0xfd, 0x1f, 0xfe, 0x43, 0x00, 0x50, 0x40,
   0x0b, 0x01, 0x00, 0x00, 0x00, 0x00, 0x00, 0x00, 0x58, 0x97, 0xf5, 0xff,
   0xff, 0x7f, 0x00, 0x00, 0xe0, 0xff, 0xff, 0xff, 0xff, 0xff, 0xff, 0xfc,
   0xff, 0xff, 0xdf, 0x1f, 0xff, 0x60, 0x00, 0x00, 0x48, 0x55, 0x00, 0x00,
   0x00, 0x00, 0x00, 0x00, 0x00, 0x70, 0xf5, 0xd6, 0xfe, 0xff, 0x3f, 0x00,
   0x00, 0xe0, 0x7f, 0xaf, 0xff, 0xff, 0xff, 0x3f, 0xdc, 0xbf, 0xfb, 0xff,
   0xc7, 0x5f, 0x18, 0x00, 0x0c, 0xb2, 0x02, 0x00, 0x00, 0x00, 0x00, 0x00,
   0x00, 0x00, 0xc0, 0xa6, 0xde, 0xad, 0xfd, 0x0f, 0x00, 0x00, 0xe0, 0xff,
   0xbd, 0xff, 0xff, 0xff, 0x6b, 0xbd, 0x75, 0xff, 0xff, 0xcb, 0x0f, 0x10,
   0x00, 0x08, 0x6a, 0x05, 0x00, 0x00, 0x00, 0x00, 0x00, 0x00, 0x00, 0x00,
   0xdd, 0xbb, 0x77, 0xf7, 0x00, 0x00, 0x00, 0xc0, 0xd7, 0x7f, 0xff, 0xff,
   0x7f, 0xbd, 0xf6, 0xff, 0x77, 0xff, 0xf3, 0x01, 0x0c, 0x00, 0xa4, 0x54,
   0x00, 0x00, 0x00, 0x00, 0x00, 0x00, 0x00, 0x00, 0x00, 0x68, 0xb7, 0x7e,
   0x0b, 0x00, 0x00, 0x00, 0xc0, 0x7f, 0xff, 0xff, 0xff, 0x0f, 0xb1, 0xbe,
   0xf7, 0xf7, 0xff, 0xf4, 0x00, 0x09, 0x00, 0x0a, 0x17, 0x01, 0x00, 0x00,
   0x00, 0x00, 0x00, 0x00, 0x00, 0x00, 0x00, 0xec, 0x4a, 0x00, 0x00, 0x00,
   0x00, 0xc0, 0xff, 0x3b, 0xff, 0xff, 0xb0, 0x9e, 0xf6, 0x5e, 0xff, 0x7f,
   0x3a, 0x00, 0x05, 0x00, 0xe9, 0x22, 0x00, 0x00, 0x00, 0x00, 0x00, 0x00,
   0x00, 0x00, 0x00, 0x00, 0x00, 0x00, 0x00, 0x00, 0x00, 0x00, 0xc0, 0xff,
   0xff, 0xfe, 0xbf, 0x42, 0x35, 0xde, 0xff, 0xfe, 0xbf, 0x16, 0x20, 0x01,
   0x40, 0x52, 0x05, 0x00, 0x00, 0x00, 0x00, 0x00, 0x00, 0x00, 0x00, 0x00,
   0x00, 0x00, 0x00, 0x00, 0x00, 0x00, 0x00, 0x80, 0xdf, 0xf5, 0xfa, 0x0f,
   0x28, 0x95, 0x7b, 0xe5, 0xff, 0x0f, 0x17, 0x40, 0x01, 0x00, 0xbd, 0x12,
   0x00, 0x00, 0x00, 0x00, 0x00, 0x00, 0x00, 0x00, 0x00, 0x00, 0x00, 0x00,
   0x00, 0x00, 0x00, 0x00, 0x80, 0xff, 0xff, 0xf0, 0xaa, 0x88, 0x1c, 0x7f,
   0xfb, 0xff, 0x47, 0x03, 0x41, 0x00, 0x60, 0x75, 0x10, 0x00, 0x44, 0x28,
   0x00, 0x00, 0x00, 0x00, 0x00, 0x00, 0x00, 0x00, 0x00, 0x00, 0x00, 0x00,
   0x00, 0x80, 0xff, 0xff, 0xe1, 0x09, 0x75, 0x4d, 0x93, 0xfe, 0xff, 0xa1,
   0x09, 0x10, 0x00, 0xf8, 0x87, 0xc5, 0xa4, 0xf5, 0xd6, 0x00, 0x00, 0x00,
   0x00, 0x00, 0x00, 0x00, 0x00, 0x00, 0x00, 0x00, 0x00, 0x00, 0x80, 0xff,
   0xff, 0x41, 0x53, 0x54, 0xc9, 0x37, 0xff, 0xff, 0x10, 0xa0, 0x12, 0x00,
   0xfc, 0xbf, 0x9d, 0xb5, 0xad, 0xaa, 0x00, 0x00, 0x00, 0x00, 0x00, 0x00,
   0x00, 0x00, 0x00, 0x00, 0x00, 0x00, 0x00, 0x00, 0xff, 0xff, 0xc3, 0x02,
   0x50, 0x06, 0xe5, 0xff, 0x3f, 0x88, 0x08, 0x09, 0x80, 0xff, 0xff, 0x7f,
   0xef, 0xdb, 0xfa, 0x00, 0x00, 0x00, 0x00, 0x00, 0x00, 0x00, 0x00, 0x00,
   0x00, 0x00, 0x00, 0x00, 0x00, 0xff, 0xff, 0x83, 0xa6, 0x48, 0xc5, 0xf6,
   0xff, 0x1f, 0x94, 0x2a, 0x01, 0x10, 0xff, 0xff, 0x55, 0x69, 0xbb, 0xa6,
   0x00, 0x00, 0x00, 0x00, 0x00, 0x00, 0x00, 0x00, 0x00, 0x00, 0x00, 0x00,
   0x00, 0x00, 0xff, 0xff, 0x0f, 0x05, 0xd0, 0xb3, 0xff, 0xff, 0x07, 0x24,
   0x4a, 0x04, 0xc8, 0xff, 0xdf, 0x6b, 0xbf, 0xf7, 0xdd, 0x00, 0x00, 0x00,
   0x00, 0x00, 0x00, 0x00, 0x00, 0x00, 0x00, 0x00, 0x00, 0x00, 0x00, 0xff,
   0xff, 0x0f, 0x14, 0xb4, 0x61, 0xff, 0xff, 0x83, 0x4a, 0xa9, 0x00, 0xa0,
   0xff, 0xff, 0xdf, 0x6a, 0xad, 0xb5, 0x00, 0x00, 0x00, 0x00, 0x00, 0x00,
   0x00, 0x00, 0x00, 0x00, 0x00, 0x00, 0x00, 0x00, 0xfe, 0xff, 0x1f, 0xa8,
   0xda, 0xf4, 0xff, 0xff, 0x00, 0x0a, 0x42, 0x00, 0x7b, 0x95, 0xba, 0x37,
   0xbb, 0xb5, 0x56, 0x00, 0x00, 0x00, 0x00, 0x00, 0x00, 0x00, 0x00, 0x00,
   0x00, 0x00, 0x00, 0x00, 0x00, 0xfe, 0xff, 0x3f, 0xe0, 0xfa, 0xe8, 0xff,
   0x17, 0x40, 0x49, 0x0a, 0x80, 0x4c, 0xed, 0xef, 0xfe, 0x7c, 0xb7, 0x7d };
