#define pnj1_width 264
#define pnj1_height 176
static unsigned char pnj1_bits[] = {
   0x00, 0x00, 0x00, 0x00, 0x00, 0x00, 0x00, 0x00, 0x00, 0x00, 0x00, 0x00,
   0x00, 0x00, 0x00, 0x00, 0x00, 0x00, 0x00, 0x00, 0x50, 0xad, 0x2a, 0x89,
   0x00, 0x00, 0x24, 0x44, 0x02, 0x00, 0x00, 0x00, 0x00, 0x00, 0x00, 0x00,
   0x00, 0x00, 0x00, 0x00, 0x00, 0x00, 0x00, 0x00, 0x00, 0x00, 0x00, 0x00,
   0x00, 0x00, 0x00, 0x00, 0x00, 0x00, 0xd1, 0x4b, 0x2a, 0x15, 0x01, 0x40,
   0x49, 0x15, 0x00, 0x00, 0x00, 0x00, 0x00, 0x00, 0x00, 0x00, 0x00, 0x00,
   0x00, 0x00, 0x00, 0x00, 0x00, 0x00, 0x00, 0x00, 0x00, 0x00, 0x00, 0x00,
   0x00, 0x00, 0x00, 0x20, 0x7e, 0x49, 0x42, 0x00, 0x85, 0x14, 0x02, 0x00,
   0x00, 0x00, 0x00, 0x00, 0x00, 0x00, 0x00, 0x00, 0x00, 0x00, 0x00, 0x00,
   0x00, 0x00, 0x00, 0x00, 0x00, 0x00, 0x00, 0x00, 0x00, 0x00, 0x00, 0x00,
   0x00, 0xc8, 0x53, 0x8a, 0x14, 0x24, 0x51, 0xa8, 0x00, 0x00, 0x00, 0x00,
   0x00, 0x00, 0x00, 0x00, 0x00, 0x00, 0x00, 0x00, 0x00, 0x00, 0x00, 0x00,
   0x00, 0x00, 0x00, 0x00, 0x00, 0x00, 0x00, 0x00, 0x00, 0x00, 0x20, 0x2d,
   0x11, 0x00, 0x88, 0xaa, 0x04, 0x02, 0x00, 0x00, 0x00, 0x00, 0x00, 0x00,
   0x00, 0x00, 0x00, 0x00, 0x00, 0x00, 0x00, 0x00, 0x00, 0x00, 0x00, 0x00,
   0x00, 0x00, 0x00, 0x00, 0x00, 0x00, 0x00, 0x00, 0xad, 0x52, 0x80, 0x20,
   0x04, 0x51, 0x00, 0x00, 0x00, 0x00, 0x00, 0x00, 0x00, 0x00, 0x00, 0x00,
   0x00, 0x00, 0x00, 0x00, 0x00, 0x00, 0x00, 0x00, 0x00, 0x00, 0x00, 0x00,
   0x00, 0x00, 0x10, 0x00, 0x00, 0x58, 0x45, 0x05, 0xc0, 0x52, 0x08, 0x02,
   0x00, 0x00, 0x00, 0x00, 0x00, 0x00, 0x00, 0x00, 0x00, 0x00, 0x00, 0x00,
   0x00, 0x00, 0x00, 0x00, 0x00, 0x00, 0x00, 0x00, 0x00, 0x00, 0x00, 0xf4,
   0x1f, 0x00, 0xb1, 0x15, 0x10, 0x11, 0x50, 0x91, 0x00, 0x00, 0x00, 0x00,
   0x00, 0x00, 0x00, 0x00, 0x00, 0x00, 0x00, 0x00, 0x00, 0x00, 0x00, 0x00,
   0x00, 0x00, 0x00, 0x00, 0x00, 0x00, 0x00, 0x00, 0xfe, 0x7f, 0x00, 0xc0,
   0x4a, 0x45, 0xa0, 0x25, 0x44, 0x04, 0x00, 0x00, 0x00, 0x00, 0x00, 0x00,
   0x00, 0x00, 0x00, 0x00, 0x00, 0x00, 0x00, 0x00, 0x00, 0x00, 0x00, 0x00,
   0x00, 0x00, 0x00, 0x00, 0x00, 0xeb, 0xed, 0x01, 0x80, 0x16, 0x11, 0x02,
   0x89, 0x14, 0x01, 0x00, 0x00, 0x00, 0x00, 0x00, 0x00, 0x00, 0x00, 0x00,
   0x00, 0x00, 0x00, 0x00, 0x00, 0x00, 0x00, 0x00, 0x00, 0x00, 0x00, 0x00,
   0x00, 0x00, 0x7d, 0xb7, 0x02, 0x10, 0x4a, 0x44, 0x41, 0x54, 0xa0, 0x08,
   0x00, 0x00, 0x00, 0x00, 0x00, 0x00, 0x00, 0x00, 0x00, 0x00, 0x00, 0x00,
   0x00, 0x00, 0x00, 0x00, 0x00, 0x00, 0x00, 0x00, 0x00, 0x00, 0x00, 0xff,
   0xb6, 0x0e, 0x00, 0x58, 0x01, 0x8a, 0x94, 0x0a, 0x09, 0x00, 0x00, 0x00,
   0x00, 0x00, 0x00, 0x00, 0x00, 0x00, 0x00, 0x00, 0x00, 0x00, 0x00, 0x00,
   0x00, 0x00, 0x00, 0x00, 0x00, 0x00, 0x00, 0x80, 0xd5, 0x7e, 0x13, 0x00,
   0x54, 0x2a, 0x00, 0x21, 0x50, 0x04, 0x00, 0x00, 0x00, 0x00, 0x00, 0x00,
   0x00, 0x00, 0x00, 0x00, 0x00, 0x00, 0x00, 0x00, 0x00, 0x00, 0x00, 0x00,
   0x00, 0x00, 0x00, 0x00, 0x40, 0xdf, 0x6a, 0x2b, 0x00, 0x54, 0x81, 0x12,
   0x45, 0x85, 0x10, 0x00, 0x00, 0x00, 0x00, 0x00, 0x00, 0x00, 0x00, 0x00,
   0x00, 0x00, 0x00, 0x00, 0x00, 0x00, 0x00, 0x00, 0x00, 0x00, 0x00, 0x00,
   0x00, 0x70, 0x7f, 0xf7, 0x2a, 0x00, 0x50, 0x2a, 0x00, 0x94, 0x28, 0x0a,
   0x00, 0x00, 0x00, 0x00, 0x00, 0x00, 0x00, 0x00, 0x00, 0x00, 0x00, 0x00,
   0x00, 0x00, 0x00, 0x00, 0x00, 0x00, 0x00, 0x00, 0x00, 0x00, 0x6a, 0xff,
   0x56, 0x6b, 0x00, 0xa0, 0x45, 0x2a, 0x91, 0x82, 0x10, 0x00, 0x00, 0x00,
   0x00, 0x00, 0x00, 0x00, 0x00, 0x00, 0x00, 0x00, 0x00, 0x00, 0x00, 0x00,
   0x00, 0x00, 0x00, 0x00, 0x00, 0x00, 0x80, 0x5f, 0xff, 0xbd, 0xd5, 0x02,
   0x40, 0x99, 0x00, 0x54, 0x54, 0x22, 0x00, 0x00, 0x00, 0x00, 0x00, 0x00,
   0x00, 0x00, 0x00, 0x00, 0x00, 0x00, 0x00, 0x00, 0x00, 0x00, 0x00, 0x00,
   0x00, 0x00, 0x00, 0xc0, 0xbb, 0xff, 0x6b, 0x97, 0x08, 0x80, 0x92, 0x40,
   0x00, 0x81, 0x04, 0x00, 0x00, 0x00, 0x00, 0x00, 0x00, 0x00, 0x00, 0x00,
   0x00, 0x00, 0x00, 0x00, 0x00, 0x00, 0x00, 0x00, 0x00, 0x00, 0x00, 0x00,
   0xc0, 0xa6, 0xff, 0xdf, 0xaa, 0x05, 0x00, 0x15, 0x02, 0x69, 0x2a, 0x11,
   0x00, 0x00, 0x00, 0x00, 0x00, 0x00, 0x00, 0x00, 0x00, 0x00, 0xc0, 0x00,
   0x00, 0x00, 0x00, 0x00, 0x00, 0x00, 0x00, 0x00, 0x00, 0xb0, 0x96, 0xff,
   0xbb, 0x2a, 0x11, 0x00, 0x6e, 0x04, 0x40, 0x01, 0x22, 0x00, 0x00, 0x00,
   0x00, 0x00, 0x00, 0x00, 0x00, 0x00, 0x00, 0xf8, 0x00, 0xa8, 0x00, 0x00,
   0x00, 0x00, 0x00, 0x00, 0xa0, 0x00, 0xcc, 0x4f, 0xff, 0xdb, 0x96, 0x06,
   0x00, 0x98, 0x28, 0x02, 0xa9, 0x04, 0x00, 0x00, 0x00, 0x00, 0x00, 0x00,
   0x00, 0x00, 0x00, 0x00, 0xff, 0x97, 0x0b, 0x14, 0x00, 0x00, 0x00, 0x00,
   0x00, 0xc8, 0x9f, 0x17, 0x9f, 0x7f, 0xfe, 0x56, 0x25, 0x00, 0x30, 0x41,
   0x24, 0x20, 0x28, 0x00, 0x00, 0x00, 0x00, 0x00, 0x00, 0x00, 0x00, 0x00,
   0xc0, 0xef, 0x7e, 0x5e, 0xff, 0x01, 0x14, 0x00, 0x00, 0x00, 0xf0, 0xff,
   0xd1, 0xcf, 0x1d, 0xdf, 0x5d, 0x0a, 0x00, 0xe0, 0x08, 0x10, 0x83, 0x44,
   0x00, 0x00, 0x00, 0x00, 0x00, 0x00, 0x00, 0x00, 0x00, 0xe0, 0xad, 0xff,
   0xff, 0xff, 0x03, 0x25, 0x00, 0x00, 0x00, 0xfc, 0x7f, 0x9b, 0x8f, 0x1f,
   0x7f, 0xdb, 0xae, 0x00, 0x80, 0x52, 0x01, 0x2a, 0x11, 0x00, 0x00, 0x00,
   0x00, 0x00, 0x00, 0x00, 0x00, 0x00, 0xb8, 0xfa, 0xfe, 0xdf, 0xff, 0xff,
   0x4f, 0x01, 0x00, 0x00, 0xfc, 0x7f, 0xd1, 0x14, 0x4b, 0xef, 0xb5, 0x28,
   0x00, 0x40, 0x81, 0x04, 0x88, 0x44, 0x00, 0x00, 0x00, 0x00, 0x00, 0x00,
   0x00, 0x00, 0x00, 0xd8, 0xff, 0xff, 0xff, 0xff, 0xff, 0x5f, 0x00, 0x00,
   0x00, 0xfe, 0xff, 0xdb, 0xc2, 0x12, 0xbc, 0x57, 0x05, 0x02, 0x80, 0x16,
   0x28, 0x92, 0x92, 0x00, 0x00, 0x00, 0x00, 0x00, 0x00, 0x00, 0x00, 0xc0,
   0xff, 0xbf, 0xff, 0xff, 0xff, 0xff, 0x7f, 0x00, 0x00, 0x88, 0xff, 0xff,
   0xd5, 0x84, 0x15, 0xd5, 0x5e, 0xa9, 0x08, 0x00, 0x41, 0x42, 0x00, 0x91,
   0x00, 0x00, 0x00, 0x00, 0x00, 0x00, 0x00, 0x00, 0xf0, 0xfd, 0xff, 0xff,
   0xff, 0xff, 0xff, 0x3f, 0x80, 0x88, 0x00, 0xfe, 0xff, 0xe5, 0xa0, 0x03,
   0xbc, 0x5e, 0x01, 0x00, 0x00, 0x16, 0x94, 0x28, 0x12, 0x01, 0x00, 0x00,
   0x00, 0x00, 0x00, 0x00, 0x00, 0xfe, 0xff, 0xff, 0xff, 0xff, 0xff, 0xff,
   0xff, 0x40, 0x07, 0x00, 0xff, 0xff, 0xf3, 0x40, 0x03, 0x5e, 0x7f, 0x49,
   0x12, 0x00, 0x48, 0x48, 0x52, 0x4a, 0x02, 0x00, 0x00, 0x00, 0x00, 0x00,
   0x00, 0x80, 0xff, 0xbf, 0xff, 0xff, 0xff, 0xff, 0xff, 0xff, 0xd2, 0x5e,
   0x05, 0xff, 0xff, 0xc3, 0x80, 0x16, 0x7c, 0x71, 0x81, 0x20, 0x00, 0x48,
   0x91, 0x44, 0x92, 0x02, 0x00, 0x00, 0x00, 0x00, 0x00, 0x00, 0xc0, 0xff,
   0xff, 0xff, 0xff, 0xff, 0xdf, 0xe6, 0x7f, 0xad, 0x7f, 0xd1, 0xff, 0xff,
   0xeb, 0x20, 0x03, 0xfa, 0xe0, 0x28, 0x82, 0x00, 0x10, 0x4a, 0x25, 0x24,
   0x04, 0x00, 0x00, 0x00, 0x00, 0x00, 0x00, 0xc0, 0xff, 0xff, 0xff, 0xff,
   0xff, 0x9f, 0xff, 0x7f, 0xe9, 0xff, 0xed, 0xff, 0xff, 0xff, 0x79, 0x13,
   0xe5, 0x50, 0x40, 0x0a, 0x00, 0x50, 0x50, 0x92, 0x48, 0x08, 0x00, 0x00,
   0x00, 0x00, 0x00, 0x00, 0xf0, 0xff, 0xff, 0xff, 0xff, 0xff, 0x3f, 0xff,
   0xff, 0xb7, 0xff, 0xff, 0xff, 0xff, 0xff, 0xff, 0x07, 0xb6, 0x10, 0x00,
   0x10, 0x01, 0x40, 0x25, 0x45, 0x25, 0x11, 0x00, 0x00, 0x00, 0x00, 0x00,
   0x00, 0xf8, 0xff, 0xff, 0xff, 0xff, 0xff, 0x7e, 0xff, 0xfd, 0xfe, 0xff,
   0xff, 0xff, 0xff, 0xff, 0xff, 0xe7, 0x17, 0x98, 0x5f, 0x22, 0x00, 0x40,
   0x40, 0x2d, 0x88, 0x12, 0x00, 0x00, 0x00, 0x00, 0x00, 0x00, 0xfc, 0xfb,
   0xff, 0xff, 0x7f, 0xef, 0xef, 0xfe, 0xf7, 0xff, 0xff, 0xff, 0xff, 0xff,
   0xff, 0x2f, 0xff, 0x07, 0xc0, 0x57, 0x04, 0x08, 0x80, 0x28, 0x55, 0x11,
   0x20, 0x00, 0x00, 0x00, 0x00, 0x00, 0x00, 0xfe, 0xfe, 0xff, 0xff, 0x7f,
   0xfc, 0xfd, 0xfd, 0xef, 0xfe, 0xff, 0xff, 0xff, 0xff, 0xff, 0x7d, 0xfc,
   0x1e, 0x60, 0x7f, 0x29, 0x11, 0x00, 0x01, 0x55, 0xa2, 0x4a, 0x00, 0x00,
   0x00, 0x00, 0x00, 0x00, 0xff, 0xff, 0xff, 0xff, 0x47, 0xf9, 0xd7, 0xff,
   0xef, 0xff, 0xff, 0xff, 0xff, 0xff, 0x7f, 0xc2, 0x69, 0x17, 0xf0, 0x71,
   0x05, 0x44, 0x00, 0x55, 0x54, 0x29, 0x50, 0x00, 0x00, 0x00, 0x00, 0x00,
   0xc0, 0xfb, 0xff, 0xff, 0xff, 0xdd, 0xd2, 0xbf, 0xff, 0xff, 0xff, 0xff,
   0xff, 0xff, 0xff, 0xef, 0x9f, 0xc7, 0x1d, 0xf0, 0xff, 0x7a, 0x00, 0x00,
   0x8a, 0x52, 0xa1, 0x82, 0x00, 0x00, 0x00, 0x00, 0x00, 0xe0, 0xff, 0xff,
   0xff, 0x5f, 0x52, 0x63, 0xff, 0xff, 0xff, 0xff, 0xff, 0xff, 0xff, 0xef,
   0xbd, 0x7c, 0x9e, 0x5b, 0xd0, 0xab, 0x0a, 0x50, 0x01, 0xa4, 0xac, 0x8a,
   0x98, 0x00, 0x00, 0x00, 0x00, 0x00, 0xf8, 0xff, 0xff, 0xff, 0xdf, 0x76,
   0x6f, 0xfd, 0xff, 0xff, 0xff, 0xff, 0xff, 0xff, 0x53, 0xe7, 0x01, 0x24,
   0x5f, 0x60, 0x01, 0x9a, 0x00, 0x02, 0x08, 0xa9, 0x92, 0x42, 0x01, 0x00,
   0x00, 0x00, 0x00, 0xe8, 0xff, 0xff, 0xff, 0xa5, 0x95, 0xca, 0xff, 0xbf,
   0xff, 0xff, 0xff, 0xff, 0xff, 0x8d, 0x0e, 0x82, 0x7a, 0xbc, 0xe0, 0xc0,
   0xaf, 0xa2, 0x00, 0xa8, 0x6a, 0x41, 0x29, 0x01, 0x00, 0x00, 0x00, 0x00,
   0xfe, 0xdf, 0xff, 0x7f, 0xb5, 0x76, 0x17, 0xfd, 0xff, 0xff, 0xff, 0xff,
   0xdf, 0xff, 0xa1, 0x7c, 0x5d, 0xed, 0x79, 0x01, 0xe0, 0x5f, 0x04, 0x02,
   0xa8, 0x54, 0x0f, 0x22, 0x02, 0x00, 0x00, 0x00, 0x00, 0xf5, 0xbf, 0xff,
   0xbf, 0xab, 0xd5, 0x35, 0xff, 0xff, 0xff, 0xff, 0xff, 0x7f, 0xff, 0x7a,
   0x4b, 0xae, 0xc2, 0xf3, 0x0d, 0x78, 0x2b, 0x51, 0x04, 0x20, 0xed, 0x92,
   0x84, 0x06, 0x00, 0x00, 0x00, 0x80, 0xf6, 0xff, 0xff, 0x1f, 0x2a, 0x7f,
   0x57, 0xf8, 0xff, 0xff, 0xff, 0xff, 0xdf, 0xff, 0x4d, 0xc7, 0x74, 0x01,
   0xc7, 0x1f, 0xe0, 0x5e, 0x12, 0x14, 0xa0, 0xa8, 0x27, 0x22, 0x08, 0x00,
   0x00, 0x00, 0x40, 0x9f, 0xef, 0xff, 0xff, 0x52, 0xd5, 0xa8, 0xf3, 0xff,
   0xff, 0xff, 0xff, 0x7f, 0xff, 0x92, 0x12, 0xbb, 0x02, 0x9f, 0x2a, 0xe0,
   0x3d, 0x48, 0x2a, 0xc0, 0x6a, 0x95, 0x94, 0x04, 0x00, 0x00, 0x00, 0x40,
   0x5e, 0xfd, 0xff, 0x5f, 0x55, 0xbb, 0x23, 0xdc, 0xff, 0xff, 0xff, 0xff,
   0xff, 0xff, 0xd7, 0xe2, 0xc3, 0x01, 0x3e, 0x1f, 0xe0, 0x75, 0x11, 0x00,
   0x80, 0x52, 0x15, 0x00, 0x1a, 0x00, 0x00, 0x00, 0xe0, 0x6b, 0xff, 0xff,
   0x4f, 0xa9, 0x6e, 0x4a, 0xdb, 0xdf, 0xff, 0xff, 0xff, 0xff, 0x7f, 0x50,
   0x19, 0x02, 0x42, 0xfd, 0x54, 0xe0, 0x9c, 0xa4, 0xa8, 0x00, 0xa5, 0xa6,
   0x4a, 0x08, 0x00, 0x00, 0x00, 0xc0, 0xdb, 0xff, 0xff, 0x43, 0xb5, 0x5f,
   0x10, 0xaa, 0x0a, 0xfd, 0xff, 0xff, 0xff, 0xbe, 0x72, 0x56, 0x00, 0xa0,
   0xbf, 0x29, 0xe0, 0x54, 0x84, 0x00, 0x00, 0xa5, 0x95, 0x88, 0x12, 0x00,
   0x00, 0x00, 0xd0, 0xef, 0xff, 0xff, 0x07, 0x6a, 0x25, 0x55, 0xca, 0x20,
   0xf4, 0xff, 0xff, 0xff, 0x7f, 0xdd, 0x27, 0x28, 0x94, 0xfb, 0x4b, 0xa1,
   0x00, 0x55, 0xaa, 0x00, 0xa2, 0x4e, 0x12, 0x54, 0x00, 0x00, 0x00, 0xf0,
   0xff, 0xff, 0xff, 0x03, 0xd4, 0x02, 0x40, 0xf2, 0x86, 0xe4, 0xff, 0xff,
   0x7f, 0xff, 0xe9, 0x0f, 0x4d, 0x54, 0xa5, 0x2f, 0x02, 0x00, 0x21, 0x20,
   0x01, 0xdc, 0x1a, 0x20, 0x21, 0x00, 0x00, 0x00, 0xe0, 0xb7, 0xff, 0xff,
   0x4d, 0x5c, 0x04, 0x95, 0x5c, 0x19, 0xc0, 0xff, 0xff, 0xff, 0xaf, 0x7d,
   0x08, 0x42, 0x68, 0xda, 0x4e, 0x0d, 0x80, 0x55, 0x85, 0x02, 0x00, 0x55,
   0x05, 0x54, 0x00, 0x00, 0x00, 0xf0, 0xff, 0xff, 0x7f, 0x89, 0xe0, 0x80,
   0x20, 0x3f, 0x23, 0x00, 0xff, 0xff, 0xff, 0x6e, 0xf7, 0x28, 0x00, 0x58,
   0x00, 0xbc, 0x0a, 0x80, 0x95, 0x12, 0x05, 0x08, 0x34, 0x95, 0xa2, 0x00,
   0x00, 0x00, 0xfc, 0x8e, 0xfd, 0x3f, 0x0a, 0x02, 0x50, 0x06, 0xbe, 0x48,
   0x00, 0xfe, 0xff, 0xff, 0xaf, 0xff, 0x40, 0x01, 0x50, 0x40, 0xff, 0x0b,
   0x00, 0x53, 0x85, 0x04, 0x10, 0x2a, 0x20, 0x48, 0x00, 0x00, 0x00, 0xfa,
   0x55, 0xff, 0x0f, 0x02, 0x18, 0x40, 0x04, 0xb6, 0xa0, 0x00, 0xfe, 0xff,
   0xff, 0xfd, 0xff, 0xe8, 0x00, 0x50, 0x80, 0xfa, 0x17, 0xc0, 0x07, 0x2c,
   0x10, 0x20, 0x6c, 0x05, 0x88, 0x01, 0x00, 0x00, 0x5e, 0xb5, 0xff, 0x8f,
   0x42, 0x0a, 0x80, 0x01, 0x57, 0x4a, 0x01, 0xf8, 0xff, 0xff, 0xf7, 0x7f,
   0x81, 0x03, 0x30, 0xd4, 0xb6, 0x25, 0xe0, 0x56, 0x91, 0x0a, 0xc0, 0x95,
   0x10, 0x21, 0x01, 0x00, 0x00, 0x7c, 0xfd, 0xff, 0xa7, 0x8a, 0x08, 0x88,
   0x06, 0x9d, 0x0a, 0x00, 0xfa, 0xff, 0xff, 0xff, 0x7f, 0x05, 0x00, 0xf0,
   0x88, 0xfd, 0x0e, 0xd8, 0x59, 0x12, 0x10, 0x90, 0xb5, 0x22, 0x04, 0x03,
   0x00, 0x80, 0x5f, 0xcf, 0xff, 0xab, 0x04, 0x02, 0x30, 0x00, 0x53, 0x2b,
   0x00, 0xf0, 0xff, 0xff, 0xfd, 0xf7, 0x81, 0x01, 0x20, 0x6a, 0xf8, 0x53,
   0xf4, 0xdd, 0xa2, 0x42, 0xc0, 0x53, 0x09, 0x10, 0x02, 0x00, 0x00, 0x7b,
   0x7e, 0xff, 0x90, 0x68, 0x02, 0x60, 0x00, 0x97, 0x86, 0x02, 0xe0, 0xff,
   0xff, 0xff, 0xfe, 0x81, 0x0f, 0x50, 0x48, 0xd0, 0xaf, 0xd7, 0x7c, 0x31,
   0x09, 0x00, 0x6f, 0x51, 0x52, 0x0a, 0x00, 0x80, 0x37, 0xf7, 0xff, 0x54,
   0x01, 0x00, 0x0a, 0x00, 0x56, 0xb1, 0x04, 0xc0, 0xff, 0xbf, 0xbe, 0xed,
   0xb1, 0x0a, 0x30, 0x05, 0x60, 0xfd, 0x2e, 0x16, 0x60, 0xa0, 0x00, 0x55,
   0x05, 0x00, 0x0a, 0x00, 0xc0, 0x5b, 0x9f, 0xff, 0x2a, 0x75, 0x01, 0x5c,
   0x00, 0xf6, 0x2b, 0x0b, 0xe0, 0xfa, 0x7f, 0x7a, 0xf5, 0xd7, 0x04, 0x60,
   0x04, 0xc8, 0xef, 0x1d, 0x84, 0x48, 0x05, 0x00, 0x6f, 0x55, 0x51, 0x14,
   0x00, 0x60, 0xdb, 0xff, 0xff, 0x0c, 0x80, 0x80, 0x57, 0x00, 0x5c, 0xa9,
   0x2a, 0x80, 0xf5, 0xbf, 0xae, 0xee, 0x5f, 0x21, 0x20, 0x03, 0x50, 0xff,
   0x0f, 0x40, 0x30, 0x01, 0x01, 0x9a, 0x4a, 0x02, 0x09, 0x00, 0xe0, 0x3b,
   0xff, 0x7f, 0x69, 0x90, 0x8a, 0x15, 0x00, 0x78, 0xd1, 0x07, 0x50, 0xde,
   0xff, 0xad, 0xad, 0x5f, 0x15, 0xc0, 0x04, 0x00, 0xb8, 0x05, 0x00, 0x7a,
   0x15, 0x00, 0xb6, 0x82, 0x0a, 0x31, 0x00, 0x40, 0x6b, 0xff, 0x9f, 0xaa,
   0x6f, 0x80, 0x96, 0x14, 0xf0, 0xbd, 0x3f, 0x02, 0x78, 0x5b, 0xeb, 0xbb,
   0x3f, 0x05, 0xa0, 0x05, 0x00, 0xdc, 0x03, 0x00, 0x0c, 0x04, 0x04, 0x94,
   0x2d, 0x09, 0x24, 0x00, 0xd0, 0xed, 0xff, 0x01, 0x7b, 0xd1, 0xab, 0x2c,
   0x50, 0xc0, 0xf7, 0x70, 0x03, 0xe8, 0xbf, 0x2a, 0xf7, 0x76, 0x05, 0x10,
   0x01, 0x00, 0x7c, 0x01, 0x00, 0xbe, 0x54, 0x00, 0x0c, 0x52, 0x4a, 0x60,
   0x00, 0xd0, 0xff, 0x3f, 0x28, 0x49, 0x0d, 0xfd, 0x0a, 0x68, 0x69, 0x6b,
   0x68, 0x05, 0x70, 0xef, 0xff, 0x3f, 0x50, 0x05, 0x40, 0x07, 0x00, 0xfa,
   0x01, 0x80, 0x43, 0x09, 0x01, 0x00, 0x94, 0x14, 0x81, 0x00, 0xd0, 0xff,
   0x2f, 0x08, 0x68, 0x7d, 0x93, 0x29, 0x60, 0x0b, 0x03, 0x48, 0x12, 0xe8,
   0x0f, 0x00, 0x90, 0x60, 0x01, 0x58, 0x0d, 0xa0, 0xfa, 0x00, 0xb0, 0x5a,
   0x2a, 0x02, 0x00, 0x12, 0x21, 0x40, 0x00, 0xe8, 0xff, 0x87, 0x15, 0xa6,
   0xba, 0xba, 0x20, 0x52, 0xf9, 0x8c, 0x52, 0x3f, 0x2a, 0x00, 0x00, 0x00,
   0x84, 0x00, 0xa8, 0x29, 0x80, 0xed, 0x00, 0x54, 0x45, 0x51, 0x10, 0x00,
   0xa4, 0x8a, 0x80, 0x00, 0xf4, 0xff, 0xa7, 0x3d, 0x48, 0x7b, 0x9e, 0xc5,
   0x93, 0xaf, 0x08, 0xe8, 0x7a, 0x54, 0x00, 0x00, 0x00, 0x14, 0x00, 0x68,
   0x0b, 0x00, 0xeb, 0x00, 0x8d, 0x5a, 0x15, 0x01, 0x00, 0x2d, 0x34, 0x01,
   0x00, 0xe8, 0xff, 0xd9, 0x7e, 0xb6, 0xbe, 0x5b, 0x02, 0x81, 0xf7, 0x00,
   0xf6, 0xff, 0x00, 0x00, 0x00, 0x00, 0x00, 0x00, 0xd4, 0x36, 0x14, 0xf1,
   0xd1, 0x82, 0x55, 0xa5, 0x40, 0x60, 0x85, 0x42, 0x00, 0x00, 0xfa, 0xff,
   0xdb, 0xff, 0xef, 0xfd, 0x9f, 0x1c, 0x01, 0xf9, 0x81, 0x5f, 0xf5, 0x04,
   0x00, 0x00, 0x00, 0x00, 0x00, 0x94, 0xa0, 0x28, 0xa4, 0xff, 0x01, 0x50,
   0x88, 0x00, 0xc0, 0x11, 0x1a, 0x01, 0x00, 0xfc, 0x7f, 0xb9, 0xff, 0x7f,
   0xff, 0xdf, 0xf8, 0x81, 0x38, 0xbe, 0x9f, 0xb1, 0x03, 0x00, 0x00, 0x10,
   0x00, 0x00, 0x00, 0x00, 0x00, 0xea, 0xbb, 0x00, 0x80, 0x42, 0x04, 0x80,
   0x26, 0x62, 0x00, 0x00, 0xfa, 0xff, 0xab, 0xff, 0xff, 0xff, 0x9f, 0xe9,
   0x01, 0xf0, 0xb4, 0x14, 0x42, 0x00, 0x00, 0x00, 0x04, 0x00, 0x00, 0x00,
   0x00, 0x00, 0x58, 0x77, 0x00, 0x00, 0x04, 0x08, 0x80, 0x41, 0xca, 0x02,
   0x00, 0xfe, 0x3f, 0xde, 0xff, 0xff, 0xff, 0x9f, 0xfe, 0x03, 0x40, 0x03,
   0x00, 0x04, 0x00, 0x20, 0x80, 0x00, 0x00, 0x00, 0x00, 0x00, 0x00, 0xe8,
   0x5f, 0x00, 0x00, 0x85, 0x84, 0x00, 0x0b, 0x08, 0x01, 0x00, 0xfc, 0x7f,
   0xf9, 0xff, 0xff, 0xff, 0x9f, 0xfe, 0x03, 0xf8, 0x00, 0x00, 0x04, 0x00,
   0x00, 0x00, 0x16, 0x00, 0x00, 0x00, 0x00, 0x00, 0xa0, 0x1e, 0x00, 0x00,
   0x1b, 0x14, 0x00, 0x2b, 0x21, 0x05, 0x80, 0xfe, 0x7f, 0xff, 0xff, 0xf7,
   0xff, 0x9f, 0xff, 0x0f, 0x70, 0x00, 0x00, 0x0c, 0x00, 0x00, 0x00, 0x40,
   0x00, 0x00, 0x00, 0x00, 0x00, 0x40, 0x1b, 0x00, 0xe0, 0x4a, 0x08, 0x01,
   0x43, 0x54, 0x00, 0x40, 0xfc, 0x5f, 0xfd, 0xff, 0xf2, 0xff, 0x9f, 0xff,
   0x07, 0x5e, 0x02, 0x00, 0x00, 0x00, 0x00, 0x00, 0x00, 0x02, 0x00, 0x00,
   0x00, 0x00, 0x00, 0x3e, 0x00, 0x9e, 0x96, 0x22, 0x00, 0x4e, 0x94, 0x0a,
   0xc0, 0xfd, 0x6b, 0xff, 0xff, 0x08, 0xf2, 0xb5, 0xfc, 0x87, 0x9f, 0x05,
   0x00, 0x80, 0x02, 0x00, 0x00, 0x00, 0x00, 0x00, 0x00, 0x00, 0x00, 0x00,
   0x3a, 0x21, 0x66, 0x15, 0x44, 0x01, 0x84, 0x52, 0x01, 0xe0, 0xfb, 0xd5,
   0xfc, 0x7f, 0x29, 0x00, 0x04, 0xf9, 0xe1, 0xbf, 0x35, 0x00, 0x80, 0x00,
   0x00, 0x00, 0x00, 0x00, 0x00, 0x00, 0x00, 0x00, 0x00, 0x78, 0x7b, 0xcc,
   0xd5, 0x0c, 0x00, 0x9c, 0x40, 0x0b, 0xe0, 0xff, 0xf2, 0xff, 0x3f, 0x00,
   0x20, 0x05, 0x54, 0xa0, 0xba, 0x52, 0x00, 0x00, 0x01, 0x00, 0x00, 0x00,
   0x00, 0x00, 0x00, 0x00, 0x00, 0x00, 0xf4, 0xfd, 0x7b, 0x1a, 0x01, 0x01,
   0x24, 0x55, 0x02, 0xe0, 0xff, 0xe3, 0xff, 0x3f, 0x00, 0x20, 0x00, 0x08,
   0xc0, 0x22, 0xa5, 0x00, 0x00, 0x05, 0x00, 0x00, 0x00, 0x00, 0x00, 0x00,
   0x00, 0x00, 0x00, 0xf0, 0xbf, 0x15, 0x2e, 0x06, 0x02, 0x4c, 0x80, 0x0a,
   0xf0, 0xff, 0xea, 0xff, 0x05, 0x00, 0x00, 0x00, 0x04, 0xa0, 0x12, 0x00,
   0x02, 0x00, 0x3c, 0x00, 0x00, 0x00, 0x00, 0x00, 0x00, 0x00, 0x00, 0x00,
   0xa8, 0xff, 0xc6, 0x20, 0x00, 0x00, 0x98, 0x5a, 0x02, 0xf0, 0xff, 0xd7,
   0xbf, 0x00, 0x00, 0x00, 0x00, 0x00, 0x60, 0x25, 0x09, 0x00, 0x00, 0x68,
   0x00, 0x00, 0x00, 0x00, 0x40, 0x00, 0x00, 0x00, 0x00, 0x30, 0xde, 0x6d,
   0x00, 0x00, 0x00, 0xb8, 0x20, 0x15, 0xf0, 0xbb, 0xe8, 0xbf, 0x00, 0x00,
   0x00, 0x08, 0x0a, 0x20, 0x00, 0x00, 0x00, 0x00, 0x50, 0x01, 0xa0, 0x00,
   0x00, 0x00, 0x01, 0x00, 0x00, 0x00, 0xa0, 0xfe, 0x23, 0x00, 0x00, 0x00,
   0x50, 0x56, 0x15, 0xf8, 0xff, 0xf9, 0x3f, 0x00, 0x00, 0x00, 0x00, 0x00,
   0xa0, 0x00, 0x00, 0x00, 0x00, 0x40, 0x00, 0xa4, 0x07, 0x00, 0x00, 0x01,
   0x00, 0x02, 0x00, 0x40, 0xba, 0x41, 0x00, 0x00, 0x00, 0xb0, 0x88, 0x2a,
   0xf8, 0x7f, 0xfd, 0x1f, 0x00, 0x00, 0x00, 0x08, 0x02, 0x10, 0x00, 0x00,
   0x00, 0x00, 0x80, 0x01, 0x90, 0x5c, 0x05, 0x00, 0x02, 0x00, 0x00, 0x00,
   0xa0, 0xec, 0x01, 0x00, 0x00, 0x02, 0x28, 0x55, 0x05, 0xf8, 0x7f, 0xf6,
   0x37, 0x00, 0x00, 0x00, 0x10, 0x00, 0x48, 0x00, 0x00, 0x00, 0x00, 0x00,
   0x42, 0x80, 0x54, 0x15, 0x00, 0x06, 0x00, 0x48, 0x00, 0x20, 0xd8, 0x01,
   0x00, 0x00, 0x04, 0x70, 0xa5, 0x6c, 0xf8, 0x3f, 0xfa, 0x1f, 0x00, 0x00,
   0x00, 0x81, 0x00, 0x20, 0x00, 0x00, 0x00, 0x00, 0x00, 0x00, 0x29, 0xac,
   0x25, 0x01, 0x1c, 0x00, 0xa0, 0x00, 0x40, 0xe8, 0x01, 0x00, 0x82, 0x00,
   0x70, 0x14, 0x15, 0xfc, 0x7f, 0xfa, 0x1f, 0x00, 0x00, 0x00, 0x00, 0x00,
   0x04, 0x00, 0x00, 0x00, 0x00, 0x00, 0x00, 0x00, 0x90, 0x4a, 0x04, 0x1d,
   0x00, 0x58, 0x00, 0x00, 0xf0, 0x00, 0x40, 0x05, 0x08, 0xc0, 0x25, 0x6a,
   0xfc, 0xbf, 0xfe, 0x1f, 0x00, 0x00, 0x00, 0x00, 0x00, 0x00, 0x00, 0x00,
   0x00, 0x00, 0x00, 0x00, 0x20, 0xb4, 0x92, 0x32, 0x19, 0x00, 0xb0, 0x00,
   0x90, 0x30, 0x00, 0xc0, 0x52, 0x02, 0x20, 0x8b, 0x95, 0xfc, 0x3f, 0xfd,
   0x1f, 0x00, 0x00, 0x00, 0x01, 0x00, 0x04, 0x00, 0x00, 0x00, 0x00, 0x00,
   0x00, 0x00, 0xa0, 0x56, 0x24, 0x10, 0x00, 0xc0, 0x00, 0xb0, 0x10, 0x00,
   0x70, 0x49, 0x0a, 0xe0, 0x50, 0x54, 0xf8, 0x7f, 0xfe, 0x0b, 0x00, 0x00,
   0x00, 0x00, 0x00, 0x00, 0x00, 0x00, 0x00, 0x00, 0x00, 0x00, 0x00, 0x60,
   0xad, 0x92, 0x10, 0x00, 0x64, 0x00, 0xe0, 0x10, 0x82, 0x56, 0x05, 0x08,
   0x40, 0x40, 0xab, 0xf8, 0xbf, 0xfd, 0x0b, 0x00, 0x00, 0x00, 0x00, 0x00,
   0x00, 0x00, 0x00, 0x00, 0x00, 0x00, 0x00, 0x00, 0xc0, 0xba, 0x92, 0x22,
   0x00, 0x18, 0x00, 0x40, 0x81, 0x02, 0x3c, 0x51, 0x10, 0x00, 0x40, 0x2a,
   0xf8, 0xff, 0xff, 0x15, 0x00, 0x00, 0x00, 0x00, 0x00, 0x00, 0x00, 0x00,
   0x00, 0x00, 0x00, 0x00, 0x00, 0x40, 0x65, 0x2d, 0x34, 0x00, 0x20, 0x00,
   0x80, 0xb0, 0x05, 0x5c, 0x83, 0x08, 0x00, 0x00, 0xaa, 0xf0, 0xff, 0xff,
   0x0d, 0x00, 0x00, 0x00, 0x00, 0x00, 0x00, 0x00, 0x00, 0x00, 0x00, 0x00,
   0x00, 0x00, 0x80, 0xd6, 0xa9, 0x22, 0x00, 0x00, 0x00, 0x68, 0x61, 0xaf,
   0x16, 0x16, 0x10, 0x00, 0xc0, 0x4a, 0xbc, 0xff, 0xff, 0x0b, 0x00, 0x20,
   0x00, 0x00, 0x00, 0x00, 0x00, 0x00, 0x00, 0x00, 0x00, 0x00, 0x00, 0x80,
   0x55, 0x57, 0x48, 0x00, 0x00, 0x00, 0x00, 0xd0, 0xfd, 0xd7, 0x51, 0x50,
   0x40, 0x80, 0x94, 0xf8, 0xff, 0x7f, 0x0d, 0x00, 0x00, 0x00, 0x00, 0x00,
   0x00, 0x00, 0x00, 0x00, 0x00, 0x00, 0x00, 0x00, 0x00, 0xdb, 0x8a, 0x40,
   0x00, 0x20, 0x00, 0x00, 0xc0, 0xff, 0x15, 0x22, 0x01, 0x80, 0xa0, 0x54,
   0xb8, 0xff, 0x3f, 0x0d, 0x00, 0x00, 0x00, 0x00, 0x00, 0x00, 0x00, 0x0c,
   0x00, 0x00, 0x00, 0x00, 0x00, 0x00, 0xac, 0x2a, 0x45, 0x00, 0x20, 0x00,
   0x00, 0x80, 0xff, 0x57, 0x01, 0x40, 0x00, 0x59, 0x55, 0xf8, 0xef, 0xbf,
   0x06, 0x00, 0x00, 0x00, 0x00, 0x00, 0x00, 0x00, 0x1c, 0x00, 0x00, 0x00,
   0x00, 0x00, 0x00, 0xaa, 0xae, 0x4a, 0x00, 0x20, 0x00, 0x40, 0x81, 0x6f,
   0x5d, 0x61, 0x01, 0x80, 0xa3, 0x2a, 0xf0, 0xff, 0x5f, 0x07, 0x00, 0x00,
   0x00, 0x00, 0x00, 0x02, 0x00, 0x2e, 0x00, 0x00, 0x00, 0x00, 0x00, 0x00,
   0xa4, 0xb2, 0x92, 0x00, 0x00, 0x02, 0x00, 0x01, 0xff, 0x6a, 0x8a, 0x2a,
   0x00, 0x2b, 0x99, 0xf0, 0xef, 0x3f, 0x05, 0x00, 0x00, 0x00, 0x00, 0x00,
   0x00, 0x04, 0x5e, 0x00, 0x00, 0x00, 0x00, 0x00, 0x00, 0x58, 0xad, 0x96,
   0x00, 0x10, 0x02, 0x00, 0x01, 0xdf, 0xef, 0x75, 0x09, 0x00, 0xa7, 0x2a,
   0xf0, 0xff, 0xdf, 0x06, 0x00, 0x00, 0x80, 0x00, 0x40, 0x01, 0x04, 0xff,
   0x00, 0x00, 0x00, 0x00, 0x00, 0x00, 0xa0, 0x54, 0x05, 0x01, 0x00, 0x04,
   0x00, 0x00, 0x6f, 0x00, 0x08, 0x12, 0x00, 0xab, 0x92, 0xe0, 0xff, 0x3f,
   0x06, 0x00, 0x00, 0x00, 0x00, 0x00, 0x01, 0x04, 0xce, 0x00, 0x00, 0x00,
   0x00, 0x00, 0x00, 0xa0, 0x56, 0x2d, 0x01, 0x00, 0x02, 0x00, 0x80, 0x10,
   0x00, 0x40, 0x12, 0x00, 0x97, 0x2a, 0xe0, 0xef, 0x7f, 0x03, 0x00, 0x00,
   0x00, 0x00, 0x00, 0x01, 0x84, 0xdf, 0x01, 0x00, 0x00, 0x00, 0x00, 0x00,
   0x20, 0xa9, 0x10, 0x01, 0x08, 0x00, 0x00, 0x80, 0x10, 0x00, 0x50, 0x09,
   0x00, 0x2a, 0x55, 0xc0, 0xff, 0x7f, 0x03, 0x00, 0x00, 0x00, 0x00, 0x20,
   0x00, 0x0c, 0xc6, 0x01, 0x00, 0x00, 0x00, 0x00, 0x00, 0xa0, 0x5a, 0x09,
   0x03, 0x10, 0x04, 0x00, 0x52, 0x08, 0x00, 0x40, 0x15, 0x00, 0x4b, 0x25,
   0xc0, 0xff, 0xff, 0x03, 0x00, 0x00, 0x00, 0x00, 0xa0, 0x00, 0xc6, 0x86,
   0x01, 0x00, 0x00, 0x00, 0x00, 0x00, 0xc0, 0xa2, 0x24, 0x04, 0x08, 0x00,
   0x00, 0xd4, 0x48, 0x00, 0x00, 0x4a, 0x00, 0xae, 0xaa, 0x80, 0xff, 0xbf,
   0x02, 0x00, 0x00, 0x00, 0x00, 0x80, 0x00, 0x46, 0x8f, 0x03, 0x00, 0x00,
   0x00, 0x00, 0x00, 0x80, 0x24, 0x45, 0x01, 0x1c, 0x02, 0x80, 0xd2, 0x14,
   0x00, 0x0a, 0x00, 0x00, 0x2e, 0x55, 0x80, 0xff, 0x7f, 0x01, 0x00, 0x00,
   0x00, 0x00, 0x50, 0x00, 0x4e, 0x1e, 0x09, 0x00, 0x00, 0x00, 0x01, 0x00,
   0x80, 0x49, 0x52, 0x02, 0x2a, 0x02, 0x00, 0x85, 0x44, 0xa0, 0x16, 0x00,
   0x00, 0x4a, 0x55, 0x00, 0xff, 0xbf, 0x01, 0x00, 0x00, 0x00, 0x00, 0x44,
   0x00, 0x4c, 0x9f, 0x03, 0x00, 0x00, 0x00, 0x01, 0x00, 0x00, 0x51, 0x94,
   0x02, 0x14, 0x00, 0x00, 0xdd, 0x05, 0x00, 0x00, 0x00, 0x00, 0x5e, 0xaa,
   0x00, 0xfb, 0xbf, 0x02, 0x00, 0x00, 0x00, 0x00, 0xa0, 0x00, 0xac, 0x06,
   0x01, 0x00, 0x00, 0x00, 0x02, 0x00, 0x00, 0x8b, 0xc0, 0x01, 0x00, 0x02,
   0x00, 0xd0, 0x37, 0x00, 0x40, 0x11, 0x00, 0x56, 0xa9, 0x00, 0xf6, 0xff,
   0x01, 0x00, 0x00, 0x00, 0x00, 0x24, 0x00, 0xac, 0x86, 0x05, 0x00, 0x00,
   0x00, 0x00, 0x00, 0x00, 0x3a, 0x9c, 0x02, 0x00, 0x00, 0x00, 0xd5, 0x7f,
   0x02, 0x2a, 0x02, 0x08, 0xd4, 0x57, 0x00, 0xaf, 0xff, 0x01, 0x00, 0x00,
   0x00, 0x00, 0x50, 0x00, 0x5c, 0x06, 0x05, 0x00, 0x00, 0x00, 0x02, 0x00,
   0x00, 0xac, 0xf7, 0x00, 0x10, 0x00, 0x00, 0xa0, 0xbf, 0x8d, 0x1e, 0x48,
   0x00, 0xbe, 0xaa, 0x40, 0x6d, 0xff, 0x01, 0x02, 0x00, 0x00, 0x00, 0x20,
   0x00, 0x98, 0x04, 0x05, 0x00, 0x00, 0x00, 0x02, 0x00, 0x00, 0xac, 0x2f,
   0x00, 0x0d, 0x02, 0x00, 0xa9, 0xfd, 0x3f, 0x35, 0x08, 0x08, 0x6a, 0xab,
   0x00, 0xdb, 0xfe, 0x03, 0x44, 0x00, 0x00, 0x00, 0x28, 0x00, 0xb8, 0x8c,
   0x08, 0x00, 0x00, 0x00, 0x12, 0x00, 0x00, 0xf4, 0x5a, 0x00, 0x16, 0x02,
   0x00, 0x6a, 0x02, 0xf4, 0x14, 0x00, 0x00, 0x9c, 0x54, 0x80, 0xfe, 0xff,
   0x01, 0x00, 0x00, 0x00, 0x00, 0x20, 0x00, 0xb8, 0x48, 0x03, 0x00, 0x00,
   0x00, 0x02, 0x00, 0x00, 0xec, 0x07, 0x00, 0x08, 0x00, 0x00, 0x64, 0x00,
   0xa0, 0x95, 0x40, 0x00, 0x0a, 0xa8, 0x00, 0xf7, 0xff, 0x01, 0x42, 0x00,
   0x00, 0x00, 0x10, 0x00, 0xb8, 0x7b, 0x01, 0x00, 0x00, 0x00, 0x22, 0x00,
   0x00, 0xf8, 0x00, 0x00, 0x04, 0x01, 0x04, 0x1d, 0x00, 0x28, 0x5b, 0xa4,
   0x08, 0x05, 0xa0, 0x00, 0xff, 0xff, 0x01, 0x03, 0x00, 0x00, 0x00, 0x10,
   0x00, 0xb8, 0xbe, 0x00, 0x00, 0x11, 0x00, 0x22, 0x00, 0x00, 0xd8, 0x00,
   0x02, 0x02, 0x00, 0x80, 0x35, 0x02, 0xff, 0x96, 0x00, 0x00, 0x00, 0x40,
   0x00, 0xee, 0xff, 0x81, 0x56, 0x00, 0x00, 0x00, 0x18, 0x00, 0x78, 0xfd,
   0x00, 0x00, 0x20, 0x00, 0x02, 0x00, 0x00, 0x38, 0x04, 0xfc, 0x03, 0x00,
   0x40, 0x12, 0x00, 0x6c, 0x55, 0x4a, 0x08, 0x00, 0xc0, 0x00, 0xfe, 0xff,
   0x01, 0x07, 0x00, 0x00, 0x00, 0x11, 0x00, 0x58, 0xbb, 0x04, 0x20, 0xc0,
   0x01, 0x01, 0x00, 0x00, 0xf8, 0x00, 0xf8, 0x03, 0x00, 0x00, 0x7a, 0x01,
   0x40, 0x56, 0x40, 0x08, 0x00, 0x80, 0x00, 0xdc, 0xff, 0x81, 0x53, 0x01,
   0x00, 0x00, 0x08, 0x00, 0xf8, 0x6f, 0x01, 0x00, 0x80, 0x80, 0x42, 0x00,
   0x00, 0x14, 0x50, 0x00, 0x00, 0x00, 0x40, 0xf9, 0x00, 0x00, 0x0b, 0x49,
   0x00, 0x00, 0x40, 0x00, 0xfc, 0xff, 0x01, 0x43, 0x00, 0x00, 0x00, 0x18,
   0x00, 0x58, 0x2d, 0x0a, 0x00, 0x20, 0x55, 0x01, 0x00, 0x00, 0x38, 0x60,
   0xdf, 0x80, 0x00, 0x00, 0xfa, 0x03, 0x00, 0x3b, 0x52, 0x08, 0x00, 0xc0,
   0x00, 0xfc, 0xfe, 0x01, 0x93, 0x00, 0x00, 0x00, 0x08, 0x00, 0xb8, 0x95,
   0x00, 0x00, 0x40, 0x90, 0x82, 0x00, 0x00, 0x3c, 0x83, 0x7a, 0x10, 0x00,
   0x00, 0x6c, 0x05, 0x00, 0x85, 0x48, 0x00, 0x00, 0x80, 0x00, 0xbc, 0xff,
   0x01, 0xa2, 0x01, 0x00, 0x00, 0x19, 0x00, 0x70, 0x0a, 0x00, 0x00, 0xc0,
   0xa2, 0x02, 0x00, 0x00, 0x2c, 0x02, 0x3e, 0x10, 0x00, 0x00, 0xfc, 0x01,
   0x00, 0x2e, 0x52, 0x00, 0x00, 0xc0, 0x00, 0xf8, 0xfe, 0x81, 0x03, 0x02,
   0x00, 0x00, 0x04, 0x00, 0x30, 0x42, 0x00, 0x00, 0x40, 0x59, 0x83, 0x04,
   0x00, 0x18, 0x0a, 0x94, 0x00, 0x04, 0x91, 0x5b, 0x07, 0x00, 0x48, 0x28,
   0x08, 0x00, 0x80, 0x00, 0xf8, 0xff, 0x41, 0xa2, 0x02, 0x00, 0x80, 0x08,
   0x00, 0xa0, 0x0a, 0x04, 0x00, 0xc0, 0x42, 0x81, 0x04, 0x00, 0x7e, 0x0a,
   0x20, 0x0a, 0x2a, 0x96, 0xfe, 0x0e, 0x00, 0x90, 0x54, 0x00, 0x00, 0xa0,
   0x00, 0xf8, 0xff, 0x81, 0xa8, 0x05, 0x00, 0x00, 0x04, 0x00, 0x00, 0x10,
   0x00, 0x00, 0x80, 0xac, 0x02, 0x0d, 0x00, 0x5c, 0x28, 0x00, 0x03, 0x40,
   0x5b, 0xff, 0x1b, 0x02, 0x25, 0x24, 0x00, 0x01, 0x60, 0x00, 0xf0, 0xfb,
   0x83, 0x21, 0x03, 0x00, 0x00, 0x0c, 0x00, 0x00, 0x00, 0x00, 0x00, 0x80,
   0xa1, 0x82, 0x04, 0x00, 0x96, 0x60, 0x82, 0x05, 0x40, 0xff, 0xfe, 0x6b,
   0x54, 0xaa, 0x2c, 0x04, 0x01, 0xd0, 0x00, 0xf0, 0xef, 0x01, 0xa0, 0x0a,
   0x00, 0x80, 0x00, 0x00, 0x00, 0x00, 0x00, 0x00, 0xa0, 0x49, 0x02, 0x2c,
   0x01, 0x57, 0x00, 0x8b, 0x24, 0x40, 0xd5, 0x5f, 0xae, 0x5f, 0x29, 0x32,
   0x80, 0x04, 0xa8, 0x00, 0xe0, 0xff, 0x13, 0x42, 0x05, 0x00, 0x00, 0x0c,
   0x00, 0x00, 0x00, 0x00, 0x00, 0x80, 0x51, 0x85, 0x44, 0x86, 0x2f, 0x23,
   0xa9, 0x00, 0x00, 0xb6, 0x2d, 0xbc, 0xfb, 0xad, 0x24, 0x80, 0x14, 0x5a,
   0x00, 0xc0, 0xff, 0x41, 0xb0, 0x05, 0x00, 0x02, 0x02, 0x00, 0x40, 0x00,
   0x00, 0x00, 0x00, 0x23, 0x05, 0x28, 0xc0, 0xff, 0xff, 0xff, 0x00, 0x80,
   0xff, 0x1f, 0xe0, 0x56, 0x8b, 0x1a, 0x80, 0xf2, 0x6a, 0x00, 0xc0, 0xff,
   0x85, 0x40, 0x0b, 0x80, 0x40, 0x0c, 0x00, 0x90, 0x00, 0x00, 0x00, 0x20,
   0x6f, 0x83, 0x55, 0x78, 0xbf, 0xff, 0xdf, 0x83, 0x7a, 0xff, 0x17, 0x00,
   0xed, 0x9f, 0x2a, 0x80, 0x04, 0xd5, 0x00, 0x00, 0xff, 0x03, 0xb2, 0x05,
   0x08, 0x01, 0x04, 0x00, 0x40, 0x02, 0x00, 0x00, 0x80, 0xaa, 0x02, 0x8a,
   0xdf, 0xeb, 0xef, 0x7d, 0x05, 0x6f, 0x7d, 0x1f, 0xc0, 0x55, 0xa5, 0x0a,
   0x40, 0x75, 0x55, 0x00, 0x00, 0xff, 0x53, 0x40, 0x17, 0x08, 0x82, 0x08,
   0x00, 0x20, 0x02, 0x00, 0x00, 0x40, 0xf7, 0x82, 0xe2, 0x7f, 0x7f, 0xef,
   0x88, 0x17, 0x52, 0xfd, 0x6d, 0xa0, 0xef, 0xaf, 0x0a, 0x60, 0x95, 0x56,
   0x00, 0x00, 0xff, 0x43, 0xa9, 0x0a, 0x80, 0x20, 0x26, 0x00, 0x80, 0x58,
   0x01, 0x00, 0x80, 0x4d, 0x43, 0xfc, 0xdd, 0xfd, 0xc7, 0x21, 0x00, 0x00,
   0xfe, 0x5e, 0xe0, 0xbe, 0x56, 0x12, 0x20, 0x6a, 0x59, 0x00, 0x00, 0xfe,
   0x13, 0xc1, 0x16, 0x00, 0x05, 0x0c, 0x00, 0x90, 0xba, 0x07, 0x00, 0x00,
   0xdd, 0x96, 0xbf, 0xff, 0xe7, 0xaf, 0x40, 0x49, 0x81, 0xd4, 0x1f, 0xe1,
   0xbb, 0x9d, 0x02, 0x60, 0x25, 0x2b, 0x00, 0x00, 0xfc, 0x27, 0x94, 0x05,
   0x00, 0x20, 0x04, 0x00, 0xb8, 0xf6, 0xfa, 0x02, 0xd0, 0xb7, 0xeb, 0xff,
   0xfb, 0xff, 0x8f, 0x00, 0x30, 0x01, 0xed, 0xbd, 0xa1, 0x7d, 0x53, 0x08,
   0xa0, 0x55, 0x15, 0x00, 0x00, 0xfc, 0x4f, 0x40, 0x0d, 0x00, 0x02, 0x18,
   0x00, 0x72, 0xed, 0x56, 0x1f, 0x80, 0x6d, 0xed, 0xff, 0xdf, 0xff, 0x1f,
   0x01, 0x40, 0x40, 0xaf, 0x3d, 0xa5, 0x7f, 0xd7, 0x02, 0x70, 0xab, 0x2a,
   0x00, 0x00, 0xf8, 0xdf, 0x24, 0x0f, 0x20, 0x08, 0x04, 0x40, 0xfc, 0xfa,
   0xbb, 0x68, 0xa0, 0xb6, 0xfc, 0xff, 0xf7, 0xff, 0x7f, 0x00, 0x08, 0xf5,
   0xed, 0x5f, 0xc3, 0xeb, 0x2d, 0x08, 0x20, 0x55, 0x15, 0x00, 0x00, 0xf0,
   0x9f, 0x49, 0x1d, 0x00, 0xa1, 0x1c, 0x08, 0xb0, 0xb5, 0x37, 0x49, 0x53,
   0x2a, 0xff, 0xff, 0x8b, 0xff, 0xef, 0x45, 0xe8, 0xbf, 0x85, 0xf5, 0x06,
   0xbf, 0x8a, 0x08, 0xf0, 0xaa, 0x02, 0x00, 0x00, 0xc0, 0xff, 0x55, 0x2f,
   0x09, 0x29, 0x22, 0x40, 0x59, 0x3b, 0xaf, 0x92, 0xa4, 0xca, 0xff, 0xff,
   0xf6, 0xff, 0xff, 0xff, 0xff, 0x7f, 0xc0, 0xff, 0xaf, 0xf6, 0x15, 0x02,
   0x88, 0x16, 0x00, 0x00, 0x00, 0x80, 0xff, 0xa7, 0x3c, 0x28, 0xa1, 0x94,
   0x0a, 0xba, 0x7e, 0x7b, 0x55, 0x95, 0xea, 0x7f, 0x7f, 0x9d, 0xff, 0xf1,
   0xff, 0xff, 0x7f, 0x05, 0xff, 0xaf, 0x55, 0x55, 0x04, 0x78, 0xa9, 0x00,
   0x00, 0x00, 0x00, 0xfe, 0x4f, 0x55, 0x08, 0xa5, 0x4c, 0x90, 0x6c, 0xbf,
   0x57, 0x44, 0xa5, 0xfa, 0x7f, 0x0d, 0xfe, 0xff, 0xc7, 0xff, 0xff, 0xff,
   0x40, 0xf6, 0xff, 0xf7, 0x92, 0x04, 0xa0, 0x16, 0x00, 0x00, 0x00, 0x00,
   0xfe, 0x9f, 0x5a, 0x51, 0xa9, 0x18, 0x00, 0x6c, 0x1f, 0x7f, 0x69, 0xbf,
   0xff, 0xff, 0x0f, 0xfd, 0xff, 0x5f, 0xff, 0xff, 0xeb, 0x0a, 0x7f, 0xff,
   0xab, 0x82, 0x00, 0xa0, 0x0a, 0x00, 0x00, 0x00, 0x00, 0xf8, 0x1f, 0xa2,
   0x2e, 0x55, 0x35, 0x55, 0xbd, 0x8e, 0x67, 0x5f, 0x55, 0xff, 0xff, 0x7f,
   0xd1, 0xff, 0xdd, 0xfd, 0xff, 0xff, 0x29, 0xff, 0xbf, 0x6d, 0x11, 0x03,
   0xe8, 0x02, 0x00, 0x00, 0x00, 0x00, 0xf0, 0x7f, 0x68, 0x08, 0xa4, 0x68,
   0x10, 0xb5, 0xdf, 0x57, 0xe9, 0xff, 0xff, 0xff, 0x1f, 0xf0, 0x01, 0x70,
   0xff, 0xff, 0xf7, 0x41, 0xbe, 0xfb, 0x4f, 0x25, 0x00, 0xc0, 0x16, 0x00,
   0x00, 0x00, 0x00, 0xc0, 0xff, 0xdf, 0xb1, 0x22, 0xbc, 0x42, 0x5d, 0xff,
   0xad, 0xb6, 0xfa, 0xff, 0xff, 0x05, 0xfc, 0x1f, 0xd0, 0xff, 0xd7, 0xff,
   0x53, 0xfd, 0xbf, 0x2a, 0xc0, 0x00, 0x80, 0x02, 0x00, 0x00, 0x00, 0x00,
   0x80, 0xff, 0x55, 0xb7, 0xad, 0x71, 0x52, 0xfd, 0xff, 0xbf, 0x6d, 0xff,
   0xff, 0xbf, 0xff, 0xff, 0x1f, 0x90, 0xfe, 0xd6, 0xf7, 0x9f, 0xfc, 0xff,
   0x8d, 0x8a, 0x00, 0x80, 0x02, 0x00, 0x00, 0x00, 0x00, 0x00, 0xfa, 0xb7,
   0xee, 0xfa, 0x6e, 0x89, 0x3e, 0xff, 0xff, 0xff, 0xff, 0xff, 0x7f, 0xff,
   0xff, 0x4f, 0x70, 0xbb, 0xf7, 0xdf, 0x2f, 0xfd, 0x7f, 0x25, 0x22, 0x80,
   0x00, 0x01, 0x00, 0x00, 0x00, 0x00, 0x00, 0xe0, 0x57, 0x39, 0xcb, 0xed,
   0x53, 0xff, 0xff, 0xff, 0xff, 0xff, 0xfb, 0xdf, 0xff, 0xff, 0x5f, 0x70,
   0xf7, 0x60, 0xfd, 0xff, 0x69, 0xff, 0x8a, 0x68, 0x60, 0x40, 0x02, 0x00,
   0x00, 0x00, 0x00, 0x00, 0xe0, 0xff, 0xea, 0xba, 0x6f, 0xfe, 0xfd, 0xff,
   0xf7, 0xff, 0xff, 0xf7, 0x3e, 0xff, 0xff, 0xff, 0xb3, 0x1f, 0x40, 0xf9,
   0xff, 0xff, 0xb5, 0x20, 0x12, 0x40, 0x13, 0x01, 0x00, 0x00, 0x00, 0x00,
   0x00, 0x80, 0xdf, 0x3b, 0xaa, 0xd6, 0xff, 0xff, 0xff, 0xeb, 0xdf, 0xd7,
   0xed, 0xbf, 0xff, 0x1f, 0xf8, 0x6e, 0x0b, 0xc0, 0xf8, 0xff, 0xd7, 0x7d,
   0x55, 0x0a, 0xd0, 0x3e, 0x00, 0x00, 0x00, 0x00, 0x00, 0x00, 0x00, 0xb8,
   0x6f, 0xcd, 0x2f, 0xff, 0xff, 0xff, 0xf7, 0xef, 0xd3, 0xfa, 0x9e, 0x77,
   0x0d, 0x58, 0x10, 0x00, 0xa0, 0xf8, 0xfe, 0xff, 0x9f, 0x40, 0x05, 0x58,
   0x45, 0x00, 0x00, 0x00, 0x00, 0x00, 0x00, 0x00, 0x00, 0x00, 0x6c, 0x00,
   0x3f, 0xff, 0x87, 0xfe, 0xab, 0xea, 0xf5, 0x14, 0x02, 0x7b, 0x11, 0x01,
   0x00, 0xe0, 0xfa, 0xfb, 0xbd, 0x2d, 0x2a, 0x05, 0xba, 0x95, 0x00, 0x00,
   0x00, 0x00, 0x00, 0x00, 0x00, 0x00, 0x00, 0x80, 0xf5, 0xfe, 0x06, 0x00,
   0x0c, 0x7f, 0x55, 0x81, 0x2b, 0xa0, 0x57, 0x01, 0x04, 0x00, 0x78, 0xfc,
   0xbf, 0xf7, 0x96, 0xd4, 0x02, 0x57, 0x09, 0x00, 0x00, 0x00, 0x00, 0x00,
   0x00, 0x00, 0x00, 0x00, 0x80, 0xbf, 0x9e, 0x08, 0x00, 0x00, 0xe0, 0x7a,
   0x02, 0x40, 0x05, 0x14, 0x15, 0x00, 0x00, 0xfe, 0xe8, 0x7f, 0xed, 0x87,
   0xa4, 0x00, 0xac, 0x0a, 0x00, 0x00, 0x00, 0x00, 0x00, 0x00, 0x00, 0x00,
   0x00, 0x00, 0x94, 0x28, 0x02, 0x00, 0x00, 0x00, 0x00, 0x02, 0x00, 0xa0,
   0xa0, 0x00, 0x00, 0x80, 0xbf, 0xff, 0xaf, 0xff, 0xa8, 0x2a, 0x80, 0x2b,
   0x01, 0x00, 0x00, 0x00, 0x00, 0x00, 0x00, 0x00, 0x00, 0x00, 0x00, 0x25,
   0x50, 0x54, 0x00, 0x00, 0x00, 0x01, 0x00, 0x00, 0x00, 0x8f, 0x26, 0x00,
   0xe0, 0xfe, 0xfc, 0xee, 0x75, 0x0b, 0x29, 0x00, 0x45, 0x02, 0x00, 0x00,
   0x00, 0x00, 0x00, 0x00, 0x00, 0x00, 0x00, 0x00, 0x00, 0x80, 0x08, 0x02,
   0x00, 0x00, 0x00, 0x00, 0x00, 0x00, 0x00, 0x00, 0x00, 0xed, 0xff, 0xff,
   0xdb, 0x5f, 0xd1, 0x0a, 0xc0, 0x2a, 0x01, 0x00, 0x00, 0x00, 0x00, 0x00,
   0x00, 0x00, 0x00, 0x00, 0x00, 0x40, 0x00, 0x21, 0x00, 0x00, 0x00, 0x00,
   0x00, 0x00, 0x00, 0x00, 0x20, 0xe0, 0x8f, 0xff, 0xed, 0xbe, 0x7e, 0xaa,
   0x02, 0x40, 0x4a, 0x00, 0x00, 0x00, 0x00, 0x00, 0x00, 0x00, 0x00, 0x00,
   0x00, 0x00, 0x00, 0x00, 0x84, 0x00, 0x00, 0x00, 0x00, 0x00, 0x00, 0x00,
   0x00, 0x00, 0x80, 0xdf, 0xff, 0xbf, 0xff, 0x95, 0x55, 0x01, 0x80, 0x10,
   0x00, 0x00, 0x00, 0x00, 0x00, 0x00, 0x00, 0x00, 0x00, 0x00, 0x00, 0x00,
   0x00, 0x04, 0x02, 0x00, 0x50, 0x00, 0x00, 0x00, 0x00, 0x00, 0x00, 0x80,
   0x1f, 0xff, 0x5f, 0xdb, 0x3f, 0x49, 0x00, 0x40, 0x55, 0x00, 0x00, 0x00,
   0x00, 0x00, 0x00, 0x00, 0x00, 0x00, 0x00, 0x00, 0x00, 0x00, 0x00, 0x48,
   0x00, 0x2a, 0x00, 0x00, 0x00, 0x00, 0x00, 0x00, 0x00, 0x7f, 0xfe, 0xbf,
   0x7f, 0xa7, 0x2a, 0x08, 0x80, 0x02, 0x00, 0x00, 0x00, 0x00, 0x00, 0x00,
   0x00, 0x00, 0x00, 0x00, 0x00, 0x00, 0x00, 0x00, 0x80, 0xa4, 0x04, 0x00,
   0x00, 0x00, 0x00, 0x00, 0x00, 0x00, 0xbf, 0xff, 0xff, 0xef, 0x5f, 0x0a,
   0x04, 0x54, 0x0a, 0x00, 0x00, 0x00, 0x00, 0x00, 0x00, 0x00, 0x00, 0x00,
   0x00, 0x00, 0x00, 0x00, 0x00, 0x00, 0x00, 0x00, 0x00, 0x00, 0x00, 0x00,
   0x00, 0x00, 0x00, 0x7e, 0xff, 0xb7, 0x7b, 0x55, 0x81, 0x02, 0xa8, 0x08,
   0x00, 0x00, 0x00, 0x00, 0x00, 0x00, 0x00, 0x00, 0x00, 0x00, 0x00, 0x00,
   0x00, 0x00, 0x00, 0x00, 0x00, 0x00, 0x00, 0x00, 0x00, 0x00, 0x00, 0x00,
   0xfe, 0x7f, 0xff, 0xff, 0x55, 0x50, 0x00, 0x15, 0x01, 0x00, 0x00, 0x00,
   0x00, 0x00, 0x00, 0x00, 0x00, 0x00, 0x00, 0x00, 0x00, 0x00, 0x00, 0x00,
   0x00, 0x00, 0x00, 0x00, 0x00, 0x00, 0x00, 0x00, 0x00, 0xf4, 0xfb, 0xbd,
   0xad, 0x0d, 0x10, 0x40, 0xa5, 0x02, 0x00, 0x00, 0x00, 0x00, 0x00, 0x00,
   0x00, 0x00, 0x00, 0x00, 0x00, 0x00, 0x00, 0x00, 0x00, 0x00, 0x00, 0x00,
   0x00, 0x00, 0x00, 0x00, 0x00, 0x00, 0xe0, 0xf7, 0xf7, 0x5b, 0x01, 0x01,
   0x20, 0x4b, 0x00, 0x00, 0x00, 0x00, 0x00, 0x00, 0x00, 0x00, 0x00, 0x00,
   0x00, 0x00, 0x00, 0x00, 0x00, 0x00, 0x00, 0x00, 0x00, 0x00, 0x00, 0x00,
   0x00, 0x00, 0x00, 0xe0, 0x5e, 0x5b, 0x56, 0x00, 0x00, 0x44, 0x09, 0x00,
   0x00, 0x00, 0x00, 0x00, 0x00, 0x00, 0x00, 0x00, 0x00, 0x00, 0x00, 0x00,
   0x00, 0x00, 0x00, 0x00, 0x00, 0x00, 0x00, 0x00, 0x00, 0x00, 0x00, 0x00,
   0x80, 0xff, 0xef, 0x1e, 0x80, 0x00, 0x14, 0x51, 0x00, 0x00, 0x00, 0x00,
   0x00, 0x00, 0x00, 0x00, 0x00, 0x00, 0x00, 0x00, 0x00, 0x00, 0x00, 0x00,
   0x00, 0x00, 0x00, 0x00, 0x00, 0x00, 0x00, 0x00, 0x00, 0x00, 0xa8, 0xda,
   0x01, 0x00, 0x00, 0x68, 0x04, 0x01, 0x00, 0x00, 0x00, 0x00, 0x00, 0x00,
   0x00, 0x00, 0x00, 0x00, 0x00, 0x00, 0x00, 0x00, 0x00, 0x00, 0x00, 0x00,
   0x00, 0x00, 0x00, 0x00, 0x00, 0x00, 0x00, 0x00, 0x14, 0x00, 0x08, 0x00,
   0x89, 0x00, 0x01, 0x00, 0x00, 0x00, 0x00, 0x00, 0x00, 0x00, 0x00, 0x00,
   0x00, 0x00, 0x00, 0x00, 0x00, 0x00, 0x00, 0x00, 0x00, 0x00, 0x00, 0x00,
   0x00, 0x00, 0x00, 0x00, 0x00, 0x00, 0x00, 0x00, 0x08, 0x54, 0x02, 0x00,
   0x00, 0x00, 0x00, 0x00, 0x00, 0x00, 0x00, 0x00, 0x00, 0x00, 0x00, 0x00,
   0x00, 0x00, 0x00, 0x00, 0x00, 0x00, 0x00, 0x00, 0x00, 0x00, 0x00, 0x00,
   0x10, 0x00, 0x20, 0x00, 0x80, 0x92, 0x21, 0x00, 0x03, 0x00, 0x00, 0x00,
   0x00, 0x00, 0x00, 0x00, 0x00, 0x00, 0x00, 0x00, 0x00, 0x00, 0x00, 0x00,
   0x00, 0x00, 0x00, 0x00, 0x00, 0x00, 0x00, 0x00, 0x00, 0x20, 0x00, 0x00,
   0x00, 0xa8, 0x0a, 0x94, 0x40, 0x02, 0x00, 0x00, 0x00, 0x00, 0x00, 0x00,
   0x00, 0x00, 0x00, 0x00, 0x00, 0x00, 0x00, 0x00, 0x00, 0x00, 0x00, 0x00,
   0x00, 0x00, 0x00, 0x00, 0x00, 0x00, 0x40, 0x01, 0x00, 0x40, 0x6f, 0x51,
   0x09, 0x81, 0x02, 0x00, 0x00, 0x00, 0x00, 0x00, 0x00, 0x00, 0x00, 0x00,
   0x00, 0x00, 0x00, 0x00, 0x00, 0x00, 0x00, 0x00, 0x00, 0x00, 0x00, 0x00,
   0x00, 0x00, 0x00, 0x00, 0x57, 0xa4, 0xfe, 0x5a, 0x16, 0x52, 0x14, 0x05,
   0x00, 0x00, 0x00, 0x00, 0x00, 0x00, 0x00, 0x00, 0x00, 0x00, 0x00, 0x00,
   0x00, 0x00, 0x00, 0x00, 0x00, 0x00, 0x00, 0x00, 0x00, 0x00, 0x00, 0x00,
   0x00, 0xfe, 0xff, 0xb5, 0x57, 0xaa, 0x84, 0x50, 0x01, 0x00, 0x00, 0x00 };
