#define pnj2_width 264
#define pnj2_height 176
static unsigned char pnj2_bits[] = {
   0x00, 0x00, 0x00, 0x00, 0x00, 0x00, 0x00, 0x00, 0x00, 0x00, 0x00, 0x00,
   0x00, 0x00, 0x00, 0x00, 0x00, 0x00, 0x00, 0x00, 0x00, 0x60, 0x00, 0x48,
   0x00, 0x00, 0x00, 0x00, 0x00, 0x00, 0x00, 0x00, 0x00, 0x00, 0x00, 0x00,
   0x00, 0x00, 0x00, 0x00, 0x00, 0x00, 0x00, 0x00, 0x00, 0x00, 0x00, 0x00,
   0x00, 0x00, 0x00, 0x00, 0x00, 0x00, 0xd0, 0x00, 0x92, 0x05, 0x00, 0x00,
   0x00, 0x00, 0x00, 0x00, 0x00, 0x00, 0x00, 0x00, 0x00, 0x00, 0x00, 0x00,
   0x00, 0x00, 0x00, 0x00, 0x00, 0x00, 0x00, 0x00, 0x00, 0x00, 0x00, 0x00,
   0x00, 0x00, 0x00, 0xb0, 0x03, 0x64, 0x0a, 0x00, 0x00, 0x00, 0x00, 0x00,
   0x00, 0x00, 0x00, 0x00, 0x00, 0x00, 0x00, 0x00, 0x00, 0x00, 0x00, 0x00,
   0x00, 0x00, 0x00, 0x00, 0x00, 0x00, 0x00, 0x00, 0x00, 0x00, 0x00, 0x00,
   0xe0, 0x1f, 0x09, 0x15, 0x00, 0x00, 0x00, 0x00, 0x00, 0x00, 0x00, 0x00,
   0x00, 0x00, 0x00, 0x00, 0x00, 0x00, 0x00, 0x00, 0x00, 0x00, 0x00, 0x00,
   0x00, 0x00, 0x00, 0x00, 0x00, 0x00, 0x00, 0x00, 0x00, 0x70, 0xaf, 0xd4,
   0x52, 0x00, 0x00, 0x00, 0x00, 0x00, 0x00, 0x00, 0x00, 0x00, 0x00, 0x00,
   0x00, 0x00, 0x00, 0x00, 0x00, 0x00, 0x00, 0x00, 0x00, 0x00, 0x00, 0x00,
   0x00, 0x00, 0x00, 0x00, 0x00, 0x00, 0xe0, 0xbd, 0x92, 0x14, 0x00, 0x00,
   0x00, 0x00, 0x00, 0x00, 0x00, 0x00, 0x00, 0x00, 0x00, 0x00, 0x00, 0x00,
   0x00, 0x00, 0x00, 0x00, 0x00, 0x00, 0x00, 0x00, 0x00, 0x00, 0x00, 0x00,
   0x00, 0x00, 0x00, 0xf0, 0x7f, 0x85, 0xd2, 0x00, 0x00, 0x00, 0x00, 0x00,
   0x00, 0x00, 0x00, 0x00, 0x00, 0x00, 0x00, 0x00, 0x00, 0x00, 0x00, 0x00,
   0x00, 0x00, 0x00, 0x00, 0x00, 0x00, 0x00, 0x00, 0x00, 0x00, 0x00, 0x00,
   0xb0, 0xef, 0xaa, 0x54, 0x05, 0x00, 0x00, 0x00, 0x00, 0x00, 0x00, 0x00,
   0x00, 0x00, 0x00, 0x00, 0x00, 0x00, 0x00, 0x00, 0x00, 0x00, 0x00, 0x00,
   0x00, 0x00, 0x00, 0x00, 0x00, 0x00, 0x00, 0x00, 0x00, 0xac, 0xbf, 0x2a,
   0xa9, 0x2d, 0x00, 0x00, 0x00, 0x00, 0x00, 0x00, 0x00, 0x00, 0x00, 0x00,
   0x00, 0x00, 0x00, 0x00, 0x00, 0x00, 0x00, 0x00, 0x00, 0x00, 0x00, 0x00,
   0x00, 0x00, 0x00, 0x00, 0x00, 0x00, 0xec, 0xf6, 0x6a, 0x25, 0x55, 0x00,
   0x00, 0x00, 0x00, 0x00, 0x00, 0x00, 0x00, 0x00, 0x00, 0x00, 0x00, 0x00,
   0x00, 0x00, 0x00, 0x00, 0x00, 0x00, 0x00, 0x00, 0x00, 0x00, 0x00, 0x00,
   0x00, 0x00, 0x00, 0x5c, 0xdf, 0x97, 0x92, 0x6a, 0x01, 0x00, 0x00, 0x00,
   0x00, 0x00, 0x00, 0x00, 0x00, 0x00, 0x00, 0x00, 0x00, 0x00, 0x00, 0x00,
   0x00, 0x00, 0x00, 0x00, 0x00, 0x00, 0x00, 0x00, 0x00, 0x00, 0x00, 0x00,
   0xee, 0x6a, 0xbd, 0x2a, 0x55, 0x0b, 0x00, 0x00, 0x00, 0x00, 0x00, 0x00,
   0x00, 0x00, 0x00, 0x00, 0x00, 0x00, 0x00, 0x00, 0x00, 0x00, 0x00, 0x28,
   0x00, 0x00, 0x00, 0x00, 0x00, 0x00, 0x00, 0x00, 0x00, 0xde, 0xaa, 0xab,
   0x6a, 0x55, 0x14, 0x00, 0x00, 0x00, 0x00, 0x00, 0x00, 0x00, 0x00, 0x00,
   0x00, 0x00, 0x00, 0x00, 0x00, 0x00, 0x00, 0x40, 0x6e, 0x00, 0x00, 0x00,
   0x00, 0x00, 0x00, 0x00, 0x00, 0x00, 0xfa, 0x2e, 0xd5, 0x8a, 0xea, 0xb5,
   0x00, 0x00, 0x00, 0x00, 0x00, 0x00, 0x00, 0x00, 0x00, 0x00, 0x00, 0x00,
   0x00, 0x00, 0x00, 0x00, 0xe0, 0xdf, 0x00, 0x00, 0x00, 0x00, 0x00, 0x00,
   0x00, 0x00, 0x00, 0xaf, 0x4a, 0x55, 0x6b, 0xa5, 0xaa, 0x00, 0x00, 0x00,
   0x00, 0x00, 0x00, 0x00, 0x00, 0x00, 0x00, 0x00, 0x00, 0x00, 0x00, 0x00,
   0x00, 0xb0, 0xba, 0xa1, 0x00, 0x00, 0x00, 0x00, 0x00, 0x00, 0x00, 0x00,
   0xff, 0x5a, 0xaa, 0x5a, 0xad, 0xba, 0x0b, 0x00, 0x00, 0x00, 0x00, 0x00,
   0x00, 0x00, 0x00, 0x00, 0x00, 0x00, 0x40, 0x00, 0x00, 0x00, 0xd0, 0xff,
   0x4f, 0x00, 0x40, 0x00, 0x00, 0x00, 0x00, 0x00, 0x80, 0xab, 0x95, 0x0a,
   0xa5, 0x4a, 0x65, 0x15, 0x00, 0x00, 0x00, 0x00, 0x00, 0x00, 0x00, 0x00,
   0x00, 0x00, 0x80, 0x74, 0x00, 0x00, 0x00, 0x96, 0xfe, 0x7f, 0x00, 0xb0,
   0x00, 0x00, 0x00, 0x00, 0x00, 0x80, 0xff, 0x22, 0x69, 0x94, 0x9a, 0xae,
   0x6d, 0x01, 0x00, 0x00, 0x00, 0x00, 0x00, 0x00, 0x00, 0x00, 0x00, 0x80,
   0x7e, 0x00, 0x00, 0x00, 0x6a, 0xff, 0x07, 0x00, 0xb8, 0x01, 0x00, 0x00,
   0x00, 0x00, 0x80, 0xbf, 0x1a, 0x12, 0xa4, 0x6a, 0x5a, 0x55, 0x02, 0x00,
   0x00, 0x00, 0x00, 0x00, 0x00, 0x00, 0x00, 0x00, 0xc0, 0x7e, 0x00, 0x00,
   0x80, 0x54, 0x7f, 0x0e, 0x00, 0x26, 0x01, 0x00, 0x00, 0x00, 0x00, 0x40,
   0xf9, 0xd6, 0x84, 0x14, 0x49, 0x75, 0xf7, 0x0d, 0x00, 0x00, 0x00, 0x00,
   0x00, 0x00, 0x00, 0x00, 0x00, 0x40, 0xbf, 0x00, 0x00, 0x00, 0xfd, 0x3f,
   0x00, 0x80, 0xc5, 0x0a, 0x00, 0x00, 0x00, 0x00, 0x00, 0xff, 0x25, 0x29,
   0xa1, 0xd4, 0x4d, 0x95, 0x5a, 0x00, 0x00, 0x00, 0x00, 0x00, 0x00, 0x00,
   0x00, 0x00, 0xc0, 0x3e, 0x00, 0x00, 0x40, 0xf5, 0x3f, 0x00, 0xc0, 0xe5,
   0x07, 0x00, 0x00, 0x00, 0x00, 0x00, 0xfb, 0x4f, 0x24, 0x14, 0x91, 0x6a,
   0x75, 0xab, 0x00, 0x00, 0x00, 0x00, 0x00, 0x00, 0x00, 0x00, 0x00, 0xc0,
   0x3e, 0x00, 0x00, 0x40, 0xfe, 0x37, 0x00, 0x30, 0xf8, 0x03, 0x00, 0x0c,
   0x00, 0x00, 0x80, 0xe6, 0x3d, 0x49, 0xa2, 0x64, 0xd5, 0x56, 0x5d, 0x01,
   0x00, 0x00, 0x00, 0x00, 0x00, 0x00, 0x00, 0x00, 0xc0, 0x3e, 0x00, 0x00,
   0xe0, 0xff, 0x3f, 0xe1, 0xc6, 0xf3, 0x01, 0x00, 0x0e, 0x00, 0x00, 0x80,
   0xd7, 0x6b, 0x55, 0x2a, 0x09, 0x95, 0xad, 0xb5, 0x02, 0x00, 0x00, 0x00,
   0x00, 0x00, 0x00, 0x00, 0x00, 0x60, 0x7d, 0x00, 0x00, 0xf0, 0xfe, 0xff,
   0x9f, 0xfa, 0xff, 0x00, 0x80, 0x0f, 0x00, 0x00, 0x80, 0xde, 0x5f, 0x11,
   0x52, 0x62, 0x6a, 0xbb, 0x76, 0x05, 0x00, 0x00, 0x00, 0x00, 0x00, 0x00,
   0x00, 0x00, 0xf0, 0xff, 0x00, 0x00, 0xfc, 0xff, 0xff, 0xb7, 0xdd, 0x3d,
   0x00, 0xc0, 0x07, 0x00, 0x03, 0xe0, 0x3a, 0xbf, 0x92, 0x84, 0x4a, 0x55,
   0xea, 0xd6, 0x2d, 0x00, 0x00, 0x00, 0x00, 0x00, 0x00, 0x00, 0x00, 0xfe,
   0xff, 0x00, 0xe0, 0xe5, 0xff, 0xff, 0x4b, 0xfe, 0x1f, 0x00, 0xe0, 0x0f,
   0x80, 0x03, 0xf0, 0xbb, 0x76, 0x25, 0x29, 0x11, 0xa1, 0x9d, 0x5d, 0x57,
   0x00, 0x00, 0x00, 0x00, 0x00, 0x00, 0x00, 0x00, 0xd2, 0x7f, 0x00, 0x3f,
   0xdd, 0xff, 0xff, 0x93, 0xff, 0x1f, 0xe0, 0xf1, 0x07, 0x80, 0xbf, 0xfd,
   0x62, 0x7c, 0x05, 0x24, 0x52, 0x4a, 0xb5, 0xd5, 0xde, 0x00, 0x00, 0x00,
   0x00, 0x00, 0x00, 0x00, 0x80, 0xff, 0xff, 0xc0, 0x5f, 0xf2, 0xff, 0xff,
   0xa4, 0xff, 0x0f, 0xf8, 0xff, 0x0f, 0xf8, 0xff, 0xfe, 0xaa, 0xd8, 0xa9,
   0x49, 0x85, 0x48, 0x55, 0x5b, 0xb5, 0x02, 0x00, 0x00, 0x00, 0x00, 0x00,
   0x00, 0xc0, 0xf4, 0x7f, 0xf0, 0xae, 0xfe, 0xff, 0xff, 0x49, 0xff, 0x0f,
   0xfc, 0xff, 0x07, 0xfe, 0xff, 0x7f, 0xa5, 0xf3, 0x17, 0x29, 0xa9, 0x12,
   0x55, 0xb2, 0xea, 0x1f, 0x00, 0x00, 0x00, 0x00, 0x00, 0x00, 0x40, 0xdb,
   0xff, 0x50, 0x8b, 0xfd, 0xeb, 0x7f, 0xea, 0xff, 0x6f, 0xfe, 0xff, 0x0f,
   0xff, 0xff, 0xff, 0x0b, 0x83, 0xaa, 0x42, 0x52, 0x24, 0xad, 0x4d, 0xb7,
   0xaa, 0x00, 0x00, 0x00, 0x00, 0x00, 0x00, 0x60, 0xfd, 0xff, 0x56, 0x93,
   0xfb, 0xfe, 0xff, 0xd4, 0xff, 0xff, 0xff, 0xff, 0xcf, 0xff, 0xff, 0xff,
   0x2b, 0x0e, 0xb7, 0x8a, 0x44, 0xa9, 0x28, 0x59, 0xd5, 0x56, 0x01, 0x00,
   0x00, 0x00, 0x00, 0x00, 0x10, 0xfb, 0xff, 0xdf, 0xe4, 0xff, 0xf9, 0x3f,
   0xf5, 0xff, 0xff, 0xff, 0xff, 0xff, 0xff, 0xff, 0xff, 0x05, 0x1c, 0x6f,
   0xb1, 0x2a, 0x42, 0x56, 0x27, 0xad, 0xde, 0x02, 0x00, 0x00, 0x00, 0x00,
   0x00, 0xa8, 0xf6, 0xff, 0xdf, 0xc8, 0x3e, 0xf5, 0xbf, 0xf5, 0xff, 0xff,
   0xff, 0xff, 0xff, 0xff, 0xff, 0xff, 0xbb, 0x30, 0x5c, 0x47, 0x44, 0x9a,
   0x54, 0xac, 0xd5, 0xba, 0x2b, 0x00, 0x00, 0x00, 0x00, 0x00, 0xa0, 0xed,
   0xff, 0x77, 0xd1, 0xaf, 0xfe, 0xff, 0xde, 0xff, 0xff, 0xff, 0xff, 0xff,
   0xff, 0xff, 0xff, 0x47, 0x72, 0xf8, 0x5a, 0x15, 0x44, 0xa8, 0x2a, 0xb7,
   0x6a, 0x25, 0x01, 0x00, 0x00, 0x00, 0x00, 0xa8, 0xfd, 0xff, 0x2f, 0xb4,
   0xab, 0xfd, 0x5f, 0xfd, 0xff, 0xff, 0xff, 0xff, 0xff, 0xff, 0xff, 0xff,
   0x5f, 0xc4, 0xd1, 0x5b, 0x44, 0x49, 0xa9, 0x52, 0x54, 0x6b, 0x6f, 0x02,
   0x00, 0x00, 0x00, 0x00, 0x48, 0xf7, 0xff, 0x57, 0xed, 0xab, 0xff, 0xff,
   0xff, 0xff, 0xff, 0xff, 0xff, 0xff, 0xff, 0xff, 0xff, 0x5f, 0x01, 0xe1,
   0x5e, 0x53, 0x95, 0x50, 0xaa, 0xe9, 0xea, 0x54, 0x09, 0x00, 0x00, 0x00,
   0x00, 0x68, 0xff, 0xff, 0x3a, 0xbd, 0xfb, 0xff, 0xbf, 0xfe, 0xff, 0xff,
   0xff, 0xff, 0xff, 0xff, 0xff, 0xdf, 0x7f, 0x25, 0xe4, 0xb7, 0x50, 0x10,
   0x23, 0x55, 0xd5, 0xaa, 0xbd, 0x12, 0x00, 0x00, 0x00, 0x00, 0x94, 0xfd,
   0xff, 0x4b, 0xfa, 0x6e, 0xff, 0xff, 0xff, 0xff, 0xff, 0xff, 0xff, 0xff,
   0xff, 0xef, 0xed, 0x5f, 0x15, 0xe5, 0x5d, 0xa7, 0x45, 0x4c, 0x54, 0xa2,
   0xab, 0xd6, 0xa2, 0x00, 0x00, 0x00, 0x00, 0xb2, 0xfd, 0x7f, 0xd7, 0xf6,
   0xff, 0xff, 0xaf, 0xff, 0xff, 0xff, 0xff, 0xff, 0xff, 0xff, 0xab, 0xcc,
   0xdf, 0x2b, 0x88, 0xfb, 0x2c, 0x55, 0x41, 0x55, 0x8d, 0xae, 0xba, 0x2f,
   0x00, 0x00, 0x00, 0x20, 0xa8, 0xff, 0xff, 0x95, 0xbe, 0xfd, 0xff, 0xfb,
   0xff, 0xaf, 0xff, 0xfd, 0xff, 0xff, 0xff, 0x17, 0xad, 0xbf, 0xaf, 0xd2,
   0x2f, 0x8b, 0x94, 0xaa, 0x8c, 0xaa, 0xaa, 0x56, 0x49, 0x00, 0x00, 0x00,
   0xf0, 0xd2, 0xff, 0xff, 0xab, 0xf7, 0xff, 0xff, 0xff, 0xff, 0xd7, 0xff,
   0xff, 0xff, 0xff, 0xff, 0x97, 0x28, 0x3f, 0xbf, 0x04, 0xff, 0x5a, 0x25,
   0x49, 0x72, 0x59, 0x75, 0xe5, 0x9b, 0x00, 0x00, 0x00, 0xbc, 0xd2, 0xff,
   0x7f, 0x68, 0x5f, 0xfd, 0xff, 0xff, 0xff, 0xeb, 0xff, 0xff, 0xff, 0xff,
   0xff, 0x97, 0x48, 0xfc, 0xd7, 0xaa, 0xae, 0x55, 0x52, 0x4a, 0x49, 0x55,
   0x4a, 0x55, 0x57, 0x00, 0x00, 0x00, 0xff, 0xd0, 0xfe, 0xff, 0xd1, 0xde,
   0xff, 0xff, 0xff, 0xff, 0x57, 0xff, 0xff, 0xff, 0xff, 0xff, 0x37, 0x96,
   0xbe, 0xbf, 0x95, 0x78, 0xd5, 0x44, 0xaa, 0x52, 0xd4, 0xda, 0x5a, 0x7d,
   0x00, 0x00, 0x00, 0x7f, 0xea, 0xff, 0x5f, 0x6a, 0xbf, 0xff, 0xff, 0xff,
   0xff, 0xb7, 0xff, 0xff, 0xff, 0xff, 0xff, 0x14, 0x14, 0xac, 0x7f, 0x5b,
   0x52, 0x55, 0x95, 0x54, 0x95, 0x51, 0x6d, 0xab, 0x4b, 0x00, 0x00, 0x00,
   0xfe, 0xd0, 0xff, 0x7b, 0xea, 0xfa, 0xff, 0xff, 0xff, 0xff, 0x7f, 0xff,
   0xff, 0xff, 0xff, 0xff, 0xdd, 0x29, 0xb8, 0x7f, 0xab, 0xe2, 0x95, 0x92,
   0x92, 0x12, 0x52, 0xd5, 0x5a, 0x7a, 0x00, 0x00, 0x80, 0x7d, 0xf4, 0xff,
   0x2f, 0xb5, 0xef, 0xff, 0xff, 0xff, 0xff, 0xff, 0xff, 0xff, 0xff, 0xff,
   0x7f, 0x7d, 0x07, 0xf4, 0xff, 0xaa, 0x46, 0xab, 0x2a, 0xa4, 0xa4, 0xa0,
   0xaa, 0xab, 0xad, 0x00, 0x00, 0x00, 0xff, 0xa0, 0xff, 0x4d, 0x55, 0xdf,
   0xff, 0xff, 0xff, 0xff, 0xdf, 0xff, 0xff, 0xff, 0xff, 0x7f, 0xac, 0x0b,
   0xd1, 0xff, 0x57, 0x88, 0xd6, 0xaa, 0x14, 0xad, 0x24, 0x35, 0x6d, 0x6d,
   0x00, 0x00, 0xc0, 0x9d, 0xd8, 0xff, 0x17, 0xd5, 0xff, 0xff, 0xff, 0xff,
   0xff, 0xff, 0xff, 0xff, 0xff, 0xff, 0xbf, 0xfa, 0x3a, 0xf1, 0xff, 0x4f,
   0x13, 0xad, 0x25, 0x51, 0x09, 0xc9, 0xd4, 0xad, 0xad, 0x00, 0x00, 0x00,
   0x7f, 0xe9, 0xff, 0x2b, 0x29, 0xff, 0xfa, 0xff, 0xff, 0xff, 0xff, 0xff,
   0xff, 0xff, 0xff, 0x6f, 0xab, 0x3f, 0xc0, 0xff, 0xff, 0x72, 0x58, 0x55,
   0x28, 0x55, 0x92, 0xaa, 0x5a, 0xab, 0x00, 0x00, 0xe0, 0x5f, 0xd2, 0xff,
   0x47, 0xdb, 0x7f, 0xfd, 0xff, 0xff, 0xff, 0xff, 0xff, 0xff, 0xff, 0xff,
   0xbf, 0xd7, 0x3a, 0xb0, 0xff, 0xff, 0x41, 0x6a, 0x55, 0x51, 0x05, 0x45,
   0xad, 0xb7, 0xad, 0x00, 0x00, 0xe0, 0xff, 0xf4, 0xbf, 0x6d, 0x35, 0x3f,
   0xba, 0xff, 0xff, 0xff, 0xff, 0xff, 0xff, 0xff, 0xff, 0xff, 0xaf, 0x37,
   0x70, 0xf7, 0xff, 0x47, 0xa8, 0xaa, 0x92, 0x54, 0xa0, 0xb4, 0x6c, 0x6d,
   0x00, 0x00, 0xf8, 0x56, 0xc9, 0xff, 0xc3, 0x9a, 0x5f, 0x7d, 0xff, 0xff,
   0xff, 0xff, 0xff, 0xff, 0xff, 0xff, 0xff, 0xf7, 0x2e, 0x90, 0xdf, 0xff,
   0x83, 0x51, 0x55, 0x45, 0x25, 0x15, 0xa5, 0xda, 0x9a, 0x00, 0x00, 0xfc,
   0xfe, 0xea, 0x7f, 0x71, 0x35, 0x1f, 0xcf, 0xff, 0xff, 0xff, 0xff, 0xff,
   0xff, 0xff, 0xff, 0xff, 0xcf, 0x7d, 0x58, 0xbf, 0xff, 0x0b, 0x61, 0xa5,
   0xaa, 0x44, 0x94, 0x54, 0xa1, 0xb6, 0x00, 0x00, 0xfe, 0x2b, 0xf1, 0xff,
   0xf4, 0xaa, 0x4e, 0x3f, 0xff, 0xff, 0xff, 0xff, 0xff, 0xff, 0xff, 0xff,
   0x7f, 0xf3, 0x4b, 0xa0, 0xff, 0xff, 0x03, 0x83, 0xaa, 0x02, 0x59, 0xa9,
   0xaa, 0x4e, 0x55, 0x00, 0x00, 0xbf, 0xfe, 0xea, 0xf7, 0xf8, 0x3c, 0x17,
   0xef, 0xff, 0xff, 0xff, 0xff, 0xff, 0xff, 0xff, 0xff, 0xff, 0xb7, 0xda,
   0x03, 0x70, 0xff, 0x2f, 0x05, 0xaa, 0xae, 0x22, 0x01, 0x54, 0x50, 0xd5,
   0x00, 0x00, 0x6a, 0x97, 0xf8, 0x3b, 0x7e, 0xad, 0x6b, 0xb7, 0xff, 0xff,
   0xff, 0xff, 0xff, 0xff, 0xff, 0xff, 0xff, 0xad, 0x36, 0x03, 0xe8, 0xff,
   0x3f, 0x45, 0x54, 0x09, 0x2d, 0xd4, 0x22, 0x95, 0x2a, 0x00, 0x00, 0x55,
   0xde, 0xf2, 0xdf, 0x7a, 0x59, 0xc7, 0xeb, 0xff, 0xff, 0xff, 0xff, 0xff,
   0xff, 0xff, 0xff, 0xff, 0x75, 0x45, 0x03, 0x40, 0xab, 0x7f, 0x08, 0xa1,
   0x52, 0x49, 0x01, 0x94, 0x54, 0xaa, 0x00, 0x80, 0xd2, 0xb7, 0xfa, 0x7f,
   0xff, 0xf6, 0x74, 0xdf, 0xff, 0xff, 0xff, 0xff, 0xff, 0xff, 0xff, 0xff,
   0xff, 0xd6, 0x48, 0x02, 0x80, 0xd5, 0x7f, 0x11, 0x54, 0xa9, 0x6a, 0x54,
   0x49, 0x29, 0x55, 0x00, 0x80, 0x24, 0xae, 0xfd, 0xaf, 0xfc, 0x5c, 0xf5,
   0xbb, 0xff, 0xff, 0xff, 0xff, 0xff, 0xff, 0xff, 0xff, 0xff, 0xad, 0x85,
   0x00, 0x80, 0xda, 0x77, 0x61, 0x40, 0xa5, 0x88, 0x4a, 0x42, 0x55, 0xa5,
   0x00, 0x80, 0x89, 0xab, 0xea, 0xaf, 0xbf, 0xaf, 0x7d, 0xf5, 0xff, 0xff,
   0xff, 0xff, 0xff, 0xff, 0xff, 0xff, 0xff, 0xaa, 0xa8, 0x06, 0x40, 0xf4,
   0xdf, 0x00, 0x01, 0xa9, 0xb3, 0x24, 0x1a, 0x65, 0x55, 0x00, 0x40, 0x21,
   0x6b, 0xfb, 0x53, 0x7f, 0x1d, 0xf6, 0x6d, 0xff, 0xff, 0xff, 0xff, 0xff,
   0xff, 0xff, 0xff, 0xff, 0x6b, 0x11, 0x00, 0x00, 0xa0, 0xbf, 0x40, 0x02,
   0x2a, 0x46, 0x49, 0x00, 0x55, 0x4a, 0x00, 0x00, 0x94, 0xab, 0xff, 0x5a,
   0x7f, 0x4f, 0xff, 0xfa, 0xff, 0xff, 0xff, 0xff, 0xff, 0xff, 0xff, 0xff,
   0x7f, 0x15, 0x22, 0x04, 0x40, 0xd0, 0xff, 0x90, 0x44, 0xd5, 0x94, 0xa4,
   0xb6, 0xc0, 0x92, 0x00, 0xa0, 0xc0, 0xff, 0xfb, 0xb2, 0xff, 0x9e, 0xef,
   0xa7, 0xff, 0xff, 0xff, 0xff, 0xff, 0xff, 0xff, 0xff, 0xbf, 0x6a, 0x80,
   0x90, 0x01, 0xa0, 0xff, 0x03, 0x09, 0xa2, 0xa5, 0x4a, 0x80, 0x42, 0x65,
   0x00, 0x08, 0xac, 0xef, 0x7f, 0xed, 0xff, 0x83, 0xff, 0xfd, 0xfb, 0xff,
   0xff, 0xff, 0xff, 0xff, 0xff, 0xff, 0xff, 0x4a, 0x12, 0xa0, 0x01, 0xc0,
   0xfd, 0x01, 0x11, 0x88, 0x9a, 0x24, 0x2b, 0xa8, 0x0a, 0x00, 0x30, 0xe0,
   0xbf, 0xbf, 0xf4, 0xff, 0x8b, 0xff, 0x7b, 0xfa, 0xff, 0xff, 0xff, 0xff,
   0xff, 0xff, 0xff, 0x97, 0x52, 0x90, 0x00, 0x01, 0xc0, 0xfd, 0x07, 0x24,
   0x20, 0xa9, 0x2a, 0x2a, 0x89, 0xfa, 0x00, 0x8c, 0xea, 0xff, 0x3d, 0xf8,
   0xff, 0x67, 0xff, 0x9f, 0xfd, 0xff, 0xff, 0xff, 0xff, 0xff, 0xff, 0xff,
   0x2f, 0x15, 0x00, 0x41, 0x01, 0xc0, 0xf7, 0x0f, 0x04, 0x24, 0x02, 0xc2,
   0x80, 0x24, 0x85, 0x00, 0x12, 0xf4, 0xbf, 0xbb, 0xfc, 0xff, 0xef, 0xff,
   0x9f, 0xfe, 0xff, 0xff, 0xff, 0xff, 0xff, 0xff, 0xff, 0xaa, 0x05, 0x00,
   0x04, 0x02, 0x00, 0xff, 0x1f, 0x20, 0x40, 0xa1, 0x94, 0xaa, 0x44, 0x5d,
   0x00, 0x2a, 0xf9, 0xef, 0x1d, 0xfd, 0xff, 0xf7, 0xff, 0x22, 0xfe, 0xff,
   0xc7, 0xff, 0xff, 0xff, 0xff, 0x7f, 0x55, 0x02, 0x20, 0x80, 0x04, 0x00,
   0xfd, 0x0f, 0x88, 0x00, 0x94, 0x2a, 0x00, 0x28, 0x55, 0x00, 0x0a, 0xf2,
   0xff, 0x9b, 0xfe, 0xff, 0xae, 0xff, 0xec, 0xff, 0xeb, 0x01, 0xff, 0xff,
   0xff, 0xff, 0xdf, 0x4a, 0x08, 0x40, 0x00, 0x00, 0x00, 0xf7, 0x3f, 0x11,
   0x00, 0xa0, 0x20, 0x4a, 0x2a, 0xaa, 0x40, 0xab, 0xfc, 0xbf, 0x57, 0x5f,
   0xff, 0xbf, 0xff, 0xf3, 0xff, 0x9f, 0x50, 0xfe, 0xff, 0xff, 0xff, 0x17,
   0x15, 0x00, 0x04, 0x00, 0x04, 0x00, 0xdd, 0x1f, 0x48, 0x42, 0x25, 0x04,
   0xa1, 0x44, 0x55, 0x40, 0x0a, 0xf9, 0xff, 0x57, 0xff, 0xff, 0xfb, 0xff,
   0xff, 0xff, 0x9d, 0xfc, 0xfc, 0xdf, 0xff, 0xff, 0x65, 0x49, 0x02, 0x00,
   0x80, 0x08, 0x00, 0xf3, 0x7f, 0x80, 0x00, 0xa1, 0x50, 0x0a, 0x91, 0xac,
   0xc0, 0x59, 0xf6, 0xbf, 0xc9, 0xb7, 0xff, 0xbe, 0xff, 0xff, 0xff, 0xff,
   0xff, 0xfe, 0x87, 0xff, 0xbf, 0x92, 0x02, 0x00, 0x20, 0x01, 0x00, 0x0a,
   0xe0, 0x5f, 0x00, 0x0a, 0x09, 0x00, 0x50, 0x4a, 0x52, 0x40, 0x31, 0xec,
   0xff, 0xd7, 0xff, 0xaf, 0xea, 0xff, 0xff, 0xff, 0xff, 0xe6, 0xfa, 0x1f,
   0xfe, 0xb7, 0x96, 0x24, 0x00, 0x02, 0x00, 0x29, 0x00, 0xd0, 0xfd, 0x12,
   0x12, 0x51, 0x24, 0x45, 0x88, 0x94, 0xa0, 0xa2, 0xea, 0xf7, 0xf0, 0xfa,
   0x57, 0xfd, 0xbf, 0xfe, 0xff, 0xff, 0x27, 0x00, 0x0d, 0xb8, 0xa4, 0x4a,
   0x00, 0x00, 0xa0, 0x00, 0x00, 0x15, 0x70, 0xbf, 0x00, 0x00, 0x02, 0x01,
   0x14, 0x25, 0x65, 0xc0, 0x44, 0xfa, 0xff, 0xe3, 0xff, 0xd3, 0x3f, 0xd1,
   0xfe, 0xff, 0xff, 0x07, 0x00, 0x1c, 0xeb, 0x5a, 0x80, 0x00, 0x00, 0x00,
   0x01, 0x08, 0x02, 0xf0, 0xf6, 0x15, 0x48, 0x2a, 0x54, 0x00, 0x49, 0x49,
   0x20, 0xd0, 0xfa, 0xff, 0x79, 0x03, 0x69, 0x8a, 0x5e, 0xff, 0x7f, 0xf7,
   0x1d, 0xfe, 0x82, 0xa2, 0x85, 0x2a, 0x00, 0x00, 0x40, 0x04, 0x20, 0x15,
   0xe0, 0xbd, 0x03, 0x00, 0x01, 0x01, 0x21, 0x95, 0x9a, 0x60, 0xc0, 0xfa,
   0xff, 0xf1, 0xba, 0x3f, 0x54, 0xfe, 0xff, 0xff, 0x92, 0xc1, 0x7d, 0xc0,
   0x6f, 0x15, 0x00, 0x01, 0x00, 0x04, 0x00, 0x00, 0x10, 0xa8, 0x7b, 0xa3,
   0x00, 0x15, 0x24, 0xa4, 0x52, 0x50, 0xa0, 0x8a, 0xed, 0xdf, 0xf2, 0xc0,
   0x7e, 0xfd, 0xff, 0xff, 0x7f, 0x29, 0xd4, 0x71, 0x70, 0x9e, 0x44, 0x12,
   0x00, 0x00, 0x80, 0x00, 0x00, 0x24, 0x50, 0xec, 0x45, 0x20, 0xa4, 0x00,
   0x10, 0x49, 0xab, 0x20, 0x84, 0xfd, 0xff, 0xf8, 0xd4, 0xdf, 0xfb, 0xff,
   0xff, 0x7f, 0xa1, 0x00, 0x3f, 0x7a, 0x77, 0x09, 0x02, 0x00, 0x00, 0x10,
   0x02, 0x44, 0x00, 0xa0, 0xf8, 0x0f, 0x00, 0x04, 0x40, 0x21, 0x29, 0x52,
   0x50, 0x64, 0xfb, 0xff, 0x79, 0xf2, 0xff, 0xff, 0xff, 0xff, 0xff, 0x58,
   0xdb, 0xff, 0xff, 0x0d, 0x51, 0x01, 0x00, 0x04, 0x02, 0x08, 0x00, 0x40,
   0x00, 0xba, 0x55, 0x80, 0x58, 0x00, 0x4a, 0x42, 0xa2, 0x30, 0xc4, 0xff,
   0xff, 0x29, 0xfc, 0xff, 0xff, 0xff, 0xff, 0xff, 0x7f, 0x6f, 0xff, 0xff,
   0x56, 0x0a, 0x24, 0x40, 0x40, 0xaa, 0x00, 0x10, 0x02, 0x80, 0xf6, 0x0f,
   0x00, 0x11, 0x40, 0x82, 0x54, 0x8a, 0x90, 0x94, 0xf5, 0xff, 0xd9, 0xff,
   0xff, 0xff, 0xaf, 0xff, 0x7f, 0x37, 0xdb, 0xff, 0x8f, 0x22, 0x21, 0x00,
   0x02, 0x0a, 0x00, 0x02, 0x00, 0x00, 0x80, 0x70, 0x95, 0x02, 0x72, 0x08,
   0x54, 0x4a, 0x24, 0x28, 0x94, 0xee, 0xff, 0x6a, 0x3f, 0xf4, 0xff, 0x97,
   0xe1, 0xbf, 0x26, 0xff, 0xf9, 0x7f, 0x4a, 0xa4, 0x40, 0x24, 0x50, 0x22,
   0x00, 0x08, 0x12, 0x40, 0xe0, 0x1f, 0x24, 0xa4, 0x88, 0x88, 0x90, 0x55,
   0x18, 0x8c, 0xfa, 0xbf, 0xb5, 0x95, 0x3f, 0xef, 0xbb, 0x21, 0xfd, 0x22,
   0xeb, 0xf1, 0x9f, 0x0a, 0x8a, 0x10, 0x88, 0x04, 0x00, 0x04, 0x40, 0x40,
   0x81, 0xc0, 0x57, 0x81, 0x0a, 0x01, 0x10, 0x25, 0x48, 0x28, 0x3c, 0xf7,
   0x7f, 0xad, 0x19, 0x7d, 0x7f, 0xbf, 0xed, 0xfd, 0x37, 0xff, 0xf1, 0x7f,
   0xaa, 0x28, 0x02, 0x01, 0x40, 0x84, 0x00, 0x80, 0x0a, 0x40, 0xe9, 0x1e,
   0x0a, 0x48, 0x09, 0x21, 0xc8, 0x52, 0x88, 0x4c, 0xda, 0x5f, 0xbb, 0xaa,
   0x77, 0xff, 0xf7, 0xdb, 0xdf, 0x77, 0xff, 0xf5, 0x9f, 0x65, 0x25, 0x09,
   0xa4, 0x08, 0x10, 0x00, 0x00, 0x10, 0x80, 0xfb, 0x2f, 0x20, 0x14, 0x24,
   0x24, 0x11, 0x09, 0x18, 0x58, 0xfa, 0xaf, 0x52, 0xfa, 0xff, 0xff, 0xbf,
   0xb6, 0xfb, 0x77, 0xff, 0xf3, 0x7f, 0x9a, 0x54, 0xa9, 0x10, 0x43, 0x00,
   0x00, 0x40, 0x22, 0x00, 0xfe, 0x9f, 0x04, 0x10, 0x80, 0x00, 0x52, 0xaa,
   0x08, 0xae, 0xfa, 0xb7, 0xfd, 0xff, 0xff, 0xff, 0x5d, 0xd5, 0x9e, 0xff,
   0xbf, 0xfe, 0xff, 0x75, 0x55, 0x04, 0xaa, 0x50, 0xa4, 0x0a, 0x00, 0x09,
   0x08, 0xf8, 0x07, 0x82, 0x14, 0x00, 0x08, 0xa0, 0x28, 0x28, 0x38, 0xf2,
   0xeb, 0xaf, 0x7f, 0xfc, 0xff, 0xb7, 0x4d, 0x1d, 0x3d, 0x28, 0xd5, 0xff,
   0xaf, 0xa4, 0x54, 0x88, 0x82, 0x02, 0x01, 0x00, 0x82, 0x00, 0xfc, 0x8f,
   0x08, 0x50, 0x88, 0x20, 0x4a, 0x4b, 0x20, 0xaa, 0xfe, 0xf7, 0x91, 0x9e,
   0x5b, 0x5f, 0xe3, 0xee, 0x16, 0x37, 0x8c, 0x24, 0xff, 0xdf, 0xa9, 0x4a,
   0x55, 0xba, 0x54, 0x56, 0x41, 0x18, 0x00, 0xc0, 0x05, 0x45, 0x49, 0x20,
   0x80, 0x00, 0x54, 0x48, 0xd8, 0xfa, 0x2b, 0xf5, 0xff, 0xff, 0xff, 0xe7,
   0xef, 0x5f, 0x3f, 0x28, 0xa4, 0xf4, 0xbf, 0x96, 0x48, 0xa9, 0x22, 0x45,
   0x4a, 0x17, 0x12, 0x00, 0x84, 0x2f, 0x12, 0x00, 0x80, 0x04, 0x90, 0x48,
   0xa0, 0x7a, 0xff, 0x3f, 0xfc, 0xff, 0xff, 0xff, 0x6b, 0xff, 0x9d, 0x3f,
   0x80, 0x80, 0xee, 0xff, 0x75, 0x51, 0x55, 0x5d, 0x94, 0xaa, 0x50, 0x4c,
   0x02, 0x22, 0x83, 0x00, 0xaa, 0x00, 0x00, 0x40, 0x22, 0x60, 0xf0, 0xfe,
   0x13, 0xfc, 0x7f, 0xdf, 0x7e, 0xaa, 0x10, 0x71, 0xaf, 0x2f, 0x94, 0xd0,
   0xff, 0x57, 0x17, 0xaa, 0xd5, 0x55, 0xa4, 0x45, 0x11, 0x00, 0x1c, 0x8f,
   0x4a, 0xa0, 0x00, 0x40, 0x02, 0x48, 0xd0, 0xf4, 0xff, 0x9d, 0xff, 0x57,
   0x21, 0x81, 0x24, 0x41, 0x88, 0x48, 0x80, 0x22, 0xba, 0xff, 0x6e, 0xe5,
   0xaa, 0x4a, 0xaa, 0xdb, 0x5a, 0x17, 0x20, 0xf0, 0x3f, 0x10, 0x14, 0x01,
   0x02, 0x28, 0xa5, 0xd0, 0xf0, 0xfd, 0xdf, 0xff, 0x27, 0x4d, 0x1a, 0x21,
   0x0a, 0x00, 0xa3, 0x12, 0x85, 0x62, 0xff, 0x7d, 0x4f, 0xb5, 0xdb, 0x35,
   0xab, 0x25, 0x54, 0x00, 0x44, 0x27, 0xa5, 0x40, 0x02, 0xa0, 0x02, 0x44,
   0xa0, 0xb4, 0x7e, 0xff, 0xbf, 0x10, 0x20, 0x20, 0x84, 0x28, 0x00, 0x11,
   0x24, 0x40, 0xa8, 0xff, 0xaf, 0xb5, 0x57, 0x6a, 0xed, 0x7e, 0xad, 0x15,
   0x80, 0xa4, 0x1f, 0x90, 0x54, 0x02, 0x01, 0x50, 0x20, 0x40, 0xa1, 0xfe,
   0xfe, 0x3b, 0x41, 0x00, 0x04, 0xa0, 0x0a, 0x00, 0x84, 0x88, 0x14, 0x4a,
   0xff, 0xbf, 0x2a, 0xed, 0xae, 0xbb, 0xe9, 0x4b, 0x9d, 0x80, 0xa9, 0x9d,
   0x22, 0x02, 0xac, 0x7a, 0x45, 0x45, 0xc0, 0x72, 0xfd, 0xfe, 0xa7, 0x00,
   0x40, 0x51, 0x49, 0x11, 0x00, 0x50, 0x62, 0x48, 0x50, 0xff, 0xff, 0xdf,
   0xb5, 0xdb, 0x6e, 0xbd, 0x7a, 0x4b, 0x04, 0xaa, 0x2f, 0xa1, 0xa8, 0xea,
   0x7d, 0x7f, 0x59, 0x80, 0x42, 0xf5, 0xfd, 0x2d, 0x00, 0x00, 0x00, 0x20,
   0x02, 0x00, 0x00, 0x48, 0x89, 0x04, 0xfc, 0xff, 0xbb, 0xff, 0xb7, 0xed,
   0xdb, 0xeb, 0x8f, 0x08, 0xc0, 0x4f, 0x0a, 0x20, 0x9c, 0xff, 0xfb, 0x6f,
   0x00, 0xe9, 0x7a, 0xff, 0x12, 0x00, 0x90, 0xb2, 0x48, 0x0b, 0x00, 0x50,
   0x22, 0xa0, 0x92, 0xfa, 0xff, 0xff, 0xf5, 0xfe, 0x5f, 0xdf, 0xbe, 0x5a,
   0x40, 0xca, 0x92, 0x49, 0x41, 0x79, 0xf7, 0xef, 0xde, 0x00, 0x43, 0xe5,
   0x7e, 0x05, 0x00, 0x00, 0x10, 0xb1, 0x06, 0x00, 0x40, 0x44, 0x85, 0x50,
   0xf5, 0xff, 0xff, 0xff, 0x6a, 0xf5, 0xf6, 0xf7, 0xad, 0x08, 0xd5, 0x5f,
   0x10, 0x92, 0xe8, 0xff, 0xbf, 0x01, 0x00, 0xaa, 0xf6, 0x7f, 0x00, 0x00,
   0x00, 0xd0, 0xa8, 0x0e, 0x00, 0x00, 0x01, 0x00, 0x00, 0xee, 0xff, 0xff,
   0xd7, 0xbf, 0x5b, 0xbf, 0x5d, 0x47, 0x80, 0xe4, 0x9f, 0x84, 0x20, 0xb9,
   0x96, 0x8e, 0xae, 0x40, 0x82, 0xc7, 0xfe, 0x02, 0x00, 0x00, 0x70, 0xda,
   0x1f, 0x00, 0x20, 0x20, 0x14, 0x02, 0xf8, 0xff, 0xf7, 0x5e, 0x6b, 0xfb,
   0xff, 0xef, 0x5b, 0x81, 0x49, 0x7b, 0x11, 0x25, 0xba, 0x08, 0xb5, 0x58,
   0x80, 0x6a, 0xf7, 0x3f, 0x00, 0x00, 0x00, 0x60, 0x54, 0x0e, 0x00, 0x00,
   0x85, 0x10, 0xaa, 0xc0, 0xff, 0xff, 0xff, 0xee, 0xbf, 0xff, 0x7d, 0x23,
   0x01, 0x8b, 0x3f, 0x84, 0x48, 0xd5, 0xfa, 0xb7, 0xa7, 0x00, 0x4b, 0xc7,
   0xff, 0x00, 0x00, 0x00, 0x70, 0xdd, 0x1e, 0x00, 0x02, 0x10, 0xa5, 0x08,
   0xbd, 0xff, 0xff, 0xab, 0xfd, 0xf7, 0xbe, 0xeb, 0xa9, 0x23, 0xf2, 0xbb,
   0x29, 0x09, 0xf5, 0x5f, 0x6b, 0x35, 0x00, 0x8c, 0xe7, 0x3f, 0x01, 0x00,
   0x00, 0x70, 0x3d, 0x5e, 0x00, 0x80, 0x88, 0x0a, 0x00, 0x60, 0xff, 0xbf,
   0xdd, 0x7f, 0xff, 0x7f, 0xad, 0xc6, 0xc1, 0xe9, 0x2e, 0x40, 0x00, 0xfa,
   0xed, 0xb6, 0x47, 0x00, 0x5c, 0xef, 0x7f, 0x00, 0x00, 0x00, 0x70, 0x15,
   0x9f, 0x00, 0x22, 0x10, 0x50, 0xa5, 0xca, 0xff, 0x7f, 0xff, 0xff, 0xfd,
   0x7f, 0xdb, 0x9c, 0x11, 0xf5, 0x2b, 0x85, 0x8a, 0xaa, 0xff, 0x6e, 0xaa,
   0x00, 0xb0, 0xef, 0x3f, 0x00, 0x00, 0x00, 0x70, 0x0f, 0x9e, 0x00, 0x80,
   0x20, 0xa4, 0x50, 0xb2, 0xff, 0xef, 0xff, 0xef, 0xf7, 0xdf, 0x26, 0x73,
   0x11, 0xfc, 0x8d, 0x08, 0x20, 0xef, 0xd6, 0x9b, 0xb5, 0x00, 0xa4, 0xde,
   0xbf, 0x00, 0x00, 0x00, 0xf0, 0x1e, 0xb3, 0x00, 0x00, 0x04, 0x09, 0x42,
   0xaa, 0xff, 0xff, 0xff, 0xff, 0xee, 0xdf, 0xd5, 0x7d, 0x90, 0xea, 0x5b,
   0x21, 0x81, 0xdd, 0x7f, 0x55, 0x55, 0x00, 0xd4, 0xee, 0x3f, 0x00, 0x00,
   0x00, 0xb8, 0x0b, 0x53, 0x01, 0x08, 0x50, 0xa0, 0x08, 0xc0, 0xff, 0xff,
   0xff, 0xff, 0x7b, 0x6f, 0xaa, 0x7a, 0x40, 0xfa, 0x55, 0x05, 0x94, 0xfb,
   0xde, 0xb7, 0xdb, 0x00, 0x90, 0xbf, 0x6f, 0x00, 0x00, 0x00, 0x78, 0x0f,
   0xbb, 0x00, 0x90, 0x84, 0x0a, 0x01, 0x84, 0xff, 0xff, 0xff, 0xff, 0xef,
   0xbd, 0xab, 0x3e, 0xc0, 0xb2, 0x2b, 0x20, 0xc0, 0xd6, 0x5b, 0x75, 0xab,
   0x00, 0x64, 0xfd, 0x1f, 0x00, 0x00, 0x00, 0xf8, 0x0d, 0xff, 0x41, 0x04,
   0x30, 0xa4, 0x54, 0x90, 0xff, 0xff, 0xff, 0xdf, 0xfd, 0xe7, 0xaa, 0x6f,
   0x71, 0x7b, 0x4f, 0x09, 0x7a, 0x7b, 0xef, 0xae, 0x5e, 0x00, 0x44, 0xff,
   0x7f, 0x01, 0x00, 0x00, 0xb8, 0x2f, 0x5f, 0x03, 0x90, 0xa4, 0x20, 0x08,
   0x41, 0xff, 0xff, 0xff, 0xff, 0xef, 0xaf, 0x7e, 0xcf, 0x9a, 0xe8, 0x5a,
   0x21, 0x64, 0xfe, 0xbd, 0x5d, 0x51, 0x00, 0x80, 0xfd, 0x9f, 0x00, 0x00,
   0x00, 0xf8, 0x5f, 0xff, 0x08, 0x41, 0x00, 0x52, 0xa9, 0x84, 0xff, 0xff,
   0xff, 0xff, 0xbf, 0xff, 0xfb, 0x5f, 0x5c, 0xfe, 0x27, 0x84, 0xfa, 0xda,
   0x56, 0xd3, 0x2e, 0x00, 0x04, 0xff, 0x3f, 0x00, 0x00, 0x00, 0x78, 0xbf,
   0xff, 0x42, 0x88, 0x24, 0x84, 0x02, 0x10, 0xfe, 0xff, 0xff, 0xff, 0xff,
   0xad, 0xff, 0x2f, 0xb9, 0x5e, 0x8d, 0x28, 0xab, 0xfb, 0xf7, 0xb6, 0x4a,
   0x00, 0x94, 0xfc, 0xff, 0x00, 0x00, 0x00, 0xf8, 0xbf, 0xfe, 0x04, 0x25,
   0x02, 0x6d, 0x0a, 0x40, 0xfd, 0xff, 0xff, 0xff, 0xff, 0xff, 0xfe, 0x8f,
   0xfa, 0xfb, 0x53, 0x80, 0xf4, 0xae, 0xad, 0xaa, 0xb6, 0x00, 0x10, 0xf5,
   0x5f, 0x01, 0x00, 0x00, 0xf8, 0xfd, 0xff, 0x22, 0x25, 0x00, 0x4e, 0x2a,
   0x40, 0xff, 0xff, 0xff, 0xff, 0x7f, 0xeb, 0xff, 0x27, 0x51, 0xb7, 0x86,
   0xa8, 0xec, 0x7b, 0xab, 0xdd, 0x25, 0x00, 0xa0, 0xfa, 0x7f, 0x00, 0x00,
   0x00, 0xf0, 0xff, 0x3f, 0x41, 0x4a, 0x40, 0x97, 0x00, 0x20, 0xfd, 0xff,
   0xff, 0xff, 0xff, 0xff, 0x7f, 0x95, 0xfb, 0x7f, 0x25, 0x50, 0xb5, 0xed,
   0x56, 0x35, 0xd5, 0x00, 0xc0, 0xeb, 0xff, 0x01, 0x00, 0x00, 0xf0, 0xdb,
   0x1f, 0x4a, 0x2d, 0x81, 0x37, 0x15, 0x80, 0xfe, 0xff, 0xff, 0xff, 0xff,
   0xff, 0xef, 0x05, 0xd5, 0xef, 0x55, 0x15, 0xfb, 0xdd, 0x54, 0x69, 0x55,
   0x00, 0x00, 0xf7, 0x7f, 0x04, 0x00, 0x00, 0xe0, 0xb5, 0x42, 0xa8, 0x3a,
   0x40, 0x8b, 0x80, 0x00, 0xfd, 0xff, 0xff, 0xff, 0xff, 0xff, 0x5f, 0xd5,
   0xf6, 0xdf, 0x2a, 0x95, 0xec, 0xb7, 0x6b, 0xa5, 0x57, 0x00, 0x00, 0xff,
   0xff, 0x01, 0x00, 0x00, 0xc0, 0xb7, 0x0a, 0x02, 0x70, 0x40, 0x77, 0x0a,
   0x50, 0xff, 0xff, 0xff, 0xff, 0xff, 0xff, 0x6f, 0xb7, 0xd4, 0xdb, 0xaa,
   0x8a, 0xbd, 0x36, 0x55, 0xa9, 0xd6, 0x00, 0x00, 0xfb, 0xff, 0x00, 0x00,
   0x00, 0xa1, 0x4b, 0x56, 0x39, 0x7c, 0x92, 0x95, 0x29, 0x81, 0xfe, 0xfe,
   0xff, 0xff, 0xff, 0xff, 0xdb, 0x55, 0xfd, 0x7e, 0x6b, 0xf3, 0x76, 0x6b,
   0xa9, 0xd6, 0x5b, 0x00, 0x00, 0xf6, 0xff, 0x07, 0x00, 0x00, 0x84, 0x4a,
   0x08, 0x02, 0xf8, 0xa0, 0x69, 0x25, 0x10, 0xe5, 0xf9, 0xff, 0xff, 0xff,
   0xff, 0x57, 0xb7, 0xfd, 0xb5, 0xda, 0xa1, 0xed, 0xd6, 0xa7, 0xb5, 0xd6,
   0x00, 0x00, 0xdc, 0xff, 0x23, 0x00, 0x20, 0x10, 0x10, 0xa1, 0x08, 0x7c,
   0xa9, 0xd1, 0x2a, 0xe1, 0x85, 0xf5, 0xff, 0xff, 0xff, 0xff, 0x29, 0x68,
   0xfe, 0xbf, 0x6b, 0xf4, 0xb6, 0x2b, 0xa8, 0xda, 0x69, 0x00, 0x00, 0xd8,
   0xff, 0x0f, 0x00, 0x00, 0x81, 0x02, 0x02, 0x92, 0x7c, 0xe3, 0xa1, 0x2b,
   0x84, 0x03, 0x4e, 0xfd, 0xff, 0xff, 0xdf, 0x0b, 0xc4, 0xad, 0xf6, 0x1e,
   0xdd, 0x7f, 0xad, 0xab, 0x56, 0xcb, 0x00, 0x00, 0xa0, 0xff, 0x17, 0x01,
   0x40, 0x20, 0x00, 0x08, 0x04, 0xfa, 0xd4, 0xd1, 0x9f, 0xf8, 0x03, 0xf4,
   0xef, 0xff, 0xff, 0xff, 0x1b, 0xd6, 0xf7, 0x2d, 0xa5, 0xb6, 0xad, 0x5b,
   0xb6, 0x7d, 0xb5, 0x00, 0x00, 0x60, 0xff, 0x2f, 0x88, 0x04, 0x40, 0x55,
   0xa0, 0x00, 0xfc, 0xf5, 0xa3, 0x5e, 0xd1, 0x00, 0xe8, 0x00, 0xff, 0xff,
   0xd5, 0xd3, 0xf6, 0xcf, 0xf5, 0x47, 0xf5, 0x7f, 0xd7, 0x2c, 0xeb, 0xb6,
   0x00, 0x00, 0xc0, 0xff, 0x5f, 0x21, 0x00, 0x02, 0x88, 0x04, 0x12, 0xfc,
   0xeb, 0xf1, 0xbf, 0xf6, 0x01, 0x00, 0x00, 0xc0, 0xff, 0x7d, 0xaa, 0xff,
   0x75, 0xaf, 0xb4, 0xdb, 0xf6, 0x2e, 0xd7, 0xbd, 0xea, 0x00, 0x00, 0x80,
   0xfe, 0x7f, 0x04, 0x29, 0x84, 0x92, 0x48, 0x02, 0xf8, 0xfb, 0xa3, 0xbf,
   0x7e, 0x00, 0x00, 0x00, 0x80, 0x3f, 0xfd, 0xbe, 0xff, 0xff, 0xda, 0x75,
   0xf7, 0xd7, 0xfa, 0x56, 0xef, 0x4a, 0x00, 0x00, 0x00, 0xfd, 0xff, 0x12,
   0x84, 0x10, 0x55, 0x15, 0x00, 0xf4, 0xf5, 0xe1, 0xff, 0x1b, 0x00, 0x00,
   0x00, 0x80, 0xfe, 0x37, 0xed, 0xde, 0xd7, 0xbf, 0xea, 0x5e, 0xea, 0xb5,
   0xff, 0xba, 0xb6, 0x00, 0x00, 0x00, 0xfd, 0xff, 0xa5, 0x10, 0x21, 0xfa,
   0x77, 0x09, 0xf8, 0xf7, 0xd5, 0xff, 0x01, 0x00, 0x00, 0x00, 0x00, 0xee,
   0x7f, 0xfd, 0xff, 0xbe, 0x5d, 0xdd, 0x6d, 0xaf, 0x75, 0xa5, 0xb5, 0xf6,
   0x00, 0x00, 0x00, 0xff, 0xff, 0x53, 0x45, 0x44, 0xfd, 0xff, 0x21, 0xfd,
   0xfb, 0xd0, 0x3f, 0x00, 0x00, 0x00, 0x00, 0x00, 0xfc, 0xff, 0xfb, 0xdf,
   0xef, 0x57, 0x7b, 0xbf, 0xb7, 0xbe, 0xdd, 0x5f, 0x55, 0x00, 0x00, 0x00,
   0xfc, 0xff, 0x4f, 0x12, 0xa9, 0xff, 0xff, 0x03, 0xf8, 0xfb, 0xeb, 0x07,
   0x00, 0x00, 0x00, 0x00, 0x00, 0xfc, 0xff, 0xfe, 0xff, 0xbd, 0x67, 0xd7,
   0x77, 0xad, 0xff, 0x6b, 0xb5, 0xfa, 0x00, 0x00, 0xc0, 0xfb, 0xff, 0x3f,
   0x55, 0xd5, 0xff, 0xff, 0x07, 0xfe, 0xff, 0xfb, 0x03, 0x00, 0x00, 0x00,
   0x00, 0x00, 0xd0, 0xff, 0xfe, 0x77, 0xf7, 0xd8, 0xbf, 0xaf, 0x6b, 0xd5,
   0xbe, 0xad, 0xb5, 0x00, 0x00, 0x80, 0xd2, 0xff, 0xff, 0x24, 0xfb, 0xff,
   0xff, 0x1f, 0xfc, 0xff, 0x7f, 0x00, 0x00, 0x00, 0x00, 0x00, 0x00, 0xd0,
   0xff, 0xff, 0xff, 0xbf, 0xf7, 0xee, 0xbd, 0xfe, 0x7f, 0xb5, 0x6a, 0xed,
   0x00, 0x00, 0x00, 0xe6, 0xff, 0xff, 0x57, 0xed, 0xff, 0xfe, 0x7f, 0xff,
   0xff, 0x1f, 0x00, 0x00, 0x00, 0x00, 0x00, 0x00, 0xc0, 0xff, 0x7f, 0xf7,
   0x47, 0xdd, 0xf7, 0xd6, 0xba, 0x54, 0xdb, 0x9a, 0xbe, 0x00, 0x00, 0x00,
   0x78, 0xff, 0xff, 0x7f, 0xfd, 0xbf, 0xff, 0xff, 0xff, 0xff, 0x03, 0x00,
   0x00, 0x00, 0x00, 0x00, 0x00, 0xe0, 0xff, 0xff, 0xfe, 0xf5, 0xbb, 0xde,
   0x5d, 0xbf, 0xdf, 0xb6, 0xb2, 0xeb, 0x00, 0x00, 0x00, 0x00, 0x7e, 0xff,
   0xd4, 0xff, 0x7f, 0x7f, 0xeb, 0xff, 0xff, 0x00, 0x00, 0x00, 0x00, 0x00,
   0x00, 0x00, 0x00, 0xdf, 0xaf, 0x3f, 0x5e, 0xdb, 0xbd, 0xaa, 0xfd, 0xa8,
   0x55, 0x4d, 0xbf, 0x00, 0x00, 0x00, 0x00, 0x00, 0x00, 0x00, 0xfc, 0xff,
   0xff, 0x4b, 0xff, 0x1f, 0x00, 0x00, 0x00, 0x00, 0x00, 0x00, 0x00, 0x00,
   0x7c, 0xfd, 0xef, 0xd7, 0xbf, 0x6e, 0x2b, 0xb7, 0x2b, 0x69, 0xd9, 0xea,
   0x00, 0x00, 0x00, 0x00, 0x00, 0x00, 0x00, 0xe0, 0x87, 0xff, 0x55, 0xfd,
   0x03, 0x00, 0x00, 0x00, 0x00, 0x00, 0x00, 0x00, 0x00, 0xfc, 0xff, 0xdf,
   0x78, 0xd5, 0xab, 0xfc, 0x6d, 0xaa, 0x55, 0xb5, 0xff, 0x00, 0x00, 0x00,
   0x00, 0x00, 0x00, 0x00, 0xc0, 0x01, 0xfe, 0x57, 0xfd, 0x01, 0x00, 0x00,
   0x00, 0x00, 0x00, 0x00, 0x00, 0x00, 0xfc, 0xff, 0xff, 0xed, 0xbf, 0x2b,
   0x5b, 0xad, 0xae, 0xaa, 0x6b, 0xfa, 0x00, 0x00, 0x00, 0x00, 0x00, 0x00,
   0x00, 0x00, 0x00, 0x06, 0xf8, 0x3b, 0x00, 0x00, 0x00, 0x00, 0x00, 0x00,
   0x00, 0x00, 0x00, 0xfc, 0xff, 0x2d, 0x5f, 0x6d, 0xb4, 0xee, 0xb7, 0xf3,
   0xaa, 0xda, 0xef, 0x00, 0x00, 0x00, 0x00, 0x00, 0x00, 0x00, 0x00, 0x00,
   0x00, 0x00, 0x00, 0x00, 0x00, 0x00, 0x00, 0x00, 0x00, 0x00, 0x00, 0x00,
   0x78, 0xa5, 0xef, 0xfb, 0xfb, 0xe9, 0xdb, 0xea, 0x56, 0xa5, 0x5a, 0xfd,
   0x00, 0x00, 0x00, 0x00, 0x00, 0x00, 0x00, 0x00, 0x00, 0x00, 0x00, 0x00,
   0x00, 0x00, 0x00, 0x00, 0x00, 0x00, 0x00, 0x00, 0x00, 0xb0, 0xfe, 0x5b,
   0x6f, 0xaf, 0x72, 0x7b, 0x5b, 0xdf, 0x57, 0xf7, 0xef, 0x00, 0x00, 0x00,
   0x00, 0x00, 0x00, 0x00, 0x00, 0x00, 0x00, 0x00, 0x00, 0x00, 0x00, 0x00,
   0x00, 0x00, 0x00, 0x00, 0x00, 0x00, 0xf0, 0xff, 0xff, 0x7d, 0xbb, 0xee,
   0x5f, 0xef, 0x52, 0x6d, 0x55, 0xff, 0x00, 0x00, 0x00, 0x00, 0x00, 0x00,
   0x00, 0x00, 0x00, 0x00, 0x00, 0x00, 0x00, 0x00, 0x00, 0x00, 0x00, 0x00,
   0x00, 0x00, 0x00, 0xe0, 0xbf, 0xdb, 0xf6, 0xeb, 0x7a, 0xeb, 0xb4, 0x7d,
   0xb5, 0xff, 0x6f, 0x00, 0x00, 0x00, 0x00, 0x00, 0x00, 0x00, 0x00, 0x00,
   0x00, 0x00, 0x00, 0x00, 0x00, 0x00, 0x00, 0x00, 0x00, 0x00, 0x00, 0x00,
   0xe0, 0xff, 0xf7, 0xdd, 0xdf, 0x77, 0xdf, 0xad, 0x6f, 0x6d, 0xd5, 0xff,
   0x00, 0x00, 0x00, 0x00, 0x00, 0x00, 0x00, 0x00, 0x00, 0x00, 0x00, 0x00,
   0x00, 0x00, 0x00, 0x00, 0x00, 0x00, 0x00, 0x00, 0x00, 0xc0, 0x7f, 0x5f,
   0xd5, 0xff, 0xff, 0xbb, 0xb6, 0xdd, 0xb5, 0x7f, 0xdf, 0x00, 0x00, 0x00,
   0x00, 0x00, 0x00, 0x00, 0x00, 0x00, 0x00, 0x00, 0x00, 0x00, 0x00, 0x00,
   0x00, 0x00, 0x00, 0x00, 0x00, 0x00, 0xc0, 0xff, 0x5f, 0x57, 0xff, 0xff,
   0xb7, 0xad, 0xbb, 0xad, 0xfa, 0xfb, 0x00, 0x00, 0x00, 0x00, 0x00, 0x00,
   0x00, 0x00, 0x00, 0x00, 0x00, 0x00, 0x00, 0x00, 0x00, 0x00, 0x00, 0x00,
   0x00, 0x00, 0x00, 0x80, 0xff, 0x55, 0xb5, 0xff, 0xaf, 0x6a, 0xff, 0xd6,
   0xf6, 0xdf, 0xaf, 0x00, 0x00, 0x00, 0x00, 0x00, 0x00, 0x00, 0x00, 0x00,
   0x00, 0x00, 0x00, 0x00, 0x00, 0x00, 0x00, 0x00, 0x00, 0x00, 0x00, 0x00,
   0x80, 0xff, 0x7f, 0xf5, 0xff, 0xdb, 0x5e, 0xd5, 0xdd, 0xad, 0xfb, 0xfe,
   0x00, 0x00, 0x00, 0x00, 0x00, 0x00, 0x00, 0x00, 0x00, 0x00, 0x00, 0x00,
   0x00, 0x00, 0x00, 0x00, 0x00, 0x00, 0x00, 0x00, 0x00, 0x00, 0x7f, 0x6d,
   0xdb, 0x6f, 0x7d, 0xeb, 0xbd, 0x36, 0xfb, 0xde, 0x5b, 0x00, 0x00, 0x00,
   0x00, 0x00, 0x00, 0x00, 0x00, 0x00, 0x00, 0x00, 0x00, 0x00, 0x00, 0x00,
   0x00, 0x00, 0x00, 0x00, 0x00, 0x00, 0x00, 0xff, 0x5b, 0x7b, 0xef, 0x6b,
   0x5d, 0xeb, 0x6b, 0xed, 0x7b, 0x35, 0x00, 0x00, 0x00, 0x00, 0x00, 0x00,
   0x00, 0x00, 0x00, 0x00, 0x00, 0x00, 0x00, 0x00, 0x00, 0x00, 0x00, 0x00,
   0x00, 0x00, 0x00, 0x00, 0xfe, 0xed, 0xd6, 0x5f, 0xaf, 0xeb, 0xb6, 0xda,
   0xf7, 0xaf, 0x02, 0x00, 0x00, 0x00, 0x00, 0x00, 0x00, 0x00, 0x00, 0x00,
   0x00, 0x00, 0x00, 0x00, 0x00, 0x00, 0x00, 0x00, 0x00, 0x00, 0x00, 0x00,
   0x00, 0xb4, 0xdf, 0xff, 0xfa, 0x7a, 0xb7, 0xed, 0xab, 0x7e, 0x1f, 0x00,
   0x00, 0x00, 0x00, 0x00, 0x00, 0x00, 0x00, 0x00, 0x00, 0x00, 0x00, 0x00,
   0x00, 0x00, 0x00, 0x00, 0x00, 0x00, 0x00, 0x00, 0x00, 0x00, 0x68, 0x55,
   0xfd, 0xab, 0xef, 0xad, 0x9a, 0xde, 0xeb, 0x05, 0x00, 0x00, 0x00, 0x00,
   0x00, 0x00, 0x00, 0x00, 0x00, 0x00, 0x00, 0x00, 0x00, 0x00, 0x00, 0x00,
   0x00, 0x00, 0x00, 0x00, 0x00, 0x00, 0x00, 0x68, 0xdd, 0x56, 0xff, 0x5a,
   0xed, 0xf6, 0x6a, 0xdf, 0x02, 0x00, 0x00, 0x00, 0x00, 0x00, 0x00, 0x00,
   0x00, 0x00, 0x00, 0x00, 0x00, 0x00, 0x00, 0x00, 0x00, 0x00, 0x00, 0x00,
   0x00, 0x00, 0x00, 0x00, 0xd0, 0xaa, 0xfa, 0xaa, 0xbb, 0x95, 0xad, 0xfd,
   0x57, 0x01, 0x00, 0x00, 0x00, 0x00, 0x00, 0x00, 0x00, 0x00, 0x00, 0x00,
   0x00, 0x00, 0x00, 0x00, 0x00, 0x00, 0x00, 0x00, 0x00, 0x00, 0x00, 0x00,
   0x00, 0x50, 0xdb, 0xd6, 0xaf, 0xea, 0x76, 0xbb, 0xb5, 0x36, 0x00, 0x00,
   0x00, 0x00, 0x00, 0x00, 0x00, 0x00, 0x00, 0x00, 0x00, 0x00, 0x00, 0x00,
   0x00, 0x00, 0x00, 0x00, 0x00, 0x00, 0x00, 0x00, 0x00, 0x00, 0xe0, 0x56,
   0x3d, 0xb5, 0xab, 0xad, 0x6a, 0xff, 0x0a, 0x00, 0x00, 0x00, 0x00, 0x00,
   0x00, 0x00, 0x00, 0x00, 0x00, 0x00, 0x00, 0x00, 0x00, 0x00, 0x00, 0x00,
   0x00, 0x00, 0x00, 0x00, 0x00, 0x00, 0x00, 0x80, 0xfd, 0xe5, 0x5e, 0xb5,
   0x9a, 0xee, 0x45, 0x11, 0x00, 0x00, 0x00, 0x00, 0x00, 0x00, 0x00, 0x00,
   0x00, 0x00, 0x00, 0x00, 0x00, 0x00, 0x00, 0x00, 0x00, 0x00, 0x00, 0x00,
   0x00, 0x00, 0x00, 0x00, 0x80, 0xaa, 0x5a, 0x53, 0xed, 0x6b, 0xb5, 0x5a,
   0x06, 0x00, 0x00, 0x00, 0x00, 0x00, 0x00, 0x00, 0x00, 0x00, 0x00, 0x00,
   0x00, 0x00, 0x00, 0x00, 0x00, 0x00, 0x00, 0x00, 0x00, 0x00, 0x00, 0x00,
   0x00, 0x00, 0xb4, 0x76, 0xed, 0xab, 0xd2, 0x56, 0x85, 0x04, 0x00, 0x00,
   0x00, 0x00, 0x00, 0x00, 0x00, 0x00, 0x00, 0x00, 0x00, 0x00, 0x00, 0x00,
   0x00, 0x00, 0x00, 0x00, 0x00, 0x00, 0x00, 0x00, 0x00, 0x00, 0x00, 0xd1,
   0xad, 0x9b, 0xb6, 0xae, 0xa9, 0xb0, 0x00, 0x00, 0x00, 0x00, 0x00, 0x00,
   0x00, 0x00, 0x00, 0x00, 0x00, 0x00, 0x00, 0x00, 0x00, 0x00, 0x00, 0x00,
   0x00, 0x00, 0x00, 0x00, 0x00, 0x00, 0x00, 0x00, 0x28, 0x5b, 0xb5, 0x6a,
   0x35, 0x2b, 0x88, 0x00, 0x00, 0x00, 0x00, 0x00, 0x00, 0x00, 0x00, 0x00,
   0x00, 0x00, 0x00, 0x00, 0x00, 0x00, 0x00, 0x00, 0x00, 0x00, 0x00, 0x00,
   0x00, 0x00, 0x00, 0x00, 0x00, 0xa4, 0xaa, 0x55, 0xdb, 0xaa, 0x8a, 0x12,
   0x00, 0x00, 0x00, 0x00, 0x00, 0x00, 0x00, 0x00, 0x00, 0x00, 0x00, 0x00,
   0x00, 0x00, 0x00, 0x00, 0x00, 0x00, 0x00, 0x00, 0x00, 0x00, 0x00, 0x00,
   0x00, 0x00, 0x88, 0x5a, 0xd5, 0xaa, 0x55, 0x21, 0x15, 0x00, 0x00, 0x00,
   0x00, 0x00, 0x00, 0x00, 0x00, 0x00, 0x00, 0x00, 0x00, 0x00, 0x00, 0x00,
   0x00, 0x00, 0x00, 0x00, 0x00, 0x00, 0x00, 0x00, 0x00, 0x00, 0x00, 0xa0,
   0xaa, 0xaa, 0xaa, 0x2a, 0x4a, 0x02, 0x00, 0x00, 0x00, 0x00, 0x00, 0x00,
   0x00, 0x00, 0x00, 0x00, 0x00, 0x00, 0x00, 0x00, 0x00, 0x00, 0x00, 0x00,
   0x00, 0x00, 0x00, 0x00, 0x00, 0x00, 0x00, 0x00, 0x88, 0x6a, 0x6f, 0x2d,
   0x44, 0x92, 0x00, 0x00, 0x00, 0x00, 0x00, 0x00, 0x00, 0x00, 0x00, 0x00,
   0x00, 0x00, 0x00, 0x00, 0x00, 0x00, 0x00, 0x00, 0x00, 0x00, 0x00, 0x00,
   0x00, 0x00, 0x00, 0x00, 0x00, 0x00, 0xaa, 0x54, 0x89, 0x90, 0x88, 0x00,
   0x00, 0x00, 0x00, 0x00, 0x00, 0x00, 0x00, 0x00, 0x00, 0x00, 0x00, 0x00,
   0x00, 0x00, 0x00, 0x00, 0x00, 0x00, 0x00, 0x00, 0x00, 0x00, 0x00, 0x00,
   0x00, 0x00, 0xa0, 0xa8, 0x5b, 0x11, 0x82, 0x12, 0x00, 0x00, 0x00, 0x00,
   0x00, 0x00, 0x00, 0x00, 0x00, 0x00, 0x00, 0x00, 0x00, 0x00, 0x00, 0x00,
   0x00, 0x00, 0x00, 0x00, 0x00, 0x00, 0x00, 0x00, 0x00, 0x00, 0x00, 0x00,
   0x5e, 0xb5, 0x80, 0x08, 0x04, 0x00, 0x00, 0x00, 0x00, 0x00, 0x00, 0x00,
   0x00, 0x00, 0x00, 0x00, 0x00, 0x00, 0x00, 0x00, 0x00, 0x00, 0x00, 0x00,
   0x00, 0x00, 0x00, 0x00, 0x00, 0x00, 0x00, 0x00, 0x00, 0x54, 0x01, 0x00,
   0x51, 0x01, 0x00, 0x00, 0x00, 0x00, 0x00, 0x00, 0x00, 0x00, 0x00, 0x00,
   0x00, 0x00, 0x00, 0x00, 0x00, 0x00, 0x00, 0x00, 0x00, 0x00, 0x00, 0x00,
   0x00, 0x00, 0x00, 0x00, 0x00, 0x00, 0x00, 0x00, 0x00, 0x22, 0x00, 0x00,
   0x00, 0x00, 0x00, 0x00, 0x00, 0x00, 0x00, 0x00, 0x00, 0x00, 0x00, 0x00,
   0x00, 0x00, 0x00, 0x00, 0x00, 0x00, 0x00, 0x00, 0x00, 0x00, 0x00, 0x00,
   0x00, 0x00, 0x00, 0x00, 0x00, 0x20, 0x0a, 0x00, 0x00, 0x00, 0x00, 0x00 };
