#define pnj25_width 264
#define pnj25_height 176
static unsigned char pnj25_bits[] = {
   0x00, 0x00, 0x00, 0x00, 0x00, 0x00, 0x00, 0x00, 0x00, 0x00, 0x00, 0x00,
   0x00, 0x00, 0x00, 0x00, 0x00, 0x00, 0x00, 0x00, 0x00, 0x00, 0x00, 0x00,
   0x00, 0x00, 0x00, 0x80, 0x04, 0x00, 0x00, 0x00, 0x00, 0x00, 0x00, 0x00,
   0x00, 0x00, 0x00, 0x00, 0x00, 0x00, 0x00, 0x00, 0x00, 0x00, 0x00, 0x00,
   0x00, 0x00, 0x00, 0x00, 0x00, 0x00, 0x00, 0x00, 0x00, 0x00, 0x00, 0x00,
   0x80, 0x04, 0x00, 0x00, 0x00, 0x00, 0x00, 0x00, 0x00, 0x00, 0x00, 0x00,
   0x00, 0x00, 0x00, 0x00, 0x00, 0x00, 0x00, 0x00, 0x00, 0x00, 0x00, 0x00,
   0x00, 0x00, 0x00, 0x00, 0x00, 0x00, 0x00, 0x00, 0x00, 0x00, 0x08, 0x00,
   0x00, 0x00, 0x00, 0x00, 0x00, 0x00, 0x00, 0x00, 0x00, 0x00, 0x00, 0x00,
   0x00, 0x00, 0x00, 0x00, 0x00, 0x00, 0x00, 0x00, 0x00, 0x00, 0x00, 0x00,
   0x00, 0x00, 0x00, 0x00, 0x00, 0x24, 0x44, 0x51, 0x00, 0x00, 0x00, 0x00,
   0x00, 0x00, 0x00, 0x00, 0x00, 0x00, 0x00, 0x00, 0x00, 0x00, 0x00, 0x00,
   0x00, 0x00, 0x00, 0x00, 0x00, 0x00, 0x00, 0x00, 0x00, 0x00, 0x00, 0x00,
   0x00, 0x00, 0x00, 0x00, 0x8a, 0x00, 0x00, 0x00, 0x00, 0x00, 0x00, 0x00,
   0x00, 0x00, 0x00, 0x00, 0x00, 0x00, 0x00, 0x00, 0x00, 0x00, 0x00, 0x00,
   0x00, 0x00, 0x00, 0x00, 0x00, 0x00, 0x00, 0x00, 0x00, 0x00, 0x00, 0x00,
   0x90, 0xa8, 0x02, 0x00, 0x00, 0x00, 0x00, 0x00, 0x00, 0x00, 0x00, 0x00,
   0x00, 0x00, 0x00, 0x00, 0x00, 0x00, 0x00, 0x00, 0x00, 0x00, 0x00, 0x00,
   0x00, 0x40, 0x00, 0x00, 0x00, 0x00, 0x00, 0x00, 0x00, 0x40, 0x24, 0x09,
   0x00, 0x00, 0x00, 0x00, 0x00, 0x00, 0x00, 0x00, 0x00, 0x00, 0x00, 0x00,
   0x00, 0x00, 0x00, 0x00, 0x00, 0x00, 0x00, 0x00, 0x00, 0x00, 0x00, 0x00,
   0x00, 0x00, 0x00, 0x00, 0x00, 0x00, 0x00, 0x80, 0x02, 0x00, 0x00, 0x00,
   0x00, 0x00, 0x00, 0x00, 0x00, 0x00, 0x00, 0x00, 0x00, 0x00, 0x00, 0x00,
   0x00, 0x00, 0x00, 0x00, 0x00, 0x00, 0x00, 0x00, 0x00, 0x00, 0x00, 0x00,
   0x00, 0x00, 0x00, 0x00, 0x00, 0x4a, 0x00, 0x00, 0x00, 0x00, 0x00, 0x00,
   0x00, 0x00, 0x00, 0x00, 0x00, 0x00, 0x00, 0x00, 0x00, 0x00, 0x00, 0x00,
   0x00, 0x00, 0x00, 0x00, 0x00, 0x00, 0x00, 0x20, 0x00, 0x00, 0x00, 0x00,
   0x00, 0x80, 0x08, 0x00, 0x00, 0x00, 0x00, 0x00, 0x00, 0x00, 0x00, 0x00,
   0x00, 0x00, 0x00, 0x00, 0x00, 0x00, 0x00, 0x00, 0x00, 0x00, 0x00, 0x00,
   0x00, 0x00, 0x00, 0x00, 0x00, 0x00, 0x08, 0x00, 0x00, 0x00, 0x50, 0x52,
   0x00, 0x00, 0x00, 0x00, 0x00, 0x00, 0x00, 0x00, 0x00, 0x00, 0x00, 0x00,
   0x00, 0x00, 0x00, 0x00, 0x00, 0x00, 0x00, 0x00, 0x00, 0x00, 0x00, 0x00,
   0x00, 0x00, 0x00, 0xa0, 0x00, 0x00, 0x00, 0x40, 0x45, 0x00, 0x00, 0x00,
   0x00, 0x00, 0x00, 0x00, 0x00, 0x00, 0x00, 0x00, 0x00, 0x00, 0x00, 0x00,
   0x00, 0x00, 0x00, 0x00, 0x00, 0x00, 0x00, 0x00, 0x00, 0x00, 0x00, 0x00,
   0x01, 0x00, 0x00, 0x00, 0x04, 0x09, 0x09, 0x00, 0x00, 0x00, 0x00, 0x00,
   0x00, 0x00, 0x00, 0x00, 0x00, 0x00, 0x00, 0x00, 0x00, 0x00, 0x00, 0x00,
   0x00, 0x00, 0x00, 0x00, 0x00, 0x00, 0x00, 0x00, 0x00, 0x02, 0x00, 0x00,
   0x00, 0xaa, 0x0a, 0xa0, 0x00, 0x00, 0x00, 0x00, 0x00, 0x00, 0x00, 0x00,
   0x00, 0x00, 0x00, 0x00, 0x00, 0x00, 0x00, 0x00, 0x20, 0x00, 0x00, 0x00,
   0x00, 0x00, 0x00, 0x00, 0x00, 0x40, 0x00, 0x00, 0x00, 0x80, 0x5a, 0x20,
   0x44, 0x02, 0x00, 0x00, 0x00, 0x00, 0x00, 0x00, 0x00, 0x00, 0x00, 0x00,
   0x00, 0x00, 0x00, 0x00, 0x00, 0xad, 0x01, 0x05, 0x00, 0xa0, 0x00, 0x00,
   0x00, 0x00, 0x00, 0x08, 0x00, 0x00, 0xd0, 0xae, 0x00, 0x88, 0x08, 0x00,
   0x00, 0x00, 0x00, 0x00, 0x00, 0x00, 0x00, 0x00, 0x00, 0x00, 0x00, 0x00,
   0xa8, 0x9f, 0xaa, 0xff, 0x2d, 0x00, 0x00, 0x00, 0x00, 0x00, 0x00, 0x00,
   0x00, 0x00, 0x00, 0x40, 0x0b, 0x00, 0x40, 0x25, 0x00, 0x00, 0x00, 0x00,
   0x00, 0x00, 0x00, 0x00, 0x00, 0x00, 0x00, 0x10, 0xa8, 0xbf, 0xfa, 0x55,
   0xff, 0x55, 0x00, 0x00, 0x00, 0x00, 0x00, 0x00, 0x00, 0x08, 0x00, 0x00,
   0x00, 0x28, 0x00, 0x00, 0x09, 0x00, 0x00, 0x00, 0x00, 0x00, 0x00, 0x00,
   0x00, 0x00, 0x00, 0x00, 0x76, 0xd7, 0xbf, 0xfe, 0xab, 0xfe, 0xef, 0x03,
   0x00, 0x00, 0x00, 0x00, 0x00, 0x00, 0x00, 0x00, 0x00, 0x00, 0x91, 0x00,
   0x00, 0x22, 0x00, 0x00, 0x00, 0x00, 0x00, 0x00, 0x00, 0x00, 0x00, 0x00,
   0x80, 0xaf, 0xae, 0xbf, 0xf4, 0x57, 0xff, 0xab, 0x16, 0x00, 0x00, 0x00,
   0x00, 0x00, 0x00, 0x00, 0x00, 0x00, 0x00, 0x24, 0x00, 0x40, 0x0a, 0x00,
   0x00, 0x00, 0x00, 0x00, 0x00, 0x00, 0x00, 0x00, 0x00, 0xe0, 0xff, 0xbd,
   0x3f, 0xea, 0xaf, 0xfe, 0xaf, 0x6f, 0x00, 0x00, 0x00, 0x00, 0x00, 0x00,
   0x02, 0x10, 0x00, 0x00, 0x08, 0x00, 0x00, 0x24, 0x00, 0x00, 0x00, 0x00,
   0x00, 0x00, 0x00, 0x00, 0x00, 0x00, 0xf0, 0xff, 0x7f, 0xfd, 0xd0, 0xbf,
   0xfe, 0xb7, 0x2e, 0x00, 0x00, 0x00, 0x00, 0x00, 0x00, 0x00, 0x00, 0x00,
   0x80, 0x10, 0x00, 0x00, 0x24, 0x00, 0x00, 0x00, 0x00, 0x00, 0x00, 0x00,
   0x00, 0x00, 0x00, 0xee, 0xff, 0xff, 0xf6, 0xf6, 0x7f, 0xfd, 0xdf, 0x5f,
   0x03, 0x00, 0x00, 0x00, 0x00, 0x00, 0x01, 0x01, 0x00, 0x00, 0x00, 0x80,
   0x00, 0x49, 0x00, 0x00, 0x00, 0x00, 0x00, 0x00, 0x00, 0x00, 0x00, 0xfc,
   0xea, 0xff, 0xff, 0xfe, 0xd5, 0xff, 0xff, 0x3f, 0x5d, 0x04, 0x00, 0x00,
   0x00, 0x00, 0x00, 0x00, 0x00, 0x00, 0x00, 0x00, 0xa0, 0x21, 0x54, 0x01,
   0x00, 0x00, 0x00, 0x00, 0x00, 0x00, 0x00, 0xc0, 0x5f, 0xdd, 0xff, 0xbf,
   0xff, 0xf7, 0xff, 0xfe, 0x7f, 0xbf, 0x06, 0x00, 0x00, 0x00, 0x00, 0x00,
   0x00, 0x00, 0x00, 0x00, 0x00, 0x10, 0x82, 0x24, 0x05, 0x00, 0x00, 0x00,
   0x00, 0x00, 0x00, 0x00, 0xfb, 0xdf, 0xf2, 0xff, 0xef, 0xff, 0xdf, 0xff,
   0xff, 0xff, 0xba, 0x1c, 0x00, 0x00, 0x00, 0x00, 0x00, 0x00, 0x00, 0x00,
   0x00, 0x00, 0x50, 0x42, 0xa9, 0x08, 0x00, 0x00, 0x00, 0x00, 0x00, 0x00,
   0xe0, 0xff, 0xff, 0xdf, 0xff, 0xb7, 0xff, 0x7f, 0xfd, 0xff, 0xbf, 0xff,
   0x3a, 0x00, 0x00, 0x00, 0x00, 0x00, 0x00, 0x00, 0x00, 0x00, 0x00, 0xee,
   0x8f, 0x16, 0x15, 0x00, 0x00, 0x00, 0x00, 0x00, 0x00, 0xb0, 0xff, 0xff,
   0x7f, 0xfe, 0x6b, 0xdf, 0xff, 0xfa, 0xff, 0x7f, 0xff, 0x35, 0x00, 0x00,
   0x00, 0x00, 0x00, 0x20, 0x00, 0x00, 0x00, 0xe0, 0xff, 0x7f, 0x75, 0x11,
   0x00, 0x00, 0x00, 0x00, 0x00, 0x00, 0xe8, 0xfe, 0xfe, 0xbf, 0xfd, 0xf5,
   0x75, 0xbf, 0xfe, 0xff, 0xff, 0xfb, 0x7b, 0x00, 0x00, 0x00, 0x00, 0x00,
   0x40, 0x00, 0x00, 0x00, 0xe0, 0xaf, 0xff, 0xa7, 0x4a, 0x00, 0x00, 0x00,
   0x00, 0x00, 0x80, 0xca, 0xff, 0xff, 0xbf, 0xff, 0xd5, 0xd7, 0xbe, 0xfa,
   0xff, 0xff, 0xff, 0x77, 0x00, 0x00, 0x00, 0x00, 0x00, 0x00, 0x00, 0x00,
   0xa0, 0xc2, 0x00, 0xfa, 0xdf, 0xaa, 0x00, 0x00, 0x00, 0x00, 0x00, 0x78,
   0xa9, 0xef, 0xff, 0x4f, 0x7f, 0x7a, 0xd9, 0x2d, 0xff, 0xdf, 0xff, 0xed,
   0xfb, 0x00, 0x00, 0x00, 0x00, 0x00, 0x00, 0x00, 0x00, 0x80, 0x10, 0x00,
   0xe2, 0xbf, 0x55, 0x00, 0x00, 0x00, 0x00, 0x00, 0xab, 0xfd, 0xff, 0xff,
   0xdf, 0xff, 0xea, 0x57, 0x6f, 0xfd, 0xfb, 0xff, 0xdd, 0xff, 0x00, 0x00,
   0x00, 0x00, 0x00, 0x00, 0x00, 0x00, 0x40, 0x03, 0x00, 0x44, 0x7f, 0x2b,
   0x00, 0x00, 0x00, 0x00, 0xc0, 0xef, 0xff, 0xff, 0xff, 0xeb, 0x3f, 0xdd,
   0xde, 0xda, 0xff, 0xff, 0xff, 0xf7, 0xff, 0x00, 0x00, 0x00, 0x00, 0x00,
   0x00, 0x00, 0x00, 0x00, 0x0a, 0x00, 0x82, 0xfc, 0xab, 0x00, 0x00, 0x00,
   0x00, 0x70, 0xff, 0xff, 0xff, 0xdb, 0xff, 0xdf, 0xaa, 0xbf, 0xdb, 0xff,
   0xfb, 0xff, 0xff, 0xff, 0x00, 0x00, 0x00, 0x00, 0x00, 0x00, 0x00, 0x00,
   0x00, 0x00, 0x00, 0x14, 0xfd, 0x4f, 0x00, 0x00, 0x00, 0x00, 0x90, 0xbb,
   0xfe, 0xff, 0xff, 0xff, 0x5f, 0x5b, 0x7f, 0x77, 0xff, 0xff, 0xff, 0xaf,
   0xff, 0x00, 0x00, 0x00, 0x00, 0x00, 0x00, 0x00, 0x00, 0x00, 0x02, 0x00,
   0x01, 0xfa, 0x5f, 0x00, 0x00, 0x00, 0x00, 0xb8, 0xee, 0xff, 0xff, 0xff,
   0xff, 0x5f, 0x2d, 0xfe, 0xf6, 0xff, 0xff, 0xff, 0xff, 0xff, 0x01, 0x00,
   0x00, 0x00, 0x00, 0x00, 0x00, 0x00, 0x00, 0x04, 0x00, 0x16, 0xe8, 0x7f,
   0x00, 0x00, 0x00, 0x00, 0xf0, 0xdd, 0xff, 0xff, 0xff, 0xff, 0x7b, 0xd7,
   0xbf, 0xdb, 0xff, 0xff, 0xff, 0x7f, 0xff, 0x02, 0x00, 0x00, 0x00, 0x00,
   0x00, 0x00, 0x00, 0x00, 0x00, 0x00, 0x15, 0xd4, 0x7f, 0x00, 0x00, 0x00,
   0x00, 0x40, 0xf7, 0xff, 0x7f, 0x75, 0xfd, 0x6e, 0x5d, 0x7d, 0xdb, 0xbf,
   0xff, 0xff, 0xff, 0xff, 0x07, 0x00, 0x00, 0x00, 0x00, 0x00, 0x00, 0x00,
   0x03, 0x20, 0x00, 0x12, 0xd0, 0xff, 0x00, 0x00, 0x00, 0x00, 0xf0, 0xae,
   0xff, 0x87, 0xd6, 0x55, 0xdb, 0x55, 0xbd, 0x00, 0xdf, 0xfe, 0xff, 0xff,
   0x7f, 0x07, 0x00, 0x00, 0x00, 0x00, 0x00, 0x00, 0x0a, 0x03, 0xa0, 0x00,
   0x14, 0x50, 0xdf, 0x00, 0x00, 0x00, 0x00, 0xda, 0xea, 0xff, 0x54, 0xdd,
   0x7b, 0x5b, 0xab, 0x00, 0x00, 0x00, 0xf4, 0xff, 0xdf, 0xff, 0x0f, 0x00,
   0x00, 0x00, 0x00, 0x00, 0x00, 0x80, 0x02, 0x80, 0x00, 0x30, 0xa0, 0xbf,
   0x00, 0x00, 0x00, 0x00, 0x95, 0xbe, 0xbf, 0x68, 0x7b, 0xef, 0x6d, 0x05,
   0x00, 0x00, 0x00, 0x00, 0xfa, 0xff, 0xdf, 0x27, 0x00, 0x00, 0x00, 0x00,
   0x00, 0x00, 0x88, 0x01, 0x00, 0x01, 0x28, 0x40, 0x5f, 0x00, 0x00, 0x00,
   0x00, 0xab, 0xf4, 0x1f, 0xa9, 0xea, 0xbb, 0x5b, 0x01, 0x00, 0x00, 0x00,
   0x00, 0xc0, 0xff, 0xff, 0x07, 0x00, 0x00, 0x00, 0x00, 0x00, 0x00, 0x80,
   0x03, 0x00, 0x08, 0x70, 0x50, 0xbf, 0x00, 0x00, 0x00, 0x80, 0x54, 0xfb,
   0x83, 0x44, 0x55, 0x57, 0x55, 0x00, 0x00, 0x00, 0x00, 0x00, 0x00, 0xfe,
   0xff, 0x23, 0x00, 0x00, 0x00, 0x00, 0x00, 0x00, 0x80, 0x02, 0x00, 0x42,
   0x20, 0x45, 0x7d, 0x00, 0x00, 0x00, 0x00, 0x50, 0xff, 0x2a, 0x94, 0x54,
   0xad, 0x02, 0x00, 0x00, 0x00, 0x00, 0x00, 0x00, 0xf0, 0xdd, 0x23, 0x00,
   0x00, 0x00, 0x00, 0x00, 0x00, 0x80, 0x01, 0x00, 0x14, 0x00, 0x5a, 0xff,
   0x00, 0x00, 0x00, 0x80, 0xf5, 0xff, 0x80, 0x52, 0x85, 0x0a, 0x00, 0x00,
   0x00, 0x00, 0x00, 0x00, 0x00, 0xc0, 0x7f, 0x5b, 0x00, 0x00, 0x00, 0x00,
   0x00, 0x00, 0x80, 0x02, 0x00, 0xa0, 0xe0, 0x44, 0xfd, 0x00, 0x00, 0x00,
   0x28, 0xaa, 0xff, 0x3f, 0xaa, 0x2a, 0x12, 0x00, 0x00, 0x00, 0x00, 0x00,
   0x00, 0x00, 0x00, 0xfd, 0xf2, 0x01, 0x00, 0x00, 0x00, 0x00, 0x00, 0x80,
   0x02, 0x00, 0x00, 0x00, 0x2f, 0xfd, 0x00, 0x00, 0x00, 0xd6, 0xda, 0x7f,
   0xd5, 0x54, 0x24, 0x08, 0x00, 0x00, 0x00, 0x00, 0x00, 0x00, 0x00, 0x00,
   0xe8, 0xaf, 0x02, 0x00, 0x00, 0x00, 0x00, 0x00, 0x00, 0x03, 0x00, 0x00,
   0x00, 0x38, 0xf8, 0x00, 0x00, 0x00, 0x54, 0xb7, 0xff, 0xd2, 0x55, 0x25,
   0x01, 0x00, 0x00, 0x00, 0x00, 0x00, 0x00, 0x00, 0x00, 0x10, 0xd4, 0xb6,
   0x00, 0x00, 0x00, 0x00, 0x00, 0x00, 0x07, 0x00, 0x00, 0x00, 0x70, 0xf9,
   0x00, 0x00, 0x80, 0xaa, 0xfa, 0xfe, 0xa4, 0x8a, 0x00, 0x00, 0x00, 0x00,
   0x00, 0x00, 0x00, 0x00, 0x00, 0x00, 0x40, 0x00, 0xc0, 0x05, 0x00, 0x00,
   0x00, 0x00, 0x80, 0x03, 0x00, 0x00, 0x00, 0x18, 0xf6, 0x00, 0x00, 0x80,
   0xa8, 0xda, 0xee, 0x85, 0x37, 0x04, 0x00, 0x00, 0x00, 0x00, 0x00, 0x00,
   0x00, 0x00, 0x00, 0x40, 0x4a, 0x02, 0x1b, 0x00, 0x00, 0x00, 0x00, 0xc0,
   0x03, 0x00, 0x00, 0x00, 0x68, 0xf4, 0x00, 0x00, 0x00, 0xaa, 0x2e, 0xff,
   0x51, 0x4e, 0x01, 0x00, 0x00, 0x00, 0x04, 0x00, 0x00, 0x00, 0x00, 0x00,
   0x00, 0x00, 0x88, 0x94, 0x00, 0x00, 0x00, 0x00, 0xc0, 0x01, 0x00, 0x00,
   0x00, 0x98, 0xf2, 0x00, 0x00, 0xa0, 0x48, 0x55, 0xee, 0x43, 0x1a, 0x00,
   0x00, 0x00, 0x00, 0x06, 0x00, 0x00, 0x00, 0x00, 0x00, 0x00, 0x04, 0x00,
   0x6a, 0x02, 0x00, 0x00, 0x00, 0xc0, 0x01, 0x00, 0x00, 0x00, 0xbc, 0xf2,
   0x00, 0x00, 0x00, 0xa2, 0x07, 0xf7, 0x95, 0x0e, 0x00, 0x00, 0x00, 0x08,
   0x06, 0x00, 0x00, 0x00, 0x00, 0x00, 0x00, 0x10, 0x00, 0xa8, 0x4a, 0x00,
   0x00, 0x00, 0xc0, 0x01, 0x00, 0x00, 0x00, 0x28, 0xfa, 0x00, 0x00, 0xb0,
   0x40, 0x2b, 0xd6, 0x97, 0x14, 0x00, 0x00, 0x00, 0x04, 0x03, 0x00, 0x00,
   0x00, 0x00, 0x00, 0x00, 0x00, 0x00, 0xa0, 0x9a, 0x02, 0x00, 0x00, 0xe0,
   0x00, 0x00, 0x00, 0x00, 0x58, 0xf2, 0x00, 0x00, 0x0c, 0xea, 0x81, 0xf6,
   0x45, 0x0b, 0x00, 0x00, 0x00, 0x04, 0x01, 0x00, 0x00, 0x00, 0x00, 0x00,
   0x00, 0x28, 0x00, 0x80, 0xb6, 0x02, 0x00, 0x00, 0xe0, 0x00, 0x00, 0x00,
   0x00, 0x08, 0xf4, 0x00, 0x00, 0x75, 0xf2, 0x05, 0xb2, 0xaf, 0x0a, 0x00,
   0x00, 0x00, 0x0c, 0x01, 0x00, 0x00, 0x00, 0x00, 0x00, 0x00, 0x00, 0x00,
   0x00, 0xaa, 0x01, 0x00, 0x00, 0x80, 0x00, 0x00, 0x12, 0x00, 0x98, 0xf4,
   0x00, 0x00, 0x95, 0xdc, 0x50, 0xf9, 0x55, 0x15, 0x00, 0x00, 0x00, 0x04,
   0x11, 0x00, 0x00, 0x00, 0x00, 0x00, 0x00, 0x40, 0x00, 0x00, 0xd4, 0x02,
   0x00, 0x00, 0xc0, 0x00, 0x00, 0x04, 0x00, 0x00, 0x7d, 0x00, 0x00, 0xb5,
   0xd2, 0x42, 0xa2, 0x5f, 0x0b, 0x00, 0x00, 0x00, 0x8c, 0x17, 0x00, 0x00,
   0x00, 0x00, 0x00, 0x00, 0x80, 0x00, 0x00, 0x50, 0x03, 0x00, 0x00, 0x80,
   0x00, 0x80, 0x04, 0x00, 0x40, 0xff, 0x00, 0x80, 0x1b, 0x3d, 0x08, 0xdc,
   0x9b, 0x0a, 0x00, 0x00, 0x00, 0x0a, 0x1f, 0x00, 0x00, 0x00, 0x00, 0x00,
   0x00, 0x00, 0x01, 0x00, 0xa0, 0x04, 0x00, 0x00, 0x00, 0x00, 0x00, 0x00,
   0x48, 0x95, 0xbe, 0x00, 0x00, 0x50, 0x71, 0x81, 0xb0, 0x77, 0x0a, 0x00,
   0x00, 0x00, 0x9a, 0x3f, 0x00, 0x00, 0x00, 0x00, 0x00, 0x00, 0x00, 0x02,
   0x00, 0x00, 0x0b, 0x00, 0x00, 0x00, 0x00, 0x00, 0x00, 0x08, 0x10, 0xff,
   0x00, 0x80, 0x34, 0x7d, 0x24, 0xda, 0xad, 0x05, 0x00, 0x00, 0x00, 0x16,
   0x1f, 0x00, 0x00, 0x00, 0x00, 0x00, 0x00, 0x00, 0x04, 0x00, 0xa0, 0x14,
   0x00, 0x00, 0x00, 0x00, 0x00, 0x00, 0x01, 0x40, 0xbf, 0x00, 0x00, 0x24,
   0xb5, 0x40, 0x94, 0xaf, 0x0a, 0x00, 0x00, 0x00, 0xac, 0x2f, 0x00, 0x00,
   0x00, 0x00, 0x00, 0x00, 0x00, 0x14, 0x00, 0x00, 0x25, 0x00, 0x00, 0x00,
   0x00, 0x01, 0x00, 0x05, 0x80, 0xbf, 0x00, 0x00, 0x58, 0x3e, 0x12, 0xad,
   0x6b, 0x05, 0x00, 0x00, 0x00, 0x5a, 0x9f, 0x00, 0x00, 0x00, 0x00, 0x00,
   0x00, 0x00, 0x10, 0x00, 0x00, 0x48, 0x00, 0x00, 0x00, 0x00, 0x00, 0x50,
   0x01, 0xe8, 0xff, 0x00, 0x00, 0x18, 0x7c, 0x20, 0x98, 0xaf, 0x04, 0x00,
   0x00, 0x00, 0x56, 0x17, 0x01, 0x00, 0x00, 0x00, 0x00, 0x00, 0x00, 0x50,
   0x00, 0x00, 0x48, 0x09, 0x00, 0x00, 0x20, 0x00, 0x00, 0x01, 0xc8, 0x57,
   0x00, 0x00, 0x46, 0x1f, 0x02, 0xc6, 0x57, 0x01, 0x00, 0x00, 0x00, 0xac,
   0x2e, 0x04, 0x00, 0x00, 0x00, 0x00, 0x00, 0x00, 0xa0, 0x00, 0x00, 0x20,
   0xa2, 0x00, 0x00, 0x50, 0x00, 0x20, 0x00, 0xf2, 0xaf, 0x00, 0x00, 0x8f,
   0x5e, 0x44, 0x0c, 0x5f, 0x05, 0x00, 0x00, 0x00, 0x78, 0xad, 0x00, 0x00,
   0x00, 0x00, 0x00, 0x00, 0x00, 0x20, 0x03, 0x00, 0x40, 0x12, 0x00, 0x00,
   0x14, 0x00, 0x80, 0x80, 0xfa, 0x5b, 0x00, 0x20, 0xa7, 0x15, 0x10, 0x47,
   0xaf, 0x02, 0x00, 0x00, 0x00, 0x54, 0x3d, 0x00, 0x00, 0x00, 0x00, 0x00,
   0x00, 0x00, 0x40, 0x0a, 0x00, 0x00, 0xa4, 0x00, 0x00, 0x14, 0x00, 0x20,
   0x00, 0xfd, 0xb5, 0x00, 0x70, 0x4f, 0x1d, 0x20, 0x0c, 0x9e, 0x0a, 0x00,
   0x00, 0x00, 0xa8, 0xe2, 0x00, 0x00, 0x00, 0x00, 0x00, 0x00, 0x00, 0xc0,
   0x14, 0x00, 0x00, 0x28, 0x00, 0x00, 0x10, 0x02, 0x00, 0xa0, 0xfe, 0xef,
   0x00, 0xd0, 0x57, 0x5d, 0x00, 0x03, 0xbf, 0x04, 0x00, 0x00, 0x00, 0xa8,
   0x1c, 0x00, 0x00, 0x00, 0x00, 0x00, 0x00, 0x00, 0x40, 0x25, 0x00, 0x00,
   0x50, 0x01, 0x00, 0x40, 0x1f, 0x10, 0xc0, 0x5f, 0xb4, 0x00, 0x90, 0x57,
   0x1f, 0x00, 0x23, 0xba, 0x08, 0x00, 0x00, 0x00, 0x90, 0x10, 0x00, 0x00,
   0x00, 0x00, 0x00, 0x00, 0x00, 0x40, 0xa9, 0x00, 0x00, 0x80, 0x02, 0x00,
   0x80, 0xde, 0x10, 0xc0, 0xd7, 0xef, 0x00, 0x50, 0x2a, 0x05, 0x20, 0x01,
   0xda, 0x22, 0x00, 0x00, 0x00, 0x40, 0x00, 0x00, 0x00, 0x00, 0x00, 0x00,
   0x00, 0x00, 0x00, 0x25, 0x01, 0x80, 0x20, 0x01, 0x00, 0xa4, 0xe8, 0xdf,
   0xff, 0xaf, 0xba, 0x00, 0x88, 0x50, 0x0f, 0x01, 0x03, 0x5a, 0x05, 0x00,
   0x00, 0x00, 0x00, 0x01, 0x00, 0x00, 0x00, 0x00, 0x00, 0x10, 0x00, 0x00,
   0x55, 0x02, 0x08, 0x40, 0x02, 0x00, 0x40, 0xc1, 0xfd, 0xff, 0x59, 0xab,
   0x00, 0x20, 0x96, 0x0a, 0x00, 0x81, 0x74, 0x01, 0x00, 0x00, 0x00, 0x00,
   0x00, 0x00, 0x00, 0x00, 0x00, 0x00, 0x20, 0x00, 0x40, 0x55, 0x01, 0x80,
   0x02, 0x01, 0x00, 0x00, 0x00, 0xe8, 0x5f, 0xbf, 0x4b, 0x00, 0x88, 0x24,
   0x17, 0x00, 0x01, 0xa8, 0x17, 0x00, 0x00, 0x00, 0x00, 0x00, 0x00, 0x00,
   0x50, 0x00, 0x00, 0x40, 0x00, 0x00, 0x92, 0x14, 0x00, 0x28, 0x02, 0x00,
   0x00, 0x00, 0x01, 0xe8, 0x7f, 0x05, 0x00, 0x50, 0xa0, 0x09, 0x82, 0x80,
   0x7a, 0x04, 0x00, 0x00, 0x00, 0x00, 0x00, 0x00, 0x00, 0x00, 0x00, 0x00,
   0x90, 0x00, 0x00, 0x55, 0x49, 0x20, 0x80, 0x04, 0x00, 0x00, 0x80, 0xfd,
   0xfb, 0xff, 0x02, 0x00, 0xa0, 0xd5, 0x23, 0x84, 0x01, 0xc1, 0x2a, 0x00,
   0x00, 0x00, 0x00, 0x00, 0x00, 0x00, 0x40, 0x00, 0x00, 0x20, 0x00, 0x00,
   0x4a, 0x92, 0x00, 0x08, 0x00, 0x00, 0x00, 0x00, 0x28, 0xe0, 0xdf, 0x16,
   0x00, 0x20, 0xd4, 0x0b, 0xa9, 0x21, 0xb5, 0x85, 0x00, 0x00, 0x00, 0x00,
   0x00, 0x00, 0x00, 0x20, 0x00, 0x04, 0xa0, 0x00, 0x10, 0x55, 0x25, 0x82,
   0xa0, 0x0a, 0x00, 0x00, 0x00, 0x85, 0x96, 0x7f, 0x25, 0x00, 0xa0, 0xf4,
   0x0b, 0x5a, 0x53, 0x4d, 0x2a, 0x00, 0x00, 0x00, 0x00, 0x00, 0x00, 0x00,
   0x80, 0x00, 0x00, 0x40, 0x00, 0x00, 0x49, 0xa9, 0x00, 0x01, 0x00, 0x00,
   0x00, 0x00, 0x00, 0xfd, 0xf3, 0x2d, 0x00, 0x40, 0x39, 0x45, 0xab, 0x52,
   0xb5, 0xa2, 0x00, 0x00, 0x00, 0x00, 0x00, 0x00, 0x00, 0x40, 0x09, 0x04,
   0xa8, 0x00, 0x00, 0x94, 0x42, 0x22, 0x84, 0x02, 0x00, 0x00, 0x00, 0x54,
   0x05, 0x6e, 0x11, 0x00, 0x28, 0xaa, 0x0f, 0xb6, 0xab, 0xaa, 0x8a, 0x00,
   0x00, 0x00, 0x00, 0x00, 0x00, 0x00, 0x00, 0x21, 0x0a, 0x40, 0x00, 0x02,
   0xa9, 0x4c, 0x04, 0x10, 0x04, 0x00, 0x00, 0x00, 0x00, 0xd4, 0xfa, 0x02,
   0x00, 0xa0, 0x25, 0x5b, 0x6d, 0x57, 0x15, 0x01, 0x00, 0x00, 0x00, 0x00,
   0x00, 0x00, 0x00, 0xa0, 0x00, 0x05, 0xa8, 0x00, 0x10, 0x4a, 0x91, 0x80,
   0x00, 0x00, 0x00, 0x00, 0xa0, 0x80, 0x20, 0xf3, 0x21, 0x00, 0x10, 0x55,
   0xdb, 0xda, 0x54, 0x00, 0x00, 0x00, 0x00, 0x00, 0x00, 0x00, 0x00, 0x00,
   0x00, 0x24, 0x0a, 0x90, 0x00, 0x00, 0xa8, 0x26, 0x0a, 0x20, 0x01, 0x00,
   0x00, 0x00, 0x02, 0x8a, 0xf6, 0x03, 0x00, 0x10, 0xa4, 0xb7, 0xb7, 0x0a,
   0x01, 0x02, 0x00, 0x00, 0x00, 0x00, 0x00, 0x00, 0x00, 0x50, 0x41, 0x05,
   0x52, 0x00, 0x40, 0x95, 0x88, 0x20, 0x00, 0x00, 0x00, 0x00, 0x00, 0x08,
   0xc0, 0xf7, 0x01, 0x00, 0xa0, 0xa8, 0xee, 0xae, 0x20, 0x4a, 0x00, 0x00,
   0x00, 0x00, 0x00, 0x00, 0x00, 0x00, 0x20, 0x94, 0x5c, 0xa8, 0x00, 0x09,
   0x29, 0x23, 0x05, 0x42, 0x00, 0x00, 0x00, 0x00, 0x40, 0x00, 0xf7, 0x03,
   0x00, 0x28, 0x68, 0xbf, 0x15, 0x95, 0x14, 0x02, 0x00, 0x00, 0x00, 0x00,
   0x00, 0x00, 0x00, 0x88, 0x81, 0x82, 0x52, 0x01, 0x00, 0xaa, 0x44, 0x50,
   0x00, 0x00, 0x00, 0x00, 0x00, 0x00, 0x00, 0xfe, 0x07, 0x00, 0x80, 0x40,
   0x7f, 0x25, 0x05, 0x0a, 0x42, 0x03, 0x00, 0x00, 0x00, 0x00, 0x50, 0x80,
   0x28, 0x12, 0x1d, 0x2a, 0x45, 0x08, 0x22, 0x09, 0x05, 0x00, 0x00, 0x00,
   0x00, 0x00, 0x00, 0x00, 0xf0, 0x05, 0x00, 0x20, 0xb9, 0x8f, 0xd8, 0x82,
   0x43, 0xa9, 0x04, 0x00, 0x00, 0x00, 0x40, 0x0a, 0x25, 0x95, 0x48, 0x42,
   0x29, 0x00, 0x81, 0x4a, 0x4a, 0x50, 0x01, 0x00, 0x00, 0x00, 0x00, 0x00,
   0x00, 0xf8, 0x0b, 0x00, 0x20, 0xa1, 0xbf, 0x82, 0x82, 0x06, 0xd1, 0x02,
   0x00, 0x00, 0x00, 0x94, 0xa8, 0xa4, 0x10, 0x41, 0x5d, 0xaa, 0x0a, 0x04,
   0x94, 0x84, 0x22, 0x04, 0x00, 0x00, 0x00, 0x00, 0x00, 0x80, 0xe0, 0x0b,
   0x00, 0x00, 0xd6, 0x17, 0x71, 0x81, 0x41, 0x35, 0x05, 0x00, 0x00, 0x00,
   0x50, 0x25, 0x0a, 0x25, 0x09, 0x25, 0x95, 0x10, 0xa1, 0xa5, 0x12, 0x89,
   0x00, 0x00, 0x00, 0x00, 0x00, 0x00, 0x00, 0xc0, 0x44, 0x00, 0xd0, 0xa8,
   0x27, 0xa0, 0x80, 0x43, 0x71, 0x07, 0x00, 0x00, 0x00, 0x94, 0xaa, 0x50,
   0x2a, 0x20, 0x4a, 0x92, 0x22, 0x80, 0x94, 0x20, 0xa2, 0x02, 0x00, 0x10,
   0x00, 0x00, 0x00, 0xd0, 0x97, 0x0a, 0x00, 0x40, 0xd5, 0x03, 0x70, 0xc0,
   0x50, 0xee, 0x02, 0x00, 0x00, 0x00, 0x55, 0x92, 0xa4, 0x84, 0x80, 0x5a,
   0x05, 0x85, 0x82, 0x22, 0x4a, 0x09, 0x00, 0x00, 0x40, 0x00, 0x00, 0x00,
   0xd4, 0x3f, 0x41, 0x00, 0x50, 0xea, 0x07, 0xc0, 0xc0, 0xd1, 0xec, 0x02,
   0x00, 0x00, 0x40, 0x55, 0x90, 0x84, 0xaa, 0x14, 0xaa, 0x54, 0x12, 0x40,
   0xa5, 0x08, 0x52, 0x05, 0x00, 0x08, 0x00, 0x00, 0x00, 0xc2, 0x77, 0x00,
   0x00, 0x60, 0xb5, 0x02, 0x50, 0xe0, 0x71, 0xf5, 0x01, 0x00, 0x00, 0xa0,
   0x4a, 0x00, 0x50, 0x04, 0x40, 0x5e, 0x82, 0x48, 0x41, 0x09, 0xa2, 0x24,
   0x00, 0x00, 0x00, 0x00, 0x00, 0x00, 0xe5, 0xff, 0x00, 0x00, 0xd0, 0xb5,
   0x05, 0x50, 0xa0, 0x71, 0xbd, 0x01, 0x00, 0x00, 0x60, 0x95, 0x83, 0x80,
   0x24, 0x80, 0x4c, 0x94, 0x00, 0x48, 0x45, 0x84, 0xa4, 0x2a, 0x01, 0x80,
   0x00, 0x00, 0x20, 0x84, 0xff, 0x00, 0x00, 0x50, 0x4f, 0x01, 0x50, 0x60,
   0xe9, 0xf7, 0x01, 0x00, 0x00, 0xb0, 0xea, 0x00, 0x02, 0x00, 0x09, 0x15,
   0x01, 0x55, 0x61, 0x09, 0x31, 0x10, 0x91, 0x00, 0xe0, 0x02, 0x00, 0xc0,
   0x88, 0xff, 0x01, 0x00, 0x80, 0x4a, 0x0b, 0xd0, 0xd0, 0x79, 0x7e, 0x01,
   0x00, 0x00, 0xb0, 0xc2, 0x09, 0x48, 0x02, 0x20, 0x2a, 0x50, 0x00, 0x40,
   0x51, 0x82, 0x22, 0x15, 0x00, 0x00, 0x01, 0x00, 0x80, 0xf2, 0xff, 0x01,
   0x00, 0x00, 0x52, 0x21, 0x20, 0xd8, 0xb5, 0xef, 0x02, 0x00, 0x00, 0xd0,
   0xf8, 0x00, 0x00, 0x88, 0x80, 0x02, 0x8a, 0x22, 0x68, 0x25, 0x35, 0x48,
   0x40, 0x01, 0x00, 0x08, 0x00, 0x00, 0xea, 0xff, 0x01, 0x00, 0x00, 0x47,
   0x03, 0x60, 0x51, 0xfd, 0xdf, 0x01, 0x00, 0x00, 0x50, 0x7b, 0x05, 0x00,
   0x11, 0x04, 0x02, 0x00, 0x84, 0x50, 0x49, 0xa0, 0x4a, 0x15, 0x00, 0x00,
   0x12, 0x00, 0x00, 0xf4, 0xff, 0x03, 0x00, 0xc0, 0x53, 0x55, 0xa0, 0xd8,
   0x75, 0x7f, 0x01, 0x00, 0x00, 0xb8, 0x5c, 0x20, 0x00, 0x00, 0x91, 0x82,
   0xa4, 0x10, 0x50, 0x22, 0x05, 0x00, 0x20, 0x00, 0x00, 0x40, 0x81, 0x00,
   0xf0, 0x7f, 0x01, 0x00, 0x40, 0xa3, 0x43, 0xa2, 0xd8, 0xfd, 0x76, 0x01,
   0x00, 0x00, 0xb0, 0xed, 0x00, 0x00, 0x22, 0x00, 0x08, 0x04, 0x22, 0xd9,
   0x46, 0xaa, 0x52, 0x25, 0x00, 0x70, 0x29, 0x8a, 0x82, 0xe0, 0xff, 0x00,
   0x00, 0xf0, 0x4b, 0x25, 0x40, 0xd2, 0xfe, 0x7f, 0x02, 0x00, 0x00, 0x68,
   0xce, 0x81, 0x00, 0x00, 0x90, 0x00, 0x91, 0x00, 0x54, 0x29, 0x41, 0x04,
   0x02, 0x00, 0x88, 0xa0, 0x04, 0x02, 0xd0, 0x7f, 0x01, 0x00, 0xf0, 0xc3,
   0xa5, 0x80, 0xb4, 0xfd, 0xf7, 0x04, 0x00, 0x00, 0xd0, 0xfe, 0x05, 0x00,
   0x24, 0x01, 0x21, 0x10, 0x25, 0x5c, 0x45, 0x8a, 0xa8, 0x28, 0x00, 0x10,
   0x2e, 0x51, 0x04, 0xd0, 0xff, 0x00, 0x00, 0xf0, 0xab, 0x4b, 0xc2, 0xd8,
   0xde, 0x5d, 0x00, 0x00, 0x00, 0xb4, 0xfc, 0x01, 0x00, 0x00, 0x40, 0x04,
   0x41, 0x80, 0xa4, 0x2a, 0x29, 0x25, 0x01, 0x00, 0x44, 0x49, 0x04, 0x00,
   0x78, 0xbf, 0x00, 0x00, 0xd0, 0x67, 0x4a, 0x84, 0xf2, 0xfb, 0xbf, 0x0a,
   0x00, 0x00, 0xb0, 0xfe, 0xab, 0x00, 0x20, 0x0a, 0x08, 0x00, 0x15, 0x5d,
   0x49, 0x22, 0x44, 0x00, 0x00, 0x07, 0x82, 0x28, 0x14, 0x78, 0xbf, 0x00,
   0x00, 0x00, 0x59, 0xa5, 0xc0, 0x7c, 0xff, 0x5b, 0x20, 0x00, 0x00, 0x52,
   0xfd, 0x00, 0x00, 0x80, 0x00, 0x00, 0x29, 0x00, 0xab, 0x52, 0x49, 0x29,
   0x00, 0x80, 0x00, 0x10, 0x50, 0x80, 0xfe, 0x5f, 0x00, 0x00, 0x20, 0x69,
   0x4a, 0x89, 0x69, 0x6b, 0x3f, 0x09, 0x00, 0x00, 0xb0, 0xbe, 0x8a, 0x00,
   0x00, 0xa0, 0x10, 0x80, 0x24, 0x5b, 0x25, 0x95, 0x2a, 0x00, 0x20, 0x00,
   0x00, 0xc2, 0x25, 0xfc, 0xef, 0x00, 0x00, 0x00, 0x54, 0x45, 0x84, 0xfb,
   0xff, 0x95, 0x40, 0x02, 0x48, 0xa8, 0xfe, 0x50, 0x00, 0x44, 0x09, 0x84,
   0x24, 0x90, 0xb6, 0x2a, 0x25, 0x15, 0x00, 0x00, 0x00, 0x40, 0x11, 0x84,
   0xfe, 0x2f, 0x00, 0x00, 0xa0, 0x20, 0x58, 0x11, 0x6b, 0xff, 0x3d, 0x84,
   0x90, 0x00, 0xa1, 0x5c, 0x45, 0x00, 0x00, 0x80, 0x00, 0x84, 0xc2, 0x57,
   0x55, 0xe9, 0x0c, 0x00, 0x00, 0x00, 0x00, 0x83, 0x18, 0xfc, 0xef, 0x00,
   0x00, 0x80, 0x8a, 0xaa, 0xc4, 0xfb, 0xbf, 0x86, 0x00, 0x02, 0x92, 0x78,
   0x3f, 0x14, 0x00, 0x08, 0x00, 0x80, 0x00, 0x60, 0xb5, 0xaa, 0x96, 0x02,
   0x00, 0x00, 0x00, 0xa0, 0x02, 0x22, 0xeb, 0x1b, 0x00, 0x00, 0x80, 0x12,
   0x32, 0x81, 0xeb, 0xff, 0x3d, 0x08, 0x24, 0x00, 0xa0, 0xbc, 0x40, 0x00,
   0x00, 0x09, 0x11, 0xa4, 0xe4, 0x6d, 0xdb, 0xb6, 0x05, 0x00, 0x00, 0x00,
   0x84, 0x0e, 0x44, 0x8a, 0xb7, 0x55, 0x00, 0x00, 0x15, 0xfc, 0x86, 0xff,
   0x2e, 0x97, 0x44, 0x00, 0x25, 0x61, 0x7d, 0x15, 0x00, 0x00, 0x20, 0x48,
   0x00, 0xd8, 0xdb, 0x6a, 0x6d, 0x02, 0x00, 0x00, 0x00, 0x2d, 0x15, 0x08,
   0xf1, 0x38, 0x02, 0x00, 0x00, 0x55, 0xe9, 0x1a, 0xeb, 0xbf, 0x96, 0x90,
   0x20, 0x20, 0x40, 0xf1, 0x12, 0x02, 0x40, 0x04, 0x80, 0x54, 0x71, 0xdb,
   0xae, 0xab, 0x00, 0x00, 0x00, 0x60, 0x51, 0x2a, 0x20, 0xe8, 0xea, 0x7a,
   0x00, 0x00, 0x94, 0xfa, 0x95, 0xf7, 0xd7, 0x2e, 0x08, 0x0a, 0x02, 0x85,
   0xf6, 0x04, 0x00, 0x11, 0x51, 0x05, 0x00, 0xde, 0xbf, 0x7b, 0x2d, 0x00,
   0x00, 0x00, 0x18, 0x8c, 0xa5, 0x00, 0xee, 0x15, 0xa1, 0x00, 0x00, 0x34,
   0xea, 0xb7, 0xff, 0xb7, 0x7d, 0x41, 0x40, 0x24, 0x10, 0xd1, 0x00, 0x08,
   0x20, 0x00, 0xa8, 0x2a, 0xfa, 0x6a, 0x57, 0x6b, 0x00, 0x00, 0x00, 0xb8,
   0xa8, 0xce, 0xd7, 0xff, 0x7f, 0x4f, 0x00, 0x00, 0xd0, 0xba, 0xab, 0xfb,
   0xeb, 0xab, 0x12, 0x0a, 0x80, 0x44, 0xd6, 0x82, 0x00, 0x08, 0x55, 0x02,
   0x88, 0xdf, 0xff, 0xbd, 0x14, 0x00, 0x00, 0x00, 0x7c, 0xa0, 0x90, 0xff,
   0xff, 0xff, 0xff, 0x00, 0x00, 0x50, 0x35, 0x6f, 0xf7, 0x5b, 0x7f, 0x45,
   0x20, 0x02, 0x00, 0x54, 0x12, 0x80, 0x48, 0x00, 0x50, 0x21, 0xbd, 0xdf,
   0xab, 0x20, 0x00, 0x00, 0x00, 0x58, 0xa0, 0x55, 0xfe, 0xff, 0xbf, 0xff,
   0x00, 0x00, 0xd0, 0x7d, 0xff, 0xff, 0xee, 0x97, 0x12, 0x09, 0x48, 0x4a,
   0x48, 0x00, 0x00, 0x00, 0x55, 0x05, 0xca, 0xef, 0x7a, 0x9f, 0x1e, 0x00,
   0x00, 0x00, 0x0b, 0x50, 0xf2, 0xed, 0xff, 0xd7, 0xb7, 0x00, 0x00, 0xa0,
   0x5f, 0xee, 0xff, 0x5b, 0xff, 0x0a, 0xa0, 0x00, 0x88, 0x31, 0x01, 0x00,
   0x12, 0x01, 0xa8, 0xe8, 0xff, 0xef, 0xaa, 0x31, 0x00, 0x00, 0x00, 0x03,
   0xa0, 0xe0, 0xff, 0xff, 0x10, 0x40, 0x00, 0x00, 0xe0, 0xbf, 0xff, 0xbf,
   0xfe, 0xaf, 0xb5, 0x0a, 0x0a, 0x10, 0x44, 0x80, 0x40, 0x00, 0x4a, 0x00,
   0xf9, 0xea, 0x5e, 0x2b, 0x0c, 0x00, 0x00, 0x40, 0x00, 0x00, 0xd4, 0xfb,
   0x7f, 0x82, 0x88, 0x00, 0x00, 0x40, 0x7d, 0xfe, 0xff, 0xb6, 0x5f, 0x4f,
   0xa0, 0x90, 0x20, 0x14, 0x00, 0x00, 0x55, 0x80, 0x2a, 0xfa, 0xdd, 0xb5,
   0xaa, 0x04, 0x00, 0x00, 0x00, 0x00, 0x20, 0xe5, 0xfd, 0xff, 0x08, 0x10,
   0x00, 0x00, 0xc0, 0xb7, 0xfe, 0xff, 0xdf, 0xf7, 0x5a, 0x5f, 0x23, 0x4a,
   0x01, 0x00, 0x40, 0x80, 0x52, 0x41, 0xff, 0x7f, 0xab, 0x26, 0x00, 0x00,
   0x00, 0x00, 0x00, 0x20, 0xd7, 0xff, 0xbf, 0x42, 0x02, 0x00, 0x00, 0x80,
   0x7f, 0xfc, 0xff, 0xfd, 0xaf, 0xf5, 0xf5, 0x27, 0x40, 0x88, 0x00, 0x08,
   0x29, 0x02, 0x94, 0xbf, 0x7b, 0xab, 0x04, 0x06, 0x00, 0x00, 0x00, 0x00,
   0x4c, 0x80, 0xff, 0xbf, 0x0a, 0x20, 0x00, 0x00, 0x00, 0xb7, 0xfd, 0xff,
   0xff, 0x7f, 0x6f, 0x5b, 0x95, 0x8a, 0x02, 0x00, 0xa0, 0x82, 0x54, 0xf5,
   0xff, 0xdf, 0x16, 0x90, 0x00, 0x00, 0x04, 0x00, 0x00, 0x06, 0x00, 0xfe,
   0xaf, 0x22, 0x00, 0x00, 0x00, 0x00, 0xfe, 0xfa, 0xff, 0xff, 0xf5, 0xfa,
   0xf7, 0xf7, 0x00, 0x00, 0x00, 0x01, 0x12, 0x90, 0xfe, 0xff, 0xbf, 0xb5,
   0x80, 0x05, 0x81, 0x00, 0x00, 0x00, 0x0e, 0x04, 0xfc, 0x4f, 0x8d, 0x12,
   0x00, 0x00, 0x00, 0x78, 0xfd, 0xff, 0xff, 0xbf, 0xdf, 0xae, 0x5a, 0x2b,
   0x04, 0x00, 0x28, 0x48, 0xf5, 0xff, 0xff, 0x5f, 0x2d, 0x55, 0xe5, 0x01,
   0x00, 0x00, 0x40, 0xaa, 0x3f, 0xfd, 0x5b, 0x25, 0xa5, 0x00, 0x00, 0x00,
   0xe0, 0xf9, 0xff, 0xff, 0xfe, 0xfd, 0xfa, 0xff, 0xae, 0x00, 0x05, 0x40,
   0x49, 0xff, 0xff, 0xff, 0xff, 0x7f, 0xd0, 0xff, 0x00, 0x00, 0x80, 0x40,
   0xc8, 0xff, 0xff, 0x57, 0x5d, 0xbf, 0x00, 0x00, 0x00, 0xe0, 0xfb, 0xff,
   0xff, 0xff, 0xff, 0xff, 0xea, 0x5b, 0x14, 0x40, 0x15, 0xe9, 0xff, 0xff,
   0xff, 0x7f, 0xff, 0x55, 0x08, 0x40, 0x00, 0x00, 0x00, 0xab, 0xff, 0xff,
   0xed, 0xab, 0xea, 0x00, 0x00, 0x00, 0x80, 0xfb, 0xff, 0xff, 0xff, 0xdf,
   0xfa, 0x7f, 0xff, 0x05, 0x00, 0x00, 0xfd, 0xff, 0xff, 0xff, 0xff, 0x3f,
   0x00, 0x10, 0x20, 0x00, 0x00, 0x20, 0x7a, 0xff, 0xff, 0x4d, 0x57, 0xaf,
   0x00, 0x00, 0x00, 0xc0, 0xff, 0xff, 0xff, 0xff, 0xff, 0xff, 0xee, 0xfb,
   0x97, 0x94, 0xf4, 0xff, 0xff, 0xff, 0xff, 0xff, 0x9f, 0x00, 0x00, 0x00,
   0x00, 0x40, 0x00, 0xb5, 0xfd, 0xff, 0xf7, 0xb5, 0x5a, 0x00, 0x00, 0x00,
   0x40, 0xff, 0xff, 0xff, 0xff, 0xdf, 0xff, 0xff, 0xff, 0x7f, 0xa9, 0xee,
   0xff, 0xff, 0xff, 0xff, 0xff, 0x17, 0x00, 0x02, 0x18, 0x00, 0x50, 0x04,
   0xbf, 0xff, 0xff, 0xff, 0xee, 0xfa, 0x00, 0x00, 0x00, 0x80, 0xf9, 0xff,
   0xff, 0xff, 0xff, 0xff, 0xff, 0xff, 0xdf, 0xff, 0xff, 0xff, 0xff, 0xff,
   0xff, 0xff, 0xa7, 0x80, 0x00, 0x08, 0x00, 0x00, 0x80, 0xf3, 0xff, 0xe3,
   0xdb, 0xb9, 0xae, 0x00, 0x00, 0x00, 0x80, 0xf0, 0xff, 0xff, 0xff, 0xff,
   0xff, 0xff, 0xfb, 0xfd, 0xff, 0xff, 0xff, 0xff, 0xff, 0xff, 0xff, 0x57,
   0x02, 0x00, 0x06, 0x00, 0x40, 0x40, 0xe7, 0xff, 0xab, 0x7f, 0xd0, 0xbd,
   0x00, 0x00, 0x00, 0x00, 0xf0, 0xfb, 0xff, 0xff, 0xff, 0xf7, 0xff, 0xbf,
   0xff, 0xff, 0xb7, 0xd7, 0xfd, 0xff, 0xff, 0xff, 0x37, 0x15, 0x00, 0x02,
   0x00, 0x28, 0xa0, 0xc3, 0xff, 0xd7, 0x6a, 0x69, 0x75, 0x00, 0x00, 0x00,
   0x00, 0xf0, 0xff, 0xff, 0xff, 0xff, 0xff, 0xff, 0xff, 0xff, 0xbf, 0xfd,
   0xbf, 0xff, 0xeb, 0xff, 0xff, 0xd7, 0x1e, 0x00, 0x00, 0x00, 0x80, 0x20,
   0x0a, 0xff, 0x7f, 0x2d, 0xc7, 0x6e, 0x00, 0x00, 0x00, 0x00, 0xf4, 0xff,
   0xff, 0xff, 0xff, 0xff, 0xff, 0xff, 0xff, 0xff, 0xd6, 0xbf, 0xfe, 0xbf,
   0xff, 0xff, 0xbf, 0x34, 0x40, 0x07, 0x04, 0x2a, 0x80, 0x00, 0xfc, 0xff,
   0x4b, 0x71, 0x1b, 0x00, 0x00, 0x00, 0x00, 0xbc, 0xff, 0xff, 0xff, 0xff,
   0xff, 0xff, 0xff, 0xef, 0xff, 0xff, 0xbe, 0xfd, 0x76, 0xbf, 0xff, 0xb7,
   0xff, 0x6a, 0x35, 0x04, 0x00, 0x00, 0x24, 0xf0, 0xfa, 0x3f, 0xea, 0x16,
   0x00, 0x00, 0x00, 0x00, 0xf8, 0xff, 0xff, 0xff, 0xff, 0xff, 0xff, 0xff,
   0xdf, 0xff, 0xaa, 0x7f, 0xfb, 0xef, 0xef, 0xfe, 0xff, 0x7f, 0x8f, 0x00,
   0x01, 0x00, 0x80, 0x50, 0x10, 0x7d, 0xf7, 0xbf, 0x0d, 0x00, 0x00, 0x00,
   0x00, 0xc0, 0xff, 0xff, 0xff, 0xff, 0xff, 0xff, 0xff, 0xbf, 0xff, 0x7d,
   0x7b, 0xfd, 0xbe, 0xde, 0xfb, 0xff, 0xff, 0x14, 0x00, 0x00, 0x00, 0x00,
   0x85, 0xfb, 0xff, 0xfd, 0xaa, 0x02, 0x00, 0x00, 0x00, 0x00, 0x00, 0xff,
   0xff, 0xff, 0xff, 0xff, 0xff, 0x77, 0xef, 0xff, 0xf7, 0xfd, 0xfd, 0xef,
   0x7f, 0xff, 0xff, 0xbf, 0x09, 0x22, 0x00, 0x00, 0x00, 0x74, 0x75, 0xbf,
   0x57, 0xdb, 0x01, 0x00, 0x00, 0x00, 0x00, 0x00, 0xfe, 0xff, 0xff, 0xff,
   0xff, 0xff, 0xef, 0xbf, 0xff, 0xdf, 0xbf, 0x7f, 0xbd, 0xfd, 0xf6, 0xef,
   0xff, 0xeb, 0x4c, 0x10, 0x00, 0x88, 0x7c, 0xf5, 0x77, 0xf5, 0x5a, 0x03,
   0x00, 0x00, 0x00, 0x00, 0x00, 0xfc, 0xff, 0xff, 0xff, 0xff, 0xff, 0xbf,
   0xfe, 0xff, 0xbf, 0xf5, 0xfd, 0x7f, 0xd7, 0xff, 0x3f, 0xa9, 0xbd, 0x13,
   0x75, 0x87, 0x77, 0x49, 0xfe, 0xde, 0xae, 0xb6, 0x01, 0x00, 0x00, 0x00,
   0x00, 0x00, 0xf0, 0xff, 0xff, 0xaf, 0xff, 0xff, 0xf7, 0xed, 0xdf, 0xff,
   0xff, 0xff, 0xff, 0x7f, 0xed, 0x5f, 0xa0, 0xeb, 0x56, 0x4f, 0x75, 0xc5,
   0xeb, 0xad, 0xb5, 0xda, 0x6a, 0x01, 0x00, 0x00, 0x00, 0x00, 0x00, 0x00,
   0xfe, 0xff, 0xff, 0xfe, 0xfe, 0xaf, 0xfb, 0xff, 0xff, 0xf7, 0xff, 0xff,
   0xdf, 0xfb, 0x17, 0x00, 0x00, 0xef, 0xed, 0xdf, 0xb3, 0xba, 0xdb, 0xad,
   0x6a, 0x57, 0x01, 0x00, 0x00, 0x00, 0x00, 0x00, 0x00, 0xfc, 0xff, 0xdf,
   0xff, 0xff, 0x7f, 0xf7, 0xd7, 0xff, 0xff, 0xff, 0xff, 0x5f, 0xb7, 0x7f,
   0x09, 0xfe, 0x91, 0xfa, 0xbf, 0x72, 0x6b, 0xbb, 0xfa, 0xaf, 0x7a, 0x00,
   0x00, 0x00, 0x00, 0x00, 0x00, 0x00, 0xf8, 0xff, 0x7f, 0xfd, 0xfe, 0xff,
   0xfa, 0x7f, 0xff, 0xff, 0xff, 0xff, 0xbf, 0xfb, 0x4f, 0x22, 0xf5, 0x04,
   0xa4, 0x7d, 0xa8, 0xaa, 0xd7, 0xa5, 0xf6, 0x55, 0x00, 0x00, 0x00, 0x00,
   0x00, 0x00, 0x00, 0xf0, 0xff, 0xff, 0xeb, 0xf5, 0xff, 0xff, 0xff, 0xff,
   0xff, 0xbf, 0xff, 0x7f, 0x6f, 0x9f, 0x4c, 0xd0, 0x00, 0x24, 0x26, 0x90,
   0xb6, 0xba, 0xfc, 0xaf, 0x56, 0x00, 0x00, 0x00, 0x00, 0x00, 0x00, 0x00,
   0xc0, 0xff, 0xff, 0xff, 0xff, 0xff, 0xff, 0xff, 0xff, 0xff, 0xff, 0xff,
   0xbf, 0xfd, 0x27, 0x00, 0x3e, 0x00, 0x80, 0x08, 0x28, 0xf5, 0x56, 0xd1,
   0x76, 0x1d, 0x00, 0x00, 0x00, 0x00, 0x00, 0x00, 0x00, 0x80, 0xff, 0xff,
   0xff, 0xdf, 0xff, 0xff, 0xff, 0xff, 0xff, 0xff, 0xff, 0xff, 0xef, 0x0f,
   0x80, 0x2a, 0x01, 0x00, 0x00, 0x52, 0xaa, 0x6a, 0xd5, 0xdf, 0x15, 0x00,
   0x00, 0x00, 0x00, 0x00, 0x00, 0x00, 0x00, 0xc0, 0xff, 0xff, 0xff, 0xff,
   0xff, 0xff, 0xfa, 0xff, 0xff, 0xff, 0xff, 0xff, 0xab, 0xf4, 0x0b, 0x00,
   0x00, 0x80, 0x0a, 0xee, 0xaf, 0xea, 0x7d, 0x0b, 0x00, 0x00, 0x00, 0x00,
   0x00, 0x00, 0x00, 0x00, 0x80, 0xff, 0xf7, 0xff, 0xff, 0xff, 0xff, 0xff,
   0xff, 0xff, 0xff, 0xff, 0xff, 0xd7, 0xbf, 0x22, 0x00, 0x00, 0xa0, 0x8a,
   0xac, 0xba, 0xae, 0x6f, 0x05, 0x00, 0x00, 0x00, 0x00, 0x00, 0x00, 0x00,
   0x00, 0x00, 0xfc, 0xff, 0xff, 0xff, 0xff, 0xff, 0xff, 0xff, 0xff, 0xff,
   0xff, 0xff, 0xbf, 0xff, 0x2a, 0x00, 0x00, 0xa0, 0x7b, 0xb7, 0xd5, 0xfb,
   0xf5, 0x05, 0x00, 0x00, 0x00, 0x00, 0x00, 0x00, 0x00, 0x00, 0x00, 0x00,
   0xfc, 0xff, 0xff, 0xff, 0xff, 0xff, 0xff, 0xff, 0xff, 0xff, 0xff, 0xf5,
   0xff, 0x57, 0x01, 0x00, 0xb5, 0xca, 0x6c, 0x3f, 0xdf, 0x5d, 0x01, 0x00,
   0x00, 0x00, 0x00, 0x00, 0x00, 0x00, 0x00, 0x00, 0x00, 0xf0, 0xe7, 0xff,
   0xff, 0xff, 0xff, 0xff, 0xff, 0xef, 0xff, 0xff, 0xff, 0xdf, 0x5f, 0x02,
   0xe0, 0x54, 0x01, 0xf5, 0xe9, 0x7e, 0xab, 0x00, 0x00, 0x00, 0x00, 0x00,
   0x00, 0x00, 0x00, 0x00, 0x00, 0x00, 0x00, 0x00, 0xfe, 0xff, 0xff, 0xff,
   0xff, 0xff, 0xdd, 0xff, 0xff, 0xbf, 0x9f, 0xff, 0x55, 0x94, 0xaa, 0x54,
   0x5f, 0x9b, 0xed, 0x13, 0x00, 0x00, 0x00, 0x00, 0x00, 0x00, 0x00, 0x00,
   0x00, 0x00, 0x00, 0x00, 0x00, 0xf8, 0xff, 0x7f, 0xff, 0xff, 0xff, 0x7f,
   0xff, 0xef, 0x17, 0x9c, 0xff, 0x55, 0x29, 0x15, 0xaa, 0x20, 0x75, 0xbf,
   0x06, 0x00, 0x00, 0x00, 0x00, 0x00, 0x00, 0x00, 0x00, 0x00, 0x00, 0x00,
   0x00, 0x00, 0x00, 0xff, 0xdf, 0xfc, 0xff, 0xff, 0xef, 0xff, 0x7e, 0x65,
   0x31, 0x2d, 0x49, 0xfd, 0x42, 0x09, 0x45, 0x55, 0x75, 0x0d, 0x00, 0x00,
   0x00, 0x00, 0x00, 0x00, 0x00, 0x00, 0x00, 0x00, 0x00, 0x00, 0x00, 0x00,
   0xfc, 0x74, 0xff, 0xff, 0xff, 0xff, 0xfe, 0xdf, 0xff, 0xa5, 0x9f, 0x04,
   0x15, 0x30, 0x00, 0xb0, 0xd5, 0xef, 0x06, 0x00, 0x00, 0x00, 0x00, 0x00,
   0x00, 0x00, 0x00, 0x00, 0x00, 0x00, 0x00, 0x00, 0x00, 0x00, 0xe0, 0xfb,
   0xaa, 0xff, 0xdf, 0xeb, 0x7a, 0xbf, 0x17, 0xf4, 0x5d, 0xf4, 0xb7, 0x92,
   0x66, 0x75, 0xad, 0x01, 0x00, 0x00, 0x00, 0x00, 0x00, 0x00, 0x00, 0x00,
   0x00, 0x00, 0x00, 0x00, 0x00, 0x00, 0x00, 0x00, 0x07, 0xf8, 0xfe, 0x7b,
   0xff, 0xfd, 0xff, 0xaf, 0xea, 0xcf, 0x45, 0x1f, 0x80, 0x5c, 0xdb, 0xb7,
   0x00, 0x00, 0x00, 0x00, 0x00, 0x00, 0x00, 0x00, 0x00, 0x00, 0x00, 0x00,
   0x00, 0x00, 0x00, 0x00, 0x00, 0x00, 0xa0, 0xd3, 0x00, 0xd4, 0xf5, 0xdf,
   0xae, 0x82, 0x82, 0x1d, 0xa0, 0x56, 0x6b, 0xfd, 0x76, 0x00, 0x00, 0x00,
   0x00, 0x00, 0x00, 0x00, 0x00, 0x00, 0x00, 0x00, 0x00, 0x00, 0x00, 0x00,
   0x00, 0x00, 0x00, 0x00, 0x00, 0x00, 0x7c, 0xe5, 0xdf, 0xfa, 0x9f, 0xd0,
   0x57, 0x00, 0xa8, 0xda, 0x56, 0x2d, 0x00, 0x00, 0x00, 0x00, 0x00, 0x00,
   0x00, 0x00, 0x00, 0x00, 0x00, 0x00, 0x00, 0x00, 0x00, 0x00, 0x00, 0x00,
   0x00, 0x00, 0x00, 0xd0, 0x15, 0xbd, 0x01, 0x29, 0x10, 0x2f, 0x00, 0x68,
   0xb7, 0xdb, 0x1a, 0x00, 0x00, 0x00, 0x00, 0x00, 0x00, 0x00, 0x00, 0x00,
   0x00, 0x00, 0x00, 0x00, 0x00, 0x00, 0x00, 0x00, 0x00, 0x00, 0x00, 0x00,
   0x68, 0xeb, 0x42, 0x54, 0x02, 0xd8, 0x5d, 0x01, 0xcd, 0xda, 0x6a, 0x17,
   0x00, 0x00, 0x00, 0x00, 0x00, 0x00, 0x00, 0x00, 0x00, 0x00, 0x00, 0x00,
   0x00, 0x00, 0x00, 0x00, 0x00, 0x00, 0x00, 0x00, 0x00, 0x60, 0x95, 0x8d,
   0xaa, 0x04, 0x8c, 0x7b, 0x53, 0xdb, 0x5e, 0xd5, 0x06, 0x00, 0x00, 0x00,
   0x00, 0x00, 0x00, 0x00, 0x00, 0x00, 0x00, 0x00, 0x00, 0x00, 0x00, 0x00,
   0x00, 0x00, 0x00, 0x00, 0x00, 0x00, 0xc0, 0x6a, 0xbb, 0x2a, 0x95, 0x97,
   0xef, 0xae, 0x68, 0x5b, 0xad, 0x02, 0x00, 0x00, 0x00, 0x00, 0x00, 0x00,
   0x00, 0x00, 0x00, 0x00, 0x00, 0x00, 0x00, 0x00, 0x00, 0x00, 0x00, 0x00,
   0x00, 0x00, 0x00, 0x80, 0xad, 0xf2, 0xee, 0xa2, 0x00, 0xad, 0x15, 0xea,
   0x85, 0xaa, 0x00, 0x00, 0x00, 0x00, 0x00, 0x00, 0x00, 0x00, 0x00, 0x00,
   0x00, 0x00, 0x00, 0x00, 0x00, 0x00, 0x00, 0x00, 0x00, 0x00, 0x00, 0x00,
   0x00, 0x4a, 0xfd, 0xbb, 0x5e, 0xa9, 0x4e, 0xed, 0x4b, 0x50, 0x25, 0x00,
   0x00, 0x00, 0x00, 0x00, 0x00, 0x00, 0x00, 0x00, 0x00, 0x00, 0x00, 0x00,
   0x00, 0x00, 0x00, 0x00, 0x00, 0x00, 0x00, 0x00, 0x00, 0x00, 0x5a, 0xef,
   0xeb, 0x7b, 0x88, 0x4f, 0x99, 0x8a, 0xd2, 0x2a, 0x00, 0x00, 0x00, 0x00,
   0x00, 0x00, 0x00, 0x00, 0x00, 0x00, 0x00, 0x00, 0x00, 0x00, 0x00, 0x00,
   0x00, 0x00, 0x00, 0x00, 0x00, 0x00, 0x00, 0xba, 0x7d, 0xab, 0x04, 0x51,
   0x05, 0xa5, 0x92, 0x96, 0x02, 0x00, 0x00, 0x00, 0x00, 0x00, 0x00, 0x00,
   0x00, 0x00, 0x00, 0x00, 0x00, 0x00, 0x00, 0x00, 0x00, 0x00, 0x00, 0x00,
   0x00, 0x00, 0x00, 0x00, 0x68, 0xd7, 0x57, 0x95, 0x62, 0x2b, 0x4c, 0xaa,
   0x2a, 0x00, 0x00, 0x00, 0x00, 0x00, 0x00, 0x00, 0x00, 0x00, 0x00, 0x00,
   0x00, 0x00, 0x00, 0x00, 0x00, 0x00, 0x00, 0x00, 0x00, 0x00, 0x00, 0x00,
   0x00, 0xd8, 0xbd, 0x7e, 0x29, 0xb5, 0x95, 0x50, 0x50, 0x0d, 0x00, 0x00,
   0x00, 0x00, 0x00, 0x00, 0x00, 0x00, 0x00, 0x00, 0x00, 0x00, 0x00, 0x00,
   0x00, 0x00, 0x00, 0x00, 0x00, 0x00, 0x00, 0x00, 0x00, 0x00, 0x70, 0xb7,
   0x4b, 0xa5, 0xe4, 0xab, 0xa2, 0x57, 0x09, 0x00, 0x00, 0x00, 0x00, 0x00,
   0x00, 0x00, 0x00, 0x00, 0x00, 0x00, 0x00, 0x00, 0x00, 0x00, 0x00, 0x00,
   0x00, 0x00, 0x00, 0x00, 0x00, 0x00, 0x00, 0x80, 0xda, 0x5e, 0x55, 0x55,
   0x57, 0xad, 0x54, 0x15, 0x00, 0x00, 0x00, 0x00, 0x00, 0x00, 0x00, 0x00,
   0x00, 0x00, 0x00, 0x00, 0x00, 0x00, 0x00, 0x00, 0x00, 0x00, 0x00, 0x00,
   0x00, 0x00, 0x00, 0x00, 0x00, 0xdb, 0x75, 0xdb, 0xda, 0xea, 0xaa, 0xad,
   0x0a, 0x00, 0x00, 0x00, 0x00, 0x00, 0x00, 0x00, 0x00, 0x00, 0x00, 0x00,
   0x00, 0x00, 0x00, 0x00, 0x00, 0x00, 0x00, 0x00, 0x00, 0x00, 0x00, 0x00,
   0x00, 0x00, 0x6c, 0xaf, 0xb4, 0xaa, 0xad, 0xb5, 0x02, 0x00, 0x00, 0x00,
   0x00, 0x00, 0x00, 0x00, 0x00, 0x00, 0x00, 0x00, 0x00, 0x00, 0x00, 0x00,
   0x00, 0x00, 0x00, 0x00, 0x00, 0x00, 0x00, 0x00, 0x00, 0x00, 0x00, 0x50,
   0xed, 0x66, 0x6f, 0x0b, 0x55, 0x01, 0x00, 0x00, 0x00, 0x00, 0x00, 0x00 };
