#define pnj22_width 264
#define pnj22_height 176
static unsigned char pnj22_bits[] = {
   0x00, 0x00, 0x00, 0x00, 0x00, 0x00, 0x00, 0x00, 0x00, 0x00, 0x00, 0x00,
   0x00, 0x00, 0x00, 0x00, 0x00, 0x00, 0x00, 0x00, 0x00, 0x00, 0x00, 0x00,
   0x00, 0x00, 0x00, 0x24, 0xaa, 0x6a, 0x5b, 0x55, 0x55, 0x00, 0x00, 0x00,
   0x00, 0x00, 0x00, 0x00, 0x00, 0x00, 0x00, 0x00, 0x00, 0x00, 0x00, 0x00,
   0x00, 0x00, 0x00, 0x00, 0x00, 0x00, 0x00, 0x00, 0x00, 0x00, 0x00, 0xa2,
   0xa8, 0x48, 0xd5, 0xb6, 0xaa, 0xed, 0x00, 0x00, 0x00, 0x00, 0x00, 0x00,
   0x00, 0x00, 0x00, 0x00, 0x00, 0x00, 0x00, 0x00, 0x00, 0x00, 0x00, 0x00,
   0x00, 0x00, 0x00, 0x00, 0x00, 0x00, 0x00, 0x00, 0x00, 0x00, 0x12, 0x94,
   0xaa, 0xda, 0x1a, 0x00, 0x00, 0x00, 0x00, 0x00, 0x00, 0x00, 0x00, 0x00,
   0x00, 0x00, 0x00, 0x00, 0x00, 0x00, 0x00, 0x00, 0x00, 0x00, 0x00, 0x00,
   0x00, 0x00, 0x00, 0x00, 0x00, 0x40, 0x00, 0x80, 0x40, 0xaa, 0xaa, 0x43,
   0x00, 0x00, 0x00, 0x00, 0x00, 0x00, 0x00, 0x00, 0x00, 0x00, 0x00, 0x00,
   0x00, 0x00, 0x00, 0x00, 0x00, 0x00, 0x00, 0x00, 0x00, 0x00, 0x00, 0x00,
   0x00, 0x00, 0x00, 0x20, 0x10, 0x14, 0x11, 0x55, 0xe8, 0x00, 0x00, 0x00,
   0x00, 0x00, 0x00, 0x00, 0x00, 0x00, 0x00, 0x00, 0x00, 0x00, 0x00, 0x00,
   0x00, 0x00, 0x00, 0x00, 0x00, 0x00, 0x00, 0x00, 0x00, 0x00, 0x00, 0x00,
   0x02, 0x02, 0x40, 0x52, 0x05, 0xfd, 0x00, 0x00, 0x00, 0x00, 0x00, 0x00,
   0x00, 0x00, 0x00, 0x00, 0x00, 0x00, 0x00, 0x00, 0x00, 0x00, 0x00, 0x00,
   0x00, 0x00, 0x00, 0x00, 0x00, 0x00, 0x00, 0x00, 0x00, 0x40, 0x48, 0x89,
   0x44, 0xe8, 0xff, 0x00, 0x00, 0x00, 0x00, 0x00, 0x00, 0x00, 0x00, 0x00,
   0x00, 0x00, 0x00, 0x00, 0x00, 0x00, 0x00, 0x00, 0x00, 0x00, 0x00, 0x00,
   0x00, 0x00, 0x00, 0x00, 0x00, 0x10, 0x88, 0x20, 0x32, 0x95, 0xfe, 0xff,
   0x00, 0x00, 0x00, 0x00, 0x00, 0x00, 0x00, 0x00, 0x00, 0x00, 0x00, 0x00,
   0x00, 0x00, 0x00, 0x00, 0x00, 0x00, 0x00, 0x00, 0x00, 0x00, 0x00, 0x00,
   0x00, 0x00, 0x40, 0x21, 0xca, 0x4a, 0xc5, 0xff, 0xff, 0x00, 0x00, 0x00,
   0x00, 0x00, 0x00, 0x00, 0x00, 0x00, 0x00, 0x00, 0x00, 0x00, 0x00, 0x00,
   0x00, 0x00, 0x00, 0x00, 0x00, 0xbd, 0x09, 0x00, 0x00, 0x00, 0x00, 0x14,
   0xa4, 0x12, 0x55, 0xeb, 0xff, 0xff, 0x00, 0x00, 0x00, 0x00, 0x00, 0x00,
   0x00, 0x00, 0x00, 0x00, 0x00, 0x00, 0x00, 0x00, 0x00, 0x00, 0x00, 0x00,
   0x00, 0xe0, 0xd7, 0x17, 0x00, 0x00, 0x00, 0x00, 0xa0, 0x8a, 0x54, 0xa9,
   0xfa, 0xff, 0xff, 0x00, 0x00, 0x00, 0x00, 0x00, 0x00, 0x00, 0x00, 0x00,
   0x00, 0x00, 0x00, 0x00, 0x00, 0x00, 0x00, 0x00, 0x00, 0x00, 0xa8, 0xbd,
   0xba, 0x00, 0x00, 0x00, 0x00, 0xc8, 0xaa, 0x54, 0x55, 0xfb, 0xff, 0xff,
   0x00, 0x00, 0x00, 0x00, 0x00, 0x00, 0x00, 0x00, 0x00, 0x00, 0x00, 0x00,
   0x00, 0x00, 0x00, 0x00, 0x00, 0x00, 0x00, 0xfa, 0x76, 0xa5, 0x00, 0x00,
   0x00, 0x00, 0x00, 0x80, 0xaa, 0x52, 0xf9, 0xff, 0x7f, 0x00, 0x00, 0x00,
   0x00, 0x00, 0x00, 0x00, 0x00, 0x00, 0x00, 0x00, 0x00, 0x00, 0x00, 0x00,
   0x00, 0x00, 0x00, 0x00, 0xd7, 0x5f, 0x0a, 0x00, 0x00, 0x00, 0x00, 0x00,
   0xb8, 0xaa, 0xd6, 0xfe, 0xff, 0x97, 0x00, 0x00, 0x00, 0x00, 0x00, 0x00,
   0x00, 0x00, 0x00, 0x00, 0x00, 0x00, 0x00, 0x00, 0x00, 0x00, 0x00, 0x00,
   0xc0, 0xbd, 0xaa, 0x10, 0x00, 0x00, 0x00, 0x00, 0x00, 0x00, 0xd4, 0x2a,
   0xfb, 0xff, 0xe9, 0x00, 0x00, 0x00, 0x00, 0x00, 0x00, 0x00, 0x00, 0x00,
   0x00, 0x00, 0x00, 0x00, 0x00, 0x00, 0x00, 0x00, 0x00, 0xb0, 0xf5, 0x17,
   0x01, 0x00, 0x00, 0x00, 0x00, 0x00, 0x00, 0xa0, 0xdd, 0xfe, 0x2f, 0xff,
   0x00, 0x00, 0x00, 0x00, 0x00, 0x00, 0x00, 0x00, 0x00, 0x00, 0x00, 0x00,
   0x00, 0x00, 0x00, 0x00, 0x00, 0x00, 0xf8, 0xfe, 0x09, 0x00, 0x00, 0x00,
   0x00, 0x00, 0x00, 0x00, 0x40, 0xb6, 0xfe, 0xfb, 0xed, 0x00, 0x00, 0x00,
   0x00, 0x00, 0x00, 0x00, 0x00, 0x00, 0x00, 0x00, 0x00, 0x00, 0x00, 0x00,
   0x00, 0x10, 0x00, 0xd4, 0x6b, 0x01, 0x00, 0x00, 0x00, 0x00, 0x00, 0x00,
   0x00, 0x80, 0xd5, 0xea, 0xdf, 0xff, 0x00, 0x00, 0x00, 0x00, 0x00, 0x00,
   0x00, 0x00, 0x00, 0x00, 0x00, 0x00, 0x00, 0x00, 0x00, 0x00, 0x00, 0x00,
   0xae, 0x7f, 0x00, 0x00, 0x00, 0x00, 0x00, 0x00, 0x00, 0x00, 0x00, 0x48,
   0xbf, 0xbd, 0xff, 0x00, 0x00, 0x00, 0x00, 0x00, 0x00, 0x00, 0x00, 0x00,
   0x00, 0x00, 0x00, 0x00, 0x00, 0x00, 0x00, 0x0a, 0x80, 0xfb, 0x3e, 0x00,
   0x00, 0x00, 0x00, 0x00, 0x00, 0x00, 0x00, 0x00, 0x00, 0x20, 0x21, 0xa0,
   0x00, 0x00, 0x00, 0x00, 0x00, 0x00, 0x00, 0x00, 0x00, 0x00, 0x00, 0x00,
   0x00, 0x00, 0x00, 0x00, 0x04, 0xa0, 0xd6, 0x0f, 0x00, 0x00, 0x00, 0x00,
   0x00, 0x00, 0x00, 0x00, 0x00, 0x00, 0x00, 0x00, 0x80, 0x00, 0x00, 0x00,
   0x00, 0x00, 0x00, 0x00, 0x00, 0x00, 0x00, 0x00, 0x00, 0x00, 0x00, 0x00,
   0x00, 0x05, 0xe0, 0x7b, 0x0d, 0x00, 0x00, 0x00, 0x00, 0x00, 0x00, 0x00,
   0x00, 0x00, 0x00, 0x00, 0x00, 0x00, 0x00, 0x00, 0x00, 0x00, 0x00, 0x00,
   0x00, 0x00, 0x00, 0x00, 0x00, 0x00, 0x00, 0x00, 0x00, 0x40, 0x09, 0xbc,
   0xea, 0x03, 0x00, 0x00, 0x00, 0x00, 0x00, 0x00, 0x00, 0x00, 0x00, 0x00,
   0x00, 0x00, 0x00, 0x00, 0x00, 0x00, 0x00, 0x00, 0x00, 0x00, 0x00, 0x00,
   0x00, 0x00, 0x00, 0x00, 0x00, 0x00, 0x00, 0x01, 0xd4, 0xfd, 0x01, 0x00,
   0x00, 0x00, 0x00, 0x00, 0x00, 0x00, 0x00, 0x00, 0x00, 0x00, 0x00, 0x00,
   0x00, 0x00, 0x00, 0x00, 0x00, 0x00, 0x00, 0x00, 0x00, 0x00, 0x00, 0x00,
   0x00, 0x00, 0x00, 0x70, 0x81, 0xbf, 0x55, 0x00, 0x00, 0x00, 0x00, 0x00,
   0x00, 0x00, 0x00, 0x00, 0x00, 0x00, 0x00, 0x00, 0x00, 0x00, 0x00, 0x00,
   0x00, 0x00, 0x00, 0x00, 0x00, 0x00, 0x00, 0x00, 0x00, 0x00, 0x00, 0x00,
   0x40, 0x01, 0x6b, 0x6f, 0x01, 0x00, 0x00, 0x00, 0x00, 0x00, 0x00, 0x00,
   0x00, 0x00, 0x00, 0x00, 0x00, 0x00, 0x00, 0x00, 0x00, 0x00, 0x00, 0x00,
   0x00, 0x00, 0x00, 0x00, 0x00, 0x00, 0x00, 0x00, 0x00, 0xbc, 0xf4, 0xdd,
   0x5a, 0x00, 0x00, 0x00, 0x00, 0x00, 0x00, 0x00, 0x00, 0x00, 0x00, 0x00,
   0x00, 0x00, 0x00, 0x00, 0x00, 0x00, 0x00, 0x00, 0x00, 0x00, 0x00, 0x00,
   0x00, 0x00, 0x00, 0x00, 0x00, 0x00, 0x51, 0x6c, 0x5b, 0xab, 0x00, 0x00,
   0x00, 0x00, 0x00, 0x00, 0x00, 0x00, 0x00, 0x00, 0x00, 0x00, 0x00, 0x00,
   0x00, 0x00, 0x00, 0x00, 0x00, 0x00, 0x00, 0x00, 0x00, 0x00, 0x00, 0x00,
   0x00, 0x00, 0x80, 0x96, 0xdb, 0xf6, 0x15, 0x01, 0x00, 0x00, 0x00, 0x00,
   0x00, 0x00, 0x00, 0x00, 0x00, 0x00, 0x00, 0x00, 0x00, 0x00, 0x00, 0x00,
   0x00, 0x00, 0x00, 0x00, 0x00, 0x00, 0x00, 0x00, 0x00, 0x00, 0x00, 0xa8,
   0xaa, 0xbe, 0x2e, 0x23, 0x00, 0x00, 0x00, 0x00, 0x00, 0x00, 0x00, 0x00,
   0x00, 0x00, 0x00, 0x00, 0x00, 0x00, 0x00, 0x00, 0x00, 0x00, 0x00, 0x00,
   0x00, 0x00, 0x00, 0x00, 0x00, 0x00, 0x00, 0x00, 0xa4, 0xea, 0xd5, 0xf5,
   0x54, 0x01, 0x00, 0x00, 0x00, 0x00, 0x00, 0x00, 0x00, 0x00, 0x00, 0x00,
   0x00, 0x00, 0x00, 0x00, 0x00, 0x00, 0x00, 0x00, 0x00, 0x00, 0x00, 0x00,
   0x00, 0x00, 0x00, 0x00, 0x00, 0x49, 0x5d, 0x5b, 0xaf, 0x05, 0x01, 0x00,
   0x00, 0x00, 0x00, 0x00, 0x00, 0x00, 0x00, 0x00, 0x00, 0x00, 0x00, 0x00,
   0x00, 0x00, 0x00, 0x00, 0x00, 0x00, 0x00, 0x00, 0x00, 0x00, 0x00, 0x00,
   0x00, 0x6a, 0xaa, 0x6b, 0x77, 0x59, 0x04, 0x04, 0x00, 0x00, 0x00, 0x00,
   0x00, 0x00, 0x00, 0x00, 0x00, 0x00, 0x00, 0x00, 0x00, 0x00, 0x00, 0x00,
   0x00, 0x00, 0x00, 0x00, 0x00, 0x00, 0x00, 0x00, 0x00, 0x80, 0x44, 0x6a,
   0x9d, 0xd6, 0x9b, 0x80, 0x00, 0x00, 0x00, 0x00, 0x00, 0x00, 0x00, 0x00,
   0x00, 0x00, 0x00, 0x00, 0x00, 0x00, 0x00, 0x00, 0x00, 0x00, 0x00, 0x00,
   0x00, 0x00, 0x00, 0x00, 0x00, 0x00, 0x54, 0xa9, 0xaa, 0xe2, 0xad, 0x5e,
   0x40, 0x02, 0x00, 0x00, 0x00, 0x00, 0x00, 0x00, 0x00, 0x00, 0x00, 0x00,
   0x00, 0x00, 0x00, 0x00, 0x00, 0x00, 0x00, 0x00, 0x00, 0x00, 0xf6, 0x0e,
   0xe0, 0xff, 0x2f, 0x51, 0x92, 0x5a, 0xad, 0xbd, 0xaf, 0x80, 0x08, 0x00,
   0x00, 0x00, 0x00, 0x00, 0x00, 0x00, 0x00, 0x00, 0x00, 0x00, 0x00, 0x00,
   0x00, 0x00, 0x00, 0x00, 0x00, 0x00, 0xa0, 0xfb, 0xf7, 0xff, 0xff, 0x93,
   0xa4, 0xea, 0x4b, 0x6a, 0x6b, 0xa7, 0x00, 0x45, 0x00, 0x00, 0x40, 0x00,
   0x00, 0x00, 0x00, 0x00, 0x00, 0x00, 0x00, 0x00, 0x00, 0x00, 0x00, 0x00,
   0x00, 0x00, 0x00, 0x6a, 0xff, 0x7f, 0xf9, 0x7f, 0xb5, 0xd6, 0x7f, 0xd5,
   0xea, 0xde, 0x2f, 0x00, 0x09, 0x00, 0x00, 0x42, 0x00, 0x00, 0x00, 0x00,
   0x00, 0x00, 0x00, 0x00, 0x00, 0x00, 0x00, 0x00, 0x00, 0x00, 0x00, 0x40,
   0xf5, 0xfe, 0xfd, 0xfe, 0xdf, 0xff, 0xff, 0xd7, 0x5a, 0xbd, 0xe9, 0x51,
   0x10, 0xa2, 0x02, 0x00, 0x08, 0x01, 0x00, 0x00, 0x01, 0x00, 0x00, 0x00,
   0x00, 0x00, 0x00, 0x00, 0x00, 0x00, 0x00, 0x00, 0x89, 0xac, 0x7f, 0x7f,
   0xff, 0xff, 0xff, 0xff, 0xef, 0xbb, 0x6f, 0xbf, 0x47, 0x20, 0x88, 0x00,
   0x00, 0x11, 0x08, 0x00, 0x04, 0x00, 0x00, 0x00, 0x00, 0x00, 0x00, 0x00,
   0x00, 0x00, 0x00, 0x00, 0x00, 0x54, 0xdb, 0xdb, 0x5f, 0xff, 0xff, 0x0b,
   0xfe, 0x7f, 0xff, 0xdb, 0x7e, 0x0d, 0x80, 0x12, 0x02, 0x80, 0x48, 0x42,
   0x00, 0x10, 0x04, 0x00, 0x00, 0x00, 0x00, 0x00, 0x00, 0x00, 0x00, 0x00,
   0x00, 0xb4, 0x44, 0xf2, 0xbf, 0xff, 0xff, 0xff, 0x2a, 0xf0, 0xff, 0x7f,
   0xb7, 0xdd, 0x4a, 0x08, 0xa4, 0x08, 0x20, 0x41, 0x08, 0x09, 0x40, 0x08,
   0x00, 0x00, 0x00, 0x00, 0x00, 0x00, 0x00, 0x00, 0x00, 0x00, 0x22, 0x59,
   0xbd, 0xe5, 0xcf, 0xff, 0xff, 0x55, 0xc0, 0xff, 0xdf, 0xec, 0xbf, 0x22,
   0x80, 0x08, 0xa2, 0x08, 0x0a, 0x51, 0x04, 0x00, 0x20, 0x00, 0x00, 0x00,
   0x00, 0x00, 0x00, 0x00, 0x00, 0x00, 0x80, 0x6c, 0x82, 0xf6, 0xea, 0xb7,
   0xff, 0x4f, 0x0f, 0x81, 0xff, 0x5b, 0xf9, 0xbf, 0xa6, 0x08, 0x50, 0x0a,
   0x51, 0x20, 0x02, 0x48, 0x00, 0x00, 0x00, 0x00, 0x00, 0x00, 0x00, 0x00,
   0x00, 0x00, 0x00, 0x60, 0x57, 0x69, 0x2d, 0xf5, 0xf5, 0xff, 0x91, 0x00,
   0x04, 0xfc, 0xbf, 0xff, 0xbb, 0x2a, 0x02, 0x44, 0x50, 0x8a, 0x4a, 0x48,
   0x01, 0x00, 0x00, 0x00, 0x00, 0x00, 0x00, 0x00, 0x00, 0x00, 0x00, 0x00,
   0xd0, 0x15, 0x90, 0x5a, 0xfc, 0xf5, 0x7f, 0x93, 0xb2, 0x10, 0xf0, 0xfb,
   0xff, 0xb6, 0xca, 0x40, 0x90, 0x42, 0x28, 0x00, 0x01, 0x09, 0x01, 0x00,
   0x00, 0x00, 0x00, 0x00, 0x00, 0x00, 0x00, 0x00, 0x00, 0x54, 0xc4, 0x67,
   0xa5, 0x3f, 0xfd, 0xff, 0x26, 0x02, 0x10, 0xc4, 0xf1, 0xdf, 0x5f, 0x29,
   0x0b, 0x24, 0x88, 0x92, 0x2a, 0x2a, 0x24, 0x10, 0x00, 0x00, 0x00, 0x00,
   0x00, 0x00, 0x00, 0x00, 0x00, 0x00, 0xaa, 0x5a, 0x5c, 0xa5, 0x5f, 0xff,
   0xbf, 0xee, 0x54, 0x40, 0xd4, 0xfb, 0xdf, 0x3f, 0x55, 0x12, 0x44, 0x29,
   0x42, 0x40, 0x80, 0x40, 0x02, 0x00, 0x00, 0x00, 0x00, 0x00, 0x00, 0x00,
   0x00, 0x00, 0x00, 0xaf, 0xa5, 0x57, 0xf8, 0xa3, 0xff, 0xff, 0xbf, 0x2b,
   0x01, 0xc1, 0xff, 0xff, 0x4f, 0x49, 0x51, 0x90, 0xc4, 0x14, 0x95, 0x4a,
   0x0a, 0x00, 0x00, 0x00, 0x00, 0x00, 0x00, 0x00, 0x00, 0x00, 0x00, 0x40,
   0x7a, 0x6b, 0xd5, 0xbf, 0xe9, 0xff, 0xbf, 0x20, 0xba, 0x2a, 0x80, 0xff,
   0xff, 0xbf, 0x4a, 0x92, 0x04, 0x19, 0x52, 0x04, 0x08, 0x10, 0x10, 0x00,
   0x00, 0x00, 0x00, 0x00, 0x00, 0x00, 0x00, 0x00, 0xc0, 0xd7, 0xae, 0x7d,
   0x55, 0xfa, 0xff, 0x00, 0x00, 0x40, 0x45, 0xc4, 0xff, 0xff, 0x8f, 0x94,
   0x4a, 0x54, 0xa2, 0x24, 0xa9, 0x80, 0x80, 0x00, 0x00, 0x00, 0x00, 0x00,
   0x00, 0x00, 0x00, 0x00, 0x00, 0x40, 0xbd, 0xe8, 0x6f, 0xa9, 0xfe, 0x0f,
   0x00, 0x00, 0x00, 0x40, 0x49, 0xff, 0xff, 0xbf, 0x55, 0x52, 0xa5, 0xaa,
   0x28, 0x49, 0x92, 0x12, 0x05, 0x00, 0x00, 0x00, 0x00, 0x00, 0x40, 0x00,
   0x00, 0x00, 0xb0, 0x45, 0xa2, 0x92, 0xd6, 0xff, 0x01, 0x00, 0x00, 0x00,
   0x00, 0xe0, 0xfe, 0xff, 0x4f, 0x92, 0x24, 0x99, 0x24, 0x45, 0x91, 0x04,
   0x04, 0x00, 0x00, 0x00, 0x00, 0x00, 0x00, 0x00, 0x00, 0x00, 0x00, 0x54,
   0x0a, 0x00, 0xd4, 0xe9, 0x7f, 0x00, 0x00, 0x00, 0x00, 0x00, 0x00, 0xf4,
   0xff, 0xbf, 0x95, 0x48, 0x22, 0xa9, 0x28, 0xa5, 0x2a, 0x80, 0x2a, 0x00,
   0x00, 0x00, 0x00, 0x00, 0x00, 0x00, 0x00, 0x00, 0x6a, 0x2b, 0x09, 0x6a,
   0xff, 0x07, 0x00, 0x00, 0x00, 0x00, 0x00, 0x00, 0x80, 0xff, 0xaf, 0x22,
   0x90, 0xac, 0x14, 0x4b, 0x55, 0xa9, 0x2a, 0x00, 0x00, 0x00, 0x00, 0x00,
   0x00, 0x00, 0x00, 0x00, 0x00, 0xf5, 0x4a, 0xf2, 0xdb, 0xff, 0x00, 0x00,
   0x00, 0x00, 0x00, 0x00, 0x00, 0x00, 0xfe, 0xbf, 0x0a, 0x81, 0x48, 0x51,
   0xa8, 0xaa, 0x4a, 0x52, 0x55, 0x00, 0x00, 0x00, 0x00, 0x00, 0x00, 0x00,
   0x00, 0x80, 0x5e, 0xb5, 0x05, 0xbf, 0x1f, 0x00, 0x00, 0x00, 0x00, 0x00,
   0x00, 0x00, 0x00, 0xfc, 0x5f, 0x45, 0x14, 0x95, 0x44, 0x55, 0x56, 0xb5,
   0x2a, 0x09, 0x00, 0x00, 0x00, 0x00, 0x00, 0x00, 0x00, 0x00, 0x40, 0x7b,
   0xab, 0xfe, 0xfd, 0x17, 0x00, 0x00, 0x3a, 0x00, 0x00, 0x00, 0x00, 0x00,
   0xf0, 0x7f, 0x05, 0x20, 0x25, 0x49, 0x4a, 0xd9, 0xff, 0xbb, 0xb2, 0x00,
   0x00, 0x00, 0x00, 0x00, 0x00, 0x00, 0x00, 0xa0, 0xad, 0x00, 0x70, 0xff,
   0x07, 0x00, 0x00, 0x38, 0x00, 0x00, 0x00, 0x00, 0x00, 0xc0, 0xff, 0x02,
   0x00, 0x58, 0xa2, 0x55, 0xff, 0xff, 0xff, 0x57, 0x01, 0x00, 0x00, 0x00,
   0x00, 0x00, 0x00, 0x00, 0xb0, 0x2d, 0x21, 0x80, 0xff, 0x0f, 0x00, 0x00,
   0x31, 0x00, 0x00, 0x00, 0x00, 0x00, 0x80, 0xff, 0x0a, 0x80, 0x42, 0x96,
   0x54, 0xff, 0xff, 0xff, 0x5f, 0x03, 0x00, 0x00, 0x00, 0x00, 0x00, 0x00,
   0x00, 0x60, 0x4b, 0x94, 0x15, 0xfd, 0x3f, 0x00, 0x00, 0x18, 0x08, 0x00,
   0x00, 0x00, 0x00, 0x00, 0xfe, 0x47, 0x04, 0xb5, 0x6a, 0xff, 0xff, 0xbf,
   0xff, 0xff, 0x0a, 0x00, 0x00, 0x00, 0x00, 0x00, 0x00, 0x00, 0xd4, 0x16,
   0x25, 0x69, 0xfd, 0x7f, 0x00, 0x00, 0xf9, 0x00, 0x00, 0x00, 0x00, 0x00,
   0x00, 0xfc, 0x1f, 0x24, 0xaa, 0x6d, 0xfd, 0xff, 0xff, 0xfa, 0xff, 0x06,
   0x00, 0x00, 0x00, 0x00, 0x00, 0x00, 0x00, 0xa8, 0xaa, 0x80, 0xca, 0xf5,
   0xff, 0x01, 0x82, 0xac, 0x18, 0x00, 0x00, 0x00, 0x00, 0x00, 0xf8, 0x6f,
   0xa2, 0xfd, 0xff, 0xff, 0xff, 0x7f, 0xfd, 0xff, 0x2b, 0x00, 0x00, 0x00,
   0x00, 0x00, 0x00, 0x00, 0xb8, 0xaf, 0x2a, 0xba, 0xfe, 0xff, 0x03, 0x00,
   0xad, 0x11, 0x00, 0x00, 0x00, 0x00, 0x00, 0xf0, 0xff, 0xbd, 0xd7, 0xfe,
   0xff, 0xff, 0x7f, 0xf5, 0xff, 0x1f, 0x00, 0x00, 0x00, 0x00, 0x00, 0x00,
   0x00, 0xd6, 0x14, 0xc5, 0xea, 0xfb, 0xff, 0x07, 0x86, 0x68, 0x21, 0x00,
   0x00, 0x00, 0x00, 0x00, 0xe0, 0x6f, 0xf7, 0xff, 0xff, 0xff, 0xff, 0xff,
   0xfa, 0xff, 0x5f, 0x00, 0x00, 0x00, 0x00, 0x00, 0x00, 0x00, 0xb4, 0x3d,
   0x5a, 0x6f, 0xff, 0xff, 0x2f, 0x86, 0x7c, 0x21, 0x00, 0x00, 0x00, 0x00,
   0x00, 0x00, 0xe9, 0x5f, 0xff, 0xff, 0xff, 0xff, 0xff, 0xf2, 0xff, 0xff,
   0x01, 0x00, 0x00, 0x00, 0x00, 0x00, 0x00, 0x6f, 0xf7, 0xae, 0xbe, 0xff,
   0xff, 0x16, 0x4e, 0xb9, 0x00, 0x00, 0x00, 0x00, 0x00, 0x00, 0x80, 0xa0,
   0xf6, 0xff, 0xff, 0xff, 0xff, 0xff, 0xed, 0xff, 0xff, 0x07, 0x00, 0x00,
   0x00, 0x00, 0x00, 0x00, 0xd8, 0xdf, 0xfa, 0xeb, 0xff, 0xff, 0x2d, 0x8c,
   0xb8, 0x28, 0x00, 0x00, 0x00, 0x00, 0x00, 0x00, 0x01, 0x5d, 0xff, 0xff,
   0xff, 0xff, 0xff, 0xeb, 0xff, 0xff, 0x3f, 0x0c, 0x00, 0x00, 0x00, 0x00,
   0x00, 0x77, 0x25, 0xa5, 0xaa, 0xff, 0xff, 0x0b, 0x9c, 0x78, 0x20, 0x00,
   0x00, 0x00, 0x00, 0x00, 0x00, 0x00, 0xaa, 0xfe, 0xff, 0xff, 0xff, 0xff,
   0xf5, 0xff, 0xff, 0xff, 0x3a, 0x00, 0x00, 0x00, 0x00, 0x00, 0xda, 0xad,
   0xd4, 0xe2, 0xff, 0xff, 0x1b, 0xb8, 0xa1, 0x00, 0x00, 0x00, 0x00, 0x00,
   0x00, 0x00, 0x00, 0xe8, 0xfe, 0xff, 0xff, 0xff, 0xff, 0xd7, 0xff, 0xff,
   0xff, 0xff, 0x14, 0x00, 0x00, 0x00, 0x80, 0x6b, 0x57, 0x2a, 0x9d, 0xff,
   0xff, 0x03, 0x50, 0x31, 0x08, 0x00, 0x00, 0x00, 0x00, 0x00, 0x00, 0x04,
   0x40, 0xfd, 0xff, 0xff, 0xff, 0xff, 0xfb, 0xff, 0xff, 0xff, 0xff, 0xf9,
   0x10, 0x00, 0x00, 0x40, 0xff, 0x6f, 0x6a, 0xf1, 0xff, 0xff, 0x17, 0x50,
   0xa3, 0x10, 0x00, 0x00, 0x00, 0x00, 0x00, 0x00, 0x00, 0x00, 0xfa, 0xff,
   0xff, 0xff, 0xff, 0xc7, 0xff, 0xff, 0xff, 0xff, 0xd7, 0x7f, 0x01, 0x00,
   0xe0, 0xb2, 0xaa, 0x04, 0xaf, 0xff, 0x7f, 0x45, 0xb0, 0xee, 0x08, 0x00,
   0x00, 0x00, 0x00, 0x00, 0x00, 0x08, 0x00, 0x18, 0xff, 0xff, 0xff, 0xff,
   0x5f, 0xff, 0xff, 0xff, 0xff, 0xff, 0xff, 0x17, 0x00, 0xd0, 0xee, 0x2f,
   0xa9, 0xba, 0xff, 0xff, 0x0b, 0x30, 0x95, 0x01, 0x00, 0x00, 0x00, 0x00,
   0x00, 0x00, 0x10, 0x00, 0x60, 0xff, 0xff, 0xff, 0xff, 0xeb, 0xff, 0xff,
   0xff, 0xff, 0xaf, 0xaf, 0x36, 0x00, 0xb0, 0xbb, 0x88, 0x68, 0xed, 0xff,
   0xff, 0x05, 0x20, 0x57, 0x01, 0x00, 0x00, 0x00, 0x00, 0x01, 0x00, 0x20,
   0x00, 0xa0, 0xfe, 0xff, 0xff, 0xff, 0xaf, 0xfb, 0xff, 0x5f, 0xbf, 0x7b,
   0xb5, 0xed, 0x00, 0x68, 0xaf, 0x2b, 0xaa, 0xb4, 0xfa, 0xff, 0x17, 0x00,
   0x2a, 0x00, 0x00, 0x00, 0x00, 0x40, 0x00, 0x00, 0xc0, 0x00, 0xa0, 0xee,
   0xff, 0xff, 0xff, 0x5f, 0xdf, 0xff, 0xff, 0xfa, 0xef, 0xa5, 0xaa, 0x07,
   0xd8, 0xfa, 0x82, 0x4a, 0xed, 0xfd, 0xff, 0x0b, 0x00, 0x84, 0x00, 0x00,
   0x00, 0x00, 0xa0, 0x00, 0x00, 0x40, 0x01, 0xc0, 0xf2, 0xff, 0xff, 0xff,
   0x6f, 0x7f, 0xff, 0xff, 0xd6, 0xbb, 0x56, 0x55, 0xb4, 0xb0, 0xd6, 0xa5,
   0xa8, 0xbd, 0xff, 0xff, 0x17, 0x00, 0x10, 0x00, 0x00, 0x80, 0x00, 0x50,
   0x00, 0x00, 0x80, 0x05, 0x80, 0xf6, 0xfb, 0xff, 0xff, 0xdf, 0xee, 0xfd,
   0xff, 0x3b, 0xff, 0xad, 0x44, 0x55, 0xec, 0xbd, 0x16, 0xa0, 0x56, 0xff,
   0xff, 0x0f, 0x00, 0x00, 0x00, 0x00, 0xd0, 0x02, 0x40, 0x00, 0x00, 0x80,
   0x0a, 0x80, 0xfd, 0xf9, 0xff, 0xff, 0x5f, 0xbd, 0xff, 0xff, 0xd7, 0xda,
   0x53, 0xab, 0xa2, 0xa8, 0xea, 0x2e, 0xa8, 0xaf, 0xff, 0xff, 0x1f, 0x00,
   0x00, 0x00, 0x00, 0xc0, 0x01, 0x10, 0x00, 0x00, 0x00, 0x35, 0x00, 0xf7,
   0xfe, 0xff, 0xff, 0xdf, 0xfe, 0xfe, 0xff, 0x4f, 0xb5, 0x5e, 0x2a, 0x0a,
   0x6c, 0xfb, 0x2b, 0x7a, 0xd1, 0xbf, 0xff, 0x17, 0x00, 0x00, 0x00, 0x00,
   0x80, 0x02, 0x28, 0x00, 0x00, 0x80, 0x5a, 0x01, 0xef, 0xfe, 0xff, 0xff,
   0xbf, 0xed, 0xfb, 0xff, 0x5f, 0xe9, 0xda, 0x4a, 0x51, 0x58, 0xaf, 0xa5,
   0xaa, 0xf2, 0xe7, 0xff, 0x2f, 0x00, 0x00, 0x00, 0x00, 0x00, 0x05, 0x44,
   0x00, 0x01, 0x80, 0x52, 0x01, 0xdc, 0xff, 0xff, 0xff, 0xbf, 0xbd, 0xff,
   0xff, 0x7f, 0xd5, 0x36, 0x59, 0x4a, 0xf6, 0x7a, 0x5d, 0xa5, 0xfc, 0xfa,
   0xff, 0x2b, 0x00, 0x00, 0x00, 0x00, 0x40, 0x04, 0x28, 0x54, 0x05, 0x20,
   0x6d, 0x4b, 0x7e, 0xff, 0xff, 0xff, 0xdf, 0xdd, 0xd6, 0xff, 0xaf, 0x96,
   0x6a, 0x95, 0x28, 0x54, 0xef, 0x75, 0x29, 0xf9, 0xf3, 0xff, 0x1f, 0x00,
   0x00, 0x00, 0x00, 0x80, 0x0a, 0x68, 0x40, 0x01, 0x20, 0xd9, 0x9a, 0xf8,
   0xff, 0xff, 0xff, 0xbf, 0xbf, 0x7f, 0xf5, 0xff, 0xa4, 0xaa, 0x52, 0x45,
   0xec, 0xfa, 0x0b, 0x94, 0x7e, 0xfe, 0xff, 0x57, 0x00, 0x00, 0x00, 0x00,
   0x40, 0x04, 0x50, 0x54, 0x05, 0x80, 0x54, 0x57, 0xad, 0xff, 0xff, 0xff,
   0x3f, 0xf7, 0xad, 0xbf, 0xbf, 0x5b, 0x29, 0xa9, 0x2a, 0xb4, 0x5b, 0x55,
   0x2a, 0xaf, 0xfe, 0xff, 0x1f, 0x00, 0x00, 0x00, 0x00, 0xa0, 0x0a, 0x50,
   0x40, 0x05, 0x20, 0xd5, 0x54, 0x79, 0xff, 0xff, 0xff, 0x7f, 0xff, 0xff,
   0xf5, 0x7f, 0x57, 0xab, 0x16, 0x44, 0xd4, 0xee, 0xa2, 0xc0, 0xcf, 0xff,
   0xff, 0x07, 0x00, 0x00, 0x00, 0x00, 0x40, 0x04, 0x28, 0xa4, 0x00, 0x40,
   0xa9, 0x56, 0xf5, 0xfe, 0xbf, 0xff, 0x7f, 0xfe, 0xdb, 0xff, 0xff, 0x2a,
   0x49, 0xa9, 0x12, 0xda, 0x6e, 0xad, 0xe2, 0xab, 0xff, 0xff, 0x0b, 0x00,
   0x00, 0x00, 0x00, 0xc8, 0x05, 0x60, 0x44, 0x05, 0x00, 0xaa, 0x54, 0xd5,
   0xfb, 0xf7, 0xff, 0x7f, 0xfe, 0x7f, 0xd5, 0xff, 0x6f, 0x4a, 0x95, 0x2a,
   0xd4, 0xdd, 0x52, 0x58, 0xf4, 0xfa, 0xff, 0x13, 0x00, 0x00, 0x00, 0x00,
   0xe0, 0x05, 0x50, 0x50, 0x09, 0x40, 0x59, 0x55, 0x75, 0xdf, 0xff, 0xff,
   0xff, 0xfc, 0xf7, 0xff, 0xff, 0x5f, 0xa5, 0x2a, 0x49, 0x5a, 0xdb, 0x1e,
   0x80, 0x5c, 0xff, 0xff, 0x17, 0x00, 0x00, 0x00, 0x00, 0x80, 0x05, 0x00,
   0x80, 0x02, 0x00, 0xb0, 0xa5, 0xea, 0x7e, 0xff, 0xff, 0xff, 0xf0, 0xb5,
   0x7f, 0xfb, 0x5b, 0x09, 0x6a, 0x4b, 0xba, 0x7f, 0xa3, 0x10, 0xa3, 0xff,
   0xff, 0x0f, 0x00, 0x00, 0x00, 0x00, 0xe0, 0x02, 0x20, 0x00, 0x01, 0x00,
   0x6d, 0xaa, 0xea, 0xff, 0xff, 0xff, 0xff, 0xe3, 0xdf, 0xea, 0xdf, 0x3f,
   0x2a, 0xa2, 0x2a, 0x64, 0x75, 0x4d, 0xc0, 0xa5, 0xff, 0xff, 0x1f, 0x00,
   0x00, 0x00, 0x00, 0x80, 0x01, 0x00, 0x00, 0x01, 0x00, 0x58, 0xab, 0xda,
   0xff, 0xff, 0xff, 0xff, 0x87, 0xfa, 0x0e, 0xfd, 0xf7, 0x52, 0xad, 0x6e,
   0xda, 0xef, 0x5a, 0x38, 0xd0, 0xff, 0xff, 0x07, 0x00, 0x00, 0x00, 0x00,
   0x00, 0x00, 0x50, 0x00, 0x00, 0x00, 0xaa, 0x54, 0xa5, 0xff, 0xff, 0xff,
   0xff, 0x5f, 0xa2, 0xfb, 0xa8, 0xbf, 0xad, 0x82, 0x92, 0x54, 0xdd, 0xb5,
   0x02, 0xb5, 0xff, 0xff, 0x17, 0x00, 0x00, 0x00, 0x00, 0x00, 0x00, 0x00,
   0x00, 0x00, 0x00, 0xe8, 0x2a, 0xad, 0xff, 0xff, 0xff, 0xff, 0xff, 0x0e,
   0x95, 0x55, 0xfa, 0x7b, 0x5a, 0x52, 0xd4, 0x56, 0x85, 0xa0, 0xfa, 0xfe,
   0xff, 0x07, 0x00, 0x24, 0x00, 0x00, 0x80, 0x00, 0x50, 0x00, 0x00, 0x00,
   0x2c, 0xab, 0xf4, 0xff, 0xff, 0xff, 0xff, 0xff, 0x7f, 0x50, 0xb5, 0x83,
   0xee, 0x55, 0x85, 0xaa, 0xbd, 0x55, 0x50, 0x95, 0xfe, 0xff, 0x0f, 0x80,
   0x04, 0x00, 0x00, 0x00, 0x00, 0x00, 0x00, 0x00, 0x00, 0x5a, 0xa5, 0x45,
   0xff, 0xff, 0xff, 0xff, 0xff, 0xff, 0x17, 0xa4, 0xbe, 0x00, 0x5f, 0x55,
   0x78, 0x4b, 0x2d, 0xa4, 0xa2, 0xfd, 0xff, 0x03, 0x40, 0x18, 0x00, 0x00,
   0x00, 0x00, 0x40, 0x00, 0x00, 0x00, 0xd6, 0x5a, 0xd5, 0xff, 0xff, 0xff,
   0xff, 0xff, 0xff, 0xff, 0x00, 0x22, 0x95, 0xb0, 0x55, 0x64, 0xfb, 0x05,
   0x14, 0xa4, 0xe5, 0xff, 0x07, 0x40, 0x07, 0x00, 0x00, 0x00, 0x00, 0x80,
   0x00, 0x00, 0x00, 0x56, 0x53, 0x25, 0xff, 0xff, 0xff, 0xff, 0x7f, 0xff,
   0xff, 0x5f, 0x24, 0x24, 0x00, 0xaa, 0xa8, 0xa7, 0x6a, 0x11, 0xaa, 0xfe,
   0xff, 0x03, 0x30, 0xa5, 0x00, 0x00, 0x00, 0x00, 0x00, 0x00, 0x00, 0x00,
   0xad, 0xac, 0xb4, 0xff, 0xff, 0xff, 0xff, 0xff, 0xff, 0xff, 0xff, 0xab,
   0x52, 0x00, 0x10, 0x68, 0xbd, 0x54, 0xa0, 0x08, 0xfd, 0xff, 0x07, 0x50,
   0xad, 0x01, 0x00, 0x00, 0x00, 0x00, 0x00, 0x00, 0x00, 0x55, 0xa9, 0x4a,
   0xff, 0xff, 0xff, 0xff, 0xff, 0xfd, 0xff, 0xff, 0xff, 0x55, 0x81, 0x00,
   0xa8, 0xf6, 0x0b, 0x44, 0xf2, 0xef, 0xff, 0x07, 0x30, 0xeb, 0x01, 0x00,
   0x00, 0x00, 0x00, 0x00, 0x00, 0x80, 0x6f, 0x55, 0x6d, 0xff, 0xff, 0xff,
   0xff, 0xff, 0x7f, 0xef, 0xff, 0xff, 0x6f, 0x21, 0x00, 0xd4, 0xad, 0x56,
   0x88, 0x50, 0xfd, 0xff, 0x07, 0x50, 0xe3, 0x01, 0x00, 0x00, 0x00, 0x00,
   0x00, 0x00, 0x80, 0x5a, 0x89, 0x22, 0xff, 0xff, 0xff, 0xff, 0xff, 0xfb,
   0xff, 0xff, 0xff, 0xff, 0x2f, 0x00, 0xa8, 0xfa, 0x02, 0x00, 0xab, 0xfe,
   0xff, 0x03, 0x58, 0x59, 0x01, 0x00, 0x00, 0x00, 0x00, 0x00, 0x00, 0x40,
   0xad, 0x5a, 0x55, 0xff, 0xff, 0xff, 0xff, 0x7f, 0x7f, 0xff, 0xff, 0xff,
   0xff, 0xff, 0x03, 0xa8, 0xab, 0x4a, 0xa4, 0x84, 0xff, 0xff, 0x03, 0xc8,
   0x99, 0x13, 0x00, 0x00, 0x00, 0x00, 0x00, 0x00, 0x60, 0x6b, 0xaa, 0x52,
   0xff, 0xff, 0xff, 0xff, 0xff, 0xfe, 0xfe, 0xff, 0xbf, 0xf6, 0xff, 0xff,
   0x70, 0xf7, 0x09, 0x48, 0xf2, 0xff, 0xff, 0x01, 0x9c, 0xf8, 0x42, 0x00,
   0x00, 0x00, 0x00, 0x00, 0x00, 0xa0, 0xaa, 0xaa, 0xaa, 0xfe, 0xff, 0xff,
   0xff, 0xff, 0xfb, 0xff, 0xff, 0xff, 0xf7, 0xff, 0xff, 0x20, 0x5d, 0x53,
   0x00, 0xf4, 0xff, 0xff, 0x00, 0x8c, 0xf9, 0x02, 0x00, 0x00, 0x00, 0x00,
   0x00, 0x00, 0xe0, 0xdd, 0x82, 0xaa, 0xff, 0xff, 0xff, 0xff, 0xff, 0xef,
   0xfb, 0xff, 0xff, 0xf7, 0x3f, 0xff, 0xe8, 0xfb, 0x0e, 0x00, 0xfd, 0xbf,
   0x7f, 0x01, 0x86, 0x78, 0x01, 0x00, 0x00, 0x00, 0x00, 0x00, 0x00, 0x58,
   0x53, 0x2a, 0xa4, 0xff, 0xff, 0xff, 0xff, 0xff, 0xfb, 0xef, 0xff, 0xff,
   0xff, 0xdf, 0xfe, 0x80, 0xaa, 0x9b, 0xa0, 0xdf, 0xf6, 0x7f, 0x00, 0x04,
   0xfd, 0x43, 0x00, 0x00, 0x00, 0x00, 0x00, 0x00, 0x70, 0xa5, 0x82, 0xa8,
   0xff, 0xff, 0xff, 0xff, 0xff, 0xff, 0xaf, 0x5d, 0xff, 0x7f, 0x55, 0xff,
   0x70, 0x7f, 0x05, 0xf4, 0x52, 0xdf, 0x1f, 0x08, 0x83, 0x59, 0x01, 0x00,
   0x00, 0x00, 0x00, 0x00, 0x00, 0xac, 0x00, 0x28, 0xd5, 0xff, 0xff, 0xff,
   0xff, 0xff, 0xdf, 0xff, 0xff, 0xd9, 0xea, 0xf5, 0xff, 0x40, 0xd5, 0x17,
   0x5d, 0xd5, 0xfa, 0x57, 0x01, 0x02, 0x1a, 0x20, 0x00, 0x00, 0x00, 0x00,
   0x00, 0x00, 0x5a, 0xaa, 0x82, 0xd6, 0xff, 0xff, 0xff, 0xff, 0xff, 0xff,
   0x7f, 0x5b, 0xb7, 0xab, 0xfd, 0xdf, 0xe0, 0xbe, 0x6a, 0x03, 0x6a, 0xff,
   0x0f, 0x20, 0x83, 0x09, 0x41, 0x00, 0x00, 0x00, 0x00, 0x00, 0x00, 0x16,
   0x01, 0x48, 0xf5, 0xff, 0xff, 0xff, 0xff, 0xff, 0x7f, 0xff, 0xed, 0xff,
   0xee, 0xff, 0xff, 0x80, 0x6a, 0xaf, 0x40, 0xd4, 0xff, 0x5b, 0x00, 0x01,
   0x19, 0x01, 0x00, 0x00, 0x00, 0x00, 0x00, 0x00, 0x2a, 0x20, 0x51, 0xed,
   0xff, 0xff, 0xff, 0xff, 0xff, 0xff, 0xfd, 0x7f, 0xfd, 0xff, 0xff, 0xfd,
   0xc0, 0xbf, 0x1d, 0x82, 0xf2, 0xff, 0x07, 0x00, 0x01, 0x31, 0x20, 0x00,
   0x00, 0x00, 0x00, 0x00, 0x00, 0x03, 0x81, 0xd4, 0xfa, 0xff, 0xff, 0xff,
   0xff, 0xff, 0xff, 0xf7, 0xad, 0xfb, 0xff, 0xad, 0xff, 0x80, 0xea, 0x5b,
   0x94, 0x74, 0xf5, 0x0e, 0x00, 0x00, 0xb2, 0x00, 0x00, 0x00, 0x00, 0x00,
   0x00, 0x40, 0x03, 0x04, 0xa8, 0xfa, 0xff, 0xff, 0xff, 0xff, 0xff, 0xff,
   0xdf, 0x7f, 0x6f, 0xbf, 0xfb, 0xaf, 0x00, 0xbf, 0x16, 0x81, 0xde, 0xdf,
   0x01, 0x00, 0x00, 0x61, 0x00, 0x00, 0x00, 0x00, 0x00, 0x00, 0x40, 0x00,
   0x80, 0x65, 0xff, 0xff, 0xff, 0xff, 0xff, 0xff, 0xff, 0xbf, 0xfe, 0xba,
   0x75, 0xef, 0xd7, 0x00, 0xf5, 0x76, 0x92, 0xaf, 0x74, 0x01, 0x00, 0x00,
   0x62, 0x00, 0x00, 0x00, 0x00, 0x00, 0x00, 0x60, 0x00, 0x00, 0xae, 0xfe,
   0xff, 0xff, 0xff, 0xff, 0xff, 0xff, 0xfd, 0xff, 0xf7, 0xee, 0xdf, 0xfa,
   0x00, 0xde, 0x5b, 0xd0, 0xb4, 0x5b, 0x00, 0x00, 0x00, 0x48, 0x00, 0x00,
   0x00, 0x00, 0x00, 0x00, 0x10, 0x00, 0x80, 0xda, 0xff, 0xff, 0xff, 0xff,
   0xff, 0xff, 0x77, 0xef, 0xdf, 0xbf, 0xfb, 0x7d, 0xff, 0x00, 0x74, 0xdb,
   0xba, 0x54, 0x7f, 0x00, 0x00, 0x00, 0x40, 0x00, 0x00, 0x00, 0x00, 0x00,
   0x00, 0x00, 0x00, 0xa0, 0xf6, 0xff, 0xff, 0xff, 0xff, 0xff, 0xff, 0xff,
   0xff, 0xfd, 0xff, 0xff, 0xef, 0xff, 0x00, 0xdc, 0xaf, 0x86, 0xf5, 0x5e,
   0x02, 0x00, 0x00, 0x0a, 0x00, 0x00, 0x00, 0x00, 0x00, 0x00, 0x04, 0x01,
   0xc0, 0xfa, 0xff, 0xff, 0xff, 0xff, 0xff, 0xff, 0xff, 0xff, 0xff, 0xfd,
   0x7f, 0xdf, 0xff, 0x00, 0xf8, 0x7e, 0xb1, 0xd6, 0xff, 0x07, 0x00, 0x00,
   0x20, 0x00, 0x00, 0x00, 0x00, 0x00, 0x00, 0x40, 0x00, 0xd0, 0xff, 0xff,
   0xff, 0xff, 0xff, 0xff, 0xff, 0xff, 0xef, 0xed, 0xfb, 0xff, 0xfb, 0xdb,
   0x00, 0xe8, 0x2f, 0x96, 0xfa, 0xff, 0x7f, 0x00, 0x00, 0x00, 0x00, 0x00,
   0x00, 0x00, 0x00, 0x00, 0x11, 0xa0, 0xfe, 0xff, 0xff, 0xff, 0xff, 0xff,
   0xff, 0xff, 0xff, 0xfe, 0xff, 0xaf, 0xfb, 0xfe, 0xf7, 0x00, 0xa8, 0xdd,
   0xa8, 0xff, 0x5f, 0xfd, 0x03, 0x00, 0x00, 0x00, 0x00, 0x00, 0x00, 0x00,
   0x00, 0xf5, 0xff, 0xeb, 0xff, 0xff, 0xff, 0xff, 0xff, 0xff, 0xff, 0xff,
   0xff, 0xff, 0xff, 0xf7, 0xfb, 0xf6, 0x00, 0xe0, 0x97, 0x56, 0xff, 0xf7,
   0xf3, 0x0f, 0x00, 0x00, 0x00, 0x00, 0x00, 0x00, 0x00, 0x80, 0xff, 0x7f,
   0xb5, 0xff, 0xff, 0xff, 0xff, 0xff, 0xff, 0xff, 0xff, 0xff, 0xff, 0xff,
   0xdf, 0xef, 0xdf, 0x00, 0x80, 0xf7, 0xea, 0xff, 0x95, 0x0e, 0x7f, 0x00,
   0x00, 0x00, 0x00, 0x00, 0x00, 0x00, 0xe0, 0xff, 0x7f, 0x05, 0xd1, 0x7f,
   0xbf, 0xff, 0xff, 0xff, 0xff, 0xff, 0xff, 0xff, 0xfb, 0xff, 0xdf, 0xfb,
   0x00, 0x60, 0x5d, 0xff, 0x7f, 0x2b, 0x79, 0xfe, 0x01, 0x00, 0x00, 0x00,
   0x00, 0x00, 0x00, 0xfc, 0xff, 0x5f, 0x21, 0x54, 0xda, 0x52, 0xfd, 0xff,
   0xff, 0xff, 0xff, 0xff, 0xff, 0xdf, 0xbf, 0x7f, 0xdf, 0x00, 0x40, 0xff,
   0xff, 0x3f, 0xaa, 0xc2, 0xf9, 0x0f, 0x00, 0x00, 0x00, 0x00, 0x00, 0x00,
   0xea, 0xff, 0x7f, 0x01, 0x00, 0xaa, 0xad, 0xfd, 0xff, 0x5f, 0xe0, 0xff,
   0xff, 0xff, 0xff, 0xff, 0xfe, 0xff, 0x00, 0x80, 0xfd, 0xff, 0xef, 0x12,
   0xd4, 0xf7, 0x35, 0x00, 0x00, 0x00, 0x00, 0x00, 0x80, 0xff, 0xff, 0x0f,
   0x01, 0x92, 0x54, 0x5a, 0xf3, 0xff, 0xdf, 0x17, 0xf7, 0xff, 0xff, 0x7f,
   0xff, 0x6f, 0xbf, 0x00, 0x00, 0xfe, 0xff, 0xdf, 0xab, 0x01, 0x8f, 0xbf,
   0x00, 0x00, 0x00, 0x00, 0x00, 0x78, 0xfd, 0xff, 0x5f, 0x0a, 0x20, 0xd5,
   0x55, 0xd5, 0xff, 0x67, 0xff, 0xde, 0xff, 0xff, 0xff, 0xff, 0xfd, 0xff,
   0x00, 0x00, 0xa8, 0x25, 0x68, 0xaf, 0x12, 0xbe, 0xdf, 0x02, 0x00, 0x00,
   0x40, 0x80, 0xd7, 0xff, 0xff, 0x87, 0x20, 0x42, 0x21, 0xd5, 0x6d, 0xff,
   0xf7, 0xff, 0x77, 0xfb, 0xff, 0xff, 0xff, 0xff, 0xfb, 0x00, 0x00, 0x74,
   0xd7, 0x49, 0xbd, 0x56, 0x78, 0xfe, 0x02, 0x00, 0x00, 0xa8, 0xfa, 0xae,
   0xff, 0xff, 0x97, 0x4a, 0x48, 0x55, 0x55, 0xf5, 0xff, 0x5a, 0xff, 0xff,
   0xab, 0xff, 0xff, 0xef, 0xff, 0xf7, 0x00, 0x00, 0xa8, 0x5e, 0x55, 0x6a,
   0xa8, 0x65, 0x7d, 0x0f, 0x00, 0x00, 0x5d, 0xab, 0xd2, 0xff, 0xff, 0x17,
   0x12, 0x21, 0x29, 0x5a, 0x55, 0xff, 0xee, 0xff, 0xff, 0xff, 0xf6, 0xff,
   0xff, 0xff, 0xff, 0x00, 0x00, 0xd0, 0xda, 0xd7, 0xa0, 0x35, 0x6a, 0xf5,
   0x3a, 0x40, 0xfa, 0xdb, 0x5e, 0xf5, 0xff, 0xff, 0x9f, 0x84, 0x24, 0xa3,
   0xa4, 0x6a, 0xfd, 0xae, 0xff, 0xff, 0xdf, 0x77, 0xff, 0xff, 0xdf, 0xef,
   0x00, 0x00, 0xa0, 0xb5, 0xaa, 0x56, 0x72, 0xeb, 0xf9, 0xfd, 0xff, 0xbf,
   0x74, 0x25, 0xfd, 0xff, 0xff, 0x2d, 0x15, 0x49, 0x94, 0xd4, 0xad, 0xff,
   0xfb, 0xdf, 0xdd, 0xff, 0x5e, 0xfd, 0xff, 0x7f, 0x7f, 0x00, 0x00, 0x00,
   0x55, 0x5d, 0x15, 0xc8, 0x8a, 0xe3, 0xf3, 0xff, 0x5d, 0x55, 0x01, 0xfb,
   0xff, 0xff, 0x2f, 0x68, 0x49, 0x25, 0x55, 0x69, 0xf9, 0xf7, 0xfb, 0xfb,
   0xff, 0xb2, 0xc1, 0xff, 0xff, 0xfe, 0x00, 0x00, 0x80, 0xad, 0x6b, 0x55,
   0xa5, 0x6f, 0xaf, 0xef, 0x49, 0x43, 0x09, 0xe0, 0xff, 0xff, 0xff, 0x9f,
   0x92, 0x52, 0x92, 0x54, 0x55, 0xff, 0xfd, 0xff, 0x7f, 0xf7, 0x6f, 0x1b,
   0xf4, 0xff, 0xf7, 0x00, 0x00, 0x00, 0xba, 0x56, 0x95, 0x28, 0xd6, 0xae,
   0xd7, 0xff, 0xaa, 0x00, 0xe0, 0x71, 0xff, 0xff, 0x3f, 0x44, 0x55, 0x25,
   0x49, 0x55, 0xd2, 0x7f, 0xb7, 0xf7, 0xee, 0xdd, 0xb2, 0x81, 0xfe, 0xff,
   0x00, 0x00, 0x00, 0xd4, 0xad, 0xb7, 0x4a, 0xfd, 0xd7, 0xee, 0x07, 0x0a,
   0x00, 0xc8, 0xf9, 0xfe, 0xff, 0x5f, 0xa8, 0x4a, 0x4a, 0xb2, 0xac, 0xaa,
   0xff, 0xff, 0xde, 0xbf, 0x7f, 0x4f, 0x0a, 0xe8, 0xff, 0x00, 0x00, 0x00,
   0xb0, 0x7d, 0xac, 0x2a, 0x6d, 0xbf, 0x8f, 0x5f, 0x11, 0xb4, 0xe8, 0xfb,
   0xab, 0xee, 0xdb, 0x20, 0xa9, 0x5a, 0x45, 0x5b, 0x2b, 0xff, 0xff, 0x7d,
   0xf7, 0xf7, 0xdf, 0x10, 0x00, 0xfa, 0x00, 0x00, 0x00, 0xa8, 0xdb, 0xb3,
   0x55, 0xfa, 0x5f, 0x6f, 0xff, 0xaa, 0x0c, 0xc4, 0xff, 0xff, 0xbb, 0x3f,
   0x40, 0xaa, 0xa2, 0xaa, 0x52, 0x65, 0xfe, 0xff, 0xff, 0xbf, 0xae, 0x7e,
   0x4b, 0x01, 0xe0, 0x00, 0x00, 0x00, 0x40, 0xbb, 0xa6, 0xdd, 0xf2, 0x3f,
   0x5f, 0xff, 0x0f, 0x04, 0xf0, 0xdf, 0xbe, 0xff, 0xfb, 0x41, 0xa5, 0x54,
   0xa9, 0x56, 0xcd, 0xfa, 0xff, 0xff, 0xff, 0xef, 0x6a, 0x5f, 0x04, 0x00,
   0x00, 0x00, 0x00, 0x00, 0xef, 0xfb, 0xab, 0xea, 0xff, 0x1e, 0xff, 0x81,
   0x02, 0xe0, 0x7f, 0xf7, 0xb6, 0x7e, 0x81, 0x14, 0x93, 0xd2, 0x6a, 0x55,
   0xfa, 0xff, 0xff, 0xff, 0x3a, 0x5b, 0xb5, 0x13, 0x00, 0x00, 0x00, 0x00,
   0x00, 0x7a, 0xab, 0xb7, 0xd5, 0xff, 0x3e, 0xfe, 0x5f, 0x02, 0xf0, 0xff,
   0xff, 0xfe, 0xf7, 0x02, 0x69, 0xaa, 0x96, 0x5a, 0xa1, 0xc0, 0xfb, 0xff,
   0xb7, 0xef, 0xaa, 0xa2, 0x2e, 0x00, 0x00, 0x00, 0x00, 0x00, 0xe8, 0x7d,
   0xdf, 0xab, 0xff, 0x77, 0xfd, 0xd7, 0x00, 0xf8, 0xff, 0xd7, 0xeb, 0xae,
   0x01, 0x84, 0x55, 0x55, 0x67, 0x4d, 0x5d, 0x24, 0xe9, 0xff, 0x5a, 0xbb,
   0x04, 0xd0, 0x00, 0x00, 0x00, 0x00, 0x00, 0xa0, 0xd7, 0x7f, 0xb7, 0xff,
   0xfe, 0xf8, 0x2f, 0x00, 0xfe, 0xff, 0xdf, 0xdf, 0x7d, 0x07, 0x10, 0x51,
   0x49, 0xac, 0xaa, 0x48, 0x89, 0x4a, 0xff, 0xdb, 0xc6, 0x55, 0x00, 0x2e,
   0x00, 0x00, 0x00, 0x00, 0x40, 0x7d, 0xff, 0xdf, 0xfe, 0xd7, 0xea, 0x0b,
   0x80, 0xff, 0x7f, 0x7f, 0x6d, 0xd7, 0x02, 0x00, 0xa4, 0xaa, 0x2a, 0x89,
   0x22, 0x25, 0x55, 0xff, 0xaf, 0xb5, 0x2a, 0x00, 0xa1, 0x00, 0x00, 0x00,
   0x00, 0x80, 0xea, 0xfd, 0xfe, 0xff, 0xbf, 0xeb, 0x0f, 0xf8, 0xff, 0xff,
   0xf7, 0xed, 0x7d, 0x05, 0x10, 0xa9, 0xaa, 0x52, 0x29, 0x55, 0x04, 0xa8,
   0xff, 0x5f, 0xdd, 0xaa, 0x15, 0x00, 0x00, 0x00, 0x00, 0x00, 0x00, 0xb4,
   0xf7, 0xff, 0xfe, 0xaf, 0xeb, 0xff, 0xff, 0xff, 0xfb, 0xdd, 0x5e, 0xcb,
   0x02, 0x00, 0x92, 0x52, 0x49, 0xaa, 0xc4, 0x52, 0xa9, 0xff, 0x6a, 0xa3,
   0x55, 0x02, 0x20, 0x00, 0x00, 0x00, 0x00, 0x00, 0xa0, 0x6e, 0xff, 0xff,
   0xbd, 0x96, 0xff, 0xff, 0xff, 0xff, 0xdf, 0x7d, 0x5b, 0x05, 0x00, 0x20,
   0x25, 0xa9, 0xaa, 0x1a, 0x12, 0x92, 0xfe, 0xdf, 0x2e, 0x55, 0x9d, 0x02,
   0x00, 0x00, 0x00, 0x00, 0x00, 0x00, 0x1d, 0xf8, 0xff, 0x7f, 0xbf, 0xfe,
   0xff, 0xbf, 0xfe, 0xff, 0xd7, 0xb5, 0x0a, 0x00, 0xca, 0x1a, 0x8a, 0x92,
   0x62, 0xa9, 0x42, 0xfa, 0x7f, 0xdb, 0x52, 0x21, 0x08, 0x00, 0x00, 0x00,
   0x00, 0x00, 0x00, 0x20, 0xc0, 0x91, 0xea, 0xf5, 0xfa, 0x0b, 0xc0, 0xda,
   0xdf, 0x6e, 0xd7, 0x0a, 0x00, 0x90, 0xa6, 0x32, 0x55, 0x4a, 0x8a, 0x44,
   0xd0, 0xef, 0x76, 0x45, 0xaa, 0x20, 0x00, 0x00, 0x00, 0x00, 0x00, 0x00,
   0x00, 0x00, 0x00, 0x14, 0x68, 0x25, 0x00, 0x00, 0xf5, 0x7d, 0xbb, 0x5a,
   0x09, 0x00, 0x48, 0x29, 0x8a, 0x84, 0x4a, 0x11, 0x29, 0xa1, 0xfe, 0x5d,
   0xad, 0x05, 0x89, 0x00, 0x00, 0x00, 0x00, 0x00, 0x00, 0x00, 0x00, 0x00,
   0x00, 0x00, 0x00, 0x00, 0x00, 0xa4, 0x77, 0xf7, 0xbb, 0x12, 0x00, 0x90,
   0xaa, 0x20, 0x29, 0x92, 0x2a, 0x00, 0x8a, 0xfa, 0xdf, 0x15, 0x29, 0x01,
   0x00, 0x00, 0x00, 0x00, 0x00, 0x00, 0x00, 0x00, 0x00, 0x00, 0x00, 0x00,
   0x00, 0x00, 0x48, 0xdf, 0xad, 0x56, 0x2b, 0x00, 0x80, 0x44, 0x4a, 0x80,
   0x54, 0x50, 0x42, 0x60, 0xd5, 0xb6, 0x2a, 0xaa, 0x10, 0x00, 0x00, 0x00,
   0x00, 0x00, 0x00, 0x00, 0x00, 0x00, 0x00, 0x00, 0x00, 0x00, 0x00, 0x40,
   0xf8, 0xfd, 0xb6, 0x56, 0x00, 0x10, 0x55, 0x80, 0x92, 0x8a, 0x12, 0x8a,
   0x00, 0x80, 0xfe, 0xab, 0x04, 0x02, 0x00, 0x00, 0x00, 0x00, 0x00, 0x00,
   0x00, 0x00, 0x00, 0x00, 0x00, 0x00, 0x00, 0x00, 0x80, 0xaa, 0xd7, 0x6d,
   0xad, 0x00, 0x00, 0x00, 0x04, 0x08, 0xaa, 0x54, 0x20, 0x00, 0x00, 0xa0,
   0x56, 0x10, 0x12, 0x00, 0x00, 0x00, 0x00, 0x00, 0x00, 0x00, 0x00, 0x00,
   0x00, 0x00, 0x00, 0x00, 0x00, 0x00, 0x52, 0xbd, 0x55, 0x5b, 0x01, 0x80,
   0x50, 0x04, 0x21, 0x22, 0x85, 0x04, 0x01, 0x00, 0x88, 0x7c, 0x43, 0x20,
   0x00, 0x00, 0x00, 0x00, 0x00, 0x00, 0x00, 0x00, 0x00, 0x00, 0x00, 0x00,
   0x00, 0x00, 0x00, 0x94, 0xb5, 0xaa, 0xaa, 0x04, 0x00, 0x00, 0x00, 0x00,
   0x09, 0x28, 0x11, 0x00, 0x00, 0x12, 0xab, 0x14, 0x01, 0x00, 0x00, 0x00,
   0x00, 0x00, 0x00, 0x00, 0x00, 0x00, 0x00, 0x00, 0x00, 0x00, 0x00, 0x00,
   0x20, 0xd5, 0x6b, 0x55, 0x01, 0x00, 0x00, 0x00, 0x00, 0x92, 0x00, 0x01,
   0x02, 0x00, 0xe0, 0xfa, 0x2b, 0x04, 0x00, 0x00, 0x00, 0x00, 0x00, 0x00,
   0x00, 0x00, 0x00, 0x00, 0x00, 0x00, 0x00, 0x00, 0x00, 0xa0, 0x54, 0xaa,
   0xaa, 0x0a, 0x00, 0x00, 0x00, 0x00, 0x04, 0x12, 0x20, 0x10, 0x00, 0x90,
   0xaf, 0x15, 0x01, 0x00, 0x00, 0x00, 0x00, 0x00, 0x00, 0x00, 0x00, 0x00,
   0x00, 0x00, 0x00, 0x00, 0x00, 0x00, 0x00, 0x91, 0x55, 0x55, 0x0a, 0x00,
   0x00, 0x00, 0x00, 0x28, 0x10, 0x01, 0x00, 0x00, 0x00, 0x7a, 0x57, 0x02,
   0x00, 0x00, 0x00, 0x00, 0x00, 0x00, 0x00, 0x00, 0x00, 0x00, 0x00, 0x00,
   0x00, 0x00, 0x00, 0x80, 0x22, 0x2a, 0xaa, 0x14, 0x00, 0x00, 0x00, 0x00,
   0x00, 0x00, 0x00, 0x00, 0x00, 0x80, 0x48, 0x5d, 0x29, 0x00, 0x00, 0x00,
   0x00, 0x00, 0x00, 0x00, 0x00, 0x00, 0x00, 0x00, 0x00, 0x00, 0x00, 0x00,
   0x00, 0x84, 0x68, 0x51, 0x15, 0x00, 0x00, 0x00, 0x00, 0x24, 0x00, 0x00,
   0x00, 0x00, 0x00, 0x80, 0xfa, 0x46, 0x00, 0x00, 0x00, 0x00, 0x00, 0x00,
   0x00, 0x00, 0x00, 0x00, 0x00, 0x00, 0x00, 0x00, 0x00, 0x00, 0x08, 0x52,
   0x4d, 0x2b, 0x00, 0x00, 0x00, 0x00, 0x00, 0x00, 0x00, 0x00, 0x00, 0x00,
   0x40, 0xad, 0x15, 0x00, 0x00, 0x00, 0x00, 0x00, 0x00, 0x00, 0x00, 0x00,
   0x00, 0x00, 0x00, 0x00, 0x00, 0x00, 0x00, 0x20, 0x40, 0x59, 0x2a, 0x00,
   0x00, 0x00, 0x00, 0x50, 0x00, 0x00, 0x00, 0x00, 0x00, 0x00, 0xf8, 0x6d,
   0x00, 0x00, 0x00, 0x00, 0x00, 0x00, 0x00, 0x00, 0x00, 0x00, 0x00, 0x00,
   0x00, 0x00, 0x00, 0x00, 0x00, 0x80, 0xaa, 0x55, 0x00, 0x00, 0x00, 0x00,
   0x00, 0x00, 0x00, 0x00, 0x00, 0x00, 0x50, 0xf5, 0xdb, 0x00, 0x00, 0x00,
   0x00, 0x00, 0x00, 0x00, 0x00, 0x00, 0x00, 0x00, 0x00, 0x00, 0x00, 0x00,
   0x00, 0x40, 0x00, 0x48, 0x55, 0x00, 0x00, 0x00, 0x00, 0x40, 0x00, 0x00,
   0x00, 0x00, 0x00, 0x00, 0xed, 0xff, 0x00, 0x00, 0x00, 0x00, 0x00, 0x00,
   0x00, 0x00, 0x00, 0x00, 0x00, 0x00, 0x00, 0x00, 0x00, 0x00, 0x00, 0x00,
   0x00, 0x04, 0x00, 0x00, 0x00, 0x00, 0x00, 0x00, 0x00, 0x00, 0x00, 0x00,
   0x00, 0x20, 0xff, 0x00, 0x00, 0x00, 0x00, 0x00, 0x00, 0x00, 0x00, 0x00,
   0x00, 0x00, 0x00, 0x00, 0x00, 0x00, 0x00, 0x00, 0x00, 0x00, 0x00, 0x00,
   0x00, 0x00, 0x00, 0x00, 0x00, 0x00, 0x00, 0x00, 0x00, 0x80, 0x0a, 0xfe,
   0x00, 0x00, 0x00, 0x00, 0x00, 0x00, 0x00, 0x00, 0x00, 0x00, 0x00, 0x00,
   0x00, 0x00, 0x00, 0x00, 0x00, 0x00, 0x00, 0x00, 0x00, 0x00, 0x00, 0x00,
   0x00, 0x00, 0x00, 0x00, 0x00, 0x00, 0x00, 0x20, 0xf4, 0x00, 0x00, 0x00,
   0x00, 0x00, 0x00, 0x00, 0x00, 0x00, 0x00, 0x00, 0x00, 0x00, 0x00, 0x00,
   0x00, 0x00, 0x00, 0x00, 0x00, 0x00, 0x00, 0x00, 0x00, 0x00, 0x00, 0x00,
   0x00, 0x00, 0x00, 0x00, 0x82, 0xe8, 0x00, 0x00, 0x00, 0x00, 0x00, 0x00,
   0x00, 0x00, 0x00, 0x00, 0x00, 0x00, 0x00, 0x00, 0x00, 0x00, 0x00, 0x00,
   0x00, 0x00, 0x00, 0x00, 0x00, 0x00, 0x00, 0x00, 0x00, 0x00, 0x00, 0x00,
   0x40, 0x04, 0x84, 0x00, 0x00, 0x00, 0x00, 0x00, 0x00, 0x00, 0x00, 0x00,
   0x00, 0x00, 0x00, 0x00, 0x00, 0x00, 0x00, 0x00, 0x00, 0x00, 0x00, 0x00,
   0x00, 0x00, 0x00, 0x00, 0x00, 0x00, 0x00, 0x00, 0x00, 0x00, 0xa8, 0x10,
   0x00, 0x00, 0x00, 0x00, 0x00, 0x00, 0x00, 0x00, 0x00, 0x00, 0x00, 0x00,
   0x00, 0x00, 0x00, 0x00, 0x00, 0x00, 0x00, 0x00, 0x00, 0x00, 0x00, 0x00,
   0x00, 0x00, 0x00, 0x00, 0x00, 0x00, 0x00, 0x00, 0x82, 0x00, 0x00, 0x00,
   0x00, 0x00, 0x00, 0x00, 0x00, 0x00, 0x00, 0x00, 0x00, 0x00, 0x00, 0x00,
   0x00, 0x00, 0x00, 0x00, 0x00, 0x00, 0x00, 0x00, 0x00, 0x00, 0x00, 0x00,
   0x00, 0x00, 0x00, 0x00, 0x00, 0x14, 0x00, 0x00, 0x00, 0x00, 0x00, 0x00,
   0x00, 0x00, 0x00, 0x00, 0x00, 0x00, 0x00, 0x00, 0x00, 0x00, 0x00, 0x00,
   0x00, 0x00, 0x00, 0x00, 0x00, 0x00, 0x00, 0x00, 0x00, 0x00, 0x00, 0x00,
   0x00, 0x00, 0x00, 0x00, 0x00, 0x00, 0x00, 0x00, 0x00, 0x00, 0x00, 0x00,
   0x00, 0x00, 0x00, 0x00, 0x00, 0x00, 0x00, 0x00, 0x00, 0x00, 0x00, 0x00,
   0x00, 0x00, 0x00, 0x00, 0x00, 0x00, 0x00, 0x00, 0x00, 0x00, 0x08, 0x00 };
