#define pnj21_width 264
#define pnj21_height 176
static unsigned char pnj21_bits[] = {
   0x00, 0x00, 0x00, 0x00, 0x00, 0x00, 0x00, 0x00, 0x00, 0x00, 0x00, 0x00,
   0x00, 0x00, 0x00, 0x00, 0x00, 0x00, 0x00, 0x00, 0x00, 0xdc, 0x2f, 0x29,
   0x00, 0x12, 0x00, 0x00, 0x04, 0x00, 0x02, 0x00, 0x00, 0x00, 0x00, 0x00,
   0x00, 0x00, 0x00, 0x00, 0x00, 0x00, 0x00, 0x00, 0x00, 0x00, 0x00, 0x00,
   0x00, 0x00, 0x00, 0x00, 0x00, 0x40, 0x01, 0x68, 0x57, 0x55, 0xb1, 0x80,
   0x00, 0x04, 0x40, 0x04, 0x21, 0x00, 0x00, 0x00, 0x00, 0x00, 0x00, 0x00,
   0x00, 0x00, 0x00, 0x00, 0x00, 0x00, 0x00, 0x00, 0x00, 0x00, 0x00, 0x00,
   0x00, 0x00, 0x90, 0x00, 0xb0, 0x45, 0xad, 0x0a, 0x01, 0x00, 0x10, 0x00,
   0x20, 0x10, 0x00, 0x00, 0x00, 0x00, 0x00, 0x00, 0x00, 0x00, 0x00, 0x00,
   0x00, 0x00, 0x00, 0x00, 0x00, 0x00, 0x00, 0x00, 0x00, 0x00, 0x00, 0xa5,
   0x00, 0xe0, 0x2f, 0xa9, 0x28, 0x02, 0x00, 0x00, 0x90, 0xa0, 0x02, 0x00,
   0x00, 0x00, 0x00, 0x00, 0x00, 0x00, 0x00, 0x00, 0x00, 0x00, 0x00, 0x00,
   0x00, 0x00, 0x00, 0x00, 0x00, 0x00, 0x00, 0x00, 0x17, 0x00, 0xc0, 0xbd,
   0xa4, 0x48, 0x00, 0x00, 0x00, 0x00, 0x0a, 0x00, 0x00, 0x00, 0x00, 0x00,
   0x00, 0x00, 0x00, 0x00, 0x00, 0x00, 0x00, 0x00, 0x00, 0x00, 0x00, 0x00,
   0x00, 0x00, 0x00, 0x00, 0x40, 0xa4, 0x00, 0xb0, 0xf2, 0x6d, 0x4b, 0x04,
   0x00, 0x00, 0x40, 0x00, 0x20, 0x01, 0x00, 0x00, 0x00, 0x00, 0x00, 0x00,
   0x00, 0x00, 0x00, 0x00, 0x00, 0x00, 0x00, 0x00, 0x00, 0x00, 0x00, 0x00,
   0x00, 0x80, 0x53, 0x80, 0x52, 0xae, 0x45, 0x89, 0x00, 0x10, 0x80, 0x00,
   0x8a, 0x0a, 0x10, 0x00, 0x00, 0x00, 0x00, 0x00, 0x00, 0x00, 0x00, 0x00,
   0x00, 0x00, 0x00, 0x00, 0x00, 0x00, 0x00, 0x00, 0x00, 0x00, 0xc0, 0x02,
   0x00, 0xca, 0x20, 0xaf, 0x02, 0x0a, 0x00, 0x00, 0x10, 0x80, 0xa0, 0x04,
   0x00, 0x00, 0x00, 0x00, 0x00, 0x00, 0x00, 0x00, 0x00, 0x00, 0x00, 0x00,
   0x00, 0x00, 0x00, 0x00, 0x00, 0x00, 0x00, 0xa0, 0x2a, 0x00, 0xbb, 0xd6,
   0x03, 0x95, 0x40, 0x02, 0x00, 0x01, 0x01, 0x08, 0x01, 0x00, 0x00, 0x00,
   0x00, 0x00, 0x00, 0x00, 0x00, 0x00, 0x00, 0x00, 0x00, 0x00, 0x00, 0x00,
   0x00, 0x00, 0x00, 0x00, 0xa0, 0x04, 0x00, 0x32, 0x01, 0x57, 0x80, 0x8a,
   0x00, 0x00, 0x00, 0x01, 0x54, 0x04, 0x00, 0x00, 0x00, 0x00, 0x00, 0x00,
   0x00, 0x00, 0x00, 0x00, 0x00, 0x00, 0x00, 0x00, 0x00, 0x00, 0x00, 0x00,
   0x00, 0x40, 0x14, 0x00, 0xe4, 0x00, 0xac, 0x32, 0x24, 0x00, 0x80, 0x02,
   0x08, 0x00, 0x40, 0x00, 0x00, 0x00, 0x00, 0x00, 0x00, 0x00, 0x00, 0x00,
   0x00, 0x00, 0x00, 0x00, 0x00, 0x00, 0x00, 0x00, 0x00, 0x00, 0xc0, 0x3b,
   0x00, 0x04, 0x00, 0xfc, 0xb2, 0x85, 0x00, 0x00, 0x00, 0x00, 0x40, 0x22,
   0x00, 0x00, 0x00, 0x00, 0x00, 0x00, 0x00, 0x00, 0x00, 0x00, 0x00, 0x00,
   0x00, 0x00, 0x00, 0x00, 0x00, 0x00, 0x00, 0x80, 0x6d, 0x00, 0x49, 0x00,
   0xb8, 0x64, 0x04, 0x01, 0x00, 0x04, 0x04, 0x80, 0x20, 0x00, 0x00, 0x00,
   0x00, 0x00, 0x00, 0x00, 0x00, 0x00, 0x00, 0x00, 0x00, 0x00, 0x00, 0x00,
   0x00, 0x00, 0x00, 0x04, 0x80, 0x57, 0x40, 0x18, 0x00, 0xf0, 0x53, 0x35,
   0x00, 0x00, 0x00, 0x00, 0x02, 0x21, 0x00, 0x00, 0x00, 0x00, 0x00, 0x00,
   0x00, 0x00, 0x00, 0x00, 0x00, 0x00, 0x00, 0x00, 0x00, 0x00, 0x00, 0x00,
   0x0a, 0xc0, 0x2b, 0x00, 0x24, 0x00, 0xe0, 0x7d, 0x91, 0x00, 0x0c, 0x02,
   0x00, 0x50, 0x14, 0x00, 0x00, 0x00, 0x00, 0x00, 0x00, 0x00, 0x00, 0x00,
   0x00, 0x00, 0x00, 0x00, 0x00, 0x00, 0x00, 0x00, 0x00, 0x07, 0x00, 0xab,
   0x00, 0x04, 0x00, 0xc0, 0x6b, 0x0f, 0x90, 0x50, 0x00, 0x00, 0x40, 0x44,
   0x00, 0x00, 0x00, 0x00, 0x00, 0x00, 0x00, 0x00, 0x00, 0x00, 0x00, 0x00,
   0x00, 0x00, 0x00, 0x00, 0x00, 0x00, 0x1f, 0xa0, 0x97, 0x40, 0x00, 0x00,
   0xb1, 0xb4, 0x35, 0x41, 0x02, 0x00, 0x00, 0x80, 0x90, 0x00, 0x00, 0x00,
   0x00, 0x00, 0x00, 0x00, 0x00, 0x00, 0x00, 0x00, 0x00, 0x00, 0x00, 0x00,
   0x00, 0x00, 0x80, 0xbe, 0xae, 0x9f, 0x00, 0x00, 0x00, 0x0a, 0x60, 0x77,
   0x00, 0x00, 0x00, 0x10, 0x00, 0xa1, 0x00, 0x00, 0x00, 0x00, 0x00, 0x00,
   0x00, 0x00, 0x00, 0x00, 0x00, 0x00, 0x00, 0x00, 0x00, 0x00, 0x00, 0xc0,
   0x0b, 0xe9, 0x5f, 0x45, 0x00, 0x00, 0x24, 0x40, 0xad, 0x14, 0x01, 0x00,
   0x80, 0x00, 0x20, 0x00, 0x00, 0x00, 0x00, 0x00, 0x00, 0x00, 0x00, 0x00,
   0x00, 0x00, 0x00, 0x00, 0x00, 0x00, 0x00, 0x00, 0x20, 0x7b, 0xef, 0xbf,
   0x6e, 0x01, 0x00, 0x46, 0x81, 0xbb, 0x00, 0x20, 0x20, 0x00, 0x21, 0xa5,
   0x00, 0x00, 0x00, 0x00, 0x00, 0x00, 0x00, 0x00, 0x00, 0x00, 0x00, 0x00,
   0x00, 0x00, 0x00, 0x00, 0x00, 0xc0, 0x73, 0xfd, 0xcf, 0x99, 0x02, 0x00,
   0xda, 0x41, 0xef, 0x14, 0x00, 0x00, 0x01, 0x00, 0xe9, 0x00, 0x00, 0x00,
   0x00, 0x00, 0x00, 0x00, 0x00, 0x00, 0x00, 0x00, 0x00, 0x00, 0x00, 0x00,
   0x00, 0x00, 0x50, 0x67, 0xff, 0xef, 0x83, 0x05, 0x00, 0x58, 0x01, 0xdf,
   0x4b, 0x01, 0x40, 0x00, 0x20, 0x00, 0x00, 0x00, 0x00, 0x00, 0x00, 0x00,
   0x00, 0x00, 0x00, 0x00, 0x00, 0x00, 0x00, 0x00, 0x00, 0x00, 0x00, 0xa0,
   0x5d, 0xff, 0xbe, 0x00, 0x00, 0x00, 0x22, 0x80, 0xbb, 0x02, 0x14, 0x08,
   0x05, 0x40, 0x60, 0x00, 0x00, 0x00, 0x00, 0x00, 0x00, 0x00, 0x00, 0x00,
   0x00, 0x00, 0x00, 0x00, 0x00, 0x00, 0x00, 0x00, 0xa0, 0xf7, 0xff, 0xbe,
   0x01, 0x02, 0x00, 0x80, 0x00, 0x57, 0x0f, 0x00, 0x00, 0x00, 0x85, 0x82,
   0x00, 0x00, 0x00, 0x00, 0x00, 0x00, 0x00, 0x00, 0x00, 0x00, 0x00, 0x00,
   0x00, 0x00, 0x00, 0x00, 0x00, 0xc0, 0xfd, 0xff, 0x53, 0x00, 0x04, 0x00,
   0x00, 0x3c, 0xfd, 0x52, 0xd1, 0x02, 0x08, 0x00, 0x68, 0x00, 0x00, 0x00,
   0x00, 0x00, 0x00, 0x88, 0xfa, 0xbf, 0x00, 0x00, 0x00, 0x00, 0x00, 0x00,
   0x00, 0x00, 0x80, 0xfb, 0x9f, 0x56, 0x00, 0x00, 0x00, 0x40, 0x1b, 0xfc,
   0x2e, 0x05, 0x54, 0x01, 0x04, 0x88, 0x00, 0x00, 0x00, 0x00, 0x00, 0x00,
   0x20, 0x01, 0x54, 0x17, 0x85, 0x16, 0x00, 0x00, 0x00, 0x00, 0x00, 0x80,
   0xff, 0xff, 0x0b, 0x00, 0x00, 0x00, 0x90, 0x02, 0x78, 0xab, 0x88, 0x04,
   0x08, 0x20, 0xa1, 0x00, 0x00, 0x00, 0x00, 0x00, 0x40, 0xad, 0xa6, 0xaa,
   0x54, 0x08, 0x05, 0x00, 0x00, 0x00, 0x00, 0x00, 0x00, 0xfe, 0x2b, 0x08,
   0x00, 0x49, 0x00, 0x00, 0x00, 0xeb, 0x5f, 0x29, 0x10, 0x00, 0x00, 0x94,
   0x00, 0x00, 0x00, 0x00, 0x00, 0x15, 0x25, 0x49, 0x94, 0x00, 0x51, 0x10,
   0x00, 0x00, 0x00, 0x00, 0x00, 0x00, 0xfb, 0xa4, 0x20, 0x00, 0x00, 0x08,
   0x40, 0xc0, 0xaf, 0xbf, 0x80, 0x80, 0x24, 0x10, 0x44, 0x00, 0x00, 0x00,
   0x00, 0x40, 0xd5, 0x54, 0x95, 0x91, 0x8a, 0x54, 0x50, 0xdd, 0x12, 0x02,
   0x00, 0x00, 0x20, 0xfc, 0x05, 0x14, 0x00, 0x00, 0x00, 0x02, 0xc0, 0x4a,
   0xf5, 0x03, 0x94, 0x88, 0x00, 0x89, 0x00, 0x00, 0x00, 0x00, 0x10, 0x29,
   0xa5, 0x2a, 0xa2, 0x40, 0x08, 0xea, 0xfb, 0x51, 0x07, 0x00, 0x00, 0x00,
   0x2e, 0x90, 0x22, 0x00, 0x01, 0x38, 0x04, 0xf0, 0xc1, 0xff, 0x45, 0x21,
   0x05, 0x02, 0x10, 0x00, 0x00, 0x00, 0x00, 0xa0, 0xaa, 0x8c, 0x4a, 0x15,
   0x94, 0x0a, 0xba, 0x5b, 0x12, 0x04, 0x00, 0x00, 0x40, 0x14, 0x25, 0x02,
   0x00, 0x00, 0x20, 0x01, 0xc0, 0x0f, 0xde, 0x95, 0x40, 0x10, 0x00, 0x06,
   0x00, 0x00, 0x00, 0x00, 0x5a, 0x52, 0x49, 0x52, 0x52, 0x09, 0x85, 0x7d,
   0x7f, 0x05, 0x08, 0x00, 0x00, 0x00, 0x8b, 0x04, 0x00, 0x00, 0x00, 0x20,
   0x04, 0x40, 0x2d, 0xfe, 0x97, 0x02, 0x50, 0x0a, 0x00, 0x00, 0x00, 0x00,
   0x40, 0xa9, 0x94, 0x4a, 0x45, 0x15, 0x52, 0x23, 0x4d, 0xff, 0x1f, 0x09,
   0x00, 0x00, 0xe0, 0x21, 0x21, 0x00, 0x02, 0x00, 0x00, 0x08, 0x00, 0x28,
   0xf4, 0x35, 0x94, 0x42, 0x01, 0x00, 0x00, 0x00, 0x00, 0x40, 0x4a, 0x25,
   0x91, 0x2c, 0x29, 0x84, 0xc2, 0xf7, 0xff, 0x56, 0x34, 0x00, 0x00, 0x88,
   0x4e, 0x04, 0x00, 0x59, 0x04, 0x40, 0x06, 0x80, 0x42, 0xfe, 0x57, 0x45,
   0x1d, 0x02, 0x00, 0x00, 0x00, 0x00, 0x50, 0x94, 0x2a, 0xa2, 0xa2, 0x22,
   0xa0, 0x61, 0xbd, 0x3e, 0x55, 0xe1, 0x03, 0xf0, 0x9b, 0x54, 0x20, 0x60,
   0xa4, 0x00, 0x00, 0x0c, 0x00, 0x14, 0xbc, 0x2d, 0x7d, 0x59, 0x00, 0x00,
   0x00, 0x00, 0x00, 0x40, 0x55, 0x49, 0xa9, 0x28, 0x0c, 0xd6, 0xe1, 0xaf,
   0xc5, 0x52, 0xed, 0xff, 0xff, 0x57, 0x04, 0x00, 0xa8, 0x5a, 0x08, 0x00,
   0x12, 0x00, 0x25, 0xf6, 0xf5, 0xcd, 0x36, 0x00, 0x40, 0x00, 0x00, 0x00,
   0x58, 0xa5, 0x52, 0x55, 0x55, 0x49, 0x90, 0xa1, 0x6a, 0x4d, 0xaa, 0xd1,
   0xff, 0xff, 0x8a, 0x00, 0x92, 0xaa, 0xa6, 0x42, 0x01, 0x14, 0x40, 0xfd,
   0x7e, 0xab, 0xb5, 0x0d, 0x00, 0x00, 0x00, 0x00, 0x00, 0x80, 0x44, 0x91,
   0x0a, 0x55, 0x10, 0xea, 0xf0, 0x5f, 0xdf, 0x36, 0x33, 0xff, 0x3f, 0x55,
   0x48, 0x94, 0xb6, 0x9b, 0x10, 0x01, 0x04, 0x20, 0x40, 0xdf, 0xda, 0x6f,
   0x01, 0xd0, 0x40, 0x00, 0x00, 0x00, 0xaa, 0x5a, 0xb5, 0x6a, 0xd5, 0x11,
   0xc8, 0x60, 0x6b, 0x43, 0x55, 0x4a, 0xfe, 0x77, 0x15, 0x80, 0xa5, 0xf6,
   0xb6, 0x02, 0x02, 0x28, 0x04, 0x00, 0xbc, 0xfb, 0x2e, 0x00, 0x00, 0x00,
   0x00, 0x00, 0x00, 0x90, 0x8a, 0x68, 0xab, 0x12, 0x0a, 0xc5, 0xf0, 0xdb,
   0xb4, 0xbf, 0x57, 0xf0, 0xaf, 0x52, 0x5b, 0xf4, 0xd7, 0x5b, 0x04, 0x08,
   0xa8, 0x00, 0x00, 0xfc, 0x9f, 0x1f, 0xa0, 0x00, 0x01, 0x00, 0x00, 0x00,
   0x10, 0x2a, 0x49, 0x54, 0x6b, 0x19, 0xd2, 0xe1, 0xff, 0x69, 0x6d, 0x5e,
   0xf0, 0x6d, 0x55, 0xaa, 0xad, 0xb6, 0xaa, 0x20, 0x08, 0x50, 0x02, 0x00,
   0xf8, 0x50, 0x5a, 0x8c, 0x00, 0x40, 0x00, 0x00, 0x00, 0xa2, 0x52, 0xaa,
   0xa2, 0x56, 0x95, 0xaa, 0xf0, 0xff, 0xfa, 0xd7, 0x2e, 0xf7, 0x51, 0x52,
   0x29, 0x89, 0xa8, 0x16, 0x00, 0x20, 0x80, 0x00, 0x00, 0xf0, 0x81, 0x26,
   0x03, 0xb4, 0x04, 0x00, 0x00, 0x00, 0x4a, 0x94, 0x80, 0x5c, 0xad, 0x14,
   0xa2, 0xe1, 0x7f, 0xff, 0xbf, 0x58, 0xfd, 0xab, 0x4e, 0x0b, 0x10, 0x44,
   0x55, 0x92, 0x40, 0x51, 0x01, 0x00, 0x60, 0x00, 0x28, 0x84, 0x00, 0x00,
   0x00, 0x00, 0x80, 0x20, 0x25, 0x55, 0x63, 0x55, 0x25, 0xab, 0xe1, 0xff,
   0xff, 0xff, 0x5e, 0xf9, 0x37, 0xb1, 0x95, 0x42, 0x09, 0x94, 0x01, 0x04,
   0x04, 0x03, 0x00, 0x20, 0x00, 0x21, 0x09, 0x00, 0x08, 0x00, 0x00, 0x00,
   0x24, 0xa9, 0x24, 0xac, 0xaa, 0x16, 0x2a, 0xc3, 0xff, 0xff, 0xff, 0x5a,
   0x08, 0x7f, 0x3f, 0x25, 0x52, 0x21, 0x11, 0x05, 0x01, 0x01, 0x00, 0x00,
   0x20, 0x00, 0x08, 0x0d, 0x10, 0x29, 0x00, 0x00, 0x80, 0x42, 0x02, 0xa9,
   0x55, 0xad, 0x94, 0xe2, 0xe2, 0xff, 0xff, 0xff, 0x3a, 0x01, 0xfe, 0x55,
   0x89, 0x48, 0xa6, 0x44, 0x09, 0x40, 0x00, 0x00, 0x00, 0x20, 0x00, 0x20,
   0x52, 0x01, 0x00, 0x00, 0x00, 0x00, 0x14, 0x35, 0x45, 0xd5, 0x1a, 0x4a,
   0xa2, 0xc3, 0xff, 0xff, 0xff, 0x1a, 0x01, 0xfc, 0x6f, 0x13, 0xc1, 0x2a,
   0x09, 0x02, 0x02, 0x00, 0x00, 0x00, 0x40, 0x00, 0x09, 0x74, 0x13, 0x20,
   0x00, 0x00, 0x00, 0x80, 0x44, 0x52, 0x35, 0xe5, 0x14, 0x44, 0x86, 0xff,
   0xff, 0xbf, 0x5a, 0x43, 0xbc, 0xab, 0x22, 0x30, 0x6b, 0xd5, 0x4a, 0x00,
   0x00, 0x00, 0x00, 0x02, 0x00, 0x04, 0xec, 0x01, 0x80, 0x00, 0x00, 0x00,
   0x15, 0x4d, 0xaa, 0xea, 0x2a, 0x15, 0x49, 0x0d, 0xff, 0x3f, 0xfd, 0x1b,
   0x82, 0xf8, 0xb6, 0x44, 0xa5, 0xb6, 0x05, 0x15, 0x01, 0x04, 0x00, 0x80,
   0x16, 0x80, 0x0a, 0x29, 0x51, 0x00, 0x00, 0x00, 0x00, 0x24, 0x91, 0x64,
   0xab, 0x94, 0x8a, 0xa4, 0x4e, 0xfd, 0xff, 0xfa, 0x15, 0xa5, 0xb8, 0x4b,
   0x91, 0x2a, 0xfd, 0x4a, 0xa0, 0x00, 0x00, 0x00, 0x00, 0x7f, 0x00, 0x5b,
   0x7f, 0x21, 0x10, 0x00, 0x00, 0x00, 0xa0, 0x94, 0x49, 0xad, 0x33, 0x1a,
   0x55, 0x3f, 0xfa, 0xbf, 0xe5, 0x76, 0x80, 0xb5, 0xbc, 0x06, 0x50, 0xd2,
   0x16, 0x0a, 0x02, 0x00, 0x00, 0x80, 0x74, 0x05, 0xf2, 0xd5, 0x00, 0x20,
   0x00, 0x00, 0x00, 0x85, 0x52, 0xea, 0x55, 0xd5, 0x46, 0x4a, 0x6b, 0xad,
   0xbf, 0xad, 0x2f, 0x40, 0xdd, 0xab, 0x3a, 0x2b, 0xaf, 0x55, 0x41, 0x80,
   0x00, 0x00, 0x00, 0xbf, 0xed, 0x5f, 0x3f, 0x02, 0x02, 0x00, 0x00, 0x00,
   0x10, 0x92, 0x8a, 0xb6, 0xa6, 0x1a, 0x94, 0xff, 0xfb, 0xff, 0x09, 0xad,
   0x80, 0xb7, 0xaa, 0x6a, 0x64, 0x59, 0xaf, 0x06, 0x15, 0x00, 0x00, 0x00,
   0xfa, 0xed, 0x7b, 0xf5, 0xee, 0x00, 0x00, 0x00, 0x00, 0xc2, 0x48, 0x54,
   0xc9, 0xaa, 0x45, 0x95, 0xf5, 0xe7, 0xf7, 0xa3, 0xab, 0x80, 0xde, 0xae,
   0x5a, 0xf5, 0xef, 0x3a, 0x09, 0xa5, 0x00, 0x00, 0x80, 0xda, 0xba, 0xde,
   0x5f, 0xab, 0x0b, 0x00, 0x00, 0x00, 0x80, 0x5a, 0xb5, 0x5e, 0x55, 0x0d,
   0x6a, 0xfe, 0x5f, 0xfd, 0x87, 0x27, 0x80, 0x5f, 0x95, 0xa4, 0xb6, 0xda,
   0xff, 0x6a, 0x49, 0x20, 0x00, 0x01, 0x7a, 0xf4, 0xbd, 0x7d, 0x77, 0x57,
   0x00, 0x00, 0x00, 0x50, 0xa0, 0xea, 0x7a, 0xd5, 0x6a, 0x0a, 0xfd, 0xff,
   0xfe, 0xd9, 0xdf, 0x60, 0xff, 0x36, 0x6c, 0xa5, 0x5b, 0xa1, 0x8a, 0x55,
   0x00, 0x01, 0x80, 0xf4, 0x88, 0xdb, 0xd6, 0xda, 0x1d, 0x00, 0x00, 0x00,
   0x42, 0x8b, 0x54, 0xa5, 0xd4, 0x0a, 0x3d, 0xfc, 0xff, 0xff, 0xef, 0xff,
   0xe3, 0xdf, 0xd2, 0xd5, 0x5d, 0xdd, 0xb7, 0x5a, 0x45, 0x20, 0x00, 0x00,
   0xe8, 0x15, 0x40, 0xd9, 0xba, 0x2a, 0x00, 0x00, 0x00, 0x40, 0x34, 0x65,
   0xdd, 0x2a, 0xd7, 0x0a, 0xfe, 0xff, 0xff, 0xff, 0xff, 0xd5, 0xff, 0xad,
   0x7a, 0x6b, 0xa5, 0x6e, 0xa9, 0x9a, 0x00, 0x00, 0x00, 0x3a, 0x15, 0x00,
   0xb4, 0x77, 0xaf, 0x00, 0x00, 0x00, 0x44, 0x25, 0xa4, 0xd9, 0xea, 0x14,
   0x55, 0xff, 0xff, 0xff, 0xff, 0x3f, 0xf4, 0xff, 0xf7, 0x56, 0xaf, 0xda,
   0x56, 0x85, 0x2a, 0x00, 0x00, 0x00, 0xe8, 0xfa, 0x46, 0x24, 0xec, 0xb9,
   0x00, 0x00, 0x00, 0x48, 0xa9, 0x45, 0x2b, 0xab, 0x53, 0x95, 0xed, 0xff,
   0xff, 0xff, 0xff, 0xff, 0xff, 0x7f, 0xef, 0x55, 0x95, 0x5d, 0x15, 0xaa,
   0x00, 0x00, 0x01, 0x42, 0x2d, 0xfb, 0x01, 0x58, 0x47, 0x00, 0x00, 0x00,
   0x08, 0x2a, 0x4a, 0xd5, 0x2a, 0x4a, 0x16, 0xfd, 0xff, 0xff, 0xff, 0xfe,
   0xff, 0xff, 0xff, 0x2d, 0xd5, 0x5a, 0x78, 0x2b, 0x68, 0x00, 0x00, 0xc0,
   0x00, 0xf0, 0x56, 0x00, 0xb0, 0xbd, 0x00, 0x00, 0x00, 0xa0, 0xaa, 0x44,
   0x5a, 0xd6, 0xaa, 0xcd, 0xff, 0xff, 0xff, 0xff, 0xfb, 0xff, 0xff, 0xff,
   0x53, 0x35, 0x6d, 0xf7, 0x9e, 0x92, 0x00, 0x00, 0x29, 0x00, 0x50, 0x2f,
   0x00, 0xc0, 0x76, 0x00, 0x00, 0x00, 0x00, 0x95, 0xa9, 0xd6, 0xaa, 0x12,
   0x5b, 0xff, 0xff, 0xff, 0xff, 0x7e, 0xff, 0xff, 0xff, 0xa7, 0xcb, 0xef,
   0xda, 0x33, 0x52, 0x00, 0x00, 0x0e, 0x00, 0xe0, 0x06, 0x00, 0x00, 0x5b,
   0x00, 0x00, 0x00, 0x00, 0xaa, 0x8a, 0x34, 0x1b, 0x14, 0xd5, 0xfe, 0xff,
   0xff, 0xff, 0x7f, 0xff, 0xd3, 0xff, 0xff, 0x6d, 0xd9, 0x6e, 0x2f, 0x50,
   0x00, 0x00, 0x0c, 0x00, 0xa0, 0x07, 0x00, 0x00, 0x34, 0x00, 0x00, 0x00,
   0x10, 0x20, 0xaa, 0x62, 0xd5, 0xa1, 0xea, 0xff, 0xff, 0xff, 0xff, 0xff,
   0xf7, 0xb7, 0xff, 0xff, 0xff, 0xbf, 0x7a, 0xad, 0xe0, 0x00, 0x00, 0x00,
   0x00, 0xe0, 0x03, 0x00, 0x00, 0x78, 0x00, 0x00, 0x00, 0x80, 0x04, 0x24,
   0x44, 0x55, 0x44, 0xba, 0xf4, 0xff, 0xff, 0xef, 0xff, 0xff, 0xff, 0xff,
   0xff, 0xab, 0xea, 0x65, 0x6d, 0x2b, 0x01, 0x00, 0x00, 0x00, 0xe0, 0x03,
   0x00, 0x00, 0xae, 0x00, 0x00, 0x00, 0x00, 0x28, 0xa9, 0xa0, 0x5a, 0xa5,
   0x72, 0xf5, 0xff, 0xff, 0xe5, 0xfe, 0xff, 0xff, 0xff, 0xff, 0xdd, 0xbf,
   0x6a, 0xc9, 0x58, 0x00, 0x00, 0x00, 0x00, 0xfb, 0x03, 0x00, 0x20, 0xb7,
   0x00, 0x00, 0x00, 0x00, 0x02, 0x00, 0x91, 0xaa, 0x5a, 0x4f, 0xf2, 0x4f,
   0x7f, 0xb5, 0xff, 0xff, 0xff, 0xff, 0xff, 0x7f, 0x35, 0xbb, 0xb5, 0xb7,
   0x01, 0x00, 0x00, 0x00, 0xb6, 0x03, 0x00, 0x10, 0xef, 0x00, 0x00, 0x00,
   0x08, 0xa0, 0x02, 0x40, 0x89, 0x74, 0x09, 0xd5, 0xd6, 0x7f, 0xa4, 0xff,
   0xff, 0xff, 0xcf, 0xff, 0xef, 0xeb, 0xf6, 0x66, 0x4e, 0x01, 0x00, 0x00,
   0x00, 0xd4, 0x03, 0x00, 0x31, 0xaf, 0x00, 0x00, 0x00, 0x00, 0x00, 0x0a,
   0x80, 0xa2, 0x8a, 0x62, 0xba, 0xc2, 0xfd, 0x1a, 0xbf, 0xff, 0xff, 0xff,
   0xff, 0xbb, 0x4d, 0xdf, 0x8b, 0xab, 0x02, 0x00, 0x00, 0x80, 0x56, 0x07,
   0x00, 0x82, 0xff, 0x00, 0x00, 0x00, 0x00, 0x04, 0x10, 0x00, 0x29, 0xb5,
   0x06, 0x4a, 0xb2, 0xe9, 0x5e, 0xfe, 0xff, 0xff, 0x7f, 0xff, 0x57, 0xdd,
   0x5d, 0x1f, 0x4d, 0x06, 0x00, 0x00, 0x00, 0xba, 0x06, 0x20, 0x94, 0xf6,
   0x00, 0x00, 0x00, 0x00, 0x40, 0x00, 0x10, 0x00, 0x25, 0xaa, 0x37, 0xfa,
   0xff, 0x3f, 0xff, 0xff, 0xff, 0xff, 0xff, 0xff, 0x7b, 0x6d, 0x71, 0xad,
   0x00, 0x00, 0x00, 0x00, 0x85, 0x0f, 0x80, 0xc0, 0xfb, 0x00, 0x00, 0x00,
   0x00, 0x00, 0x00, 0x00, 0x10, 0x45, 0x08, 0x2d, 0xc6, 0xff, 0x7f, 0xff,
   0xff, 0xff, 0xff, 0xff, 0xaf, 0xf6, 0xcd, 0xa1, 0x14, 0x05, 0x00, 0x00,
   0x00, 0x80, 0x0f, 0x78, 0xc8, 0xbb, 0x00, 0x00, 0x00, 0x00, 0x00, 0x00,
   0x00, 0x80, 0x10, 0xb7, 0x8a, 0xfd, 0xff, 0xff, 0xef, 0xff, 0xff, 0xff,
   0xff, 0xfb, 0xfe, 0x6d, 0x4a, 0xe9, 0x0e, 0x00, 0x00, 0x40, 0x00, 0x3f,
   0x5e, 0xf5, 0xfe, 0x00, 0x00, 0x00, 0x00, 0x00, 0x00, 0x02, 0x90, 0x24,
   0x8a, 0xb5, 0x56, 0xfd, 0xff, 0xf1, 0xff, 0xff, 0xff, 0xff, 0xef, 0xde,
   0xa5, 0x50, 0x82, 0x14, 0x00, 0x00, 0x21, 0x80, 0xff, 0xfa, 0x7f, 0xb7,
   0x00, 0x00, 0x00, 0x00, 0x00, 0x00, 0x00, 0x80, 0x00, 0x5b, 0x95, 0xfa,
   0xeb, 0xdd, 0xe0, 0xff, 0xff, 0xdf, 0xff, 0xb7, 0xb7, 0x0a, 0x21, 0x65,
   0x2b, 0x00, 0x00, 0x00, 0xc0, 0x5f, 0xff, 0xdf, 0xff, 0x00, 0x00, 0x00,
   0x10, 0x00, 0x00, 0x00, 0x44, 0x00, 0x8e, 0x14, 0xbe, 0xad, 0x4f, 0xf8,
   0xff, 0xff, 0xbf, 0xff, 0xff, 0xbe, 0x14, 0x4a, 0x4a, 0x26, 0x00, 0x00,
   0x00, 0x40, 0x5f, 0xff, 0xff, 0xff, 0x00, 0x00, 0x00, 0x00, 0x00, 0x00,
   0x01, 0x10, 0x81, 0x07, 0x82, 0x75, 0xfb, 0x76, 0xff, 0xff, 0xff, 0x5f,
   0xff, 0xaf, 0xeb, 0x14, 0x15, 0x31, 0x2c, 0x00, 0x00, 0x00, 0xf0, 0x15,
   0xe8, 0x7f, 0xf7, 0x00, 0x00, 0x00, 0x00, 0x00, 0x00, 0x00, 0x00, 0x80,
   0x27, 0x80, 0xd7, 0xef, 0xd7, 0xff, 0xff, 0xff, 0x3f, 0xfa, 0x5f, 0xaf,
   0x49, 0x02, 0x40, 0xd9, 0x00, 0x00, 0x00, 0x80, 0x8d, 0x4a, 0xe3, 0xf6,
   0x00, 0x00, 0x00, 0x00, 0x00, 0x00, 0x00, 0x00, 0xa0, 0x06, 0xc2, 0xff,
   0xff, 0xfe, 0xff, 0xff, 0xff, 0xff, 0xf4, 0xff, 0x7a, 0x52, 0x51, 0x2b,
   0x36, 0x00, 0x00, 0x00, 0x00, 0x7d, 0x52, 0x80, 0xbf, 0x00, 0x00, 0x00,
   0x00, 0x00, 0x08, 0x00, 0x08, 0xe0, 0x4e, 0x50, 0x55, 0xef, 0xb3, 0xff,
   0xff, 0xfd, 0xff, 0xf9, 0xff, 0x86, 0x55, 0x21, 0x88, 0x6c, 0x01, 0x00,
   0x00, 0xd0, 0xeb, 0x2e, 0x80, 0xfe, 0x00, 0x00, 0x00, 0x00, 0x00, 0x00,
   0x00, 0x00, 0xc4, 0x0b, 0x62, 0xfd, 0xfd, 0xde, 0xfe, 0xff, 0xfc, 0xff,
   0xfd, 0xef, 0x95, 0x52, 0x12, 0x41, 0xb5, 0x04, 0x00, 0x00, 0x40, 0x2f,
   0x3d, 0x00, 0xff, 0x00, 0x00, 0x00, 0x00, 0x00, 0x02, 0x00, 0x00, 0x14,
   0x0b, 0x10, 0xa1, 0xdf, 0x5b, 0xd7, 0xbf, 0xbe, 0x7f, 0xff, 0xbe, 0x15,
   0x8a, 0x54, 0x16, 0xeb, 0x01, 0x00, 0x00, 0x88, 0x54, 0x1b, 0x00, 0xf8,
   0x00, 0x00, 0x00, 0x00, 0x00, 0x00, 0x00, 0x00, 0xfc, 0x0f, 0x08, 0x96,
   0xfe, 0x56, 0x31, 0xbf, 0xe2, 0xfe, 0xff, 0xff, 0xab, 0x2a, 0x81, 0x20,
   0x14, 0x05, 0x00, 0x00, 0x70, 0xff, 0x3f, 0x00, 0xc8, 0x00, 0x00, 0x00,
   0x00, 0x00, 0x00, 0x00, 0x00, 0xdc, 0x17, 0x0a, 0xa8, 0xf4, 0x97, 0x20,
   0xf6, 0xe8, 0xff, 0xfe, 0xbf, 0x8a, 0x08, 0x12, 0xe5, 0x7a, 0x01, 0x00,
   0x00, 0x40, 0xfe, 0x1f, 0x00, 0xa0, 0x00, 0x00, 0x00, 0x00, 0x00, 0x00,
   0x00, 0x00, 0xf8, 0x07, 0x00, 0x00, 0xba, 0x55, 0x03, 0xef, 0xff, 0xf1,
   0xff, 0xeb, 0x3b, 0x22, 0x48, 0x92, 0xaa, 0x02, 0x20, 0x00, 0xa8, 0xfe,
   0x17, 0x00, 0x48, 0x00, 0x00, 0x00, 0x00, 0x00, 0x00, 0x00, 0x00, 0xfc,
   0x07, 0x0a, 0xc0, 0xe4, 0x7f, 0x95, 0xfd, 0xfd, 0xe0, 0xff, 0x7f, 0x67,
   0x4a, 0x01, 0x88, 0xd6, 0x07, 0xe0, 0x02, 0xa0, 0xfd, 0x0f, 0x00, 0x00,
   0x00, 0x00, 0x00, 0x00, 0x00, 0x00, 0x00, 0x00, 0xf8, 0x07, 0x08, 0x00,
   0x94, 0x95, 0xd4, 0xff, 0xdf, 0x80, 0xff, 0xdf, 0x2e, 0xa2, 0x8a, 0x52,
   0x69, 0x05, 0x44, 0x11, 0x40, 0xa0, 0x0f, 0x00, 0x00, 0x00, 0x00, 0x00,
   0x00, 0x00, 0x00, 0x00, 0x00, 0xfa, 0x83, 0x07, 0x00, 0x50, 0xb4, 0xa8,
   0xbf, 0xff, 0xb7, 0xff, 0xfb, 0xed, 0x12, 0x14, 0x22, 0xfb, 0x82, 0xd0,
   0x32, 0x20, 0x00, 0x0e, 0x00, 0x00, 0x00, 0x00, 0x00, 0x00, 0x00, 0x00,
   0x00, 0x00, 0xfa, 0x81, 0x13, 0x00, 0x40, 0x15, 0xe5, 0xd7, 0xff, 0xff,
   0xff, 0xdf, 0xbf, 0x56, 0x41, 0x4c, 0xac, 0x0e, 0x4a, 0x05, 0x00, 0x00,
   0x1c, 0x00, 0x02, 0x00, 0x00, 0x00, 0x00, 0x00, 0x00, 0x00, 0x00, 0xfe,
   0xe1, 0x17, 0x00, 0x08, 0x61, 0xbd, 0xbe, 0xff, 0xfd, 0xff, 0xfb, 0xb7,
   0xb7, 0x80, 0x88, 0xf7, 0x0b, 0xe8, 0x1d, 0x00, 0x00, 0x18, 0x80, 0xf5,
   0x00, 0x00, 0x00, 0x00, 0x00, 0x00, 0x40, 0x00, 0xfe, 0xc1, 0x27, 0x00,
   0x00, 0x0a, 0xc1, 0x5d, 0x3f, 0xf8, 0xff, 0xff, 0xb6, 0x5a, 0x2a, 0x41,
   0x2c, 0x1d, 0x90, 0x22, 0x00, 0x80, 0x38, 0xc0, 0xdf, 0x00, 0x00, 0x00,
   0x00, 0x00, 0x00, 0x00, 0x00, 0xfe, 0xe0, 0x0f, 0x00, 0x00, 0x50, 0xd4,
   0x5d, 0x47, 0xd8, 0xff, 0xef, 0xf7, 0xb6, 0x42, 0x0a, 0xba, 0x77, 0xb1,
   0x16, 0x00, 0x80, 0x78, 0xf0, 0xdd, 0x00, 0x00, 0x00, 0x00, 0x00, 0x00,
   0x00, 0x00, 0x7e, 0xc0, 0x4b, 0x00, 0x00, 0x01, 0x81, 0xb7, 0x05, 0xee,
   0xff, 0xbf, 0x5e, 0xbb, 0x04, 0xa8, 0x54, 0x55, 0x40, 0x6f, 0x00, 0x00,
   0x30, 0xd8, 0xbf, 0x00, 0x00, 0x00, 0x00, 0x00, 0x00, 0x00, 0x00, 0xfc,
   0xe0, 0x17, 0x00, 0x20, 0x1a, 0x08, 0xdf, 0x83, 0xfd, 0xff, 0xff, 0x5d,
   0x55, 0x17, 0xa0, 0x68, 0x5f, 0x55, 0x49, 0x00, 0x80, 0x20, 0xea, 0xff,
   0x00, 0x00, 0x00, 0x00, 0x00, 0x00, 0x00, 0x00, 0x7d, 0xa4, 0x47, 0x00,
   0x00, 0x40, 0xd2, 0xfb, 0x45, 0x1f, 0xfd, 0x7f, 0xf5, 0x6e, 0x25, 0x45,
   0x29, 0x3b, 0x95, 0xbe, 0x00, 0x00, 0x90, 0x5f, 0xdf, 0x00, 0x00, 0x00,
   0x00, 0x00, 0x00, 0x00, 0x00, 0x7d, 0xe8, 0x0f, 0x00, 0x00, 0x05, 0xa0,
   0xff, 0x49, 0xf5, 0xff, 0xff, 0xdf, 0xd1, 0x1e, 0x80, 0xa2, 0xf6, 0x25,
   0x52, 0x01, 0x00, 0xc2, 0x06, 0xd0, 0x00, 0x00, 0x00, 0x00, 0x00, 0x00,
   0x00, 0x00, 0x7b, 0xe4, 0x4f, 0x00, 0x00, 0x48, 0xe0, 0xff, 0xd3, 0xbf,
   0xfe, 0xff, 0x51, 0xab, 0x12, 0x04, 0x7a, 0x3f, 0x4b, 0xb7, 0x02, 0x00,
   0xc9, 0x07, 0x00, 0x00, 0x00, 0x00, 0x00, 0x00, 0x00, 0x00, 0x00, 0x7d,
   0xf2, 0x4f, 0x00, 0x40, 0x42, 0xa0, 0xff, 0xe7, 0xff, 0xff, 0xbf, 0xfb,
   0x89, 0x76, 0xe4, 0xc2, 0x6e, 0x17, 0xde, 0x02, 0x00, 0x21, 0x00, 0x00,
   0x00, 0x00, 0x00, 0x00, 0x00, 0x00, 0x00, 0x00, 0xfe, 0xf2, 0x19, 0x00,
   0x00, 0x12, 0xf4, 0x7f, 0xe3, 0xff, 0xff, 0xff, 0x5e, 0x8b, 0x72, 0x98,
   0xba, 0xfd, 0x45, 0xa8, 0x03, 0x00, 0x08, 0x00, 0x00, 0x00, 0x00, 0x00,
   0x00, 0x00, 0x00, 0x00, 0x00, 0xfe, 0xfe, 0x80, 0x00, 0xa0, 0x00, 0xe4,
   0xff, 0x27, 0xf1, 0xff, 0xff, 0x7d, 0x0b, 0xd4, 0xc9, 0xfe, 0x55, 0x8f,
   0xf7, 0x06, 0x00, 0x02, 0x00, 0x00, 0x00, 0x00, 0x00, 0x00, 0x00, 0x00,
   0x00, 0x00, 0xfc, 0x7f, 0x40, 0x00, 0x00, 0x15, 0xfc, 0xff, 0x0f, 0x88,
   0xff, 0xff, 0xeb, 0xa6, 0xfa, 0xb7, 0xb5, 0x4b, 0x13, 0x54, 0x05, 0x00,
   0x05, 0x00, 0x00, 0x00, 0x00, 0x20, 0x02, 0x00, 0x00, 0x00, 0x00, 0xfc,
   0xff, 0x80, 0x01, 0x20, 0x00, 0xfb, 0xff, 0x1f, 0xfd, 0xff, 0xff, 0xd9,
   0x4d, 0x95, 0xae, 0xff, 0x1a, 0x26, 0x55, 0x07, 0x00, 0x0c, 0x00, 0x00,
   0x00, 0x00, 0x00, 0x08, 0x00, 0x00, 0x00, 0x00, 0xf8, 0xfd, 0x41, 0x01,
   0x60, 0x81, 0xfe, 0xff, 0x67, 0xea, 0xff, 0xff, 0xef, 0x37, 0x51, 0xfb,
   0xfe, 0x4d, 0x0b, 0xeb, 0x12, 0x00, 0x06, 0x80, 0x00, 0x00, 0x00, 0x80,
   0x00, 0x00, 0x00, 0x00, 0x00, 0xf8, 0xff, 0x89, 0x00, 0x50, 0xa1, 0xfd,
   0xff, 0x9b, 0xfd, 0xff, 0xff, 0xbf, 0xae, 0x0e, 0xfa, 0xb5, 0x58, 0x29,
   0xaa, 0x16, 0x81, 0x06, 0x80, 0x00, 0x00, 0x00, 0x00, 0x00, 0x00, 0x00,
   0x00, 0x00, 0xfc, 0xef, 0xd0, 0x03, 0x10, 0x50, 0xfd, 0xff, 0x55, 0xfe,
   0xff, 0xff, 0xff, 0x6f, 0xe9, 0xf6, 0xff, 0x8e, 0x0a, 0x4c, 0x19, 0x40,
   0x0f, 0x00, 0x01, 0x00, 0x00, 0x20, 0x02, 0x00, 0x00, 0x00, 0x00, 0xf8,
   0xef, 0x98, 0x01, 0x24, 0xd4, 0xe6, 0xbf, 0xff, 0xff, 0xff, 0xff, 0xbf,
   0x6d, 0x97, 0xaa, 0xed, 0xfc, 0x53, 0x5c, 0x3b, 0x00, 0x07, 0x50, 0x07,
   0x00, 0x00, 0x80, 0x00, 0x00, 0x00, 0x00, 0x00, 0xf8, 0xdf, 0xef, 0x23,
   0x11, 0x78, 0xdf, 0xff, 0xf7, 0x7f, 0xff, 0xff, 0xff, 0x5e, 0xa1, 0xf8,
   0xfa, 0xff, 0x15, 0xa9, 0x36, 0xa0, 0x06, 0x60, 0xab, 0x00, 0x00, 0x00,
   0x00, 0x00, 0x00, 0x00, 0x00, 0xf0, 0xff, 0xff, 0x15, 0x12, 0x3f, 0xfb,
   0x7f, 0xff, 0x2f, 0xff, 0xff, 0xff, 0xeb, 0x47, 0xe2, 0x6b, 0x7f, 0x17,
   0xae, 0x36, 0x00, 0x04, 0xc0, 0xfe, 0x00, 0x00, 0x10, 0x01, 0x00, 0x00,
   0x00, 0x00, 0xf8, 0xff, 0xff, 0x6f, 0xa9, 0xbf, 0xf7, 0xff, 0xff, 0xaf,
   0xfe, 0xff, 0xff, 0xbf, 0x2a, 0xf9, 0xd6, 0xff, 0x8f, 0x9a, 0x3e, 0x00,
   0x56, 0xf3, 0xff, 0x00, 0x00, 0x20, 0x02, 0x00, 0x00, 0x00, 0x00, 0xf0,
   0xff, 0xff, 0x1a, 0xfa, 0xdf, 0xf3, 0xff, 0xff, 0x43, 0xfd, 0xff, 0xff,
   0xff, 0x6f, 0xe3, 0x6f, 0xff, 0x16, 0x35, 0x32, 0x02, 0xf0, 0xdf, 0xdf,
   0x00, 0x00, 0x00, 0x10, 0x00, 0x00, 0x00, 0x00, 0xf0, 0xff, 0x1f, 0x0a,
   0xfa, 0xff, 0xff, 0xff, 0xff, 0x9d, 0xfe, 0xff, 0xff, 0xff, 0x2d, 0xa9,
   0xfa, 0xbf, 0xcf, 0x56, 0x75, 0xa1, 0xff, 0xff, 0x0f, 0x00, 0x00, 0x48,
   0x00, 0x00, 0x00, 0x00, 0x00, 0xf0, 0xff, 0x1f, 0x81, 0xd6, 0x3b, 0xfc,
   0xdf, 0xff, 0xf3, 0xff, 0xff, 0xff, 0xff, 0x6f, 0xf5, 0x6e, 0xbf, 0x5d,
   0x2b, 0x6f, 0x40, 0xa8, 0xff, 0x09, 0x00, 0x00, 0x04, 0x02, 0x00, 0x00,
   0x00, 0x00, 0xe0, 0xff, 0x0b, 0xa1, 0xa9, 0xdf, 0xbf, 0xef, 0x7f, 0xf5,
   0x7f, 0xff, 0xff, 0xff, 0xbd, 0xfd, 0xfb, 0xef, 0x5b, 0xc5, 0xb4, 0x00,
   0xb8, 0x7f, 0x00, 0x00, 0x00, 0x00, 0x00, 0x00, 0x00, 0x00, 0x00, 0xe0,
   0xff, 0x8f, 0xb4, 0x70, 0xff, 0xdf, 0xef, 0xff, 0xbf, 0xfb, 0xff, 0xff,
   0xff, 0x6f, 0x7a, 0xef, 0xbf, 0x57, 0x21, 0xfd, 0x00, 0xf8, 0xdf, 0x00,
   0x00, 0x00, 0x24, 0x42, 0x00, 0x00, 0x00, 0x00, 0x80, 0xff, 0xef, 0xcb,
   0xa8, 0xff, 0xdf, 0xef, 0xff, 0x15, 0xfc, 0xff, 0xff, 0xff, 0xbb, 0xed,
   0xfb, 0xff, 0xff, 0x95, 0x6a, 0x80, 0xf6, 0x3f, 0x00, 0x00, 0x00, 0x40,
   0x04, 0x00, 0x00, 0x00, 0x00, 0x80, 0xff, 0xbd, 0x22, 0xba, 0xfe, 0xd7,
   0xbf, 0xae, 0xf7, 0xff, 0xff, 0xff, 0xff, 0xf7, 0x7e, 0xff, 0xff, 0xbd,
   0x95, 0xad, 0x54, 0xa9, 0x0f, 0x00, 0x00, 0x00, 0x04, 0x00, 0x00, 0x00,
   0x00, 0x00, 0x00, 0x7f, 0x04, 0x3a, 0xa8, 0x7f, 0xff, 0x0f, 0xde, 0xdb,
   0xff, 0xff, 0xff, 0xff, 0xff, 0xed, 0xff, 0x7f, 0xf7, 0x54, 0xda, 0x00,
   0x80, 0x1f, 0x80, 0x00, 0x00, 0x08, 0x00, 0x00, 0x00, 0x00, 0x00, 0x00,
   0x1f, 0xc8, 0x0d, 0x38, 0xff, 0xff, 0x27, 0xf4, 0xff, 0xff, 0xff, 0xff,
   0xff, 0xff, 0xfd, 0xff, 0x7f, 0xad, 0x25, 0xf7, 0x00, 0x10, 0x1f, 0x00,
   0x00, 0x00, 0xa2, 0x80, 0x00, 0x00, 0x80, 0x00, 0x00, 0x4d, 0xa8, 0x2b,
   0xd0, 0xff, 0xff, 0x87, 0xfc, 0x6f, 0xfd, 0xff, 0xff, 0xff, 0xff, 0xff,
   0xff, 0xaf, 0x6f, 0x14, 0xdd, 0x00, 0x80, 0xbf, 0x00, 0x00, 0x00, 0x08,
   0x00, 0x00, 0x00, 0x00, 0x00, 0x00, 0x4d, 0x52, 0x05, 0xa8, 0xff, 0xff,
   0x83, 0x79, 0xfc, 0xff, 0xff, 0xff, 0xff, 0xff, 0xff, 0xff, 0x5f, 0x92,
   0x56, 0xdd, 0x03, 0x00, 0xff, 0x80, 0x00, 0x00, 0xa2, 0x04, 0x00, 0x00,
   0x80, 0x02, 0x00, 0x71, 0x2c, 0x00, 0x50, 0xff, 0xff, 0x47, 0xba, 0xf3,
   0xff, 0xff, 0xff, 0xff, 0xff, 0xdd, 0xff, 0xf7, 0x93, 0xa2, 0xf7, 0x06,
   0x80, 0xdf, 0x2f, 0x00, 0x00, 0x00, 0x00, 0x00, 0x00, 0x42, 0x04, 0x00,
   0x00, 0xec, 0x12, 0xd0, 0xff, 0xbf, 0x87, 0xf0, 0xfd, 0xff, 0xff, 0xff,
   0xff, 0xab, 0xfb, 0xff, 0x4e, 0xc2, 0x5d, 0xde, 0xa0, 0x80, 0xbd, 0x41,
   0x00, 0x00, 0x54, 0x00, 0x00, 0x00, 0x00, 0x09, 0x80, 0x1a, 0x16, 0x00,
   0xa8, 0xff, 0xdf, 0x87, 0xda, 0xf6, 0xff, 0xff, 0xff, 0xff, 0x7b, 0xff,
   0xff, 0x6e, 0x29, 0x63, 0x65, 0x01, 0x0a, 0x05, 0x68, 0x00, 0x00, 0x00,
   0x04, 0x04, 0x00, 0x28, 0x08, 0x10, 0x00, 0x57, 0x00, 0xb0, 0xff, 0x9f,
   0x83, 0xf0, 0xff, 0xff, 0xff, 0xff, 0xff, 0xfb, 0xff, 0xff, 0x3b, 0xa8,
   0x46, 0xc7, 0x03, 0x88, 0xa0, 0x7f, 0x00, 0x00, 0x24, 0x21, 0x00, 0x00,
   0x82, 0x12, 0x40, 0x01, 0x1b, 0x00, 0x40, 0xff, 0xa7, 0x03, 0xb5, 0xbf,
   0xfe, 0xff, 0xff, 0x7f, 0xff, 0xff, 0xff, 0x47, 0xb1, 0xdd, 0xe1, 0x1e,
   0x00, 0xba, 0x7f, 0x00, 0x00, 0x24, 0x04, 0x00, 0x00, 0x14, 0x14, 0x10,
   0x80, 0x15, 0x00, 0x50, 0xff, 0xa7, 0x03, 0xaa, 0xff, 0xff, 0xff, 0xff,
   0x3f, 0xff, 0xff, 0xff, 0x8e, 0xaa, 0xb5, 0xe0, 0xa1, 0x00, 0x74, 0x2f,
   0x00, 0x00, 0x10, 0x00, 0x01, 0x00, 0xa0, 0x04, 0x40, 0x80, 0x02, 0x00,
   0x40, 0xff, 0x67, 0x07, 0x38, 0xff, 0xff, 0xff, 0xff, 0xdf, 0xff, 0xff,
   0xff, 0x27, 0x4d, 0x5f, 0x18, 0x68, 0x01, 0xd0, 0xff, 0x00, 0x00, 0x80,
   0x00, 0x04, 0x00, 0x15, 0x1a, 0x40, 0x00, 0x04, 0x00, 0xa0, 0xfe, 0x73,
   0x03, 0x35, 0xea, 0xff, 0xff, 0xff, 0xdf, 0xff, 0xff, 0xbf, 0x56, 0xaa,
   0xba, 0x00, 0x40, 0x1d, 0x40, 0xfe, 0x00, 0x00, 0x24, 0x12, 0x01, 0x00,
   0xa0, 0x54, 0x00, 0x15, 0x02, 0x00, 0x80, 0xf8, 0xd3, 0x03, 0xfa, 0xff,
   0xdf, 0xff, 0xff, 0xe7, 0xff, 0xff, 0xef, 0x43, 0x6c, 0x17, 0x0c, 0x00,
   0x25, 0x00, 0xfd, 0x00, 0x00, 0x80, 0x20, 0x20, 0x00, 0x24, 0x09, 0x40,
   0x08, 0x00, 0x00, 0x20, 0xfd, 0x57, 0x01, 0xf6, 0xff, 0xdf, 0xff, 0xff,
   0xe9, 0xff, 0xff, 0x3f, 0x8b, 0x57, 0x2f, 0x0c, 0x00, 0xae, 0x52, 0xe4,
   0x00, 0x00, 0x10, 0x02, 0x02, 0x00, 0x90, 0xaa, 0x00, 0x02, 0x02, 0x00,
   0x00, 0xfd, 0xd7, 0x01, 0xfc, 0xff, 0x7f, 0xff, 0x7f, 0xa0, 0xff, 0xff,
   0xef, 0xb1, 0xec, 0x25, 0x0a, 0x00, 0x34, 0x40, 0x80, 0x00, 0x00, 0xa0,
   0x20, 0x00, 0x80, 0x52, 0x08, 0x01, 0x04, 0x00, 0x00, 0x00, 0xf8, 0x75,
   0x01, 0xea, 0xff, 0xff, 0xff, 0x17, 0x00, 0xd0, 0xff, 0xdf, 0x6b, 0xf7,
   0x17, 0x1a, 0x00, 0x6c, 0x80, 0x02, 0x00, 0x00, 0x00, 0x02, 0x00, 0x00,
   0x04, 0x23, 0xc0, 0x03, 0x00, 0x00, 0x40, 0xf9, 0x57, 0x01, 0xfe, 0xff,
   0xff, 0xff, 0x07, 0x8e, 0x0a, 0xfc, 0xff, 0xdb, 0x5d, 0x25, 0x3b, 0x00,
   0xe0, 0x03, 0x21, 0x00, 0x00, 0x40, 0x00, 0x04, 0x00, 0x21, 0x4d, 0x00,
   0x04, 0x00, 0x00, 0x00, 0xfa, 0xe7, 0x01, 0xe9, 0xff, 0xff, 0xff, 0x00,
   0xff, 0xff, 0xff, 0xb7, 0xd5, 0xff, 0x89, 0x3f, 0x00, 0xb0, 0x0f, 0x14,
   0x00, 0x00, 0x00, 0x41, 0x00, 0x00, 0xa9, 0x02, 0xe0, 0x03, 0x00, 0x00,
   0xc0, 0xf8, 0x6f, 0x03, 0xfe, 0xff, 0xfb, 0x7f, 0x00, 0xef, 0xf9, 0xff,
   0x7f, 0xf9, 0x7f, 0xe0, 0x7f, 0x00, 0xf0, 0x7f, 0x69, 0x00, 0x00, 0x00,
   0x00, 0x10, 0x80, 0x20, 0x15, 0x10, 0x2e, 0x00, 0x00, 0x00, 0xfa, 0x6f,
   0x01, 0xfa, 0x7f, 0xef, 0x3f, 0x00, 0x7f, 0xf8, 0xff, 0xff, 0xe7, 0xd7,
   0xf5, 0x7f, 0x00, 0x94, 0x73, 0x40, 0x00, 0x00, 0x00, 0x84, 0x04, 0x40,
   0x42, 0x01, 0x20, 0xfa, 0x00, 0x00, 0x40, 0xfa, 0x53, 0x03, 0xee, 0x7f,
   0xfd, 0x7f, 0x00, 0x1e, 0xfd, 0xff, 0xf7, 0xfd, 0x9f, 0x07, 0xff, 0x1d,
   0xcc, 0x1b, 0x00, 0x00, 0x00, 0x00, 0x00, 0x08, 0x80, 0x42, 0x03, 0x54,
   0xff, 0x02, 0x00, 0x00, 0xfe, 0x23, 0x03, 0xfc, 0xff, 0xf9, 0x3f, 0x00,
   0x1c, 0xff, 0xff, 0xfd, 0x7f, 0xf5, 0x00, 0x97, 0xfa, 0xd7, 0x1f, 0x20,
   0x00, 0x00, 0x00, 0x00, 0x01, 0xa0, 0x50, 0x02, 0xd0, 0xff, 0x03, 0x00,
   0x40, 0xfd, 0x97, 0x4b, 0xdd, 0xff, 0xff, 0x3f, 0x00, 0x8c, 0xff, 0xff,
   0xbf, 0xef, 0x7e, 0x00, 0xa7, 0xee, 0xf7, 0x07, 0x40, 0x00, 0x00, 0x00,
   0x00, 0x08, 0x04, 0x80, 0x00, 0xd0, 0xff, 0x07, 0x00, 0x00, 0xfe, 0x2b,
   0x83, 0xfd, 0xff, 0xff, 0x0f, 0x00, 0x98, 0xff, 0xff, 0xf7, 0xef, 0x1f,
   0x00, 0x0f, 0x78, 0xe5, 0x07, 0x80, 0x00, 0x00, 0x00, 0x00, 0x22, 0x11,
   0x42, 0x01, 0xf8, 0xff, 0x2f, 0x00, 0xa0, 0xff, 0xab, 0x41, 0xff, 0xff,
   0xff, 0x07, 0x00, 0x80, 0xff, 0xff, 0x0f, 0xf9, 0x08, 0x00, 0x0c, 0xa0,
   0xf2, 0x03, 0x20, 0x00, 0x00, 0x00, 0x00, 0x08, 0x50, 0x40, 0x00, 0xf0,
   0xff, 0xff, 0x00, 0x80, 0xff, 0x77, 0x41, 0xf7, 0xaf, 0xff, 0x07, 0x00,
   0xc0, 0xf7, 0xf8, 0x57, 0x81, 0x0b, 0x00, 0x28, 0xaa, 0xf5, 0x03, 0x80,
   0x00, 0x00, 0x00, 0x00, 0x40, 0x81, 0x10, 0x01, 0xf8, 0xbf, 0xff, 0x01,
   0x80, 0xff, 0xaf, 0x01, 0xff, 0x8f, 0xfa, 0x07, 0x00, 0x80, 0x6f, 0xec,
   0x6b, 0x39, 0x0e, 0x00, 0x74, 0xac, 0x5a, 0x01, 0x40, 0x00, 0x00, 0x00,
   0x00, 0x00, 0x14, 0x01, 0x00, 0xe4, 0xdf, 0xff, 0x03, 0xa8, 0xff, 0xff,
   0x40, 0xff, 0xff, 0xff, 0x07, 0x00, 0x80, 0x5e, 0xb8, 0xd5, 0xda, 0x04,
   0x00, 0xd0, 0xaf, 0x5a, 0x01, 0x40, 0x00, 0x00, 0x00, 0x00, 0x00, 0x40,
   0x50, 0x00, 0xfc, 0xfb, 0xa4, 0x00, 0xd0, 0xff, 0xff, 0x83, 0xff, 0xff,
   0xff, 0x0f, 0x00, 0x00, 0x07, 0xa6, 0xc8, 0x5c, 0x0c, 0x00, 0xa8, 0x15,
   0x49, 0x01, 0x80, 0x00, 0x00, 0x00, 0x00, 0x00, 0x14, 0x02, 0x00, 0xfe,
   0xff, 0x69, 0x83, 0xde, 0xff, 0xff, 0x43, 0xff, 0xff, 0xff, 0x07, 0x00,
   0x00, 0x0c, 0xec, 0x80, 0x5a, 0x08, 0x00, 0x50, 0x27, 0x00, 0x00, 0x80,
   0x00, 0x00, 0x00, 0x00, 0x00, 0x56, 0xa8, 0x02, 0xff, 0xfd, 0xb9, 0x10,
   0xef, 0xff, 0xff, 0xd7, 0xff, 0xff, 0xff, 0x07, 0x00, 0x00, 0x0a, 0x64,
   0x00, 0xb1, 0x18, 0x00, 0x40, 0x5e, 0xa0, 0x00, 0x00, 0x00, 0x00, 0x00,
   0x00, 0x00, 0x80, 0x82, 0x00, 0xfe, 0xfd, 0xbc, 0x01, 0xca, 0xff, 0xff,
   0xff, 0xff, 0xff, 0xff, 0x03, 0x00, 0x00, 0x00, 0x5a, 0x00, 0xe0, 0x11,
   0x00, 0x20, 0x1f, 0x48, 0x00, 0x00, 0x00, 0x00, 0x00, 0x00, 0x00, 0x00,
   0x6c, 0x05, 0xff, 0xff, 0x6f, 0x00, 0xfa, 0xfd, 0xff, 0xff, 0xff, 0xff,
   0xff, 0x01, 0x00, 0x00, 0x00, 0x24, 0x00, 0x20, 0x28, 0x00, 0x00, 0x43,
   0x42, 0x03, 0x20, 0x00, 0x00, 0x00, 0x00, 0x00, 0x00, 0x60, 0x03, 0xff,
   0xf9, 0xff, 0x05, 0x74, 0xff, 0xff, 0xff, 0xff, 0xff, 0xff, 0x00, 0x00,
   0x00, 0x00, 0x18, 0x00, 0x40, 0x50, 0x00, 0x80, 0x47, 0xa2, 0x00, 0x00,
   0x00, 0x00, 0x00, 0x00, 0x00, 0x00, 0x00, 0x1e, 0xfd, 0xf3, 0x1f, 0x00,
   0x55, 0xff, 0xf7, 0xff, 0xff, 0xff, 0xff, 0x00, 0x00, 0x00, 0x00, 0x04,
   0x00, 0x00, 0xe3, 0x03, 0xd0, 0xd3, 0x86, 0x07, 0x00, 0x00, 0x00, 0x00,
   0x00, 0x00, 0x00, 0x00, 0x78, 0xfe, 0xfb, 0xd0, 0x01, 0xa8, 0xfe, 0xfe,
   0xff, 0xff, 0xff, 0xff, 0x00, 0x00, 0x00, 0x00, 0x00, 0x00, 0x40, 0xc9,
   0x8f, 0xc0, 0xc1, 0x0c, 0x04, 0x00, 0x00, 0x00, 0x00, 0x00, 0x00, 0x00,
   0x00, 0xa0, 0xff, 0x0f, 0x00, 0x80, 0x86, 0x80, 0xff, 0xff, 0xff, 0xff,
   0x1f, 0x00, 0x00, 0x00, 0x00, 0x08, 0x00, 0x00, 0xe0, 0x3f, 0x37, 0xc0,
   0x0f, 0x08, 0x00, 0x00, 0x00, 0x00, 0x00, 0x00, 0x00, 0x00, 0x80, 0xfe,
   0x01, 0x80, 0x10, 0x15, 0x00, 0xf4, 0xff, 0xff, 0xff, 0x07, 0x00, 0x00,
   0x00, 0x00, 0x40, 0x00, 0x00, 0xfc, 0x7f, 0x04, 0xc0, 0x7b, 0x00, 0x00,
   0x00, 0x00, 0x00, 0x00, 0x00, 0x00, 0x00, 0x00, 0xfe, 0x00, 0x00, 0xc0,
   0x06, 0x00, 0xe8, 0xff, 0xc7, 0xfb, 0x07, 0x00, 0x00, 0x00, 0x00, 0x00,
   0x01, 0x00, 0xf2, 0xfa, 0x05, 0x80, 0xa7, 0x08, 0x00, 0x00, 0x00, 0x00,
   0x00, 0x00, 0x00, 0x00, 0x00, 0x78, 0x00, 0x00, 0x00, 0x00, 0x00, 0x30,
   0xba, 0x04, 0xe1, 0x01, 0x00, 0x00, 0x00, 0x00, 0x40, 0x07, 0x00, 0xa0,
   0x67, 0x07, 0x00, 0x5f, 0x29, 0x40, 0x00, 0x00, 0x00, 0x00, 0x00, 0x00,
   0x00, 0x00, 0x20, 0x00, 0x00, 0x00, 0x00, 0x00, 0x20, 0x40, 0x00, 0x00,
   0x00, 0x00, 0x00, 0x00, 0x00, 0xc0, 0x5f, 0x4b, 0x41, 0x17, 0x02, 0x00,
   0x46, 0x10, 0xf8, 0x00, 0x00, 0x00, 0x00, 0x00, 0x00, 0x00, 0x00, 0x00,
   0x00, 0x00, 0x00, 0x00, 0x00, 0x00, 0x00, 0x00, 0x00, 0x00, 0x00, 0x00,
   0x00, 0x00, 0x58, 0xaf, 0x0f, 0x80, 0x01, 0x02, 0x00, 0x84, 0x08, 0xe9,
   0x00, 0x00, 0x00, 0x00, 0x00, 0x00, 0x00, 0x00, 0x00, 0x00, 0x00, 0x00,
   0x00, 0x00, 0x00, 0x00, 0x00, 0x00, 0x00, 0x00, 0x00, 0x00, 0x00, 0x90,
   0x0f, 0x0f, 0xc0, 0x00, 0x00, 0x00, 0x2a, 0x08, 0x10, 0x00, 0x00, 0x00,
   0x00, 0x00, 0x00, 0x00, 0x00, 0x00, 0x00, 0x00, 0x00, 0x00, 0x00, 0x00,
   0x00, 0x00, 0x00, 0x00, 0x00, 0x00, 0x00, 0x00, 0x30, 0x2f, 0x0c, 0x80,
   0x00, 0x00, 0x00, 0x24, 0x08, 0x00, 0x00, 0x00, 0x00, 0x00, 0x00, 0x00,
   0x00, 0x00, 0x00, 0x00, 0x00, 0x00, 0x00, 0x00, 0x00, 0x00, 0x00, 0x00,
   0x00, 0x00, 0x00, 0x00, 0x00, 0x70, 0x1c, 0x08, 0x80, 0x00, 0x00, 0x00,
   0x04, 0x04, 0xb0, 0x00, 0x00, 0x00, 0x00, 0x00, 0x00, 0x00, 0x00, 0x00,
   0x00, 0x00, 0x00, 0x00, 0x00, 0x00, 0x00, 0x00, 0x00, 0x00, 0x00, 0x00,
   0x00, 0x00, 0x60, 0x38, 0x08, 0x00, 0x01, 0x00, 0x00, 0x14, 0x00, 0x62,
   0x00, 0x00, 0x00, 0x00, 0x00, 0x00, 0x00, 0x00, 0x00, 0x00, 0x00, 0x00,
   0x00, 0x00, 0x00, 0x00, 0x00, 0x00, 0x00, 0x00, 0x00, 0x00, 0x00, 0xc0,
   0x73, 0x10, 0x80, 0x01, 0x08, 0x80, 0x29, 0xc0, 0x04, 0x00, 0x00, 0x00,
   0x00, 0x00, 0x00, 0x00, 0x00, 0x00, 0x00, 0x00, 0x00, 0x00, 0x00, 0x00,
   0x00, 0x00, 0x00, 0x00, 0x00, 0x00, 0x00, 0x00, 0xc0, 0xff, 0x30, 0x40,
   0x01, 0x3c, 0xa0, 0x16, 0x80, 0x84, 0x00, 0x00, 0x00, 0x00, 0x00, 0x00,
   0x00, 0x00, 0x00, 0x00, 0x00, 0x00, 0x00, 0x00, 0x00, 0x00, 0x00, 0x00,
   0x00, 0x00, 0x00, 0x00, 0x00, 0x80, 0xff, 0xeb, 0xa8, 0x12, 0x92, 0x92,
   0x02, 0x00, 0x7a, 0x00, 0x00, 0x00, 0x00, 0x00, 0x00, 0x00, 0x00, 0x00,
   0x00, 0x00, 0x00, 0x00, 0x00, 0x00, 0x00, 0x00, 0x00, 0x00, 0x00, 0x00,
   0x00, 0x00, 0x00, 0xff, 0x5f, 0xf5, 0xff, 0x1f, 0x57, 0x05, 0xa0, 0xfe,
   0x00, 0x00, 0x00, 0x00, 0x00, 0x00, 0x00, 0x00, 0x00, 0x00, 0x00, 0x00,
   0x00, 0x00, 0x00, 0x00, 0x00, 0x00, 0x00, 0x00, 0x00, 0x00, 0x00, 0x00,
   0xfe, 0xaa, 0x2b, 0xfa, 0xe7, 0xfd, 0x1f, 0xd0, 0xaf, 0x00, 0x00, 0x00,
   0x00, 0x00, 0x00, 0x00, 0x00, 0x00, 0x00, 0x00, 0x00, 0x00, 0x00, 0x00,
   0x00, 0x00, 0x00, 0x00, 0x00, 0x00, 0x00, 0x00, 0x00, 0xfe, 0xad, 0xea,
   0xea, 0xfe, 0xad, 0xff, 0xef, 0xff, 0x00, 0x00, 0x00, 0x00, 0x00, 0x00,
   0x00, 0x00, 0x00, 0x00, 0x00, 0x00, 0x00, 0x00, 0x00, 0x00, 0x00, 0x00,
   0x00, 0x00, 0x00, 0x00, 0x00, 0x00, 0x78, 0xb5, 0x55, 0x5b, 0xf7, 0xff,
   0xfe, 0xff, 0x27, 0x00, 0x00, 0x00, 0x00, 0x00, 0x00, 0x00, 0x00, 0x00,
   0x00, 0x00, 0x00, 0x00, 0x00, 0x00, 0x00, 0x00, 0x00, 0x00, 0x00, 0x00,
   0x00, 0x00, 0x00, 0xf0, 0xad, 0xb6, 0x6a, 0xfd, 0xbe, 0xff, 0xff, 0xfd,
   0x00, 0x00, 0x00, 0x00, 0x00, 0x00, 0x00, 0x00, 0x00, 0x00, 0x00, 0x00,
   0x00, 0x00, 0x00, 0x00, 0x00, 0x00, 0x00, 0x00, 0x00, 0x00, 0x00, 0x00,
   0xe0, 0xb7, 0x55, 0x55, 0xfa, 0xdb, 0xfe, 0xbf, 0xb7, 0x00, 0x00, 0x00,
   0x00, 0x00, 0x00, 0x00, 0x00, 0x00, 0x00, 0x00, 0x00, 0x00, 0x00, 0x00,
   0x00, 0x00, 0x00, 0x00, 0x00, 0x00, 0x00, 0x00, 0x00, 0xc0, 0xa6, 0xaa,
   0xab, 0x0a, 0xfb, 0xff, 0xbf, 0xd6, 0x00, 0x00, 0x00, 0x00, 0x00, 0x00,
   0x00, 0x00, 0x00, 0x00, 0x00, 0x00, 0x00, 0x00, 0x00, 0x00, 0x00, 0x00,
   0x00, 0x00, 0x00, 0x00, 0x00, 0x00, 0x80, 0x5b, 0x6c, 0x4d, 0xf5, 0xff,
   0xb7, 0xd5, 0x5a, 0x00, 0x00, 0x00, 0x00, 0x00, 0x00, 0x00, 0x00, 0x00,
   0x00, 0x00, 0x00, 0x00, 0x00, 0x00, 0x00, 0x00, 0x00, 0x00, 0x00, 0x00,
   0x00, 0x00, 0x00, 0x00, 0xdf, 0xd5, 0x5a, 0xff, 0xbf, 0xb6, 0xd6, 0x55 };
