#define pnj3_width 264
#define pnj3_height 176
static unsigned char pnj3_bits[] = {
   0x00, 0x00, 0x00, 0x00, 0x00, 0x00, 0x00, 0x00, 0x00, 0x00, 0x00, 0x00,
   0x00, 0x00, 0x00, 0x00, 0x00, 0x00, 0x00, 0x00, 0x00, 0x00, 0x00, 0x00,
   0x00, 0x00, 0x80, 0xff, 0xff, 0x6d, 0xbf, 0xfe, 0x2d, 0x00, 0x00, 0x00,
   0x00, 0x00, 0x00, 0x00, 0x00, 0x00, 0x00, 0x00, 0x00, 0x00, 0x00, 0x00,
   0x00, 0x00, 0x00, 0x00, 0x00, 0x00, 0x00, 0x00, 0x00, 0x00, 0x00, 0x80,
   0x5f, 0xd5, 0xd5, 0xaa, 0xe8, 0xfd, 0x00, 0x00, 0x00, 0x00, 0x00, 0x00,
   0x00, 0x00, 0x00, 0x00, 0x00, 0x00, 0x00, 0x00, 0x00, 0x00, 0x00, 0x00,
   0x00, 0x00, 0x00, 0x00, 0x00, 0x00, 0x00, 0x00, 0xc0, 0xed, 0xbf, 0x6f,
   0xbf, 0xf9, 0xd7, 0x00, 0x00, 0x00, 0x00, 0x00, 0x00, 0x00, 0x00, 0x00,
   0x00, 0x00, 0x00, 0x00, 0x00, 0x00, 0x00, 0x00, 0x00, 0x00, 0x00, 0x00,
   0x00, 0x00, 0x00, 0x00, 0x00, 0xc0, 0xff, 0xf7, 0xda, 0x6a, 0xc3, 0xdf,
   0x00, 0x00, 0x00, 0x00, 0x00, 0x00, 0x00, 0x00, 0x00, 0x00, 0x00, 0x00,
   0x00, 0x00, 0x00, 0x00, 0x00, 0x00, 0x00, 0x00, 0x00, 0x00, 0x00, 0x00,
   0x00, 0x00, 0xe0, 0xae, 0xde, 0xbe, 0xdd, 0xaa, 0x7b, 0x00, 0x00, 0x00,
   0x00, 0x00, 0x00, 0x00, 0x00, 0x00, 0x00, 0x00, 0x00, 0x00, 0x00, 0x00,
   0x00, 0x00, 0x00, 0x00, 0x00, 0x00, 0x00, 0x00, 0x00, 0x00, 0x00, 0xf0,
   0xff, 0xbe, 0x75, 0xd7, 0x2d, 0xf7, 0x00, 0x00, 0x00, 0x00, 0x00, 0x00,
   0x00, 0x00, 0x00, 0x00, 0x00, 0x00, 0x00, 0x00, 0x00, 0x00, 0x00, 0x00,
   0x00, 0x00, 0x00, 0x00, 0x00, 0x00, 0x00, 0x00, 0xf0, 0xb6, 0xf7, 0xdb,
   0x7e, 0x51, 0xbe, 0x00, 0x00, 0x00, 0x00, 0x00, 0x00, 0x00, 0x00, 0x00,
   0x00, 0x00, 0x00, 0x00, 0x00, 0x00, 0x00, 0x00, 0x00, 0x00, 0x00, 0x00,
   0x00, 0x00, 0x00, 0x00, 0x00, 0xd8, 0x7e, 0xaf, 0xb6, 0xab, 0x17, 0xf9,
   0x00, 0x00, 0x00, 0x00, 0x00, 0x00, 0x00, 0x00, 0x00, 0x00, 0x00, 0x00,
   0x00, 0x00, 0x00, 0x00, 0x00, 0x00, 0x00, 0x00, 0x00, 0x00, 0x00, 0x00,
   0x00, 0x00, 0xf8, 0xbb, 0xfb, 0xdb, 0xde, 0x16, 0xf2, 0x00, 0x00, 0x00,
   0x00, 0x00, 0x00, 0x00, 0x00, 0x00, 0x00, 0x00, 0x00, 0x00, 0x00, 0x00,
   0x00, 0x00, 0x00, 0x00, 0x00, 0x00, 0x00, 0x00, 0x00, 0x00, 0x00, 0xbc,
   0xf7, 0xdb, 0xbe, 0xda, 0xdd, 0xc0, 0x00, 0x00, 0x00, 0x00, 0x00, 0x00,
   0x00, 0x00, 0x00, 0x00, 0x00, 0x00, 0x00, 0x00, 0x00, 0x00, 0x00, 0x00,
   0x00, 0x00, 0x00, 0x00, 0x00, 0x00, 0x00, 0x00, 0xf6, 0xbf, 0xff, 0xeb,
   0x7a, 0x77, 0xd2, 0x00, 0x00, 0x00, 0x00, 0x00, 0x00, 0x00, 0x00, 0x00,
   0x00, 0x00, 0x00, 0x00, 0x00, 0x00, 0x00, 0x00, 0x00, 0x00, 0x00, 0x00,
   0x00, 0x00, 0x00, 0x00, 0x00, 0x7e, 0xb7, 0x75, 0xbf, 0xeb, 0xee, 0x8b,
   0x00, 0x00, 0x00, 0x00, 0x00, 0x00, 0x00, 0x00, 0x00, 0x00, 0x00, 0x00,
   0x00, 0x00, 0x00, 0x00, 0x00, 0x00, 0x00, 0x00, 0x00, 0x00, 0x00, 0x00,
   0x00, 0x00, 0xef, 0xdd, 0xef, 0x7b, 0x5d, 0x7b, 0x3f, 0x00, 0x00, 0x00,
   0x00, 0x00, 0x00, 0x00, 0x00, 0x00, 0x00, 0x00, 0x00, 0x00, 0x00, 0x00,
   0x00, 0x00, 0x00, 0x00, 0x00, 0x00, 0x00, 0x00, 0x00, 0x00, 0x80, 0x7f,
   0x7f, 0xad, 0xff, 0xef, 0xfb, 0x7f, 0x00, 0x00, 0x00, 0x00, 0x00, 0x00,
   0x00, 0x00, 0x00, 0x00, 0x00, 0x00, 0x00, 0x00, 0x00, 0x00, 0x00, 0x00,
   0x00, 0x00, 0x00, 0x00, 0x00, 0x00, 0x00, 0x80, 0xed, 0xdd, 0xff, 0xee,
   0x5e, 0x6f, 0xb5, 0x00, 0x00, 0x00, 0x00, 0x00, 0x00, 0x00, 0x00, 0x00,
   0x00, 0x00, 0x00, 0x00, 0x00, 0x00, 0x00, 0x00, 0x00, 0x00, 0x00, 0x00,
   0x00, 0x00, 0x00, 0x00, 0xc0, 0xbd, 0xfb, 0xdb, 0xed, 0xfb, 0xda, 0xef,
   0x00, 0x00, 0x00, 0x00, 0x00, 0x00, 0x00, 0x00, 0x00, 0x00, 0x00, 0x00,
   0x00, 0x00, 0x00, 0x00, 0x00, 0x00, 0x00, 0x00, 0x00, 0x00, 0x00, 0x00,
   0x00, 0xe0, 0xf7, 0x5e, 0x7d, 0xf7, 0xff, 0x7b, 0xa9, 0x00, 0x00, 0x00,
   0x00, 0x00, 0x00, 0x00, 0x00, 0x00, 0x00, 0x00, 0x00, 0x00, 0x00, 0x00,
   0x00, 0x00, 0x00, 0x00, 0x00, 0x00, 0x00, 0x00, 0x00, 0x00, 0xf0, 0xff,
   0xff, 0xef, 0x5d, 0xaf, 0x7f, 0xd7, 0x00, 0x00, 0x00, 0x00, 0x00, 0x00,
   0x00, 0x00, 0x00, 0x00, 0x00, 0x00, 0x00, 0x00, 0x00, 0x00, 0x00, 0x00,
   0x00, 0x00, 0x00, 0x00, 0x00, 0x00, 0x00, 0x78, 0xef, 0xad, 0x5e, 0xf5,
   0xf6, 0xf7, 0x7d, 0x00, 0x00, 0x00, 0x00, 0x00, 0x00, 0x00, 0x00, 0x00,
   0x00, 0x00, 0x00, 0x00, 0x00, 0x00, 0x00, 0x00, 0x00, 0x00, 0x00, 0x00,
   0x00, 0x00, 0x00, 0x00, 0xf8, 0xbb, 0xff, 0xf5, 0x57, 0x7d, 0xff, 0xff,
   0x00, 0x00, 0x00, 0x00, 0x00, 0x00, 0x00, 0x00, 0x00, 0x00, 0x00, 0x00,
   0x00, 0x00, 0x00, 0x00, 0x00, 0x00, 0x00, 0x00, 0x00, 0x00, 0x00, 0x00,
   0x00, 0xfc, 0xef, 0xfe, 0xbf, 0xb7, 0xf6, 0xff, 0xff, 0x00, 0x00, 0x00,
   0x00, 0x00, 0x00, 0x00, 0x00, 0x00, 0x00, 0x00, 0x00, 0x00, 0x00, 0x00,
   0x00, 0x00, 0x00, 0x00, 0x00, 0x00, 0x00, 0x00, 0x00, 0x00, 0xfe, 0xff,
   0x5b, 0xd5, 0xf6, 0x4a, 0x6d, 0xed, 0x00, 0x00, 0x00, 0x00, 0x00, 0x00,
   0x00, 0x00, 0x00, 0x00, 0x00, 0x00, 0x00, 0x00, 0x00, 0x00, 0x00, 0x00,
   0x00, 0x00, 0x00, 0x00, 0x00, 0x00, 0x00, 0xfe, 0xbf, 0xef, 0x7f, 0x5f,
   0x77, 0xff, 0xff, 0x00, 0x00, 0x00, 0x00, 0x00, 0x00, 0x00, 0x00, 0x00,
   0x00, 0x00, 0x00, 0x00, 0x00, 0x00, 0x00, 0x00, 0x00, 0x00, 0x00, 0x00,
   0x00, 0x00, 0x00, 0x80, 0xf2, 0xff, 0xfe, 0xee, 0x6d, 0x59, 0xad, 0xdb,
   0x00, 0x00, 0x00, 0x00, 0x00, 0x00, 0x00, 0x00, 0x00, 0x00, 0x00, 0x00,
   0x00, 0x00, 0x00, 0x00, 0x00, 0x00, 0x00, 0x00, 0x00, 0x00, 0x00, 0x00,
   0x00, 0x80, 0xff, 0xbf, 0xbb, 0x5e, 0xd5, 0xf6, 0xba, 0x00, 0x00, 0x00,
   0x00, 0x00, 0x00, 0x00, 0x00, 0x00, 0x00, 0x00, 0x00, 0x00, 0x00, 0x00,
   0x00, 0x00, 0x00, 0x00, 0x00, 0x00, 0x00, 0x00, 0x00, 0x00, 0x00, 0xfe,
   0x7f, 0xf7, 0xbb, 0xd7, 0xd6, 0xfe, 0x00, 0x00, 0x00, 0x00, 0x00, 0x00,
   0x00, 0x00, 0x00, 0x00, 0x00, 0x00, 0x00, 0x00, 0x00, 0x00, 0x00, 0x00,
   0x00, 0x00, 0x00, 0x00, 0x00, 0x00, 0x00, 0x00, 0xfc, 0xf7, 0xbf, 0xb6,
   0x5c, 0x5b, 0xd5, 0x00, 0x00, 0x00, 0x00, 0x00, 0x00, 0x00, 0x00, 0x00,
   0x00, 0x00, 0x00, 0x00, 0x00, 0x00, 0x00, 0x00, 0x00, 0x00, 0x00, 0x00,
   0x00, 0x00, 0x00, 0x00, 0x00, 0xf0, 0x7f, 0xeb, 0xf7, 0x55, 0xd5, 0xfd,
   0x00, 0x00, 0x00, 0x00, 0x00, 0x00, 0x00, 0x00, 0x00, 0x40, 0x11, 0x00,
   0x00, 0x00, 0x00, 0x00, 0x00, 0x00, 0x00, 0x00, 0x00, 0x00, 0x00, 0x00,
   0x00, 0x00, 0xc0, 0xdf, 0xbf, 0xde, 0xbf, 0x35, 0xd5, 0x00, 0x00, 0x00,
   0x00, 0x00, 0x00, 0x00, 0x00, 0x00, 0x40, 0x77, 0x01, 0x00, 0x00, 0x00,
   0x00, 0x00, 0x00, 0x00, 0x00, 0x00, 0x00, 0x00, 0x00, 0x00, 0x00, 0x80,
   0x7f, 0xf5, 0xab, 0x62, 0xed, 0x96, 0x00, 0x00, 0x00, 0x00, 0x00, 0x00,
   0x00, 0x00, 0x00, 0xe8, 0xaa, 0x2a, 0x00, 0x80, 0x04, 0x00, 0x00, 0x00,
   0x00, 0x00, 0x00, 0x00, 0x00, 0x00, 0x00, 0x00, 0x00, 0xde, 0x5f, 0xdf,
   0xba, 0xb3, 0x56, 0x00, 0x00, 0x00, 0x00, 0x00, 0x00, 0x00, 0x00, 0x00,
   0xc0, 0x95, 0x57, 0x01, 0x90, 0x20, 0x00, 0x00, 0x00, 0x00, 0x00, 0x00,
   0x00, 0x00, 0x00, 0x00, 0x00, 0x00, 0xf8, 0xfa, 0xba, 0xb7, 0xee, 0xfa,
   0x00, 0x00, 0x00, 0x00, 0x00, 0x00, 0x00, 0x00, 0x00, 0x70, 0x75, 0x3f,
   0x55, 0x55, 0x04, 0x00, 0x00, 0x00, 0x00, 0x00, 0x00, 0x00, 0x00, 0x00,
   0x00, 0x00, 0x00, 0xe0, 0xb5, 0xed, 0x6e, 0x73, 0x4f, 0x00, 0x00, 0x00,
   0x00, 0x00, 0x00, 0x00, 0x00, 0x00, 0xc0, 0xed, 0xe2, 0x4b, 0xab, 0x01,
   0x00, 0x00, 0x00, 0x00, 0x00, 0x00, 0x00, 0x00, 0x00, 0x00, 0x00, 0x00,
   0x80, 0x6f, 0x9f, 0x4a, 0xc5, 0xfa, 0x00, 0x00, 0x00, 0x00, 0x00, 0x00,
   0x00, 0x00, 0x00, 0xe0, 0x77, 0x02, 0xa7, 0x6a, 0x00, 0x00, 0x00, 0x00,
   0x00, 0x00, 0x00, 0x00, 0x00, 0x00, 0x00, 0x00, 0x00, 0x00, 0xff, 0x7a,
   0x9b, 0x34, 0x0a, 0x00, 0x00, 0x00, 0x00, 0x00, 0x00, 0x00, 0x00, 0x00,
   0x40, 0x5f, 0x48, 0x0c, 0xad, 0x40, 0x00, 0x00, 0x00, 0x00, 0x00, 0x00,
   0x00, 0x00, 0x00, 0x00, 0x00, 0x00, 0x00, 0xfc, 0xd6, 0xb2, 0xe5, 0xfa,
   0x00, 0x00, 0x00, 0x00, 0x00, 0x00, 0x00, 0x00, 0x00, 0xe0, 0x03, 0x82,
   0x2a, 0x1a, 0x18, 0x00, 0x00, 0x00, 0x01, 0x00, 0x00, 0x00, 0x00, 0x00,
   0x00, 0x00, 0x00, 0x00, 0xf0, 0xbf, 0x6e, 0x2b, 0x92, 0x00, 0x00, 0x00,
   0x00, 0x00, 0x00, 0x00, 0x00, 0x00, 0x40, 0x07, 0x14, 0x52, 0x30, 0x12,
   0x01, 0x00, 0x00, 0x00, 0x00, 0x00, 0x00, 0x00, 0x00, 0x00, 0x00, 0x00,
   0x00, 0xe0, 0xbf, 0x6b, 0xb5, 0xb6, 0x00, 0x00, 0x00, 0x00, 0x00, 0x00,
   0x00, 0x00, 0x00, 0x80, 0x61, 0x65, 0x95, 0xe2, 0xaa, 0x56, 0x00, 0x80,
   0x04, 0x00, 0x00, 0x00, 0x00, 0x00, 0x00, 0x00, 0x00, 0x00, 0x80, 0xff,
   0xde, 0x6d, 0xed, 0x00, 0x00, 0x00, 0x00, 0x00, 0x00, 0x00, 0xf8, 0x00,
   0x20, 0xd7, 0x4d, 0x29, 0x84, 0xaa, 0x54, 0x01, 0x00, 0x00, 0x00, 0x00,
   0x00, 0x00, 0x00, 0x78, 0x00, 0x00, 0x00, 0x00, 0xdf, 0xb5, 0xda, 0x8d,
   0x00, 0x00, 0x00, 0x00, 0x00, 0x00, 0x00, 0xfc, 0x01, 0x94, 0xbd, 0xb3,
   0xa6, 0xe0, 0x55, 0x29, 0x05, 0x40, 0x05, 0x08, 0x00, 0x00, 0x00, 0x00,
   0xfe, 0x03, 0x00, 0x00, 0x00, 0xfc, 0xf7, 0x5b, 0x75, 0x00, 0x00, 0x00,
   0x00, 0x00, 0x00, 0x00, 0xfc, 0x00, 0x28, 0xbe, 0xae, 0x2d, 0x85, 0x56,
   0x45, 0x9a, 0x04, 0x05, 0x00, 0x00, 0x00, 0x00, 0x80, 0xf7, 0x07, 0x00,
   0x00, 0x00, 0xb8, 0x55, 0x56, 0xad, 0x00, 0x00, 0x00, 0x00, 0x00, 0x00,
   0x00, 0x7e, 0x00, 0x4a, 0x75, 0xa9, 0xa8, 0xc0, 0xaa, 0x2a, 0x51, 0xa9,
   0x82, 0x00, 0x00, 0x00, 0x00, 0xf0, 0xe1, 0x1f, 0x00, 0x00, 0x00, 0xf0,
   0xff, 0xad, 0xb5, 0x00, 0x00, 0x00, 0x00, 0x00, 0x00, 0x00, 0x7f, 0x00,
   0xba, 0xd5, 0x1b, 0x40, 0x81, 0x6a, 0x55, 0x54, 0x55, 0x0a, 0x80, 0x00,
   0x00, 0x00, 0x78, 0x80, 0x7f, 0x00, 0x00, 0x00, 0x40, 0xaf, 0x5d, 0xad,
   0x00, 0x00, 0x00, 0x00, 0x00, 0x00, 0x00, 0x3f, 0x00, 0xaa, 0x2a, 0x15,
   0x90, 0x76, 0x51, 0x55, 0xa5, 0x4a, 0x41, 0x91, 0x02, 0x00, 0x00, 0x1e,
   0x80, 0xff, 0x01, 0x00, 0x00, 0x80, 0xff, 0xf6, 0xdb, 0x00, 0x00, 0x00,
   0x00, 0x00, 0x00, 0x80, 0x3f, 0x00, 0xdd, 0x00, 0xd0, 0x22, 0x14, 0x84,
   0x54, 0x55, 0x55, 0x08, 0x22, 0x00, 0x00, 0x00, 0x0c, 0x00, 0xff, 0x07,
   0x00, 0x00, 0x00, 0xfe, 0x5f, 0xbb, 0x00, 0x00, 0x00, 0x00, 0x00, 0x00,
   0x80, 0x17, 0x80, 0x22, 0x00, 0x00, 0x55, 0x53, 0x02, 0xa8, 0xaa, 0xa4,
   0xa0, 0x24, 0x00, 0x00, 0x00, 0x03, 0xd1, 0xff, 0x0f, 0x00, 0x00, 0x00,
   0xfc, 0xff, 0xf7, 0x00, 0x00, 0x00, 0x00, 0x00, 0x00, 0xc0, 0x0b, 0x00,
   0x01, 0x00, 0x00, 0x54, 0x12, 0x00, 0x81, 0x56, 0x2b, 0x05, 0x08, 0x00,
   0x00, 0x80, 0x04, 0x80, 0xff, 0x3f, 0x00, 0x00, 0x00, 0xf8, 0xff, 0xaf,
   0x00, 0x00, 0x00, 0x00, 0x00, 0x00, 0xc0, 0x0f, 0x40, 0x00, 0x00, 0x00,
   0x00, 0x0a, 0x00, 0x48, 0xa8, 0x44, 0x11, 0x01, 0x00, 0x00, 0x00, 0x00,
   0xd0, 0xef, 0x7e, 0x00, 0x00, 0x00, 0xe0, 0xbb, 0xfd, 0x00, 0x00, 0x00,
   0x00, 0x00, 0x00, 0xc0, 0x05, 0x01, 0x00, 0x00, 0x00, 0x91, 0x00, 0x00,
   0x00, 0x21, 0x4d, 0x25, 0x01, 0x00, 0x00, 0x20, 0x00, 0x60, 0xdd, 0xff,
   0x01, 0x00, 0x00, 0x40, 0xd7, 0xab, 0x00, 0x00, 0x00, 0x00, 0x00, 0x02,
   0xe0, 0x45, 0x10, 0x00, 0x00, 0x00, 0x00, 0x00, 0x00, 0x00, 0x48, 0x55,
   0x05, 0x00, 0x00, 0x00, 0x00, 0x00, 0xfa, 0xeb, 0xf7, 0x07, 0x00, 0x00,
   0x80, 0x7d, 0xb5, 0x00, 0x00, 0x00, 0x00, 0xa0, 0x00, 0xe0, 0x0b, 0x00,
   0x00, 0x00, 0x25, 0x50, 0x00, 0x00, 0x00, 0x00, 0x95, 0x6a, 0x00, 0x00,
   0x00, 0x89, 0x00, 0xa8, 0x56, 0xbf, 0x0e, 0x00, 0x00, 0x00, 0x7a, 0xb7,
   0x00, 0x00, 0x00, 0x00, 0x00, 0x00, 0xf0, 0x22, 0x00, 0x40, 0x6f, 0x12,
   0x09, 0x21, 0x00, 0x00, 0x00, 0xaa, 0x2a, 0x14, 0x01, 0x82, 0x00, 0x80,
   0x7a, 0x89, 0x7e, 0x39, 0x00, 0x00, 0x00, 0xf4, 0xdf, 0x00, 0x00, 0x00,
   0x00, 0xa8, 0x04, 0xf0, 0x07, 0x00, 0xac, 0xc8, 0xaa, 0x02, 0x81, 0x00,
   0x00, 0x10, 0xf4, 0x6a, 0x6f, 0xdb, 0x2a, 0x41, 0x12, 0x5a, 0x2b, 0x70,
   0x61, 0x00, 0x00, 0x00, 0xe0, 0xdd, 0x00, 0x00, 0x00, 0x00, 0x08, 0x02,
   0xf0, 0x03, 0xc0, 0xaa, 0x56, 0xb5, 0x2c, 0x26, 0x02, 0x00, 0x00, 0xa8,
   0xd7, 0x48, 0x55, 0xaa, 0x8a, 0xa4, 0x6a, 0x81, 0xd4, 0xc0, 0x01, 0x00,
   0x00, 0xe0, 0xff, 0x00, 0x00, 0x00, 0x00, 0x52, 0x00, 0xf8, 0x4f, 0x55,
   0x22, 0x09, 0xa9, 0x49, 0x4a, 0x02, 0x00, 0x00, 0xe8, 0x5e, 0xab, 0x8a,
   0x94, 0x50, 0x15, 0x4a, 0x2a, 0xf4, 0x03, 0x03, 0x00, 0x00, 0xc0, 0xdf,
   0x00, 0x00, 0x00, 0x00, 0xa5, 0x00, 0xf8, 0x03, 0x95, 0x14, 0x22, 0x48,
   0xb5, 0x90, 0x00, 0x00, 0x00, 0x80, 0xf5, 0x44, 0xb2, 0x22, 0x4b, 0xa4,
   0x10, 0x00, 0xb4, 0x04, 0x0e, 0x00, 0x00, 0x00, 0xff, 0x00, 0x00, 0x00,
   0x00, 0x4a, 0x01, 0xfc, 0x2b, 0x90, 0x52, 0x82, 0xa0, 0x86, 0xaa, 0x0a,
   0x00, 0x00, 0x80, 0xce, 0x95, 0x14, 0x4a, 0x4a, 0x49, 0x52, 0x00, 0xec,
   0x01, 0x18, 0x00, 0x00, 0x00, 0xfe, 0x00, 0x00, 0x00, 0xc0, 0x24, 0x02,
   0xfc, 0x41, 0x45, 0x04, 0x08, 0x88, 0x2a, 0xa0, 0x2a, 0x00, 0x00, 0x40,
   0xba, 0x55, 0x22, 0x89, 0x88, 0x24, 0x05, 0x82, 0x1b, 0x05, 0x74, 0x00,
   0x00, 0x00, 0xfc, 0x00, 0x00, 0x00, 0x40, 0x49, 0x00, 0xfe, 0x95, 0x08,
   0x20, 0x11, 0x80, 0x54, 0x05, 0x00, 0x01, 0x00, 0x40, 0x61, 0x8b, 0x42,
   0x28, 0x12, 0x14, 0x00, 0x50, 0x35, 0x05, 0xe0, 0x01, 0x00, 0x00, 0xf8,
   0x00, 0x00, 0x00, 0x40, 0x22, 0x09, 0xfe, 0x41, 0x42, 0x49, 0x80, 0x20,
   0x2a, 0x40, 0x34, 0x15, 0x00, 0x00, 0xd8, 0x2e, 0x92, 0x22, 0xa1, 0x10,
   0x00, 0x50, 0x05, 0x02, 0xa8, 0x01, 0x00, 0x00, 0xf0, 0x00, 0x00, 0x00,
   0xa8, 0x0a, 0x51, 0xfe, 0x0f, 0x08, 0x82, 0x00, 0x00, 0x50, 0x81, 0xa0,
   0x04, 0x00, 0x00, 0x00, 0x5b, 0x04, 0x24, 0x04, 0x01, 0x00, 0x01, 0x00,
   0x0a, 0xa0, 0x07, 0x00, 0x00, 0xc0, 0x00, 0x00, 0x00, 0x90, 0xa4, 0x04,
   0xff, 0x90, 0x04, 0x8d, 0x00, 0x40, 0x89, 0x04, 0x02, 0x95, 0x00, 0x00,
   0x40, 0x2d, 0x29, 0x80, 0x12, 0x04, 0x21, 0x44, 0x00, 0x00, 0xd0, 0x0f,
   0x00, 0x00, 0xc0, 0x00, 0x00, 0x00, 0x24, 0x01, 0x10, 0xff, 0x05, 0x08,
   0x08, 0x00, 0x02, 0x90, 0x22, 0x00, 0x20, 0x00, 0x00, 0x00, 0x7a, 0x21,
   0x05, 0x90, 0x20, 0x00, 0x00, 0x80, 0x00, 0x10, 0x3d, 0x00, 0x00, 0x80,
   0x00, 0x00, 0x00, 0xa8, 0xa4, 0x22, 0xff, 0x28, 0x20, 0x18, 0x01, 0x80,
   0x40, 0x05, 0x00, 0x4a, 0x05, 0x00, 0x80, 0x54, 0x44, 0x48, 0x01, 0x00,
   0x44, 0x00, 0x02, 0x00, 0x40, 0x75, 0x00, 0x00, 0x00, 0x00, 0x00, 0x00,
   0x14, 0x09, 0x02, 0xff, 0x43, 0x85, 0x10, 0x00, 0x00, 0x89, 0x0a, 0x00,
   0x00, 0x02, 0x00, 0x00, 0xd1, 0x89, 0x00, 0x21, 0x90, 0x08, 0x00, 0x00,
   0x10, 0x50, 0xd5, 0x01, 0x00, 0x00, 0x00, 0x00, 0x00, 0x52, 0x52, 0x88,
   0x7f, 0x14, 0x44, 0x11, 0x01, 0x00, 0x40, 0x11, 0x01, 0x88, 0x04, 0x00,
   0x00, 0xac, 0x93, 0x12, 0x84, 0x02, 0x00, 0x00, 0x80, 0x2e, 0x80, 0xaa,
   0x01, 0x00, 0x00, 0x00, 0x00, 0x00, 0x95, 0x04, 0x02, 0xff, 0x01, 0x00,
   0x12, 0x00, 0x00, 0x12, 0x4a, 0xaa, 0x92, 0x08, 0x00, 0x00, 0x50, 0x17,
   0x04, 0x10, 0x10, 0x20, 0x00, 0xa8, 0x09, 0x10, 0x59, 0x07, 0x00, 0x00,
   0x00, 0x00, 0x00, 0x4a, 0x52, 0x88, 0x7f, 0x20, 0x04, 0x8a, 0x02, 0x00,
   0x40, 0x05, 0x11, 0x49, 0x02, 0x00, 0x00, 0xa0, 0xbd, 0xa8, 0x42, 0x40,
   0x49, 0x40, 0x25, 0x12, 0xa0, 0xa2, 0x0e, 0x00, 0x00, 0x00, 0x00, 0x80,
   0x95, 0x00, 0x90, 0xff, 0x02, 0x40, 0x9a, 0x00, 0x00, 0x00, 0x00, 0x24,
   0x00, 0x28, 0x00, 0x00, 0x00, 0x77, 0x11, 0x10, 0x01, 0x40, 0x55, 0xaa,
   0x04, 0x00, 0x95, 0x1e, 0x00, 0x00, 0x00, 0x00, 0x00, 0x91, 0x92, 0x84,
   0x3f, 0x48, 0x00, 0x94, 0x02, 0x00, 0x80, 0x22, 0x02, 0x00, 0x02, 0x01,
   0x00, 0x40, 0xdc, 0x28, 0x45, 0x40, 0x04, 0x00, 0x11, 0x09, 0x40, 0x25,
   0x78, 0x00, 0x00, 0x00, 0x00, 0x40, 0x15, 0x82, 0x80, 0x7f, 0x80, 0x80,
   0x12, 0x01, 0x00, 0x00, 0x0a, 0x00, 0x00, 0x00, 0x00, 0x00, 0x80, 0xe8,
   0x23, 0x80, 0x00, 0x80, 0x04, 0x00, 0x00, 0x80, 0x6c, 0x73, 0x00, 0x00,
   0x00, 0x00, 0x80, 0x22, 0x10, 0x80, 0x7f, 0x40, 0x80, 0x9a, 0x05, 0x00,
   0x00, 0x20, 0x01, 0x00, 0x00, 0x00, 0x00, 0x00, 0xa0, 0xa9, 0x02, 0x09,
   0x4a, 0x10, 0x00, 0x02, 0x20, 0x01, 0xe4, 0x00, 0x00, 0x00, 0x00, 0xa0,
   0x48, 0x22, 0x88, 0x3f, 0xe0, 0x00, 0xb2, 0x1c, 0x00, 0x20, 0x02, 0x00,
   0x00, 0x00, 0x00, 0x00, 0x00, 0xa0, 0x27, 0x12, 0x40, 0x00, 0x11, 0x25,
   0x08, 0x40, 0xaa, 0x80, 0x01, 0x00, 0x00, 0x00, 0xa0, 0x2a, 0x01, 0xa1,
   0x3f, 0x60, 0x80, 0xbd, 0x10, 0x00, 0x00, 0x00, 0x00, 0x00, 0x00, 0x00,
   0x00, 0x00, 0x80, 0x4f, 0x88, 0x08, 0x00, 0x40, 0x08, 0x00, 0x00, 0x04,
   0x6a, 0x03, 0x00, 0x00, 0x00, 0xa0, 0x20, 0x08, 0x40, 0x3f, 0xf0, 0x00,
   0xf5, 0x51, 0x00, 0x00, 0x00, 0x00, 0x01, 0xa0, 0x00, 0x00, 0x00, 0x92,
   0xde, 0x12, 0x02, 0x09, 0x00, 0x48, 0x05, 0x40, 0x45, 0x48, 0x07, 0x00,
   0x00, 0x00, 0x90, 0x42, 0x22, 0xc0, 0x2f, 0x70, 0x40, 0x77, 0x85, 0x00,
   0x00, 0x00, 0x40, 0x00, 0x00, 0x02, 0x00, 0x00, 0x20, 0x37, 0x45, 0x29,
   0x02, 0x84, 0x22, 0x10, 0x20, 0x08, 0x00, 0x0d, 0x00, 0x00, 0x00, 0x50,
   0x49, 0x00, 0x40, 0x1f, 0x70, 0x00, 0xfe, 0x0b, 0x00, 0x10, 0x00, 0x08,
   0x00, 0x14, 0x00, 0x00, 0x00, 0xa0, 0xbe, 0x0a, 0x45, 0x20, 0x00, 0x00,
   0x02, 0x80, 0x02, 0x20, 0x1c, 0x00, 0x00, 0x00, 0x28, 0x02, 0x40, 0x40,
   0x3f, 0x70, 0xc0, 0x72, 0x15, 0x01, 0x00, 0x00, 0x00, 0x00, 0x25, 0x02,
   0x00, 0x00, 0x00, 0xfe, 0x55, 0x15, 0x01, 0x00, 0x00, 0x00, 0x00, 0x0a,
   0x00, 0x35, 0x00, 0x00, 0x00, 0x54, 0xa9, 0x0a, 0xc0, 0x1f, 0x70, 0x40,
   0xfb, 0x35, 0x00, 0x08, 0x00, 0x00, 0x00, 0xad, 0x14, 0x00, 0x00, 0x00,
   0xbc, 0xaf, 0x72, 0x2d, 0x00, 0x00, 0x00, 0x40, 0x22, 0x20, 0x32, 0x00,
   0x00, 0x00, 0xa8, 0x04, 0x00, 0x40, 0x1f, 0xf0, 0xc0, 0x77, 0x29, 0x02,
   0x00, 0x00, 0x00, 0x50, 0x73, 0x01, 0x00, 0x00, 0x80, 0xfa, 0xbd, 0x0a,
   0x21, 0x02, 0x00, 0x00, 0x80, 0x04, 0x00, 0x54, 0x00, 0x00, 0x00, 0x14,
   0xa9, 0x10, 0xc0, 0x3f, 0xf0, 0x80, 0xf6, 0xe9, 0x00, 0x00, 0x20, 0x01,
   0x40, 0x83, 0x56, 0x00, 0x00, 0x00, 0xfa, 0xef, 0x52, 0x45, 0x04, 0x00,
   0x00, 0x00, 0x02, 0x00, 0xe0, 0x00, 0x00, 0x00, 0x24, 0x01, 0x42, 0xc0,
   0x1f, 0xe0, 0xea, 0xf3, 0x51, 0x02, 0x00, 0x00, 0x00, 0xea, 0x01, 0x28,
   0x82, 0x00, 0x00, 0xe4, 0x3d, 0x01, 0xa8, 0x2a, 0x00, 0x00, 0x00, 0x11,
   0x21, 0x90, 0x01, 0x00, 0x00, 0x54, 0x54, 0x00, 0x60, 0x1b, 0xf0, 0x41,
   0x7b, 0xd3, 0x01, 0x02, 0x00, 0x40, 0xd0, 0x00, 0xa5, 0x00, 0x05, 0x00,
   0xe8, 0xeb, 0x80, 0x40, 0x5b, 0x01, 0x00, 0x00, 0x02, 0x00, 0xa0, 0x01,
   0x00, 0x00, 0x95, 0x02, 0x01, 0xc0, 0x3f, 0xe0, 0xe9, 0xd1, 0x60, 0x02,
   0x00, 0x00, 0x00, 0xfb, 0x40, 0x28, 0x01, 0x10, 0x00, 0xf4, 0x07, 0x00,
   0xc0, 0xaa, 0x04, 0x00, 0x80, 0x08, 0x04, 0x00, 0x03, 0x00, 0x00, 0x2a,
   0x10, 0x00, 0xe0, 0x1f, 0xe0, 0xcb, 0x73, 0xc3, 0x80, 0x00, 0x02, 0x00,
   0xe2, 0x80, 0x52, 0x02, 0x00, 0x00, 0xe0, 0x55, 0x00, 0x50, 0xbb, 0x1d,
   0x00, 0x00, 0x21, 0x00, 0x20, 0x06, 0x00, 0x00, 0x55, 0x45, 0x10, 0xc0,
   0x3f, 0xe0, 0xb7, 0x79, 0xf1, 0x04, 0x00, 0x00, 0xa0, 0xc4, 0x00, 0x4a,
   0x01, 0x10, 0x00, 0xd8, 0x05, 0x00, 0xee, 0x77, 0x57, 0x21, 0x00, 0x00,
   0x00, 0x00, 0x0d, 0x00, 0x00, 0xa5, 0x04, 0x01, 0xc0, 0x3f, 0xe0, 0xef,
   0xf9, 0x63, 0x00, 0x40, 0x00, 0x80, 0xe2, 0x00, 0x5a, 0x02, 0x40, 0x00,
   0xd0, 0x0b, 0xe0, 0xbf, 0xef, 0xbd, 0xab, 0x00, 0x04, 0x00, 0x00, 0x18,
   0x00, 0x00, 0x55, 0x10, 0x00, 0x60, 0x1f, 0xc0, 0xdf, 0xfb, 0x69, 0x04,
   0x00, 0x00, 0x50, 0x64, 0x00, 0xa6, 0x02, 0x10, 0x00, 0xa8, 0xa5, 0xff,
   0xff, 0xff, 0x77, 0xab, 0x00, 0x01, 0x20, 0x00, 0x10, 0x00, 0x00, 0x55,
   0x25, 0x08, 0xe0, 0x3f, 0xc0, 0xef, 0x73, 0x62, 0x00, 0x10, 0x0e, 0x80,
   0xe0, 0x00, 0xb4, 0x00, 0x80, 0x00, 0x50, 0xff, 0xbf, 0x4b, 0xa8, 0xef,
   0x6e, 0x05, 0x40, 0x40, 0x00, 0x20, 0x00, 0x80, 0x92, 0x92, 0x02, 0xe0,
   0x1f, 0xc0, 0xff, 0x7b, 0x18, 0x00, 0xc0, 0x30, 0x50, 0xa2, 0x00, 0x69,
   0x01, 0x20, 0x01, 0xa0, 0xff, 0xff, 0x12, 0xe8, 0xfe, 0xbd, 0x13, 0x00,
   0x00, 0x00, 0x50, 0x00, 0x00, 0xa5, 0x00, 0x00, 0xe0, 0x3f, 0x80, 0xef,
   0x77, 0x32, 0x00, 0x00, 0x15, 0x40, 0xd2, 0x00, 0x4b, 0x00, 0x00, 0x02,
   0x40, 0xfe, 0x9f, 0x44, 0xd1, 0x57, 0x6b, 0xaf, 0x80, 0x00, 0x00, 0x80,
   0x00, 0x00, 0x55, 0x2a, 0x00, 0xc0, 0x3f, 0x80, 0xff, 0xff, 0x09, 0x00,
   0x50, 0x38, 0x10, 0x62, 0x80, 0x55, 0x00, 0x20, 0x01, 0xd0, 0xff, 0xf6,
   0x22, 0x69, 0xaf, 0x94, 0x94, 0x14, 0x22, 0x00, 0x41, 0x00, 0x80, 0x4a,
   0x25, 0x02, 0xe0, 0x1f, 0x80, 0xff, 0x77, 0x2b, 0x00, 0x04, 0x30, 0x40,
   0xc4, 0x00, 0x5f, 0x00, 0x00, 0x01, 0x10, 0xff, 0xff, 0x22, 0xe9, 0xba,
   0x22, 0x5c, 0x01, 0x00, 0x00, 0x00, 0x00, 0x00, 0x91, 0x00, 0x00, 0xe0,
   0x7f, 0x00, 0xff, 0xff, 0x04, 0x00, 0x10, 0x1e, 0x28, 0x71, 0x00, 0xa9,
   0x00, 0x10, 0x02, 0x40, 0xff, 0xef, 0x4b, 0xbe, 0xaf, 0x54, 0x97, 0x12,
   0x8a, 0x02, 0x04, 0x00, 0x80, 0x56, 0xad, 0x00, 0xe0, 0x5f, 0x00, 0xff,
   0xff, 0x01, 0x00, 0x04, 0x38, 0x00, 0xc1, 0x00, 0x03, 0x00, 0xa0, 0x06,
   0x80, 0xfe, 0xff, 0xcf, 0xfa, 0xaf, 0xd4, 0xba, 0x12, 0x10, 0x08, 0x20,
   0x00, 0x80, 0x28, 0x01, 0x00, 0xe0, 0x3f, 0x01, 0xff, 0xbf, 0x07, 0x00,
   0x10, 0x38, 0xb8, 0x58, 0x80, 0x01, 0x00, 0x80, 0x02, 0x20, 0xfe, 0xbf,
   0xff, 0xff, 0xba, 0xbf, 0xa0, 0x0a, 0x80, 0x12, 0x00, 0x00, 0x00, 0x55,
   0x2a, 0x01, 0xe0, 0x7f, 0x00, 0xff, 0x1f, 0x00, 0x00, 0x04, 0x38, 0xa0,
   0xd0, 0x00, 0x01, 0x00, 0x10, 0x05, 0x80, 0xfe, 0x7f, 0xad, 0xf6, 0xfb,
   0x05, 0x82, 0x0a, 0xa8, 0xd0, 0x42, 0x00, 0x00, 0x28, 0x01, 0x44, 0xc0,
   0xbf, 0x00, 0xfe, 0x0f, 0x00, 0x00, 0x10, 0x38, 0x90, 0x50, 0x81, 0x01,
   0x00, 0x40, 0x01, 0xa0, 0xfe, 0x95, 0xe5, 0xff, 0x6f, 0x00, 0x50, 0x25,
   0x22, 0x25, 0x05, 0x00, 0x40, 0xa5, 0x24, 0x01, 0xe0, 0xbf, 0x00, 0xfe,
   0x1f, 0x00, 0x00, 0x00, 0xb0, 0xa0, 0x80, 0x00, 0x01, 0x2a, 0x24, 0x03,
   0x80, 0xfc, 0xff, 0xae, 0xaf, 0x5e, 0x21, 0x22, 0x0d, 0x00, 0x40, 0x5d,
   0x00, 0x00, 0x54, 0x09, 0x00, 0xc0, 0x7f, 0x00, 0xfc, 0x03, 0x00, 0x00,
   0x52, 0xe0, 0x05, 0x48, 0x81, 0x01, 0x5e, 0x50, 0x00, 0x20, 0x7f, 0xed,
   0xff, 0xfd, 0x2b, 0x40, 0x95, 0x02, 0xf4, 0x96, 0x24, 0x00, 0x80, 0x94,
   0x52, 0x02, 0xe0, 0xff, 0x08, 0xfc, 0x07, 0x00, 0x00, 0x10, 0xe1, 0x29,
   0x10, 0x03, 0x81, 0x3a, 0xa0, 0x01, 0x40, 0xdc, 0xbd, 0xff, 0x9b, 0xb6,
   0x6a, 0xa9, 0x22, 0xa0, 0x15, 0xa9, 0x00, 0x00, 0xaa, 0x0a, 0x08, 0xc0,
   0x3f, 0x02, 0xfc, 0x03, 0x00, 0x00, 0x42, 0x80, 0xa9, 0x80, 0x02, 0xa1,
   0x18, 0x50, 0x00, 0x80, 0xad, 0xf6, 0xbf, 0xf7, 0xae, 0xae, 0x56, 0x88,
   0x50, 0x5b, 0x6a, 0x00, 0x00, 0x20, 0xa1, 0x08, 0xe0, 0x7f, 0x02, 0xfc,
   0x07, 0x00, 0x80, 0x00, 0x00, 0x75, 0x01, 0x0b, 0x01, 0xbd, 0x44, 0x01,
   0x00, 0xfd, 0xff, 0xf7, 0xde, 0x6d, 0xd5, 0x4d, 0x80, 0x00, 0xf5, 0xa8,
   0x00, 0x00, 0xaa, 0x0a, 0x01, 0xc0, 0x7f, 0x04, 0xf0, 0x01, 0x10, 0x00,
   0x00, 0x00, 0xf4, 0xad, 0x26, 0x02, 0x7e, 0x10, 0x02, 0x00, 0xfb, 0x6f,
   0xdb, 0x35, 0xdd, 0xba, 0x06, 0x00, 0x00, 0x04, 0xa2, 0x00, 0x00, 0x48,
   0x22, 0x40, 0xc0, 0x7f, 0x02, 0x80, 0x01, 0x21, 0x40, 0x00, 0x00, 0xa8,
   0x05, 0x0f, 0x02, 0x3d, 0x84, 0x04, 0x40, 0xfe, 0x7f, 0x5f, 0x5f, 0x57,
   0xaa, 0x0d, 0x40, 0x01, 0xa8, 0xa4, 0x00, 0x00, 0x54, 0x25, 0x01, 0xc0,
   0x7f, 0x01, 0xe8, 0x10, 0x00, 0x00, 0x08, 0x00, 0xf5, 0x55, 0xaf, 0xc2,
   0xbe, 0x59, 0x08, 0x80, 0xfa, 0xef, 0xf5, 0xaa, 0xca, 0x75, 0x03, 0x00,
   0x00, 0x00, 0x88, 0x00, 0x80, 0xa0, 0x4a, 0x22, 0xc4, 0xbf, 0x04, 0xc0,
   0x01, 0x00, 0x80, 0x00, 0x00, 0x6a, 0x05, 0x2f, 0x9d, 0xbf, 0xb0, 0x8b,
   0x24, 0xfe, 0xbf, 0xae, 0x55, 0xbd, 0x6f, 0x0f, 0x08, 0x00, 0x40, 0x10,
   0x00, 0x00, 0x2c, 0x29, 0x00, 0xc0, 0x7f, 0x01, 0x50, 0x00, 0x00, 0x00,
   0x00, 0x02, 0xf4, 0x09, 0x4f, 0xf3, 0xbf, 0x6e, 0x14, 0x40, 0xfd, 0xd5,
   0x15, 0xfa, 0xef, 0xff, 0x05, 0x80, 0x00, 0x00, 0x42, 0x00, 0x00, 0x48,
   0x8a, 0x12, 0xc2, 0x7f, 0x02, 0xc0, 0x01, 0x00, 0x08, 0x40, 0x00, 0xe4,
   0x43, 0x5e, 0xd6, 0xff, 0xe8, 0x03, 0x00, 0xff, 0x35, 0x00, 0xfa, 0xff,
   0xbf, 0x1f, 0x10, 0x00, 0x04, 0x00, 0x00, 0x00, 0x55, 0x25, 0x24, 0xc8,
   0xff, 0x00, 0x52, 0x00, 0x00, 0x00, 0x04, 0x00, 0xee, 0xc5, 0xb7, 0xfd,
   0xb7, 0xfe, 0x06, 0xc0, 0x3e, 0x01, 0x00, 0xf4, 0xff, 0xff, 0x2b, 0x4a,
   0x01, 0x00, 0x00, 0x00, 0x00, 0x90, 0x14, 0x89, 0xc0, 0xbf, 0x06, 0xd0,
   0x00, 0x00, 0x00, 0x00, 0x00, 0xe9, 0xcf, 0x37, 0xfd, 0xff, 0xd5, 0x0d,
   0x40, 0x2e, 0x00, 0x00, 0xf4, 0xff, 0xff, 0x5f, 0x55, 0x82, 0x0a, 0x48,
   0x00, 0x00, 0x50, 0x55, 0x24, 0x90, 0x7f, 0x00, 0xd6, 0x08, 0x00, 0x20,
   0xa5, 0x00, 0xf6, 0xff, 0xdf, 0xfa, 0xd7, 0xff, 0x22, 0x88, 0x02, 0x00,
   0x00, 0xe0, 0xff, 0xff, 0x6f, 0x89, 0x34, 0x01, 0x00, 0x00, 0x00, 0x54,
   0x55, 0x21, 0xc2, 0xff, 0x0a, 0x50, 0x51, 0x92, 0x04, 0x80, 0x8a, 0xf2,
   0xff, 0xff, 0xfa, 0xbe, 0xdd, 0x07, 0xa0, 0x00, 0x00, 0x00, 0x80, 0xff,
   0xff, 0xaf, 0xb6, 0x45, 0x55, 0x25, 0x00, 0x00, 0x50, 0x15, 0x45, 0x88,
   0x7f, 0x08, 0xe4, 0x02, 0x48, 0x50, 0x95, 0x5a, 0xfd, 0xd7, 0xaf, 0x5c,
   0xfb, 0x77, 0x09, 0x50, 0x00, 0x00, 0x00, 0x00, 0xfe, 0xff, 0xdf, 0x2a,
   0x2a, 0x12, 0xa9, 0x00, 0x00, 0xa0, 0x6a, 0x4a, 0x91, 0xff, 0x01, 0xa4,
   0x22, 0x02, 0x02, 0x52, 0x81, 0xfc, 0xff, 0xff, 0x56, 0xb3, 0xfe, 0x93,
   0xd0, 0x00, 0x00, 0x00, 0x40, 0xfc, 0xff, 0x9f, 0x6e, 0xa5, 0x6a, 0x4a,
   0x00, 0x00, 0xa0, 0xaa, 0x10, 0xca, 0xff, 0x04, 0x68, 0x94, 0x54, 0x54,
   0x04, 0x00, 0x5e, 0x57, 0x5f, 0xb7, 0xee, 0xab, 0x80, 0x2a, 0x00, 0x00,
   0x00, 0x40, 0xf1, 0xff, 0x6f, 0x75, 0x54, 0xa5, 0x54, 0x00, 0x00, 0xc0,
   0x56, 0x57, 0x89, 0xff, 0x0c, 0xd4, 0x51, 0x49, 0x01, 0x10, 0x00, 0x5f,
   0xef, 0x5f, 0xa5, 0x7a, 0x7f, 0x01, 0x4a, 0x00, 0x00, 0x00, 0x00, 0xe3,
   0xff, 0xef, 0xee, 0x55, 0xa9, 0x56, 0x00, 0x00, 0x40, 0x55, 0x21, 0x51,
   0xff, 0x41, 0x7a, 0xa5, 0x24, 0x04, 0xb4, 0x81, 0xbf, 0x5e, 0x7f, 0xd5,
   0xed, 0x55, 0x80, 0x12, 0x00, 0x00, 0x00, 0x80, 0x96, 0xff, 0x5f, 0xbb,
   0x52, 0x25, 0x09, 0x00, 0x00, 0x40, 0x55, 0x55, 0x84, 0xff, 0x8d, 0xaa,
   0x8f, 0x00, 0x00, 0xab, 0xaf, 0xff, 0xfa, 0xff, 0x5a, 0x5b, 0xab, 0x81,
   0x28, 0x00, 0x00, 0x00, 0x00, 0x35, 0xfe, 0xff, 0xfd, 0xaa, 0xea, 0x07,
   0x00, 0x00, 0x00, 0xab, 0x4a, 0xa9, 0xff, 0x11, 0xa2, 0x7a, 0x03, 0xa0,
   0x74, 0x45, 0xff, 0xdf, 0xbf, 0xb7, 0xb5, 0x15, 0x00, 0x0a, 0x00, 0x00,
   0x00, 0x00, 0xda, 0xfa, 0xbf, 0xfe, 0xab, 0x94, 0x00, 0x00, 0x00, 0x00,
   0xb6, 0x2a, 0x29, 0xff, 0x57, 0x44, 0xff, 0xff, 0x00, 0xd5, 0x9f, 0xfc,
   0x7f, 0x75, 0xef, 0xbf, 0x52, 0x00, 0x02, 0x00, 0x00, 0x00, 0x00, 0xb4,
   0xf5, 0xff, 0x7f, 0xa9, 0x75, 0x00, 0x00, 0x00, 0x00, 0xa9, 0xaa, 0x44,
   0xff, 0x93, 0xaa, 0xff, 0xff, 0xaf, 0xa8, 0xfe, 0xff, 0xf1, 0xdf, 0xb5,
   0xed, 0x8f, 0xc0, 0x09, 0x00, 0x00, 0x00, 0x00, 0xac, 0xe6, 0xff, 0xff,
   0xad, 0x1f, 0xa0, 0x00, 0x00, 0x00, 0xaa, 0x55, 0x49, 0xff, 0x13, 0xa0,
   0xff, 0xff, 0x5f, 0x6b, 0xfd, 0xff, 0x81, 0xbe, 0xb2, 0xff, 0x14, 0x10,
   0x01, 0x00, 0x00, 0x00, 0x00, 0xa8, 0xad, 0xff, 0xff, 0xeb, 0x0d, 0x10,
   0x00, 0x00, 0x00, 0x54, 0x95, 0x54, 0xff, 0x23, 0xc2, 0xff, 0xff, 0x55,
   0xb9, 0xf5, 0xff, 0x03, 0x00, 0xf4, 0xbe, 0x02, 0x20, 0x00, 0x00, 0x00,
   0x00, 0x00, 0x68, 0x75, 0xff, 0xff, 0xff, 0x03, 0x04, 0x00, 0x00, 0x00,
   0xa8, 0x2a, 0x89, 0xfe, 0x4f, 0xc0, 0xff, 0xff, 0xff, 0x6a, 0xd5, 0xff,
   0x03, 0x80, 0xd4, 0x57, 0x04, 0x84, 0x00, 0x00, 0x00, 0x00, 0x00, 0x98,
   0xd6, 0xfd, 0xff, 0xff, 0x00, 0x04, 0x00, 0x00, 0x00, 0x90, 0xaa, 0x52,
   0xff, 0x97, 0xc8, 0xff, 0xfd, 0x55, 0xb7, 0x4b, 0xf5, 0x03, 0x90, 0x7f,
   0xa5, 0x02, 0x14, 0x00, 0x00, 0x00, 0x00, 0x00, 0x70, 0x29, 0xff, 0xff,
   0x0f, 0x00, 0x01, 0x00, 0x00, 0x00, 0x50, 0x55, 0x0a, 0xfe, 0x37, 0xc1,
   0xff, 0xfe, 0xef, 0x77, 0x1b, 0x4a, 0x47, 0x6a, 0xd5, 0x05, 0x02, 0x01,
   0x00, 0x00, 0x00, 0x00, 0x00, 0x60, 0x6b, 0xf9, 0x7f, 0x09, 0x20, 0x00,
   0x00, 0x00, 0x00, 0xa0, 0x52, 0xd1, 0xfc, 0x5f, 0xa1, 0xff, 0xfe, 0xbd,
   0xde, 0xff, 0xaa, 0xb4, 0xda, 0x7f, 0x11, 0x04, 0x00, 0x00, 0x00, 0x00,
   0x00, 0x00, 0xa0, 0x96, 0xf6, 0x01, 0x00, 0x05, 0x00, 0x00, 0x00, 0x00,
   0x80, 0x4a, 0x15, 0xfd, 0x57, 0xcb, 0xff, 0xfe, 0xfb, 0x7f, 0xab, 0xa5,
   0x4a, 0x5b, 0x55, 0x81, 0xa8, 0x00, 0x00, 0x00, 0x00, 0x00, 0x00, 0x60,
   0xad, 0xaa, 0x03, 0x20, 0x01, 0x00, 0x00, 0x00, 0x00, 0x00, 0x15, 0x45,
   0xfd, 0xbf, 0xa2, 0xef, 0xfd, 0xf5, 0xf5, 0xfd, 0xaa, 0xaa, 0xa4, 0x4a,
   0x03, 0x00, 0x00, 0x00, 0x00, 0x00, 0x00, 0x00, 0x40, 0xb5, 0xea, 0x8d,
   0x0a, 0x00, 0x00, 0x00, 0x00, 0x00, 0x00, 0x69, 0x14, 0xfa, 0xef, 0xce,
   0xef, 0x5d, 0xfb, 0x07, 0x55, 0xdf, 0xaa, 0xaa, 0x56, 0x14, 0x11, 0x00,
   0x00, 0x00, 0x00, 0x00, 0x00, 0x80, 0xaa, 0xaa, 0x1f, 0x10, 0x00, 0x00,
   0x00, 0x00, 0x00, 0x00, 0x44, 0xd3, 0xfc, 0x5f, 0xc9, 0xdf, 0xff, 0xdf,
   0x4a, 0x88, 0xfa, 0xff, 0xb5, 0x82, 0x22, 0x00, 0x00, 0x00, 0x00, 0x00,
   0x00, 0x00, 0x40, 0x55, 0x55, 0x15, 0x00, 0x00, 0x00, 0x00, 0x00, 0x00,
   0x00, 0x58, 0x92, 0xf8, 0xff, 0x97, 0xdf, 0x7f, 0xd3, 0x4b, 0x52, 0x5f,
   0x95, 0xa6, 0x28, 0x0a, 0x02, 0x00, 0x00, 0x00, 0x00, 0x00, 0x00, 0x00,
   0xda, 0x55, 0x37, 0x40, 0x00, 0x00, 0x00, 0x00, 0x00, 0x00, 0x20, 0x45,
   0xf9, 0x2f, 0xa9, 0xdf, 0xfb, 0xc1, 0x0a, 0xd4, 0xab, 0x6a, 0x15, 0x82,
   0x40, 0x00, 0x00, 0x00, 0x00, 0x00, 0x00, 0x00, 0x00, 0x2b, 0x55, 0x2d,
   0x00, 0x00, 0x80, 0x00, 0x00, 0x00, 0x00, 0x40, 0x99, 0xe2, 0x7f, 0xd7,
   0xbf, 0xff, 0xd3, 0xf6, 0xd5, 0xab, 0x0b, 0xd0, 0x00, 0x09, 0x00, 0x00,
   0x00, 0x00, 0x00, 0x00, 0x00, 0x00, 0xb6, 0xb5, 0x6a, 0x00, 0x00, 0xf0,
   0x00, 0x00, 0x00, 0x00, 0x80, 0xa2, 0xf8, 0xff, 0xaf, 0x5f, 0xe7, 0xdf,
   0x8b, 0xf4, 0xda, 0x94, 0x14, 0x09, 0x00, 0x00, 0x00, 0x00, 0x00, 0x00,
   0x00, 0x00, 0x00, 0x7c, 0x55, 0xad, 0x40, 0x00, 0xfe, 0x00, 0x00, 0x00,
   0x00, 0x00, 0x95, 0xe2, 0xbf, 0xdd, 0xcf, 0xdf, 0x2f, 0xfa, 0xbd, 0x22,
   0x11, 0x20, 0x10, 0x00, 0x00, 0x00, 0x00, 0x00, 0x00, 0x00, 0x00, 0x00,
   0xfc, 0xab, 0x5a, 0x00, 0x00, 0xff, 0x00, 0x00, 0x00, 0x00, 0x00, 0x54,
   0xf5, 0xbf, 0xb7, 0x9f, 0xfe, 0xcf, 0x56, 0x17, 0x84, 0x44, 0x80, 0xa2,
   0x00, 0x00, 0x00, 0x00, 0x00, 0x00, 0x00, 0x00, 0x00, 0xf8, 0xaf, 0xaa,
   0x01, 0xf0, 0xff, 0x00, 0x00, 0x00, 0x00, 0x00, 0x20, 0xc5, 0xff, 0xee,
   0x9f, 0xfe, 0x8f, 0xf0, 0x03, 0x28, 0x00, 0x00, 0x04, 0x00, 0x00, 0x00,
   0x00, 0x00, 0x00, 0x00, 0x00, 0x00, 0xf8, 0xff, 0x5b, 0x0b, 0xfc, 0xff,
   0x00, 0x00, 0x00, 0x00, 0x00, 0x40, 0xd2, 0xff, 0xd7, 0xd7, 0xff, 0x0f,
   0x03, 0x41, 0x80, 0xa2, 0x2a, 0x00, 0x00, 0x00, 0x00, 0x00, 0x00, 0x00,
   0x00, 0x00, 0x00, 0xf0, 0xff, 0xad, 0x96, 0xff, 0xdf, 0x00, 0x00, 0x00,
   0x00, 0x00, 0x00, 0x92, 0xff, 0x87, 0x0f, 0xfd, 0x14, 0x0c, 0x00, 0x00,
   0x08, 0x00, 0x00, 0x00, 0x00, 0x00, 0x00, 0x00, 0x00, 0x00, 0x00, 0x00,
   0xe0, 0xff, 0xdf, 0xde, 0xff, 0xef, 0x00, 0x00, 0x00, 0x00, 0x00, 0x00,
   0x80, 0xff, 0x95, 0xaa, 0xfe, 0x05, 0x00, 0x00, 0x00, 0x20, 0x00, 0x00,
   0x00, 0x00, 0x00, 0x00, 0x00, 0x00, 0x00, 0x00, 0x00, 0xe0, 0xf7, 0xff,
   0xff, 0xff, 0xbd, 0x00, 0x00, 0x00, 0x00, 0x00, 0x00, 0x00, 0xff, 0x07,
   0x6f, 0xfd, 0x01, 0x40, 0xdf, 0x0b, 0x20, 0x00, 0x00, 0x00, 0x00, 0x00,
   0x00, 0x00, 0x00, 0x00, 0x00, 0x00, 0xc0, 0xff, 0xff, 0xff, 0xbf, 0xf5,
   0x00, 0x00, 0x00, 0x00, 0x00, 0x00, 0x00, 0xff, 0x47, 0xfd, 0x3d, 0x00,
   0xe8, 0x2a, 0x52, 0x02, 0x00, 0x00, 0x00, 0x00, 0x00, 0x00, 0x00, 0x00,
   0x00, 0x00, 0x00, 0xc0, 0xbe, 0xff, 0xff, 0xe7, 0x5f, 0x00, 0x00, 0x00,
   0x00, 0x00, 0x00, 0x00, 0xfe, 0x1f, 0x2a, 0x0a, 0x20, 0x1c, 0xe9, 0x04,
   0x00, 0x00, 0x00, 0x00, 0x00, 0x00, 0x00, 0x00, 0x00, 0x00, 0x00, 0x00,
   0x80, 0xff, 0xff, 0xff, 0xaa, 0xfa, 0x00, 0x00, 0x00, 0x00, 0x00, 0x00,
   0x00, 0xfc, 0xff, 0x01, 0x00, 0x80, 0x6b, 0x00, 0x00, 0x00, 0x00, 0x00,
   0x00, 0x00, 0x00, 0x00, 0x00, 0x00, 0x00, 0x00, 0x00, 0x80, 0xff, 0xff,
   0xff, 0x75, 0xff, 0x00, 0x00, 0x00, 0x00, 0x00, 0x00, 0x00, 0xf8, 0xff,
   0x07, 0x00, 0x10, 0xce, 0x07, 0x00, 0x00, 0x00, 0x00, 0x00, 0x00, 0x00,
   0x00, 0x00, 0x00, 0x00, 0x00, 0x00, 0x00, 0xfb, 0xff, 0xff, 0xee, 0xde,
   0x00, 0x00, 0x00, 0x00, 0x00, 0x00, 0x00, 0xf0, 0xff, 0x03, 0x00, 0x00,
   0xb5, 0x00, 0x00, 0x00, 0x00, 0x00, 0x00, 0x00, 0x00, 0x00, 0x00, 0x00,
   0x00, 0x00, 0x00, 0x00, 0xde, 0xff, 0xff, 0xeb, 0xfb, 0x00, 0x00, 0x00,
   0x00, 0x00, 0x00, 0x00, 0xf0, 0xff, 0x01, 0x00, 0x20, 0x3e, 0x00, 0x00,
   0x00, 0x00, 0x00, 0x00, 0x00, 0x00, 0x00, 0x00, 0x00, 0x00, 0x00, 0x00,
   0x00, 0xfe, 0xff, 0xff, 0xdf, 0xff, 0x00, 0x00, 0x00, 0x00, 0x00, 0x00,
   0x00, 0xc0, 0xff, 0x01, 0x00, 0x00, 0x12, 0x00, 0x00, 0x00, 0x00, 0x00,
   0x00, 0x00, 0x00, 0x00, 0x00, 0x00, 0x00, 0x00, 0x00, 0x00, 0xfc, 0xff,
   0xff, 0xef, 0xef, 0x00, 0x00, 0x00, 0x00, 0x00, 0x00, 0x00, 0x80, 0xff,
   0x00, 0x00, 0x00, 0x00, 0x00, 0x00, 0x00, 0x00, 0x00, 0x00, 0x00, 0x00,
   0x00, 0x00, 0x00, 0x00, 0x00, 0x00, 0x00, 0xfc, 0xff, 0xff, 0xff, 0xff,
   0x00, 0x00, 0x00, 0x00, 0x00, 0x00, 0x00, 0x00, 0x14, 0x00, 0x00, 0x00,
   0x00, 0x00, 0x00, 0x00, 0x00, 0x00, 0x00, 0x00, 0x00, 0x00, 0x00, 0x00,
   0x00, 0x00, 0x00, 0x00, 0xb8, 0xff, 0xff, 0xff, 0xff, 0x00, 0x00, 0x00,
   0x00, 0x00, 0x00, 0x00, 0x00, 0x00, 0x00, 0x00, 0x00, 0x00, 0x00, 0x00,
   0x00, 0x00, 0x00, 0x00, 0x00, 0x00, 0x00, 0x00, 0x00, 0x00, 0x00, 0x00,
   0x00, 0xf0, 0xff, 0xff, 0xff, 0xff, 0x00, 0x00, 0x00, 0x00, 0x00, 0x00,
   0x00, 0x00, 0x00, 0x00, 0x00, 0x00, 0x00, 0x00, 0x00, 0x00, 0x00, 0x00,
   0x00, 0x00, 0x00, 0x00, 0x00, 0x00, 0x00, 0x00, 0x00, 0x00, 0xf0, 0xff,
   0xff, 0xff, 0xff, 0x00, 0x00, 0x00, 0x00, 0x00, 0x00, 0x00, 0x00, 0x00,
   0x00, 0x00, 0x00, 0x00, 0x00, 0x00, 0x00, 0x00, 0x00, 0x00, 0x00, 0x00,
   0x00, 0x00, 0x00, 0x00, 0x00, 0x00, 0x00, 0xe0, 0xff, 0xff, 0xff, 0xff,
   0x00, 0x00, 0x00, 0x00, 0x00, 0x00, 0x00, 0x00, 0x00, 0x00, 0x00, 0x00,
   0x00, 0x00, 0x00, 0x00, 0x00, 0x00, 0x00, 0x00, 0x00, 0x00, 0x00, 0x00,
   0x00, 0x00, 0x00, 0x00, 0xe0, 0xff, 0xff, 0xff, 0xff, 0x00, 0x00, 0x00,
   0x00, 0x00, 0x00, 0x00, 0x00, 0x00, 0x00, 0x00, 0x00, 0x00, 0x00, 0x00,
   0x00, 0x00, 0x00, 0x00, 0x00, 0x00, 0x00, 0x00, 0x00, 0x00, 0x00, 0x00,
   0x00, 0xc0, 0xff, 0xff, 0xff, 0xff, 0x00, 0x00, 0x00, 0x00, 0x00, 0x00,
   0x00, 0x00, 0x00, 0x00, 0x00, 0x00, 0x00, 0x00, 0x00, 0x00, 0x00, 0x00,
   0x00, 0x00, 0x00, 0x00, 0x00, 0x00, 0x00, 0x00, 0x00, 0x00, 0x80, 0xff,
   0xff, 0xff, 0xff, 0x00, 0x00, 0x00, 0x00, 0x00, 0x00, 0x00, 0x00, 0x00,
   0x00, 0x00, 0x00, 0x00, 0x00, 0x00, 0x00, 0x00, 0x00, 0x00, 0x00, 0x00,
   0x00, 0x00, 0x00, 0x00, 0x00, 0x00, 0x00, 0x80, 0xff, 0xff, 0xff, 0xff,
   0x00, 0x00, 0x00, 0x00, 0x00, 0x00, 0x00, 0x00, 0x00, 0x00, 0x00, 0x00,
   0x00, 0x00, 0x00, 0x00, 0x00, 0x00, 0x00, 0x00, 0x00, 0x00, 0x00, 0x00,
   0x00, 0x00, 0x00, 0x00, 0x00, 0xff, 0xff, 0xff, 0xff, 0x00, 0x00, 0x00,
   0x00, 0x00, 0x00, 0x00, 0x00, 0x00, 0x00, 0x00, 0x00, 0x00, 0x00, 0x00,
   0x00, 0x00, 0x00, 0x00, 0x00, 0x00, 0x00, 0x00, 0x00, 0x00, 0x00, 0x00,
   0x00, 0x00, 0x7f, 0xff, 0xff, 0xff, 0x00, 0x00, 0x00, 0x00, 0x00, 0x00,
   0x00, 0x00, 0x00, 0x00, 0x00, 0x00, 0x00, 0x00, 0x00, 0x00, 0x00, 0x00,
   0x00, 0x00, 0x00, 0x00, 0x00, 0x00, 0x00, 0x00, 0x00, 0x00, 0x00, 0xde,
   0xfd, 0xff, 0xff, 0x00, 0x00, 0x00, 0x00, 0x00, 0x00, 0x00, 0x00, 0x00,
   0x00, 0x00, 0x00, 0x00, 0x00, 0x00, 0x00, 0x00, 0x00, 0x00, 0x00, 0x00,
   0x00, 0x00, 0x00, 0x00, 0x00, 0x00, 0x00, 0x00, 0xfc, 0xff, 0xff, 0xff,
   0x00, 0x00, 0x00, 0x00, 0x00, 0x00, 0x00, 0x00, 0x00, 0x00, 0x00, 0x00,
   0x00, 0x00, 0x00, 0x00, 0x00, 0x00, 0x00, 0x00, 0x00, 0x00, 0x00, 0x00,
   0x00, 0x00, 0x00, 0x00, 0x00, 0xb8, 0xff, 0xff, 0xff, 0x00, 0x00, 0x00,
   0x00, 0x00, 0x00, 0x00, 0x00, 0x00, 0x00, 0x00, 0x00, 0x00, 0x00, 0x00,
   0x00, 0x00, 0x00, 0x00, 0x00, 0x00, 0x00, 0x00, 0x00, 0x00, 0x00, 0x00,
   0x00, 0x00, 0xf0, 0xff, 0xff, 0xff, 0x00, 0x00, 0x00, 0x00, 0x00, 0x00,
   0x00, 0x00, 0x00, 0x00, 0x00, 0x00, 0x00, 0x00, 0x00, 0x00, 0x00, 0x00,
   0x00, 0x00, 0x00, 0x00, 0x00, 0x00, 0x00, 0x00, 0x00, 0x00, 0x00, 0xe0,
   0xfd, 0xff, 0xff, 0x00, 0x00, 0x00, 0x00, 0x00, 0x00, 0x00, 0x00, 0x00,
   0x00, 0x00, 0x00, 0x00, 0x00, 0x00, 0x00, 0x00, 0x00, 0x00, 0x00, 0x00,
   0x00, 0x00, 0x00, 0x00, 0x00, 0x00, 0x00, 0x00, 0xe0, 0xdf, 0xff, 0xff,
   0x00, 0x00, 0x00, 0x00, 0x00, 0x00, 0x00, 0x00, 0x00, 0x00, 0x00, 0x00,
   0x00, 0x00, 0x00, 0x00, 0x00, 0x00, 0x00, 0x00, 0x00, 0x00, 0x00, 0x00,
   0x00, 0x00, 0x00, 0x00, 0x00, 0xe0, 0xff, 0xff, 0xff, 0x00, 0x00, 0x00,
   0x00, 0x00, 0x00, 0x00, 0x00, 0x00, 0x00, 0x00, 0x00, 0x00, 0x00, 0x00,
   0x00, 0x00, 0x00, 0x00, 0x00, 0x00, 0x00, 0x00, 0x00, 0x00, 0x00, 0x00,
   0x00, 0x00, 0xc0, 0xdf, 0xff, 0xff, 0x00, 0x00, 0x00, 0x00, 0x00, 0x00,
   0x00, 0x00, 0x00, 0x00, 0x00, 0x00, 0x00, 0x00, 0x00, 0x00, 0x00, 0x00,
   0x00, 0x00, 0x00, 0x00, 0x00, 0x00, 0x00, 0x00, 0x00, 0x00, 0x00, 0xc0,
   0xff, 0xff, 0xab, 0x00, 0x00, 0x00, 0x00, 0x00, 0x00, 0x00, 0x00, 0x00,
   0x00, 0x00, 0x00, 0x00, 0x00, 0x00, 0x00, 0x00, 0x00, 0x00, 0x00, 0x00,
   0x00, 0x00, 0x00, 0x00, 0x00, 0x00, 0x00, 0x00, 0x80, 0xff, 0x5b, 0x15,
   0x00, 0x00, 0x00, 0x00, 0x00, 0x00, 0x00, 0x00, 0x00, 0x00, 0x00, 0x00,
   0x00, 0x00, 0x00, 0x00, 0x00, 0x00, 0x00, 0x00, 0x00, 0x00, 0x00, 0x00,
   0x00, 0x00, 0x00, 0x00, 0x00, 0x00, 0x00, 0x26, 0x40, 0x00, 0x00, 0x00,
   0x00, 0x00, 0x00, 0x00, 0x00, 0x00, 0x00, 0x00, 0x00, 0x00, 0x00, 0x00,
   0x00, 0x00, 0x00, 0x00, 0x00, 0x00, 0x00, 0x00, 0x00, 0x00, 0x00, 0x00,
   0x00, 0x00, 0x00, 0x00, 0x84, 0x14, 0x00, 0x00, 0x00, 0x00, 0x00, 0x00,
   0x00, 0x00, 0x00, 0x00, 0x00, 0x00, 0x00, 0x00, 0x00, 0x00, 0x00, 0x00,
   0x00, 0x00, 0x00, 0x00, 0x00, 0x00, 0x00, 0x00, 0x00, 0x00, 0x00, 0x00,
   0x00, 0x20, 0x00, 0x00, 0x00, 0x00, 0x00, 0x00, 0x00, 0x00, 0x00, 0x00,
   0x00, 0x00, 0x00, 0x00, 0x00, 0x00, 0x00, 0x00, 0x00, 0x00, 0x00, 0x00,
   0x00, 0x00, 0x00, 0x00, 0x00, 0x00, 0x00, 0x00, 0x00, 0x00, 0x80, 0x52 };
