#define pnj4_width 264
#define pnj4_height 176
static unsigned char pnj4_bits[] = {
   0x00, 0x00, 0x00, 0x00, 0x00, 0x00, 0x00, 0x00, 0x00, 0x00, 0x00, 0x00,
   0x00, 0x00, 0x00, 0x00, 0x00, 0x00, 0x00, 0x00, 0xfe, 0xdf, 0x4f, 0xad,
   0x56, 0xea, 0x6f, 0xfb, 0xfb, 0xbf, 0xdf, 0x5f, 0x57, 0x00, 0x00, 0x00,
   0x00, 0x00, 0x00, 0x00, 0x00, 0x00, 0x00, 0x00, 0x00, 0x00, 0x00, 0x00,
   0x00, 0x00, 0x00, 0x00, 0x00, 0xff, 0x9b, 0xaa, 0x59, 0x6c, 0x55, 0xfd,
   0x7a, 0x57, 0x77, 0xb7, 0x58, 0x54, 0x00, 0x00, 0x00, 0x00, 0x00, 0x00,
   0x00, 0x00, 0x00, 0x00, 0x00, 0x00, 0x00, 0x00, 0x00, 0x00, 0x00, 0x00,
   0x00, 0x00, 0xff, 0xaf, 0x65, 0xf5, 0xa3, 0x54, 0x6f, 0xf5, 0x7e, 0xaf,
   0x5d, 0x77, 0x0b, 0x00, 0x00, 0x00, 0x00, 0x00, 0x00, 0x00, 0x00, 0x00,
   0x00, 0x00, 0x00, 0x00, 0x00, 0x00, 0x00, 0x00, 0x00, 0x00, 0x00, 0xff,
   0xaf, 0xc3, 0xa6, 0xa6, 0xb1, 0xbe, 0xed, 0x55, 0x7d, 0xfb, 0x17, 0x1b,
   0x00, 0x00, 0x00, 0x00, 0x00, 0x00, 0x00, 0x00, 0x00, 0x00, 0x00, 0x00,
   0x00, 0x00, 0x00, 0x00, 0x00, 0x00, 0x00, 0x80, 0xff, 0xcf, 0x8a, 0x7a,
   0x6d, 0xcb, 0x6b, 0xda, 0xf6, 0x77, 0x4f, 0x75, 0x85, 0x00, 0x00, 0x00,
   0x00, 0x00, 0x00, 0x00, 0x00, 0x00, 0x00, 0x00, 0x00, 0x00, 0x00, 0x00,
   0x00, 0x00, 0x00, 0x00, 0x80, 0xfd, 0x8f, 0x93, 0xc2, 0x8a, 0xa2, 0xfe,
   0xf4, 0x4f, 0xde, 0xbc, 0xef, 0x7d, 0x00, 0x00, 0x00, 0x00, 0x00, 0x00,
   0x00, 0x00, 0x00, 0x00, 0x00, 0x00, 0x00, 0x00, 0x00, 0x00, 0x00, 0x00,
   0x00, 0xc0, 0xff, 0xa7, 0x05, 0xed, 0x5a, 0xad, 0x8a, 0xd5, 0xbf, 0xf3,
   0x6f, 0x1d, 0x85, 0x00, 0x00, 0x00, 0x00, 0x00, 0x00, 0x00, 0x00, 0x00,
   0x00, 0x00, 0x00, 0x00, 0x00, 0x00, 0x00, 0x00, 0x00, 0x00, 0xc0, 0xff,
   0xa7, 0x25, 0xca, 0xb2, 0xa2, 0x3e, 0x55, 0xdb, 0x56, 0xad, 0x72, 0xac,
   0x00, 0x00, 0x00, 0x00, 0x00, 0x00, 0x00, 0x00, 0x00, 0x00, 0x00, 0x00,
   0x00, 0x00, 0x00, 0x00, 0x00, 0x00, 0x00, 0xe0, 0xff, 0xc7, 0x14, 0xb5,
   0x4d, 0x28, 0xd5, 0xca, 0xfe, 0x77, 0x6b, 0xae, 0x55, 0x00, 0x00, 0x00,
   0x00, 0x00, 0x00, 0x00, 0x00, 0x00, 0x00, 0x00, 0x00, 0x00, 0x00, 0x00,
   0x00, 0x00, 0xc0, 0x12, 0xf8, 0xff, 0xc7, 0x23, 0x54, 0x35, 0x4b, 0xb5,
   0xaa, 0xba, 0x4e, 0xef, 0x74, 0xaa, 0x00, 0x00, 0x00, 0x00, 0x00, 0x00,
   0x00, 0x00, 0x00, 0x00, 0x00, 0x00, 0x00, 0x00, 0x00, 0x00, 0x00, 0x20,
   0x50, 0xff, 0xff, 0xc7, 0x04, 0x89, 0x92, 0xd4, 0xdd, 0x4a, 0xdb, 0xfb,
   0xaa, 0x5b, 0x3b, 0x00, 0x00, 0x00, 0x00, 0x00, 0x00, 0x00, 0x00, 0x00,
   0x00, 0x00, 0x00, 0x00, 0x00, 0x00, 0x00, 0x00, 0x10, 0x15, 0xff, 0xff,
   0x83, 0x15, 0x18, 0x7f, 0x09, 0xd3, 0xd2, 0x5a, 0xdd, 0xbd, 0x56, 0xab,
   0x00, 0x00, 0x00, 0x00, 0x00, 0x00, 0x00, 0x00, 0x00, 0x00, 0x00, 0x00,
   0x00, 0x00, 0x00, 0x00, 0x00, 0x80, 0x05, 0xf8, 0xff, 0xc3, 0x07, 0x64,
   0x91, 0x94, 0x5a, 0x8f, 0x6c, 0x73, 0xd7, 0x5a, 0x91, 0x00, 0x00, 0x00,
   0x00, 0x00, 0x00, 0x00, 0x00, 0x00, 0x00, 0x00, 0x00, 0x00, 0x00, 0x00,
   0x00, 0x00, 0x10, 0x01, 0xe0, 0xfe, 0x80, 0x8f, 0xa8, 0xfe, 0x25, 0x55,
   0xb1, 0x59, 0xf7, 0xdf, 0x97, 0xb7, 0x00, 0x00, 0x00, 0x00, 0x00, 0x00,
   0x00, 0x00, 0x00, 0x00, 0x00, 0x00, 0x00, 0x00, 0x00, 0x00, 0x00, 0x40,
   0x00, 0x01, 0x7d, 0xa0, 0x22, 0x70, 0x55, 0x49, 0xb6, 0x57, 0xaa, 0xd0,
   0x82, 0x6c, 0x8d, 0x00, 0x00, 0x00, 0x00, 0x00, 0x00, 0x00, 0x00, 0x00,
   0x00, 0x00, 0x00, 0x00, 0x00, 0x00, 0x00, 0x00, 0x00, 0xc0, 0x01, 0x0a,
   0x80, 0x07, 0x44, 0xf4, 0x0a, 0x54, 0xae, 0x44, 0xa7, 0xc7, 0x5a, 0x3d,
   0x00, 0x00, 0x00, 0x00, 0x00, 0x00, 0x00, 0x00, 0x00, 0x00, 0x00, 0x00,
   0x00, 0x00, 0x00, 0x00, 0x00, 0x00, 0x00, 0xc0, 0x04, 0xb0, 0x4b, 0x71,
   0xbe, 0x4a, 0xb1, 0x9b, 0x6a, 0xf9, 0x6f, 0xed, 0xc2, 0x00, 0x00, 0x00,
   0x00, 0x00, 0x00, 0x00, 0x00, 0x00, 0x00, 0x00, 0x00, 0x00, 0x00, 0x00,
   0x00, 0x00, 0x01, 0x60, 0xc0, 0x2f, 0x24, 0x07, 0xc0, 0xf9, 0x0a, 0x4a,
   0xb5, 0x89, 0x82, 0xe5, 0xb9, 0x5d, 0x00, 0x00, 0x00, 0x00, 0x00, 0x00,
   0x00, 0x00, 0x00, 0x00, 0x00, 0x00, 0x00, 0x00, 0x00, 0x00, 0x00, 0x00,
   0x30, 0xe0, 0xff, 0xbf, 0xa5, 0xb4, 0xd6, 0x95, 0xb4, 0x17, 0x21, 0x59,
   0x73, 0x67, 0x69, 0x00, 0x00, 0x00, 0x00, 0x00, 0x00, 0x00, 0x00, 0x00,
   0x00, 0x00, 0x00, 0x00, 0x00, 0x00, 0x00, 0x00, 0x30, 0x70, 0xe0, 0xfb,
   0x7f, 0x0b, 0xa0, 0xfa, 0x03, 0x41, 0xad, 0x42, 0x45, 0xdb, 0x4d, 0x45,
   0x00, 0x00, 0x00, 0x00, 0x00, 0x00, 0x00, 0x00, 0x00, 0x00, 0x00, 0x00,
   0x00, 0x00, 0x00, 0x00, 0x00, 0x10, 0x18, 0xf0, 0xfb, 0xff, 0x05, 0x15,
   0xf5, 0x1a, 0xd8, 0xeb, 0xa0, 0xd4, 0x68, 0x57, 0x30, 0x00, 0x00, 0x00,
   0x00, 0x00, 0x00, 0x00, 0x00, 0x00, 0x00, 0x00, 0x00, 0x00, 0x00, 0x00,
   0x00, 0x00, 0x30, 0x18, 0xf8, 0xfe, 0xff, 0x07, 0x64, 0xe5, 0x77, 0xa3,
   0xae, 0xa2, 0x29, 0x5d, 0x76, 0x42, 0x00, 0x00, 0x00, 0x00, 0x00, 0x00,
   0x00, 0x00, 0x00, 0x00, 0x00, 0x00, 0x00, 0x00, 0x00, 0x00, 0x00, 0x10,
   0x0c, 0x3c, 0xfd, 0xff, 0x0f, 0x50, 0xbf, 0x95, 0xc8, 0xb6, 0xa2, 0x84,
   0x69, 0x2d, 0x48, 0x00, 0x00, 0x00, 0x00, 0x00, 0x00, 0x00, 0x00, 0x00,
   0x00, 0x00, 0x00, 0x00, 0x00, 0x00, 0x00, 0x00, 0x00, 0x0c, 0x3e, 0xff,
   0xff, 0x17, 0x40, 0xf4, 0x27, 0x5a, 0xee, 0x40, 0x19, 0xdb, 0xea, 0x40,
   0x00, 0x00, 0x00, 0x00, 0x00, 0x00, 0x00, 0x00, 0x00, 0x00, 0x00, 0x00,
   0x00, 0x00, 0x00, 0x80, 0x00, 0x08, 0x0c, 0xdf, 0xff, 0xff, 0x4f, 0x20,
   0xab, 0xab, 0xd4, 0x9d, 0x52, 0x23, 0x65, 0x2e, 0x11, 0x00, 0x00, 0x00,
   0x00, 0x00, 0x00, 0x00, 0x00, 0x00, 0x00, 0x00, 0x00, 0x00, 0x00, 0x00,
   0x40, 0x02, 0x00, 0x18, 0xee, 0xff, 0xff, 0x0f, 0x40, 0xf6, 0x47, 0x90,
   0x76, 0x47, 0x29, 0x8e, 0x28, 0x40, 0x00, 0x00, 0x00, 0x00, 0x00, 0x00,
   0x00, 0x00, 0x00, 0x00, 0x00, 0x00, 0x00, 0x00, 0x00, 0x60, 0x08, 0x00,
   0x00, 0xe2, 0xff, 0xff, 0x5f, 0x80, 0xed, 0xb7, 0x56, 0xdd, 0x51, 0x95,
   0x54, 0x2c, 0x54, 0x00, 0x00, 0x00, 0x00, 0x00, 0x00, 0x00, 0x00, 0x00,
   0x00, 0x00, 0x00, 0x00, 0x00, 0x00, 0x24, 0x01, 0x00, 0x00, 0xe2, 0xff,
   0xff, 0x0f, 0x00, 0xd9, 0x5f, 0x64, 0xb9, 0x57, 0x89, 0x89, 0x2d, 0x94,
   0x00, 0x00, 0x00, 0x00, 0x00, 0x00, 0x00, 0x00, 0x00, 0x00, 0x10, 0x00,
   0x00, 0x00, 0x00, 0x50, 0x02, 0x04, 0x00, 0xf1, 0xff, 0xff, 0xbf, 0x00,
   0xf7, 0xb7, 0x58, 0x6f, 0x49, 0x29, 0x54, 0x98, 0x10, 0x00, 0x00, 0x00,
   0x00, 0x00, 0x00, 0x00, 0x00, 0x00, 0x24, 0x05, 0x00, 0x00, 0x00, 0x00,
   0xa1, 0x00, 0x0c, 0x00, 0xe0, 0xbf, 0xff, 0x3f, 0x4a, 0xa8, 0x37, 0xb2,
   0xa4, 0x1b, 0x55, 0xa0, 0x1a, 0x54, 0x00, 0x00, 0x00, 0x00, 0x00, 0x00,
   0x00, 0x00, 0x00, 0x59, 0x00, 0x00, 0x00, 0x00, 0x10, 0x65, 0x00, 0x00,
   0x00, 0xfa, 0x5f, 0xff, 0xff, 0x8d, 0xf6, 0x5f, 0xa5, 0xda, 0x56, 0xa5,
   0xac, 0xa4, 0x10, 0x00, 0x00, 0x00, 0x00, 0x00, 0x00, 0x00, 0x00, 0x40,
   0x5b, 0x01, 0x00, 0x00, 0x00, 0x40, 0x45, 0x00, 0x00, 0x00, 0xf8, 0xef,
   0xff, 0x7f, 0x15, 0x6a, 0x5f, 0x88, 0xa4, 0x56, 0x21, 0x04, 0x2c, 0x26,
   0x00, 0x00, 0x00, 0x00, 0x00, 0x00, 0x00, 0x00, 0xfa, 0xff, 0x01, 0x00,
   0x00, 0x00, 0x00, 0x8c, 0x0d, 0x00, 0x00, 0xff, 0xf7, 0xff, 0xff, 0x15,
   0xaa, 0xbf, 0x6a, 0xb1, 0x4b, 0x2d, 0x30, 0x09, 0x92, 0x00, 0x00, 0x00,
   0x00, 0x00, 0x00, 0x00, 0x00, 0xc0, 0xaf, 0x1f, 0x05, 0x00, 0x00, 0x00,
   0x20, 0x02, 0x00, 0x00, 0xfc, 0xff, 0xff, 0xff, 0x2b, 0xea, 0xbe, 0x10,
   0x65, 0x4b, 0x50, 0x50, 0x6d, 0x4a, 0x00, 0x00, 0x00, 0x00, 0x00, 0x00,
   0x00, 0x08, 0x80, 0xff, 0x72, 0x15, 0x00, 0x00, 0x00, 0x80, 0x80, 0x00,
   0x00, 0xfc, 0xef, 0xff, 0xff, 0x2b, 0x29, 0x5f, 0x45, 0x00, 0xaa, 0x14,
   0xaa, 0x9a, 0x5a, 0x00, 0x00, 0x00, 0x00, 0x00, 0x00, 0x00, 0x08, 0x12,
   0xfe, 0xaf, 0x22, 0x00, 0x00, 0x00, 0x00, 0x41, 0x00, 0x10, 0xfe, 0xff,
   0xff, 0xff, 0x2f, 0xe8, 0xbf, 0x00, 0x4a, 0xa9, 0xa0, 0xa0, 0x9a, 0xa2,
   0x00, 0x00, 0x00, 0x00, 0x00, 0x00, 0x00, 0x1f, 0x08, 0xfc, 0x77, 0x11,
   0x00, 0x00, 0x00, 0x00, 0x0a, 0x00, 0x00, 0xfe, 0xff, 0x7f, 0xfd, 0x4f,
   0x50, 0xbd, 0x94, 0x04, 0xb9, 0x0a, 0x28, 0x09, 0x03, 0x00, 0x00, 0x00,
   0x00, 0x00, 0x00, 0x60, 0x37, 0x40, 0xf8, 0x6f, 0x45, 0x00, 0x00, 0x40,
   0x22, 0x7c, 0x00, 0x60, 0xf9, 0xfb, 0xff, 0xff, 0x5f, 0x90, 0x7f, 0x91,
   0xaa, 0xf4, 0x12, 0x69, 0x55, 0x82, 0x00, 0x00, 0x00, 0x00, 0x00, 0x00,
   0xc0, 0x28, 0x08, 0xf0, 0xff, 0x02, 0x02, 0x00, 0x00, 0x80, 0x08, 0x02,
   0x60, 0xbc, 0xdf, 0xff, 0xff, 0x8f, 0x60, 0x7d, 0x01, 0x00, 0xaa, 0x20,
   0x50, 0x55, 0x00, 0x00, 0x00, 0x00, 0x00, 0x00, 0x00, 0x00, 0xc0, 0xd3,
   0xc0, 0xdf, 0x0b, 0x1a, 0x00, 0xb0, 0x00, 0x12, 0x00, 0xd0, 0x38, 0xfa,
   0xff, 0xff, 0x3f, 0x80, 0xfe, 0xa5, 0x4e, 0xac, 0x2b, 0x4a, 0xa9, 0x82,
   0x00, 0x00, 0x00, 0x00, 0x80, 0x00, 0x00, 0x10, 0xca, 0x01, 0xff, 0x16,
   0x00, 0x00, 0x02, 0xca, 0x04, 0x02, 0x60, 0xd5, 0xed, 0xff, 0xff, 0x8f,
   0x40, 0x7d, 0x03, 0x22, 0xb5, 0xa0, 0xb0, 0x22, 0x84, 0x00, 0x00, 0x00,
   0x00, 0x00, 0x02, 0x00, 0xa0, 0x9e, 0x05, 0xfc, 0xbf, 0x00, 0x00, 0x00,
   0xa0, 0x0b, 0x00, 0x44, 0x41, 0xaa, 0xff, 0xff, 0x3f, 0x00, 0xfd, 0xaa,
   0x10, 0xd4, 0x81, 0xca, 0xae, 0x94, 0x00, 0x00, 0x00, 0x00, 0x00, 0x00,
   0x00, 0x48, 0x6a, 0x3f, 0xfa, 0x77, 0x00, 0x00, 0x00, 0x40, 0x05, 0x02,
   0xd0, 0x42, 0xd5, 0xff, 0xff, 0x4f, 0x00, 0xf6, 0x42, 0x4d, 0xbc, 0x57,
   0xa8, 0x88, 0x8a, 0x00, 0x00, 0x00, 0x00, 0x00, 0x00, 0x00, 0x40, 0xea,
   0x76, 0xe0, 0xef, 0x03, 0x02, 0x00, 0x80, 0x0a, 0x00, 0xd4, 0xaa, 0xb2,
   0xff, 0xff, 0x2f, 0x00, 0xfe, 0x17, 0x41, 0xb4, 0x82, 0x50, 0x95, 0xa8,
   0x00, 0x00, 0x00, 0x00, 0x00, 0x00, 0x00, 0x10, 0x8c, 0x2b, 0x80, 0x7f,
   0x85, 0x00, 0x00, 0x80, 0x1c, 0x00, 0x50, 0x45, 0x55, 0xff, 0xff, 0xdf,
   0x00, 0xfa, 0xad, 0x16, 0xda, 0x25, 0x2a, 0x63, 0x93, 0x00, 0x00, 0x00,
   0x00, 0x00, 0x00, 0x00, 0xa0, 0x38, 0xbe, 0x00, 0xff, 0x17, 0x00, 0x00,
   0x80, 0x11, 0x00, 0xa0, 0x49, 0xf7, 0xff, 0xff, 0xbf, 0x00, 0xfc, 0x97,
   0x24, 0xb1, 0x45, 0x44, 0x5e, 0x4a, 0x00, 0x00, 0x00, 0x00, 0x00, 0x00,
   0x00, 0x10, 0xac, 0xf8, 0x0f, 0xfe, 0x0b, 0x00, 0x00, 0x02, 0x1a, 0x00,
   0x80, 0x81, 0x55, 0x7e, 0xff, 0xff, 0x40, 0xdd, 0x55, 0x85, 0xb4, 0x87,
   0xba, 0x51, 0xf4, 0x00, 0x00, 0x00, 0x00, 0x00, 0x00, 0x00, 0x40, 0x28,
   0xf0, 0x3b, 0xfc, 0xab, 0x0a, 0x01, 0x14, 0x15, 0x00, 0x08, 0x97, 0xbf,
   0x5a, 0xff, 0x7f, 0xc0, 0xf8, 0x57, 0x8b, 0x68, 0x0b, 0x91, 0xaa, 0x13,
   0x00, 0x00, 0x00, 0x00, 0x00, 0x00, 0x00, 0x08, 0x78, 0xe0, 0x37, 0xf8,
   0xbf, 0x42, 0x5d, 0x1e, 0x2b, 0x00, 0x20, 0xfc, 0x4a, 0x81, 0xfe, 0xff,
   0x10, 0xfe, 0xcf, 0x05, 0xe6, 0x21, 0x69, 0x2b, 0xe4, 0x00, 0x00, 0x00,
   0x00, 0x00, 0x00, 0x00, 0x50, 0x90, 0xc0, 0xff, 0xf9, 0xff, 0x2b, 0xd5,
   0x3a, 0x2a, 0x00, 0x40, 0xb9, 0x3b, 0x00, 0xfc, 0x7f, 0x40, 0xea, 0x57,
   0x05, 0x48, 0x97, 0xaa, 0x8e, 0xb4, 0x00, 0x00, 0x00, 0x00, 0x00, 0x00,
   0x00, 0x0a, 0x58, 0xe0, 0x2f, 0xf1, 0xbf, 0x00, 0x20, 0x7c, 0x54, 0x00,
   0x40, 0x3f, 0x0e, 0x00, 0xe0, 0x7f, 0x00, 0xf9, 0xae, 0x05, 0xaa, 0x46,
   0xa6, 0x3a, 0xc9, 0x00, 0x00, 0x00, 0x00, 0x00, 0x00, 0x00, 0x50, 0x58,
   0xc1, 0x6d, 0xf5, 0x05, 0x00, 0x00, 0xc1, 0x25, 0x00, 0x88, 0x06, 0x00,
   0x00, 0x00, 0x3f, 0x94, 0xf0, 0x5f, 0x5d, 0xb6, 0x15, 0x5a, 0x6b, 0xb9,
   0x00, 0x00, 0x00, 0x00, 0x00, 0x00, 0x04, 0x04, 0x44, 0x60, 0x1b, 0x11,
   0x10, 0x35, 0xa0, 0x02, 0xdb, 0x00, 0x20, 0x00, 0x00, 0x00, 0x00, 0x1c,
   0x08, 0xf9, 0xbb, 0x22, 0xaa, 0xc7, 0x6a, 0x95, 0x4c, 0x00, 0x00, 0x00,
   0x00, 0x00, 0x40, 0x80, 0x00, 0x4c, 0xe4, 0x56, 0x00, 0x00, 0xe4, 0xef,
   0x5e, 0x02, 0x01, 0x40, 0x81, 0x00, 0x00, 0x00, 0x00, 0xa8, 0xe2, 0xdf,
   0x83, 0x2a, 0x8d, 0xac, 0x4d, 0xd6, 0x00, 0x00, 0x00, 0x00, 0x00, 0x00,
   0x80, 0x00, 0x04, 0x51, 0x05, 0x00, 0x00, 0x80, 0x55, 0x55, 0xb4, 0x0e,
   0x00, 0x04, 0x00, 0x00, 0x00, 0x00, 0x20, 0x70, 0xb7, 0x04, 0x74, 0x5b,
   0x2a, 0x55, 0xa9, 0x00, 0x00, 0x00, 0x00, 0x00, 0x00, 0x00, 0x00, 0x20,
   0xa8, 0x00, 0x80, 0x42, 0x00, 0x08, 0x00, 0xa4, 0x7f, 0x00, 0x00, 0x00,
   0x40, 0xa4, 0x00, 0x60, 0xe5, 0x3f, 0x8b, 0x2a, 0x56, 0xaa, 0x5d, 0x57,
   0x00, 0x00, 0x00, 0x00, 0x00, 0x00, 0x00, 0x00, 0x04, 0x14, 0x00, 0x00,
   0xba, 0x17, 0x20, 0x00, 0x40, 0xf5, 0x01, 0x00, 0x00, 0xf6, 0xfd, 0x07,
   0x98, 0xe0, 0xdf, 0x02, 0x7a, 0xad, 0x6a, 0x94, 0xd4, 0x00, 0x00, 0x00,
   0x00, 0x00, 0x00, 0x00, 0x00, 0x24, 0x02, 0x00, 0x00, 0xe2, 0xfd, 0x80,
   0x00, 0x00, 0x2e, 0x05, 0x00, 0x80, 0xfe, 0xff, 0x1f, 0x78, 0x65, 0x9b,
   0x12, 0x89, 0x29, 0x5d, 0xf5, 0xb6, 0x00, 0x00, 0x00, 0x00, 0x00, 0x00,
   0x00, 0x00, 0x00, 0x01, 0x00, 0x00, 0x48, 0x53, 0x0b, 0x04, 0xc0, 0xe9,
   0x06, 0x00, 0x80, 0xff, 0xf5, 0xff, 0x9f, 0xd2, 0x17, 0x01, 0x11, 0x2d,
   0xab, 0x0a, 0xd1, 0x00, 0x00, 0x00, 0x00, 0x00, 0x00, 0x00, 0x00, 0x70,
   0x00, 0x00, 0x00, 0x00, 0x56, 0x21, 0xa0, 0x2a, 0x81, 0x1d, 0x00, 0x80,
   0xff, 0xef, 0x7d, 0xff, 0xe6, 0x5f, 0x23, 0x33, 0x69, 0x35, 0x69, 0x2e,
   0x00, 0x00, 0x00, 0x00, 0x00, 0x00, 0x00, 0x00, 0x98, 0x00, 0x00, 0x00,
   0x20, 0x5a, 0x95, 0x12, 0x80, 0x4a, 0xba, 0x00, 0xc0, 0xfb, 0xff, 0xff,
   0xf5, 0x69, 0x13, 0x81, 0x80, 0x96, 0x59, 0xab, 0xc8, 0x00, 0x00, 0x00,
   0x00, 0x00, 0x00, 0x00, 0x00, 0x38, 0x00, 0x00, 0x00, 0x40, 0x20, 0x40,
   0x55, 0x01, 0x80, 0x02, 0x01, 0xe0, 0xd7, 0xff, 0xf7, 0xed, 0xeb, 0x77,
   0x02, 0x8a, 0x7a, 0x77, 0x37, 0x55, 0x00, 0x00, 0x00, 0x00, 0x00, 0x00,
   0x00, 0x00, 0x16, 0x00, 0xaa, 0x00, 0x80, 0x00, 0x00, 0xa4, 0x12, 0x0a,
   0x97, 0x00, 0xe0, 0xec, 0xfe, 0xbf, 0x7f, 0xc5, 0xd7, 0x00, 0x50, 0x55,
   0x8d, 0x6d, 0x92, 0x00, 0x00, 0x00, 0x00, 0x00, 0x00, 0x00, 0x00, 0x26,
   0x00, 0xe8, 0x2f, 0x00, 0x02, 0x00, 0x20, 0xa4, 0x00, 0x6c, 0x01, 0x80,
   0xd9, 0xff, 0xff, 0xeb, 0x97, 0x47, 0x81, 0x22, 0x51, 0x7d, 0x59, 0x76,
   0x00, 0x00, 0x00, 0x00, 0x00, 0x00, 0x00, 0x00, 0x01, 0x00, 0x00, 0xaa,
   0x01, 0x04, 0x00, 0x00, 0x01, 0x00, 0x48, 0x4f, 0x80, 0xf6, 0xff, 0xff,
   0xf7, 0xd5, 0xb6, 0x80, 0x94, 0xa6, 0xab, 0x25, 0x92, 0x00, 0x00, 0x00,
   0x00, 0x40, 0x00, 0x00, 0x80, 0x00, 0x00, 0x00, 0x00, 0x02, 0xe0, 0x00,
   0x00, 0x00, 0x00, 0x80, 0xd8, 0x00, 0xc9, 0xff, 0xfa, 0xd7, 0xcf, 0x67,
   0x81, 0x40, 0xad, 0x3f, 0x6d, 0xb6, 0x00, 0x00, 0x00, 0x00, 0x00, 0x00,
   0x00, 0x60, 0x00, 0x00, 0x00, 0x00, 0x00, 0x08, 0x07, 0x00, 0x00, 0x00,
   0x00, 0xf2, 0x07, 0xda, 0xff, 0xdb, 0x6f, 0xb5, 0xaf, 0x40, 0x2a, 0x6b,
   0xf7, 0x17, 0xb9, 0x00, 0x00, 0x00, 0x00, 0x00, 0x00, 0x00, 0x04, 0x00,
   0x00, 0x00, 0x00, 0x90, 0x50, 0x59, 0x09, 0x00, 0x00, 0x00, 0x80, 0x85,
   0x12, 0xbf, 0x7a, 0xef, 0xaf, 0xdf, 0x02, 0xd0, 0xd2, 0x66, 0x15, 0xa3,
   0x00, 0x00, 0x00, 0x00, 0x00, 0x00, 0x00, 0x11, 0x01, 0x00, 0x00, 0x00,
   0x40, 0x09, 0x00, 0x00, 0x00, 0x00, 0x00, 0x50, 0x06, 0xe5, 0xff, 0xd7,
   0xed, 0x97, 0x7e, 0x20, 0x49, 0xab, 0xdb, 0x16, 0x9a, 0x00, 0x00, 0x00,
   0x00, 0x00, 0x00, 0x40, 0x04, 0x00, 0x00, 0x00, 0x00, 0x00, 0x00, 0x00,
   0x00, 0x00, 0x00, 0x00, 0x00, 0x78, 0x95, 0xdf, 0x26, 0x4d, 0xbd, 0xef,
   0x40, 0xa5, 0x65, 0xb5, 0xcb, 0x92, 0x00, 0x00, 0x00, 0x00, 0x00, 0x00,
   0x00, 0x02, 0x00, 0x00, 0x00, 0x00, 0x00, 0x00, 0x00, 0x00, 0x00, 0x00,
   0x00, 0x00, 0x55, 0xf2, 0x6f, 0x00, 0xb8, 0x9f, 0xff, 0x20, 0xa9, 0xa5,
   0xde, 0x0b, 0x8e, 0x00, 0x00, 0x00, 0x00, 0x00, 0x00, 0x00, 0x00, 0x00,
   0x00, 0x00, 0x00, 0x00, 0x00, 0x00, 0x00, 0x00, 0x00, 0x00, 0x00, 0xca,
   0x84, 0x2f, 0x00, 0x50, 0x5b, 0xef, 0x22, 0xa0, 0xe9, 0xb5, 0xb4, 0xe9,
   0x00, 0x00, 0x00, 0x00, 0x00, 0x00, 0x08, 0x00, 0x00, 0x00, 0x00, 0x00,
   0x00, 0x00, 0x00, 0x00, 0x00, 0x00, 0x00, 0x00, 0x80, 0xea, 0x0b, 0x80,
   0x00, 0xb7, 0x7d, 0x41, 0xaa, 0xba, 0x6f, 0x49, 0x96, 0x00, 0x00, 0x00,
   0x00, 0x02, 0x00, 0x00, 0x00, 0x00, 0xf0, 0xd7, 0x00, 0x00, 0x00, 0x00,
   0x00, 0xe0, 0x5f, 0x05, 0x00, 0x40, 0x09, 0x07, 0x70, 0x13, 0xac, 0xdf,
   0x91, 0x44, 0xd3, 0xab, 0x15, 0xad, 0x00, 0x00, 0x00, 0x00, 0x00, 0x00,
   0x00, 0x00, 0x80, 0xff, 0x2b, 0x00, 0x00, 0x00, 0x00, 0x00, 0xfc, 0xd1,
   0x05, 0x00, 0x80, 0xe4, 0x03, 0xfc, 0x45, 0x6f, 0x7d, 0x13, 0xaa, 0x5d,
   0x7d, 0x1c, 0xc4, 0x00, 0x00, 0x00, 0x00, 0x00, 0x00, 0x00, 0x00, 0xf0,
   0xff, 0x27, 0x01, 0x00, 0x00, 0x00, 0x08, 0xf0, 0x07, 0x10, 0x00, 0x00,
   0x80, 0x02, 0xfe, 0x5f, 0xa9, 0xff, 0x42, 0xe4, 0xb0, 0xd6, 0x0a, 0xd4,
   0x00, 0x00, 0x00, 0x00, 0x00, 0x00, 0x00, 0x00, 0xbc, 0xff, 0x57, 0x00,
   0x00, 0x00, 0x80, 0x7e, 0x81, 0x00, 0x49, 0x03, 0x00, 0xed, 0x00, 0xff,
   0x63, 0xd5, 0x5f, 0x29, 0x54, 0x55, 0x5f, 0x13, 0x62, 0x00, 0x00, 0x00,
   0x00, 0x00, 0x00, 0x00, 0x00, 0x7e, 0xff, 0x0d, 0x00, 0x00, 0x00, 0x40,
   0xfe, 0x05, 0x25, 0xd0, 0x03, 0x00, 0x49, 0x80, 0xff, 0xef, 0x6e, 0xbd,
   0xd2, 0x64, 0xeb, 0x95, 0x12, 0xe8, 0x00, 0x00, 0x00, 0x00, 0x00, 0x00,
   0x00, 0x00, 0x8d, 0xff, 0x06, 0x00, 0x00, 0x00, 0x00, 0xf8, 0x05, 0x4c,
   0x00, 0x01, 0x00, 0x00, 0x80, 0xff, 0xff, 0xf7, 0x3f, 0x20, 0x70, 0xb5,
   0x5a, 0x0d, 0x5a, 0x00, 0x00, 0x00, 0x00, 0x00, 0x00, 0x00, 0x00, 0xdc,
   0xff, 0x0c, 0x00, 0x00, 0x00, 0x00, 0xa0, 0x0b, 0x50, 0x45, 0x01, 0x00,
   0x00, 0xe0, 0xff, 0xd7, 0xd6, 0x75, 0x49, 0xe5, 0x6c, 0xdb, 0x02, 0xc2,
   0x00, 0x00, 0x00, 0x00, 0x00, 0x00, 0x00, 0x80, 0xb8, 0xff, 0x04, 0x00,
   0x00, 0x00, 0x00, 0xd0, 0x5a, 0x00, 0x01, 0x03, 0x00, 0x00, 0xe0, 0xff,
   0x3f, 0xf5, 0x1f, 0x25, 0x54, 0xd5, 0xaa, 0x29, 0xb4, 0x00, 0x00, 0x00,
   0x00, 0x00, 0x00, 0x00, 0x00, 0xd8, 0xcf, 0x18, 0x00, 0x00, 0x00, 0x00,
   0x80, 0x77, 0x01, 0x00, 0x02, 0x00, 0x00, 0xf4, 0xdf, 0xf6, 0xb4, 0x5b,
   0x44, 0xf1, 0x55, 0x75, 0x83, 0xaa, 0x20, 0x00, 0x00, 0x02, 0x00, 0x00,
   0x00, 0x00, 0xbc, 0x6f, 0x05, 0x00, 0x00, 0x00, 0x00, 0x80, 0xf6, 0xae,
   0xbe, 0x00, 0x00, 0xc0, 0xff, 0xbf, 0x17, 0xf2, 0x1e, 0x08, 0x2d, 0x6b,
   0xcb, 0x02, 0xaa, 0x20, 0x00, 0x00, 0x02, 0x00, 0x00, 0x00, 0x00, 0x70,
   0x5f, 0x08, 0x00, 0x00, 0x00, 0x00, 0x00, 0xaf, 0x51, 0x01, 0x20, 0x01,
   0xe4, 0xff, 0xbf, 0xbd, 0xea, 0x8f, 0x54, 0xba, 0x2c, 0x5c, 0x41, 0x55,
   0x10, 0x00, 0x00, 0x02, 0x00, 0x00, 0x00, 0x00, 0xa8, 0xff, 0x02, 0x00,
   0x00, 0x80, 0x00, 0x00, 0xda, 0x02, 0x0a, 0x42, 0x80, 0xff, 0xff, 0x7f,
   0x2b, 0xa8, 0x2b, 0x08, 0xf4, 0x6a, 0xab, 0x02, 0xad, 0x10, 0x00, 0x80,
   0x00, 0x00, 0x00, 0x00, 0x00, 0x70, 0xff, 0x2a, 0x00, 0x00, 0xc0, 0x00,
   0x00, 0xfa, 0x16, 0x00, 0x28, 0xff, 0xd5, 0xff, 0x57, 0xfb, 0xfa, 0x0b,
   0x4d, 0x49, 0x7d, 0x7a, 0x80, 0xaa, 0x00, 0x00, 0x00, 0x01, 0x00, 0x00,
   0x00, 0x00, 0xe0, 0xfe, 0x08, 0x00, 0x00, 0x80, 0x00, 0x00, 0xd4, 0x01,
   0x00, 0x94, 0xff, 0xff, 0xff, 0xaf, 0x17, 0xe9, 0x1f, 0x80, 0xbe, 0xab,
   0xd6, 0x20, 0xad, 0x00, 0x04, 0x20, 0x00, 0x00, 0x00, 0x00, 0x00, 0x40,
   0x3f, 0x3a, 0x00, 0x00, 0xc0, 0x01, 0x00, 0x58, 0x17, 0x00, 0x04, 0xfe,
   0xff, 0xff, 0xbf, 0x5c, 0xb5, 0x1b, 0x34, 0x74, 0xae, 0xfc, 0x90, 0x4a,
   0x00, 0x04, 0x00, 0x00, 0x00, 0x00, 0x00, 0x00, 0xc0, 0x9e, 0x4f, 0x00,
   0x00, 0x40, 0x02, 0x00, 0xd8, 0x02, 0x00, 0x01, 0xd8, 0xff, 0xff, 0x77,
   0x85, 0xfe, 0x2f, 0x48, 0x55, 0xbb, 0x56, 0x42, 0xea, 0x00, 0x00, 0x20,
   0x00, 0x00, 0x28, 0x00, 0x00, 0x00, 0x3b, 0x1a, 0x00, 0x02, 0xc0, 0x02,
   0x00, 0x50, 0x2d, 0x00, 0x00, 0x00, 0x57, 0xff, 0xd7, 0xbb, 0xea, 0xae,
   0x40, 0x79, 0xab, 0xda, 0x48, 0xab, 0x00, 0x00, 0x00, 0x00, 0x40, 0x01,
   0x00, 0x00, 0x80, 0xd6, 0x05, 0x00, 0x0c, 0xc0, 0x00, 0x00, 0xf8, 0x00,
   0x00, 0x01, 0x80, 0xdb, 0xfe, 0x5f, 0x0b, 0xfd, 0x53, 0x4a, 0xcd, 0x5d,
   0x2d, 0x21, 0xe9, 0x00, 0x00, 0x2a, 0x00, 0x2e, 0x00, 0x00, 0x00, 0x80,
   0x6c, 0x01, 0x00, 0x1c, 0xa0, 0x02, 0x00, 0xa0, 0x0a, 0x00, 0x00, 0x08,
   0xdf, 0xfe, 0x7f, 0x85, 0xf6, 0x57, 0x02, 0x7b, 0x55, 0x6d, 0x48, 0xea,
   0x00, 0x00, 0x10, 0x02, 0x07, 0x00, 0x00, 0x00, 0x00, 0xa8, 0x02, 0x00,
   0x1c, 0xc0, 0x18, 0x00, 0x70, 0x01, 0x00, 0x00, 0x80, 0xab, 0xff, 0xcb,
   0xcb, 0xda, 0x0f, 0xa9, 0xee, 0xaf, 0x16, 0xd0, 0xbe, 0x00, 0x00, 0x00,
   0x40, 0x05, 0x00, 0x00, 0x00, 0x00, 0x20, 0x00, 0x00, 0x18, 0xa0, 0x11,
   0x00, 0x68, 0x05, 0x00, 0x00, 0x00, 0x77, 0xfd, 0x5b, 0x05, 0x7f, 0x3b,
   0x81, 0xda, 0x1a, 0x5a, 0x55, 0xe9, 0x00, 0x00, 0x80, 0x21, 0x01, 0x00,
   0x00, 0x00, 0x00, 0x00, 0x00, 0x00, 0x38, 0xc0, 0x28, 0x00, 0xb0, 0x00,
   0x00, 0x04, 0x00, 0xab, 0xff, 0xef, 0x42, 0xbb, 0xa7, 0xaa, 0xb6, 0xd7,
   0x0c, 0x6a, 0xfc, 0x00, 0x00, 0x8a, 0xa1, 0x01, 0x00, 0x00, 0x00, 0x00,
   0x00, 0x00, 0x00, 0x20, 0xa0, 0x21, 0x00, 0xb0, 0x00, 0x00, 0x00, 0x00,
   0xab, 0xfe, 0xdf, 0x07, 0x76, 0x2f, 0x05, 0x6d, 0x17, 0x2d, 0xaa, 0xba,
   0x00, 0x00, 0x22, 0x81, 0x00, 0x00, 0x00, 0x00, 0x00, 0x00, 0x00, 0x00,
   0xe8, 0x80, 0x35, 0x00, 0x50, 0x00, 0x00, 0x07, 0x00, 0xda, 0xff, 0xab,
   0xa2, 0xfd, 0x95, 0xea, 0xbd, 0x53, 0x83, 0x20, 0xed, 0x00, 0x00, 0x0a,
   0x40, 0x01, 0x00, 0x00, 0x00, 0x00, 0x00, 0x00, 0x00, 0x90, 0xa0, 0x21,
   0x00, 0xd8, 0x00, 0x00, 0x80, 0x00, 0x53, 0xfe, 0xbf, 0x4a, 0x75, 0x97,
   0x88, 0x76, 0x2f, 0x8b, 0x5e, 0xed, 0x00, 0x00, 0x80, 0x80, 0x00, 0x00,
   0x00, 0x00, 0x00, 0x00, 0x00, 0x00, 0xe0, 0x40, 0x31, 0x00, 0x10, 0x02,
   0x80, 0x00, 0x8b, 0xb9, 0xfd, 0xf7, 0xa1, 0xfd, 0x95, 0x4a, 0xef, 0x45,
   0x22, 0x4a, 0xbf, 0x00, 0x00, 0x90, 0x20, 0x00, 0x00, 0x00, 0x00, 0x00,
   0x00, 0x00, 0x00, 0x44, 0xe0, 0x23, 0x00, 0x28, 0xfa, 0x3f, 0x00, 0xb8,
   0xa3, 0xfb, 0xaf, 0x23, 0xcf, 0x55, 0x41, 0x7b, 0x5f, 0xa3, 0x28, 0xfd,
   0x00, 0x00, 0x00, 0xa1, 0x00, 0x00, 0x00, 0x00, 0x00, 0x00, 0x00, 0x00,
   0x20, 0x80, 0x10, 0x00, 0xaa, 0xed, 0xea, 0x00, 0xd0, 0x5d, 0xff, 0x5f,
   0xd1, 0x7d, 0x03, 0xe8, 0xdd, 0x85, 0x14, 0xd5, 0xaf, 0x00, 0x00, 0x04,
   0xa9, 0x00, 0x00, 0x00, 0x00, 0x00, 0x00, 0x00, 0x00, 0x60, 0xa0, 0x0b,
   0x00, 0x0b, 0x80, 0xab, 0x00, 0xe0, 0xb1, 0xfe, 0x7b, 0xa0, 0xed, 0xa5,
   0xaa, 0xbf, 0xab, 0x21, 0xa3, 0xfd, 0x00, 0x00, 0x10, 0xf9, 0x02, 0x00,
   0x00, 0x00, 0x00, 0x00, 0x00, 0x00, 0x10, 0xc0, 0x00, 0xc0, 0x76, 0x0b,
   0xd4, 0x01, 0xc0, 0xeb, 0xff, 0xf7, 0x5c, 0xbf, 0xa1, 0x68, 0x7f, 0xad,
   0x0a, 0xda, 0xee, 0x00, 0x00, 0x20, 0xf0, 0x03, 0x00, 0x00, 0x00, 0x00,
   0xa0, 0x02, 0x00, 0x18, 0x80, 0x01, 0xe0, 0x6f, 0x5b, 0xa0, 0x03, 0x80,
   0xa9, 0xfe, 0xcf, 0xd0, 0x75, 0x4b, 0xe9, 0xf6, 0x59, 0xc1, 0xc2, 0xff,
   0x00, 0x00, 0x40, 0x21, 0x04, 0x00, 0x00, 0x00, 0x00, 0xf8, 0x1e, 0x00,
   0x08, 0x80, 0x00, 0xf8, 0xba, 0xad, 0xf4, 0x06, 0x00, 0xdb, 0xff, 0xff,
   0xac, 0xff, 0x54, 0xda, 0x7f, 0x52, 0x4a, 0xfa, 0xda, 0x40, 0x00, 0x00,
   0x00, 0x08, 0x00, 0x00, 0x00, 0x00, 0xdc, 0x20, 0x00, 0x00, 0x00, 0x00,
   0xf8, 0xfd, 0xdd, 0xd2, 0x08, 0x00, 0x2b, 0xff, 0xdf, 0xa8, 0xff, 0x41,
   0xb1, 0xcf, 0x53, 0x89, 0xf2, 0xf6, 0x00, 0x00, 0x00, 0x84, 0x02, 0x00,
   0x00, 0x00, 0x00, 0xfe, 0xad, 0x00, 0x00, 0x00, 0x00, 0x5e, 0x5f, 0xf7,
   0xff, 0x00, 0x00, 0xef, 0xfe, 0x57, 0xf6, 0x6f, 0x41, 0xfd, 0x7b, 0xad,
   0x22, 0xd9, 0x59, 0x00, 0x00, 0x00, 0x00, 0x14, 0x00, 0x00, 0x00, 0x00,
   0x4d, 0x17, 0x00, 0x00, 0x00, 0x00, 0xff, 0x6d, 0x55, 0xed, 0x03, 0x00,
   0xba, 0xff, 0x6f, 0xcc, 0xbe, 0x94, 0xd6, 0x6f, 0x4b, 0x84, 0xea, 0xf7,
   0x00, 0x00, 0x00, 0x60, 0x2a, 0x00, 0x00, 0x00, 0x00, 0xf7, 0x25, 0x00,
   0x00, 0x00, 0xc0, 0xd5, 0x85, 0xaa, 0x5b, 0x01, 0x00, 0x57, 0xff, 0xb7,
   0xf2, 0x7b, 0x40, 0xed, 0xf7, 0x96, 0x50, 0xbc, 0xde, 0x00, 0x00, 0x00,
   0x80, 0xa8, 0x04, 0x00, 0x00, 0x80, 0xfe, 0x3f, 0x00, 0x00, 0x00, 0xc0,
   0xbf, 0x2a, 0x53, 0x12, 0x00, 0x40, 0x6e, 0xff, 0x6b, 0xd4, 0x7f, 0x91,
   0xf6, 0xdf, 0x2a, 0x44, 0xed, 0xf5, 0x00, 0x00, 0x00, 0x10, 0x17, 0x08,
   0x00, 0x00, 0x00, 0x7b, 0x49, 0x00, 0x00, 0x00, 0xf0, 0x55, 0xfd, 0x3f,
   0x0d, 0x00, 0xc1, 0xda, 0xff, 0xb3, 0x6a, 0x2d, 0x24, 0x7b, 0xed, 0x46,
   0x42, 0xb5, 0xdf, 0x00, 0x00, 0x80, 0x00, 0x24, 0x00, 0x00, 0x00, 0xc0,
   0xfe, 0x15, 0x00, 0x00, 0x00, 0xbc, 0x6f, 0x6b, 0xff, 0x05, 0x2e, 0x80,
   0x76, 0xff, 0x53, 0xeb, 0xff, 0xc4, 0xfa, 0x6f, 0x89, 0x40, 0x6f, 0xf5,
   0x00, 0x00, 0x00, 0x01, 0x08, 0x20, 0x00, 0x00, 0x40, 0xbd, 0x09, 0x00,
   0x00, 0x00, 0x5c, 0xf5, 0xb6, 0x6a, 0x83, 0x02, 0x00, 0xfc, 0xff, 0x93,
   0xf6, 0x2f, 0xb2, 0xed, 0xef, 0x09, 0x24, 0xfd, 0xb6, 0x00, 0x00, 0x00,
   0x00, 0x10, 0x40, 0x00, 0x00, 0x40, 0x3d, 0x0b, 0x00, 0x00, 0x00, 0x02,
   0xad, 0xd5, 0x6b, 0x01, 0x00, 0x00, 0xdc, 0xff, 0x4b, 0xe5, 0x5d, 0x24,
   0xdf, 0x3e, 0x50, 0xa1, 0xed, 0xee, 0x00, 0x00, 0x00, 0x00, 0x40, 0x80,
   0x01, 0x00, 0x60, 0xbd, 0x06, 0x00, 0x00, 0x80, 0x53, 0x2c, 0x49, 0xb7,
   0x00, 0x00, 0x00, 0xf8, 0xff, 0xbb, 0xba, 0x17, 0xf1, 0xf5, 0x17, 0x21,
   0x54, 0xd7, 0x5b, 0x00, 0x00, 0x00, 0x10, 0x00, 0x80, 0x03, 0x00, 0x40,
   0xfa, 0x0e, 0x00, 0x00, 0xe0, 0xb1, 0x51, 0x79, 0x3f, 0x00, 0x00, 0x00,
   0xf8, 0xff, 0xf3, 0xf3, 0x37, 0x2a, 0xdf, 0x5f, 0x02, 0xd2, 0xbe, 0xef,
   0x00, 0x00, 0x00, 0x80, 0x02, 0x80, 0x0e, 0x00, 0x50, 0xf4, 0x03, 0x00,
   0x00, 0x7c, 0x28, 0x20, 0xd2, 0x0a, 0x00, 0xf4, 0x05, 0xf0, 0xff, 0xff,
   0xff, 0x47, 0xd0, 0xff, 0x17, 0x08, 0xe8, 0x6b, 0xfb, 0x00, 0x00, 0x00,
   0x00, 0x00, 0x00, 0x00, 0x00, 0xd0, 0xe8, 0x07, 0x00, 0x80, 0xfd, 0xe8,
   0x17, 0xab, 0x04, 0x00, 0xd7, 0x08, 0xe0, 0xff, 0xef, 0xff, 0x97, 0xf2,
   0xbe, 0x0d, 0x10, 0xea, 0xff, 0xdb, 0x00, 0x00, 0x00, 0x00, 0x00, 0x00,
   0x00, 0x00, 0x20, 0xd4, 0x00, 0x00, 0x00, 0x7e, 0x3e, 0x00, 0xae, 0x03,
   0xe0, 0x6d, 0x3c, 0xe0, 0xff, 0xbf, 0xff, 0x97, 0xa8, 0x77, 0x8b, 0x24,
   0xb4, 0x6d, 0xed, 0x00, 0x00, 0x00, 0x00, 0x00, 0x00, 0x00, 0x05, 0x84,
   0xe0, 0x00, 0x00, 0x00, 0x00, 0xaa, 0x02, 0x38, 0x00, 0xac, 0x4f, 0x64,
   0xc0, 0xff, 0x54, 0xfd, 0x55, 0x69, 0xfd, 0x15, 0x09, 0xea, 0xea, 0xdb,
   0x00, 0x00, 0x02, 0x00, 0x00, 0x00, 0x00, 0xb4, 0x7a, 0xf8, 0x02, 0x00,
   0x00, 0x40, 0x6b, 0xb0, 0x16, 0x00, 0x7e, 0x0d, 0xf0, 0x80, 0x7f, 0x5c,
   0xf8, 0x83, 0xfc, 0xd7, 0xab, 0x02, 0xfa, 0xbf, 0xd6, 0x00, 0x00, 0x00,
   0x00, 0x00, 0x00, 0x00, 0x08, 0xff, 0xd3, 0x00, 0x00, 0x00, 0x00, 0x10,
   0xb4, 0x2a, 0x00, 0x69, 0x03, 0xe0, 0x80, 0x1f, 0xbc, 0xea, 0x55, 0xe9,
   0xff, 0x13, 0x80, 0x5e, 0xdb, 0xba, 0x00, 0x00, 0x00, 0x00, 0x00, 0x00,
   0x00, 0x00, 0x40, 0x00, 0x00, 0x00, 0x00, 0xa0, 0x2a, 0xea, 0x2a, 0x40,
   0x41, 0x00, 0xe0, 0x07, 0x04, 0x70, 0x0f, 0x00, 0xf5, 0xbf, 0x85, 0x62,
   0xf3, 0xbe, 0x5b, 0x00, 0x00, 0x00, 0x00, 0x00, 0x00, 0x00, 0x00, 0xdc,
   0xab, 0x15, 0x00, 0x00, 0x00, 0x08, 0xae, 0x56, 0x60, 0x01, 0x00, 0x44,
   0x0f, 0x00, 0xe0, 0x7f, 0x49, 0xad, 0xfe, 0x2a, 0x41, 0x97, 0xb7, 0xf2,
   0x00, 0x00, 0x00, 0x00, 0x00, 0x00, 0x00, 0x00, 0x10, 0x2a, 0x00, 0x00,
   0x00, 0x00, 0x08, 0xa8, 0x09, 0x08, 0x00, 0x00, 0xd0, 0x3f, 0x00, 0xc0,
   0xff, 0x22, 0xf5, 0xff, 0x85, 0x88, 0xda, 0x5b, 0x0f, 0x00, 0x00, 0x00,
   0x00, 0x00, 0x20, 0x00, 0x00, 0xa0, 0xee, 0x03, 0x00, 0x20, 0x54, 0x01,
   0xa0, 0x82, 0x0a, 0x00, 0x00, 0x80, 0xff, 0x01, 0x80, 0xff, 0x42, 0xff,
   0xff, 0x91, 0xa2, 0x6b, 0xdf, 0x39, 0x00, 0x00, 0x00, 0x00, 0x00, 0x80,
   0x02, 0x00, 0x80, 0x52, 0x00, 0x00, 0xdf, 0xbf, 0xc2, 0x03, 0xfd, 0x01,
   0x00, 0x00, 0x10, 0xde, 0x0f, 0x9c, 0x7f, 0x94, 0xfe, 0x7f, 0x22, 0x40,
   0xf7, 0x6e, 0x86, 0x00, 0x00, 0x00, 0x00, 0x00, 0x00, 0x04, 0x00, 0x00,
   0x00, 0x00, 0xa0, 0x7a, 0x55, 0xe0, 0x5c, 0x30, 0x00, 0x00, 0x00, 0x00,
   0xf1, 0x1f, 0x1d, 0x5f, 0x89, 0xff, 0xdf, 0x8e, 0x48, 0xed, 0xad, 0x4f,
   0x00, 0x00, 0x00, 0x00, 0x00, 0x00, 0x50, 0x00, 0x00, 0x00, 0x00, 0xf4,
   0x6f, 0x55, 0x21, 0x52, 0x05, 0x00, 0x50, 0x04, 0x00, 0xc6, 0x0f, 0x3e,
   0xb8, 0xa4, 0xff, 0x9f, 0x40, 0x72, 0xb5, 0xdd, 0x56, 0x00, 0x00, 0x00,
   0x00, 0x00, 0x00, 0x00, 0x4b, 0x00, 0x0a, 0x00, 0x5d, 0xa9, 0x25, 0x90,
   0x20, 0x05, 0x00, 0x84, 0x00, 0x00, 0x00, 0x04, 0xfe, 0xb8, 0xa4, 0xff,
   0x57, 0x15, 0xca, 0xaf, 0xf1, 0x44, 0x00, 0x00, 0x00, 0x00, 0x00, 0x00,
   0x00, 0xaa, 0x03, 0xd0, 0xaf, 0x56, 0x52, 0x00, 0x20, 0x17, 0xa0, 0x00,
   0x20, 0x02, 0x00, 0x10, 0x01, 0xff, 0x5f, 0xe9, 0xff, 0xd7, 0x48, 0xb8,
   0x74, 0x9f, 0xaa, 0x00, 0x00, 0x00, 0x00, 0x00, 0x00, 0x00, 0x34, 0x20,
   0x02, 0xfd, 0xaa, 0x2c, 0x00, 0x70, 0x75, 0x05, 0x00, 0x80, 0x00, 0x00,
   0x50, 0x00, 0xfe, 0x7f, 0xd3, 0xff, 0x1b, 0x11, 0x68, 0xdf, 0xdb, 0xa5,
   0x00, 0x00, 0x00, 0x00, 0x00, 0x00, 0x00, 0x00, 0x00, 0x40, 0xfb, 0xd7,
   0x01, 0x00, 0xae, 0xde, 0x1b, 0x00, 0x00, 0x00, 0x00, 0x00, 0x00, 0x78,
   0x6f, 0xed, 0x7f, 0x65, 0x2d, 0x76, 0xb5, 0x94, 0xcd, 0x00, 0x00, 0x00,
   0x00, 0x00, 0x00, 0x00, 0x00, 0x00, 0x00, 0xa4, 0x3e, 0x06, 0x00, 0x1d,
   0xf8, 0x0a, 0x00, 0x00, 0x00, 0x10, 0x00, 0x00, 0xca, 0xff, 0xfd, 0xef,
   0x2d, 0x15, 0x9d, 0x4a, 0xb5, 0x38, 0x00, 0x00, 0x00, 0x00, 0x00, 0x00,
   0x00, 0x00, 0x00, 0x00, 0xe0, 0xdb, 0xa8, 0xfa, 0xab, 0xa2, 0x02, 0x00,
   0x00, 0x00, 0x28, 0x00, 0x02, 0xff, 0x6f, 0xff, 0x3f, 0xb1, 0x86, 0xab,
   0x95, 0x90, 0xd7, 0x00, 0x00, 0x00, 0x00, 0x00, 0x00, 0x00, 0x00, 0xa0,
   0x02, 0x80, 0xf6, 0x85, 0x26, 0x3a, 0x15, 0x05, 0x00, 0x00, 0x00, 0xc4,
   0xe0, 0xc2, 0xff, 0xff, 0xff, 0xb7, 0xd5, 0x3a, 0x1f, 0x2a, 0x52, 0xb2,
   0x00, 0x00, 0x00, 0x00, 0x00, 0x00, 0x20, 0x10, 0x68, 0x05, 0x00, 0x95,
   0x4a, 0xa9, 0xff, 0x02, 0x00, 0x00, 0x00, 0x00, 0x91, 0x56, 0xe1, 0xff,
   0xff, 0xff, 0x5f, 0xab, 0xc2, 0xa5, 0x96, 0xc8, 0xde, 0x00, 0x00, 0x00,
   0x00, 0x00, 0x00, 0xd0, 0xd6, 0x43, 0x1a, 0x00, 0x54, 0x59, 0x27, 0x40,
   0x59, 0x28, 0x00, 0x00, 0xa0, 0x12, 0x14, 0x20, 0xff, 0xdb, 0xff, 0xa7,
   0xaa, 0x4b, 0x8f, 0xa2, 0x9c, 0x3d, 0x00, 0x00, 0x00, 0x00, 0x00, 0x00,
   0x20, 0x29, 0x2a, 0x2d, 0x00, 0xa8, 0x81, 0x06, 0x00, 0xa0, 0x01, 0x00,
   0x00, 0x50, 0x01, 0x04, 0xfe, 0xff, 0xff, 0xff, 0x57, 0x57, 0xe2, 0xaa,
   0x52, 0xfb, 0xf7, 0x00, 0x00, 0x00, 0x00, 0x00, 0x00, 0x48, 0x01, 0x09,
   0x01, 0x00, 0x00, 0x00, 0x00, 0x00, 0x00, 0x11, 0x05, 0x00, 0x44, 0x01,
   0x04, 0xe0, 0xff, 0xff, 0xff, 0xd7, 0xaa, 0xca, 0xa7, 0xf6, 0xef, 0xfe,
   0x00, 0x00, 0x00, 0x00, 0x00, 0x00, 0x00, 0x80, 0x88, 0x00, 0x00, 0x40,
   0x00, 0x00, 0x00, 0x00, 0x4a, 0x0a, 0x00, 0x05, 0x00, 0x01, 0x80, 0xff,
   0xff, 0xff, 0x5b, 0xb7, 0x74, 0xf5, 0xd8, 0xfe, 0xdf, 0x00, 0x00, 0x00,
   0x00, 0x00, 0x00, 0x00, 0x00, 0x10, 0x00, 0x00, 0x00, 0x00, 0x00, 0x00,
   0x00, 0xb0, 0x13, 0x00, 0x00, 0x00, 0x00, 0x00, 0xfe, 0xff, 0xff, 0x57,
   0xb9, 0x5d, 0xa5, 0xff, 0x6b, 0xfd, 0x00, 0x00, 0x00, 0x00, 0x00, 0x00,
   0x00, 0x00, 0x00, 0x00, 0x00, 0x00, 0x00, 0x00, 0x00, 0x00, 0x46, 0xa0,
   0x00, 0x10, 0x00, 0x00, 0x00, 0xfc, 0xff, 0xff, 0x5f, 0xb7, 0x7a, 0x75,
   0xf7, 0xff, 0x5f, 0x00, 0x00, 0x00, 0x00, 0x00, 0x00, 0x00, 0xc0, 0x00,
   0x00, 0x00, 0x00, 0x00, 0x00, 0x00, 0x24, 0x00, 0x04, 0x8b, 0x02, 0x00,
   0x80, 0x00, 0xf0, 0xff, 0xff, 0xef, 0xff, 0xf5, 0xa9, 0xbe, 0xee, 0x3b,
   0x00, 0x00, 0x00, 0x00, 0x00, 0x00, 0x00, 0x00, 0x00, 0x00, 0x00, 0x00,
   0x00, 0x00, 0x80, 0x00, 0x00, 0x90, 0x6a, 0x02, 0x24, 0xe0, 0x07, 0xe0,
   0xff, 0xff, 0xff, 0x6f, 0xdb, 0xfa, 0xf7, 0xbb, 0x1d, 0x00, 0x00, 0x00,
   0x00, 0x00, 0x00, 0x00, 0x00, 0x00, 0x00, 0x00, 0x00, 0x00, 0x00, 0x00,
   0x00, 0x00, 0x00, 0x90, 0x00, 0x07, 0xf8, 0x1f, 0xc0, 0xff, 0xff, 0xf7,
   0xff, 0xbb, 0xf5, 0xdf, 0xff, 0x0b, 0x00, 0x00, 0x00, 0x00, 0x00, 0x00,
   0x00, 0x00, 0x00, 0x00, 0x00, 0x00, 0x00, 0x00, 0x00, 0x00, 0x00, 0x00,
   0x00, 0x00, 0x3f, 0xd8, 0x3f, 0x80, 0xff, 0xff, 0xff, 0x3f, 0x6f, 0xf7,
   0x77, 0xff, 0x03, 0x00, 0x00, 0x00, 0x00, 0x00, 0x00, 0x00, 0x00, 0x00,
   0x00, 0x00, 0x00, 0x00, 0x00, 0x00, 0x00, 0x00, 0x40, 0x00, 0x80, 0x1f,
   0xfc, 0x7f, 0x80, 0xff, 0xff, 0xff, 0xbf, 0x6e, 0x6d, 0x7f, 0x55, 0x07,
   0x00, 0x00, 0x00, 0x00, 0x00, 0x00, 0x00, 0x00, 0x00, 0x00, 0x00, 0x00,
   0x00, 0x00, 0x00, 0x00, 0x00, 0x00, 0x00, 0xc0, 0x3f, 0xfc, 0xff, 0x00,
   0xfe, 0xff, 0xfe, 0x45, 0x5b, 0xf7, 0xd7, 0xff, 0x03, 0x00, 0x00, 0x00,
   0x00, 0x00, 0x00, 0x00, 0x00, 0x00, 0x00, 0x00, 0x00, 0x00, 0x00, 0x00,
   0x00, 0x00, 0x00, 0x00, 0xe0, 0x1f, 0xfc, 0xff, 0x00, 0xff, 0xff, 0xff,
   0x57, 0xca, 0xff, 0xfb, 0x7e, 0x05, 0x00, 0x00, 0x00, 0x00, 0x00, 0x00,
   0x00, 0x00, 0x00, 0x00, 0x00, 0x00, 0x00, 0x00, 0x00, 0x00, 0x00, 0x00,
   0x00, 0xe0, 0x3f, 0xae, 0xff, 0x01, 0xfc, 0xff, 0x6f, 0x01, 0xa9, 0xff,
   0xff, 0xdb, 0xb5, 0x00, 0x00, 0x00, 0x00, 0x00, 0x00, 0x00, 0x00, 0x00,
   0x00, 0x00, 0x00, 0x00, 0x00, 0x00, 0x00, 0x00, 0x00, 0x00, 0xf0, 0x3f,
   0x2e, 0xfe, 0x03, 0xfd, 0x7f, 0x6f, 0x10, 0x74, 0xbd, 0x7f, 0xbf, 0x1e,
   0x00, 0x00, 0x00, 0x00, 0x00, 0x00, 0x00, 0x00, 0x00, 0x00, 0x00, 0x00,
   0x00, 0x00, 0x00, 0x00, 0x00, 0x00, 0x00, 0xe0, 0x3f, 0xac, 0xfe, 0x07,
   0xf8, 0xff, 0x3f, 0x20, 0xfe, 0xff, 0xfb, 0xe5, 0x02, 0x00, 0x00, 0x00,
   0x00, 0x00, 0x00, 0x00, 0x00, 0x00, 0x00, 0x00, 0x00, 0x00, 0x00, 0x00,
   0x00, 0x00, 0x00, 0x00, 0xfc, 0x3e, 0x4c, 0xfd, 0x07, 0xfd, 0xff, 0x7f,
   0xc4, 0xd2, 0xff, 0xbf, 0x95, 0x02, 0x00, 0x00, 0x00, 0x00, 0x00, 0x00,
   0x00, 0x00, 0x00, 0x00, 0x00, 0x00, 0x00, 0x00, 0x00, 0x00, 0x00, 0x00,
   0x00, 0xbf, 0x7d, 0x88, 0xfe, 0x0f, 0xf8, 0xff, 0xff, 0x71, 0xff, 0x7f,
   0x5b, 0x51, 0x00, 0x00, 0x00, 0x00, 0x00, 0x00, 0x00, 0x00, 0x00, 0x00,
   0x00, 0x00, 0x00, 0x00, 0x00, 0x00, 0x00, 0x00, 0x00, 0x00, 0x5f, 0x7f,
   0x28, 0xed, 0x0f, 0xf4, 0xff, 0xff, 0x6b, 0xff, 0xef, 0xb5, 0x52, 0x00,
   0x00, 0x00, 0x00, 0x00, 0x00, 0x00, 0x00, 0x00, 0x00, 0x00, 0x00, 0x00,
   0x00, 0x00, 0x00, 0x00, 0x00, 0x00, 0x00, 0x46, 0xff, 0xc8, 0xeb, 0x17,
   0xf8, 0xff, 0xbf, 0xef, 0xbf, 0x15, 0x15, 0x04, 0x00, 0x00, 0x00, 0x00,
   0x00, 0x00, 0x00, 0x00, 0x00, 0x00, 0x00, 0x00, 0x00, 0x00, 0x00, 0x00,
   0x00, 0x00, 0x00, 0x00, 0xde, 0x7b, 0x18, 0xd7, 0x1f, 0xf2, 0xff, 0xf7,
   0xff, 0xbf, 0x56, 0xa8, 0x00, 0x00, 0x00, 0x00, 0x00, 0x00, 0x00, 0x00,
   0x00, 0x00, 0x00, 0x00, 0x00, 0x00, 0x00, 0x00, 0x00, 0x00, 0x00, 0x00,
   0x00, 0xf4, 0xff, 0x70, 0xea, 0x1e, 0xf0, 0xff, 0xef, 0xff, 0x7f, 0xaa,
   0x22, 0x01, 0xd0, 0x00, 0x00, 0x00, 0x00, 0x00, 0x00, 0x00, 0x00, 0x00,
   0x00, 0x00, 0x00, 0x00, 0x00, 0x00, 0x00, 0x00, 0x00, 0x00, 0xa8, 0xff,
   0xb0, 0xf0, 0x1f, 0xf2, 0xff, 0xff, 0xff, 0xaf, 0x94, 0x22, 0x00, 0xa0,
   0x00, 0x00, 0x00, 0x00, 0x00, 0x00, 0x00, 0x00, 0x00, 0x00, 0x00, 0x00,
   0x00, 0x00, 0x00, 0x00, 0x00, 0x00, 0x00, 0xf0, 0xff, 0x63, 0x55, 0x3f,
   0xf4, 0xff, 0xff, 0xff, 0x52, 0x13, 0x28, 0x00, 0xba, 0x00, 0x00, 0x00,
   0x00, 0x00, 0x00, 0x00, 0x00, 0x00, 0x00, 0x00, 0x00, 0x00, 0x00, 0x00,
   0x00, 0x00, 0x00, 0x00, 0xc0, 0xff, 0xc3, 0xd3, 0x1f, 0xf8, 0xff, 0xff,
   0x5f, 0x6a, 0x45, 0x2b, 0xc0, 0x4b, 0x00, 0x00, 0x00, 0x00, 0x00, 0x00,
   0x00, 0x00, 0x00, 0x00, 0x00, 0x00, 0x00, 0x00, 0x00, 0x00, 0x00, 0x00,
   0x00, 0x80, 0xbf, 0xc7, 0x85, 0x1f, 0xf8, 0xff, 0xff, 0xbf, 0x15, 0x99,
   0x05, 0x58, 0x28, 0x00, 0x00, 0x00, 0x00, 0x00, 0x00, 0x00, 0x00, 0x00,
   0x00, 0x00, 0x00, 0x00, 0x00, 0x00, 0x00, 0x00, 0x00, 0x00, 0x00, 0xbf,
   0x07, 0xab, 0x1f, 0xfc, 0xff, 0xff, 0xf7, 0x24, 0x49, 0x01, 0x8e, 0x51,
   0x00, 0x00, 0x00, 0x00, 0x00, 0x00, 0x00, 0x00, 0x00, 0x00, 0x00, 0x00,
   0x00, 0x00, 0x00, 0x00, 0x00, 0x00, 0x00, 0x00, 0x7f, 0x0f, 0xe4, 0x0f,
   0xfc, 0xff, 0xff, 0x03, 0x94, 0x22, 0x40, 0x50, 0x2a, 0x00, 0x00, 0x00,
   0x00, 0x00, 0x00, 0x00, 0x00, 0x00, 0x00, 0x00, 0x00, 0x00, 0x00, 0x00,
   0x00, 0x00, 0x00, 0x00, 0x00, 0xfe, 0x1f, 0xc8, 0x02, 0xfc, 0xff, 0xff,
   0x03, 0x50, 0x05, 0xd8, 0x97, 0x40, 0x00, 0x00, 0x00, 0x00, 0x00, 0x00,
   0x00, 0x00, 0x00, 0x00, 0x00, 0x00, 0x00, 0x00, 0x00, 0x00, 0x00, 0x00,
   0x00, 0x00, 0xfc, 0x7f, 0xb0, 0x00, 0xfe, 0xff, 0xff, 0x80, 0x2e, 0x90,
   0xee, 0x49, 0x8a, 0x00, 0x00, 0x00, 0x00, 0x00, 0x00, 0x00, 0x00, 0x00,
   0x00, 0x00, 0x00, 0x00, 0x00, 0x00, 0x00, 0x00, 0x00, 0x00, 0x00, 0xfc,
   0xff, 0x00, 0x00, 0xff, 0xff, 0xdf, 0x3a, 0x29, 0xaa, 0xad, 0x00, 0x10,
   0x00, 0x00, 0x00, 0x00, 0x00, 0x00, 0x00, 0x00, 0x00, 0x00, 0x00, 0x00,
   0x00, 0x00, 0x00, 0x00, 0x00, 0x00, 0x00, 0x00, 0xf8, 0xff, 0x03, 0x00,
   0xff, 0xff, 0x7f, 0xa3, 0xa2, 0x94, 0x00, 0x80, 0x20, 0x00, 0x00, 0x00,
   0x00, 0x00, 0x00, 0x00, 0x00, 0x00, 0x00, 0x00, 0x00, 0x00, 0x00, 0x00,
   0x00, 0x00, 0x00, 0x00, 0x00, 0xf8, 0xff, 0x07, 0x80, 0xff, 0xff, 0xdb,
   0x4e, 0xa5, 0x00, 0x08, 0x04, 0x50, 0x00, 0x00, 0x00, 0x00, 0x00, 0x00,
   0x00, 0x00, 0x00, 0x00, 0x00, 0x00, 0x00, 0x00, 0x00, 0x00, 0x00, 0x00,
   0x00, 0x00, 0xf0, 0xf7, 0x3f, 0xf0, 0xff, 0xff, 0x85, 0x00, 0x00, 0x00,
   0x40, 0x01, 0xad, 0x00, 0x00, 0x00, 0x00, 0x00, 0x00, 0x00, 0x00, 0x00,
   0x00, 0x00, 0x00, 0x00, 0x00, 0x00, 0x00, 0x00, 0x00, 0x00, 0x00, 0x00,
   0xc0, 0xff, 0xff, 0xff, 0x77, 0x04, 0x88, 0x00, 0x00, 0x00, 0xa8, 0xf9,
   0x00, 0x00, 0x00, 0x00, 0x00, 0x00, 0x00, 0x00, 0x00, 0x00, 0x00, 0x00,
   0x00, 0x00, 0x00, 0x00, 0x00, 0x00, 0x00, 0x00, 0x00, 0x80, 0xff, 0xff,
   0xff, 0xbf, 0x95, 0x04, 0x00, 0x00, 0x01, 0x01, 0x00, 0x00, 0x00, 0x00,
   0x00, 0x00, 0x00, 0x00, 0x00, 0x00, 0x00, 0x00, 0x00, 0x00, 0x00, 0x00,
   0x00, 0x00, 0x00, 0x00, 0x00, 0x00, 0x00, 0xff, 0xff, 0xff, 0x6e, 0x20,
   0x04, 0x01, 0x24, 0x10, 0x00, 0x00, 0x00, 0x00, 0x00, 0x00, 0x00, 0x00,
   0x00, 0x00, 0x00, 0x00, 0x00, 0x00, 0x00, 0x00, 0x00, 0x00, 0x00, 0x00,
   0x00, 0x00, 0x00, 0x00, 0xfc, 0xff, 0xff, 0x9f, 0x4a, 0x49, 0x20, 0x80,
   0x00, 0x00, 0x00, 0x00, 0x00, 0x00, 0x00, 0x00, 0x00, 0x00, 0x00, 0x00,
   0x00, 0x00, 0x00, 0x00, 0x00, 0x00, 0x00, 0x00, 0x00, 0x00, 0x00, 0x00,
   0x00, 0xe0, 0xff, 0xff, 0x5b, 0x0a, 0x08, 0x02, 0x00, 0x00, 0x00, 0x00 };
