#define pnj6_width 264
#define pnj6_height 176
static unsigned char pnj6_bits[] = {
   0x00, 0x00, 0x00, 0x00, 0x00, 0x00, 0x00, 0x00, 0x00, 0x00, 0x00, 0x00,
   0x00, 0x00, 0x00, 0x00, 0x00, 0x00, 0x00, 0x00, 0x00, 0x00, 0x00, 0x00,
   0x00, 0x00, 0x00, 0x00, 0x00, 0x00, 0x00, 0x00, 0x00, 0x00, 0x00, 0x00,
   0x00, 0x00, 0x00, 0x00, 0x00, 0x00, 0x00, 0x00, 0x00, 0x00, 0x00, 0x00,
   0x00, 0x00, 0x00, 0x00, 0x00, 0x00, 0x00, 0x00, 0x00, 0x00, 0x00, 0x00,
   0x00, 0x00, 0x00, 0x00, 0x00, 0x00, 0x00, 0x00, 0x00, 0x00, 0x00, 0x00,
   0x00, 0x00, 0x00, 0x0c, 0x00, 0x00, 0x00, 0x00, 0x00, 0x00, 0x00, 0x00,
   0x00, 0x00, 0x00, 0x00, 0x00, 0x00, 0x00, 0x00, 0x00, 0x00, 0x00, 0x00,
   0x00, 0x00, 0x00, 0x00, 0x00, 0x00, 0x00, 0x00, 0x00, 0x00, 0x00, 0x80,
   0x3f, 0x00, 0x00, 0x00, 0x00, 0x00, 0x00, 0x00, 0x00, 0x00, 0x00, 0x00,
   0x00, 0x00, 0x00, 0x00, 0x00, 0x00, 0x00, 0x00, 0x00, 0x00, 0x00, 0x00,
   0x00, 0x00, 0x00, 0x00, 0x00, 0x00, 0x00, 0x00, 0x40, 0xde, 0x05, 0x01,
   0x10, 0x00, 0x00, 0x00, 0x00, 0x00, 0x00, 0x00, 0x00, 0x00, 0x00, 0x00,
   0x00, 0x00, 0x00, 0x00, 0x00, 0x00, 0x00, 0x00, 0x00, 0x00, 0x00, 0x00,
   0x00, 0x00, 0x00, 0x00, 0x00, 0x04, 0xfc, 0xff, 0x85, 0x22, 0x00, 0x00,
   0x00, 0x00, 0x00, 0x00, 0x00, 0x00, 0x00, 0x00, 0x00, 0x00, 0x00, 0x00,
   0x00, 0x00, 0x00, 0x00, 0x00, 0x00, 0x00, 0x00, 0x00, 0x00, 0x00, 0x00,
   0x00, 0x00, 0x00, 0xbd, 0xdf, 0x84, 0xae, 0x00, 0x00, 0x00, 0x00, 0x00,
   0x00, 0x00, 0x00, 0x00, 0x00, 0x00, 0x00, 0x00, 0x00, 0x00, 0x00, 0x00,
   0x00, 0x00, 0x00, 0x00, 0x00, 0x00, 0x00, 0x00, 0x00, 0x00, 0x80, 0x00,
   0xfc, 0xfe, 0x19, 0x08, 0x05, 0x00, 0x00, 0x00, 0x00, 0x00, 0x00, 0x00,
   0x00, 0x00, 0x00, 0x00, 0x00, 0x00, 0x00, 0x00, 0x00, 0x00, 0x00, 0x00,
   0x00, 0x00, 0x00, 0x00, 0x00, 0x00, 0x00, 0x08, 0x00, 0xfc, 0xef, 0x13,
   0x50, 0x52, 0x00, 0x00, 0x00, 0x00, 0x00, 0x00, 0x00, 0x00, 0x00, 0x00,
   0x00, 0x00, 0x00, 0x00, 0x00, 0x00, 0x00, 0x00, 0x00, 0x00, 0x00, 0x00,
   0x00, 0x00, 0x80, 0x00, 0x00, 0x00, 0x30, 0xff, 0x26, 0x15, 0x0a, 0x01,
   0x00, 0x00, 0x00, 0x00, 0x00, 0x00, 0x00, 0x00, 0x00, 0x00, 0x00, 0x00,
   0x00, 0x00, 0x00, 0x00, 0x00, 0x00, 0x00, 0x00, 0x00, 0x00, 0xf8, 0x03,
   0x00, 0x01, 0x01, 0xf0, 0xfe, 0x8b, 0x02, 0xa8, 0x04, 0x00, 0x00, 0x00,
   0x00, 0x00, 0x00, 0x00, 0x00, 0x00, 0x00, 0x00, 0x00, 0x00, 0x00, 0x00,
   0x00, 0x00, 0x00, 0x00, 0x00, 0x00, 0x00, 0xf2, 0x03, 0x00, 0x10, 0x00,
   0xc0, 0xf5, 0x2a, 0x00, 0x60, 0x08, 0x00, 0x00, 0x00, 0x00, 0x00, 0x00,
   0x00, 0x00, 0x00, 0x00, 0x00, 0x00, 0x00, 0x00, 0x00, 0x00, 0x00, 0x00,
   0x00, 0x00, 0x00, 0xc0, 0xfd, 0x00, 0x20, 0x04, 0x00, 0x00, 0x2f, 0x01,
   0x00, 0xb4, 0x81, 0x00, 0x00, 0x00, 0x00, 0x00, 0x00, 0x00, 0x00, 0x00,
   0x00, 0x00, 0x00, 0x00, 0x00, 0x00, 0x00, 0x00, 0x00, 0x00, 0x00, 0x00,
   0xf0, 0x3f, 0x01, 0x00, 0x00, 0x01, 0x00, 0x58, 0x00, 0x00, 0x68, 0x81,
   0x0d, 0x00, 0x00, 0x00, 0x00, 0x00, 0x00, 0x00, 0x00, 0x00, 0x00, 0x00,
   0x00, 0x00, 0x00, 0x00, 0x00, 0x00, 0x00, 0x00, 0x00, 0xf8, 0x7f, 0x08,
   0x00, 0x00, 0x00, 0x00, 0x04, 0x02, 0x00, 0xf0, 0xc0, 0x71, 0x00, 0x00,
   0x00, 0x00, 0x00, 0x00, 0x00, 0x00, 0x00, 0x00, 0x00, 0x00, 0x00, 0x00,
   0x00, 0x00, 0x00, 0x00, 0x00, 0x00, 0xfe, 0x0f, 0x80, 0x00, 0x00, 0x04,
   0x00, 0x00, 0x00, 0x00, 0xc0, 0x89, 0xa3, 0x01, 0x00, 0x00, 0x00, 0x00,
   0x00, 0x00, 0x00, 0x00, 0x00, 0x00, 0x00, 0x00, 0x00, 0x00, 0x00, 0x00,
   0x00, 0x00, 0x00, 0xff, 0x07, 0x20, 0x40, 0x00, 0x00, 0x00, 0x00, 0x08,
   0x00, 0xf4, 0xc1, 0x41, 0x07, 0x00, 0x00, 0x00, 0x00, 0x00, 0x00, 0x00,
   0x00, 0x00, 0x00, 0x00, 0x00, 0x00, 0x00, 0x00, 0x00, 0x00, 0x00, 0xc0,
   0xff, 0x07, 0x00, 0x04, 0x00, 0x00, 0x00, 0x00, 0x11, 0x00, 0xd0, 0x82,
   0xd7, 0x3a, 0x00, 0x00, 0x00, 0x00, 0x00, 0x00, 0x00, 0x00, 0x00, 0x00,
   0x00, 0x00, 0x00, 0x00, 0x00, 0x00, 0x00, 0x00, 0xe0, 0xff, 0x01, 0x00,
   0x00, 0x00, 0x00, 0x00, 0x00, 0x40, 0x00, 0x6a, 0xc1, 0xd3, 0xa6, 0x00,
   0x00, 0x00, 0x00, 0x00, 0x00, 0x00, 0x00, 0x00, 0x00, 0x00, 0x00, 0x00,
   0x00, 0x00, 0x00, 0x00, 0x00, 0xf0, 0xff, 0x00, 0x00, 0x00, 0x04, 0x00,
   0x00, 0x00, 0x08, 0x00, 0xf4, 0x4a, 0xc7, 0xad, 0x02, 0x00, 0x00, 0x00,
   0x00, 0x00, 0x00, 0x00, 0x00, 0x00, 0x00, 0x00, 0x00, 0x00, 0x00, 0xc0,
   0x00, 0x00, 0xf8, 0xff, 0x00, 0x80, 0x00, 0x00, 0x00, 0x00, 0x94, 0x42,
   0x00, 0xf9, 0xc1, 0x91, 0x25, 0x10, 0x00, 0x00, 0x00, 0x00, 0x00, 0x00,
   0x00, 0x00, 0x00, 0x00, 0x00, 0x00, 0x00, 0x00, 0xf0, 0x00, 0x00, 0xf8,
   0xff, 0x00, 0x02, 0x04, 0x10, 0x00, 0x00, 0x00, 0x08, 0x11, 0xbd, 0x8a,
   0xa3, 0x2b, 0x02, 0x00, 0x00, 0x00, 0x00, 0x00, 0x00, 0x00, 0x00, 0x00,
   0x00, 0x00, 0x00, 0x00, 0x00, 0xfc, 0x00, 0x00, 0xfe, 0x3f, 0x44, 0x10,
   0x00, 0x00, 0x00, 0x00, 0x02, 0x25, 0x40, 0x7a, 0xc1, 0x51, 0x09, 0x20,
   0x0d, 0x00, 0x00, 0x00, 0x00, 0x00, 0x00, 0x00, 0x00, 0x00, 0x00, 0x00,
   0x00, 0xf4, 0xff, 0x00, 0x00, 0xfe, 0x5f, 0x00, 0x00, 0x00, 0x00, 0x00,
   0x20, 0x90, 0x24, 0x85, 0x5a, 0x89, 0xd5, 0x12, 0x04, 0x10, 0x00, 0x00,
   0x00, 0x00, 0x00, 0x00, 0x00, 0x00, 0x00, 0x00, 0x00, 0xc0, 0xfe, 0xff,
   0x00, 0x00, 0xff, 0x3f, 0x00, 0x00, 0x00, 0x00, 0x00, 0x80, 0x2a, 0x89,
   0x00, 0x5d, 0xc0, 0xeb, 0x45, 0x50, 0x0b, 0x00, 0x00, 0x00, 0x00, 0x00,
   0x00, 0x00, 0x00, 0x00, 0x00, 0x00, 0xa0, 0xfb, 0xff, 0x00, 0x80, 0xff,
   0x1f, 0x00, 0x40, 0x00, 0x00, 0x00, 0x20, 0x51, 0x2b, 0x04, 0x95, 0x88,
   0xd5, 0x02, 0x05, 0x2a, 0x00, 0x00, 0x00, 0x00, 0x00, 0x00, 0x00, 0x00,
   0x00, 0x00, 0x00, 0x78, 0xff, 0xff, 0x00, 0xc0, 0xfd, 0x4f, 0x01, 0x04,
   0x00, 0x04, 0x00, 0xa0, 0x56, 0x2a, 0x01, 0x14, 0x80, 0xd7, 0x05, 0x50,
   0x14, 0x00, 0x00, 0x00, 0x00, 0x00, 0x00, 0x00, 0x00, 0x00, 0x00, 0x00,
   0xfc, 0xff, 0xff, 0x00, 0xe0, 0xfd, 0x0f, 0x24, 0x00, 0x20, 0x00, 0x01,
   0x60, 0xb5, 0x6d, 0x09, 0x55, 0x81, 0xbe, 0x4a, 0x44, 0x35, 0x00, 0x00,
   0x00, 0x00, 0x00, 0x00, 0x00, 0x00, 0x00, 0x00, 0x00, 0xff, 0xff, 0xff,
   0x00, 0x70, 0xff, 0x0f, 0x00, 0x00, 0x00, 0x00, 0x08, 0x78, 0x2f, 0x14,
   0x04, 0x0a, 0x80, 0xeb, 0x02, 0x01, 0x69, 0x00, 0x00, 0x00, 0x00, 0x00,
   0x00, 0x00, 0x00, 0x00, 0x00, 0x80, 0xff, 0xff, 0xff, 0x00, 0xf0, 0xfe,
   0x1f, 0x01, 0x80, 0x00, 0x00, 0x00, 0xe0, 0xb6, 0xa9, 0x40, 0x0a, 0x00,
   0xaf, 0x20, 0x28, 0x4a, 0x00, 0x00, 0x00, 0x00, 0x00, 0x00, 0x00, 0x00,
   0x00, 0x00, 0xe0, 0xff, 0xff, 0xff, 0x00, 0x58, 0xff, 0x07, 0x00, 0x00,
   0x40, 0x10, 0x10, 0xf0, 0xd7, 0x06, 0x0a, 0x01, 0x08, 0x5e, 0x05, 0x82,
   0x3a, 0x00, 0x00, 0x00, 0x00, 0x00, 0x00, 0x00, 0x00, 0x00, 0x00, 0xf0,
   0xff, 0xff, 0xff, 0x00, 0xbc, 0xfe, 0x0f, 0x00, 0x04, 0x02, 0x00, 0x42,
   0xb0, 0xf6, 0x5d, 0x00, 0x00, 0x00, 0xda, 0x20, 0x20, 0x61, 0x00, 0x00,
   0x00, 0x00, 0x00, 0x00, 0x00, 0x00, 0x00, 0x00, 0xfc, 0xff, 0xff, 0xff,
   0x00, 0xd4, 0xff, 0x03, 0x01, 0x00, 0x80, 0x80, 0x00, 0xf2, 0xb9, 0x14,
   0x00, 0x00, 0x90, 0x2e, 0x81, 0x12, 0x2e, 0x00, 0x00, 0x00, 0x00, 0x00,
   0x00, 0x00, 0x00, 0x00, 0x00, 0xff, 0xff, 0xff, 0xff, 0x00, 0xb6, 0xff,
   0x17, 0x40, 0x00, 0x08, 0x02, 0x00, 0x70, 0xfb, 0x11, 0x00, 0x80, 0x00,
   0x5c, 0x24, 0x40, 0x68, 0x00, 0x00, 0x00, 0x00, 0x00, 0x00, 0x00, 0x00,
   0x00, 0x00, 0xab, 0xff, 0xff, 0xff, 0x00, 0xce, 0xff, 0x83, 0x00, 0x08,
   0x00, 0x00, 0x00, 0xb8, 0x59, 0x15, 0x00, 0x00, 0x00, 0xa6, 0x10, 0x95,
   0x1a, 0x00, 0x00, 0x00, 0x00, 0x00, 0x00, 0x00, 0x00, 0x00, 0xc0, 0x6d,
   0xff, 0xff, 0xff, 0x00, 0xdd, 0xff, 0x8f, 0x00, 0x00, 0x40, 0x28, 0x00,
   0xb1, 0xed, 0x22, 0x00, 0x00, 0x02, 0x9c, 0x92, 0x50, 0x32, 0x00, 0x00,
   0x00, 0x00, 0x00, 0x00, 0x00, 0x00, 0x00, 0xe0, 0xd6, 0xfe, 0xff, 0xff,
   0x00, 0x75, 0xff, 0x0b, 0x00, 0x40, 0x00, 0x00, 0x00, 0xb8, 0xdd, 0x55,
   0x00, 0x20, 0x28, 0x24, 0x40, 0x8a, 0x2c, 0x00, 0x00, 0x00, 0x00, 0x00,
   0x00, 0x00, 0x00, 0x00, 0xbc, 0xad, 0xfd, 0xff, 0xff, 0x00, 0xe7, 0xff,
   0x43, 0x82, 0x00, 0x84, 0x00, 0x00, 0x58, 0xbf, 0x05, 0x00, 0x80, 0x00,
   0x88, 0x0a, 0x51, 0x19, 0x00, 0x00, 0x00, 0x00, 0x00, 0x00, 0x00, 0x00,
   0x40, 0xbe, 0xb5, 0xf5, 0xef, 0xff, 0x80, 0xfa, 0xff, 0x0f, 0x00, 0x88,
   0x00, 0x40, 0x00, 0x78, 0xfd, 0x57, 0x00, 0x00, 0x00, 0x54, 0xa0, 0x84,
   0x36, 0x00, 0x00, 0x00, 0x00, 0x00, 0x00, 0x00, 0x00, 0xf0, 0x6f, 0x4d,
   0xed, 0xfd, 0xff, 0x80, 0xea, 0xff, 0x07, 0x01, 0x00, 0x00, 0x02, 0x02,
   0xdc, 0xdf, 0x05, 0x00, 0x08, 0x01, 0x10, 0x0b, 0x55, 0x15, 0x00, 0x00,
   0x00, 0x00, 0x00, 0x00, 0x00, 0x00, 0xfc, 0xdf, 0xda, 0xda, 0xfb, 0xff,
   0x80, 0xf5, 0xff, 0x2b, 0x00, 0x00, 0x08, 0x40, 0x00, 0x5c, 0xef, 0x0a,
   0x00, 0x20, 0x54, 0x48, 0x50, 0x48, 0x2d, 0x00, 0x00, 0x00, 0x00, 0x00,
   0x00, 0x00, 0x00, 0xf6, 0xab, 0xb5, 0xea, 0xff, 0xff, 0x40, 0xed, 0xff,
   0x27, 0x01, 0x00, 0x20, 0x08, 0x14, 0xfc, 0x8e, 0x1b, 0x00, 0x80, 0x00,
   0x90, 0x22, 0x11, 0x15, 0x00, 0x00, 0x00, 0x00, 0x00, 0x00, 0x00, 0x00,
   0xff, 0xbf, 0x56, 0x6d, 0xf7, 0xff, 0xc0, 0xfa, 0xff, 0x17, 0x00, 0x04,
   0x00, 0x00, 0x00, 0xae, 0xc3, 0x06, 0x00, 0x10, 0x82, 0x20, 0x89, 0x44,
   0x1d, 0x00, 0x00, 0x00, 0x00, 0x00, 0x00, 0x00, 0x80, 0xff, 0xf7, 0xbd,
   0xba, 0xfd, 0xff, 0x40, 0xf5, 0xff, 0x2b, 0x12, 0x20, 0x20, 0x91, 0x40,
   0x7e, 0xcf, 0x05, 0x00, 0x40, 0x10, 0x25, 0x02, 0x55, 0x15, 0x00, 0x00,
   0x00, 0x00, 0x00, 0x00, 0x00, 0xe0, 0xf7, 0x57, 0xab, 0xe5, 0xfb, 0xff,
   0x60, 0xfd, 0xff, 0x8f, 0x00, 0x00, 0x00, 0x00, 0x02, 0x5e, 0xef, 0x02,
   0x00, 0x24, 0x05, 0x48, 0x51, 0xaa, 0x16, 0x00, 0x00, 0x00, 0x00, 0x00,
   0x00, 0x00, 0xf8, 0xff, 0x7f, 0x6d, 0xb5, 0xfe, 0xff, 0x60, 0xf5, 0xff,
   0x2f, 0x42, 0x00, 0x40, 0x08, 0x48, 0x7e, 0xff, 0x07, 0xa0, 0x48, 0x24,
   0x41, 0x04, 0xa0, 0x0d, 0x00, 0x00, 0x00, 0x00, 0x00, 0x00, 0x00, 0xfe,
   0xff, 0x6f, 0x5b, 0xad, 0xfb, 0xff, 0xa0, 0xfa, 0xff, 0x9f, 0x08, 0x22,
   0x01, 0x20, 0x80, 0xae, 0x7f, 0x01, 0x00, 0x22, 0x11, 0x2a, 0xa9, 0x56,
   0x0b, 0x00, 0x00, 0x00, 0x00, 0x00, 0x00, 0x80, 0xff, 0xf6, 0xbf, 0xd5,
   0x7a, 0xff, 0xff, 0xa0, 0xde, 0xff, 0x1f, 0x20, 0x00, 0x02, 0x80, 0x12,
   0x6f, 0xff, 0x07, 0x00, 0x4c, 0x52, 0x44, 0x41, 0xa4, 0x1e, 0x00, 0x00,
   0x00, 0x00, 0x00, 0x00, 0x80, 0xff, 0xff, 0xff, 0x5a, 0x65, 0xfd, 0xff,
   0x70, 0xfd, 0xff, 0x1f, 0x09, 0x00, 0x80, 0x10, 0x40, 0xbf, 0xbf, 0x02,
   0x00, 0x52, 0x01, 0x11, 0x49, 0xa8, 0x0d, 0x00, 0x00, 0x00, 0x00, 0x00,
   0x00, 0xe0, 0x7e, 0xff, 0x2f, 0xab, 0xea, 0xfb, 0xff, 0x50, 0xdb, 0xff,
   0x3f, 0x21, 0x25, 0x04, 0x02, 0x08, 0xaf, 0xfe, 0x03, 0x00, 0x10, 0x34,
   0xa4, 0x14, 0x6b, 0x0f, 0x00, 0x00, 0x00, 0x00, 0x00, 0x00, 0xf0, 0xfe,
   0xfd, 0x7f, 0x55, 0x8d, 0xfe, 0xff, 0x70, 0xff, 0xff, 0x1f, 0x04, 0x00,
   0x00, 0x90, 0x20, 0xdf, 0xaf, 0x02, 0x00, 0x6a, 0x41, 0x09, 0x49, 0xca,
   0x1e, 0x00, 0x00, 0x00, 0x00, 0x00, 0x00, 0xd0, 0xdf, 0xef, 0x5f, 0xd5,
   0xf4, 0xfe, 0xff, 0x70, 0xd7, 0xff, 0x7f, 0x20, 0x40, 0x00, 0x00, 0x00,
   0xbe, 0xde, 0x07, 0x00, 0x20, 0x2a, 0xa9, 0xa2, 0x54, 0x0f, 0x00, 0x00,
   0x00, 0x00, 0x00, 0x00, 0x78, 0xff, 0xbf, 0xdf, 0x16, 0x95, 0xfd, 0xff,
   0xb0, 0xff, 0xff, 0xbf, 0x92, 0x00, 0x04, 0x25, 0x45, 0x6f, 0x7f, 0x05,
   0x40, 0x48, 0x21, 0x8a, 0x28, 0xd5, 0x1d, 0x00, 0x00, 0x00, 0x00, 0x00,
   0x00, 0xdc, 0xf6, 0xff, 0x7f, 0xe9, 0x6a, 0xff, 0xff, 0xf0, 0xdb, 0xff,
   0xff, 0x02, 0x00, 0x20, 0x00, 0x08, 0x5d, 0xed, 0x0a, 0x80, 0x22, 0xca,
   0xb2, 0x4a, 0x55, 0x1f, 0x00, 0x00, 0x00, 0x00, 0x00, 0x00, 0xfc, 0xfe,
   0xff, 0xdf, 0x96, 0xaa, 0xfe, 0xff, 0xb0, 0xff, 0xff, 0x7f, 0x14, 0x11,
   0x00, 0x04, 0x20, 0xfe, 0xbf, 0x15, 0x20, 0x98, 0x54, 0x49, 0x91, 0xa4,
   0x17, 0x00, 0x00, 0x00, 0x00, 0x00, 0x00, 0x4e, 0xfb, 0xff, 0x7f, 0x55,
   0x55, 0xff, 0xff, 0x70, 0xab, 0xff, 0xff, 0x22, 0x80, 0x00, 0x48, 0x42,
   0x58, 0x75, 0x15, 0x00, 0x12, 0x24, 0x95, 0xaa, 0xda, 0x3e, 0x00, 0x00,
   0x00, 0x00, 0x00, 0x00, 0x5f, 0xff, 0xff, 0xff, 0x6a, 0x55, 0xff, 0xff,
   0xf8, 0xed, 0xff, 0xff, 0x85, 0x00, 0x80, 0x00, 0x10, 0xbd, 0x5f, 0x23,
   0x48, 0x6c, 0x4b, 0x2a, 0x91, 0x74, 0xff, 0x00, 0x00, 0x00, 0x00, 0x00,
   0x00, 0xb7, 0xfc, 0xab, 0x5d, 0x95, 0xa4, 0xff, 0xff, 0x58, 0xdf, 0xff,
   0xff, 0x17, 0x02, 0x09, 0x08, 0x05, 0x70, 0xaf, 0x64, 0x89, 0xa8, 0xc8,
   0x4a, 0x24, 0xe5, 0xb6, 0x01, 0x00, 0x00, 0x00, 0x00, 0x80, 0xae, 0xfa,
   0xfe, 0x7f, 0x55, 0x55, 0xff, 0xff, 0xf8, 0xea, 0xff, 0xff, 0x25, 0x08,
   0x00, 0x21, 0xd0, 0xaa, 0xad, 0xd2, 0x2a, 0x2f, 0x17, 0x21, 0xa9, 0xf4,
   0xfb, 0x03, 0x00, 0x00, 0x00, 0x00, 0x80, 0x5b, 0xbd, 0xff, 0xbf, 0x55,
   0xa5, 0xff, 0xff, 0xd8, 0xef, 0xff, 0xff, 0x2f, 0x81, 0x00, 0x84, 0x82,
   0xa0, 0x6d, 0xad, 0x4a, 0x55, 0x6a, 0xa5, 0x22, 0xb5, 0xdf, 0x0f, 0x00,
   0x00, 0x00, 0x00, 0xc0, 0x4a, 0xb9, 0xff, 0x7b, 0x55, 0x55, 0xff, 0xff,
   0x68, 0xd5, 0xff, 0xff, 0x57, 0x24, 0x24, 0x20, 0x18, 0xc5, 0x4b, 0x55,
   0xb5, 0xae, 0x14, 0x05, 0x44, 0xed, 0x77, 0x1f, 0x00, 0x00, 0x00, 0x00,
   0x00, 0x25, 0xcf, 0xff, 0xff, 0xaa, 0x6a, 0xff, 0xff, 0x68, 0xfb, 0xff,
   0xff, 0xbf, 0x00, 0x80, 0x04, 0xa2, 0x94, 0x5e, 0x55, 0xad, 0xa9, 0x6a,
   0x54, 0x55, 0x79, 0xdf, 0xbb, 0x00, 0x00, 0x00, 0x00, 0x30, 0x25, 0xfc,
   0xff, 0xd7, 0x26, 0xad, 0xff, 0xff, 0xb8, 0xf5, 0xff, 0xff, 0x2f, 0x85,
   0x10, 0x90, 0x88, 0xa4, 0xa9, 0x7a, 0x7b, 0xb6, 0x8a, 0x02, 0x84, 0xae,
   0x75, 0xdf, 0x05, 0x00, 0x00, 0x00, 0x80, 0x8a, 0xfe, 0xff, 0x7f, 0x95,
   0xaa, 0xff, 0xff, 0xb8, 0xf7, 0xfe, 0xff, 0x7f, 0x24, 0x81, 0x02, 0x22,
   0x55, 0xfb, 0xcb, 0xd6, 0x4d, 0x2a, 0xb5, 0x29, 0xfd, 0xef, 0xbe, 0x1f,
   0x00, 0x00, 0x00, 0xa4, 0x22, 0xff, 0xff, 0x77, 0xb5, 0xd5, 0xff, 0xff,
   0x78, 0xfd, 0xff, 0xff, 0xff, 0x12, 0x02, 0x14, 0x4c, 0xd2, 0xa6, 0x56,
   0xbb, 0x55, 0xa9, 0x42, 0x62, 0xfd, 0xde, 0xef, 0x6e, 0x00, 0x00, 0x00,
   0x52, 0x85, 0xff, 0xff, 0xdd, 0x52, 0xaa, 0xff, 0xff, 0xe8, 0xfb, 0xff,
   0xff, 0xff, 0x4d, 0x91, 0x50, 0x91, 0xca, 0xae, 0xd5, 0x6e, 0xab, 0x4a,
   0x4a, 0x48, 0xff, 0xdb, 0xde, 0xbf, 0x01, 0x00, 0x00, 0x45, 0x95, 0x77,
   0xff, 0x7f, 0x55, 0xad, 0xfb, 0xff, 0xb8, 0xfb, 0xff, 0xff, 0x7f, 0x2b,
   0x82, 0x24, 0x2a, 0xa9, 0xd5, 0xb6, 0xad, 0xaa, 0x52, 0x00, 0x55, 0x5b,
   0xbd, 0xbf, 0x6e, 0x0b, 0x00, 0x80, 0x9a, 0x80, 0xff, 0xfb, 0xbf, 0x55,
   0xeb, 0xff, 0xff, 0x78, 0xfb, 0xff, 0xff, 0xff, 0x5f, 0x15, 0xa1, 0x50,
   0x2a, 0xbd, 0x6d, 0x7b, 0x55, 0x8a, 0x54, 0xa4, 0xff, 0xeb, 0xb7, 0x5d,
   0x55, 0x00, 0x40, 0xb0, 0xd2, 0xff, 0xbf, 0xfd, 0x4a, 0xcd, 0xff, 0xff,
   0xf8, 0xfd, 0xff, 0xff, 0xff, 0xbb, 0xa2, 0x46, 0xaa, 0xa4, 0xab, 0xda,
   0xd6, 0x56, 0x11, 0x81, 0xe8, 0xaf, 0xbf, 0xaf, 0xb7, 0xaa, 0x54, 0x15,
   0x55, 0xe0, 0xff, 0xff, 0xbe, 0x55, 0xb5, 0xff, 0xff, 0xf8, 0xbb, 0xff,
   0xff, 0xff, 0xbf, 0x4a, 0xa9, 0x92, 0x4a, 0xae, 0xd6, 0xaa, 0x55, 0x25,
   0x88, 0xaa, 0xff, 0xf2, 0x2e, 0xbf, 0x55, 0x41, 0x25, 0x06, 0xe5, 0xff,
   0xff, 0xff, 0xaa, 0xea, 0xff, 0xff, 0xb8, 0xfd, 0xff, 0xff, 0xff, 0x5f,
   0x95, 0x56, 0x2d, 0x51, 0xb9, 0xba, 0x6d, 0x42, 0x90, 0x82, 0xf8, 0x6e,
   0x6f, 0xdb, 0x57, 0x95, 0x0a, 0x90, 0x09, 0xf8, 0xff, 0xb7, 0xbe, 0x55,
   0xd5, 0xdf, 0xff, 0xb8, 0xfd, 0xff, 0xff, 0xff, 0x7f, 0x57, 0xaa, 0x69,
   0xaa, 0xea, 0xaa, 0xdd, 0x54, 0x15, 0x20, 0xea, 0xfd, 0xef, 0xaf, 0xae,
   0x2a, 0x50, 0x12, 0x09, 0xf2, 0xff, 0xff, 0x7f, 0x55, 0xf5, 0xff, 0xff,
   0xf8, 0xfb, 0xff, 0xff, 0xff, 0xff, 0xad, 0xaa, 0x92, 0x54, 0x95, 0x55,
   0x55, 0x05, 0x41, 0x4a, 0xfd, 0x6f, 0x7d, 0xab, 0x1b, 0xa9, 0x0a, 0x88,
   0x20, 0x5c, 0xff, 0xf7, 0xbf, 0xda, 0xd4, 0xfb, 0xff, 0x78, 0xbf, 0xff,
   0xff, 0xff, 0xff, 0x8f, 0x2a, 0xa5, 0x4a, 0x55, 0x2b, 0x51, 0x29, 0x49,
   0x90, 0xda, 0xfd, 0xeb, 0xaa, 0x56, 0x89, 0x50, 0x11, 0x85, 0x78, 0xf7,
   0xbf, 0x7f, 0xab, 0xf5, 0xff, 0xff, 0xf8, 0xff, 0xff, 0xff, 0xff, 0xff,
   0x7f, 0x65, 0x5b, 0x51, 0x95, 0xda, 0x96, 0x22, 0x24, 0x22, 0x7f, 0xd7,
   0x5f, 0xd3, 0x25, 0xa4, 0x82, 0x44, 0x01, 0xef, 0x5f, 0xf7, 0xbf, 0xb6,
   0xfa, 0xff, 0xff, 0x78, 0xfd, 0xfe, 0xff, 0xff, 0xff, 0x6f, 0x4d, 0xa8,
   0x96, 0xaa, 0xaa, 0x54, 0x8a, 0x00, 0xaa, 0xf6, 0x7e, 0xad, 0x86, 0xa6,
   0x94, 0x14, 0x48, 0x20, 0xfe, 0xff, 0x6f, 0x7f, 0x2a, 0xf3, 0xfb, 0xff,
   0xfc, 0xff, 0xff, 0xff, 0xff, 0xff, 0xff, 0xb5, 0xa5, 0x52, 0x49, 0x55,
   0x85, 0x52, 0x25, 0x50, 0xdf, 0xdb, 0x4a, 0x69, 0x0a, 0x21, 0x42, 0x85,
   0x10, 0xff, 0xff, 0xff, 0x9f, 0xba, 0xfc, 0xee, 0xff, 0xf8, 0xfd, 0xfe,
   0xff, 0xff, 0xff, 0xdf, 0xbe, 0xae, 0xaa, 0x5a, 0x85, 0x2a, 0x8a, 0xa4,
   0xd2, 0x5d, 0x77, 0x07, 0x95, 0x54, 0x4a, 0x14, 0x14, 0x82, 0xff, 0xff,
   0xb7, 0x6f, 0x6b, 0xf3, 0xff, 0xff, 0xfc, 0xef, 0xff, 0xff, 0xff, 0xff,
   0xff, 0xd7, 0xb5, 0x54, 0xb5, 0xad, 0x92, 0x24, 0x00, 0x6c, 0xf7, 0x5a,
   0x91, 0x50, 0x91, 0x12, 0x41, 0x28, 0xa8, 0xff, 0xff, 0xfe, 0x5f, 0xb5,
   0xfe, 0xfe, 0xff, 0xfc, 0x7d, 0xff, 0xff, 0xff, 0xff, 0xff, 0xbf, 0xff,
   0x5a, 0x55, 0xab, 0x96, 0x04, 0x45, 0xd5, 0xdf, 0x2f, 0x85, 0x25, 0x46,
   0x28, 0x89, 0x42, 0xc2, 0xff, 0xff, 0xdb, 0x5f, 0x55, 0xf9, 0xef, 0xff,
   0xf8, 0xff, 0xff, 0xff, 0xff, 0xff, 0xff, 0xff, 0xff, 0xaf, 0x6d, 0xf5,
   0xed, 0x29, 0x90, 0xfa, 0x6a, 0x55, 0x55, 0x95, 0x51, 0x05, 0x44, 0x28,
   0xe8, 0xee, 0xdf, 0xef, 0xe7, 0xaa, 0x7e, 0xff, 0xff, 0xfc, 0x77, 0xff,
   0xff, 0xff, 0xff, 0xff, 0xff, 0xff, 0x7f, 0x6d, 0x7f, 0xbf, 0xab, 0x62,
   0xdf, 0xdf, 0x6a, 0x55, 0x2b, 0x04, 0x90, 0x80, 0x12, 0xf1, 0xdf, 0xff,
   0xff, 0x9f, 0x5e, 0xf5, 0xfe, 0xff, 0xfc, 0xff, 0xff, 0xff, 0xff, 0xff,
   0xff, 0xff, 0xff, 0xff, 0xba, 0xff, 0xff, 0xaf, 0xbd, 0x7d, 0xbd, 0x57,
   0x65, 0xa5, 0xa5, 0x04, 0x12, 0x21, 0xfc, 0xff, 0x7f, 0xfb, 0xe5, 0x65,
   0xff, 0xff, 0xff, 0xfc, 0x7f, 0xff, 0xff, 0xff, 0xff, 0xff, 0xff, 0xff,
   0xff, 0xff, 0xff, 0xff, 0xff, 0xf7, 0xef, 0x6b, 0x5d, 0x55, 0xad, 0x08,
   0x21, 0x40, 0x8a, 0xf8, 0xff, 0xff, 0xfd, 0x29, 0x55, 0xdd, 0xff, 0xff,
   0xfc, 0xfb, 0xff, 0xff, 0xff, 0xff, 0xff, 0xff, 0xff, 0xff, 0xff, 0xff,
   0xff, 0xff, 0x5f, 0xbb, 0xda, 0x6b, 0x2d, 0xd5, 0x52, 0x90, 0x24, 0x20,
   0xfe, 0xff, 0x6f, 0x6f, 0xd7, 0xaa, 0xff, 0xff, 0xff, 0xf8, 0xff, 0xff,
   0xff, 0xff, 0xff, 0xff, 0xff, 0xff, 0xff, 0xff, 0xff, 0xff, 0xbf, 0xfd,
   0xf7, 0xaa, 0x96, 0xba, 0x54, 0x02, 0x55, 0xc9, 0x0a, 0xfe, 0xfb, 0x6f,
   0xfd, 0x94, 0xaa, 0x76, 0xff, 0xff, 0xfc, 0xf7, 0xfe, 0xff, 0xff, 0xff,
   0xff, 0xff, 0xff, 0xff, 0xff, 0xff, 0xff, 0x77, 0x7f, 0xaf, 0xef, 0xef,
   0xaa, 0x56, 0x75, 0x92, 0x0a, 0x51, 0xfe, 0xff, 0xbb, 0x5f, 0xab, 0xea,
   0xff, 0xff, 0xff, 0xf8, 0xff, 0xff, 0xff, 0xff, 0xff, 0xff, 0xff, 0xff,
   0xff, 0xff, 0xff, 0x7f, 0xff, 0xef, 0xbd, 0x5a, 0xdd, 0xae, 0x5a, 0x85,
   0xaa, 0x02, 0x05, 0xfd, 0xff, 0xbf, 0x7f, 0x94, 0xca, 0xef, 0xff, 0xff,
   0xf8, 0xef, 0xdd, 0xff, 0xff, 0xff, 0xff, 0xff, 0xff, 0xff, 0xff, 0xff,
   0xff, 0x57, 0xfd, 0xf6, 0xef, 0x6b, 0xd7, 0xed, 0x7a, 0xab, 0xa4, 0xd0,
   0x5f, 0xff, 0xd7, 0xab, 0xb5, 0xf4, 0xfd, 0xff, 0xff, 0xf8, 0xff, 0xff,
   0xff, 0xff, 0xff, 0xff, 0xff, 0xff, 0xff, 0xef, 0xbf, 0xff, 0x2b, 0xfe,
   0xb7, 0x7c, 0xdf, 0x56, 0x5b, 0xa5, 0xaa, 0x00, 0x80, 0xff, 0xfe, 0xfe,
   0xaf, 0xaa, 0xca, 0xfd, 0xff, 0xff, 0xf8, 0xff, 0xdb, 0xff, 0xff, 0xff,
   0xff, 0xff, 0xff, 0xff, 0xd7, 0xee, 0x6a, 0x95, 0xfa, 0xfe, 0xd7, 0xb5,
   0xb5, 0x6d, 0xbb, 0x2a, 0xa5, 0xe8, 0xbf, 0xb7, 0xd7, 0xb5, 0xa4, 0xfa,
   0xff, 0xff, 0xff, 0xf0, 0xff, 0xff, 0xff, 0xff, 0xff, 0xff, 0xff, 0xff,
   0xff, 0x93, 0xff, 0xfe, 0x5b, 0xfa, 0xef, 0xff, 0xfe, 0x6f, 0xdf, 0xaa,
   0x4a, 0x04, 0xe1, 0xff, 0xff, 0xf7, 0x57, 0x55, 0xf5, 0xfd, 0xff, 0xff,
   0xf0, 0xff, 0xdf, 0xff, 0xff, 0xff, 0xff, 0xff, 0xff, 0xff, 0xd1, 0xff,
   0xfd, 0xa4, 0xfc, 0xbf, 0x6e, 0xbb, 0xea, 0x25, 0xb7, 0x12, 0x40, 0xfc,
   0xf7, 0xbf, 0xbf, 0xa5, 0xd6, 0xba, 0xff, 0xff, 0xff, 0xf0, 0xff, 0xff,
   0xff, 0xff, 0xff, 0xff, 0xff, 0xff, 0xff, 0xf8, 0xff, 0xfb, 0x2d, 0xf9,
   0xfd, 0xff, 0xf6, 0xaa, 0x6d, 0xa5, 0xaa, 0x08, 0xf0, 0xff, 0x7f, 0x75,
   0x4d, 0x25, 0x75, 0xff, 0x7f, 0xff, 0xe0, 0xff, 0xff, 0xff, 0xff, 0xff,
   0xff, 0xff, 0xff, 0x7f, 0xe4, 0xff, 0x5f, 0xc5, 0xfc, 0xff, 0x6e, 0xdf,
   0xbc, 0xdb, 0x54, 0x00, 0x20, 0xfd, 0xff, 0xf6, 0xbf, 0xb5, 0xca, 0xfe,
   0xff, 0xff, 0xff, 0xe0, 0xff, 0xff, 0xff, 0xff, 0xff, 0xff, 0xff, 0xff,
   0x7f, 0xfc, 0xb7, 0x7f, 0x57, 0xf5, 0xff, 0xfd, 0x7a, 0xf3, 0xaa, 0x95,
   0x16, 0x01, 0xfe, 0xef, 0xbf, 0x7d, 0x55, 0x52, 0x6d, 0xff, 0xff, 0xff,
   0xc0, 0xff, 0xdf, 0xff, 0xff, 0xff, 0xff, 0xff, 0xff, 0x3f, 0xba, 0x6f,
   0xed, 0x85, 0xfc, 0xff, 0xb7, 0x6f, 0x5c, 0x55, 0x55, 0x40, 0xa4, 0xfe,
   0xff, 0xef, 0xaf, 0x55, 0xad, 0xbf, 0xff, 0xff, 0xff, 0xc0, 0xbf, 0xff,
   0xff, 0xff, 0xff, 0xff, 0xff, 0xff, 0x3f, 0x7d, 0xfb, 0xaf, 0xad, 0xf8,
   0x7f, 0xf7, 0xde, 0xfb, 0xd5, 0x4a, 0x05, 0x00, 0xbe, 0xfd, 0xbe, 0x5d,
   0xd5, 0x2a, 0xf5, 0xff, 0xff, 0xff, 0x80, 0x7f, 0xff, 0xff, 0xff, 0xff,
   0xff, 0xff, 0xff, 0x3f, 0xfa, 0x8d, 0xff, 0x12, 0xfd, 0xff, 0xbf, 0x7b,
   0xae, 0xaa, 0x24, 0xa1, 0xc4, 0xff, 0xde, 0xff, 0x57, 0xad, 0xaa, 0xfe,
   0xff, 0xff, 0xff, 0x80, 0xff, 0xee, 0xff, 0xff, 0xff, 0xff, 0xff, 0xff,
   0x3f, 0x7e, 0xbb, 0xde, 0xaa, 0xfe, 0xff, 0xff, 0x5f, 0xbd, 0x6a, 0x0d,
   0x04, 0x40, 0xff, 0xfb, 0xdb, 0x75, 0x6b, 0xd5, 0xfe, 0xff, 0xff, 0xff,
   0x00, 0xbf, 0x7f, 0xff, 0xff, 0xfe, 0xff, 0xff, 0xff, 0xbf, 0xf6, 0x54,
   0x6b, 0x45, 0xff, 0xff, 0x7d, 0x7b, 0xf7, 0x5d, 0x51, 0x40, 0xc9, 0xff,
   0xff, 0xfe, 0xab, 0xaa, 0xaa, 0xf7, 0xff, 0xff, 0xff, 0x00, 0xbf, 0xfe,
   0xff, 0xff, 0xff, 0xff, 0xff, 0xff, 0x3f, 0xbd, 0xd5, 0x6e, 0xaa, 0xff,
   0xff, 0xff, 0x7f, 0x9f, 0x55, 0x45, 0x09, 0xd2, 0xff, 0xd7, 0x7f, 0xdb,
   0xae, 0x55, 0xff, 0xff, 0xff, 0xff, 0x00, 0xfe, 0xfd, 0xde, 0xff, 0xfc,
   0xff, 0xff, 0xff, 0x7f, 0xfb, 0x6a, 0xdd, 0xda, 0xff, 0xff, 0xf7, 0xfb,
   0x6b, 0x7b, 0x15, 0x22, 0xf0, 0xff, 0x7e, 0xbf, 0x54, 0xa9, 0xf6, 0xff,
   0xff, 0xff, 0xff, 0x00, 0xfe, 0xdf, 0xfb, 0xff, 0xff, 0xff, 0xff, 0xff,
   0xff, 0xd6, 0xaa, 0xb3, 0xf6, 0xff, 0xff, 0xbf, 0x6f, 0xff, 0x56, 0xa5,
   0x20, 0xe4, 0xff, 0xf7, 0xdb, 0x5b, 0x57, 0xa5, 0xff, 0xff, 0xff, 0xff,
   0x00, 0x7c, 0xfd, 0xff, 0xff, 0xfe, 0xff, 0xff, 0xff, 0x7f, 0xbd, 0x45,
   0x98, 0xf5, 0xff, 0xff, 0xf7, 0xfa, 0xd7, 0x6d, 0x09, 0x82, 0xfc, 0xff,
   0xdd, 0x6f, 0xb6, 0x6a, 0xfd, 0xff, 0xff, 0xff, 0xff, 0x00, 0xfc, 0x7f,
   0xff, 0xff, 0xfd, 0xff, 0xff, 0xff, 0x7f, 0x55, 0x95, 0xb2, 0xff, 0xff,
   0xff, 0xff, 0xf7, 0x5f, 0x9b, 0x53, 0x90, 0xf8, 0xff, 0xff, 0xdf, 0xa9,
   0xaa, 0xe9, 0xff, 0xff, 0xff, 0xff, 0x00, 0xf8, 0xfd, 0xfb, 0xff, 0xff,
   0xff, 0xff, 0xff, 0xff, 0x77, 0x55, 0xda, 0xfe, 0xff, 0xff, 0xdf, 0xbf,
   0x77, 0x77, 0x8a, 0x12, 0xfc, 0xff, 0xf7, 0xaf, 0x6e, 0xad, 0xbe, 0xff,
   0xff, 0xff, 0xff, 0x00, 0xf0, 0xff, 0xff, 0xff, 0xfa, 0xff, 0xff, 0xff,
   0xff, 0xd7, 0x57, 0x75, 0xff, 0xff, 0xff, 0xff, 0xfe, 0x6d, 0xd5, 0x2a,
   0x40, 0xfd, 0xff, 0xff, 0xdf, 0x52, 0x75, 0xf5, 0xff, 0xd7, 0xff, 0xff,
   0x00, 0xf0, 0xbf, 0xf7, 0xff, 0xff, 0xff, 0xff, 0xff, 0xff, 0x5f, 0xdd,
   0xdd, 0xff, 0xff, 0xeb, 0xbc, 0xdb, 0xfe, 0x6f, 0x55, 0x15, 0xfe, 0xef,
   0xf7, 0xa9, 0xae, 0x4a, 0xfd, 0xff, 0xff, 0xff, 0xff, 0x00, 0xe0, 0xff,
   0xfe, 0xff, 0xfb, 0xff, 0xff, 0xff, 0xff, 0x5f, 0x7d, 0xd7, 0xff, 0xff,
   0x6d, 0x60, 0xfb, 0x55, 0xd5, 0xaa, 0xa4, 0xfe, 0x7f, 0xff, 0xae, 0xb4,
   0xd6, 0xfe, 0xff, 0xff, 0xff, 0xff, 0x00, 0xe0, 0xff, 0xef, 0xff, 0xff,
   0xff, 0xff, 0xff, 0xff, 0xff, 0xef, 0xfd, 0xff, 0xff, 0x33, 0x80, 0xd7,
   0xff, 0x6f, 0x2d, 0x49, 0xff, 0xd7, 0xff, 0x7b, 0xab, 0x5a, 0xff, 0xff,
   0xff, 0xff, 0xff, 0x00, 0xc0, 0xff, 0xff, 0xff, 0xfb, 0xff, 0xff, 0xff,
   0xff, 0xff, 0xff, 0xff, 0xff, 0xff, 0x07, 0x00, 0x7e, 0x6d, 0xad, 0x2b,
   0x91, 0xfe, 0xfe, 0x7e, 0x4b, 0xaa, 0xb5, 0xfe, 0xff, 0xfd, 0xff, 0xff,
   0x00, 0x80, 0xff, 0xdd, 0xff, 0xff, 0xff, 0xff, 0xff, 0xff, 0xff, 0xff,
   0xff, 0xff, 0xff, 0x00, 0xd8, 0xff, 0xf7, 0xb7, 0xd6, 0x6a, 0xff, 0xdb,
   0xdf, 0xed, 0x65, 0xab, 0xff, 0xff, 0xff, 0xff, 0xff, 0x00, 0x80, 0xff,
   0x7f, 0xff, 0xff, 0xff, 0xff, 0xff, 0xff, 0xff, 0xff, 0xff, 0xff, 0xff,
   0x40, 0xbf, 0xff, 0xbf, 0x6d, 0xad, 0x84, 0xff, 0xbb, 0x5e, 0x2b, 0xad,
   0xee, 0xff, 0xff, 0xff, 0xff, 0xff, 0x00, 0x00, 0xff, 0xdf, 0xff, 0xff,
   0xff, 0xff, 0xff, 0xff, 0xff, 0xff, 0xff, 0xff, 0x7f, 0xf0, 0xff, 0xff,
   0xe7, 0xaf, 0xb5, 0xb2, 0xff, 0xee, 0xff, 0xed, 0x54, 0xd5, 0xff, 0xff,
   0xff, 0xff, 0xff, 0x00, 0x00, 0xfe, 0xdd, 0xfe, 0xff, 0xff, 0xff, 0xff,
   0xff, 0xff, 0xff, 0xff, 0xff, 0x7f, 0xfc, 0xff, 0xff, 0xaf, 0xbd, 0x56,
   0xe5, 0xfd, 0xdf, 0xb6, 0x95, 0xb5, 0xed, 0xff, 0xff, 0xff, 0xff, 0xff,
   0x00, 0x00, 0xfe, 0xff, 0xfb, 0xff, 0xff, 0xff, 0xff, 0xff, 0xff, 0xff,
   0xff, 0xff, 0x1f, 0xfe, 0xff, 0xff, 0x7f, 0xff, 0x5a, 0xf5, 0xf7, 0xb7,
   0xef, 0x76, 0x6d, 0xf5, 0xff, 0xbf, 0xff, 0xff, 0xff, 0x00, 0x00, 0xfc,
   0x6f, 0xff, 0xff, 0xff, 0xff, 0xff, 0xff, 0xff, 0xff, 0xff, 0xff, 0x87,
   0xff, 0xff, 0xff, 0xff, 0xda, 0x6b, 0xe5, 0xff, 0xef, 0xdf, 0xad, 0x52,
   0xfd, 0xff, 0xff, 0xff, 0xff, 0xff, 0x00, 0x00, 0xf8, 0xfb, 0xfd, 0xff,
   0xff, 0xff, 0xff, 0xff, 0xff, 0xff, 0xff, 0xff, 0xe3, 0xff, 0xff, 0xff,
   0xff, 0x7d, 0xdb, 0xfa, 0xff, 0xaf, 0xfd, 0xda, 0x6e, 0xf5, 0xff, 0xff,
   0xff, 0xff, 0x7f, 0x00, 0x00, 0xf8, 0xbf, 0xf7, 0xff, 0xff, 0xff, 0xff,
   0xff, 0xff, 0xff, 0xff, 0xff, 0xff, 0x7f, 0xfb, 0xff, 0xff, 0x65, 0x57,
   0xf5, 0xff, 0xdf, 0xa7, 0xad, 0xaa, 0xfe, 0xff, 0xff, 0xff, 0xff, 0x3f,
   0x00, 0x00, 0xf0, 0xdf, 0xfa, 0xff, 0xff, 0xff, 0xff, 0xff, 0xff, 0xff,
   0xff, 0xff, 0xff, 0xff, 0xdf, 0xff, 0xff, 0xdf, 0xae, 0xfa, 0xff, 0xfd,
   0xba, 0xb7, 0x75, 0xff, 0xff, 0xff, 0xff, 0xff, 0x1f, 0x00, 0x00, 0xe0,
   0xff, 0xef, 0xff, 0xff, 0xff, 0xff, 0xff, 0xff, 0xff, 0xff, 0xff, 0xff,
   0xef, 0xff, 0xff, 0xff, 0xdf, 0xda, 0xfa, 0xff, 0xff, 0xbf, 0xac, 0x6a,
   0xff, 0xff, 0xff, 0xff, 0xff, 0x17, 0x00, 0x00, 0xe0, 0xbf, 0xfe, 0xff,
   0xff, 0xff, 0xff, 0xff, 0xff, 0xff, 0xff, 0xff, 0xff, 0xfb, 0x7d, 0xff,
   0xff, 0xbf, 0xad, 0xfb, 0xff, 0xff, 0xf6, 0x9a, 0xda, 0xff, 0xff, 0xff,
   0xff, 0xff, 0x07, 0x00, 0x00, 0xc0, 0xff, 0xd5, 0xff, 0xff, 0xff, 0xff,
   0xff, 0xff, 0xff, 0xff, 0xff, 0xff, 0xdf, 0xfb, 0xff, 0xff, 0x7f, 0x77,
   0xf5, 0xff, 0xff, 0xaf, 0xf5, 0x96, 0xff, 0xff, 0xff, 0xff, 0xff, 0x0b,
   0x00, 0x00, 0xc0, 0x7f, 0xf7, 0xff, 0xff, 0xff, 0xff, 0xff, 0xff, 0xff,
   0xff, 0xff, 0x7f, 0xff, 0xff, 0xff, 0xff, 0x7f, 0x4d, 0xf5, 0xff, 0x5d,
   0xbb, 0x56, 0xed, 0xff, 0xff, 0xff, 0xff, 0xff, 0x00, 0x00, 0x00, 0x00,
   0xfe, 0xbe, 0xff, 0xff, 0xff, 0xff, 0xff, 0xff, 0xff, 0xff, 0xff, 0xdf,
   0xfb, 0xff, 0xff, 0xff, 0xff, 0xb9, 0xff, 0xff, 0xff, 0x6f, 0x6d, 0xfb,
   0xff, 0xff, 0xff, 0xff, 0xff, 0x02, 0x00, 0x00, 0x00, 0xfc, 0xeb, 0xff,
   0xff, 0xff, 0xff, 0xff, 0xff, 0xff, 0xff, 0xff, 0xff, 0xfe, 0xff, 0xff,
   0xff, 0xff, 0x57, 0xf5, 0xbf, 0xbf, 0xdd, 0x55, 0xf7, 0xff, 0xff, 0xff,
   0xff, 0x3f, 0x00, 0x00, 0x00, 0x00, 0xf4, 0x5f, 0xff, 0xff, 0xff, 0xff,
   0xff, 0xff, 0xff, 0xff, 0xff, 0xcf, 0xff, 0xff, 0xff, 0xff, 0xff, 0xd7,
   0xfe, 0xff, 0xfd, 0x5b, 0x5b, 0xfd, 0xff, 0xff, 0xff, 0xff, 0x7f, 0x01,
   0x00, 0x00, 0x00, 0x78, 0xdb, 0xfe, 0xff, 0xff, 0xff, 0xff, 0xff, 0xff,
   0xff, 0xff, 0xfb, 0xff, 0xff, 0xff, 0xff, 0xff, 0xef, 0xfb, 0xff, 0xaf,
   0xb7, 0xed, 0xfe, 0xff, 0xff, 0xff, 0xff, 0x1f, 0x00, 0x00, 0x00, 0x00,
   0xf0, 0xdb, 0xfe, 0xff, 0xfe, 0xff, 0xff, 0xff, 0xff, 0xff, 0xff, 0xff,
   0xff, 0xff, 0xff, 0xff, 0xff, 0xbf, 0xfe, 0x7f, 0x7f, 0x6f, 0xdb, 0xfc,
   0xff, 0xff, 0xff, 0xff, 0x4f, 0x00, 0x00, 0x00, 0x00, 0xe0, 0xff, 0xfb,
   0xff, 0xff, 0xff, 0xff, 0xff, 0xff, 0xff, 0xff, 0xff, 0xff, 0xff, 0xff,
   0xff, 0xff, 0xdf, 0xfd, 0xdf, 0xfd, 0xbf, 0xaf, 0xfe, 0xff, 0xff, 0xff,
   0xff, 0x27, 0x00, 0x00, 0x00, 0x00, 0xc0, 0x5f, 0xff, 0xff, 0xfb, 0xff,
   0xff, 0xff, 0xff, 0xfd, 0xff, 0xff, 0xff, 0xff, 0xff, 0xff, 0xff, 0xff,
   0xff, 0xff, 0xef, 0xb5, 0xfa, 0xff, 0xff, 0xff, 0xff, 0xff, 0x07, 0x00,
   0x00, 0x00, 0x00, 0x80, 0xfe, 0xff, 0xff, 0xf7, 0xff, 0xff, 0xff, 0xff,
   0xff, 0xff, 0xff, 0xff, 0xff, 0xff, 0xff, 0xff, 0xff, 0xfd, 0xff, 0x7f,
   0xdf, 0xaf, 0xff, 0xff, 0xff, 0xff, 0xff, 0x09, 0x00, 0x00, 0x00, 0x00,
   0x00, 0xf5, 0xfd, 0xff, 0xef, 0xff, 0xfe, 0xff, 0x7f, 0xff, 0xff, 0xff,
   0xff, 0xff, 0xff, 0xff, 0xff, 0xff, 0xff, 0xff, 0xfb, 0x5d, 0xfb, 0xff,
   0xff, 0xff, 0xff, 0xff, 0x09, 0x00, 0x00, 0x00, 0x00, 0x00, 0xfd, 0xff,
   0xff, 0xff, 0xff, 0xff, 0xbf, 0xfe, 0xff, 0xff, 0xff, 0xff, 0xff, 0xff,
   0xff, 0xff, 0xff, 0xff, 0xff, 0xef, 0xff, 0xad, 0xff, 0xff, 0xff, 0xff,
   0xff, 0x02, 0x00, 0x00, 0x00, 0x00, 0x00, 0xf8, 0xff, 0xff, 0xff, 0xef,
   0xff, 0xbf, 0xfd, 0xff, 0xff, 0xff, 0xff, 0xff, 0xff, 0xff, 0xff, 0xff,
   0xff, 0xff, 0x6d, 0xab, 0xff, 0xff, 0xff, 0xff, 0xff, 0x7f, 0x02, 0x00,
   0x00, 0x00, 0x00, 0x00, 0xfc, 0xff, 0xff, 0xff, 0xfb, 0xff, 0xff, 0xfe,
   0xff, 0xff, 0xff, 0xff, 0xff, 0xff, 0xff, 0xff, 0xff, 0xff, 0xff, 0xff,
   0x7f, 0xfd, 0xff, 0xff, 0xff, 0xff, 0x7f, 0x00, 0x00, 0x00, 0x00, 0x00,
   0x00, 0xf0, 0xff, 0xff, 0xdf, 0xff, 0xff, 0xff, 0xff, 0xff, 0xff, 0xff,
   0xff, 0xff, 0xff, 0xff, 0xff, 0xff, 0xff, 0xff, 0xd7, 0xed, 0xf5, 0xff,
   0xff, 0xff, 0xff, 0x5f, 0x01, 0x00, 0x00, 0x00, 0x00, 0x00, 0xf8, 0xff,
   0xff, 0xff, 0xff, 0xff, 0xff, 0xff, 0xff, 0xff, 0xff, 0xff, 0xff, 0xff,
   0xff, 0xff, 0xff, 0xff, 0xff, 0x7b, 0xdf, 0xff, 0xff, 0xff, 0xff, 0xff,
   0x9f, 0x00, 0x00, 0x00, 0x00, 0x00, 0x00, 0xf8, 0xff, 0xff, 0xff, 0xff,
   0xff, 0xff, 0xff, 0xff, 0xff, 0xff, 0xff, 0xff, 0xff, 0xff, 0xff, 0xff,
   0xff, 0xff, 0xff, 0xbb, 0xfe, 0xff, 0xff, 0xff, 0xff, 0x1f, 0x00, 0x00,
   0x00, 0x00, 0x00, 0x00, 0xd8, 0xff, 0xff, 0xff, 0xff, 0xff, 0xff, 0xff,
   0xff, 0xff, 0xff, 0xff, 0xff, 0xff, 0xff, 0xff, 0xff, 0xff, 0xff, 0x76,
   0xf7, 0xff, 0xff, 0xff, 0xff, 0xff, 0xaf, 0x00, 0x00, 0x00, 0x00, 0x00,
   0x00, 0xf8, 0xff, 0xff, 0xff, 0xff, 0xff, 0xff, 0xff, 0xff, 0xff, 0xff,
   0xff, 0xff, 0xff, 0xff, 0xff, 0xff, 0xff, 0xff, 0xef, 0x6f, 0xff, 0xff,
   0xff, 0xff, 0xff, 0x07, 0x00, 0x00, 0x00, 0x00, 0x00, 0x00, 0xd8, 0xff,
   0xff, 0xff, 0xff, 0xff, 0xff, 0xff, 0xff, 0xff, 0xff, 0xff, 0xff, 0xff,
   0xff, 0xff, 0xff, 0xff, 0xff, 0x7d, 0xfb, 0xff, 0xff, 0xff, 0xff, 0xff,
   0x17, 0x00, 0x00, 0x00, 0x00, 0x00, 0x00, 0xf0, 0xff, 0xff, 0xff, 0xff,
   0xff, 0xff, 0xff, 0xff, 0xff, 0xff, 0xff, 0xff, 0xff, 0xff, 0xff, 0xff,
   0xff, 0xff, 0xef, 0xef, 0xff, 0xff, 0xff, 0xff, 0xff, 0x07, 0x00, 0x00,
   0x00, 0x00, 0x00, 0x00, 0xa0, 0xff, 0xff, 0xff, 0xff, 0xff, 0xff, 0xff,
   0xff, 0xff, 0xff, 0xff, 0xff, 0xff, 0xff, 0xff, 0xff, 0xff, 0xff, 0xbb,
   0xfe, 0xff, 0xff, 0xff, 0xff, 0xff, 0x09, 0x00, 0x00, 0x00, 0x00, 0x00,
   0x00, 0xe0, 0xff, 0xff, 0xdf, 0xff, 0xff, 0xff, 0xff, 0xff, 0xff, 0xff,
   0xff, 0xff, 0xff, 0xff, 0xff, 0xff, 0xff, 0x7f, 0xff, 0xf5, 0xff, 0xff,
   0xff, 0xff, 0xff, 0x01, 0x00, 0x00, 0x00, 0x00, 0x00, 0x00, 0x80, 0xff,
   0xff, 0xff, 0xff, 0xff, 0xff, 0xff, 0xff, 0xff, 0xff, 0xff, 0xff, 0xff,
   0xff, 0xff, 0xff, 0xff, 0xff, 0xed, 0xff, 0xff, 0xff, 0xff, 0xff, 0xff,
   0x05, 0x00, 0x00, 0x00, 0x00, 0x00, 0x00, 0x80, 0xff, 0xff, 0xff, 0xff,
   0xff, 0xff, 0xff, 0xff, 0xff, 0xff, 0xff, 0xff, 0xff, 0xff, 0xff, 0xff,
   0xff, 0xdf, 0x5f, 0xff, 0xff, 0xff, 0xff, 0xff, 0xff, 0x00, 0x00, 0x00,
   0x00, 0x00, 0x00, 0x00, 0x80, 0xfe, 0xff, 0xfd, 0xff, 0xff, 0xff, 0xff,
   0xff, 0xff, 0xff, 0xff, 0xff, 0xff, 0xff, 0xff, 0xff, 0xff, 0xff, 0xfe,
   0xf5, 0xff, 0xff, 0xff, 0xff, 0x7f, 0x01, 0x00, 0x00, 0x00, 0x00, 0x00,
   0x00, 0x00, 0xef, 0xff, 0xaf, 0xff, 0xff, 0xff, 0xff, 0xff, 0xff, 0xff,
   0xff, 0xff, 0xff, 0xff, 0xff, 0xff, 0xff, 0xff, 0xf7, 0xff, 0xff, 0xff,
   0xff, 0xff, 0x7f, 0x00, 0x00, 0x00, 0x00, 0x00, 0x00, 0x00, 0x80, 0xfd,
   0xff, 0xff, 0xfe, 0xff, 0xff, 0xff, 0xff, 0xff, 0xff, 0xff, 0xff, 0xff,
   0xff, 0xff, 0xff, 0xff, 0xff, 0xde, 0xfe, 0xff, 0xff, 0xff, 0xff, 0xbf,
   0x00, 0x00, 0x00, 0x00, 0x00, 0x00, 0x00, 0x00, 0xef, 0xff, 0xff, 0xff,
   0xff, 0xff, 0xff, 0xff, 0xff, 0xff, 0xff, 0xff, 0xff, 0xff, 0xff, 0xff,
   0x7f, 0xff, 0xff, 0xff, 0xff, 0xff, 0xff, 0xff, 0x3f, 0x00, 0x00, 0x00,
   0x00, 0x00, 0x00, 0x00, 0x80, 0xfe, 0xfd, 0xff, 0xff, 0xff, 0xff, 0xff,
   0xff, 0xff, 0xff, 0xff, 0xff, 0xff, 0xff, 0xff, 0xff, 0xff, 0x7f, 0xdb,
   0xfd, 0xff, 0xff, 0xff, 0xff, 0x1f, 0x00, 0x00, 0x00, 0x00, 0x00, 0x00,
   0x00, 0x00, 0xff, 0xff, 0xff, 0xff, 0xff, 0xff, 0xff, 0xff, 0xff, 0xff,
   0xff, 0xff, 0xff, 0xff, 0xff, 0xff, 0xff, 0xef, 0xbf, 0xff, 0xff, 0xff,
   0xff, 0xff, 0x2f, 0x00, 0x00, 0x00, 0x00, 0x00, 0x00, 0x00, 0x00, 0xee,
   0xff, 0xff, 0xff, 0xff, 0xff, 0xff, 0xff, 0xff, 0xff, 0xff, 0xff, 0xff,
   0xff, 0xff, 0xff, 0xff, 0xff, 0xf6, 0xfd, 0xff, 0xff, 0xff, 0xff, 0x0f,
   0x00, 0x00, 0x00, 0x00, 0x00, 0x00, 0x00, 0x00, 0xfd, 0xfd, 0xff, 0xff,
   0xff, 0xff, 0xff, 0xff, 0xff, 0xff, 0xff, 0xff, 0xff, 0xff, 0xff, 0xff,
   0xff, 0xbf, 0xbf, 0xff, 0xff, 0xff, 0xff, 0xff, 0x0f, 0x00, 0x00, 0x00,
   0x00, 0x00, 0x00, 0x00, 0x00, 0xde, 0xf7, 0xff, 0xff, 0xff, 0xff, 0xff,
   0xff, 0xff, 0xff, 0xff, 0xff, 0xff, 0xff, 0xff, 0xff, 0xff, 0xff, 0xff,
   0xfd, 0xff, 0xff, 0xff, 0xff, 0x17, 0x00, 0x00, 0x00, 0x00, 0x00, 0x00,
   0x00, 0x00, 0xfe, 0xff, 0xff, 0xff, 0xff, 0xff, 0xff, 0xff, 0xff, 0xff,
   0xff, 0xff, 0xff, 0xff, 0xff, 0xff, 0xff, 0xbf, 0xf6, 0xff, 0xff, 0xff,
   0xff, 0xff, 0x03, 0x00, 0x00, 0x00, 0x00, 0x00, 0x00, 0x00, 0x00, 0xfe,
   0xef, 0xff, 0xff, 0xff, 0xff, 0xff, 0xff, 0xff, 0xff, 0xff, 0xff, 0xff,
   0xff, 0xff, 0xff, 0xff, 0xff, 0xbf, 0xbf, 0xff, 0xff, 0xff, 0xff, 0x03,
   0x00, 0x00, 0x00, 0x00, 0x00, 0x00, 0x00, 0x00, 0xfc, 0xff, 0xff, 0xff,
   0xff, 0xff, 0xff, 0xff, 0xff, 0xff, 0xff, 0xff, 0xff, 0xff, 0xff, 0xff,
   0xff, 0xff, 0xf6, 0xff, 0xff, 0xff, 0xff, 0xff, 0x03, 0x00, 0x00, 0x00,
   0x00, 0x00, 0x00, 0x00, 0x00, 0xfc, 0x6f, 0xff, 0xff, 0xba, 0xf7, 0xff,
   0xff, 0xff, 0xff, 0xaf, 0xff, 0xff, 0xff, 0xff, 0xff, 0xff, 0xff, 0xdf,
   0xfe, 0xff, 0xff, 0xff, 0xff, 0x01, 0x00, 0x00, 0x00, 0x00, 0x00, 0x00,
   0x00, 0x00, 0xfc, 0xfb, 0xff, 0xff, 0xbf, 0x5e, 0xfb, 0xff, 0xff, 0xff,
   0xfa, 0xff, 0xff, 0xff, 0xff, 0xff, 0xff, 0xff, 0xfb, 0xff, 0xff, 0xff,
   0xff, 0xff, 0x01, 0x00, 0x00, 0x00, 0x00, 0x00, 0x00, 0x00, 0x00, 0xf8,
   0xef, 0xfe, 0xff, 0xef, 0xf7, 0xff, 0xff, 0xff, 0xff, 0xff, 0xff, 0xff,
   0xff, 0xff, 0xff, 0xff, 0xff, 0xdf, 0xff, 0xff, 0xff, 0xff, 0xff, 0x00,
   0x00, 0x00, 0x00, 0x00, 0x00, 0x00, 0x00, 0x00, 0xf0, 0xdf, 0xf7, 0xff,
   0xff, 0xfe, 0xff, 0xff, 0xff, 0xd7, 0xff, 0xff, 0xff, 0xff, 0xff, 0xff,
   0xff, 0xff, 0x7f, 0xff, 0xff, 0xff, 0xff, 0x7f, 0x00, 0x00, 0x00, 0x00,
   0x00, 0x00, 0x00, 0x00, 0x00, 0xe0, 0xf7, 0xdf, 0xff, 0xff, 0xff, 0xff,
   0xff, 0xff, 0xff, 0xff, 0xff, 0xff, 0xff, 0xff, 0xff, 0xff, 0xff, 0xff,
   0xff, 0xff, 0xff, 0xff, 0x7f, 0x00, 0x00, 0x00, 0x00, 0x00, 0x00, 0x00,
   0x00, 0x00, 0xc0, 0xbf, 0xfd, 0xff, 0xff, 0xff, 0xff, 0xff, 0xbf, 0xfd,
   0xff, 0xff, 0xff, 0xff, 0xff, 0xff, 0xff, 0xff, 0xdf, 0xfe, 0xff, 0xff,
   0xff, 0x7f, 0x00, 0x00, 0x00, 0x00, 0x00, 0x00, 0x00, 0x00, 0x00, 0x80,
   0xff, 0xb7, 0xff, 0xff, 0xff, 0xff, 0xff, 0xef, 0xff, 0xff, 0xff, 0xff,
   0xfe, 0xff, 0xff, 0xff, 0xff, 0xff, 0xff, 0xff, 0xff, 0xff, 0x3f, 0x00,
   0x00, 0x00, 0x00, 0x00, 0x00, 0x00, 0x00, 0x00, 0x80, 0xff, 0xbe, 0xf5,
   0xff, 0xff, 0xff, 0xff, 0xed, 0xff, 0xff, 0xff, 0xff, 0xfd, 0xff, 0xff,
   0xff, 0xff, 0xbf, 0xff, 0xff, 0xff, 0xff, 0x1f, 0x00, 0x00, 0x00, 0x00,
   0x00, 0x00, 0x00, 0x00, 0x00, 0x00, 0xfe, 0xf5, 0xff, 0xff, 0xff, 0xff,
   0x7f, 0xfb, 0xff, 0xff, 0xff, 0xff, 0xf7, 0xff, 0xff, 0xff, 0xff, 0xff,
   0xff, 0xff, 0xff, 0xff, 0x1f, 0x00, 0x00, 0x00, 0x00, 0x00, 0x00, 0x00,
   0x00, 0x00, 0x00, 0xfe, 0xef, 0xaa, 0xff, 0xff, 0xff, 0xef, 0xff, 0xff,
   0xff, 0xff, 0xff, 0xef, 0xfe, 0xff, 0xff, 0xff, 0xff, 0xff, 0xff, 0xff,
   0xff, 0x0f, 0x00, 0x00, 0x00, 0x00, 0x00, 0x00, 0x00, 0x00, 0x00, 0x00,
   0xf8, 0x5f, 0xbf, 0xfe, 0xff, 0xff, 0xbf, 0xff, 0xff, 0xff, 0xff, 0x45,
   0xff, 0xff, 0xff, 0xff, 0xff, 0xff, 0xff, 0xff, 0xff, 0xff, 0x0f, 0x00,
   0x00, 0x00, 0x00, 0x00, 0x00, 0x00, 0x00, 0x00, 0x00, 0xf0, 0xff, 0xea,
   0xfd, 0xff, 0xff, 0xff, 0xff, 0xff, 0xff, 0x1f, 0x00, 0xfc, 0xeb, 0xff,
   0xff, 0xff, 0xff, 0xff, 0xff, 0xff, 0xff, 0x07, 0x00, 0x00, 0x00, 0x00,
   0x00, 0x00, 0x00, 0x00, 0x00, 0x00, 0xc0, 0xbf, 0xff, 0xb7, 0xff, 0xff,
   0xff, 0xff, 0xff, 0x7f, 0x00, 0x00, 0xf0, 0x5f, 0xff, 0xbf, 0xfe, 0xff,
   0xff, 0xff, 0xff, 0xff, 0x07, 0x00, 0x00, 0x00, 0x00, 0x00, 0x00, 0x00,
   0x00, 0x00, 0x00, 0x80, 0xff, 0xaa, 0xff, 0xfe, 0xff, 0xff, 0xff, 0xff,
   0x00, 0x00, 0x00, 0xc0, 0xff, 0xff, 0xff, 0xff, 0xff, 0xff, 0xff, 0xff,
   0xff, 0x03, 0x00, 0x00, 0x00, 0x00, 0x00, 0x00, 0x00, 0x00, 0x00, 0x00,
   0x00, 0xfe, 0xeb, 0xfe, 0xff, 0xef, 0xff, 0xff, 0x07, 0x00, 0x00, 0x00,
   0x00, 0xff, 0xed, 0xfe, 0xfa, 0xff, 0xff, 0xff, 0xff, 0xff, 0x01, 0x00,
   0x00, 0x00, 0x00, 0x00, 0x00, 0x00, 0x00, 0x00, 0x00, 0x00, 0xf8, 0xff,
   0xcb, 0xed, 0xfe, 0xff, 0x7f, 0x00, 0x00, 0x00, 0x00, 0x00, 0xfe, 0xdf,
   0xdb, 0xfb, 0xff, 0xff, 0xff, 0xff, 0xff, 0x01, 0x00, 0x00, 0x00, 0x00 };
