#define pnj8_width 264
#define pnj8_height 176
static unsigned char pnj8_bits[] = {
   0x00, 0x00, 0x00, 0x00, 0x00, 0x00, 0x00, 0x00, 0x00, 0x00, 0x00, 0x00,
   0x00, 0x00, 0x00, 0x00, 0x00, 0x00, 0x00, 0x00, 0x00, 0x00, 0x00, 0x00,
   0x00, 0x00, 0x00, 0x00, 0x00, 0x00, 0x00, 0x00, 0x00, 0x00, 0x00, 0x00,
   0x00, 0x00, 0x00, 0x00, 0x00, 0x00, 0x00, 0x00, 0x00, 0xc0, 0x01, 0x00,
   0x00, 0x00, 0x00, 0x00, 0x00, 0x00, 0x00, 0x00, 0x00, 0x00, 0x00, 0x00,
   0x00, 0x00, 0x00, 0x00, 0x00, 0x00, 0x00, 0x00, 0x00, 0x00, 0x00, 0x00,
   0x00, 0x00, 0x00, 0x00, 0x00, 0x00, 0x20, 0x00, 0x00, 0x00, 0x00, 0x00,
   0x00, 0x00, 0x00, 0x00, 0x00, 0x00, 0x00, 0x00, 0x00, 0x00, 0x00, 0x00,
   0x00, 0x00, 0x00, 0x00, 0x00, 0x00, 0x00, 0x00, 0x00, 0x00, 0x00, 0x00,
   0x00, 0x00, 0x00, 0x10, 0x00, 0x00, 0x00, 0x00, 0x00, 0x00, 0x00, 0x00,
   0x00, 0x00, 0x00, 0x00, 0x00, 0x00, 0x00, 0x00, 0x00, 0x00, 0x00, 0x00,
   0x00, 0x00, 0x00, 0x00, 0x00, 0x00, 0x00, 0x00, 0x00, 0x00, 0xe0, 0x01,
   0x00, 0x00, 0x00, 0x00, 0x00, 0x00, 0x00, 0x00, 0x00, 0x00, 0x00, 0x00,
   0x00, 0x00, 0x00, 0x00, 0x00, 0x00, 0x00, 0x00, 0x00, 0x00, 0x00, 0x00,
   0x00, 0x00, 0x00, 0x00, 0x00, 0x00, 0x00, 0x08, 0x0c, 0x08, 0x04, 0x00,
   0x00, 0x00, 0x00, 0x00, 0x00, 0x00, 0x00, 0x00, 0x00, 0x00, 0x00, 0x00,
   0x00, 0x00, 0x00, 0x00, 0x00, 0x00, 0x00, 0x00, 0x00, 0x00, 0x00, 0x00,
   0x00, 0x00, 0x00, 0x00, 0x04, 0x7c, 0x8c, 0x0f, 0x00, 0x00, 0x00, 0x00,
   0x00, 0x00, 0x00, 0x00, 0x00, 0x00, 0x00, 0x00, 0x00, 0x00, 0x00, 0x00,
   0x00, 0x00, 0x00, 0x00, 0x00, 0x00, 0x00, 0x00, 0x00, 0x00, 0x00, 0x00,
   0x00, 0x06, 0xee, 0xcf, 0x11, 0x00, 0x00, 0x00, 0x00, 0x00, 0x00, 0x00,
   0x00, 0x00, 0x00, 0x00, 0x00, 0x00, 0x00, 0x00, 0x00, 0x00, 0x00, 0x00,
   0x00, 0x00, 0x00, 0x00, 0x00, 0x00, 0x00, 0x1c, 0xf0, 0x8e, 0x03, 0xc3,
   0x1f, 0x00, 0x00, 0x00, 0x00, 0x00, 0x00, 0x00, 0x00, 0x00, 0x00, 0x00,
   0x00, 0x00, 0x00, 0x00, 0x00, 0x00, 0x00, 0x00, 0x00, 0x00, 0x00, 0x00,
   0x00, 0x00, 0x00, 0x00, 0x40, 0x9c, 0xff, 0x80, 0x43, 0x1d, 0x42, 0x20,
   0x00, 0x00, 0x00, 0x00, 0x00, 0x00, 0x00, 0x00, 0x00, 0x00, 0x00, 0x00,
   0x00, 0x00, 0x00, 0x00, 0x00, 0x00, 0x00, 0x00, 0x00, 0x00, 0x00, 0x00,
   0x00, 0x80, 0x87, 0xdf, 0xf9, 0x03, 0x1f, 0x84, 0x03, 0x00, 0x00, 0x00,
   0x00, 0x00, 0x00, 0x00, 0x00, 0x00, 0x00, 0x00, 0x00, 0x00, 0x00, 0x00,
   0x00, 0x00, 0x00, 0x00, 0x00, 0x00, 0x00, 0x00, 0x00, 0x40, 0x80, 0x63,
   0xbc, 0x7f, 0x7f, 0x5e, 0x80, 0x00, 0x00, 0x00, 0x00, 0x00, 0x00, 0x00,
   0x00, 0x00, 0x00, 0x00, 0x00, 0x00, 0x00, 0x00, 0x00, 0x00, 0x00, 0x00,
   0x00, 0x00, 0x00, 0x00, 0x00, 0x00, 0x40, 0x80, 0x13, 0xa6, 0xff, 0xef,
   0x2f, 0x11, 0x0e, 0x00, 0x00, 0x00, 0x00, 0x00, 0x00, 0x00, 0x00, 0x00,
   0x00, 0x00, 0x00, 0x00, 0x00, 0x00, 0x00, 0x00, 0x00, 0x00, 0x00, 0x00,
   0x00, 0x00, 0x00, 0x60, 0xf0, 0x7d, 0xcf, 0xf9, 0xfd, 0x4f, 0x13, 0x1e,
   0x0e, 0x00, 0x00, 0x00, 0x00, 0x00, 0x00, 0x00, 0x00, 0x00, 0x00, 0x00,
   0x00, 0x00, 0x00, 0x00, 0x00, 0x00, 0x00, 0x00, 0x00, 0x00, 0x00, 0x00,
   0xf0, 0x7f, 0xff, 0xff, 0xf8, 0xff, 0x6b, 0x0f, 0xff, 0x23, 0x3e, 0x00,
   0x00, 0x00, 0x00, 0x00, 0x00, 0x00, 0x00, 0x00, 0x00, 0x00, 0x00, 0x00,
   0x00, 0x00, 0x00, 0x00, 0x00, 0x00, 0x00, 0x00, 0x00, 0xff, 0xfe, 0xf7,
   0xfe, 0xff, 0xbf, 0xff, 0xff, 0xff, 0x01, 0x06, 0x00, 0x00, 0x00, 0x00,
   0x00, 0x00, 0x00, 0x00, 0x00, 0x00, 0x00, 0x00, 0x00, 0x00, 0x00, 0x00,
   0x00, 0x00, 0x00, 0x00, 0x00, 0x00, 0xff, 0xff, 0xff, 0xff, 0xff, 0xff,
   0xfd, 0xf7, 0xff, 0x81, 0x03, 0x00, 0x00, 0x00, 0x00, 0x00, 0x00, 0x00,
   0x00, 0x00, 0x00, 0x00, 0x00, 0x00, 0x00, 0x00, 0x00, 0x00, 0x00, 0x00,
   0x00, 0x00, 0x80, 0xef, 0xfe, 0xff, 0xff, 0xff, 0xff, 0xbf, 0xff, 0x9f,
   0x83, 0x43, 0x00, 0x00, 0x00, 0x00, 0x00, 0x00, 0x00, 0x00, 0x00, 0x00,
   0x00, 0x00, 0x00, 0x00, 0x00, 0x00, 0x00, 0x00, 0x00, 0x00, 0x00, 0xe0,
   0xff, 0xfe, 0xff, 0xff, 0xff, 0xff, 0xff, 0xff, 0xfb, 0x83, 0x83, 0x00,
   0x00, 0x00, 0x00, 0x00, 0x00, 0x00, 0x00, 0x00, 0x00, 0x00, 0x00, 0x00,
   0x00, 0x00, 0x00, 0x00, 0x00, 0x00, 0x00, 0x00, 0x16, 0xdb, 0xff, 0xff,
   0xef, 0xfe, 0xff, 0xff, 0xff, 0xff, 0xff, 0x59, 0x00, 0x00, 0x00, 0x00,
   0x00, 0x00, 0x00, 0x00, 0x00, 0x00, 0x00, 0x00, 0x00, 0x00, 0x00, 0x00,
   0x00, 0x00, 0x00, 0x00, 0x00, 0x13, 0xff, 0xff, 0xff, 0xff, 0xff, 0xff,
   0xff, 0x7f, 0xf7, 0x3f, 0x40, 0x18, 0x00, 0x00, 0x00, 0x00, 0x00, 0x00,
   0x00, 0x00, 0x00, 0x00, 0x00, 0x00, 0x00, 0x00, 0x00, 0x00, 0x00, 0x00,
   0x00, 0x00, 0xf7, 0xff, 0xff, 0xdf, 0xff, 0x7d, 0xff, 0xff, 0xfb, 0x7f,
   0x7f, 0x00, 0x08, 0x00, 0x00, 0x00, 0x00, 0x00, 0x00, 0x00, 0x00, 0x00,
   0x00, 0x00, 0x00, 0x00, 0x00, 0x00, 0x00, 0x00, 0x00, 0x00, 0x80, 0xf7,
   0xf6, 0xff, 0x6f, 0xfd, 0xff, 0xff, 0xff, 0xff, 0xee, 0xfd, 0x07, 0x0c,
   0x00, 0x00, 0x00, 0x00, 0x00, 0x00, 0x00, 0x00, 0x00, 0x00, 0x00, 0x00,
   0x00, 0x00, 0x00, 0x00, 0x00, 0x00, 0x00, 0x00, 0xdc, 0xff, 0xff, 0xff,
   0xff, 0xfb, 0xff, 0xff, 0xff, 0xff, 0xff, 0x0b, 0x1a, 0x00, 0x00, 0x00,
   0x00, 0x00, 0x50, 0x55, 0x01, 0x00, 0x00, 0x00, 0x00, 0x00, 0x00, 0x00,
   0x00, 0x00, 0x00, 0x00, 0x20, 0xfe, 0xf7, 0xff, 0xff, 0xff, 0xff, 0xff,
   0xff, 0x7f, 0xff, 0xfb, 0x0f, 0x33, 0x00, 0x00, 0x00, 0x00, 0x00, 0xa8,
   0xb6, 0x97, 0x14, 0x00, 0x00, 0x00, 0x00, 0x00, 0x00, 0x00, 0x00, 0x00,
   0x00, 0x7c, 0x7f, 0x7f, 0xff, 0xff, 0xfd, 0xff, 0xff, 0xff, 0xff, 0xb7,
   0xef, 0xff, 0x3f, 0x00, 0x00, 0x00, 0x00, 0x00, 0xaa, 0x6d, 0x6a, 0xa9,
   0x00, 0x00, 0x00, 0x00, 0x00, 0x00, 0x00, 0x00, 0x00, 0x80, 0xff, 0xff,
   0xfb, 0xff, 0xff, 0xff, 0xff, 0xff, 0xdf, 0xff, 0xff, 0xff, 0xff, 0x7f,
   0x10, 0x00, 0x00, 0x00, 0x00, 0x5a, 0xd5, 0x56, 0x25, 0x05, 0x01, 0x00,
   0x00, 0x00, 0x00, 0x00, 0x00, 0x00, 0x80, 0x7f, 0x6f, 0xff, 0xff, 0xff,
   0xff, 0xff, 0xff, 0xff, 0xff, 0xef, 0xdf, 0xff, 0xff, 0x11, 0x00, 0x00,
   0x00, 0x00, 0xa5, 0xaa, 0xaa, 0x4a, 0x29, 0x00, 0x00, 0x00, 0x00, 0x00,
   0x00, 0x00, 0x00, 0xc0, 0xff, 0xdf, 0xbf, 0xff, 0xff, 0xff, 0xff, 0xff,
   0xff, 0xff, 0xff, 0xfe, 0xff, 0xf3, 0x1f, 0x00, 0x00, 0x00, 0x00, 0x5b,
   0x55, 0xb5, 0x2a, 0x01, 0x12, 0x92, 0x04, 0x00, 0x00, 0x00, 0x00, 0x00,
   0xc0, 0xb6, 0xf6, 0x7f, 0xbf, 0xff, 0xff, 0xff, 0xff, 0xbf, 0x7f, 0xfb,
   0xff, 0xff, 0xe3, 0x1f, 0x00, 0x00, 0x00, 0x40, 0x55, 0x55, 0xa5, 0x24,
   0x49, 0x42, 0x12, 0x08, 0x00, 0x00, 0x00, 0x00, 0x00, 0xe0, 0xef, 0xdb,
   0xff, 0xf7, 0xff, 0xff, 0xff, 0xff, 0xff, 0xf6, 0xff, 0xff, 0xff, 0xe7,
   0x79, 0x03, 0x00, 0x00, 0x80, 0xd5, 0xaa, 0x5a, 0x95, 0x24, 0x08, 0x40,
   0x00, 0x00, 0x00, 0x00, 0x00, 0x00, 0xe0, 0x5f, 0xff, 0xfe, 0xfe, 0xff,
   0xff, 0xff, 0xff, 0xdf, 0xee, 0xfb, 0xff, 0xff, 0xff, 0x00, 0x00, 0x00,
   0x00, 0x40, 0xad, 0xb6, 0xaa, 0xaa, 0x44, 0x41, 0x04, 0x11, 0x00, 0x00,
   0x00, 0x00, 0x00, 0xfc, 0xf7, 0xf7, 0xff, 0xfd, 0xff, 0xff, 0xff, 0xff,
   0xff, 0xfd, 0xff, 0xff, 0xff, 0xff, 0x20, 0x00, 0x00, 0x00, 0xe0, 0x5a,
   0x55, 0x55, 0x29, 0x09, 0x24, 0x00, 0x00, 0x00, 0x00, 0x00, 0x00, 0x00,
   0xf8, 0xfe, 0xfd, 0xff, 0xff, 0xff, 0xff, 0xff, 0xff, 0xbf, 0xfb, 0xff,
   0xff, 0xff, 0xff, 0x70, 0x08, 0x00, 0x00, 0x50, 0x57, 0x55, 0x55, 0x55,
   0x49, 0x00, 0x10, 0x00, 0x00, 0x00, 0x00, 0x00, 0x00, 0xfc, 0x5f, 0xf7,
   0xfd, 0xf5, 0xff, 0xff, 0xff, 0xff, 0xff, 0xef, 0xff, 0xff, 0xff, 0xfd,
   0xff, 0x07, 0x00, 0x00, 0xa0, 0x54, 0x55, 0x55, 0x13, 0x00, 0x00, 0x00,
   0x05, 0x00, 0x00, 0x00, 0x00, 0x00, 0xfa, 0xff, 0xee, 0xdf, 0xff, 0xff,
   0xff, 0xff, 0xff, 0x7f, 0xfd, 0xff, 0xff, 0xef, 0xff, 0xff, 0x0f, 0x00,
   0x00, 0xa8, 0xd5, 0x2a, 0x55, 0x6a, 0x95, 0x04, 0x00, 0x20, 0x00, 0x00,
   0x00, 0x00, 0x00, 0xfe, 0xed, 0x76, 0xfe, 0xf5, 0xff, 0xff, 0xff, 0xff,
   0xff, 0xdf, 0xff, 0xff, 0xff, 0xff, 0xff, 0x05, 0x00, 0x00, 0xa8, 0xaa,
   0xaa, 0xaa, 0x12, 0x01, 0x20, 0x20, 0x94, 0x00, 0x00, 0x00, 0x00, 0x00,
   0xbe, 0xdf, 0xf7, 0xbd, 0xff, 0xff, 0xff, 0xff, 0xff, 0xff, 0xfb, 0xff,
   0xff, 0xff, 0xff, 0x1f, 0x06, 0x00, 0x00, 0x6c, 0xbb, 0x55, 0x55, 0x55,
   0x0a, 0x00, 0x80, 0x04, 0x00, 0x00, 0x00, 0x00, 0x00, 0xff, 0x7d, 0xff,
   0xff, 0xef, 0xff, 0xff, 0xff, 0xff, 0xff, 0xdf, 0xff, 0xff, 0xff, 0xff,
   0x0f, 0x06, 0x00, 0x00, 0xaa, 0x56, 0x55, 0x49, 0x49, 0x20, 0x00, 0x4a,
   0x28, 0x01, 0x00, 0x00, 0x00, 0x00, 0xff, 0xeb, 0xf6, 0xfb, 0xff, 0xff,
   0xff, 0xff, 0xff, 0xff, 0xff, 0xff, 0xff, 0xff, 0xff, 0x07, 0x04, 0x00,
   0x00, 0xaa, 0x54, 0x95, 0x2a, 0x95, 0x02, 0x51, 0x00, 0x01, 0x00, 0x00,
   0x00, 0x00, 0x00, 0xdf, 0xbf, 0xff, 0xff, 0x6f, 0xff, 0xff, 0xff, 0xff,
   0xfb, 0xff, 0xff, 0xff, 0xff, 0xff, 0x07, 0x04, 0x00, 0x00, 0xab, 0xa5,
   0x54, 0x4a, 0x29, 0x44, 0x02, 0x09, 0x00, 0x00, 0x00, 0x00, 0x00, 0x80,
   0x7f, 0xf7, 0xff, 0xff, 0xfd, 0xff, 0xff, 0xff, 0xff, 0xff, 0xff, 0xff,
   0xff, 0xff, 0xff, 0x3f, 0x1c, 0x00, 0x40, 0x55, 0x2a, 0x49, 0x29, 0xd5,
   0x4a, 0x2a, 0x00, 0x10, 0x02, 0x00, 0x00, 0x00, 0x80, 0xff, 0xbf, 0xff,
   0xff, 0xff, 0xff, 0xff, 0xff, 0xaf, 0xff, 0xff, 0xff, 0xff, 0xff, 0xff,
   0xff, 0x1f, 0x00, 0x40, 0xd5, 0xca, 0x52, 0x42, 0x12, 0x12, 0x00, 0x00,
   0x80, 0x00, 0x00, 0x00, 0x00, 0xe0, 0xfd, 0x6f, 0xff, 0xff, 0xfe, 0xff,
   0xff, 0xff, 0xff, 0xff, 0xff, 0xff, 0xff, 0xff, 0xff, 0xff, 0x1f, 0x00,
   0x40, 0x41, 0x9b, 0xaa, 0xaa, 0x44, 0x00, 0x00, 0x00, 0x00, 0x08, 0x00,
   0x00, 0x00, 0xe0, 0xef, 0xff, 0xff, 0xff, 0xff, 0xff, 0xff, 0xff, 0xff,
   0xff, 0xff, 0xff, 0xff, 0xff, 0xff, 0xff, 0x1f, 0x00, 0x60, 0x70, 0xb5,
   0x4a, 0x15, 0x29, 0x12, 0x00, 0x00, 0x91, 0x02, 0x00, 0x00, 0x00, 0xd8,
   0xff, 0xfd, 0xff, 0xbf, 0xed, 0xfe, 0xff, 0xff, 0xff, 0xff, 0xff, 0xff,
   0xff, 0xff, 0xff, 0xff, 0x7f, 0x00, 0x50, 0x68, 0x57, 0x55, 0x55, 0x4a,
   0xa2, 0x02, 0x00, 0x12, 0x0a, 0x00, 0x00, 0x00, 0xfc, 0xfe, 0xff, 0xff,
   0xff, 0xff, 0xff, 0xff, 0xff, 0xff, 0xff, 0xfb, 0xff, 0xff, 0xff, 0xff,
   0xff, 0xff, 0x00, 0x20, 0xac, 0xd5, 0x56, 0x29, 0x11, 0x00, 0x48, 0x08,
   0xa0, 0x10, 0x00, 0x00, 0x00, 0xd4, 0xdb, 0xff, 0xff, 0xff, 0xff, 0xfe,
   0xff, 0xff, 0xfe, 0x3f, 0x90, 0xff, 0xff, 0xff, 0xff, 0xff, 0xbf, 0x03,
   0x30, 0xbc, 0xba, 0xbd, 0x45, 0x45, 0x05, 0x00, 0x00, 0x02, 0x05, 0x00,
   0x00, 0x00, 0x7c, 0xef, 0xff, 0xff, 0xff, 0x7f, 0xff, 0xff, 0xff, 0xff,
   0x43, 0x25, 0xfd, 0xff, 0xff, 0xff, 0xff, 0xbf, 0x07, 0x00, 0x6b, 0xab,
   0x6a, 0x17, 0x28, 0x10, 0x00, 0x00, 0x00, 0x10, 0x00, 0x00, 0x00, 0xf7,
   0xbd, 0xff, 0xff, 0xff, 0x7f, 0xfe, 0xff, 0xff, 0x7f, 0x09, 0x55, 0xea,
   0xff, 0xff, 0xff, 0xff, 0xff, 0x0b, 0x20, 0x57, 0x55, 0xd5, 0x2a, 0x81,
   0x02, 0x00, 0x00, 0x08, 0x00, 0x00, 0x00, 0x80, 0xfd, 0xef, 0xff, 0xff,
   0xff, 0x3f, 0xfd, 0xff, 0xff, 0x3f, 0xa2, 0x94, 0x14, 0xfa, 0xff, 0xff,
   0xff, 0xff, 0x73, 0x00, 0x7a, 0x5b, 0x5b, 0x97, 0x02, 0x28, 0x01, 0x00,
   0x00, 0x20, 0x00, 0x00, 0x40, 0xfd, 0xff, 0xff, 0xff, 0xff, 0x5f, 0xfe,
   0xff, 0xff, 0x4f, 0xaa, 0x42, 0xa5, 0xea, 0xff, 0xff, 0xff, 0xff, 0x4b,
   0x00, 0x4b, 0xb5, 0x76, 0x1d, 0x98, 0x00, 0x10, 0x01, 0x00, 0x02, 0x00,
   0x00, 0xc0, 0xfe, 0xf7, 0xff, 0xff, 0xff, 0x9f, 0xfc, 0xff, 0xff, 0x03,
   0x08, 0x54, 0x4a, 0xa5, 0xff, 0xff, 0xff, 0xff, 0xc7, 0x80, 0xba, 0x4a,
   0xd5, 0x35, 0x42, 0x02, 0x04, 0x54, 0x09, 0x40, 0x00, 0x00, 0x80, 0xf9,
   0xff, 0xff, 0xff, 0xff, 0x5f, 0xf9, 0xff, 0x7f, 0x00, 0xa9, 0x95, 0x12,
   0x48, 0xff, 0xff, 0xff, 0xff, 0xc7, 0x80, 0xa7, 0xdd, 0x7e, 0x6d, 0x90,
   0x10, 0x00, 0x00, 0xa9, 0x08, 0x00, 0x00, 0xc0, 0xf6, 0xd5, 0xff, 0xff,
   0xff, 0x47, 0xfa, 0xff, 0x9f, 0x48, 0x51, 0x52, 0x49, 0xa3, 0xfc, 0xff,
   0xff, 0xff, 0x87, 0x80, 0x5c, 0xb5, 0xd5, 0xde, 0x01, 0x4a, 0x01, 0x20,
   0x92, 0x92, 0x00, 0x00, 0xc0, 0xf7, 0xef, 0xff, 0xff, 0xff, 0x97, 0xf0,
   0xff, 0x0b, 0x20, 0x42, 0x22, 0x29, 0xa9, 0xea, 0xff, 0xff, 0x77, 0x86,
   0xc0, 0x55, 0x55, 0xad, 0xb5, 0x23, 0x00, 0x54, 0x00, 0x10, 0x25, 0x00,
   0x00, 0x40, 0xfd, 0x9d, 0xff, 0xff, 0xff, 0x23, 0xf5, 0xff, 0x83, 0x82,
   0x14, 0x55, 0x40, 0xda, 0xad, 0xff, 0xff, 0x7f, 0x84, 0x41, 0xb5, 0xaa,
   0x7a, 0xdb, 0x06, 0x91, 0x48, 0x0b, 0x40, 0x48, 0x01, 0x00, 0x80, 0xef,
   0xfd, 0xff, 0xff, 0xff, 0x21, 0xe1, 0xff, 0x10, 0xa4, 0xac, 0x48, 0x5b,
   0xb7, 0xff, 0xff, 0xff, 0x0f, 0x00, 0xa0, 0x6a, 0xd5, 0x65, 0xbb, 0x1d,
   0x00, 0x49, 0x90, 0x80, 0x00, 0x00, 0x00, 0x60, 0xfd, 0xf7, 0xff, 0xff,
   0xff, 0x49, 0xd4, 0x3f, 0x44, 0x40, 0x34, 0x25, 0xaa, 0x66, 0xb5, 0xff,
   0xff, 0x0f, 0x00, 0x60, 0x55, 0x55, 0xdf, 0x56, 0x0b, 0xa5, 0x24, 0x45,
   0x00, 0x10, 0x02, 0x00, 0xe0, 0xd5, 0x6f, 0xff, 0xff, 0xff, 0x90, 0xe4,
   0x2f, 0x08, 0x91, 0x62, 0x49, 0xfd, 0x4d, 0x76, 0xf5, 0xff, 0x0f, 0x00,
   0xa0, 0x55, 0x55, 0xb5, 0x6d, 0x5d, 0x88, 0x00, 0x00, 0x04, 0x02, 0x00,
   0x00, 0x20, 0xf7, 0xff, 0xff, 0xff, 0x7f, 0x24, 0xd1, 0x07, 0x21, 0x0a,
   0xe8, 0xb4, 0x37, 0xb0, 0x99, 0xec, 0xff, 0x07, 0x00, 0x58, 0xab, 0xfa,
   0xd6, 0xb6, 0x1b, 0x05, 0x00, 0x00, 0x00, 0x20, 0x00, 0x00, 0x30, 0xad,
   0xed, 0xff, 0xff, 0x7f, 0x44, 0xe2, 0x17, 0x48, 0xa9, 0xc2, 0xf5, 0xa7,
   0x56, 0x37, 0xe9, 0xff, 0x01, 0x00, 0xb4, 0x76, 0x95, 0xba, 0x6d, 0x35,
   0x00, 0x00, 0x00, 0x00, 0x00, 0x00, 0x00, 0xa0, 0xda, 0x7f, 0xff, 0xff,
   0x7f, 0x98, 0xd4, 0x09, 0x28, 0x82, 0xd4, 0xdf, 0x94, 0x6a, 0x41, 0x09,
   0xb7, 0x01, 0x00, 0x68, 0xa5, 0xea, 0xd5, 0x56, 0x1b, 0x00, 0x00, 0x00,
   0x00, 0x40, 0x00, 0x00, 0xa0, 0xf6, 0xff, 0xfd, 0xfb, 0x7f, 0x50, 0xe1,
   0x85, 0xa0, 0x28, 0xfd, 0xbf, 0xab, 0xc7, 0x16, 0x02, 0xb1, 0x00, 0x00,
   0xd8, 0x55, 0xab, 0xdd, 0xba, 0xf6, 0x00, 0x00, 0x00, 0x00, 0x00, 0x00,
   0x00, 0x80, 0xba, 0xfe, 0xff, 0xff, 0x7f, 0x40, 0x4a, 0x01, 0x8a, 0xaa,
   0xff, 0x1f, 0x5d, 0x81, 0x4d, 0xdd, 0x97, 0x01, 0x00, 0xb4, 0x5a, 0xbd,
   0x6b, 0xd7, 0x2a, 0x00, 0x00, 0x00, 0x00, 0x00, 0x00, 0x00, 0xd0, 0x36,
   0xff, 0xff, 0xef, 0x7f, 0xaa, 0xa4, 0x15, 0x22, 0xe6, 0xff, 0x7f, 0xa0,
   0x12, 0xaa, 0x52, 0xfc, 0x01, 0x00, 0xac, 0xf5, 0xaa, 0x6e, 0xb5, 0x6d,
   0x00, 0x00, 0x00, 0x00, 0x00, 0x00, 0x00, 0x60, 0xdb, 0xff, 0xff, 0xdb,
   0x5f, 0x48, 0x20, 0xa1, 0x94, 0xf9, 0xff, 0xbf, 0xde, 0x4a, 0x92, 0xaa,
   0x77, 0x03, 0x00, 0x6a, 0xaa, 0xfb, 0xba, 0xab, 0x5a, 0x00, 0x00, 0x00,
   0x00, 0x00, 0x00, 0x00, 0xc0, 0xd6, 0xf3, 0xff, 0xf7, 0x3d, 0x14, 0x69,
   0x04, 0x81, 0xff, 0xff, 0xff, 0x5b, 0x95, 0xa4, 0xe9, 0xd6, 0x06, 0x80,
   0x8b, 0xaa, 0xa6, 0xaf, 0xae, 0xd5, 0x00, 0x00, 0x00, 0x00, 0x00, 0x00,
   0x00, 0x20, 0x8a, 0xf8, 0xff, 0xef, 0x3d, 0xd0, 0xa0, 0x52, 0xe4, 0xff,
   0xff, 0xdb, 0x56, 0x55, 0x12, 0xaa, 0xbd, 0x1a, 0xe8, 0x68, 0xaa, 0xda,
   0xba, 0x6a, 0xae, 0x01, 0x00, 0x00, 0x00, 0x00, 0x00, 0x00, 0xe0, 0xd6,
   0xf5, 0xf7, 0xdf, 0x39, 0x14, 0xa4, 0x28, 0xfd, 0xff, 0xbf, 0xb6, 0x0a,
   0x45, 0xa0, 0x20, 0xe5, 0x56, 0xb6, 0x95, 0x52, 0x53, 0xd5, 0xdb, 0x59,
   0x01, 0x00, 0x00, 0x00, 0x00, 0x00, 0x00, 0x80, 0x45, 0xf8, 0xc7, 0xbf,
   0x1f, 0xa0, 0xa8, 0xa2, 0xff, 0xff, 0xdf, 0x4d, 0xb1, 0x9a, 0x12, 0x15,
   0x08, 0xd5, 0xaa, 0x52, 0xaa, 0x5a, 0xab, 0x54, 0x57, 0x01, 0x00, 0x00,
   0x00, 0x00, 0x00, 0x00, 0x28, 0x8d, 0xf9, 0xa7, 0x6f, 0x1d, 0x24, 0xb0,
   0xc4, 0xff, 0xff, 0x55, 0xfb, 0x8a, 0x52, 0x52, 0xd0, 0x54, 0xd5, 0xb6,
   0xaa, 0x2a, 0x55, 0xad, 0xb7, 0xda, 0x03, 0x00, 0x00, 0x00, 0x00, 0x00,
   0x00, 0x90, 0x2a, 0xf2, 0x47, 0xd7, 0x1d, 0x08, 0x2d, 0xf1, 0xff, 0xbf,
   0xda, 0x86, 0x50, 0x3c, 0x89, 0x22, 0x29, 0xaa, 0x5a, 0x55, 0x89, 0xaa,
   0xaa, 0x54, 0x6b, 0x02, 0x00, 0x00, 0x00, 0x00, 0x00, 0x00, 0x50, 0x6d,
   0x86, 0x4f, 0x97, 0x1b, 0x28, 0x70, 0xf9, 0xff, 0xbf, 0x52, 0xbd, 0x43,
   0xa9, 0x22, 0x44, 0x02, 0x51, 0x57, 0x55, 0x6d, 0xa9, 0x5a, 0xb5, 0xd6,
   0x06, 0x00, 0x00, 0x00, 0x00, 0x00, 0x00, 0x40, 0x5b, 0x78, 0x9e, 0x9f,
   0x1a, 0x10, 0x4a, 0xfe, 0xd7, 0xa5, 0xae, 0x56, 0x88, 0x6a, 0x49, 0x48,
   0x59, 0xa4, 0xf2, 0xaa, 0x92, 0x4a, 0xe5, 0xd6, 0xaa, 0x0d, 0x00, 0x00,
   0x00, 0x80, 0x02, 0x00, 0x40, 0x16, 0x45, 0x52, 0x07, 0x0b, 0x50, 0x5c,
   0xfe, 0x57, 0x8f, 0x54, 0x55, 0x11, 0x49, 0x55, 0x89, 0xa6, 0x09, 0xac,
   0x6e, 0x55, 0xa9, 0x9a, 0xb6, 0x5d, 0x15, 0x00, 0x00, 0x00, 0x10, 0x0a,
   0x00, 0x90, 0x4b, 0x36, 0xe4, 0xf9, 0x0b, 0x08, 0x2a, 0xff, 0x5d, 0x15,
   0xd5, 0xfa, 0x42, 0x52, 0x95, 0x40, 0x58, 0xa5, 0xd5, 0xa9, 0xaa, 0x56,
   0x65, 0x4d, 0xab, 0x0d, 0x00, 0x00, 0x00, 0xa0, 0x28, 0x00, 0x5c, 0x4a,
   0x0d, 0xfc, 0xbd, 0x0f, 0x20, 0xce, 0xef, 0x4f, 0x50, 0xaa, 0x55, 0x05,
   0xa4, 0x12, 0x11, 0x55, 0x25, 0x54, 0xdb, 0x55, 0xa1, 0xaa, 0xda, 0x76,
   0x1b, 0x00, 0x04, 0x00, 0x00, 0x01, 0x00, 0x28, 0x8d, 0x0a, 0x30, 0xea,
   0x0f, 0x14, 0xe9, 0x7f, 0x93, 0x4a, 0xab, 0xb5, 0x01, 0x48, 0x56, 0x8a,
   0xaa, 0xac, 0xaa, 0xb6, 0xae, 0x56, 0xaa, 0xb5, 0xaa, 0x36, 0x00, 0x08,
   0x00, 0x00, 0x00, 0x00, 0x73, 0x3a, 0x0f, 0xb0, 0x74, 0x1f, 0x00, 0xe7,
   0x75, 0x23, 0x44, 0x2d, 0xed, 0x2a, 0x90, 0x54, 0x29, 0x54, 0xab, 0x44,
   0xad, 0x55, 0xd5, 0x5a, 0x55, 0xdb, 0x2d, 0x00, 0x28, 0x00, 0x00, 0x00,
   0x00, 0x07, 0xd4, 0x1e, 0xac, 0xec, 0x1e, 0xa8, 0xb8, 0x5f, 0x00, 0x11,
   0xb5, 0xba, 0xc1, 0x42, 0xa9, 0x42, 0xa9, 0xa9, 0xda, 0x7a, 0xad, 0x2a,
   0xa5, 0xaa, 0x55, 0x2b, 0x00, 0x50, 0x00, 0x00, 0x00, 0x00, 0x9b, 0x9a,
   0x75, 0x2f, 0xf8, 0x16, 0x50, 0xfd, 0x55, 0x22, 0x45, 0x24, 0x75, 0x07,
   0x40, 0x92, 0x1a, 0x85, 0xaa, 0x12, 0xa5, 0x55, 0x69, 0x6d, 0xaa, 0xaa,
   0x2e, 0x00, 0x80, 0x02, 0x00, 0x00, 0x00, 0xff, 0x0e, 0x48, 0x5f, 0xe9,
   0x11, 0x24, 0xee, 0x15, 0x08, 0x08, 0x91, 0xea, 0x15, 0x08, 0x4a, 0x25,
   0x28, 0x75, 0x6d, 0xb5, 0x56, 0x4b, 0x95, 0x55, 0x55, 0x35, 0x00, 0x50,
   0x05, 0x00, 0x00, 0x00, 0x7f, 0x1b, 0x5f, 0x3e, 0x08, 0x02, 0xa8, 0xbe,
   0x05, 0x11, 0x21, 0x92, 0xaa, 0x17, 0x00, 0xa8, 0xaa, 0xa5, 0xcd, 0x4a,
   0xb5, 0x57, 0x5b, 0xa9, 0x5a, 0x8a, 0x6d, 0x00, 0x00, 0x08, 0x00, 0x00,
   0x80, 0x5f, 0xa5, 0x04, 0x3f, 0x50, 0x02, 0xd4, 0xe3, 0x54, 0x08, 0x84,
   0x18, 0xf4, 0x5d, 0x90, 0xa0, 0x0a, 0x92, 0xb2, 0x56, 0x54, 0x79, 0x55,
   0xad, 0x8a, 0xaa, 0x5a, 0x00, 0x80, 0x2a, 0x00, 0x00, 0x80, 0x9f, 0x1c,
   0xe9, 0xfd, 0x84, 0x18, 0x44, 0xa7, 0x02, 0x41, 0x20, 0x52, 0xf5, 0x57,
   0x01, 0x4a, 0x52, 0x55, 0xab, 0x6d, 0x65, 0xab, 0x56, 0x55, 0x55, 0xa8,
   0x52, 0x00, 0x00, 0xa9, 0x00, 0x00, 0x80, 0x67, 0x32, 0x10, 0xf2, 0x00,
   0x08, 0xf8, 0x5b, 0xb5, 0x14, 0x09, 0x4d, 0xea, 0x3c, 0x20, 0xa1, 0x24,
   0x95, 0x54, 0x5b, 0xd9, 0x6e, 0xdb, 0xb6, 0xaa, 0x22, 0x6d, 0x00, 0x00,
   0x44, 0x05, 0x00, 0xc0, 0xdf, 0x47, 0x10, 0x04, 0x08, 0x40, 0xe3, 0xf6,
   0x84, 0x00, 0x40, 0x1c, 0xea, 0x74, 0x00, 0x04, 0x89, 0xaa, 0x56, 0x55,
   0xa3, 0xaa, 0xda, 0xaa, 0x2a, 0x24, 0xaa, 0x00, 0x00, 0x50, 0x15, 0x00,
   0xc0, 0xf5, 0xaf, 0x07, 0x94, 0x04, 0x92, 0xb4, 0x1b, 0x52, 0x2c, 0x11,
   0x47, 0xea, 0x49, 0x80, 0x50, 0x51, 0x51, 0xb5, 0xdb, 0x46, 0xdd, 0xaa,
   0xdb, 0x4a, 0x88, 0xd4, 0x00, 0x00, 0x00, 0x52, 0x00, 0xa0, 0x7b, 0x7f,
   0x04, 0x46, 0x00, 0x84, 0x56, 0xfa, 0x00, 0x21, 0x42, 0x16, 0xe2, 0xaf,
   0x00, 0x42, 0xa6, 0xa6, 0xaa, 0xd6, 0x5a, 0x5b, 0xbf, 0x5a, 0x5b, 0x89,
   0xa8, 0x00, 0x00, 0x80, 0xa4, 0x05, 0xf0, 0xfe, 0xff, 0x7f, 0xf0, 0x40,
   0x00, 0x7a, 0x19, 0xb6, 0x8a, 0x80, 0x2f, 0xf4, 0x17, 0x40, 0x14, 0xa9,
   0xaa, 0x5a, 0xad, 0x85, 0xea, 0x6a, 0xb7, 0x55, 0x15, 0x40, 0x01, 0x00,
   0x00, 0x48, 0x5a, 0xf0, 0xfb, 0x7f, 0x25, 0xfe, 0x03, 0x06, 0x68, 0xb4,
   0x00, 0x90, 0x0a, 0x8a, 0xf2, 0x6f, 0x00, 0x50, 0x69, 0xad, 0xea, 0xba,
   0x36, 0x5d, 0xdb, 0x6a, 0x4b, 0xa5, 0x02, 0x00, 0x00, 0x00, 0x90, 0x52,
   0xa8, 0xfd, 0x5f, 0x3f, 0xf0, 0x80, 0x07, 0x75, 0x45, 0x4a, 0x49, 0x60,
   0x06, 0xf1, 0x8f, 0x40, 0x81, 0x54, 0x35, 0x54, 0xa5, 0x89, 0xea, 0x56,
   0xdb, 0x2a, 0x55, 0x80, 0x00, 0x00, 0x00, 0x40, 0x55, 0x78, 0xfd, 0xff,
   0x3e, 0xa0, 0x00, 0x03, 0x15, 0x0d, 0x88, 0x08, 0x4a, 0x2d, 0xf3, 0x0f,
   0x00, 0xa8, 0x56, 0x74, 0x51, 0x7f, 0x57, 0xac, 0x75, 0x5b, 0x6b, 0xd5,
   0x05, 0x00, 0x00, 0x00, 0x00, 0x44, 0x68, 0xb6, 0xfe, 0xfb, 0xca, 0x02,
   0x06, 0x3a, 0x0a, 0x20, 0x22, 0x84, 0x4b, 0xf0, 0x07, 0x40, 0x52, 0x4d,
   0x29, 0xaa, 0x4a, 0x09, 0xd5, 0xde, 0xb6, 0x8a, 0x2a, 0x29, 0x01, 0x00,
   0x00, 0x00, 0x00, 0xf8, 0xf4, 0xff, 0xff, 0xdf, 0x06, 0x88, 0x76, 0x2a,
   0x80, 0x84, 0x14, 0xd7, 0x39, 0x17, 0x00, 0x50, 0x55, 0xb2, 0xc4, 0x7a,
   0x55, 0xd8, 0xb5, 0xd5, 0x5a, 0x55, 0x29, 0x00, 0x00, 0x00, 0x00, 0x00,
   0xf8, 0xdf, 0xff, 0xff, 0xbf, 0x1c, 0x5e, 0x96, 0x04, 0x40, 0x40, 0x00,
   0x97, 0x32, 0x41, 0x80, 0xaa, 0x82, 0x3d, 0xa9, 0xd5, 0x8d, 0x7a, 0xef,
   0xee, 0xaa, 0xaa, 0x8a, 0x00, 0x00, 0x00, 0x00, 0x00, 0xf0, 0xf9, 0xff,
   0xff, 0xcf, 0xc8, 0x9f, 0x94, 0x14, 0x01, 0x84, 0x40, 0xab, 0x38, 0x00,
   0x04, 0xaa, 0x14, 0xf1, 0x6a, 0xad, 0x39, 0xd1, 0xbd, 0x5b, 0xab, 0xaa,
   0x35, 0x01, 0x00, 0x00, 0x00, 0x00, 0xf8, 0xdf, 0xff, 0xff, 0xf3, 0xa3,
   0x43, 0x09, 0x06, 0x00, 0x00, 0x84, 0xd7, 0x31, 0x10, 0xa8, 0x5a, 0x21,
   0x2e, 0xd5, 0x5b, 0x57, 0x74, 0xeb, 0xee, 0x94, 0x52, 0x55, 0x01, 0x00,
   0x00, 0x00, 0x00, 0xf0, 0xff, 0xff, 0xff, 0xcf, 0xfb, 0x15, 0x01, 0x28,
   0x80, 0x08, 0x10, 0x97, 0x76, 0x01, 0x00, 0x55, 0x8a, 0x7c, 0x15, 0xab,
   0xac, 0x6a, 0xdf, 0xaa, 0xab, 0xaa, 0x6a, 0x03, 0x00, 0x00, 0x00, 0x00,
   0xf0, 0xff, 0xfb, 0xf7, 0xbf, 0xff, 0x50, 0x82, 0x0a, 0x00, 0x02, 0x00,
   0x6f, 0xf5, 0x01, 0xad, 0x16, 0x54, 0x6b, 0xf5, 0xb6, 0x6b, 0xf9, 0xf5,
   0x5f, 0x4a, 0xd5, 0xad, 0x05, 0x00, 0x00, 0x00, 0x00, 0xb0, 0xff, 0xff,
   0xff, 0xff, 0x3f, 0x14, 0x04, 0x05, 0x00, 0x00, 0x20, 0xcf, 0xe5, 0x07,
   0xa0, 0xfe, 0x11, 0x5a, 0xca, 0x6d, 0xad, 0x62, 0xbf, 0xda, 0x55, 0x55,
   0xb5, 0x03, 0x00, 0x00, 0x00, 0x00, 0xe0, 0xfe, 0xff, 0xff, 0xff, 0x3f,
   0x90, 0x40, 0x05, 0x00, 0x00, 0x00, 0x5b, 0x57, 0x45, 0xd5, 0x1b, 0xe4,
   0xab, 0x54, 0xd7, 0x5a, 0xb5, 0xeb, 0x2d, 0x2a, 0xaa, 0x6d, 0x05, 0x00,
   0x00, 0x00, 0x00, 0xe0, 0xff, 0xbf, 0xff, 0xff, 0x3f, 0x8b, 0x01, 0x08,
   0x20, 0x08, 0x00, 0xda, 0x56, 0x25, 0x51, 0x6a, 0x09, 0x6a, 0x55, 0xad,
   0x6b, 0x75, 0x5f, 0xbb, 0x54, 0x6d, 0xab, 0x02, 0x00, 0x00, 0x00, 0x00,
   0xc0, 0xed, 0xff, 0xff, 0xff, 0x3f, 0x24, 0x03, 0x04, 0x00, 0x00, 0x00,
   0xae, 0x6e, 0x8a, 0xac, 0xf4, 0x52, 0x2b, 0xd5, 0xb6, 0x5a, 0xf3, 0xfd,
   0x16, 0x52, 0x55, 0x55, 0x05, 0x00, 0x00, 0x00, 0x00, 0x80, 0xff, 0x6f,
   0xfb, 0xff, 0x9f, 0x14, 0x0e, 0x0c, 0x00, 0x00, 0x00, 0xfe, 0xdb, 0x14,
   0xa9, 0xe4, 0x53, 0x75, 0x95, 0x6d, 0x6b, 0xd5, 0xd7, 0x85, 0x44, 0x55,
   0x55, 0x05, 0x00, 0x00, 0x00, 0x00, 0xc0, 0xed, 0xf7, 0xd7, 0xff, 0x1f,
   0xc2, 0xf0, 0x11, 0x02, 0x02, 0x00, 0xac, 0xb6, 0x6a, 0x2a, 0x79, 0x54,
   0x57, 0xa8, 0xda, 0xaa, 0x72, 0x7b, 0x25, 0x55, 0x2a, 0x55, 0x05, 0x00,
   0x00, 0x00, 0x00, 0x40, 0xff, 0xdf, 0xfe, 0xef, 0x9f, 0x94, 0xc3, 0x17,
   0x00, 0x00, 0x00, 0xd8, 0xee, 0x55, 0x55, 0xfa, 0xca, 0xba, 0xaa, 0xb5,
   0xea, 0xe6, 0xdf, 0x24, 0x91, 0x4a, 0x12, 0x01, 0x2a, 0x00, 0x00, 0x00,
   0xc0, 0xfb, 0xff, 0xf7, 0xff, 0x9f, 0xc2, 0x84, 0x28, 0x00, 0x00, 0x00,
   0xa0, 0x5b, 0xaf, 0x4a, 0xf5, 0xd5, 0x35, 0xa5, 0x7e, 0x5a, 0xb5, 0x36,
   0x40, 0x0a, 0x90, 0x40, 0x01, 0x48, 0x05, 0x00, 0x00, 0x80, 0xf7, 0x7f,
   0xff, 0xff, 0x5f, 0x88, 0x07, 0x23, 0x20, 0x00, 0x00, 0x20, 0xfa, 0x7a,
   0xa9, 0xfa, 0x2a, 0x77, 0x54, 0xe9, 0xa0, 0xeb, 0x2f, 0x89, 0x50, 0x22,
   0x0a, 0x01, 0x40, 0x09, 0x00, 0x00, 0x00, 0xff, 0xff, 0xff, 0xff, 0x1f,
   0xab, 0x2d, 0x14, 0x00, 0x00, 0x00, 0x80, 0x54, 0x97, 0x54, 0xf9, 0xea,
   0xba, 0x48, 0xaf, 0xba, 0xea, 0x16, 0x00, 0x82, 0x84, 0x20, 0x01, 0x00,
   0x54, 0x01, 0x00, 0x00, 0x7e, 0xdb, 0xff, 0xee, 0x1f, 0x90, 0xaf, 0x16,
   0x00, 0x01, 0x00, 0x00, 0x50, 0xab, 0x4a, 0xe7, 0xab, 0xba, 0x90, 0xba,
   0xa0, 0xda, 0x81, 0x00, 0x90, 0x28, 0x04, 0x00, 0x00, 0x00, 0x2a, 0x00,
   0x00, 0xfc, 0xff, 0xff, 0xff, 0x0f, 0x8a, 0x5b, 0x01, 0x11, 0x08, 0x00,
   0x40, 0x00, 0x00, 0x11, 0xd9, 0x96, 0x6f, 0xaa, 0x7e, 0x6a, 0x75, 0x21,
   0x24, 0x05, 0x82, 0xa0, 0x00, 0x00, 0x00, 0x00, 0x00, 0x00, 0xec, 0xfd,
   0xff, 0xff, 0x2f, 0xd0, 0x6f, 0x2a, 0x00, 0x00, 0x00, 0x00, 0x42, 0x20,
   0x02, 0xd5, 0x15, 0x7d, 0xa0, 0x6a, 0xa1, 0x2a, 0x00, 0x20, 0x50, 0x02,
   0x44, 0x00, 0x00, 0x00, 0x00, 0x00, 0x00, 0xfc, 0xf7, 0xab, 0xff, 0x0f,
   0xb0, 0xff, 0x25, 0x00, 0x00, 0x00, 0x00, 0x28, 0x02, 0x04, 0x4a, 0x0b,
   0x7a, 0x50, 0xbf, 0x6c, 0x15, 0x00, 0x00, 0x02, 0x08, 0x50, 0x00, 0x00,
   0x00, 0x00, 0x00, 0x00, 0xfc, 0xff, 0xbf, 0xff, 0x4f, 0xd0, 0xaf, 0x1a,
   0x00, 0x08, 0x00, 0x00, 0x01, 0x00, 0x00, 0x9a, 0x36, 0xaa, 0x40, 0x6a,
   0xc1, 0x0a, 0x02, 0x00, 0x54, 0x01, 0x12, 0x00, 0x00, 0x00, 0x00, 0x00,
   0x00, 0xdc, 0xfb, 0xff, 0xff, 0x4f, 0x20, 0xff, 0x17, 0x00, 0x00, 0x00,
   0x00, 0x94, 0x00, 0x00, 0x24, 0x4b, 0x2e, 0x50, 0xbf, 0xaa, 0x0a, 0x00,
   0xa0, 0x00, 0x48, 0x28, 0x00, 0x00, 0x00, 0x00, 0x00, 0x00, 0xfc, 0xf7,
   0xff, 0xff, 0x17, 0x60, 0x7e, 0x0d, 0x80, 0x00, 0x00, 0x20, 0x10, 0x00,
   0x00, 0x94, 0x9a, 0x29, 0x50, 0x75, 0x49, 0x25, 0x10, 0x82, 0x4a, 0x02,
   0x04, 0x00, 0x00, 0x00, 0x00, 0x00, 0x00, 0xfc, 0xff, 0xff, 0xff, 0x2f,
   0x30, 0xfe, 0x1f, 0x00, 0x00, 0x00, 0x80, 0x24, 0x00, 0x00, 0x48, 0x45,
   0x05, 0xa0, 0xee, 0xaa, 0x82, 0x20, 0x54, 0x00, 0x48, 0x05, 0x00, 0x00,
   0x00, 0xa0, 0x0a, 0x00, 0xec, 0xff, 0xff, 0xff, 0x0f, 0x78, 0x7c, 0x1d,
   0x00, 0x00, 0x00, 0x00, 0x48, 0x00, 0x00, 0x90, 0x05, 0x29, 0x84, 0xba,
   0x25, 0xaa, 0x4f, 0x01, 0x95, 0x08, 0x05, 0x00, 0x00, 0x00, 0x8a, 0x00,
   0x00, 0xdc, 0xff, 0xff, 0xff, 0x27, 0x38, 0xfc, 0x0f, 0x00, 0x00, 0x00,
   0x00, 0xb5, 0x05, 0x00, 0xe4, 0x05, 0x35, 0xd0, 0x66, 0x55, 0xe0, 0x82,
   0x54, 0x48, 0xe0, 0x02, 0x00, 0x00, 0xa0, 0x20, 0x02, 0x00, 0xf8, 0xff,
   0xff, 0xff, 0x47, 0x3e, 0xf8, 0x1f, 0x00, 0x00, 0x00, 0x24, 0xea, 0x05,
   0x00, 0xa8, 0x01, 0x30, 0x44, 0xdd, 0x2a, 0xc0, 0xbb, 0x92, 0x02, 0xa2,
   0x01, 0x00, 0x00, 0x09, 0x04, 0x00, 0x00, 0xdc, 0xfd, 0xff, 0xef, 0x07,
   0x7f, 0xf9, 0x3f, 0x00, 0x00, 0x00, 0xd0, 0xdb, 0x1b, 0x00, 0xf4, 0x05,
   0x36, 0xa8, 0xaa, 0x15, 0x80, 0x4e, 0x4a, 0x7f, 0x69, 0x00, 0x80, 0x2a,
   0x22, 0x21, 0x00, 0x00, 0xfa, 0xff, 0xff, 0xff, 0x03, 0x7f, 0xe8, 0x2f,
   0x00, 0x00, 0x00, 0x50, 0xea, 0x5b, 0x00, 0xa4, 0x01, 0x74, 0xa8, 0xb6,
   0x06, 0x00, 0xff, 0xfb, 0x6a, 0x6d, 0x00, 0x00, 0x00, 0x00, 0x00, 0x00,
   0x00, 0xd8, 0xfd, 0xff, 0xff, 0xc3, 0x7f, 0xe0, 0x2f, 0x00, 0x00, 0x00,
   0xa8, 0xfd, 0xaf, 0x00, 0x50, 0x02, 0x58, 0x00, 0xa9, 0x09, 0x00, 0xb4,
   0xae, 0xdf, 0x1b, 0x00, 0x00, 0x00, 0x00, 0x00, 0x00, 0x00, 0xb8, 0xf7,
   0xff, 0xff, 0x83, 0x7f, 0xc0, 0x3f, 0x00, 0x00, 0x00, 0xb8, 0xf2, 0xb7,
   0x00, 0xa0, 0x00, 0xe8, 0x28, 0x55, 0x03, 0x00, 0xf0, 0x7b, 0x75, 0x0b,
   0x00, 0x00, 0x00, 0x00, 0x00, 0x00, 0x00, 0xf1, 0xff, 0xff, 0xff, 0xc3,
   0xff, 0x80, 0x1f, 0x00, 0x00, 0x00, 0x38, 0xf2, 0x5f, 0x01, 0x00, 0x00,
   0xa0, 0x20, 0xd4, 0x02, 0x00, 0xa0, 0xee, 0xaf, 0x00, 0x00, 0x05, 0x00,
   0x00, 0x00, 0x00, 0x00, 0xf0, 0xee, 0xff, 0xfb, 0xc3, 0xff, 0x01, 0x7f,
   0x00, 0x00, 0x00, 0x68, 0xe4, 0x5f, 0x01, 0x22, 0x00, 0x40, 0x40, 0xa9,
   0x04, 0x10, 0x80, 0x7f, 0x3d, 0x00, 0x00, 0x14, 0x00, 0x00, 0x00, 0x00,
   0x00, 0xf1, 0xff, 0x7f, 0xff, 0xe3, 0xff, 0x01, 0xbe, 0x00, 0x00, 0x00,
   0x08, 0xe4, 0x67, 0x01, 0x40, 0x00, 0x40, 0x15, 0xa5, 0x02, 0x80, 0x00,
   0xd5, 0x01, 0x00, 0x00, 0xa0, 0x04, 0x00, 0x00, 0x00, 0x00, 0x71, 0xdf,
   0xf7, 0xd7, 0xe3, 0xff, 0x07, 0x7c, 0x01, 0x00, 0x00, 0x18, 0x60, 0x56,
   0x01, 0x00, 0x00, 0x88, 0xa5, 0xaa, 0x0c, 0x00, 0x01, 0x00, 0x00, 0x00,
   0x00, 0x00, 0x09, 0x00, 0x00, 0x00, 0x00, 0xf0, 0xfd, 0x7f, 0xff, 0xe7,
   0xff, 0x0f, 0xf8, 0x01, 0x00, 0x00, 0x08, 0x40, 0x20, 0x00, 0x00, 0xa0,
   0x2b, 0x59, 0xa4, 0x22, 0x00, 0x06, 0x00, 0x00, 0x00, 0x00, 0x00, 0x24,
   0x01, 0x00, 0x00, 0x00, 0xc0, 0xbf, 0xd7, 0xdf, 0xff, 0xff, 0x3f, 0xe0,
   0x03, 0x00, 0x00, 0x10, 0x40, 0x00, 0x00, 0x00, 0x00, 0xd5, 0xaa, 0x29,
   0x0a, 0x00, 0x3c, 0x00, 0x00, 0x00, 0x00, 0x00, 0x20, 0x55, 0x92, 0x00,
   0x00, 0x80, 0xff, 0xfd, 0xff, 0xff, 0xff, 0xff, 0xc0, 0x0f, 0x00, 0x00,
   0x00, 0xc0, 0x80, 0x00, 0x80, 0x24, 0x2a, 0x41, 0xc2, 0x24, 0x00, 0xf0,
   0x01, 0x00, 0x00, 0x00, 0x00, 0x00, 0x00, 0x49, 0x01, 0x00, 0x00, 0xf5,
   0xff, 0xfe, 0xff, 0xff, 0xff, 0x81, 0x1d, 0x00, 0x00, 0x00, 0x90, 0x01,
   0x00, 0x00, 0x40, 0x29, 0x15, 0x0a, 0x01, 0x00, 0xe0, 0x01, 0x00, 0x00,
   0x00, 0x00, 0x00, 0x00, 0x00, 0x00, 0x00, 0x00, 0xf2, 0xff, 0xff, 0xff,
   0xff, 0xff, 0x0f, 0xbf, 0x00, 0x00, 0x00, 0xc0, 0x00, 0x00, 0x20, 0x25,
   0x24, 0x48, 0xa0, 0x1a, 0x00, 0x80, 0x07, 0x00, 0x00, 0x00, 0x00, 0x00,
   0x00, 0x00, 0x00, 0x00, 0x40, 0xc2, 0xfe, 0xef, 0xff, 0xff, 0xff, 0x7f,
   0xfd, 0x17, 0x00, 0x00, 0x90, 0x03, 0x00, 0x00, 0x48, 0x49, 0x01, 0x05,
   0x04, 0x00, 0x00, 0x06, 0x00, 0x00, 0x00, 0x00, 0x00, 0x00, 0x00, 0x00,
   0x00, 0x00, 0xec, 0xfb, 0xfb, 0xff, 0xff, 0xff, 0xff, 0x63, 0xfd, 0x03,
   0x00, 0x80, 0x00, 0x00, 0x48, 0x45, 0x12, 0x00, 0xd0, 0x01, 0x00, 0x00,
   0x1c, 0x00, 0x00, 0x00, 0x00, 0x00, 0x00, 0x00, 0x00, 0x00, 0x40, 0xbc,
   0xef, 0xff, 0xff, 0xbf, 0xff, 0xff, 0x5f, 0xff, 0x3f, 0x00, 0x00, 0x02,
   0x00, 0x10, 0x91, 0x00, 0x00, 0x80, 0x00, 0x00, 0x00, 0xa0, 0x14, 0x00,
   0x00, 0x00, 0x00, 0x00, 0x00, 0x00, 0x00, 0x20, 0xdc, 0x7f, 0xff, 0xff,
   0xff, 0xff, 0xff, 0xff, 0xfd, 0xff, 0x01, 0x00, 0x00, 0x00, 0x40, 0x4a,
   0x00, 0x00, 0x00, 0x00, 0x00, 0x10, 0x00, 0xfa, 0x00, 0x00, 0x00, 0x00,
   0x00, 0x00, 0x00, 0x00, 0x20, 0xc8, 0xfe, 0xff, 0xff, 0xfb, 0xff, 0xff,
   0xff, 0xe1, 0xf7, 0x2f, 0x00, 0x00, 0x80, 0x44, 0xf8, 0x0c, 0x00, 0x00,
   0x00, 0x00, 0x00, 0x00, 0xa0, 0x01, 0x00, 0x00, 0x00, 0x00, 0x00, 0x00,
   0x00, 0x60, 0x48, 0xfe, 0xff, 0xff, 0xff, 0xff, 0xff, 0xff, 0xc3, 0x90,
   0x92, 0xac, 0x00, 0x40, 0xd8, 0xff, 0x87, 0x01, 0x00, 0x00, 0x00, 0x00,
   0x00, 0x00, 0x02, 0x00, 0x00, 0x00, 0x00, 0x00, 0x00, 0x00, 0xc0, 0x47,
   0xfc, 0xff, 0xff, 0xf7, 0xff, 0xff, 0xff, 0x3f, 0x00, 0x82, 0xa0, 0x1e,
   0x80, 0xff, 0xff, 0x87, 0x00, 0x00, 0x00, 0x00, 0x00, 0x00, 0x00, 0xe8,
   0x02, 0x00, 0x00, 0x00, 0x00, 0x00, 0x00, 0x00, 0x44, 0xfe, 0xff, 0xff,
   0xff, 0xff, 0xff, 0xff, 0x7f, 0x00, 0x28, 0x8a, 0xff, 0xff, 0xff, 0xff,
   0xc7, 0x00, 0x00, 0x00, 0x00, 0x00, 0x00, 0x00, 0x02, 0xad, 0x03, 0x00,
   0x00, 0x00, 0x00, 0x00, 0x00, 0x04, 0xff, 0xfc, 0xff, 0xf7, 0xee, 0xff,
   0xff, 0xff, 0x2f, 0xa1, 0xe8, 0xff, 0xff, 0xff, 0xff, 0x65, 0x00, 0x00,
   0x00, 0x00, 0x00, 0x00, 0x10, 0x20, 0xa0, 0x0f, 0x00, 0x00, 0x00, 0x00,
   0x00, 0x00, 0x03, 0x7f, 0xff, 0xff, 0xbf, 0xff, 0xff, 0xff, 0xff, 0xff,
   0xff, 0xff, 0xff, 0xff, 0xff, 0xff, 0x64, 0x00, 0x00, 0x00, 0x00, 0x00,
   0x00, 0x00, 0x08, 0x05, 0x5a, 0x00, 0x00, 0x00, 0x00, 0x00, 0x00, 0x02,
   0x76, 0xfc, 0xff, 0xff, 0xff, 0xff, 0xff, 0xff, 0xff, 0xff, 0xff, 0xff,
   0xff, 0xff, 0xef, 0x38, 0x00, 0x00, 0x00, 0x00, 0x80, 0x00, 0x00, 0x00,
   0x48, 0x00, 0x11, 0x00, 0x00, 0x00, 0x00, 0x00, 0x03, 0x3c, 0xfc, 0xff,
   0xff, 0xff, 0xff, 0xff, 0xfb, 0xff, 0xff, 0xff, 0xff, 0xff, 0xff, 0x7f,
   0x00, 0x00, 0x00, 0x00, 0x00, 0x00, 0x00, 0x00, 0x00, 0x22, 0x29, 0x4a,
   0x92, 0x02, 0x00, 0x00, 0x00, 0x03, 0xf8, 0xff, 0xff, 0xff, 0xff, 0xff,
   0xff, 0xff, 0xff, 0xff, 0xff, 0xff, 0xff, 0xff, 0x3f, 0x00, 0x00, 0x00,
   0x00, 0x00, 0x00, 0x00, 0x20, 0x00, 0x04, 0x22, 0x10, 0x52, 0x01, 0x00,
   0x00, 0x00, 0x02, 0xf0, 0xff, 0xff, 0xff, 0xff, 0xff, 0xff, 0xef, 0xff,
   0xff, 0xff, 0xff, 0xff, 0xff, 0x0f, 0x00, 0x00, 0x00, 0x00, 0x00, 0x00,
   0x00, 0x00, 0x01, 0x40, 0x48, 0x42, 0x20, 0x02, 0x00, 0x00, 0x00, 0x00,
   0x10, 0xfc, 0xf9, 0xff, 0xff, 0xff, 0xff, 0x7e, 0xff, 0xff, 0xff, 0xff,
   0xff, 0xfe, 0x01, 0x00, 0x00, 0x00, 0x00, 0x00, 0x00, 0x09, 0x00, 0x2a,
   0x00, 0x41, 0x88, 0x04, 0x00, 0x00, 0x00, 0x00, 0x00, 0x01, 0xfc, 0xfb,
   0xff, 0xff, 0xff, 0xff, 0xfb, 0xff, 0xff, 0xff, 0xff, 0x7f, 0xe0, 0x01,
   0x00, 0x00, 0x00, 0x00, 0x00, 0x00, 0x00, 0x00, 0x80, 0x00, 0x00, 0x25,
   0x91, 0x00, 0x00, 0x00, 0x00, 0x80, 0x02, 0xf8, 0xff, 0xff, 0xff, 0xff,
   0x7f, 0x77, 0xff, 0xff, 0xff, 0xff, 0x7f, 0xe0, 0x01, 0x00, 0x00, 0x00,
   0x00, 0x00, 0x00, 0x80, 0x00, 0x00, 0x15, 0x02, 0x48, 0x92, 0x00, 0x00,
   0x00, 0x00, 0x20, 0x00, 0xe0, 0xff, 0x7f, 0xff, 0xff, 0xdf, 0xff, 0xff,
   0xff, 0xff, 0xff, 0x7f, 0x20, 0x00, 0x00, 0x00, 0x00, 0x00, 0x00, 0x00,
   0x00, 0x00, 0x08, 0x40, 0x00, 0x80, 0x4a, 0x00, 0x00, 0x00, 0x00, 0x00,
   0x00, 0xe0, 0xfc, 0xfb, 0xff, 0xff, 0xff, 0xff, 0xff, 0xff, 0xff, 0xff,
   0xff, 0x30, 0x00, 0x00, 0x00, 0x00, 0x00, 0x00, 0x00, 0x00, 0x80, 0x80,
   0x14, 0x92, 0x10, 0x90, 0x00, 0x00, 0x00, 0x00, 0x00, 0x00, 0xe0, 0x88,
   0xfd, 0xff, 0xff, 0xfb, 0xff, 0xff, 0xff, 0xff, 0xff, 0xff, 0x3f, 0x00,
   0x00, 0x00, 0x00, 0x00, 0x00, 0x00, 0x00, 0x00, 0x08, 0x40, 0x00, 0x00,
   0xa2, 0x00, 0x00, 0x00, 0x00, 0x00, 0x82, 0xce, 0x88, 0xb1, 0xff, 0xff,
   0xff, 0xff, 0xff, 0xff, 0xff, 0xff, 0xff, 0x37, 0x00, 0x00, 0x00, 0x00,
   0x00, 0x00, 0x00, 0x00, 0x00, 0x90, 0x80, 0x2a, 0x22, 0x04, 0x00, 0x00,
   0x00, 0x00, 0x00, 0x04, 0x80, 0xb1, 0x33, 0xfe, 0xff, 0xdf, 0xff, 0xfb,
   0xff, 0xff, 0xff, 0xe1, 0x1f, 0x00, 0x00, 0x00, 0x00, 0x00, 0x00, 0x00,
   0x00, 0x00, 0x00, 0x02, 0x40, 0x00, 0x20, 0x00, 0x00, 0x00, 0x00, 0x00,
   0x04, 0x00, 0xf3, 0x2f, 0xff, 0xff, 0xff, 0xff, 0xff, 0xff, 0xff, 0xc7,
   0xc1, 0x1f, 0x00, 0x00, 0x00, 0x00, 0x00, 0x00, 0x00, 0x00, 0x00, 0x00,
   0x24, 0x14, 0x85, 0x00, 0x00, 0x00, 0x00, 0x00, 0x00, 0x04, 0x08, 0xfe,
   0xff, 0xff, 0xff, 0xfa, 0xff, 0xff, 0xff, 0xff, 0xc7, 0x01, 0x10, 0x00,
   0x00, 0x00, 0x00, 0x00, 0x00, 0x00, 0x00, 0x00, 0x00, 0x80, 0x40, 0x10,
   0x04, 0x00, 0x00, 0x00, 0x00, 0x00, 0x0c, 0x02, 0xc0, 0xff, 0xff, 0xff,
   0xff, 0xbf, 0xfd, 0xff, 0xff, 0xff, 0x3f, 0x00, 0x00, 0x00, 0x00, 0x00,
   0x00, 0x00, 0x00, 0x00, 0x00, 0x00, 0x00, 0x08, 0x45, 0x00, 0x00, 0x00,
   0x00, 0x00, 0x00, 0xf0, 0x00, 0x00, 0x19, 0xff, 0xff, 0xff, 0xff, 0xdf,
   0xff, 0xff, 0xff, 0x7f, 0x04, 0x00, 0x00, 0x00, 0x00, 0x00, 0x00, 0x00,
   0x00, 0x00, 0x00, 0x00, 0x80, 0x94, 0x0a, 0x00, 0x00, 0x00, 0x00, 0x00,
   0x00, 0x00, 0x00, 0x30, 0xfc, 0xff, 0xcd, 0xff, 0xff, 0xff, 0xc3, 0xff,
   0x0d, 0x00, 0x00, 0x00, 0x00, 0x00, 0x00, 0x00, 0x00, 0x00, 0x00, 0x00,
   0x00, 0x00, 0xa0, 0x02, 0x00, 0x00, 0x00, 0x00, 0x00, 0x00, 0x00, 0x00,
   0x60, 0x38, 0xf4, 0x88, 0xff, 0xff, 0x9f, 0x82, 0x19, 0x18, 0x00, 0x00,
   0x00, 0x00, 0x00, 0x00, 0x00, 0x00, 0x00, 0x00, 0x00, 0x00, 0x00, 0x00,
   0x00, 0x00, 0x00, 0x00, 0x00, 0x00, 0x00, 0x00, 0x00, 0x60, 0x30, 0xe0,
   0x07, 0x99, 0xf9, 0x1f, 0x00, 0x0e, 0x08, 0x00, 0x00, 0x00, 0x00, 0x00,
   0x00, 0x00, 0x00, 0x00, 0x00, 0x00, 0x00, 0x00, 0x00, 0x00, 0x00, 0x00,
   0x00, 0x00, 0x00, 0x00, 0x00, 0x00, 0x40, 0x30, 0xf0, 0x01, 0xd0, 0x39,
   0x30, 0x00, 0x07, 0x00, 0x00, 0x00, 0x00, 0x00, 0x00, 0x00, 0x00, 0x00,
   0x00, 0x00, 0x00, 0x00, 0x00, 0x00, 0x00, 0x00, 0x00, 0x00, 0x00, 0x00,
   0x00, 0x00, 0x00, 0x40, 0x60, 0xfe, 0x00, 0xf3, 0x1f, 0xf0, 0x0f, 0x02,
   0x00, 0x00, 0x00, 0x00, 0x00, 0x00, 0x00, 0x00, 0x00, 0x00, 0x00, 0x00,
   0x00, 0x00, 0x00, 0x00, 0x00, 0x00, 0x00, 0x00, 0x00, 0x00, 0x00, 0x00,
   0x80, 0xe1, 0xff, 0x20, 0xe4, 0x3f, 0x70, 0x08, 0x02, 0x00, 0x00, 0x00,
   0x00, 0x00, 0x00, 0x00, 0x00, 0x00, 0x00, 0x00, 0x00, 0x00, 0x00, 0x00,
   0x00, 0x00, 0x00, 0x00, 0x00, 0x00, 0x00, 0x00, 0x00, 0x00, 0xfe, 0xf8,
   0x10, 0x0c, 0x30, 0x38, 0x10, 0x00, 0x00, 0x00, 0x00, 0x00, 0x00, 0x00,
   0x00, 0x00, 0x00, 0x00, 0x00, 0x00, 0x00, 0x00, 0x00, 0x00, 0x00, 0x00,
   0x00, 0x00, 0x00, 0x00, 0x00, 0x00, 0x00, 0x00, 0x30, 0x07, 0x0c, 0xc0,
   0x63, 0x04, 0x00, 0x00, 0x00, 0x00, 0x00, 0x00, 0x00, 0x00, 0x00, 0x00,
   0x00, 0x00, 0x00, 0x00, 0x00, 0x00, 0x00, 0x00, 0x00, 0x00, 0x00, 0x00,
   0x00, 0x00, 0x00, 0x00, 0x00, 0x20, 0x06, 0x5b, 0x00, 0xe0, 0x00, 0x00,
   0x00, 0x00, 0x00, 0x00, 0x00, 0x00, 0x00, 0x00, 0x00, 0x00, 0x00, 0x00,
   0x00, 0x00, 0x00, 0x00, 0x00, 0x00, 0x00, 0x00, 0x00, 0x00, 0x00, 0x00,
   0x00, 0x00, 0x20, 0xfc, 0x80, 0x00, 0x80, 0x03, 0x00, 0x00, 0x00, 0x00,
   0x00, 0x00, 0x00, 0x00, 0x00, 0x00, 0x00, 0x00, 0x00, 0x00, 0x00, 0x00,
   0x00, 0x00, 0x00, 0x00, 0x00, 0x00, 0x00, 0x00, 0x00, 0x00, 0x00, 0x00,
   0x10, 0x00, 0x00, 0x00, 0x00, 0x00, 0x00, 0x00, 0x00, 0x00, 0x00, 0x00,
   0x00, 0x00, 0x00, 0x00, 0x00, 0x00, 0x00, 0x00, 0x00, 0x00, 0x00, 0x00,
   0x00, 0x00, 0x00, 0x00, 0x00, 0x00, 0x00, 0x00, 0x40, 0x00, 0x80, 0x00,
   0x00, 0x00, 0x00, 0x00, 0x00, 0x00, 0x00, 0x00, 0x00, 0x00, 0x00, 0x00,
   0x00, 0x00, 0x00, 0x00, 0x00, 0x00, 0x00, 0x00, 0x00, 0x00, 0x00, 0x00,
   0x00, 0x00, 0x00, 0x00, 0x00, 0x40, 0x00, 0x00, 0x00, 0x00, 0x00, 0x00,
   0x00, 0x00, 0x00, 0x00, 0x00, 0x00, 0x00, 0x00, 0x00, 0x00, 0x00, 0x00,
   0x00, 0x00, 0x00, 0x00, 0x00, 0x00, 0x00, 0x00, 0x00, 0x00, 0x00, 0x00,
   0x00, 0x00, 0x80, 0x04, 0x00, 0x00, 0x00, 0x00, 0x00, 0x00, 0x00, 0x00,
   0x00, 0x00, 0x00, 0x00, 0x00, 0x00, 0x00, 0x00, 0x00, 0x00, 0x00, 0x00,
   0x00, 0x00, 0x00, 0x00, 0x00, 0x00, 0x00, 0x00, 0x00, 0x00, 0x00, 0x00,
   0x00, 0x00, 0x00, 0x00, 0x00, 0x00, 0x00, 0x00, 0x00, 0x00, 0x00, 0x00,
   0x00, 0x00, 0x00, 0x00, 0x00, 0x00, 0x00, 0x00, 0x00, 0x00, 0x00, 0x00 };
