#define pnj9_width 264
#define pnj9_height 176
static unsigned char pnj9_bits[] = {
   0x00, 0x00, 0x00, 0x00, 0x00, 0x00, 0x00, 0x00, 0x00, 0x00, 0x00, 0x00,
   0x00, 0x00, 0x00, 0x00, 0x00, 0x00, 0x00, 0x00, 0x00, 0x00, 0x00, 0x00,
   0x00, 0x00, 0x00, 0xac, 0xfe, 0x6f, 0xed, 0xef, 0xff, 0x00, 0x00, 0x00,
   0x00, 0x00, 0x00, 0x00, 0x00, 0x00, 0x00, 0x00, 0x00, 0x00, 0x00, 0x00,
   0x00, 0x00, 0x00, 0x00, 0x00, 0x00, 0x00, 0x00, 0x00, 0x00, 0x00, 0x00,
   0x80, 0xfa, 0x5f, 0x99, 0x54, 0xd5, 0x00, 0x00, 0x00, 0x00, 0x00, 0x00,
   0x00, 0x00, 0x00, 0x00, 0x00, 0x00, 0x00, 0x00, 0x00, 0x00, 0x00, 0x00,
   0x00, 0x00, 0x00, 0x00, 0x00, 0x00, 0x00, 0x00, 0x00, 0x40, 0xea, 0xab,
   0xaa, 0x4e, 0xfd, 0x00, 0x00, 0x00, 0x00, 0x00, 0x00, 0x00, 0x00, 0x00,
   0x00, 0x00, 0x00, 0x00, 0x00, 0x00, 0x00, 0x00, 0x00, 0x00, 0x00, 0x00,
   0x00, 0x00, 0x00, 0x00, 0x00, 0x00, 0x00, 0xdc, 0xaf, 0xb6, 0xfd, 0xfb,
   0x00, 0x00, 0x00, 0x00, 0x00, 0x00, 0x00, 0x00, 0x00, 0x00, 0x00, 0x00,
   0x00, 0x00, 0x00, 0x00, 0x00, 0x00, 0x00, 0x00, 0x00, 0x00, 0x00, 0x00,
   0x00, 0x00, 0x00, 0x00, 0xa0, 0xd6, 0xff, 0xff, 0xff, 0x00, 0x00, 0x00,
   0x00, 0x00, 0x00, 0x00, 0x22, 0x00, 0x00, 0x00, 0x00, 0x00, 0x00, 0x00,
   0x00, 0x00, 0xc0, 0x01, 0x00, 0x00, 0x00, 0x00, 0x00, 0x00, 0x00, 0x00,
   0x00, 0xc0, 0xfa, 0xff, 0xff, 0xff, 0x00, 0x00, 0x00, 0x00, 0x00, 0x00,
   0x00, 0x40, 0x01, 0x00, 0x00, 0x00, 0xe0, 0x03, 0x00, 0x00, 0x00, 0x7e,
   0x00, 0x00, 0x00, 0x00, 0x00, 0x00, 0x00, 0x00, 0x00, 0x00, 0x00, 0xa5,
   0xff, 0xff, 0xff, 0x00, 0x00, 0x00, 0x00, 0x00, 0x00, 0x00, 0x4a, 0x01,
   0x00, 0x00, 0x00, 0xfc, 0x07, 0x00, 0x00, 0x00, 0x3d, 0x00, 0x00, 0x00,
   0x00, 0x00, 0x00, 0x00, 0x00, 0x00, 0x00, 0x00, 0x15, 0xfe, 0xef, 0xff,
   0x00, 0x00, 0x00, 0x00, 0x00, 0x00, 0x00, 0x20, 0x02, 0x00, 0x00, 0x80,
   0xff, 0x5d, 0x00, 0x00, 0xe0, 0x0f, 0x00, 0x00, 0x00, 0x00, 0x00, 0x00,
   0x00, 0x00, 0x00, 0x00, 0x00, 0x00, 0xf4, 0x1f, 0xfd, 0x00, 0x00, 0x00,
   0x00, 0x00, 0x00, 0x00, 0xa2, 0x0a, 0x00, 0x00, 0xf0, 0xbf, 0xff, 0x22,
   0x00, 0xa8, 0x5f, 0x00, 0x00, 0x00, 0x00, 0x00, 0x00, 0x00, 0x00, 0x00,
   0x00, 0x00, 0x00, 0xfe, 0x5f, 0xf2, 0x00, 0x00, 0x00, 0x00, 0x00, 0x00,
   0x00, 0x00, 0x15, 0x00, 0xf0, 0x7f, 0xfb, 0x1e, 0xfa, 0xc3, 0xfe, 0x8b,
   0x00, 0x00, 0x00, 0x00, 0x00, 0x00, 0x00, 0x00, 0x00, 0x00, 0x00, 0x00,
   0xfc, 0x1f, 0xc8, 0x00, 0x00, 0x00, 0x00, 0x00, 0x00, 0x00, 0x50, 0x35,
   0x01, 0x54, 0xef, 0xd7, 0x58, 0xf2, 0xff, 0x76, 0x5f, 0x01, 0x00, 0x00,
   0x00, 0x00, 0x00, 0x00, 0x00, 0x00, 0x00, 0x00, 0x00, 0xf8, 0x1f, 0x00,
   0x00, 0x00, 0x00, 0x00, 0x00, 0x00, 0x00, 0x49, 0x55, 0x85, 0xaa, 0xbd,
   0x2a, 0x80, 0xfd, 0xef, 0xff, 0x6a, 0x01, 0x00, 0x00, 0x00, 0x00, 0x00,
   0x00, 0x00, 0x00, 0x00, 0x00, 0x00, 0xf4, 0x1f, 0x08, 0x00, 0x00, 0x00,
   0x00, 0x00, 0x00, 0x10, 0x51, 0xab, 0xb4, 0x52, 0x03, 0x44, 0x7f, 0xff,
   0xde, 0xed, 0x56, 0x00, 0x00, 0x00, 0x00, 0x00, 0x00, 0x00, 0x00, 0x00,
   0x00, 0x00, 0x00, 0x80, 0x3f, 0x20, 0x00, 0x00, 0x00, 0x00, 0x00, 0x00,
   0x02, 0x54, 0x95, 0x4a, 0x6a, 0x49, 0xe9, 0xfa, 0xdb, 0x7b, 0x7f, 0x55,
   0x00, 0x00, 0x00, 0x00, 0x00, 0x00, 0x00, 0x00, 0x00, 0x00, 0x00, 0x00,
   0x00, 0x3e, 0x09, 0x00, 0x00, 0x00, 0x00, 0x00, 0x00, 0x28, 0xa8, 0x5f,
   0xda, 0x5f, 0x69, 0xdb, 0xc2, 0x7f, 0xfb, 0xff, 0x25, 0x00, 0x00, 0x00,
   0x00, 0x00, 0x00, 0x00, 0x00, 0x00, 0x00, 0x00, 0x00, 0x00, 0x3c, 0x22,
   0x00, 0x00, 0x00, 0x00, 0x00, 0x00, 0x02, 0xaa, 0xff, 0x77, 0xab, 0xde,
   0x25, 0x74, 0xfb, 0xef, 0x17, 0x50, 0x00, 0x00, 0x00, 0x00, 0x00, 0x00,
   0x00, 0x00, 0x00, 0x00, 0x00, 0x00, 0x00, 0xbe, 0x48, 0x00, 0x00, 0x00,
   0x00, 0x00, 0x00, 0x14, 0xe0, 0xff, 0xfe, 0xdf, 0xfb, 0x47, 0xe9, 0xaf,
   0xfd, 0x5d, 0x10, 0x00, 0x00, 0x00, 0x00, 0x00, 0x00, 0x00, 0x00, 0x00,
   0x00, 0x00, 0x00, 0x00, 0x7f, 0x02, 0x00, 0x00, 0x00, 0x00, 0x00, 0x80,
   0x08, 0xf4, 0xff, 0xef, 0xfd, 0xfe, 0xbf, 0xff, 0xfb, 0xb7, 0x01, 0x04,
   0x00, 0x00, 0x00, 0x00, 0x00, 0x00, 0x00, 0x00, 0x00, 0x00, 0x00, 0x00,
   0x80, 0x7f, 0x50, 0x00, 0x00, 0x00, 0x00, 0x00, 0x00, 0x2a, 0xe4, 0xae,
   0xba, 0xdf, 0x5b, 0x69, 0x7d, 0xbf, 0xf6, 0xaa, 0x00, 0x00, 0x00, 0x00,
   0x00, 0x00, 0x00, 0x00, 0x00, 0x00, 0x00, 0x00, 0x00, 0x80, 0x7d, 0x00,
   0x00, 0x00, 0x00, 0x00, 0x00, 0x00, 0x42, 0xb8, 0x53, 0x42, 0x68, 0x05,
   0x00, 0xfd, 0xd3, 0x5f, 0x01, 0x08, 0x00, 0x00, 0x00, 0x00, 0x00, 0x00,
   0x00, 0x00, 0x00, 0x00, 0x00, 0x00, 0xc0, 0x7d, 0x08, 0x00, 0x00, 0x00,
   0x00, 0x00, 0x20, 0x8a, 0xfd, 0x4a, 0x4a, 0x09, 0x90, 0x00, 0x40, 0x5f,
   0x5a, 0x82, 0x00, 0x00, 0x00, 0x00, 0x00, 0x00, 0x00, 0x00, 0x00, 0x00,
   0x00, 0x00, 0x00, 0x80, 0xeb, 0x00, 0x00, 0x00, 0x00, 0x00, 0x00, 0x00,
   0x51, 0x0d, 0x52, 0x40, 0xb0, 0x01, 0x00, 0x00, 0x20, 0xa9, 0xaa, 0x0a,
   0x00, 0x00, 0x00, 0x00, 0x00, 0x00, 0x00, 0x00, 0x00, 0x00, 0x00, 0x00,
   0xc0, 0xff, 0xa0, 0x00, 0x00, 0x00, 0x00, 0x00, 0x00, 0x82, 0xff, 0x7e,
   0xe5, 0x22, 0x05, 0x00, 0x00, 0x00, 0x29, 0x91, 0x34, 0x00, 0x00, 0x00,
   0x00, 0x00, 0x00, 0x00, 0x00, 0x00, 0x00, 0x00, 0x00, 0xc0, 0xf1, 0x00,
   0x00, 0x00, 0x00, 0x00, 0x00, 0x00, 0x42, 0xeb, 0x81, 0x60, 0x41, 0x01,
   0x00, 0x00, 0x20, 0x02, 0x56, 0x4a, 0x00, 0x00, 0x00, 0x00, 0x00, 0x00,
   0x00, 0x00, 0x00, 0x00, 0x00, 0x00, 0x80, 0xfd, 0xa0, 0x00, 0x00, 0x00,
   0x00, 0x00, 0x20, 0xc0, 0x2f, 0x15, 0x68, 0xa8, 0x00, 0x00, 0x00, 0x40,
   0x50, 0x50, 0xa8, 0x05, 0x00, 0x00, 0x00, 0x00, 0x00, 0x00, 0x00, 0x00,
   0x00, 0x00, 0x00, 0xc0, 0xf1, 0x41, 0x00, 0x00, 0x00, 0x00, 0x00, 0x80,
   0xc4, 0x5b, 0x02, 0xb0, 0x40, 0x01, 0x00, 0x00, 0x00, 0x05, 0xa4, 0x53,
   0x02, 0x00, 0x00, 0x00, 0x00, 0x00, 0x00, 0x00, 0x00, 0x00, 0x00, 0x00,
   0xe0, 0xfb, 0x51, 0x00, 0x00, 0x00, 0x00, 0x00, 0x90, 0xc8, 0x47, 0x14,
   0x68, 0x52, 0x00, 0x00, 0x00, 0x50, 0xa4, 0x04, 0xa6, 0x2c, 0x00, 0x00,
   0x00, 0x00, 0x00, 0x00, 0x00, 0x00, 0x00, 0x00, 0x10, 0xc0, 0xfb, 0x89,
   0x00, 0x00, 0x00, 0x00, 0x00, 0x20, 0xa0, 0x88, 0x02, 0x3c, 0xfc, 0x00,
   0x00, 0x00, 0x80, 0x00, 0x50, 0xb8, 0x5a, 0x01, 0x00, 0x00, 0x00, 0x00,
   0x00, 0x00, 0x00, 0x00, 0x08, 0x04, 0xc4, 0xab, 0xb3, 0x00, 0x00, 0x00,
   0x00, 0x00, 0x80, 0xe4, 0x12, 0x00, 0x58, 0x71, 0x01, 0x00, 0x00, 0x00,
   0x55, 0x05, 0xa1, 0x4a, 0x01, 0x00, 0x00, 0x00, 0x00, 0x00, 0x00, 0x00,
   0x00, 0x00, 0xc8, 0x00, 0xfb, 0x45, 0x00, 0x00, 0x00, 0x00, 0x00, 0x28,
   0x50, 0x49, 0x01, 0xae, 0x0e, 0x02, 0x00, 0x00, 0x00, 0x00, 0x54, 0x52,
   0x2b, 0x02, 0x00, 0x00, 0x00, 0x00, 0x00, 0x00, 0x00, 0x00, 0x80, 0x52,
   0xca, 0xef, 0xb7, 0x00, 0x00, 0x00, 0x00, 0x00, 0x80, 0x42, 0x11, 0x00,
   0x5e, 0x0c, 0x02, 0x00, 0x00, 0x00, 0x80, 0x00, 0x82, 0xaa, 0x14, 0x00,
   0x00, 0x00, 0x00, 0x00, 0x00, 0x00, 0x00, 0x00, 0x50, 0xc0, 0xef, 0x55,
   0x00, 0x00, 0x00, 0x00, 0x00, 0x28, 0x68, 0x22, 0x01, 0x26, 0x0e, 0x04,
   0x00, 0x00, 0x00, 0x00, 0xaa, 0x28, 0x2f, 0x21, 0x00, 0x00, 0x00, 0x00,
   0x00, 0x00, 0x00, 0x00, 0xa0, 0x94, 0xba, 0xf7, 0x8b, 0x00, 0x00, 0x00,
   0x00, 0x00, 0x80, 0x42, 0x0a, 0x00, 0x2e, 0xfe, 0x08, 0x00, 0x00, 0x00,
   0x00, 0x04, 0x40, 0xb8, 0x46, 0x00, 0x00, 0x00, 0x00, 0x00, 0x00, 0x00,
   0x00, 0x14, 0x55, 0x41, 0xfe, 0xb7, 0x00, 0x00, 0x00, 0x00, 0x00, 0x14,
   0x18, 0x41, 0x00, 0x0b, 0xbf, 0x02, 0x00, 0x00, 0x00, 0x20, 0x50, 0x15,
   0x2d, 0x99, 0x02, 0x00, 0x00, 0x00, 0x00, 0x00, 0x00, 0x00, 0xa9, 0x48,
   0x84, 0xf7, 0x57, 0x00, 0x00, 0x00, 0x00, 0x00, 0x50, 0x6a, 0x1d, 0x80,
   0x1f, 0xff, 0x04, 0x00, 0x00, 0x00, 0x80, 0x44, 0x22, 0x70, 0xab, 0x02,
   0x00, 0x00, 0x00, 0x00, 0x00, 0x00, 0x00, 0x24, 0x85, 0x2a, 0xf7, 0xd7,
   0x00, 0x00, 0x00, 0x00, 0x00, 0x50, 0x12, 0xa2, 0x80, 0x05, 0x7b, 0x00,
   0x00, 0x00, 0x00, 0x00, 0x52, 0x49, 0xd5, 0xad, 0x14, 0x00, 0x00, 0x00,
   0x00, 0x00, 0x00, 0x00, 0x0a, 0x20, 0xc8, 0xff, 0x57, 0x00, 0x00, 0x00,
   0x00, 0x00, 0x12, 0xaa, 0x0a, 0x80, 0x1f, 0x7b, 0x02, 0x00, 0x00, 0x80,
   0xaa, 0x24, 0x29, 0xe0, 0xad, 0x02, 0x00, 0x00, 0x00, 0x00, 0x00, 0x00,
   0x12, 0xa0, 0x84, 0x4a, 0xf7, 0x57, 0x00, 0x00, 0x00, 0x00, 0x00, 0x60,
   0x54, 0xb5, 0x80, 0x0b, 0x3a, 0x00, 0x00, 0x00, 0x40, 0x00, 0x92, 0x44,
   0xc5, 0x5f, 0x8a, 0x00, 0x00, 0x00, 0x00, 0x00, 0x90, 0x00, 0x0a, 0x59,
   0xa5, 0xeb, 0x03, 0x00, 0x00, 0x00, 0x00, 0x00, 0x08, 0xa8, 0xb6, 0x01,
   0x2f, 0xbf, 0x02, 0x00, 0x00, 0x14, 0x06, 0x80, 0x10, 0x09, 0xfb, 0x10,
   0x01, 0x00, 0x00, 0x00, 0x00, 0x00, 0x80, 0x48, 0x52, 0x49, 0xef, 0x57,
   0x00, 0x00, 0x00, 0x00, 0x00, 0x62, 0xea, 0xd6, 0x02, 0x52, 0x00, 0x00,
   0x00, 0x00, 0x48, 0x00, 0x10, 0x42, 0x42, 0xef, 0xab, 0x04, 0x00, 0x50,
   0x00, 0x00, 0x00, 0x28, 0x20, 0x55, 0xa4, 0xff, 0x2f, 0x00, 0x00, 0x00,
   0x00, 0x40, 0x44, 0x8a, 0xb5, 0x07, 0xae, 0x82, 0x00, 0x00, 0x00, 0x08,
   0x02, 0x40, 0x08, 0x14, 0x58, 0xb7, 0x2a, 0x00, 0x40, 0x25, 0x01, 0x00,
   0x80, 0x55, 0xd4, 0xaa, 0xef, 0x07, 0x00, 0x00, 0x00, 0x00, 0x00, 0x00,
   0xf5, 0xfe, 0x1a, 0x52, 0x22, 0x04, 0x00, 0x00, 0x41, 0x01, 0x00, 0x00,
   0xa1, 0xf6, 0x6f, 0xd3, 0x00, 0x20, 0x4a, 0x54, 0x01, 0x24, 0x45, 0x55,
   0xca, 0xff, 0x0f, 0x00, 0x00, 0x00, 0x00, 0x50, 0x52, 0xd4, 0xd7, 0x2b,
   0xa8, 0xaa, 0x00, 0x54, 0x00, 0x09, 0x00, 0x01, 0x00, 0x08, 0x54, 0x5d,
   0x16, 0x03, 0x40, 0xea, 0x08, 0x00, 0x00, 0x92, 0xaa, 0xb4, 0xef, 0x07,
   0x00, 0x00, 0x00, 0x00, 0x00, 0x00, 0xfb, 0x5a, 0x16, 0xa4, 0x05, 0x00,
   0xa0, 0x01, 0x42, 0x01, 0x04, 0x00, 0xa4, 0xd4, 0xb7, 0x7a, 0x00, 0x00,
   0xb4, 0x47, 0x00, 0xa4, 0x2a, 0x55, 0xd7, 0xff, 0x0f, 0x00, 0x00, 0x00,
   0x00, 0x00, 0x48, 0xd4, 0xa2, 0x74, 0x20, 0x01, 0x00, 0xa0, 0x53, 0x10,
   0x00, 0x00, 0x00, 0x90, 0x54, 0xfd, 0xd2, 0x06, 0x10, 0xa9, 0x9d, 0xd6,
   0x5d, 0xed, 0x55, 0xfd, 0xe7, 0x07, 0x00, 0x00, 0x00, 0x00, 0x00, 0xa1,
   0x3e, 0x15, 0x4d, 0x08, 0x00, 0x00, 0x80, 0x82, 0x40, 0x00, 0x01, 0x00,
   0x45, 0x52, 0xab, 0xd6, 0x19, 0x40, 0xfb, 0x6f, 0x69, 0xa1, 0xba, 0xea,
   0x86, 0xef, 0x0f, 0x00, 0x00, 0x00, 0x00, 0x00, 0x22, 0x41, 0x22, 0xd0,
   0x00, 0x00, 0x00, 0x90, 0x28, 0x08, 0x00, 0x01, 0x40, 0x44, 0xa8, 0xfa,
   0x94, 0x26, 0x00, 0xd5, 0x6f, 0xab, 0xbf, 0xaf, 0xda, 0x1d, 0xe7, 0x07,
   0x00, 0x00, 0x00, 0x00, 0x00, 0x88, 0x2e, 0x09, 0x20, 0x00, 0x00, 0x00,
   0x40, 0x02, 0x10, 0x00, 0x04, 0x80, 0x88, 0xd0, 0xae, 0xab, 0x9a, 0x50,
   0x2b, 0xfd, 0x57, 0xd5, 0xaa, 0x56, 0x81, 0xe6, 0x0f, 0x00, 0x00, 0x00,
   0x00, 0x10, 0x20, 0x24, 0x01, 0x80, 0x01, 0x00, 0x00, 0x88, 0x02, 0x10,
   0x80, 0x00, 0x40, 0x29, 0x85, 0x7a, 0x53, 0xb1, 0xc2, 0x56, 0xf5, 0x54,
   0xb5, 0xb6, 0x55, 0x00, 0xed, 0x07, 0x00, 0x00, 0x00, 0x00, 0x00, 0x90,
   0x44, 0x04, 0x40, 0x02, 0x00, 0x00, 0x40, 0x41, 0x28, 0x00, 0x02, 0x90,
   0xa2, 0xa8, 0xd6, 0x97, 0x46, 0x11, 0x89, 0x5c, 0x57, 0xd5, 0x56, 0x09,
   0x08, 0xe6, 0x0f, 0x00, 0x00, 0x00, 0x00, 0x00, 0x02, 0x8a, 0x00, 0xa0,
   0x06, 0x00, 0x00, 0x20, 0x02, 0x00, 0x40, 0x00, 0x20, 0x4a, 0x89, 0xb4,
   0xae, 0x9a, 0x2a, 0xa9, 0xb0, 0x7a, 0x55, 0x28, 0x90, 0x00, 0xe4, 0x0f,
   0x00, 0x00, 0x00, 0x00, 0x00, 0x50, 0x12, 0x02, 0x40, 0x04, 0x00, 0x00,
   0x80, 0x41, 0x54, 0x00, 0x00, 0x40, 0x24, 0x22, 0xef, 0x55, 0xa5, 0x36,
   0xa0, 0xab, 0x94, 0x82, 0x02, 0x00, 0x00, 0xe8, 0x0f, 0x00, 0x00, 0x00,
   0x00, 0x00, 0x04, 0x56, 0x00, 0xf0, 0x09, 0x10, 0x00, 0x28, 0x01, 0x10,
   0x50, 0x00, 0x48, 0x89, 0x28, 0x58, 0x17, 0xad, 0x74, 0x21, 0xaa, 0xaa,
   0x04, 0x00, 0x40, 0x00, 0xea, 0x0f, 0x00, 0x00, 0x00, 0x00, 0x00, 0x48,
   0x81, 0x04, 0x50, 0x15, 0x40, 0x00, 0x40, 0x01, 0x04, 0x00, 0x01, 0x00,
   0x24, 0x45, 0xaf, 0xad, 0xaa, 0x6a, 0xa5, 0x1f, 0x09, 0x00, 0x00, 0x10,
   0x01, 0xec, 0x0f, 0x00, 0x00, 0x00, 0x00, 0x00, 0x08, 0x2a, 0x00, 0x78,
   0x55, 0x0a, 0x00, 0xc8, 0x28, 0x19, 0x00, 0x00, 0xa8, 0x20, 0x11, 0x78,
   0xab, 0x2a, 0xc9, 0x25, 0x75, 0x12, 0x00, 0x00, 0x00, 0x00, 0xef, 0x0f,
   0x00, 0x00, 0x00, 0x00, 0x00, 0x46, 0x85, 0x00, 0xec, 0xaa, 0xd4, 0x0a,
   0x30, 0x01, 0x22, 0x20, 0x00, 0x80, 0x4a, 0x44, 0xaf, 0x4d, 0x6c, 0x64,
   0x4b, 0xaa, 0x00, 0x00, 0x00, 0x20, 0x00, 0xee, 0x0f, 0x00, 0x00, 0x00,
   0x00, 0x00, 0x08, 0x2b, 0x01, 0xb8, 0xab, 0x91, 0x40, 0x60, 0x35, 0x14,
   0x40, 0x00, 0x50, 0x40, 0x09, 0x78, 0x5b, 0xd0, 0xc4, 0x7e, 0xa9, 0x00,
   0x00, 0x00, 0x00, 0x80, 0xef, 0x0f, 0x00, 0x00, 0x00, 0x00, 0x00, 0xa2,
   0x06, 0x00, 0x6c, 0x55, 0x56, 0x15, 0x10, 0x4a, 0x09, 0x20, 0x00, 0x00,
   0x95, 0xaa, 0xd6, 0x0d, 0x54, 0x51, 0xab, 0x02, 0x00, 0x00, 0x00, 0x00,
   0x80, 0xef, 0x0f, 0x00, 0x00, 0x00, 0x00, 0x00, 0x22, 0x5e, 0x01, 0xfa,
   0xd6, 0x4a, 0x24, 0x30, 0x50, 0x12, 0x40, 0x00, 0x54, 0x81, 0x10, 0x74,
   0x5b, 0x50, 0x85, 0xed, 0x00, 0x00, 0x00, 0x00, 0x00, 0x80, 0xef, 0x0f,
   0x00, 0x00, 0x00, 0x00, 0x80, 0x80, 0x1b, 0x00, 0x5c, 0x15, 0x91, 0x02,
   0x20, 0x24, 0x14, 0x80, 0x00, 0x90, 0x54, 0x22, 0xd6, 0x0d, 0x68, 0xa9,
   0x15, 0x00, 0x00, 0x00, 0x00, 0x00, 0x80, 0xef, 0x0f, 0x00, 0x00, 0x00,
   0x00, 0x00, 0x40, 0xbb, 0x00, 0xfa, 0x15, 0x02, 0x00, 0x20, 0xa4, 0x08,
   0x10, 0x00, 0x90, 0x82, 0xd4, 0x58, 0x1b, 0x51, 0x23, 0x03, 0x00, 0x00,
   0x00, 0x00, 0x00, 0x80, 0xaf, 0x0f, 0x00, 0x00, 0x00, 0x00, 0x40, 0x80,
   0x2e, 0x00, 0x9c, 0x22, 0x00, 0x00, 0x00, 0x50, 0x14, 0x00, 0x00, 0x24,
   0x54, 0x2a, 0xfd, 0x0d, 0x72, 0x45, 0x08, 0x00, 0x00, 0x00, 0x00, 0x00,
   0x80, 0xff, 0x0f, 0x00, 0x00, 0x00, 0x00, 0x40, 0x40, 0x7d, 0x01, 0xbc,
   0x4c, 0x00, 0x00, 0x40, 0x80, 0x00, 0x20, 0x00, 0xc8, 0x84, 0x08, 0xa9,
   0x17, 0xc0, 0xad, 0x00, 0x00, 0x00, 0x00, 0x00, 0x00, 0x80, 0xef, 0x1f,
   0x00, 0x00, 0x00, 0x00, 0x00, 0x80, 0x56, 0x00, 0x5c, 0x33, 0x00, 0x00,
   0x00, 0x28, 0x08, 0x80, 0x00, 0x10, 0x29, 0x25, 0xda, 0x0c, 0xb1, 0x15,
   0x02, 0x00, 0x00, 0x00, 0x00, 0x00, 0x80, 0xef, 0x2f, 0x00, 0x00, 0x00,
   0x00, 0x10, 0x88, 0x7c, 0x00, 0xb8, 0x4c, 0x00, 0x80, 0x8a, 0xa0, 0x18,
   0x00, 0x00, 0x50, 0x22, 0x54, 0xb2, 0x15, 0xa2, 0x12, 0x00, 0x00, 0x00,
   0x00, 0x00, 0x00, 0x80, 0xef, 0x1f, 0x00, 0x00, 0x00, 0x00, 0x40, 0xa0,
   0xd7, 0x00, 0xac, 0x06, 0x00, 0x00, 0x20, 0x40, 0x00, 0x10, 0x00, 0x80,
   0x84, 0x84, 0xec, 0x47, 0xb5, 0x00, 0x00, 0x00, 0x00, 0x00, 0x00, 0x00,
   0x81, 0xff, 0x0f, 0x00, 0x00, 0x00, 0x00, 0x00, 0x20, 0xde, 0x00, 0x58,
   0xf6, 0x00, 0x00, 0x04, 0x48, 0x10, 0x00, 0x00, 0x28, 0x29, 0x19, 0xa9,
   0x0e, 0x6a, 0x01, 0x00, 0x00, 0x00, 0x00, 0x00, 0x00, 0x80, 0xef, 0x1f,
   0x00, 0x00, 0x00, 0x00, 0x00, 0xc8, 0x7b, 0x00, 0x14, 0x5e, 0x00, 0x00,
   0x00, 0x20, 0x01, 0x00, 0x00, 0x40, 0xaa, 0x52, 0xf6, 0x45, 0x11, 0x00,
   0x00, 0x00, 0x00, 0x00, 0x00, 0x00, 0x80, 0xff, 0x1f, 0x00, 0x00, 0x00,
   0x00, 0x00, 0x10, 0xee, 0x00, 0x74, 0xfe, 0x00, 0x00, 0x00, 0x40, 0x00,
   0x00, 0x00, 0x80, 0x44, 0x4a, 0x94, 0x0f, 0x20, 0x00, 0x00, 0x00, 0x00,
   0x00, 0x00, 0x80, 0x80, 0xff, 0x0f, 0x20, 0x00, 0x00, 0x00, 0x00, 0xd0,
   0xad, 0x01, 0x0c, 0xfe, 0x04, 0x00, 0x00, 0x20, 0x11, 0x00, 0x00, 0x20,
   0x29, 0x25, 0x75, 0x05, 0x14, 0x00, 0x00, 0x00, 0x00, 0x00, 0x00, 0x00,
   0x42, 0xfe, 0x1f, 0x00, 0x00, 0x00, 0x00, 0x00, 0x92, 0xbd, 0x01, 0x2c,
   0xf6, 0x00, 0x00, 0x00, 0x20, 0x00, 0x00, 0x00, 0x00, 0x82, 0xa4, 0xd4,
   0x03, 0x00, 0x00, 0x00, 0x00, 0x00, 0x00, 0x00, 0x00, 0x00, 0xfc, 0x07,
   0x40, 0x00, 0x00, 0x00, 0x80, 0x48, 0xd7, 0x04, 0x18, 0xf6, 0x00, 0x00,
   0x00, 0x80, 0x12, 0x00, 0x00, 0x40, 0x28, 0x49, 0x75, 0x01, 0x02, 0x00,
   0x00, 0x00, 0x00, 0x00, 0x00, 0x40, 0x02, 0xff, 0xcf, 0x00, 0x00, 0x00,
   0x00, 0x00, 0x41, 0xbd, 0x01, 0x2c, 0xfe, 0x00, 0x00, 0x00, 0x40, 0x04,
   0x00, 0x00, 0x00, 0x49, 0x25, 0x6d, 0x00, 0x00, 0x00, 0x00, 0x00, 0x00,
   0x00, 0x00, 0x08, 0x00, 0xff, 0x87, 0x00, 0x00, 0x00, 0x00, 0x00, 0x54,
   0xd7, 0x02, 0x28, 0xfe, 0x00, 0x00, 0x00, 0x00, 0x29, 0x00, 0x00, 0x10,
   0x24, 0x48, 0x34, 0x40, 0x00, 0x00, 0x00, 0x00, 0x00, 0x00, 0x00, 0x15,
   0x80, 0xff, 0xcf, 0x00, 0x00, 0x00, 0x00, 0x00, 0x50, 0x5e, 0x03, 0x0c,
   0x04, 0x02, 0x00, 0x00, 0x00, 0x20, 0x00, 0x00, 0x90, 0xa0, 0x99, 0x2a,
   0x20, 0x00, 0x00, 0x00, 0x00, 0x00, 0x00, 0x40, 0x50, 0xc0, 0xff, 0xef,
   0x80, 0x00, 0x00, 0x00, 0x80, 0x44, 0xab, 0x02, 0x18, 0x04, 0x00, 0x00,
   0x00, 0x80, 0x4a, 0x00, 0x00, 0x00, 0x52, 0xa2, 0x0c, 0x10, 0x00, 0x00,
   0x00, 0x00, 0x00, 0x00, 0x00, 0x05, 0xc0, 0xff, 0xff, 0x00, 0x00, 0x00,
   0x00, 0x00, 0x50, 0xfe, 0x06, 0x98, 0x04, 0x05, 0x00, 0x00, 0x00, 0x50,
   0x15, 0x00, 0x40, 0x44, 0x2d, 0x01, 0x00, 0x00, 0x00, 0x00, 0x00, 0x00,
   0x00, 0x08, 0x9a, 0xd8, 0xff, 0xff, 0x00, 0x00, 0x00, 0x00, 0x00, 0x41,
   0xab, 0x02, 0x10, 0x02, 0x00, 0x00, 0x00, 0x00, 0x42, 0x41, 0x00, 0x09,
   0xa9, 0x52, 0x01, 0x00, 0x00, 0x00, 0x00, 0x00, 0x00, 0x00, 0x20, 0x24,
   0xd4, 0xff, 0xff, 0x80, 0x00, 0x00, 0x00, 0x00, 0x4a, 0x5d, 0x0d, 0x10,
   0x0d, 0x05, 0x00, 0x00, 0x00, 0x08, 0x15, 0x55, 0x28, 0x20, 0x25, 0x03,
   0x00, 0x00, 0x00, 0x00, 0x00, 0x00, 0x00, 0x80, 0x40, 0xf4, 0xff, 0xff,
   0x00, 0x00, 0x00, 0x00, 0x00, 0x80, 0x76, 0x0b, 0x20, 0x0a, 0x00, 0x00,
   0x00, 0x00, 0x40, 0x44, 0x88, 0x80, 0x4a, 0x95, 0x00, 0x00, 0x00, 0x00,
   0x00, 0x00, 0x00, 0x00, 0x21, 0x04, 0xed, 0xff, 0xff, 0x00, 0x00, 0x00,
   0x00, 0x00, 0x52, 0x5d, 0x15, 0x20, 0x9a, 0x02, 0x00, 0x00, 0x00, 0x00,
   0x20, 0x29, 0x25, 0x55, 0xa5, 0x00, 0x00, 0x00, 0x00, 0x00, 0x00, 0x00,
   0x00, 0x02, 0x09, 0xfa, 0xff, 0xff, 0x00, 0x01, 0x00, 0x00, 0x00, 0x88,
   0x76, 0x1b, 0x00, 0x14, 0x01, 0x00, 0x00, 0x00, 0x40, 0x52, 0xa0, 0x48,
   0xaa, 0x2a, 0x00, 0x00, 0x00, 0x00, 0x00, 0x00, 0x00, 0x00, 0x00, 0x40,
   0xfb, 0xff, 0xff, 0x00, 0x01, 0x00, 0x00, 0x00, 0x28, 0x6d, 0x35, 0x40,
   0x34, 0x01, 0x00, 0x00, 0x00, 0x04, 0x42, 0x89, 0xaa, 0x2a, 0x25, 0x00,
   0x00, 0x00, 0x00, 0x00, 0x00, 0x00, 0x80, 0x24, 0x44, 0xfe, 0xff, 0xff,
   0x00, 0x00, 0x00, 0x00, 0x00, 0xa5, 0xba, 0x72, 0x00, 0x12, 0x00, 0x00,
   0x00, 0x00, 0x01, 0x28, 0x12, 0x21, 0x55, 0x15, 0x00, 0x00, 0x00, 0x00,
   0x00, 0x00, 0x00, 0x00, 0x00, 0x41, 0xff, 0xff, 0xff, 0x00, 0x00, 0x00,
   0x00, 0x00, 0xa8, 0xb6, 0x42, 0x00, 0x14, 0x00, 0x00, 0x00, 0x00, 0x00,
   0xa1, 0x34, 0x4a, 0x55, 0x25, 0x00, 0x00, 0x00, 0x00, 0x00, 0x00, 0x00,
   0x00, 0x00, 0x80, 0xfe, 0xff, 0xff, 0x00, 0x00, 0x00, 0x00, 0x00, 0x55,
   0x7d, 0xd3, 0x00, 0x00, 0x00, 0x00, 0x00, 0x00, 0x04, 0x2a, 0x49, 0x52,
   0xaa, 0x02, 0x00, 0x00, 0x00, 0x00, 0x00, 0x00, 0x00, 0x80, 0x08, 0xea,
   0xff, 0xff, 0xff, 0x00, 0x00, 0x00, 0x00, 0x00, 0x52, 0x69, 0x46, 0x41,
   0x0a, 0x00, 0x00, 0x00, 0x08, 0x20, 0x44, 0x45, 0x54, 0x95, 0x02, 0x00,
   0x00, 0x00, 0x00, 0x00, 0x00, 0x00, 0x00, 0x00, 0xc0, 0xff, 0xff, 0xff,
   0x00, 0x00, 0x00, 0x00, 0x00, 0x44, 0xfb, 0x91, 0x00, 0x08, 0x00, 0x00,
   0x00, 0x80, 0xa4, 0x28, 0x14, 0x49, 0x69, 0x08, 0x00, 0x00, 0x00, 0x00,
   0x00, 0x00, 0x00, 0x20, 0x91, 0xfa, 0xff, 0xff, 0xff, 0x00, 0x00, 0x00,
   0x00, 0x00, 0x54, 0xa5, 0x17, 0x85, 0x02, 0x00, 0x00, 0x00, 0x81, 0x88,
   0x82, 0x24, 0x52, 0x95, 0x02, 0x00, 0x00, 0x00, 0x00, 0x00, 0x00, 0x00,
   0x00, 0x82, 0xe6, 0xff, 0xff, 0xff, 0x00, 0x00, 0x00, 0x00, 0x00, 0xa8,
   0xea, 0x42, 0x01, 0x08, 0x00, 0x00, 0x00, 0x24, 0xb2, 0x2a, 0x52, 0x95,
   0xaa, 0x04, 0x00, 0x00, 0x00, 0x00, 0x00, 0x00, 0x00, 0x24, 0x00, 0xfb,
   0xff, 0xff, 0xff, 0x00, 0x00, 0x00, 0x00, 0x00, 0xa0, 0xaa, 0x0f, 0x11,
   0x01, 0x00, 0x00, 0x10, 0x80, 0x24, 0x42, 0x00, 0xaa, 0xaa, 0x00, 0x00,
   0x00, 0x00, 0x00, 0x00, 0x00, 0x00, 0x00, 0x05, 0xfe, 0xff, 0xff, 0xff,
   0x00, 0x00, 0x00, 0x00, 0x00, 0x54, 0xd5, 0x2a, 0x01, 0x04, 0x00, 0x00,
   0x40, 0x12, 0x49, 0x05, 0xad, 0x54, 0x6a, 0x00, 0x00, 0x00, 0x00, 0x00,
   0x00, 0x00, 0x00, 0x0a, 0x00, 0xfb, 0xff, 0xff, 0xff, 0x00, 0x00, 0x00,
   0x00, 0x00, 0x42, 0x55, 0x4f, 0x42, 0x00, 0x00, 0x00, 0x00, 0x22, 0x4a,
   0xa8, 0x50, 0x55, 0x2d, 0x00, 0x00, 0x00, 0x00, 0x00, 0x00, 0x00, 0x00,
   0x50, 0x10, 0xff, 0xff, 0xff, 0xff, 0x00, 0x00, 0x00, 0x00, 0x00, 0xaa,
   0x6a, 0x5d, 0x11, 0x01, 0x00, 0x00, 0x24, 0x49, 0x90, 0x45, 0x2a, 0xa9,
   0x15, 0x00, 0x00, 0x00, 0x00, 0x00, 0x00, 0x00, 0x00, 0x80, 0xc0, 0xfd,
   0xff, 0xff, 0xff, 0x00, 0x00, 0x00, 0x00, 0x00, 0x94, 0x54, 0x5b, 0x25,
   0x00, 0x00, 0x00, 0x20, 0xa0, 0x52, 0x94, 0x50, 0x6a, 0x07, 0x00, 0x00,
   0x00, 0x00, 0x00, 0x00, 0x00, 0x00, 0x00, 0x41, 0xff, 0xff, 0xff, 0xff,
   0x00, 0x00, 0x00, 0x00, 0x00, 0x52, 0xb5, 0xb6, 0x82, 0x02, 0x00, 0x00,
   0x84, 0x4a, 0x88, 0x22, 0xa5, 0xb2, 0x0a, 0x00, 0x00, 0x00, 0x00, 0x00,
   0x00, 0x00, 0x00, 0x00, 0xc0, 0xff, 0xff, 0xff, 0xff, 0x00, 0x00, 0x00,
   0x00, 0x00, 0x24, 0xd5, 0xdc, 0x16, 0x00, 0x00, 0x40, 0x28, 0x90, 0x92,
   0x54, 0x49, 0x6d, 0x05, 0x00, 0x00, 0x00, 0x00, 0x00, 0x00, 0x00, 0x00,
   0x00, 0xc0, 0xff, 0xff, 0xff, 0xeb, 0x00, 0x10, 0x00, 0x00, 0x00, 0x95,
   0x54, 0x6b, 0xab, 0x00, 0x00, 0x00, 0x41, 0x55, 0x29, 0x25, 0x95, 0xaa,
   0x04, 0x00, 0x00, 0x00, 0x00, 0x00, 0x00, 0x00, 0x00, 0x08, 0xf0, 0xff,
   0xff, 0xff, 0xf5, 0x00, 0x10, 0x00, 0x00, 0x00, 0x55, 0x55, 0xda, 0x9b,
   0x02, 0x00, 0x10, 0x09, 0x22, 0x55, 0x4a, 0xa9, 0x7e, 0x00, 0x00, 0x00,
   0x00, 0x00, 0x00, 0x00, 0x00, 0x00, 0x10, 0xe8, 0xff, 0xff, 0xff, 0xff,
   0x00, 0x20, 0x00, 0x00, 0x80, 0xa4, 0xd4, 0x75, 0x2d, 0x00, 0x02, 0x04,
   0xa0, 0x94, 0x92, 0x94, 0x44, 0x4b, 0x04, 0x00, 0x00, 0x00, 0x00, 0x00,
   0x00, 0x00, 0x00, 0x00, 0xf4, 0xf7, 0xff, 0xff, 0xfd, 0x00, 0x20, 0x00,
   0x00, 0x80, 0x4a, 0x25, 0xd5, 0xff, 0x00, 0x48, 0x90, 0x0a, 0x51, 0xa5,
   0x25, 0xd5, 0x9e, 0x00, 0x00, 0x00, 0x00, 0x00, 0x00, 0x00, 0x00, 0x00,
   0x10, 0xf9, 0xf7, 0xff, 0xff, 0xfe, 0x00, 0x40, 0x00, 0x00, 0x40, 0x95,
   0xb4, 0x22, 0x14, 0x02, 0x00, 0x00, 0x50, 0x94, 0x2a, 0x55, 0xa9, 0x65,
   0x00, 0x00, 0x00, 0x00, 0x00, 0x00, 0x00, 0x00, 0x00, 0x80, 0xfe, 0xf9,
   0xff, 0x7f, 0xe9, 0x00, 0xc0, 0x00, 0x00, 0x40, 0x55, 0xab, 0x0a, 0x10,
   0x00, 0x00, 0xa8, 0x92, 0x22, 0x55, 0x55, 0x55, 0x0b, 0x00, 0x00, 0x00,
   0x00, 0x00, 0x00, 0x00, 0x00, 0x00, 0x08, 0xfd, 0xcf, 0xff, 0xdf, 0xff,
   0x00, 0x00, 0x01, 0x00, 0x50, 0xab, 0x54, 0x95, 0x00, 0x00, 0x00, 0x3a,
   0x01, 0xd4, 0xaa, 0xaa, 0x74, 0x55, 0x00, 0x00, 0x00, 0x00, 0x00, 0x00,
   0x00, 0x00, 0x00, 0x90, 0xfa, 0x6f, 0xfe, 0xd7, 0xdb, 0x00, 0x00, 0x00,
   0x00, 0xa0, 0xaa, 0x52, 0x11, 0x00, 0x00, 0x40, 0xe1, 0x2b, 0x95, 0xaa,
   0xaa, 0xd2, 0x22, 0x00, 0x00, 0x00, 0x00, 0x00, 0x00, 0x00, 0x00, 0x00,
   0xa0, 0xfe, 0xf7, 0xec, 0x5a, 0xbf, 0x00, 0x00, 0x00, 0x00, 0xa4, 0x96,
   0xaa, 0x0a, 0x00, 0x00, 0x00, 0xde, 0x0f, 0xa4, 0xaa, 0x12, 0xb5, 0x05,
   0x00, 0x00, 0x00, 0x00, 0x00, 0x00, 0x00, 0x00, 0x00, 0x54, 0xfd, 0x5f,
   0x6e, 0xb9, 0xf7, 0x00, 0x00, 0x00, 0x00, 0xa0, 0x24, 0x44, 0x09, 0x00,
   0x00, 0x00, 0xfa, 0x1f, 0xa9, 0x56, 0x25, 0x55, 0x09, 0x00, 0x00, 0x00,
   0x00, 0x00, 0x00, 0x00, 0x00, 0x00, 0x50, 0xff, 0xf7, 0xee, 0x77, 0xdf,
   0x00, 0x00, 0x00, 0x00, 0x54, 0xd5, 0x28, 0x01, 0x00, 0x00, 0xc0, 0xff,
   0x3f, 0x48, 0x55, 0xa9, 0x3e, 0x05, 0x00, 0x00, 0x00, 0x00, 0x00, 0x00,
   0x00, 0x00, 0x00, 0xaa, 0xfe, 0xfb, 0xff, 0xf6, 0x7f, 0x00, 0x00, 0x00,
   0x00, 0x54, 0x55, 0x55, 0x28, 0x00, 0x00, 0xd0, 0xff, 0x5f, 0xa0, 0x6a,
   0xa5, 0xf6, 0x0a, 0x20, 0x00, 0x00, 0x00, 0x00, 0x00, 0x00, 0x00, 0x00,
   0xba, 0xff, 0xff, 0xde, 0xf6, 0xeb, 0x00, 0x00, 0x04, 0x00, 0xd4, 0x84,
   0x2a, 0x01, 0x00, 0x00, 0xf8, 0xff, 0x3f, 0x00, 0x55, 0x55, 0x4b, 0xab,
   0x02, 0x00, 0x00, 0x00, 0x00, 0x00, 0x00, 0x00, 0x00, 0x84, 0x7f, 0xfd,
   0xaf, 0xff, 0xbf, 0x00, 0x00, 0x18, 0x00, 0xa8, 0xad, 0x4a, 0x04, 0x00,
   0x54, 0xf5, 0xff, 0x7f, 0x00, 0xb4, 0xad, 0x56, 0x01, 0x00, 0x00, 0x00,
   0x00, 0x00, 0x00, 0x00, 0x00, 0x80, 0xec, 0x7f, 0xff, 0xdf, 0xad, 0xef,
   0x00, 0x00, 0x70, 0x00, 0x54, 0x49, 0x2a, 0x41, 0x00, 0xea, 0xfa, 0xff,
   0xff, 0x00, 0x4a, 0x95, 0x4b, 0x01, 0x00, 0x00, 0x00, 0x00, 0x00, 0x00,
   0x00, 0x00, 0x00, 0xd2, 0xbf, 0xfd, 0xfb, 0xff, 0xb5, 0x00, 0x00, 0xc0,
   0x00, 0x48, 0x5a, 0x25, 0x08, 0x00, 0xfc, 0xff, 0xff, 0xff, 0x01, 0xa8,
   0xba, 0x1b, 0x02, 0x00, 0x00, 0x00, 0x00, 0x00, 0x00, 0x00, 0x20, 0x00,
   0xec, 0x6f, 0xff, 0xef, 0xf5, 0xef, 0x00, 0x00, 0x60, 0x01, 0x40, 0x55,
   0x49, 0x85, 0xa0, 0xfa, 0xff, 0xff, 0xff, 0x00, 0xf0, 0xff, 0x26, 0x81,
   0x00, 0x00, 0x00, 0x00, 0x00, 0x00, 0x00, 0x00, 0x00, 0xea, 0x5f, 0xbb,
   0xb5, 0x5e, 0xf7, 0x00, 0x00, 0xc0, 0x07, 0x00, 0xa5, 0x12, 0x3a, 0xdf,
   0xfd, 0xff, 0xff, 0xff, 0x00, 0x40, 0xab, 0x7f, 0x01, 0x00, 0x00, 0x00,
   0x00, 0x00, 0x00, 0x00, 0x08, 0x04, 0xfc, 0xbf, 0xfb, 0xb6, 0xfb, 0xde,
   0x00, 0x00, 0x40, 0x15, 0x50, 0x4d, 0x43, 0xf4, 0xf5, 0xff, 0xff, 0xff,
   0xff, 0x01, 0x80, 0xab, 0xd4, 0x85, 0x00, 0x00, 0x00, 0x00, 0x00, 0x00,
   0x00, 0x00, 0x00, 0xfa, 0xa7, 0xee, 0xbb, 0xd7, 0x7b, 0x00, 0x00, 0xc0,
   0x57, 0xc0, 0x53, 0x0f, 0xa9, 0xff, 0xff, 0xff, 0xff, 0xff, 0x00, 0x00,
   0x7f, 0x15, 0x7d, 0x03, 0x00, 0x00, 0x00, 0x00, 0x00, 0x00, 0x14, 0x08,
   0xfa, 0xdd, 0x7f, 0xeb, 0x5a, 0xf7, 0x00, 0x00, 0x80, 0xbe, 0x6b, 0x85,
   0xde, 0x7e, 0xff, 0xff, 0xff, 0xff, 0xff, 0x01, 0x00, 0xc0, 0x6a, 0xd5,
   0x0d, 0x00, 0x00, 0x00, 0x00, 0x00, 0x00, 0x00, 0x04, 0xfc, 0x57, 0x5b,
   0xb5, 0xf7, 0xae, 0x00, 0x00, 0x80, 0x6d, 0xaf, 0x85, 0xba, 0xd5, 0xff,
   0xff, 0xff, 0xff, 0xff, 0x03, 0x00, 0x00, 0xc8, 0x5a, 0xad, 0x00, 0x00,
   0x00, 0x00, 0x00, 0x80, 0x10, 0xa8, 0xfc, 0xf5, 0xdb, 0x6d, 0xd5, 0xf9,
   0x00, 0x00, 0x00, 0xf7, 0x6a, 0xbf, 0xf7, 0xfb, 0xff, 0xff, 0xff, 0xff,
   0xff, 0x03, 0x20, 0x68, 0x27, 0xea, 0x5f, 0x07, 0x00, 0x00, 0x00, 0x00,
   0x00, 0x02, 0x56, 0xff, 0x57, 0x2f, 0x55, 0x7d, 0xd7, 0x00, 0x00, 0x00,
   0x5e, 0xd7, 0xff, 0x4a, 0xe6, 0xff, 0xff, 0xff, 0xff, 0xff, 0x06, 0xf0,
   0xef, 0x56, 0x00, 0x3a, 0x20, 0x00, 0x00, 0x00, 0x00, 0x00, 0x08, 0xa8,
   0x7e, 0xfd, 0xea, 0xb6, 0xf7, 0xde, 0x00, 0x00, 0x00, 0x7a, 0xfd, 0xff,
   0xaf, 0xf9, 0xff, 0xff, 0xff, 0xff, 0xff, 0x11, 0xe0, 0xfb, 0xff, 0x0f,
   0x65, 0x80, 0x00, 0x00, 0x00, 0x00, 0x00, 0x41, 0xd6, 0xfd, 0xd7, 0x5d,
   0xed, 0xfd, 0x75, 0x00, 0x00, 0x00, 0xd4, 0xfb, 0xff, 0xff, 0xfb, 0xff,
   0xff, 0xff, 0xff, 0xbf, 0x0b, 0xc0, 0xdf, 0xfd, 0x7f, 0x5d, 0x83, 0x00,
   0x00, 0x00, 0x00, 0x00, 0x08, 0x54, 0xff, 0xbe, 0xd5, 0xaa, 0xbf, 0xef,
   0x00, 0x00, 0x00, 0xb8, 0xfe, 0xff, 0xff, 0xff, 0xff, 0xff, 0xff, 0xff,
   0x77, 0x0f, 0xe0, 0xff, 0x6f, 0xbd, 0x3f, 0x0a, 0x01, 0x00, 0x00, 0x00,
   0x10, 0x41, 0xae, 0xfe, 0x55, 0x6f, 0x5b, 0xf5, 0x5a, 0x00, 0x00, 0x00,
   0xb0, 0xfd, 0xff, 0xff, 0xff, 0xff, 0xff, 0xff, 0xff, 0x7f, 0xbe, 0xc0,
   0xb7, 0xfd, 0xff, 0xfd, 0x7a, 0x01, 0x00, 0x00, 0x00, 0x21, 0x08, 0xb5,
   0xff, 0xef, 0x5d, 0xdb, 0xff, 0x7b, 0x00, 0x00, 0x00, 0xc0, 0xea, 0xff,
   0xff, 0xff, 0xff, 0xff, 0xff, 0xff, 0xff, 0x7d, 0xeb, 0xff, 0xb7, 0xaa,
   0xf7, 0xd7, 0x03, 0x00, 0x00, 0x00, 0x80, 0x22, 0xad, 0xfe, 0xb4, 0xfe,
   0x6a, 0xb6, 0xaf, 0x00, 0x00, 0x00, 0x80, 0x5b, 0xfd, 0xff, 0xff, 0xff,
   0xff, 0xff, 0xff, 0x7f, 0xff, 0x8a, 0xdb, 0xff, 0xba, 0x7e, 0xa5, 0x06,
   0x00, 0x00, 0x80, 0x2a, 0x24, 0xab, 0xdf, 0xf6, 0x5b, 0xd5, 0xfd, 0x6f,
   0x00, 0x00, 0x00, 0x00, 0xeb, 0xe6, 0xff, 0xff, 0xff, 0xff, 0xff, 0xff,
   0xff, 0xbd, 0xeb, 0x35, 0x00, 0x00, 0x09, 0x00, 0x03, 0x00, 0x00, 0x00,
   0x40, 0xa8, 0xce, 0x7f, 0xdb, 0xee, 0xaa, 0xb6, 0x3d, 0x00, 0x00, 0x00,
   0x00, 0xae, 0xdd, 0xff, 0xff, 0xff, 0xff, 0xff, 0xff, 0xff, 0x7f, 0x9f,
   0x6f, 0x1b, 0x00, 0x00, 0x00, 0x0e, 0x00, 0x00, 0x80, 0x96, 0x00, 0x9d,
   0x7f, 0xdf, 0x6b, 0x8b, 0xfd, 0x6f, 0x00, 0x00, 0x00, 0x00, 0x7c, 0xfb,
   0xff, 0xff, 0xff, 0xff, 0xff, 0xff, 0xfe, 0xfe, 0xef, 0xba, 0x05, 0x2a,
   0x00, 0x00, 0x1c, 0x00, 0x00, 0x00, 0x48, 0xaa, 0xc7, 0xdf, 0xbd, 0xda,
   0xb4, 0x7f, 0x3b, 0x00, 0x00, 0x00, 0x00, 0x70, 0xdb, 0xff, 0xff, 0xff,
   0xff, 0xff, 0xff, 0xff, 0xff, 0xfe, 0xb7, 0x1d, 0x00, 0x00, 0x00, 0x18,
   0x00, 0x00, 0x00, 0x12, 0x88, 0x96, 0xff, 0xab, 0xda, 0x56, 0xf5, 0x3f,
   0x00, 0x00, 0x00, 0x00, 0xe0, 0xfd, 0xff, 0xff, 0xff, 0xff, 0xff, 0xff,
   0xff, 0xbf, 0xff, 0x7d, 0x03, 0x48, 0x00, 0x00, 0x30, 0x00, 0x00, 0x00,
   0xa8, 0x42, 0xcb, 0xff, 0x77, 0x55, 0xab, 0xdf, 0x57, 0x00, 0x00, 0x00,
   0x00, 0xc0, 0xf7, 0xff, 0xff, 0xff, 0xff, 0xff, 0xff, 0xff, 0xff, 0xfe,
   0x6f, 0x15, 0x09, 0x00, 0x00, 0x24, 0x00, 0x00, 0x00, 0x41, 0xc8, 0x8a,
   0x7f, 0x4d, 0xe5, 0xdb, 0x72, 0x1d, 0x00, 0x00, 0x00, 0x00, 0x80, 0xff,
   0xff, 0xff, 0xff, 0xff, 0xff, 0xf7, 0xff, 0xab, 0xff, 0xef, 0x01, 0x11,
   0x00, 0x00, 0x90, 0x00, 0x00, 0x00, 0x04, 0xa9, 0xd1, 0xaf, 0xb6, 0x9a,
   0xb6, 0x55, 0x15, 0x00, 0x00, 0x00, 0x00, 0x00, 0xff, 0xff, 0xff, 0xff,
   0xff, 0xff, 0xff, 0xff, 0x7f, 0xff, 0xbf, 0x0f, 0x03, 0x00, 0x00, 0x20,
   0x01, 0x00, 0x00, 0x28, 0xa1, 0xa6, 0xdf, 0x4d, 0x85, 0xa6, 0x76, 0x0d,
   0x00, 0x00, 0x00, 0x00, 0x00, 0xfc, 0xff, 0xff, 0xff, 0xff, 0xff, 0xff,
   0xff, 0xaf, 0xbf, 0xd7, 0x4a, 0x14, 0x00, 0x00, 0x08, 0x14, 0x00, 0x00,
   0x48, 0x74, 0xd1, 0x5f, 0xb5, 0xba, 0xed, 0xaa, 0x0a, 0x00, 0x00, 0x00,
   0x00, 0x00, 0xf8, 0xff, 0xff, 0xff, 0xff, 0xbf, 0xff, 0xff, 0x7f, 0xbf,
   0xbe, 0x16, 0x21, 0x00, 0x00, 0x00, 0x00, 0x00, 0x00, 0x89, 0x68, 0xea,
   0x57, 0x57, 0x6e, 0xdf, 0x6b, 0x0d, 0x00, 0x00, 0x00, 0x00, 0x00, 0xe0,
   0xff, 0xff, 0xff, 0xff, 0xff, 0xff, 0xff, 0xdb, 0x4f, 0xd3, 0x2d, 0x02,
   0x00, 0x00, 0x10, 0x00, 0x00, 0x00, 0x48, 0xbc, 0xfa, 0xbf, 0x50, 0xbb,
   0xff, 0xff, 0x0f, 0x00, 0x00, 0x00, 0x00, 0x00, 0xc0, 0xff, 0xff, 0xff,
   0xff, 0xff, 0xff, 0xff, 0x7f, 0x5f, 0x6e, 0xa5, 0x0a, 0x00, 0x00, 0x10,
   0x10, 0x00, 0x00, 0x48, 0xb5, 0xfc, 0x5f, 0xea, 0xfe, 0xff, 0xff, 0x0f,
   0x00, 0x00, 0x00, 0x00, 0x00, 0x00, 0xff, 0xff, 0xff, 0xff, 0xff, 0xff,
   0xff, 0xbf, 0xaf, 0xdb, 0x57, 0x22, 0x00, 0x00, 0x20, 0x00, 0x00, 0x00,
   0x54, 0x7d, 0xff, 0xaf, 0x7d, 0xff, 0xff, 0xff, 0x07, 0x00, 0x00, 0x00,
   0x00, 0x00, 0x00, 0xfe, 0xff, 0xff, 0xff, 0xff, 0xff, 0xff, 0xf7, 0xd6,
   0xaf, 0x4e, 0x05, 0x00, 0x00, 0x00, 0x00, 0x00, 0x05, 0xa8, 0x6b, 0xff,
   0xef, 0xf5, 0xff, 0xff, 0xff, 0x01, 0x00, 0x00, 0x00, 0x00, 0x00, 0x00,
   0xf8, 0xff, 0xff, 0xff, 0xff, 0xff, 0xff, 0x7f, 0xab, 0xd7, 0x7b, 0x01,
   0x00, 0x00, 0x20, 0x00, 0x00, 0x04, 0x68, 0xbf, 0xff, 0x65, 0xff, 0xff,
   0xff, 0xff, 0x01, 0x00, 0x00, 0x00, 0x00, 0x00, 0x00, 0xf0, 0xff, 0xff,
   0xff, 0xff, 0xff, 0xff, 0xef, 0x8f, 0xbf, 0xd6, 0x05, 0x00, 0x00, 0x00,
   0xa4, 0x80, 0x14, 0x54, 0xb5, 0xbf, 0x5d, 0xfd, 0xff, 0xff, 0x7f, 0x00,
   0x00, 0x00, 0x00, 0x00, 0x00, 0x00, 0x80, 0xff, 0xff, 0xff, 0xff, 0xff,
   0xff, 0x7f, 0x3f, 0x6f, 0x7f, 0x03, 0x00, 0x00, 0x80, 0x08, 0x49, 0x10,
   0xb4, 0xcf, 0x7f, 0xd5, 0xff, 0xff, 0xff, 0x1b, 0x00, 0x00, 0x00, 0x00,
   0x00, 0x00, 0x00, 0x00, 0xfe, 0xff, 0xff, 0xff, 0xff, 0xff, 0xef, 0xce,
   0xde, 0x6a, 0x07, 0x00, 0x00, 0x00, 0x11, 0x28, 0x22, 0x68, 0xfd, 0xbf,
   0xfd, 0xff, 0xff, 0x6d, 0x1f, 0x00, 0x00, 0x00, 0x00, 0x00, 0x00, 0x00,
   0x00, 0xe0, 0xff, 0xff, 0xff, 0xff, 0xff, 0x7f, 0x4f, 0xfe, 0xff, 0x09,
   0x00, 0x00, 0x00, 0x40, 0x12, 0x09, 0xec, 0xf3, 0xaf, 0xff, 0xff, 0xff,
   0xf7, 0x0d, 0x00, 0x00, 0x00, 0x00, 0x00, 0x00, 0x00, 0x00, 0x00, 0xfe,
   0xff, 0xff, 0xff, 0xff, 0xff, 0x8e, 0xbe, 0xb6, 0x07, 0x00, 0x00, 0x00,
   0x90, 0x24, 0x10, 0xa8, 0xf6, 0x7b, 0x7e, 0x75, 0x7b, 0xff, 0x0d, 0x00,
   0x00, 0x00, 0x00, 0x00, 0x00, 0x00, 0x00, 0x00, 0xf8, 0xff, 0xff, 0xff,
   0xff, 0x7f, 0x4f, 0xfe, 0xfb, 0x0b, 0x00, 0x00, 0x00, 0x44, 0x25, 0x22,
   0x76, 0xfd, 0xf7, 0x5f, 0xdf, 0xdf, 0xdf, 0x07, 0x00, 0x00, 0x00, 0x00,
   0x00, 0x00, 0x00, 0x00, 0x00, 0xe0, 0xff, 0xff, 0xff, 0xff, 0xff, 0x9d,
   0xfe, 0xf7, 0x07, 0x00, 0x00, 0x00, 0x10, 0x4e, 0x44, 0xd4, 0xfa, 0xfb,
   0xdf, 0x5a, 0xfa, 0xff, 0x02, 0x00, 0x00, 0x00, 0x00, 0x00, 0x00, 0x00,
   0x00, 0x00, 0x80, 0xff, 0xff, 0xff, 0xff, 0xff, 0x46, 0xfd, 0x7b, 0x13,
   0x00, 0x00, 0x00, 0x80, 0x2a, 0x90, 0x7d, 0xfd, 0xff, 0xb7, 0xf6, 0xf5,
   0xff, 0x03, 0x00, 0x00, 0x00, 0x00, 0x00, 0x00, 0x00, 0x00, 0x00, 0x00,
   0xfc, 0xff, 0xff, 0xff, 0xff, 0xaf, 0xf4, 0xef, 0x17, 0x00, 0x00, 0x00,
   0x00, 0x94, 0x22, 0xd5, 0xff, 0xff, 0xff, 0xaa, 0x6e, 0xff, 0x01, 0x00,
   0x00, 0x00, 0x00, 0x00, 0x00, 0x00, 0x00, 0x00, 0x00, 0xf0, 0xff, 0xff,
   0xff, 0xff, 0x06, 0xf5, 0xef, 0xaf, 0x00, 0x00, 0x00, 0x00, 0x2a, 0x88,
   0xde, 0xff, 0xff, 0xbf, 0xb5, 0xf5, 0xff, 0x00, 0x00, 0x00, 0x00, 0x00,
   0x00, 0x00, 0x00, 0x00, 0x00, 0x00, 0x80, 0xff, 0xff, 0xff, 0xff, 0xaf,
   0xcc, 0xdf, 0xaf, 0x02, 0x00, 0x00, 0x00, 0xa2, 0xa8, 0xda, 0xff, 0xfd,
   0xff, 0xd7, 0x5f, 0xfd, 0x01, 0x00, 0x00, 0x00, 0x00, 0x00, 0x00, 0x00,
   0x00, 0x00, 0x00, 0x00, 0xfc, 0xff, 0xff, 0xff, 0x27, 0xb5, 0xff, 0x2f,
   0x05, 0x00, 0x00, 0x00, 0x54, 0x00, 0xf7, 0xff, 0xff, 0xdf, 0x6f, 0xf5,
   0xf7, 0x00, 0x00, 0x00, 0x00, 0x00, 0x00, 0x00, 0x00, 0x00, 0x00, 0x00,
   0x00, 0xe0, 0xff, 0xff, 0x7f, 0x4f, 0xfa, 0xbe, 0x6d, 0x15, 0x00, 0x00,
   0x00, 0xd0, 0x05, 0xf5, 0xff, 0x7f, 0xff, 0x5e, 0xbf, 0x7e, 0x00, 0x00,
   0x00, 0x00, 0x00, 0x00, 0x00, 0x00, 0x00, 0x00, 0x00, 0x00, 0x00, 0xfe,
   0xff, 0xff, 0x47, 0xf5, 0xf7, 0xbe, 0x29, 0x00, 0x00, 0x00, 0x48, 0xaf,
   0xf5, 0xff, 0xff, 0xff, 0xef, 0xe6, 0x7b, 0x00, 0x00, 0x00, 0x00, 0x00,
   0x00, 0x00, 0x00, 0x00, 0x00, 0x00, 0x00, 0x00, 0xfc, 0xff, 0xff, 0x4f,
   0xf5, 0xdf, 0x75, 0x0b, 0x00, 0x00, 0x00, 0x80, 0xbc, 0xfd, 0xff, 0xfd,
   0xff, 0xdf, 0x5d, 0x3f, 0x00, 0x00, 0x00, 0x00, 0x00, 0x00, 0x00, 0x00,
   0x00, 0x00, 0x00, 0x00, 0x00, 0xe0, 0xff, 0xff, 0x0f, 0xd1, 0xff, 0xee,
   0x06, 0x00, 0x00, 0x00, 0x48, 0xfb, 0xfe, 0xff, 0xbf, 0xdf, 0xbf, 0xbb,
   0x0a, 0x00, 0x00, 0x00, 0x00, 0x00, 0x00, 0x00, 0x00, 0x00, 0x00, 0x00,
   0x00, 0x00, 0x00, 0xff, 0xff, 0x9f, 0x6a, 0xfb, 0xd9, 0x1d, 0x00, 0x00,
   0x00, 0x90, 0xaa, 0xfe, 0xff, 0x7f, 0x7f, 0xfb, 0xf6, 0x0f, 0x00, 0x00,
   0x00, 0x00, 0x00, 0x00, 0x00, 0x00, 0x00, 0x00, 0x00, 0x00, 0x00, 0x00,
   0xfc, 0xff, 0x0f, 0xb9, 0xdf, 0xb7, 0x23, 0x00, 0x00, 0x00, 0xa0, 0xfe,
   0xfe, 0xff, 0xff, 0xff, 0x5f, 0xab, 0x02, 0x00, 0x00, 0x00, 0x00, 0x00,
   0x00, 0x00, 0x00, 0x00, 0x00, 0x00, 0x00, 0x00, 0x00, 0xe0, 0xff, 0x3f,
   0xf7, 0xbd, 0x65, 0x2f, 0x00, 0x00, 0x00, 0x44, 0xa9, 0xff, 0xff, 0x6d,
   0xff, 0xff, 0xfb, 0x03, 0x00, 0x00, 0x00, 0x00, 0x00, 0x00, 0x00, 0x00,
   0x00, 0x00, 0x00, 0x00, 0x00, 0x00, 0x80, 0xff, 0x4d, 0x12, 0xf7, 0xbb,
   0x07, 0x00, 0x00, 0x00, 0xa0, 0xde, 0xff, 0xff, 0xbf, 0xfe, 0x56, 0xad,
   0x00, 0x00, 0x00, 0x00, 0x00, 0x00, 0x00, 0x00, 0x00, 0x00, 0x00, 0x00,
   0x00, 0x00, 0x00, 0x00, 0xff, 0xaf, 0x06, 0xb0, 0xf7, 0x5a, 0x00, 0x00,
   0x00, 0x88, 0xb5, 0xff, 0xff, 0xff, 0xfe, 0xdf, 0x77, 0x00, 0x00, 0x00,
   0x00, 0x00, 0x00, 0x00, 0x00, 0x00, 0x00, 0x00, 0x00, 0x00, 0x00, 0x00,
   0x00, 0xfc, 0x5f, 0x0f, 0xe0, 0xd6, 0x0b, 0x01, 0x00, 0x00, 0xb0, 0xde,
   0xff, 0xff, 0xdf, 0xfb, 0xbf, 0x1a, 0x00, 0x00, 0x00, 0x00, 0x00, 0x00,
   0x00, 0x00, 0x00, 0x00, 0x00, 0x00, 0x00, 0x00, 0x00, 0x00, 0x00, 0xa4,
   0x06, 0x80, 0x5f, 0x2b, 0x00, 0x00, 0x00, 0x40, 0xdb, 0xff, 0xff, 0x7f,
   0xbf, 0xfd, 0x0f, 0x00, 0x00, 0x00, 0x00, 0x00, 0x00, 0x00, 0x00, 0x00,
   0x00, 0x00, 0x00, 0x00, 0x00, 0x00, 0x00, 0x00, 0x54, 0x05, 0x00, 0xd6,
   0x2a, 0x00, 0x00, 0x00, 0xb4, 0xed, 0xff, 0xff, 0xdf, 0xef, 0xbf, 0x01,
   0x00, 0x00, 0x00, 0x00, 0x00, 0x00, 0x00, 0x00, 0x00, 0x00, 0x00, 0x00,
   0x00, 0x00, 0x00, 0x00, 0x00, 0x94, 0x00, 0x00, 0xdc, 0x55, 0x00, 0x00,
   0x00, 0xa4, 0xff, 0xff, 0xff, 0x7f, 0xfd, 0xf7, 0x01, 0x00, 0x00, 0x00,
   0x00, 0x00, 0x00, 0x00, 0x00, 0x00, 0x00, 0x00, 0x00, 0x00, 0x00, 0x00,
   0x00, 0x00, 0x28, 0x01, 0x00, 0x58, 0x15, 0x00, 0x50, 0x02, 0xaa, 0xea,
   0xff, 0xff, 0xef, 0x56, 0x7d, 0x00, 0x00, 0x00, 0x00, 0x00, 0x00, 0x00,
   0x00, 0x00, 0x00, 0x00, 0x00, 0x00, 0x00, 0x00, 0x00, 0x00, 0x00, 0x28,
   0x00, 0x00, 0xb0, 0xab, 0x00, 0x81, 0x24, 0xd4, 0xff, 0xff, 0xff, 0xff,
   0xff, 0x3f, 0x00, 0x00, 0x00, 0x00, 0x00, 0x00, 0x00, 0x00, 0x00, 0x00,
   0x00, 0x00, 0x00, 0x00, 0x00, 0x00, 0x00, 0x00, 0x10, 0x00, 0x00, 0x60,
   0x0b, 0x0a, 0x14, 0x11, 0x50, 0xfd, 0xff, 0xff, 0xd7, 0xdf, 0x07, 0x00,
   0x00, 0x00, 0x00, 0x00, 0x00, 0x00, 0x00, 0x00, 0x00, 0x00, 0x00, 0x00,
   0x00, 0x00, 0x00, 0x00, 0x00, 0x00, 0x00, 0x00, 0x40, 0x5b, 0xa0, 0x40,
   0x44, 0xd4, 0xfb, 0xff, 0xff, 0xff, 0xfa, 0x07, 0x00, 0x00, 0x00, 0x00,
   0x00, 0x00, 0x00, 0x00, 0x00, 0x00, 0x00, 0x00, 0x00, 0x00, 0x00, 0x00,
   0x00, 0x00, 0x00, 0x00, 0x00, 0x80, 0x85, 0x14, 0x22, 0x09, 0x51, 0xff,
   0xff, 0xff, 0xdb, 0x7f, 0x00, 0x00, 0x00, 0x00, 0x00, 0x00, 0x00, 0x00,
   0x00, 0x00, 0x00, 0x00, 0x00, 0x00, 0x00, 0x00, 0x00, 0x00, 0x00, 0x00,
   0x00, 0x00, 0x00, 0x5d, 0x41, 0x04, 0x28, 0xe8, 0xff, 0xff, 0xff, 0xff,
   0x7f, 0x00, 0x00, 0x00, 0x00, 0x00, 0x00, 0x00, 0x00, 0x00, 0x00, 0x00,
   0x00, 0x00, 0x00, 0x00, 0x00, 0x00, 0x00, 0x00, 0x00, 0x00, 0x00, 0x00,
   0x92, 0x54, 0xd1, 0x92, 0x5a, 0xfd, 0xff, 0xff, 0xff, 0x0f, 0x00, 0x00,
   0x00, 0x00, 0x00, 0x00, 0x00, 0x00, 0x00, 0x00, 0x00, 0x00, 0x00, 0x00,
   0x00, 0x00, 0x00, 0x00, 0x00, 0x00, 0x00, 0x00, 0x00, 0xb4, 0x00, 0x85,
   0x12, 0xf1, 0xfb, 0xff, 0xff, 0xff, 0x07, 0x00, 0x00, 0x00, 0x00, 0x00 };
